<?xml version="1.0" standalone="no"?>
<!DOCTYPE svg PUBLIC "-//W3C//DTD SVG 1.1//EN" "http://www.w3.org/Graphics/SVG/1.1/DTD/svg11.dtd" >
<svg xmlns="http://www.w3.org/2000/svg" xmlns:xlink="http://www.w3.org/1999/xlink" version="1.1">
<metadata>
Created by FontForge 20201107 at Fri Feb 16 19:17:25 2024
 By 
copyright missing
</metadata>
<defs>
<font id="NeueRegrade-Regular-Italic" horiz-adv-x="1118" >
  <font-face 
    font-family="Neue Regrade"
    font-weight="400"
    font-style="italic"
    font-stretch="normal"
    units-per-em="2048"
    panose-1="0 0 0 0 0 0 0 0 0 0"
    ascent="1638"
    descent="-410"
    x-height="999"
    cap-height="1434"
    bbox="-338 -594 2443 1999"
    underline-thickness="102"
    underline-position="-255"
    slope="-12"
    unicode-range="U+0020-2265"
  />
<missing-glyph horiz-adv-x="1167" 
d="M956 1741v-2335h-739v2335h739zM778 150h-389v-265h389v265zM700 72v-111h-233v111h233zM778 553h-233v-131h78v53h77v-108h-233v186h-78v-264h389v264zM778 838h-78v-154h-311v-80h389v234zM778 977h-389v-76h156v-88h-156v-76h234v164h155v76zM545 1204v-84h-78v84h78z
M623 1284h-234v-244h389v80h-155v164zM778 1585h-385v-78h152v-86h-156v-78h389v78h-155v86h155v78zM778 -170h-389v-76h164l-164 -110v-76h389v76h-239l163 110h76v76z" />
    <glyph glyph-name=".notdef" horiz-adv-x="1167" 
d="M956 1741v-2335h-739v2335h739zM778 150h-389v-265h389v265zM700 72v-111h-233v111h233zM778 553h-233v-131h78v53h77v-108h-233v186h-78v-264h389v264zM778 838h-78v-154h-311v-80h389v234zM778 977h-389v-76h156v-88h-156v-76h234v164h155v76zM545 1204v-84h-78v84h78z
M623 1284h-234v-244h389v80h-155v164zM778 1585h-385v-78h152v-86h-156v-78h389v78h-155v86h155v78zM778 -170h-389v-76h164l-164 -110v-76h389v76h-239l163 110h76v76z" />
    <glyph glyph-name=".null" horiz-adv-x="0" 
 />
    <glyph glyph-name="nonmarkingreturn" horiz-adv-x="682" 
 />
    <glyph glyph-name="space" unicode=" " horiz-adv-x="567" 
 />
    <glyph glyph-name="space" unicode="&#xa0;" horiz-adv-x="567" 
 />
    <glyph glyph-name="exclam" unicode="!" horiz-adv-x="419" 
d="M350 1434h117l-242 -1102h-104zM106 -25q-37 0 -58 25.5t-13 60.5q6 28 31.5 48t54.5 20q34 0 54 -25.5t13 -60.5q-6 -27 -30.5 -47.5t-51.5 -20.5z" />
    <glyph glyph-name="quotedbl" unicode="&#x22;" horiz-adv-x="583" 
d="M403 1434l-120 -508h-86l92 508h114zM688 1434l-123 -508h-86l94 508h115z" />
    <glyph glyph-name="numbersign" unicode="#" horiz-adv-x="1337" 
d="M1202 1434h115l-582 -1434h-114zM694 1434h115l-584 -1434h-114zM94 522h1092l-23 -98h-1091zM260 1004h1092l-23 -99h-1091z" />
    <glyph glyph-name="dollar" unicode="$" horiz-adv-x="1196" 
d="M788 1636l-389 -1837h105l389 1837h-105zM1083 369q9 43 9.5 81t-7.5 69.5t-21.5 59t-36 50.5t-46 41.5t-56.5 34.5t-64 28.5t-70.5 24t-74 20t-77.5 17.5q-148 31 -192 48q-97 37 -114 115q-10 47 5 115q25 111 138.5 196.5t291.5 84.5q70 0 126.5 -11.5t94 -31.5
t64 -48t37 -61t13.5 -69.5t-7 -73.5q-1 -4 -2 -11t-2 -10h114q3 8 6 31q12 45 7 91.5t-19 89.5t-49 81t-82.5 66t-119 44.5t-158.5 16.5q-133 0 -239 -34.5t-172 -93.5t-104.5 -126.5t-54.5 -144.5q-8 -40 -9 -75t7 -63.5t19 -52.5t31.5 -43.5t40 -35t49.5 -29t54.5 -23.5
t60.5 -19.5t62 -15.5t64 -14q102 -21 162.5 -39.5t120 -52t79.5 -85.5t7 -126q-23 -136 -141.5 -220.5t-323.5 -84.5q-90 0 -157.5 18.5t-105 49.5t-60 73t-22.5 89t9 96h-117q-7 -43 -9 -86.5t10.5 -86t32.5 -80.5t56.5 -71t83.5 -56.5t112.5 -37t143.5 -13.5
q147 0 259.5 32.5t180.5 90t107 124t55 147.5z" />
    <glyph glyph-name="percent" unicode="%" horiz-adv-x="1730" 
d="M285 0h-140l1385 1434h141zM487 862q60 0 112 23.5t87.5 62t59 83.5t34.5 93q5 33 6.5 66.5t-9.5 65t-30.5 55.5t-54.5 38.5t-82 14.5q-61 0 -113.5 -23.5t-88 -61.5t-58.5 -83t-33 -92q-6 -34 -7.5 -68t9.5 -65.5t30 -55.5t55 -38.5t83 -14.5zM614 1458q70 0 123.5 -21
t83.5 -56t48 -81t17 -95.5t-9 -100.5q-14 -61 -44 -117.5t-77 -106.5t-117.5 -80t-153.5 -30q-59 0 -106.5 14.5t-78.5 40.5t-51.5 59.5t-29 74t-8 81.5t9.5 84q13 61 43 117.5t76.5 106.5t117.5 80t156 30zM1206 72q119 0 195.5 77.5t97.5 180.5q6 34 7.5 67.5t-9.5 64.5
t-30 55t-55 38t-83 14q-117 0 -193.5 -78t-99.5 -182q-5 -33 -6.5 -66.5t9.5 -64t30.5 -54.5t54.5 -38t82 -14zM1331 664q59 0 106.5 -14.5t78.5 -40.5t51.5 -60t29 -74.5t8 -81.5t-9.5 -84q-10 -48 -30.5 -93.5t-54.5 -89.5t-77 -77t-103 -53.5t-128 -20.5q-70 0 -123.5 21
t-83 56.5t-47 81.5t-16 96t9.5 100q13 61 42.5 117.5t76 106.5t117 80t153.5 30z" />
    <glyph glyph-name="ampersand" unicode="&#x26;" horiz-adv-x="1390" 
d="M686 215q28 31 71.5 81.5t70.5 81t28 30.5l-154 237q-59 84 -153 84q-56 0 -111.5 -19t-109 -57t-95.5 -104.5t-61 -153.5q-17 -73 -9.5 -127.5t28 -91.5t56 -59.5t74 -32.5t82.5 -10q74 0 152.5 39t130.5 102zM1403 717q-147 0 -254 -113l-168 -190l268 -414h-127
l-213 330l-157 -183q-149 -172 -363 -172q-77 0 -143.5 24t-119 75.5t-70 133t2.5 195.5q18 81 55 148t83.5 112t102 76.5t109.5 45.5t107 14q16 0 31.5 -3t22 -5t21 -8.5t15.5 -6.5l43 -10q-88 86 -137 170q-2 2 -13 18t-14 20.5t-13 20t-13.5 22.5t-11 23t-10 26l-6.5 26
t-4 30t1 31.5t4 34.5q29 129 138.5 199.5t240.5 70.5t213 -72.5t55 -203.5h-114q20 89 -32 133.5t-138 44.5t-159.5 -46t-92.5 -136q-17 -76 37 -162l348 -527l155 181q64 67 153 105t183 38z" />
    <glyph glyph-name="quotesingle" unicode="'" horiz-adv-x="299" 
d="M403 1434l-120 -508h-86l92 508h114z" />
    <glyph glyph-name="parenleft" unicode="(" horiz-adv-x="512" 
d="M313 -426q-69 126 -100 283.5t-26.5 319t40.5 327.5q54 256 175.5 501t302.5 429h-132q-338 -371 -460 -930q-52 -233 -29.5 -485t121.5 -445h108z" />
    <glyph glyph-name="parenright" unicode=")" horiz-adv-x="512" 
d="M-199 -424q182 186 305.5 429.5t178.5 498.5q35 166 41 325.5t-24.5 319.5t-100.5 285h108q98 -194 119 -443t-33 -487q-52 -251 -171 -496.5t-296 -435.5z" />
    <glyph glyph-name="asterisk" unicode="*" horiz-adv-x="770" 
d="M623 1434l-58 -260l279 96l12 -80l-289 -100l105 -256l-72 -43l-98 243l-203 -243l-68 45l218 266l-246 98l45 70l235 -96l58 260h82z" />
    <glyph glyph-name="plus" unicode="+" horiz-adv-x="1116" 
d="M733 1100l-78 -365h363l-21 -96h-362l-78 -365h-102l77 365h-360l21 96h360l78 365h102z" />
    <glyph glyph-name="comma" unicode="," horiz-adv-x="442" 
d="M184 61q6 27 -10 47.5t-43 20.5q-37 0 -69 -25.5t-39 -60.5q-6 -28 11 -48t46 -20q34 0 65.5 25.5t38.5 60.5zM109 -20q14 -30 -13.5 -72.5t-72.5 -52.5l-21 -54q104 15 168 110q51 76 42 146q-8 64 -65 71q-8 1 -16 1z" />
    <glyph glyph-name="hyphen" unicode="-" horiz-adv-x="962" 
d="M156 588h684l-23 -99h-684z" />
    <glyph glyph-name="period" unicode="." horiz-adv-x="401" 
d="M98 -25q-37 0 -58 25.5t-13 60.5q6 28 30.5 48t53.5 20q34 0 55 -25.5t12 -60.5q-4 -27 -28.5 -47.5t-51.5 -20.5z" />
    <glyph glyph-name="slash" unicode="/" horiz-adv-x="806" 
d="M1004 1434l-1076 -1805h-116l1075 1805h117z" />
    <glyph glyph-name="zero" unicode="0" horiz-adv-x="1382" 
d="M592 80q101 0 191.5 38.5t158 102t122.5 149t90 174.5t56 183q19 91 22 176.5t-14.5 168.5t-56 144.5t-111 99.5t-171.5 38q-101 0 -191.5 -38.5t-158 -102t-123 -149t-90.5 -174.5t-56 -183q-19 -91 -22 -176.5t14.5 -168.5t56 -144.5t111 -99.5t172.5 -38zM885 1458
q105 0 187.5 -31t134.5 -86.5t85.5 -127.5t44.5 -157t7 -172t-23 -177q-23 -105 -63 -205.5t-105 -197t-145.5 -169t-189.5 -116.5t-232 -44q-105 0 -187.5 31.5t-134.5 86.5t-85.5 127t-44.5 157.5t-7 172.5t23 177q22 105 62.5 205.5t105.5 197t145.5 168.5t189.5 116
t232 44z" />
    <glyph glyph-name="one" unicode="1" horiz-adv-x="643" 
d="M580 1434q-16 -77 -49.5 -148t-84 -133.5t-125 -103.5t-163.5 -50l-23 -108q120 10 218.5 80t164.5 172h23q-47 -117 -72 -236l-193 -907h117l303 1434h-116z" />
    <glyph glyph-name="two" unicode="2" horiz-adv-x="1146" 
d="M430 104q-54 0 -115.5 -6t-96.5 -12l-34 -6l4 22q528 398 643 484q147 115 218.5 217t101.5 209q15 54 16.5 106.5t-10 103t-40 93t-72 74.5t-109.5 50.5t-148 18.5q-101 0 -190 -26.5t-153 -69t-115 -100.5t-82.5 -117.5t-48.5 -122.5q-7 -20 -11 -55l113 4q2 8 6 25.5
t6 25.5q13 56 52.5 114t96.5 107t137.5 80t166.5 31q77 0 134 -18t90 -49.5t49 -75t15 -92t-16 -103.5q-20 -74 -96.5 -172t-191.5 -185l-744 -559l-24 -100h964l23 104h-539z" />
    <glyph glyph-name="three" unicode="3" horiz-adv-x="1146" 
d="M1034 406q20 101 4 178.5t-61.5 132.5t-102 85.5t-118.5 37.5q-41 5 -79 1t-65.5 -9.5t-27.5 -8.5l6 31l600 475l24 105h-874l-23 -105h707l-584 -463l-20 -94h180q83 0 150 -21.5t115.5 -66.5t63 -114t-8.5 -164q-26 -102 -99.5 -178t-164 -112t-185.5 -36
q-67 0 -120.5 11t-97 35.5t-67.5 63.5t-32 95t10 131q0 4 4 16l-115 -4q0 -4 -4 -20q-22 -106 -1.5 -187t76.5 -135.5t136.5 -82.5t179.5 -28q102 0 196 25.5t176 76t140.5 135t81.5 194.5z" />
    <glyph glyph-name="four" unicode="4" horiz-adv-x="1265" 
d="M1071 1329h-20l-895 -930h483q54 0 111 -6t88 -12l30 -6zM1157 399l-20 -98h-168l-64 -301h-117l66 301h-821l28 145l953 988h194l-219 -1035h168z" />
    <glyph glyph-name="five" unicode="5" horiz-adv-x="1218" 
d="M1133 492q15 84 11 161.5t-35.5 145t-80.5 117.5t-124 79t-167 29q-128 0 -233 -45t-152 -115h-22q63 113 100 219l82 246h688l23 105h-789l-227 -658h131q141 156 362 156q73 0 130.5 -17t95.5 -48t63.5 -71.5t35.5 -89t10 -99t-11 -103.5q-17 -77 -58.5 -150.5
t-103.5 -135.5t-151.5 -100t-190.5 -38t-173.5 32.5t-108 86.5t-48 115t-4.5 128h-112q-10 -88 9.5 -169t68 -149t139.5 -108.5t213 -40.5q110 0 206 30.5t165.5 81.5t123.5 118.5t86.5 139.5t47.5 147z" />
    <glyph glyph-name="six" unicode="6" horiz-adv-x="1290" 
d="M569 80q89 0 167 25.5t135 67t101.5 97t71 114.5t39.5 120q10 59 11.5 117.5t-20 113t-58.5 96t-104.5 66.5t-157.5 25q-110 0 -203 -38.5t-155 -102t-101.5 -136.5t-56.5 -151q-10 -48 -10 -96t11 -95t36.5 -87t64 -70.5t97.5 -48t132 -17.5zM791 1022q108 -1 194 -39.5
t140.5 -108t74 -168.5t-5.5 -221q-32 -155 -124 -272t-219.5 -177.5t-272.5 -60.5q-66 0 -125 10t-115 35t-99.5 63t-76 97.5t-48 135t-11.5 179t30 226.5q22 105 62 206.5t102.5 198.5t139.5 170t180 117.5t217 44.5q99 0 176 -31.5t125.5 -87t76.5 -124t37 -150.5l-112 4
q-18 130 -98 207.5t-226 77.5q-229 0 -403.5 -217.5t-223.5 -571.5l27 2q43 195 211 326.5t367 128.5z" />
    <glyph glyph-name="seven" unicode="7" horiz-adv-x="1032" 
d="M223 1434l-20 -105h557q53 0 115 6.5t97 12.5l36 6l-4 -25q-138 -90 -259 -240t-210 -331.5t-153 -370.5t-106 -387h111q32 151 75 294t112.5 305t153.5 296t202 253.5t254 190.5l20 95h-981z" />
    <glyph glyph-name="eight" unicode="8" horiz-adv-x="1232" 
d="M522 80q75 0 150 19.5t146 58.5t123.5 108.5t70.5 159.5q17 74 3 130t-45 95.5t-80 64.5t-102.5 36.5t-111.5 11.5q-60 0 -120 -11.5t-121 -38.5t-111 -66.5t-88 -99t-54 -132.5q-11 -65 -6.5 -115.5t29 -88t57 -63t77.5 -41t89.5 -22t93.5 -6.5zM389 1102
q-14 -63 7 -111t67.5 -75.5t103.5 -40.5t121 -13q66 0 129.5 14t122.5 42.5t101.5 78.5t56.5 115q14 66 -7 115t-68 75.5t-103 39t-121 12.5t-129 -14.5t-123 -43t-101.5 -79t-56.5 -115.5zM864 799q138 -35 214 -139.5t42 -266.5q-22 -103 -82.5 -184.5t-144 -131.5
t-181.5 -76t-202 -26q-105 0 -193.5 26.5t-153.5 77.5t-92 135t-5 189q35 158 151.5 259.5t269.5 136.5l9 24q-115 32 -177 110.5t-36 199.5q22 105 103.5 180.5t191 110t233.5 34.5q74 0 140 -13.5t120.5 -42t91 -68.5t51 -95.5t0.5 -120.5q-26 -116 -119 -189.5
t-223 -105.5z" />
    <glyph glyph-name="nine" unicode="9" horiz-adv-x="1290" 
d="M809 1354q-110 0 -203 -38t-155 -101t-101.5 -135t-56.5 -150q-11 -51 -11 -99.5t10 -96t35.5 -87.5t64 -70.5t98.5 -47.5t135 -17q109 0 202 38.5t155 101.5t101.5 136.5t55.5 151.5q11 48 11 96t-10.5 95t-36.5 87t-64.5 70.5t-97.5 48t-132 17.5zM586 412
q-220 3 -336 150t-66 386q32 155 124 272t220 177.5t273 60.5q66 0 124.5 -10t114.5 -35t99.5 -63t76 -97t48 -135t11.5 -179t-30 -226q-22 -105 -62 -206.5t-102.5 -199t-139.5 -170.5t-180 -117.5t-218 -44.5q-98 0 -175 31.5t-126 87.5t-77.5 125t-37.5 150l113 -4
q20 -131 99.5 -208t225.5 -77q229 0 403.5 217.5t221.5 570.5l-27 -2q-41 -195 -208.5 -326t-368.5 -128z" />
    <glyph glyph-name="colon" unicode=":" horiz-adv-x="413" 
d="M102 -25q-36 0 -57 25.5t-14 60.5q6 28 31.5 48t54.5 20q34 0 55 -25.5t12 -60.5q-4 -27 -29 -47.5t-53 -20.5zM293 870q-36 0 -57.5 25.5t-12.5 60.5q4 28 29.5 48t54.5 20q34 0 55 -25.5t15 -60.5q-8 -28 -32 -48t-52 -20z" />
    <glyph glyph-name="semicolon" unicode=";" horiz-adv-x="483" 
d="M344 870q-37 0 -58 25.5t-14 60.5q6 28 30.5 48t53.5 20q34 0 55.5 -25.5t12.5 -60.5q-4 -27 -28.5 -47.5t-51.5 -20.5zM205 59q6 27 -10 47.5t-43 20.5q-37 0 -69.5 -25.5t-39.5 -60.5q-6 -28 11 -48t46 -20q34 0 66 25.5t39 60.5zM129 -23q14 -30 -13.5 -72t-72.5 -52
l-20 -54q104 15 168 110q51 76 42 146q-8 64 -65 71q-8 1 -16 1z" />
    <glyph glyph-name="less" unicode="&#x3c;" horiz-adv-x="1120" 
d="M940 356l-22 -102l-756 326l28 147l895 324l-22 -113q-658 -242 -670 -246q-29 -11 -60.5 -19.5t-48.5 -10.5l-16 -3v-18q50 -14 109 -39z" />
    <glyph glyph-name="equal" unicode="=" 
d="M154 543h825l-21 -99h-825zM236 926h825l-23 -99h-825z" />
    <glyph glyph-name="greater" unicode="&#x3e;" horiz-adv-x="1120" 
d="M119 369q653 239 667 245q30 11 62 19.5t48 10.5l17 3v17q-51 16 -108 41l-565 245l24 101l756 -324l-31 -147l-895 -326z" />
    <glyph glyph-name="question" unicode="?" horiz-adv-x="1034" 
d="M1094 1073q18 88 -3.5 161t-73.5 120t-124.5 73.5t-157.5 30.5q-134 6 -247.5 -34t-195.5 -129.5t-110 -217.5q-4 -32 -4 -47h113q0 15 4 39q31 142 146.5 216.5t256.5 68.5q71 -2 127 -18.5t99 -50.5t56 -87t-1 -129q-15 -63 -51.5 -114.5t-84 -88t-103.5 -72
t-112.5 -76.5t-107 -90t-91 -125t-60.5 -171h301l22 98h-16q-52 0 -97.5 -5.5t-64.5 -10.5l-20 -6q15 62 52.5 113.5t86 89t104.5 72t112 72t105 79.5t86.5 103.5t53.5 135.5zM438 -25q-32 0 -51 22.5t-12 53.5q6 33 33 55.5t63 22.5q31 0 49 -23t12 -55q-8 -31 -35 -53.5
t-59 -22.5z" />
    <glyph glyph-name="at" unicode="@" horiz-adv-x="1943" 
d="M840 195q97 0 180.5 40.5t141 107.5t95 144.5t54.5 159.5q13 63 14.5 123t-13.5 117.5t-46 100.5t-87 69t-132 26q-79 0 -149.5 -26.5t-123 -71t-94 -103.5t-67.5 -122t-40 -129q-13 -62 -13.5 -121.5t15 -117t46.5 -101t87 -70t132 -26.5zM1165 1458q122 0 231.5 -32
t194.5 -90.5t151.5 -140t101.5 -181.5t44.5 -214.5t-18.5 -238.5q-23 -105 -63 -181.5t-90 -118t-101 -60.5t-105 -19q-97 0 -161 65.5t-41 174.5l-25 -8q-73 -135 -188 -217t-269 -82q-77 0 -139 22t-102 60.5t-66 89t-36 110.5t-8 122.5t16 127.5q15 75 44 146.5t76 139.5
t106 119t140 82t172 31q159 0 243 -85.5t101 -221.5l33 4q-2 123 25 238l8 41h86l-142 -672q-22 -97 13 -152t106 -55q216 0 285 320q25 132 12.5 250.5t-66.5 218t-134.5 172t-192.5 113t-240 40.5q-168 0 -332 -64.5t-295.5 -173.5t-227 -260t-130.5 -317
q-25 -133 -12.5 -251.5t66.5 -218t135 -171.5t193 -112.5t241 -40.5q236 0 457 124l143 -6q-297 -200 -600 -200q-122 0 -231.5 32t-194.5 90.5t-151.5 140t-101.5 181.5t-44.5 214.5t18.5 238.5q38 178 142 340t246.5 279.5t320 187t356.5 69.5z" />
    <glyph glyph-name="A" unicode="A" horiz-adv-x="1245" 
d="M903 1434l213 -1434h-104l-58 387h-704l-221 -387h-117l823 1434h168zM307 485h633l-125 844h-24z" />
    <glyph glyph-name="B" unicode="B" horiz-adv-x="1255" 
d="M571 104q75 0 146 17.5t136.5 53.5t113 98t65.5 143q17 79 -4 138.5t-71 93.5t-113 50.5t-137 16.5h-398l-129 -611h391zM723 819q84 0 160.5 25t140 86.5t82.5 150.5q12 54 1 95.5t-35 70.5t-62.5 47t-81.5 26.5t-92 8.5h-394l-110 -510h391zM1141 383
q-22 -101 -85.5 -178.5t-149.5 -120t-175.5 -63.5t-179.5 -21h-508l305 1434h500q80 0 152 -20t129 -60t82.5 -109t7.5 -158q-28 -126 -124 -206.5t-208 -96.5l-10 -24q137 -25 216.5 -126t47.5 -251z" />
    <glyph glyph-name="C" unicode="C" horiz-adv-x="1425" 
d="M1192 408q-85 -141 -226.5 -234.5t-314.5 -93.5q-116 0 -201.5 37.5t-133 99.5t-70.5 146t-21 174.5t23 187.5q18 88 58 177t101.5 170.5t137 144t172 100t198.5 37.5q99 0 175 -26t125 -73t77.5 -105.5t40.5 -131.5h119q-8 65 -28.5 125t-61.5 118.5t-97 101t-140.5 69
t-186.5 26.5q-128 0 -244 -40t-206 -109t-162.5 -162.5t-120 -200.5t-72.5 -223q-19 -88 -20.5 -175t14 -171.5t55 -156.5t98.5 -127t149 -86.5t202 -31.5q130 0 243.5 38t197.5 103.5t144.5 137t106.5 154.5h-131z" />
    <glyph glyph-name="D" unicode="D" horiz-adv-x="1392" 
d="M567 104q110 0 208.5 35.5t172.5 95.5t133.5 140t97 167t56.5 179q16 76 18 148.5t-10 141t-43.5 126t-79.5 101t-121 67.5t-165 24h-392l-262 -1225h387zM1348 709q-69 -331 -288.5 -520t-508.5 -189h-508l305 1434h504q137 0 245 -48t176.5 -140.5t89.5 -227.5
t-15 -309z" />
    <glyph glyph-name="E" unicode="E" 
d="M1210 1434l-20 -105h-748l-120 -559h682l-23 -100h-680l-121 -566h748l-21 -104h-864l305 1434h862z" />
    <glyph glyph-name="F" unicode="F" horiz-adv-x="1044" 
d="M1165 1329h-723l-120 -559h610l-23 -100h-608l-141 -670h-117l305 1434h838z" />
    <glyph glyph-name="G" unicode="G" horiz-adv-x="1476" 
d="M1411 690q8 37 -10.5 60.5t-57.5 23.5h-559l-22 -104h493q12 0 18.5 -10t4.5 -23q-19 -95 -76 -193.5t-138 -179.5t-189.5 -132.5t-219.5 -51.5q-119 1 -205.5 38t-134.5 97t-70.5 144t-20 173.5t23.5 190.5q19 90 58 178.5t101 170.5t138 144.5t176 100t209 37.5
q84 0 152 -18t114.5 -48.5t80.5 -74.5t53.5 -91.5t29.5 -103.5h119q-8 64 -30 124.5t-64.5 118.5t-100.5 101t-143.5 69.5t-188.5 26.5q-140 0 -263 -44t-213 -116.5t-161.5 -169.5t-115 -199t-66.5 -210q-19 -89 -20.5 -177t14 -171.5t54.5 -155t96.5 -125.5t144.5 -84.5
t194 -30.5q106 0 206 37t170.5 90.5t129.5 120t91.5 119.5t48.5 94h28q-78 -169 -104 -284l-31 -152h111z" />
    <glyph glyph-name="H" unicode="H" horiz-adv-x="1370" 
d="M1413 1434l-303 -1434h-115l142 670h-836l-141 -670h-115l303 1434h115l-139 -660h833l141 660h115z" />
    <glyph glyph-name="I" unicode="I" horiz-adv-x="419" 
d="M348 1434h115l-303 -1434h-115z" />
    <glyph glyph-name="J" unicode="J" horiz-adv-x="749" 
d="M340 1434l-21 -105h336l-184 -864q-32 -150 -158.5 -255.5t-273.5 -105.5h-84l-27 -104h86q214 0 371 128.5t203 338.5l205 967h-453z" />
    <glyph glyph-name="K" unicode="K" horiz-adv-x="1183" 
d="M1343 1434l-874 -715l-6 -25l557 -694h-135l-529 662h-57l-139 -662h-117l305 1434h115l-141 -668h40l820 668h161z" />
    <glyph glyph-name="L" unicode="L" horiz-adv-x="1009" 
d="M465 1434l-283 -1330h699l-21 -104h-815l303 1434h117z" />
    <glyph glyph-name="M" unicode="M" horiz-adv-x="1751" 
d="M1593 1434l-794 -1330h-25l-231 1330h-195l-303 -1434h115l233 1100q11 53 19 110.5t10.5 90t1.5 32.5h25l231 -1333h178l795 1329h22q-44 -118 -69 -235l-232 -1094h117l301 1434h-199z" />
    <glyph glyph-name="N" unicode="N" horiz-adv-x="1423" 
d="M1122 342q-12 -55 -21 -115.5t-13 -93.5l-3 -33h-24l-535 1334h-178l-305 -1434h117l231 1092q12 56 20.5 116t11.5 92l3 33h25l534 -1333h178l305 1434h-116z" />
    <glyph glyph-name="O" unicode="O" horiz-adv-x="1454" 
d="M629 80q110 0 209 39t172.5 102.5t132.5 148.5t96 174t57 181q19 91 20 178t-21 169.5t-66.5 144.5t-125 99.5t-188.5 37.5q-111 0 -210.5 -39t-173 -102.5t-132.5 -148.5t-96 -174.5t-57 -182.5q-19 -91 -20 -177.5t21 -169t67 -144t126 -99t189 -37.5zM922 1458
q113 0 202.5 -31.5t147 -87t95 -127.5t51.5 -157.5t11 -173t-22 -176.5q-22 -105 -64.5 -205.5t-111 -196.5t-154.5 -168t-203.5 -116t-250.5 -44q-113 0 -203 31.5t-148 87t-96 127.5t-52 157t-12 172t21 175q23 106 66 207t112 197.5t155.5 168.5t204.5 116t251 44z" />
    <glyph glyph-name="P" unicode="P" horiz-adv-x="1208" 
d="M766 770q61 0 122.5 17t117 50.5t97 89.5t56.5 128q15 70 -2 124.5t-57.5 86t-93.5 47.5t-115 16h-449l-118 -559h442zM907 1434q56 0 111.5 -13t110.5 -41.5t91.5 -74t54 -111t-2.5 -152.5q-18 -82 -60.5 -148t-96 -107t-117.5 -69t-122.5 -39t-113.5 -11h-461
l-141 -668h-117l305 1434h559z" />
    <glyph glyph-name="Q" unicode="Q" horiz-adv-x="1437" 
d="M248 717q-19 -90 -20.5 -175t19.5 -166.5t65 -142.5t123 -98t186 -37q97 0 191 38.5t168.5 102.5t136.5 147t103 173t60 178q18 86 20.5 168.5t-17.5 165t-62.5 144.5t-123 100.5t-190.5 38.5t-208 -38t-170 -101t-130.5 -146.5t-94.5 -171.5t-56 -180zM852 78
q129 26 250 26h153l-22 -104h-625q-110 0 -197.5 30.5t-144 84.5t-93 124t-50 153.5t-10.5 169t22 173.5q22 105 63.5 204.5t109.5 194.5t153.5 166.5t201.5 114.5t246 43q112 0 200.5 -31t146 -85.5t95 -126t51 -155.5t11 -170t-21.5 -173q-44 -211 -184 -378t-347 -239z
" />
    <glyph glyph-name="R" unicode="R" horiz-adv-x="1286" 
d="M768 768q84 0 163 27t145.5 92.5t86.5 159.5q16 73 -0.5 129t-58.5 88.5t-95 48.5t-114 16h-453l-118 -561h444zM991 735q72 -2 126.5 -61t35.5 -148l-113 -526h-110q83 383 114 535q12 57 -15.5 94t-84.5 37h-643l-141 -666h-117l307 1434h559q85 0 154 -20.5
t113.5 -56.5t73.5 -85t33 -105t-7 -118q-8 -42 -26 -79.5t-36 -63.5t-46.5 -50.5t-46.5 -37.5t-49 -28.5t-40 -19t-33 -12.5z" />
    <glyph glyph-name="S" unicode="S" horiz-adv-x="1202" 
d="M1081 369q9 43 9.5 81t-7.5 69.5t-21.5 59t-36 50.5t-46 41.5t-56.5 34.5t-64 28.5t-70.5 24t-74 20t-77.5 17.5q-148 31 -192 48q-97 37 -114 115q-10 47 5 115q25 111 138.5 196.5t291.5 84.5q70 0 126.5 -11.5t94 -31.5t64 -48t37 -61t13.5 -69.5t-7 -73.5
q-1 -4 -2 -11t-2 -10h114q3 8 6 31q12 45 7 91.5t-19 89.5t-49 81t-82.5 66t-119.5 44.5t-159 16.5q-107 0 -197.5 -23t-152.5 -61.5t-108.5 -91t-72.5 -107.5t-38 -116q-8 -40 -9 -75t7 -63.5t19 -52.5t31.5 -43.5t40 -35t49.5 -29t54.5 -23.5t60.5 -19.5t62 -15.5t64 -14
q102 -21 162.5 -39.5t120 -52t79.5 -85.5t7 -126q-23 -136 -141.5 -220.5t-323.5 -84.5q-90 0 -157.5 18.5t-105 49.5t-60 73t-22.5 89t9 96h-117q-7 -43 -9 -86.5t10.5 -86t32.5 -80.5t56.5 -71t83.5 -56.5t112.5 -37t143.5 -13.5q147 0 259.5 32.5t180.5 90t107 124
t55 147.5z" />
    <glyph glyph-name="T" unicode="T" horiz-adv-x="1075" 
d="M1245 1434l-20 -105h-453l-283 -1329h-116l282 1329h-454l20 105h1024z" />
    <glyph glyph-name="U" unicode="U" horiz-adv-x="1349" 
d="M1106 578q-19 -90 -61.5 -175t-106 -159t-156.5 -119t-200 -45q-92 0 -159 29t-103 76.5t-52.5 113.5t-15 134.5t17.5 144.5l185 856h-117l-180 -854q-12 -54 -16 -109.5t1.5 -115.5t22 -114t49 -103t78.5 -85t114.5 -57t153.5 -21q123 0 228 40t175.5 102t125.5 145
t84.5 160t46.5 156l184 856h-117z" />
    <glyph glyph-name="V" unicode="V" horiz-adv-x="1286" 
d="M1333 1434q-713 -1221 -723 -1244q-14 -23 -25 -44.5t-15 -31.5l-5 -10h-24q-5 44 -11 95l-200 1235h-113l227 -1434h187l831 1434h-129z" />
    <glyph glyph-name="W" unicode="W" horiz-adv-x="1982" 
d="M2028 1434q-601 -1217 -619 -1250l-33 -80h-22v80l-86 1250h-166l-617 -1244l-36 -86h-23q2 49 0 86l-88 1244h-111l95 -1434h186l614 1241q8 17 16 40t12 37l5 15h27q-1 -6 -2 -16t-2 -35t0 -41l86 -1241h180l704 1434h-120z" />
    <glyph glyph-name="X" unicode="X" horiz-adv-x="1302" 
d="M1470 1434l-669 -721l368 -719l-127 6l-340 662h-20l-621 -662h-147l682 729l-356 705h125l335 -668l623 668h147z" />
    <glyph glyph-name="Y" unicode="Y" horiz-adv-x="1073" 
d="M662 874q-17 -22 -33 -46.5t-23 -37.5l-8 -14h-27q-6 52 -24 101l-215 557h-115l297 -768l-141 -666h116l140 664l620 770h-137z" />
    <glyph glyph-name="Z" unicode="Z" horiz-adv-x="1200" 
d="M123 119q55 26 135 112l1034 1090l25 113h-993l-21 -105h871l-7 -16q-49 -23 -129 -105l-1038 -1095l-25 -113h998l20 104h-872z" />
    <glyph glyph-name="bracketleft" unicode="[" horiz-adv-x="516" 
d="M406 1356q106 -21 223 -21h63l21 99h-404l-397 -1860h403l23 98h-64q-52 0 -110 -4.5t-90 -9.5l-31 -4z" />
    <glyph glyph-name="backslash" unicode="\" horiz-adv-x="794" 
d="M297 1434l309 -1805h-100l-309 1805h100z" />
    <glyph glyph-name="bracketright" unicode="]" horiz-adv-x="516" 
d="M109 -346q-107 18 -224 18h-63l-21 -98h404l395 1860h-401l-21 -99h62q52 0 109.5 5.5t89.5 10.5l32 5z" />
    <glyph glyph-name="asciicircum" unicode="^" horiz-adv-x="1019" 
d="M877 993q-99 527 -101 531q-5 29 -7 58.5t-1 44.5v15h-20q-21 -52 -62 -118l-328 -531h-116l460 744h138l143 -744h-106z" />
    <glyph glyph-name="underscore" unicode="_" horiz-adv-x="1245" 
d="M27 -25h964l-20 -98h-965z" />
    <glyph glyph-name="grave" unicode="`" horiz-adv-x="399" 
d="M358 1786h105l65 -242h-100z" />
    <glyph glyph-name="a" unicode="a" horiz-adv-x="1089" 
d="M848 604q-71 -51 -447 -115q-56 -8 -106.5 -33t-92 -72.5t-55.5 -109.5q-17 -74 23.5 -130.5t110.5 -67.5q65 -12 130.5 -1.5t147.5 54.5q157 82 229 258q24 66 35 115zM963 102l-23 -102h-88q-47 0 -73.5 33t-16.5 84q8 36 35 104t50 118l23 50h-24q-4 -9 -11.5 -25
t-33 -61.5t-55.5 -87t-77.5 -90.5t-99.5 -82q-136 -86 -331 -63q-104 11 -165 93.5t-36 198.5q46 217 291 281q65 14 190 31t174 30q47 8 79 19t58 35.5t27 60.5q2 78 -64 137.5t-182 59.5q-135 0 -241.5 -79.5t-130.5 -193.5l-111 4q32 152 172.5 259.5t325.5 107.5
q187 0 282 -113.5t58 -283.5l-105 -490q-3 -14 5 -24.5t26 -10.5h72z" />
    <glyph glyph-name="b" unicode="b" horiz-adv-x="1124" 
d="M492 80q114 0 207 60t150 154.5t81 211.5q20 84 13 159.5t-34.5 132.5t-87 90.5t-143.5 33.5t-159 -34.5t-130 -94t-93.5 -135.5t-57.5 -162q-20 -84 -12.5 -159.5t35.5 -132.5t87.5 -90.5t143.5 -33.5zM713 1024q88 0 155.5 -30t106.5 -81.5t61.5 -120.5t20.5 -146.5
t-17 -160.5q-21 -101 -65 -190.5t-109.5 -162t-158 -115t-199.5 -42.5q-149 0 -227 74t-99 195h-24q-1 -106 -21 -219l-4 -25h-117l306 1434h116l-96 -445q-12 -57 -30.5 -114.5t-31.5 -86.5l-12 -28h25q157 264 420 264z" />
    <glyph glyph-name="c" unicode="c" horiz-adv-x="1042" 
d="M807 291q-57 -93 -145 -152t-207 -59q-83 0 -141 25.5t-88 66.5t-42 98.5t-8.5 114.5t17.5 121q14 67 50.5 137.5t90.5 133.5t131 103t160 40q126 0 189 -57.5t83 -162.5h117q-6 65 -30.5 121t-67.5 102.5t-112.5 73.5t-156.5 27q-97 0 -183 -31.5t-149 -82.5
t-112.5 -120t-80 -141t-46.5 -147q-13 -61 -14 -122t10 -120.5t39 -110.5t70 -90t106.5 -61.5t144.5 -22.5q98 0 178.5 24.5t139.5 70.5t100.5 99t77.5 122h-121z" />
    <glyph glyph-name="d" unicode="d" horiz-adv-x="1120" 
d="M190 496q-20 -84 -13 -159.5t34 -132.5t86.5 -90.5t144.5 -33.5t159.5 34.5t129 93.5t92.5 134.5t56 161.5q20 84 12.5 159.5t-35 132.5t-86 90.5t-141.5 33.5q-113 0 -206.5 -60t-150.5 -154t-82 -210zM78 512q21 101 65.5 191t110 163t158.5 115.5t200 42.5
q145 0 224 -75t98 -195h24q-2 112 25 241l94 439h115l-305 -1434h-115l6 31q10 50 27 102t29 79l12 26h-25q-149 -263 -418 -263q-88 0 -155 30.5t-106 82t-61 120.5t-20 146t17 158z" />
    <glyph glyph-name="e" unicode="e" horiz-adv-x="1087" 
d="M635 926q-85 0 -159.5 -32.5t-127.5 -87t-90 -118t-57 -131.5l706 6q10 41 7 83.5t-11.5 82.5t-31.5 76t-54 63t-78 42.5t-104 15.5zM180 475q-8 -56 -9.5 -112t16 -108t47.5 -92.5t84 -64.5t126 -24q259 0 394 258h114q-33 -74 -79.5 -136.5t-109.5 -113t-146 -79
t-177 -28.5q-80 0 -145 22.5t-108 62.5t-71.5 92t-40 112.5t-11 123t13.5 124.5q16 74 46.5 145.5t80 138.5t112 117t147 80.5t179.5 30.5q78 0 142 -20t108.5 -56t74.5 -85.5t43 -110.5t11.5 -129t-18.5 -142z" />
    <glyph glyph-name="f" unicode="f" horiz-adv-x="577" 
d="M291 1133q31 135 119.5 218t248.5 83h78l-22 -105h-80q-87 0 -146.5 -50.5t-78.5 -131.5l-33 -148h268l-22 -104h-267l-190 -895h-117l191 895h-127l20 104h127z" />
    <glyph glyph-name="g" unicode="g" horiz-adv-x="1124" 
d="M453 162q-85 0 -159 32.5t-125 88.5t-72 139t-1 178q41 193 183.5 308.5t336.5 115.5q69 0 129.5 -20.5t108 -59t70 -102.5t12.5 -144q3 -18 13.5 -30t20 -17.5t15.5 -22t0 -42.5q-41 -192 -187.5 -308t-344.5 -116zM467 258q153 0 270 94.5t148 243.5q31 147 -44 238.5
t-225 91.5q-153 0 -270 -95t-149 -245q-28 -135 52 -231.5t218 -96.5zM326 -504q180 0 311.5 60t153.5 155q13 62 -33 109.5t-134 72.5t-202 25q-182 0 -312.5 -60t-150.5 -155q-20 -92 84.5 -149.5t282.5 -57.5zM150 -47h-37q-64 0 -102.5 34.5t-24.5 98.5q13 63 62.5 94
t113.5 31h41l12 33l244 -41l-10 -41h-252q-38 0 -71.5 -21t-41.5 -61q-8 -36 15 -54t59 -18h276q233 0 361.5 -88t99.5 -225q-18 -86 -100 -152.5t-207 -101.5t-273 -35q-231 0 -361 84.5t-101 216.5q32 153 288 225zM961 698q4 172 16 238q4 30 24 46.5t50 16.5h135
l-21 -104h-84q-31 0 -37 -29l-59 -280l-78 -2l29 114h25z" />
    <glyph glyph-name="h" unicode="h" horiz-adv-x="1126" 
d="M1014 569q18 81 14.5 155t-25 132.5t-67.5 100.5t-113 59q-171 42 -320 -54.5t-233 -289.5h-24q59 132 82 241l110 521h-114l-304 -1434h115l72 336q30 134 74 256q30 79 78 147.5t108.5 118.5t136 70t152.5 0q105 -27 138.5 -112t-1.5 -267l-115 -549h115z" />
    <glyph glyph-name="i" unicode="i" horiz-adv-x="399" 
d="M356 918q7 37 -12 59t-55 22h-144l-20 -104h74q14 0 23 -12t5 -25l-182 -858h117zM387 1307q-34 0 -53 24t-12 58q4 26 26.5 43.5t50.5 17.5q31 0 51 -24.5t13 -57.5q-4 -26 -27 -43.5t-49 -17.5z" />
    <glyph glyph-name="j" unicode="j" horiz-adv-x="407" 
d="M365 922q6 34 -10.5 55.5t-49.5 21.5h-155l-23 -104h80q14 0 22 -11t4 -26l-239 -1137q-17 -78 -81.5 -132t-139.5 -54h-80l-31 -104h94q138 0 231.5 81.5t121.5 204.5zM391 1307q-35 0 -54 24t-13 58q6 26 28.5 43.5t50.5 17.5q31 0 50.5 -24.5t13.5 -57.5
q-6 -25 -29 -43t-47 -18z" />
    <glyph glyph-name="k" unicode="k" horiz-adv-x="931" 
d="M440 1434l-198 -930h53l573 495h150l-621 -542l-6 -23l365 -434h-140l-335 399h-60l-86 -399h-115l304 1434h116z" />
    <glyph glyph-name="l" unicode="l" horiz-adv-x="403" 
d="M340 1434h115l-303 -1434h-115z" />
    <glyph glyph-name="m" unicode="m" horiz-adv-x="1880" 
d="M1767 569q34 164 -11 286.5t-179 160.5q-169 46 -319.5 -51.5t-237.5 -292.5h-25q7 22 8 57t-8.5 79t-28.5 84.5t-56.5 75t-86.5 48.5q-168 50 -319.5 -51.5t-233.5 -292.5h-24q57 126 82 235l20 92h-117l-211 -999h115l72 336q21 111 74 256q41 106 108 189.5
t160.5 128.5t189.5 22q61 -15 100 -53t53.5 -91.5t14.5 -112.5t-14 -126l-115 -549h111l69 336q29 132 76 256q64 167 188.5 270.5t268.5 69.5q121 -30 157 -126.5t-1 -256.5l-115 -549h115z" />
    <glyph glyph-name="n" unicode="n" horiz-adv-x="1126" 
d="M1014 569q18 81 14.5 155t-25 132.5t-67.5 100.5t-113 59q-170 41 -320 -55t-233 -289h-24q57 126 82 235l20 92h-117l-211 -999h115l72 336q30 134 74 256q30 79 78 147.5t108.5 118.5t136 70t152.5 0q77 -18 116 -71.5t40 -131t-19 -176.5l-113 -549h113z" />
    <glyph glyph-name="o" unicode="o" horiz-adv-x="1067" 
d="M430 68q93 0 172.5 39.5t134.5 105t91 141t53 156.5q13 62 14.5 120t-12.5 113.5t-43 97t-82.5 66.5t-126.5 25q-93 0 -172.5 -40t-134.5 -105.5t-91 -141t-53 -156.5q-13 -62 -14.5 -119.5t12.5 -113.5t43 -97t82.5 -66t126.5 -25zM633 1024q81 0 145.5 -22.5t105.5 -62
t68.5 -91t37 -112t7.5 -122.5t-16 -125q-15 -74 -44 -145t-77.5 -138.5t-109.5 -118t-144.5 -81.5t-177.5 -31q-81 0 -146 22.5t-106 62t-68.5 90.5t-37.5 112t-8 123t16 125q15 74 44.5 145t78 138.5t109.5 118t144.5 81.5t178.5 31z" />
    <glyph glyph-name="p" unicode="p" horiz-adv-x="1124" 
d="M930 504q20 83 13 158.5t-33.5 132.5t-86.5 91t-147 34q-112 0 -205.5 -60t-151 -154t-81.5 -210q-19 -84 -11.5 -159.5t34.5 -132.5t86 -90.5t142 -33.5q89 0 165 34.5t130 93.5t91 134.5t55 161.5zM1040 487q-21 -101 -65.5 -191t-110 -163t-158.5 -115.5t-200 -42.5
q-145 0 -224 75.5t-98 195.5h-24q0 -113 -27 -242l-123 -573h-114l335 1568h113l-4 -28q-8 -50 -25 -102.5t-30 -79.5l-13 -27h21q152 262 422 262q88 0 155 -30.5t105.5 -82t60.5 -120.5t20 -146t-16 -158z" />
    <glyph glyph-name="q" unicode="q" horiz-adv-x="1120" 
d="M627 920q-86 0 -160.5 -34.5t-129 -93.5t-92 -134.5t-57.5 -161.5q-22 -84 -15.5 -159.5t34 -132.5t87.5 -90.5t146 -33.5q111 0 205 60t152 154.5t82 209.5q20 84 13 159.5t-34.5 132.5t-87 90.5t-143.5 33.5zM403 -25q-85 0 -151.5 30t-106 81.5t-62.5 120.5
t-21.5 146.5t16.5 160.5q21 101 65 190.5t108.5 162t157 115t199.5 42.5q150 0 231 -74.5t97 -193.5h25q-7 108 16 221l6 22h115l-332 -1568h-117l123 579q12 57 31 114.5t32 86.5l13 29h-25q-154 -265 -420 -265z" />
    <glyph glyph-name="r" unicode="r" horiz-adv-x="696" 
d="M760 999q-88 0 -167 -34t-140.5 -94.5t-108.5 -135t-82 -164.5h-29q103 285 119 365q8 28 -6.5 45.5t-46.5 17.5h-154l-22 -104h86q12 0 19 -9t5 -20l-186 -866h117l63 311q14 67 38.5 138.5t68.5 153.5t97.5 145t131 105t164.5 42z" />
    <glyph glyph-name="s" unicode="s" horiz-adv-x="905" 
d="M776 289q9 65 -5.5 113.5t-46.5 77t-76.5 47.5t-94.5 29.5t-99.5 19.5t-93 20.5t-74.5 28t-43.5 47t-0.5 73.5q18 62 65 104.5t103.5 59.5t119.5 17q50 0 92 -10t77 -32.5t46.5 -59t-0.5 -89.5q-1 -3 -2 -8t-2 -8h111q1 3 3 12t3 12q18 87 -21.5 152t-115 97t-172.5 32
q-170 0 -285 -76.5t-137 -208.5q-12 -73 13 -122t75 -72t112.5 -37.5t125.5 -26.5t113 -30.5t77 -58t16 -101.5q-12 -71 -63 -122t-115 -73t-131 -22q-126 0 -193 53t-40 154h-109q-29 -144 64.5 -225t253.5 -81q186 0 307.5 87.5t142.5 226.5z" />
    <glyph glyph-name="t" unicode="t" horiz-adv-x="581" 
d="M115 307q-27 -130 40.5 -218.5t200.5 -88.5h76l23 104h-78q-94 0 -131.5 52.5t-18.5 142.5l129 596h267l22 104h-268l92 435h-115l-92 -435h-129l-20 -104h129z" />
    <glyph glyph-name="u" unicode="u" horiz-adv-x="1126" 
d="M109 430q-35 -170 11.5 -291.5t178.5 -154.5q169 -39 319.5 56.5t233.5 287.5h25q-55 -127 -80 -236l-21 -92h115l213 999h-117l-69 -335q-27 -120 -76 -256q-30 -79 -78 -147.5t-108.5 -118t-135.5 -69.5t-151 -1q-78 19 -117.5 72.5t-40.5 130.5t18 176l115 548h-115z
" />
    <glyph glyph-name="v" unicode="v" horiz-adv-x="974" 
d="M471 225q-18 -31 -33.5 -62.5t-21.5 -46.5l-6 -16l-23 4q4 57 -6 127l-141 768h-117l174 -999h168l596 999h-121z" />
    <glyph glyph-name="w" unicode="w" horiz-adv-x="1613" 
d="M1145 215q-18 -34 -30.5 -61.5t-15.5 -38.5l-3 -11h-25q2 35 -2 111l-84 784h-162q-397 -747 -411 -776q-19 -36 -33 -65.5t-19 -41.5l-4 -12h-22q-2 39 -8 119l-80 776h-113l103 -999h174l417 784q17 33 30 61.5t17 40.5l5 13h24q-1 -5 -2 -13.5t-2 -38.5t2 -63l84 -784
h172l533 999h-129z" />
    <glyph glyph-name="x" unicode="x" horiz-adv-x="933" 
d="M1018 999l-455 -505l242 -494h-113l-219 451h-22l-402 -451h-133l463 522l-244 477h117l227 -446l406 446h133z" />
    <glyph glyph-name="y" unicode="y" horiz-adv-x="991" 
d="M494 248q-26 -43 -46.5 -80t-27.5 -52l-8 -16h-25q2 58 -16 154l-138 745h-110l176 -999h49l-186 -313q-41 -68 -111.5 -112t-146.5 -44h-70l-27 -100h76q74 0 139.5 21.5t113 58.5t80 73.5t58.5 79.5l803 1335h-127z" />
    <glyph glyph-name="z" unicode="z" horiz-adv-x="919" 
d="M788 881q-49 -14 -129 -97q-21 -19 -189 -189t-326 -331l-158 -160l-23 -104h746l22 98h-618l6 21q22 6 56.5 33t66.5 61q14 12 184 182.5t333 334.5l163 165l22 104h-731l-20 -98h602z" />
    <glyph glyph-name="braceleft" unicode="{" horiz-adv-x="661" 
d="M201 516q86 0 142 59t73 138l59 282q14 62 42.5 119t71.5 107.5t107 80.5t140 29l22 103q-106 3 -195.5 -37.5t-150 -110t-100 -150.5t-58.5 -169l-49 -234q-17 -77 -68.5 -132.5t-132.5 -55.5l-16 -84q55 0 87 -29t36 -70t-4 -86l-49 -233q-11 -65 -13 -129.5t18.5 -125
t55.5 -107.5t97.5 -76t144.5 -31l22 102q-63 1 -109 22t-71 55t-36.5 79.5t-10.5 93t12 97.5l54 251q10 48 1 96.5t-42 85t-84 36.5z" />
    <glyph glyph-name="bar" unicode="|" horiz-adv-x="593" 
d="M442 1434h105l-397 -1860h-105z" />
    <glyph glyph-name="braceright" unicode="}" horiz-adv-x="663" 
d="M457 492q-84 0 -140.5 -64t-74.5 -145l-58 -269q-13 -61 -43 -119.5t-74.5 -109t-108 -80.5t-134.5 -29l-23 -102q90 -2 167 25t131 71t96.5 105.5t67.5 124.5t40 131l51 243q17 78 67.5 133.5t131.5 55.5l18 84q-55 0 -87 28.5t-36 69.5t3 86l51 234q12 53 13 106.5
t-7.5 106t-32.5 97.5t-59.5 80.5t-91 56.5t-125.5 22l-23 -103q62 -1 107.5 -22.5t70.5 -55.5t37 -79.5t11 -93t-11 -97.5l-55 -260q-14 -72 22.5 -139.5t104.5 -67.5z" />
    <glyph glyph-name="asciitilde" unicode="~" horiz-adv-x="1103" 
d="M930 852q-9 -41 -17 -68.5t-20.5 -59t-27 -50t-35 -31t-46.5 -12.5q-32 0 -83 34.5t-97.5 76t-105 76t-103.5 34.5t-82 -17.5t-61.5 -45t-45 -72t-33.5 -88.5t-26 -105h103q10 42 17.5 69t20 58.5t26.5 50t34.5 31t46.5 12.5q32 0 83 -34.5t97.5 -76t104.5 -76t102 -34.5
q56 0 98.5 24.5t71 73t46.5 101.5t34 129h-102z" />
    <glyph glyph-name="sterling" unicode="&#xa3;" horiz-adv-x="1181" 
d="M913 152q-6 -22 -22.5 -35t-38.5 -13h-494q-52 0 -120.5 -6t-111.5 -12l-42 -6l4 24q98 42 167 112t100.5 145.5t43 156.5t4 146.5t-25.5 113.5h555l18 80h-581q-6 39 1 90t26.5 107t56 109t84 95.5t116.5 68.5t148 26q81 0 139.5 -23t89 -63.5t43 -87.5t8.5 -101h109
q4 56 -5.5 108t-36.5 102t-69.5 87t-110.5 59.5t-155 22.5q-103 0 -191.5 -30t-149 -80.5t-106.5 -113t-70.5 -130.5t-34.5 -130.5t-5 -115.5h-129l-16 -80h153q33 -82 35.5 -174.5t-27 -185.5t-108.5 -177t-199 -137l-22 -104h915q57 3 99.5 38t54.5 89l24 127h-102z" />
    <glyph glyph-name="yen" unicode="&#xa5;" horiz-adv-x="1114" 
d="M682 874q-17 -22 -33 -46.5t-23 -37.5l-8 -14h-26q-7 52 -25 101l-215 557h-114l297 -768l-142 -666h117l139 664l621 770h-137zM211 696l-16 -82h766l16 82h-766zM154 428l-17 -80h766l17 80h-766z" />
    <glyph glyph-name="section" unicode="&#xa7;" horiz-adv-x="954" 
d="M483 532q52 0 101.5 11t92.5 33t69.5 60t27.5 87q1 50 -24.5 88t-68.5 59.5t-91.5 32t-100.5 10.5q-72 0 -134.5 -17.5t-108.5 -62t-47 -110.5q-1 -65 43.5 -110t107 -63t133.5 -18zM504 1012q177 0 284 -76.5t101 -200.5q-3 -58 -38 -106t-80.5 -73.5t-84 -38.5
t-59.5 -13l-2 -25q35 -2 70.5 -19t65 -46.5t46.5 -74.5t14 -97q-2 -66 -33 -118t-81.5 -84t-113.5 -48.5t-134 -16.5q-147 0 -246.5 73.5t-95.5 203.5v20h112v-20q-1 -89 69.5 -133.5t168.5 -44.5q62 0 114.5 17t89 59t36.5 102q1 90 -68.5 135t-167.5 45q-49 0 -99.5 8.5
t-104.5 29t-94.5 51.5t-65.5 80.5t-23 111.5q3 48 26.5 89t56 66t69.5 43t65.5 25.5t44.5 7.5l2 25q-73 3 -136.5 69.5t-59.5 159.5q3 85 56 145.5t132 87.5t176 27q149 0 248.5 -70.5t95.5 -197.5v-25h-112q0 1 -1 10t1 11q1 86 -70.5 130t-169.5 44q-63 0 -116 -17
t-90 -58t-38 -99q0 -86 70.5 -130t169.5 -44z" />
    <glyph glyph-name="dieresis" unicode="&#xa8;" horiz-adv-x="692" 
d="M442 1642q-34 0 -53 24t-12 58q4 26 27 44t51 18q32 0 51 -23.5t10 -56.5q-4 -26 -26.5 -45t-47.5 -19zM752 1642q-33 0 -53 24.5t-13 57.5q4 26 27.5 44t50.5 18q32 0 51 -23.5t12 -56.5q-4 -26 -27 -45t-48 -19z" />
    <glyph glyph-name="copyright" unicode="&#xa9;" horiz-adv-x="1660" 
d="M592 719q13 61 44 120.5t77 109.5t112.5 81t141.5 31q177 0 204 -172h95q-7 50 -24.5 92t-50.5 80.5t-89.5 61t-132.5 22.5q-99 0 -183.5 -38.5t-141 -101.5t-93 -136.5t-51.5 -151.5q-11 -51 -12.5 -100t6.5 -97.5t30.5 -89.5t57 -72.5t88 -49t121.5 -17.5
q75 0 140.5 21.5t114.5 59t84.5 78.5t63.5 89h-111q-45 -72 -123 -118t-172 -46q-60 0 -103 20.5t-65.5 54t-32 79.5t-7.5 92.5t12 97.5zM717 57q182 0 355.5 89.5t297 244t162.5 336.5q37 176 -19 325.5t-188.5 236.5t-310.5 87q-136 0 -271 -53t-244 -142t-189 -213
t-109 -261q-37 -176 19 -326t188 -237t309 -87zM1016 1458q123 0 231 -38t185.5 -106.5t129 -162.5t63 -206t-12.5 -238q-31 -148 -118 -283.5t-207 -234t-269.5 -156.5t-300.5 -58q-123 0 -231 38.5t-185.5 106.5t-129.5 162.5t-64 206.5t12 238q42 198 177 366.5
t326.5 266.5t393.5 98z" />
    <glyph glyph-name="guillemotleft" unicode="&#xab;" horiz-adv-x="1153" 
d="M535 0q-271 414 -275 416q-46 71 -67 71v23q12 0 46.5 19.5t71.5 52.5l453 417h-143l-541 -499l328 -500h127zM944 0q-272 414 -274 416q-46 71 -70 71v23q12 0 48 19.5t73 52.5l453 417h-144l-541 -499l328 -500h127z" />
    <glyph glyph-name="registered" unicode="&#xae;" horiz-adv-x="954" 
d="M426 735q87 0 161.5 30.5t124 80.5t81 107.5t45.5 119.5q7 46 7.5 92.5t-17.5 89.5t-47.5 76t-83 52.5t-122.5 19.5q-87 0 -161 -30.5t-122.5 -80.5t-79.5 -107.5t-44 -119.5q-8 -46 -9 -92.5t16.5 -89.5t46.5 -76t82 -52.5t122 -19.5zM580 1458q70 0 126 -16.5t93 -45
t61.5 -66.5t34.5 -82.5t10 -90t-10 -92.5q-15 -70 -50.5 -135.5t-92 -123t-142.5 -92t-188 -34.5q-70 0 -126 16.5t-93 45t-62 66.5t-35 82.5t-10 90t10 92.5q15 70 51 135.5t92.5 123t142.5 92t188 34.5zM528 1114q31 0 56.5 16t31.5 48q7 27 -12.5 43t-48.5 16h-102
l-27 -123h102zM594 1081q28 0 39.5 -17t5.5 -46l-33 -160h-63q29 129 39 176q3 11 -4.5 19t-20.5 8h-143l-43 -203h-62l90 432h166q61 0 93 -31t22 -81q-12 -61 -84 -91z" />
    <glyph glyph-name="plusminus" unicode="&#xb1;" 
d="M57 90h826l-19 -90h-825zM719 1030l-68 -328h363l-23 -98h-360l-70 -325h-104l69 325h-360l22 98h361l67 328h103z" />
    <glyph glyph-name="acute" unicode="&#xb4;" horiz-adv-x="405" 
d="M592 1786l-176 -242h-107l170 242h113z" />
    <glyph glyph-name="periodcentered" unicode="&#xb7;" horiz-adv-x="374" 
d="M180 428q-37 0 -59 26t-15 64q6 29 32 49.5t57 20.5q36 0 57 -26t12 -64q-4 -29 -30 -49.5t-54 -20.5z" />
    <glyph glyph-name="guillemotright" unicode="&#xbb;" horiz-adv-x="1148" 
d="M383 0h141l541 500l-328 499h-127q269 -413 273 -417q48 -72 71 -72v-23q-13 0 -48 -18.5t-70 -52.5zM-27 0h142l540 500l-327 499h-127q272 -413 274 -417q51 -72 72 -72v-23q-13 0 -49.5 -18.5t-71.5 -52.5z" />
    <glyph glyph-name="Aacute" unicode="&#xc1;" horiz-adv-x="1245" 
d="M903 1434l213 -1434h-104l-58 387h-704l-221 -387h-117l823 1434h168zM307 485h633l-125 844h-24zM1071 1786l-176 -242h-107l170 242h113z" />
    <glyph glyph-name="Acircumflex" unicode="&#xc2;" horiz-adv-x="1245" 
d="M903 1434l213 -1434h-104l-58 387h-704l-221 -387h-117l823 1434h168zM307 485h633l-125 844h-24zM963 1786l108 -227h-106l-74 155h-17l-139 -155h-121l205 227h144z" />
    <glyph glyph-name="Adieresis" unicode="&#xc4;" horiz-adv-x="1245" 
d="M903 1434l213 -1434h-104l-58 387h-704l-221 -387h-117l823 1434h168zM307 485h633l-125 844h-24zM717 1642q-34 0 -53.5 24t-12.5 58q4 26 27 44t51 18q32 0 51.5 -23.5t10.5 -56.5q-4 -26 -26.5 -45t-47.5 -19zM1026 1642q-33 0 -52.5 24.5t-12.5 57.5q4 26 27 44
t50 18q32 0 51.5 -23.5t12.5 -56.5q-4 -26 -27.5 -45t-48.5 -19z" />
    <glyph glyph-name="Aring" unicode="&#xc5;" horiz-adv-x="1245" 
d="M903 1434l213 -1434h-104l-58 387h-704l-221 -387h-117l823 1434h168zM307 485h633l-125 844h-24zM852 1640q69 0 113.5 43t58.5 101q9 54 -12 92.5t-86 38.5q-66 0 -110 -42.5t-56 -98.5q-11 -53 10 -93.5t82 -40.5zM930 1999q75 0 121 -36.5t58.5 -87.5t0.5 -106
q-17 -85 -82.5 -146.5t-175.5 -61.5t-154.5 69t-23.5 158q17 85 82 148t174 63z" />
    <glyph glyph-name="Eacute" unicode="&#xc9;" 
d="M1210 1434l-20 -105h-748l-120 -559h682l-23 -100h-680l-121 -566h748l-21 -104h-864l305 1434h862zM1004 1786l-177 -242h-106l170 242h113z" />
    <glyph glyph-name="Ecircumflex" unicode="&#xca;" 
d="M1210 1434l-20 -105h-748l-120 -559h682l-23 -100h-680l-121 -566h748l-21 -104h-864l305 1434h862zM907 1786l109 -227h-107l-73 155h-17l-139 -155h-121l205 227h143z" />
    <glyph glyph-name="Edieresis" unicode="&#xcb;" 
d="M1210 1434l-20 -105h-748l-120 -559h682l-23 -100h-680l-121 -566h748l-21 -104h-864l305 1434h862zM647 1642q-34 0 -53 24t-12 58q4 26 26.5 44t50.5 18q32 0 51.5 -23.5t10.5 -56.5q-4 -26 -26.5 -45t-47.5 -19zM956 1642q-33 0 -52.5 24.5t-12.5 57.5q4 26 27.5 44
t50.5 18q32 0 51 -23.5t12 -56.5q-4 -26 -27.5 -45t-48.5 -19z" />
    <glyph glyph-name="Igrave" unicode="&#xcc;" horiz-adv-x="450" 
d="M369 1434h114l-303 -1434h-114zM311 1786h105l65 -242h-100z" />
    <glyph glyph-name="Iacute" unicode="&#xcd;" horiz-adv-x="448" 
d="M358 1434h115l-303 -1434h-115zM680 1786l-176 -242h-107l170 242h113z" />
    <glyph glyph-name="Icircumflex" unicode="&#xce;" horiz-adv-x="438" 
d="M348 1434h115l-303 -1434h-115zM561 1786l109 -227h-107l-74 155h-16l-139 -155h-121l205 227h143z" />
    <glyph glyph-name="Idieresis" unicode="&#xcf;" horiz-adv-x="436" 
d="M348 1434h115l-303 -1434h-115zM313 1642q-34 0 -53 24t-12 58q4 26 27 44t51 18q32 0 51 -23.5t10 -56.5q-4 -26 -26.5 -45t-47.5 -19zM623 1642q-33 0 -53 24.5t-13 57.5q4 26 27.5 44t50.5 18q32 0 51 -23.5t12 -56.5q-4 -26 -27 -45t-48 -19z" />
    <glyph glyph-name="Oacute" unicode="&#xd3;" horiz-adv-x="1454" 
d="M629 80q110 0 209 39t172.5 102.5t132.5 148.5t96 174t57 181q19 91 20 178t-21 169.5t-66.5 144.5t-125 99.5t-188.5 37.5q-111 0 -210.5 -39t-173 -102.5t-132.5 -148.5t-96 -174.5t-57 -182.5q-19 -91 -20 -177.5t21 -169t67 -144t126 -99t189 -37.5zM922 1458
q113 0 202.5 -31.5t147 -87t95 -127.5t51.5 -157.5t11 -173t-22 -176.5q-22 -105 -64.5 -205.5t-111 -196.5t-154.5 -168t-203.5 -116t-250.5 -44q-113 0 -203 31.5t-148 87t-96 127.5t-52 157t-12 172t21 175q23 106 66 207t112 197.5t155.5 168.5t204.5 116t251 44z
M1167 1786l-176 -242h-106l170 242h112z" />
    <glyph glyph-name="Ocircumflex" unicode="&#xd4;" horiz-adv-x="1454" 
d="M629 80q110 0 209 39t172.5 102.5t132.5 148.5t96 174t57 181q19 91 20 178t-21 169.5t-66.5 144.5t-125 99.5t-188.5 37.5q-111 0 -210.5 -39t-173 -102.5t-132.5 -148.5t-96 -174.5t-57 -182.5q-19 -91 -20 -177.5t21 -169t67 -144t126 -99t189 -37.5zM922 1458
q113 0 202.5 -31.5t147 -87t95 -127.5t51.5 -157.5t11 -173t-22 -176.5q-22 -105 -64.5 -205.5t-111 -196.5t-154.5 -168t-203.5 -116t-250.5 -44q-113 0 -203 31.5t-148 87t-96 127.5t-52 157t-12 172t21 175q23 106 66 207t112 197.5t155.5 168.5t204.5 116t251 44z
M1071 1788l109 -227h-107l-74 155h-16l-139 -155h-121l205 227h143z" />
    <glyph glyph-name="Odieresis" unicode="&#xd6;" horiz-adv-x="1454" 
d="M629 80q110 0 209 39t172.5 102.5t132.5 148.5t96 174t57 181q19 91 20 178t-21 169.5t-66.5 144.5t-125 99.5t-188.5 37.5q-111 0 -210.5 -39t-173 -102.5t-132.5 -148.5t-96 -174.5t-57 -182.5q-19 -91 -20 -177.5t21 -169t67 -144t126 -99t189 -37.5zM922 1458
q113 0 202.5 -31.5t147 -87t95 -127.5t51.5 -157.5t11 -173t-22 -176.5q-22 -105 -64.5 -205.5t-111 -196.5t-154.5 -168t-203.5 -116t-250.5 -44q-113 0 -203 31.5t-148 87t-96 127.5t-52 157t-12 172t21 175q23 106 66 207t112 197.5t155.5 168.5t204.5 116t251 44z
M838 1642q-34 0 -53.5 24t-12.5 58q4 26 27 44t51 18q32 0 51 -23.5t10 -56.5q-4 -26 -26 -45t-47 -19zM1147 1642q-33 0 -53 24.5t-13 57.5q4 26 27.5 44t50.5 18q32 0 51.5 -23.5t12.5 -56.5q-4 -26 -27.5 -45t-48.5 -19z" />
    <glyph glyph-name="multiply" unicode="&#xd7;" horiz-adv-x="1019" 
d="M928 942l-314 -260l205 -256l-78 -68l-198 254l-318 -260l-63 78l313 258l-203 254l80 66l195 -248l313 256z" />
    <glyph glyph-name="Oslash" unicode="&#xd8;" horiz-adv-x="1458" 
d="M635 80q110 0 209 39t173 102.5t133 148.5t96 174t57 181q19 91 20 178t-21 169.5t-66.5 144.5t-125 99.5t-188.5 37.5q-111 0 -210.5 -39t-173 -102.5t-133 -148.5t-96.5 -174.5t-57 -182.5q-19 -91 -20 -177.5t21 -169t67 -144t126 -99t189 -37.5zM928 1458
q113 0 202.5 -31.5t147 -87t95 -127.5t51.5 -157.5t11 -173t-22 -176.5q-22 -105 -64.5 -205.5t-111 -196.5t-154.5 -168t-203.5 -116t-250.5 -44q-113 0 -203 31.5t-148 87t-96 127.5t-52 157t-12 172t21 175q23 106 66 207t112 197.5t155.5 168.5t204.5 116t251 44z
M1499 1438l-1393 -1442h-133l1395 1442h131z" />
    <glyph glyph-name="Uacute" unicode="&#xda;" horiz-adv-x="1349" 
d="M1106 578q-19 -90 -61.5 -175t-106 -159t-156.5 -119t-200 -45q-92 0 -159 29t-103 76.5t-52.5 113.5t-15 134.5t17.5 144.5l185 856h-117l-180 -854q-12 -54 -16 -109.5t1.5 -115.5t22 -114t49 -103t78.5 -85t114.5 -57t153.5 -21q123 0 228 40t175.5 102t125.5 145
t84.5 160t46.5 156l184 856h-117zM1114 1786l-176 -242h-107l170 242h113z" />
    <glyph glyph-name="Udieresis" unicode="&#xdc;" horiz-adv-x="1349" 
d="M1106 578q-19 -90 -61.5 -175t-106 -159t-156.5 -119t-200 -45q-92 0 -159 29t-103 76.5t-52.5 113.5t-15 134.5t17.5 144.5l185 856h-117l-180 -854q-12 -54 -16 -109.5t1.5 -115.5t22 -114t49 -103t78.5 -85t114.5 -57t153.5 -21q123 0 228 40t175.5 102t125.5 145
t84.5 160t46.5 156l184 856h-117zM799 1642q-34 0 -53.5 24t-12.5 58q4 26 27 44t51 18q32 0 51 -23.5t10 -56.5q-4 -26 -26 -45t-47 -19zM1108 1642q-33 0 -53 24.5t-13 57.5q4 26 27.5 44t50.5 18q32 0 51.5 -23.5t12.5 -56.5q-4 -26 -27.5 -45t-48.5 -19z" />
    <glyph glyph-name="Yacute" unicode="&#xdd;" horiz-adv-x="1073" 
d="M662 874q-17 -22 -33 -46.5t-23 -37.5l-8 -14h-27q-6 52 -24 101l-215 557h-115l297 -768l-141 -666h116l140 664l620 770h-137zM963 1786l-177 -242h-106l170 242h113z" />
    <glyph glyph-name="aacute" unicode="&#xe1;" horiz-adv-x="1089" 
d="M848 604q-71 -51 -447 -115q-56 -8 -106.5 -33t-92 -72.5t-55.5 -109.5q-17 -74 23.5 -130.5t110.5 -67.5q65 -12 130.5 -1.5t147.5 54.5q157 82 229 258q24 66 35 115zM963 102l-23 -102h-88q-47 0 -73.5 33t-16.5 84q8 36 35 104t50 118l23 50h-24q-4 -9 -11.5 -25
t-33 -61.5t-55.5 -87t-77.5 -90.5t-99.5 -82q-136 -86 -331 -63q-104 11 -165 93.5t-36 198.5q46 217 291 281q65 14 190 31t174 30q47 8 79 19t58 35.5t27 60.5q2 78 -64 137.5t-182 59.5q-135 0 -241.5 -79.5t-130.5 -193.5l-111 4q32 152 172.5 259.5t325.5 107.5
q187 0 282 -113.5t58 -283.5l-105 -490q-3 -14 5 -24.5t26 -10.5h72zM928 1448l-176 -242h-107l170 242h113z" />
    <glyph glyph-name="acircumflex" unicode="&#xe2;" horiz-adv-x="1089" 
d="M848 604q-71 -51 -447 -115q-56 -8 -106.5 -33t-92 -72.5t-55.5 -109.5q-17 -74 23.5 -130.5t110.5 -67.5q65 -12 130.5 -1.5t147.5 54.5q157 82 229 258q24 66 35 115zM963 102l-23 -102h-88q-47 0 -73.5 33t-16.5 84q8 36 35 104t50 118l23 50h-24q-4 -9 -11.5 -25
t-33 -61.5t-55.5 -87t-77.5 -90.5t-99.5 -82q-136 -86 -331 -63q-104 11 -165 93.5t-36 198.5q46 217 291 281q65 14 190 31t174 30q47 8 79 19t58 35.5t27 60.5q2 78 -64 137.5t-182 59.5q-135 0 -241.5 -79.5t-130.5 -193.5l-111 4q32 152 172.5 259.5t325.5 107.5
q187 0 282 -113.5t58 -283.5l-105 -490q-3 -14 5 -24.5t26 -10.5h72zM852 1448l109 -227h-107l-74 155h-16l-139 -155h-121l205 227h143z" />
    <glyph glyph-name="adieresis" unicode="&#xe4;" horiz-adv-x="1089" 
d="M848 604q-71 -51 -447 -115q-56 -8 -106.5 -33t-92 -72.5t-55.5 -109.5q-17 -74 23.5 -130.5t110.5 -67.5q65 -12 130.5 -1.5t147.5 54.5q157 82 229 258q24 66 35 115zM963 102l-23 -102h-88q-47 0 -73.5 33t-16.5 84q8 36 35 104t50 118l23 50h-24q-4 -9 -11.5 -25
t-33 -61.5t-55.5 -87t-77.5 -90.5t-99.5 -82q-136 -86 -331 -63q-104 11 -165 93.5t-36 198.5q46 217 291 281q65 14 190 31t174 30q47 8 79 19t58 35.5t27 60.5q2 78 -64 137.5t-182 59.5q-135 0 -241.5 -79.5t-130.5 -193.5l-111 4q32 152 172.5 259.5t325.5 107.5
q187 0 282 -113.5t58 -283.5l-105 -490q-3 -14 5 -24.5t26 -10.5h72zM629 1305q-34 0 -53.5 24t-12.5 57q4 26 27 44t51 18q32 0 51 -23.5t10 -56.5q-4 -26 -26 -44.5t-47 -18.5zM938 1305q-33 0 -53 24t-13 57q4 26 27.5 44t50.5 18q32 0 51.5 -23.5t12.5 -56.5
q-4 -26 -27.5 -44.5t-48.5 -18.5z" />
    <glyph glyph-name="aring" unicode="&#xe5;" horiz-adv-x="1089" 
d="M848 604q-71 -51 -447 -115q-56 -8 -106.5 -33t-92 -72.5t-55.5 -109.5q-17 -74 23.5 -130.5t110.5 -67.5q65 -12 130.5 -1.5t147.5 54.5q157 82 229 258q24 66 35 115zM963 102l-23 -102h-88q-47 0 -73.5 33t-16.5 84q8 36 35 104t50 118l23 50h-24q-4 -9 -11.5 -25
t-33 -61.5t-55.5 -87t-77.5 -90.5t-99.5 -82q-136 -86 -331 -63q-104 11 -165 93.5t-36 198.5q46 217 291 281q65 14 190 31t174 30q47 8 79 19t58 35.5t27 60.5q2 78 -64 137.5t-182 59.5q-135 0 -241.5 -79.5t-130.5 -193.5l-111 4q32 152 172.5 259.5t325.5 107.5
q187 0 282 -113.5t58 -283.5l-105 -490q-3 -14 5 -24.5t26 -10.5h72zM731 1311q69 0 113.5 42.5t58.5 100.5q9 54 -12 92.5t-86 38.5q-66 0 -110 -42.5t-56 -98.5q-4 -31 -1.5 -60.5t27 -51t66.5 -21.5zM809 1669q75 0 121 -36.5t58.5 -87t0.5 -105.5q-17 -85 -82.5 -147
t-175.5 -62t-154.5 69t-23.5 158q17 85 82 148t174 63z" />
    <glyph glyph-name="eacute" unicode="&#xe9;" horiz-adv-x="1087" 
d="M635 926q-85 0 -159.5 -32.5t-127.5 -87t-90 -118t-57 -131.5l706 6q10 41 7 83.5t-11.5 82.5t-31.5 76t-54 63t-78 42.5t-104 15.5zM180 475q-8 -56 -9.5 -112t16 -108t47.5 -92.5t84 -64.5t126 -24q259 0 394 258h114q-33 -74 -79.5 -136.5t-109.5 -113t-146 -79
t-177 -28.5q-80 0 -145 22.5t-108 62.5t-71.5 92t-40 112.5t-11 123t13.5 124.5q16 74 46.5 145.5t80 138.5t112 117t147 80.5t179.5 30.5q78 0 142 -20t108.5 -56t74.5 -85.5t43 -110.5t11.5 -129t-18.5 -142zM938 1450l-176 -242h-107l170 242h113z" />
    <glyph glyph-name="ecircumflex" unicode="&#xea;" horiz-adv-x="1087" 
d="M635 926q-85 0 -159.5 -32.5t-127.5 -87t-90 -118t-57 -131.5l706 6q10 41 7 83.5t-11.5 82.5t-31.5 76t-54 63t-78 42.5t-104 15.5zM180 475q-8 -56 -9.5 -112t16 -108t47.5 -92.5t84 -64.5t126 -24q259 0 394 258h114q-33 -74 -79.5 -136.5t-109.5 -113t-146 -79
t-177 -28.5q-80 0 -145 22.5t-108 62.5t-71.5 92t-40 112.5t-11 123t13.5 124.5q16 74 46.5 145.5t80 138.5t112 117t147 80.5t179.5 30.5q78 0 142 -20t108.5 -56t74.5 -85.5t43 -110.5t11.5 -129t-18.5 -142zM864 1448l109 -227h-107l-73 155h-17l-139 -155h-121l205 227
h143z" />
    <glyph glyph-name="edieresis" unicode="&#xeb;" horiz-adv-x="1087" 
d="M635 926q-85 0 -159.5 -32.5t-127.5 -87t-90 -118t-57 -131.5l706 6q10 41 7 83.5t-11.5 82.5t-31.5 76t-54 63t-78 42.5t-104 15.5zM180 475q-8 -56 -9.5 -112t16 -108t47.5 -92.5t84 -64.5t126 -24q259 0 394 258h114q-33 -74 -79.5 -136.5t-109.5 -113t-146 -79
t-177 -28.5q-80 0 -145 22.5t-108 62.5t-71.5 92t-40 112.5t-11 123t13.5 124.5q16 74 46.5 145.5t80 138.5t112 117t147 80.5t179.5 30.5q78 0 142 -20t108.5 -56t74.5 -85.5t43 -110.5t11.5 -129t-18.5 -142zM629 1307q-34 0 -53.5 24t-12.5 58q4 26 27 43.5t51 17.5
q32 0 51 -23.5t10 -56.5q-4 -26 -26 -44.5t-47 -18.5zM938 1307q-33 0 -53 24.5t-13 57.5q4 26 27.5 43.5t50.5 17.5q32 0 51.5 -23.5t12.5 -56.5q-4 -26 -27.5 -44.5t-48.5 -18.5z" />
    <glyph glyph-name="iacute" unicode="&#xed;" horiz-adv-x="413" 
d="M582 1448l-176 -242h-107l170 242h113zM354 918q7 37 -12 59t-55 22h-146l-20 -104h76q14 0 22 -12t4 -25l-180 -858h115z" />
    <glyph glyph-name="icircumflex" unicode="&#xee;" horiz-adv-x="397" 
d="M465 1448l108 -227h-106l-74 155h-16l-139 -155h-121l205 227h143zM371 918q7 37 -12.5 59t-55.5 22h-143l-21 -104h74q14 0 23 -12t6 -25l-183 -858h117z" />
    <glyph glyph-name="idieresis" unicode="&#xef;" horiz-adv-x="382" 
d="M199 1305q-34 0 -53.5 24t-12.5 57q4 26 27 44t51 18q32 0 51 -23.5t10 -56.5q-4 -26 -26 -44.5t-47 -18.5zM508 1305q-33 0 -53 24t-13 57q4 26 27.5 44t50.5 18q32 0 51.5 -23.5t12.5 -56.5q-4 -26 -27.5 -44.5t-48.5 -18.5zM362 918q7 37 -12 59t-55 22h-143l-21 -104
h74q13 0 22 -11.5t6 -25.5l-182 -858h117z" />
    <glyph glyph-name="oacute" unicode="&#xf3;" horiz-adv-x="1067" 
d="M430 68q93 0 172.5 39.5t134.5 105t91 141t53 156.5q13 62 14.5 120t-12.5 113.5t-43 97t-82.5 66.5t-126.5 25q-93 0 -172.5 -40t-134.5 -105.5t-91 -141t-53 -156.5q-13 -62 -14.5 -119.5t12.5 -113.5t43 -97t82.5 -66t126.5 -25zM633 1024q81 0 145.5 -22.5t105.5 -62
t68.5 -91t37 -112t7.5 -122.5t-16 -125q-15 -74 -44 -145t-77.5 -138.5t-109.5 -118t-144.5 -81.5t-177.5 -31q-81 0 -146 22.5t-106 62t-68.5 90.5t-37.5 112t-8 123t16 125q15 74 44.5 145t78 138.5t109.5 118t144.5 81.5t178.5 31zM922 1448l-177 -242h-106l170 242h113z
" />
    <glyph glyph-name="ocircumflex" unicode="&#xf4;" horiz-adv-x="1067" 
d="M430 68q93 0 172.5 39.5t134.5 105t91 141t53 156.5q13 62 14.5 120t-12.5 113.5t-43 97t-82.5 66.5t-126.5 25q-93 0 -172.5 -40t-134.5 -105.5t-91 -141t-53 -156.5q-13 -62 -14.5 -119.5t12.5 -113.5t43 -97t82.5 -66t126.5 -25zM633 1024q81 0 145.5 -22.5t105.5 -62
t68.5 -91t37 -112t7.5 -122.5t-16 -125q-15 -74 -44 -145t-77.5 -138.5t-109.5 -118t-144.5 -81.5t-177.5 -31q-81 0 -146 22.5t-106 62t-68.5 90.5t-37.5 112t-8 123t16 125q15 74 44.5 145t78 138.5t109.5 118t144.5 81.5t178.5 31zM854 1448l109 -227h-107l-74 155h-16
l-139 -155h-121l205 227h143z" />
    <glyph glyph-name="odieresis" unicode="&#xf6;" horiz-adv-x="1067" 
d="M430 68q93 0 172.5 39.5t134.5 105t91 141t53 156.5q13 62 14.5 120t-12.5 113.5t-43 97t-82.5 66.5t-126.5 25q-93 0 -172.5 -40t-134.5 -105.5t-91 -141t-53 -156.5q-13 -62 -14.5 -119.5t12.5 -113.5t43 -97t82.5 -66t126.5 -25zM633 1024q81 0 145.5 -22.5t105.5 -62
t68.5 -91t37 -112t7.5 -122.5t-16 -125q-15 -74 -44 -145t-77.5 -138.5t-109.5 -118t-144.5 -81.5t-177.5 -31q-81 0 -146 22.5t-106 62t-68.5 90.5t-37.5 112t-8 123t16 125q15 74 44.5 145t78 138.5t109.5 118t144.5 81.5t178.5 31zM625 1305q-34 0 -53.5 24t-12.5 57
q4 26 27 44t51 18q32 0 51 -23.5t10 -56.5q-4 -26 -26 -44.5t-47 -18.5zM934 1305q-33 0 -53 24t-13 57q4 26 27.5 44t50.5 18q32 0 51.5 -23.5t12.5 -56.5q-4 -26 -27.5 -44.5t-48.5 -18.5z" />
    <glyph glyph-name="divide" unicode="&#xf7;" horiz-adv-x="1116" 
d="M182 678h826l-23 -98h-825zM508 231q-34 0 -53.5 24t-12.5 58q6 26 29 45t49 19q34 0 54 -24t14 -58q-6 -26 -30 -45t-50 -19zM647 881q-35 0 -54.5 23.5t-12.5 58.5q6 26 28.5 44.5t50.5 18.5q33 0 52.5 -24.5t13.5 -59.5q-6 -26 -29.5 -43.5t-48.5 -17.5z" />
    <glyph glyph-name="oslash" unicode="&#xf8;" horiz-adv-x="1054" 
d="M424 68q75 0 141.5 26.5t116 70t89.5 101.5t65 119t38 125q13 62 14.5 120t-12 113.5t-42.5 97t-82.5 66.5t-126.5 25q-93 0 -172.5 -40t-134.5 -105.5t-91 -141t-53 -156.5q-13 -62 -14.5 -119.5t12.5 -113.5t43 -97t82.5 -66t126.5 -25zM627 1024q81 0 145.5 -22.5
t105.5 -62t68.5 -91t37 -112t7.5 -122.5t-16 -125q-15 -74 -44 -145t-77.5 -138.5t-109.5 -118t-144.5 -81.5t-177.5 -31q-81 0 -146 22.5t-106 62t-68.5 90.5t-37.5 112t-8 123t16 125q15 74 44.5 145t78 138.5t109.5 118t144.5 81.5t178.5 31zM1040 1004l-931 -1008h-105
l930 1008h106z" />
    <glyph glyph-name="uacute" unicode="&#xfa;" horiz-adv-x="1126" 
d="M109 430q-35 -170 11.5 -291.5t178.5 -154.5q169 -39 319.5 56.5t233.5 287.5h25q-55 -127 -80 -236l-21 -92h115l213 999h-117l-69 -335q-27 -120 -76 -256q-30 -79 -78 -147.5t-108.5 -118t-135.5 -69.5t-151 -1q-78 19 -117.5 72.5t-40.5 130.5t18 176l115 548h-115z
M954 1448l-176 -242h-106l170 242h112z" />
    <glyph glyph-name="ucircumflex" unicode="&#xfb;" horiz-adv-x="1126" 
d="M109 430q-35 -170 11.5 -291.5t178.5 -154.5q169 -39 319.5 56.5t233.5 287.5h25q-55 -127 -80 -236l-21 -92h115l213 999h-117l-69 -335q-27 -120 -76 -256q-30 -79 -78 -147.5t-108.5 -118t-135.5 -69.5t-151 -1q-78 19 -117.5 72.5t-40.5 130.5t18 176l115 548h-115z
M862 1448l109 -227h-107l-73 155h-17l-139 -155h-121l205 227h143z" />
    <glyph glyph-name="udieresis" unicode="&#xfc;" horiz-adv-x="1126" 
d="M109 430q-35 -170 11.5 -291.5t178.5 -154.5q169 -39 319.5 56.5t233.5 287.5h25q-55 -127 -80 -236l-21 -92h115l213 999h-117l-69 -335q-27 -120 -76 -256q-30 -79 -78 -147.5t-108.5 -118t-135.5 -69.5t-151 -1q-78 19 -117.5 72.5t-40.5 130.5t18 176l115 548h-115z
M625 1305q-34 0 -53.5 24t-12.5 57q4 26 27 44t51 18q32 0 51 -23.5t10 -56.5q-4 -26 -26 -44.5t-47 -18.5zM934 1305q-33 0 -53 24t-13 57q4 26 27.5 44t50.5 18q32 0 51.5 -23.5t12.5 -56.5q-4 -26 -27.5 -44.5t-48.5 -18.5z" />
    <glyph glyph-name="yacute" unicode="&#xfd;" horiz-adv-x="991" 
d="M494 248q-26 -43 -46.5 -80t-27.5 -52l-8 -16h-25q2 58 -16 154l-138 745h-110l176 -999h49l-186 -313q-41 -68 -111.5 -112t-146.5 -44h-70l-27 -100h76q74 0 139.5 21.5t113 58.5t80 73.5t58.5 79.5l803 1335h-127zM866 1448l-176 -242h-106l170 242h112z" />
    <glyph glyph-name="ydieresis" unicode="&#xff;" horiz-adv-x="991" 
d="M494 248q-26 -43 -46.5 -80t-27.5 -52l-8 -16h-25q2 58 -16 154l-138 745h-110l176 -999h49l-186 -313q-41 -68 -111.5 -112t-146.5 -44h-70l-27 -100h76q74 0 139.5 21.5t113 58.5t80 73.5t58.5 79.5l803 1335h-127zM532 1305q-34 0 -53 23.5t-12 57.5q4 26 27 44t51 18
q32 0 51 -23.5t10 -56.5q-4 -26 -26.5 -44.5t-47.5 -18.5zM842 1305q-33 0 -53 24t-13 57q4 26 27.5 44t50.5 18q32 0 51.5 -23.5t12.5 -56.5q-4 -26 -27.5 -44.5t-48.5 -18.5z" />
    <glyph glyph-name="Ccaron" unicode="&#x10c;" horiz-adv-x="1425" 
d="M1192 408q-85 -141 -226.5 -234.5t-314.5 -93.5q-116 0 -201.5 37.5t-133 99.5t-70.5 146t-21 174.5t23 187.5q18 88 58 177t101.5 170.5t137 144t172 100t198.5 37.5q99 0 175 -26t125 -73t77.5 -105.5t40.5 -131.5h119q-8 65 -28.5 125t-61.5 118.5t-97 101t-140.5 69
t-186.5 26.5q-128 0 -244 -40t-206 -109t-162.5 -162.5t-120 -200.5t-72.5 -223q-19 -88 -20.5 -175t14 -171.5t55 -156.5t98.5 -127t149 -86.5t202 -31.5q130 0 243.5 38t197.5 103.5t144.5 137t106.5 154.5h-131zM891 1559l-107 227h107l74 -154h16l139 154h121l-205 -227
h-145z" />
    <glyph glyph-name="ccaron" unicode="&#x10d;" horiz-adv-x="1042" 
d="M807 291q-57 -93 -145 -152t-207 -59q-83 0 -141 25.5t-88 66.5t-42 98.5t-8.5 114.5t17.5 121q14 67 50.5 137.5t90.5 133.5t131 103t160 40q126 0 189 -57.5t83 -162.5h117q-6 65 -30.5 121t-67.5 102.5t-112.5 73.5t-156.5 27q-97 0 -183 -31.5t-149 -82.5
t-112.5 -120t-80 -141t-46.5 -147q-13 -61 -14 -122t10 -120.5t39 -110.5t70 -90t106.5 -61.5t144.5 -22.5q98 0 178.5 24.5t139.5 70.5t100.5 99t77.5 122h-121zM680 1221l-107 227h107l74 -154h16l139 154h121l-205 -227h-145z" />
    <glyph glyph-name="Dcaron" unicode="&#x10e;" horiz-adv-x="1392" 
d="M567 104q110 0 208.5 35.5t172.5 95.5t133.5 140t97 167t56.5 179q16 76 18 148.5t-10 141t-43.5 126t-79.5 101t-121 67.5t-165 24h-392l-262 -1225h387zM1348 709q-69 -331 -288.5 -520t-508.5 -189h-508l305 1434h504q137 0 245 -48t176.5 -140.5t89.5 -227.5
t-15 -309zM766 1559l-107 227h107l74 -154h16l139 154h121l-205 -227h-145z" />
    <glyph glyph-name="dcaron" unicode="&#x10f;" horiz-adv-x="1177" 
d="M190 496q-20 -84 -13 -159.5t34 -132.5t86.5 -90.5t144.5 -33.5t159.5 34.5t129 93.5t92.5 134.5t56 161.5q20 84 12.5 159.5t-35 132.5t-86 90.5t-141.5 33.5q-113 0 -206.5 -60t-150.5 -154t-82 -210zM78 512q21 101 65.5 191t110 163t158.5 115.5t200 42.5
q145 0 224 -75t98 -195h24q-2 112 25 241l94 439h115l-305 -1434h-115l6 31q10 50 27 102t29 79l12 26h-25q-149 -263 -418 -263q-88 0 -155 30.5t-106 82t-61 120.5t-20 146t17 158zM1448 1434l-121 -508h-86l92 508h115z" />
    <glyph glyph-name="Ebreve" unicode="&#x114;" 
d="M1210 1434l-20 -105h-748l-120 -559h682l-23 -100h-680l-121 -566h748l-21 -104h-864l305 1434h862zM1073 1786q-8 -42 -28.5 -82t-54 -75t-86 -55t-116.5 -18q-57 1 -99.5 22t-62 54t-28 73.5t1.5 80.5h92q-6 -35 -3 -67t29.5 -55t72.5 -24q76 -3 127 42t61 104h94z" />
    <glyph glyph-name="Ecaron" unicode="&#x11a;" 
d="M1210 1434l-20 -105h-748l-120 -559h682l-23 -100h-680l-121 -566h748l-21 -104h-864l305 1434h862zM705 1559l-107 227h107l73 -154h17l139 154h121l-205 -227h-145z" />
    <glyph glyph-name="ecaron" unicode="&#x11b;" horiz-adv-x="1087" 
d="M635 926q-85 0 -159.5 -32.5t-127.5 -87t-90 -118t-57 -131.5l706 6q10 41 7 83.5t-11.5 82.5t-31.5 76t-54 63t-78 42.5t-104 15.5zM180 475q-8 -56 -9.5 -112t16 -108t47.5 -92.5t84 -64.5t126 -24q259 0 394 258h114q-33 -74 -79.5 -136.5t-109.5 -113t-146 -79
t-177 -28.5q-80 0 -145 22.5t-108 62.5t-71.5 92t-40 112.5t-11 123t13.5 124.5q16 74 46.5 145.5t80 138.5t112 117t147 80.5t179.5 30.5q78 0 142 -20t108.5 -56t74.5 -85.5t43 -110.5t11.5 -129t-18.5 -142zM659 1221l-106 227h106l74 -154h17l139 154h121l-205 -227
h-146z" />
    <glyph glyph-name="Ibreve" unicode="&#x12c;" horiz-adv-x="438" 
d="M348 1434h115l-303 -1434h-115zM727 1786q-8 -42 -28.5 -82t-54 -75t-86 -55t-116.5 -18q-57 1 -99.5 22t-62 54t-28 73.5t1.5 80.5h92q-6 -35 -3.5 -67t29 -55t72.5 -24q76 -3 127.5 42.5t61.5 103.5h94z" />
    <glyph glyph-name="Idotaccent" unicode="&#x130;" horiz-adv-x="436" 
d="M350 1434h115l-303 -1434h-115zM471 1642q-34 0 -53 24t-12 58q4 26 26.5 44t50.5 18q32 0 51.5 -23.5t10.5 -56.5q-4 -26 -26.5 -45t-47.5 -19z" />
    <glyph glyph-name="Lacute" unicode="&#x139;" horiz-adv-x="1009" 
d="M465 1434l-283 -1330h699l-21 -104h-815l303 1434h117zM670 1786l-176 -242h-107l170 242h113z" />
    <glyph glyph-name="lacute" unicode="&#x13a;" horiz-adv-x="382" 
d="M334 1434h115l-304 -1434h-114zM641 1786l-176 -242h-107l170 242h113z" />
    <glyph glyph-name="Lcaron" unicode="&#x13d;" horiz-adv-x="1009" 
d="M465 1434l-283 -1330h699l-21 -104h-815l303 1434h117zM780 1434l-121 -508h-86l93 508h114z" />
    <glyph glyph-name="lcaron" unicode="&#x13e;" horiz-adv-x="395" 
d="M332 1434h114l-303 -1434h-114zM698 1434l-120 -508h-86l92 508h114z" />
    <glyph glyph-name="Lslash" unicode="&#x141;" horiz-adv-x="1089" 
d="M545 1434l-283 -1330h699l-21 -104h-815l303 1434h117zM78 588l663 307l-18 -102l-664 -306z" />
    <glyph glyph-name="lslash" unicode="&#x142;" horiz-adv-x="385" 
d="M330 1434h114l-303 -1434h-114zM442 788l-419 -180l18 97l420 180z" />
    <glyph glyph-name="Ncaron" unicode="&#x147;" horiz-adv-x="1423" 
d="M1122 342q-12 -55 -21 -115.5t-13 -93.5l-3 -33h-24l-535 1334h-178l-305 -1434h117l231 1092q12 56 20.5 116t11.5 92l3 33h25l534 -1333h178l305 1434h-116zM854 1559l-106 227h106l74 -154h16l139 154h121l-205 -227h-145z" />
    <glyph glyph-name="ncaron" unicode="&#x148;" horiz-adv-x="1126" 
d="M1014 569q18 81 14.5 155t-25 132.5t-67.5 100.5t-113 59q-170 41 -320 -55t-233 -289h-24q57 126 82 235l20 92h-117l-211 -999h115l72 336q30 134 74 256q30 79 78 147.5t108.5 118.5t136 70t152.5 0q77 -18 116 -71.5t40 -131t-19 -176.5l-113 -549h113zM721 1221
l-107 227h107l74 -154h16l139 154h121l-205 -227h-145z" />
    <glyph glyph-name="Ohungarumlaut" unicode="&#x150;" horiz-adv-x="1454" 
d="M629 80q110 0 209 39t172.5 102.5t132.5 148.5t96 174t57 181q19 91 20 178t-21 169.5t-66.5 144.5t-125 99.5t-188.5 37.5q-111 0 -210.5 -39t-173 -102.5t-132.5 -148.5t-96 -174.5t-57 -182.5q-19 -91 -20 -177.5t21 -169t67 -144t126 -99t189 -37.5zM922 1458
q113 0 202.5 -31.5t147 -87t95 -127.5t51.5 -157.5t11 -173t-22 -176.5q-22 -105 -64.5 -205.5t-111 -196.5t-154.5 -168t-203.5 -116t-250.5 -44q-113 0 -203 31.5t-148 87t-96 127.5t-52 157t-12 172t21 175q23 106 66 207t112 197.5t155.5 168.5t204.5 116t251 44z
M1305 1786l-177 -242h-106l170 242h113zM1063 1786l-176 -242h-107l170 242h113z" />
    <glyph glyph-name="ohungarumlaut" unicode="&#x151;" horiz-adv-x="1067" 
d="M430 68q93 0 172.5 39.5t134.5 105t91 141t53 156.5q13 62 14.5 120t-12.5 113.5t-43 97t-82.5 66.5t-126.5 25q-93 0 -172.5 -40t-134.5 -105.5t-91 -141t-53 -156.5q-13 -62 -14.5 -119.5t12.5 -113.5t43 -97t82.5 -66t126.5 -25zM633 1024q81 0 145.5 -22.5t105.5 -62
t68.5 -91t37 -112t7.5 -122.5t-16 -125q-15 -74 -44 -145t-77.5 -138.5t-109.5 -118t-144.5 -81.5t-177.5 -31q-81 0 -146 22.5t-106 62t-68.5 90.5t-37.5 112t-8 123t16 125q15 74 44.5 145t78 138.5t109.5 118t144.5 81.5t178.5 31zM1051 1448l-177 -242h-106l170 242h113
zM809 1448l-176 -242h-107l170 242h113z" />
    <glyph glyph-name="racute" unicode="&#x155;" horiz-adv-x="696" 
d="M760 999q-88 0 -167 -34t-140.5 -94.5t-108.5 -135t-82 -164.5h-29q103 285 119 365q8 28 -6.5 45.5t-46.5 17.5h-154l-22 -104h86q12 0 19 -9t5 -20l-186 -866h117l63 311q14 67 38.5 138.5t68.5 153.5t97.5 145t131 105t164.5 42zM791 1448l-177 -242h-106l170 242h113
z" />
    <glyph glyph-name="Rcaron" unicode="&#x158;" horiz-adv-x="1286" 
d="M768 768q84 0 163 27t145.5 92.5t86.5 159.5q16 73 -0.5 129t-58.5 88.5t-95 48.5t-114 16h-453l-118 -561h444zM991 735q72 -2 126.5 -61t35.5 -148l-113 -526h-110q83 383 114 535q12 57 -15.5 94t-84.5 37h-643l-141 -666h-117l307 1434h559q85 0 154 -20.5
t113.5 -56.5t73.5 -85t33 -105t-7 -118q-8 -42 -26 -79.5t-36 -63.5t-46.5 -50.5t-46.5 -37.5t-49 -28.5t-40 -19t-33 -12.5zM756 1559l-107 227h107l73 -154h17l139 154h121l-205 -227h-145z" />
    <glyph glyph-name="rcaron" unicode="&#x159;" horiz-adv-x="696" 
d="M760 999q-88 0 -167 -34t-140.5 -94.5t-108.5 -135t-82 -164.5h-29q103 285 119 365q8 28 -6.5 45.5t-46.5 17.5h-154l-22 -104h86q12 0 19 -9t5 -20l-186 -866h117l63 311q14 67 38.5 138.5t68.5 153.5t97.5 145t131 105t164.5 42zM487 1221l-106 227h106l74 -154h17
l139 154h121l-205 -227h-146z" />
    <glyph glyph-name="Scaron" unicode="&#x160;" horiz-adv-x="1202" 
d="M1081 369q9 43 9.5 81t-7.5 69.5t-21.5 59t-36 50.5t-46 41.5t-56.5 34.5t-64 28.5t-70.5 24t-74 20t-77.5 17.5q-148 31 -192 48q-97 37 -114 115q-10 47 5 115q25 111 138.5 196.5t291.5 84.5q70 0 126.5 -11.5t94 -31.5t64 -48t37 -61t13.5 -69.5t-7 -73.5
q-1 -4 -2 -11t-2 -10h114q3 8 6 31q12 45 7 91.5t-19 89.5t-49 81t-82.5 66t-119.5 44.5t-159 16.5q-107 0 -197.5 -23t-152.5 -61.5t-108.5 -91t-72.5 -107.5t-38 -116q-8 -40 -9 -75t7 -63.5t19 -52.5t31.5 -43.5t40 -35t49.5 -29t54.5 -23.5t60.5 -19.5t62 -15.5t64 -14
q102 -21 162.5 -39.5t120 -52t79.5 -85.5t7 -126q-23 -136 -141.5 -220.5t-323.5 -84.5q-90 0 -157.5 18.5t-105 49.5t-60 73t-22.5 89t9 96h-117q-7 -43 -9 -86.5t10.5 -86t32.5 -80.5t56.5 -71t83.5 -56.5t112.5 -37t143.5 -13.5q147 0 259.5 32.5t180.5 90t107 124
t55 147.5zM733 1559l-106 227h106l74 -154h16l140 154h120l-204 -227h-146z" />
    <glyph glyph-name="scaron" unicode="&#x161;" horiz-adv-x="905" 
d="M776 289q9 65 -5.5 113.5t-46.5 77t-76.5 47.5t-94.5 29.5t-99.5 19.5t-93 20.5t-74.5 28t-43.5 47t-0.5 73.5q18 62 65 104.5t103.5 59.5t119.5 17q50 0 92 -10t77 -32.5t46.5 -59t-0.5 -89.5q-1 -3 -2 -8t-2 -8h111q1 3 3 12t3 12q18 87 -21.5 152t-115 97t-172.5 32
q-170 0 -285 -76.5t-137 -208.5q-12 -73 13 -122t75 -72t112.5 -37.5t125.5 -26.5t113 -30.5t77 -58t16 -101.5q-12 -71 -63 -122t-115 -73t-131 -22q-126 0 -193 53t-40 154h-109q-29 -144 64.5 -225t253.5 -81q186 0 307.5 87.5t142.5 226.5zM590 1221l-107 227h107
l74 -154h16l139 154h121l-205 -227h-145z" />
    <glyph glyph-name="Tcaron" unicode="&#x164;" horiz-adv-x="1075" 
d="M1245 1434l-20 -105h-453l-283 -1329h-116l282 1329h-454l20 105h1024zM686 1559l-106 227h106l74 -154h16l139 154h121l-205 -227h-145z" />
    <glyph glyph-name="tcaron" unicode="&#x165;" horiz-adv-x="579" 
d="M115 307q-27 -130 40.5 -218.5t200.5 -88.5h76l23 104h-78q-94 0 -131.5 52.5t-18.5 142.5l129 596h267l22 104h-268l92 435h-115l-92 -435h-129l-20 -104h129zM748 1786l-121 -508h-86l92 508h115z" />
    <glyph glyph-name="Uring" unicode="&#x16e;" horiz-adv-x="1349" 
d="M1106 578q-19 -90 -61.5 -175t-106 -159t-156.5 -119t-200 -45q-92 0 -159 29t-103 76.5t-52.5 113.5t-15 134.5t17.5 144.5l185 856h-117l-180 -854q-12 -54 -16 -109.5t1.5 -115.5t22 -114t49 -103t78.5 -85t114.5 -57t153.5 -21q123 0 228 40t175.5 102t125.5 145
t84.5 160t46.5 156l184 856h-117zM907 1624q69 0 113.5 42.5t58.5 100.5q9 54 -12 92.5t-86 38.5q-66 0 -110 -42.5t-56 -98.5q-4 -31 -1.5 -60.5t27 -51t66.5 -21.5zM985 1982q75 0 121 -36.5t58.5 -87t0.5 -105.5q-17 -85 -82.5 -147t-175.5 -62t-154.5 69.5t-23.5 158.5
q17 85 82 147.5t174 62.5z" />
    <glyph glyph-name="uring" unicode="&#x16f;" horiz-adv-x="1126" 
d="M109 430q-35 -170 11.5 -291.5t178.5 -154.5q169 -39 319.5 56.5t233.5 287.5h25q-55 -127 -80 -236l-21 -92h115l213 999h-117l-69 -335q-27 -120 -76 -256q-30 -79 -78 -147.5t-108.5 -118t-135.5 -69.5t-151 -1q-78 19 -117.5 72.5t-40.5 130.5t18 176l115 548h-115z
M780 1327q69 0 113.5 42.5t58.5 100.5q9 54 -12 93t-86 39q-66 0 -110 -42.5t-56 -99.5q-4 -31 -1.5 -60.5t27 -51t66.5 -21.5zM858 1686q75 0 121 -36.5t58.5 -87.5t0.5 -106q-17 -85 -82.5 -147t-175.5 -62t-154.5 69.5t-23.5 158.5q17 85 82 148t174 63z" />
    <glyph glyph-name="Uhungarumlaut" unicode="&#x170;" horiz-adv-x="1349" 
d="M1106 578q-19 -90 -61.5 -175t-106 -159t-156.5 -119t-200 -45q-92 0 -159 29t-103 76.5t-52.5 113.5t-15 134.5t17.5 144.5l185 856h-117l-180 -854q-12 -54 -16 -109.5t1.5 -115.5t22 -114t49 -103t78.5 -85t114.5 -57t153.5 -21q123 0 228 40t175.5 102t125.5 145
t84.5 160t46.5 156l184 856h-117zM1237 1786l-176 -242h-107l170 242h113zM995 1786l-176 -242h-106l170 242h112z" />
    <glyph glyph-name="uhungarumlaut" unicode="&#x171;" horiz-adv-x="1128" 
d="M109 430q-35 -170 11.5 -291.5t178.5 -154.5q169 -39 319.5 56.5t233.5 287.5h25q-55 -127 -80 -236l-21 -92h115l213 999h-117l-69 -335q-27 -120 -76 -256q-30 -79 -78 -147.5t-108.5 -118t-135.5 -69.5t-151 -1q-78 19 -117.5 72.5t-40.5 130.5t18 176l115 548h-115z
M1073 1448l-176 -242h-106l170 242h112zM831 1448l-176 -242h-106l170 242h112z" />
    <glyph glyph-name="Ydieresis" unicode="&#x178;" horiz-adv-x="1073" 
d="M662 874q-17 -22 -33 -46.5t-23 -37.5l-8 -14h-27q-6 52 -24 101l-215 557h-115l297 -768l-141 -666h116l140 664l620 770h-137zM629 1642q-34 0 -53.5 24t-12.5 58q4 26 27 44t51 18q32 0 51 -23.5t10 -56.5q-4 -26 -26 -45t-47 -19zM938 1642q-33 0 -53 24.5t-13 57.5
q4 26 27.5 44t50.5 18q32 0 51.5 -23.5t12.5 -56.5q-4 -26 -27.5 -45t-48.5 -19z" />
    <glyph glyph-name="Zcaron" unicode="&#x17d;" horiz-adv-x="1200" 
d="M123 119q55 26 135 112l1034 1090l25 113h-993l-21 -105h871l-7 -16q-49 -23 -129 -105l-1038 -1095l-25 -113h998l20 104h-872zM752 1559l-107 227h107l73 -154h17l139 154h121l-205 -227h-145z" />
    <glyph glyph-name="zcaron" unicode="&#x17e;" horiz-adv-x="919" 
d="M788 881q-49 -14 -129 -97q-21 -19 -189 -189t-326 -331l-158 -160l-23 -104h746l22 98h-618l6 21q22 6 56.5 33t66.5 61q14 12 184 182.5t333 334.5l163 165l22 104h-731l-20 -98h602zM559 1221l-106 227h106l74 -154h16l139 154h121l-204 -227h-146z" />
    <glyph glyph-name="Oslashacute" unicode="&#x1fe;" horiz-adv-x="1449" 
d="M631 80q110 0 209 39t172.5 102.5t132.5 148.5t96 174t57 181q19 91 20 178t-20.5 169.5t-66.5 144.5t-125 99.5t-188 37.5q-111 0 -210.5 -39t-173 -102.5t-133 -148.5t-96.5 -174.5t-57 -182.5q-19 -91 -20 -177.5t21 -169t67 -144t126 -99t189 -37.5zM924 1458
q113 0 202.5 -31.5t147 -87t95 -127.5t51.5 -157.5t11 -173t-22 -176.5q-22 -105 -64.5 -205.5t-111 -196.5t-154.5 -168t-203.5 -116t-250.5 -44q-113 0 -203 31.5t-148 87t-96 127.5t-52 157t-12 172t21 175q23 106 66 207t112 197.5t155.5 168.5t204.5 116t251 44z
M1495 1438l-1393 -1442h-133l1395 1442h131zM1178 1786l-177 -242h-106l170 242h113z" />
    <glyph glyph-name="oslashacute" unicode="&#x1ff;" horiz-adv-x="1054" 
d="M424 68q75 0 141.5 26.5t116 70t89.5 101.5t65 119t38 125q13 62 14.5 120t-12 113.5t-42.5 97t-82.5 66.5t-126.5 25q-93 0 -172.5 -40t-134.5 -105.5t-91 -141t-53 -156.5q-13 -62 -14.5 -119.5t12.5 -113.5t43 -97t82.5 -66t126.5 -25zM627 1024q81 0 145.5 -22.5
t105.5 -62t68.5 -91t37 -112t7.5 -122.5t-16 -125q-15 -74 -44 -145t-77.5 -138.5t-109.5 -118t-144.5 -81.5t-177.5 -31q-81 0 -146 22.5t-106 62t-68.5 90.5t-37.5 112t-8 123t16 125q15 74 44.5 145t78 138.5t109.5 118t144.5 81.5t178.5 31zM1040 1004l-931 -1008h-105
l930 1008h106zM924 1448l-176 -242h-107l170 242h113z" />
    <glyph glyph-name="circumflex" unicode="&#x2c6;" horiz-adv-x="620" 
d="M653 1786l109 -227h-107l-73 155h-17l-139 -155h-121l205 227h143z" />
    <glyph glyph-name="caron" unicode="&#x2c7;" horiz-adv-x="620" 
d="M461 1559l-107 227h107l74 -154h16l139 154h121l-205 -227h-145z" />
    <glyph glyph-name="breve" unicode="&#x2d8;" horiz-adv-x="669" 
d="M844 1786q-8 -42 -28.5 -82t-54 -75t-86 -55t-116.5 -18q-57 1 -99.5 22t-62 54t-28 73.5t1.5 80.5h92q-6 -35 -3.5 -67t29 -55t72.5 -24q76 -3 127.5 42.5t61.5 103.5h94z" />
    <glyph glyph-name="dotaccent" unicode="&#x2d9;" horiz-adv-x="339" 
d="M422 1642q-34 0 -53.5 24t-12.5 58q4 26 27 44t51 18q32 0 51.5 -23.5t10.5 -56.5q-4 -26 -26.5 -45t-47.5 -19z" />
    <glyph glyph-name="ring" unicode="&#x2da;" horiz-adv-x="604" 
d="M528 1624q69 0 113.5 42.5t58.5 100.5q9 54 -12 92.5t-86 38.5q-66 0 -110 -42.5t-56 -98.5q-4 -31 -1.5 -60.5t27 -51t66.5 -21.5zM606 1982q75 0 121 -36.5t58.5 -87t0.5 -105.5q-17 -85 -82.5 -147t-175.5 -62t-154.5 69.5t-23.5 158.5q17 85 82 147.5t174 62.5z" />
    <glyph glyph-name="hungarumlaut" unicode="&#x2dd;" horiz-adv-x="645" 
d="M829 1786l-176 -242h-106l170 242h112zM588 1786l-176 -242h-107l170 242h113z" />
    <glyph glyph-name="endash" unicode="&#x2013;" horiz-adv-x="1247" 
d="M156 588h968l-22 -99h-969z" />
    <glyph glyph-name="emdash" unicode="&#x2014;" horiz-adv-x="1910" 
d="M156 588h1632l-23 -99h-1632z" />
    <glyph glyph-name="quoteleft" unicode="&#x2018;" horiz-adv-x="444" 
d="M346 1372q-6 -27 10 -47t43 -20q37 0 69.5 25.5t39.5 60.5q6 28 -11 47.5t-46 19.5q-34 0 -66 -25.5t-39 -60.5zM422 1454q-14 30 13.5 72.5t72.5 52.5l20 53q-105 -16 -168 -110q-51 -76 -42 -146q9 -63 65 -70q8 -1 16 -1z" />
    <glyph glyph-name="quoteright" unicode="&#x2019;" horiz-adv-x="446" 
d="M522 1640q6 27 -10 47.5t-43 20.5q-37 0 -69.5 -25.5t-39.5 -60.5q-6 -28 11.5 -48t46.5 -20q34 0 65.5 25.5t38.5 60.5zM446 1559q14 -30 -13.5 -72.5t-72.5 -52.5l-20 -54q104 15 168 110q51 76 42 146q-8 64 -65 71q-8 1 -16 1z" />
    <glyph glyph-name="quotedblleft" unicode="&#x201c;" horiz-adv-x="665" 
d="M567 1372q-6 -27 10.5 -47t43.5 -20q37 0 69 25.5t39 60.5q6 28 -11 47.5t-46 19.5q-34 0 -66 -25.5t-39 -60.5zM643 1454q-14 30 13.5 72.5t72.5 52.5l21 53q-105 -16 -168 -110q-51 -76 -42 -146q9 -63 65 -70q8 -1 16 -1zM346 1372q-6 -27 10 -47t43 -20
q37 0 69.5 25.5t39.5 60.5q6 28 -11 47.5t-46 19.5q-34 0 -66 -25.5t-39 -60.5zM422 1454q-14 30 13.5 72.5t72.5 52.5l20 53q-105 -16 -168 -110q-51 -76 -42 -146q9 -63 65 -70q8 -1 16 -1z" />
    <glyph glyph-name="quotedblright" unicode="&#x201d;" horiz-adv-x="667" 
d="M743 1640q6 27 -10 47.5t-43 20.5q-37 0 -69 -25.5t-39 -60.5q-6 -28 11 -48t46 -20q34 0 65.5 25.5t38.5 60.5zM668 1559q14 -30 -13.5 -72.5t-72.5 -52.5l-21 -54q104 15 168 110q51 76 42 146q-8 64 -65 71q-8 1 -16 1zM522 1640q6 27 -10 47.5t-43 20.5
q-37 0 -69.5 -25.5t-39.5 -60.5q-6 -28 11.5 -48t46.5 -20q34 0 65.5 25.5t38.5 60.5zM446 1559q14 -30 -13.5 -72.5t-72.5 -52.5l-20 -54q104 15 168 110q51 76 42 146q-8 64 -65 71q-8 1 -16 1z" />
    <glyph glyph-name="quotedblbase" unicode="&#x201e;" horiz-adv-x="669" 
d="M410 61q6 27 -10.5 47.5t-43.5 20.5q-37 0 -69 -25.5t-39 -60.5q-6 -28 11 -48t46 -20q34 0 66 25.5t39 60.5zM334 -20q14 -30 -13.5 -72.5t-72.5 -52.5l-21 -54q104 15 168 110q51 76 42 146q-8 64 -65 71q-8 1 -16 1zM186 61q6 27 -10 47.5t-43 20.5q-37 0 -69 -25.5
t-39 -60.5q-6 -28 11 -48t46 -20q34 0 65.5 25.5t38.5 60.5zM111 -20q14 -30 -13.5 -72.5t-72.5 -52.5l-21 -54q104 15 168 110q51 76 42 146q-8 64 -65 71q-8 1 -16 1z" />
    <glyph glyph-name="bullet" unicode="&#x2022;" horiz-adv-x="514" 
d="M238 360q-67 0 -106 46.5t-26 111.5q12 56 63.5 96.5t109.5 40.5q64 0 100.5 -46t23.5 -111q-12 -56 -62 -97t-103 -41z" />
    <glyph glyph-name="guilsinglleft" unicode="&#x2039;" horiz-adv-x="739" 
d="M532 0q-266 414 -270 416q-23 35 -43 53t-31 18v23q12 0 49 19.5t74 52.5l451 417h-141l-541 -499l328 -500h124z" />
    <glyph glyph-name="guilsinglright" unicode="&#x203a;" horiz-adv-x="737" 
d="M-27 0h140l540 500l-327 499h-127q268 -413 272 -417q23 -34 43.5 -53t30.5 -19v-23q-13 0 -49.5 -18.5t-71.5 -52.5z" />
    <glyph glyph-name="Euro" unicode="&#x20ac;" horiz-adv-x="1554" 
d="M1298 412q-92 -143 -233 -237.5t-315 -94.5q-115 0 -200 36.5t-133 97t-71 143t-21 172t23 186.5q17 84 54 170.5t98 171t136.5 150.5t177.5 106.5t214 40.5q83 0 150.5 -20t112 -52t77 -76t49 -89t23.5 -95h114q-8 60 -26.5 116.5t-57.5 116t-93.5 103.5t-141 72
t-193.5 28q-136 0 -256.5 -44t-208.5 -116t-159 -168.5t-114.5 -197.5t-67.5 -207q-20 -91 -23 -179t11.5 -173t53.5 -156t98.5 -126t152 -85.5t208.5 -30.5q109 0 208 29t170.5 72.5t135 104.5t103 115.5t73.5 115.5h-129zM137 889l-16 -82h919l17 82h-920zM82 627l-16 -82
h919l16 82h-919z" />
    <glyph glyph-name="uni2117" unicode="&#x2117;" horiz-adv-x="950" 
d="M643 1108q32 0 58 15.5t32 47.5q7 29 -13 45.5t-50 16.5h-107l-26 -125h106zM793 1161q-11 -54 -56 -79t-98 -25h-113l-45 -209h-61l94 438h164q49 0 88 -31t27 -94zM518 735q88 0 162.5 30.5t123.5 80.5t80 107.5t44 119.5q8 46 9 92.5t-16.5 89.5t-47 76t-82.5 52.5
t-123 19.5q-87 0 -161 -30.5t-123 -80.5t-80.5 -107.5t-45.5 -119.5q-7 -46 -8 -92.5t16.5 -89.5t46.5 -76t82 -52.5t123 -19.5zM672 1458q70 0 126 -16.5t92.5 -45t61 -66.5t34 -82.5t9.5 -90t-10 -92.5q-15 -71 -50 -136t-91 -122.5t-141.5 -92t-188.5 -34.5
q-70 0 -126 16.5t-92.5 45t-61 66.5t-34 82.5t-9.5 90t10 92.5q15 71 50 136t91 122.5t141.5 92t188.5 34.5z" />
    <glyph glyph-name="trademark" unicode="&#x2122;" horiz-adv-x="1179" 
d="M655 1434l-14 -66h-166l-108 -506h-74l108 506h-168l15 66h407zM1253 1434l-123 -572h-71l88 416l-266 -416h-101l-88 416l-90 -416h-72l125 572h74l105 -506h12l325 506h82z" />
    <glyph glyph-name="minus" unicode="&#x2212;" horiz-adv-x="1130" 
d="M193 735h839l-20 -96h-840z" />
    <glyph glyph-name="approxequal" unicode="&#x2248;" horiz-adv-x="1105" 
d="M965 1020q-11 -50 -21.5 -85t-27 -68.5t-40.5 -50.5t-55 -17q-33 0 -84 34t-97 75.5t-103.5 75.5t-102.5 34q-46 0 -83 -17.5t-62 -45t-45.5 -72t-33.5 -88.5t-26 -105h103q11 51 21.5 86t27 68.5t40 50t54.5 16.5q27 0 64.5 -22.5t77 -55t80 -64.5t85 -54.5t80.5 -22.5
q56 0 98.5 24.5t71.5 72.5t47.5 102t34.5 129h-104zM872 584q-11 -51 -21.5 -85.5t-27 -68.5t-40 -51t-54.5 -17q-32 0 -83 34.5t-97 75.5t-104 75.5t-103 34.5q-47 0 -84 -17t-62.5 -44.5t-46 -72t-33.5 -88t-26 -104.5h105q11 51 21.5 85t27 68t40 51t54.5 17q32 0 83 -35
t97 -76.5t104 -76.5t103 -35q56 0 98.5 25t71.5 73t47.5 102.5t34.5 129.5h-105z" />
    <glyph glyph-name="notequal" unicode="&#x2260;" horiz-adv-x="1122" 
d="M156 543h825l-20 -99h-826zM236 926h825l-19 -99h-825zM930 1100h110l-782 -832h-111z" />
    <glyph glyph-name="lessequal" unicode="&#x2264;" 
d="M883 98h-826l-20 -98h825zM963 463l-23 -103l-758 324l31 147l895 326l-23 -115q-655 -239 -669 -243q-30 -11 -61.5 -19.5t-47.5 -11.5l-16 -2v-18q49 -16 106 -41z" />
    <glyph glyph-name="greaterequal" unicode="&#x2265;" horiz-adv-x="1116" 
d="M49 98h823l-22 -98h-823zM127 473q658 240 668 244q31 11 63 19.5t48 11.5l16 2l2 18q-52 16 -109 41l-565 244l24 102l756 -326l-33 -147l-893 -324z" />
    <glyph glyph-name="O.ss01" horiz-adv-x="1642" 
d="M715 -25q-122 0 -228.5 38.5t-183 106.5t-128 163t-63 207.5t12.5 238.5q42 197 176 365t323.5 266t389.5 98q122 0 228 -38t183 -106.5t128.5 -162t63.5 -205.5t-11 -237q-32 -149 -120 -285.5t-207 -234.5t-267 -156t-297 -58zM715 80q165 0 331 86t288.5 237
t160.5 326q20 105 11 198t-50.5 171.5t-104.5 135t-150.5 88.5t-188.5 32q-125 0 -253 -51t-233.5 -137.5t-183.5 -206.5t-106 -250q-37 -172 13 -317t173.5 -228.5t292.5 -83.5z" />
    <glyph glyph-name="Oacute.ss01" horiz-adv-x="1642" 
d="M1274 1786l-176 -242h-107l170 242h113zM715 -25q-122 0 -228.5 38.5t-183 106.5t-128 163t-63 207.5t12.5 238.5q42 197 176 365t323.5 266t389.5 98q122 0 228 -38t183 -106.5t128.5 -162t63.5 -205.5t-11 -237q-32 -149 -120 -285.5t-207 -234.5t-267 -156t-297 -58z
M715 80q165 0 331 86t288.5 237t160.5 326q20 105 11 198t-50.5 171.5t-104.5 135t-150.5 88.5t-188.5 32q-125 0 -253 -51t-233.5 -137.5t-183.5 -206.5t-106 -250q-37 -172 13 -317t173.5 -228.5t292.5 -83.5z" />
    <glyph glyph-name="Ocircumflex.ss01" horiz-adv-x="1642" 
d="M1153 1786l109 -227h-107l-74 155h-16l-139 -155h-121l205 227h143zM715 -25q-122 0 -228.5 38.5t-183 106.5t-128 163t-63 207.5t12.5 238.5q42 197 176 365t323.5 266t389.5 98q122 0 228 -38t183 -106.5t128.5 -162t63.5 -205.5t-11 -237q-32 -149 -120 -285.5
t-207 -234.5t-267 -156t-297 -58zM715 80q165 0 331 86t288.5 237t160.5 326q20 105 11 198t-50.5 171.5t-104.5 135t-150.5 88.5t-188.5 32q-125 0 -253 -51t-233.5 -137.5t-183.5 -206.5t-106 -250q-37 -172 13 -317t173.5 -228.5t292.5 -83.5z" />
    <glyph glyph-name="Odieresis.ss01" horiz-adv-x="1642" 
d="M909 1642q-34 0 -53 24t-12 58q4 26 27 44t51 18q32 0 51 -23.5t10 -56.5q-4 -26 -26.5 -45t-47.5 -19zM1219 1642q-33 0 -53 24.5t-13 57.5q4 26 27.5 44t50.5 18q32 0 51 -23.5t12 -56.5q-4 -26 -27 -45t-48 -19zM715 -25q-122 0 -228.5 38.5t-183 106.5t-128 163
t-63 207.5t12.5 238.5q42 197 176 365t323.5 266t389.5 98q122 0 228 -38t183 -106.5t128.5 -162t63.5 -205.5t-11 -237q-32 -149 -120 -285.5t-207 -234.5t-267 -156t-297 -58zM715 80q165 0 331 86t288.5 237t160.5 326q20 105 11 198t-50.5 171.5t-104.5 135t-150.5 88.5
t-188.5 32q-125 0 -253 -51t-233.5 -137.5t-183.5 -206.5t-106 -250q-37 -172 13 -317t173.5 -228.5t292.5 -83.5z" />
    <glyph glyph-name="Ohungarumlaut.ss01" horiz-adv-x="1642" 
d="M1382 1786l-176 -242h-106l170 242h112zM1141 1786l-176 -242h-107l170 242h113zM715 -25q-122 0 -228.5 38.5t-183 106.5t-128 163t-63 207.5t12.5 238.5q42 197 176 365t323.5 266t389.5 98q122 0 228 -38t183 -106.5t128.5 -162t63.5 -205.5t-11 -237
q-32 -149 -120 -285.5t-207 -234.5t-267 -156t-297 -58zM715 80q165 0 331 86t288.5 237t160.5 326q20 105 11 198t-50.5 171.5t-104.5 135t-150.5 88.5t-188.5 32q-125 0 -253 -51t-233.5 -137.5t-183.5 -206.5t-106 -250q-37 -172 13 -317t173.5 -228.5t292.5 -83.5z" />
    <glyph glyph-name="Oslash.ss01" horiz-adv-x="1644" 
d="M1653 1438l-1508 -1442h-135l1508 1442h135zM721 -25q-122 0 -228.5 38.5t-183 106.5t-128 163t-63 207.5t12.5 238.5q42 197 176 365t323.5 266t389.5 98q122 0 228 -38t183 -106.5t128.5 -162t63.5 -205.5t-11 -237q-32 -149 -120 -285.5t-207 -234.5t-267 -156
t-297 -58zM721 80q165 0 331 86t288.5 237t160.5 326q20 105 11 198t-50.5 171.5t-104.5 135t-150.5 88.5t-188.5 32q-125 0 -253 -51t-233.5 -137.5t-183.5 -206.5t-106 -250q-37 -172 13 -317t173.5 -228.5t292.5 -83.5z" />
    <glyph glyph-name="Oslashacute.ss01" horiz-adv-x="1644" 
d="M1274 1786l-176 -242h-107l170 242h113zM1653 1438l-1508 -1442h-135l1508 1442h135zM721 -25q-122 0 -228.5 38.5t-183 106.5t-128 163t-63 207.5t12.5 238.5q42 197 176 365t323.5 266t389.5 98q122 0 228 -38t183 -106.5t128.5 -162t63.5 -205.5t-11 -237
q-32 -149 -120 -285.5t-207 -234.5t-267 -156t-297 -58zM721 80q165 0 331 86t288.5 237t160.5 326q20 105 11 198t-50.5 171.5t-104.5 135t-150.5 88.5t-188.5 32q-125 0 -253 -51t-233.5 -137.5t-183.5 -206.5t-106 -250q-37 -172 13 -317t173.5 -228.5t292.5 -83.5z" />
    <glyph glyph-name="A_A.dlig" horiz-adv-x="2512" 
d="M903 1434l213 -1434h-104l-58 387h-704l-221 -387h-117l823 1434h168zM307 485h633l-125 844h-24zM2171 1434l213 -1434h-105l-57 387h-704l-222 -387h-116l823 1434h168zM1575 485h633l-125 844h-25zM854 485h782v-98h-782v98z" />
    <glyph glyph-name="A_E.dlig" horiz-adv-x="1908" 
d="M1253 1434l-307 -1434h-115l84 387h-571l-307 -387h-125l1137 1434h204zM420 485h516l178 844h-24zM1999 1434l-21 -105h-747l-121 -559h682l-23 -100h-679l-121 -566h747l-20 -104h-865l306 1434h862z" />
    <glyph glyph-name="A_V.dlig" horiz-adv-x="1851" 
d="M1901 1438l127 -4l-830 -1434h-178l-221 1434h114l191 -1241q4 -23 6 -45.5t2 -33.5v-12h27q10 40 37 91zM905 1434l213 -1434h-98l-59 387h-711l-221 -387h-117l823 1434h170zM307 485h639l-129 844h-26z" />
    <glyph glyph-name="F_F.dlig" horiz-adv-x="1941" 
d="M1165 1329h-723l-120 -559h610l-23 -100h-608l-141 -670h-117l305 1434h838zM2062 1329h-725l-118 -559h610l-23 -100h-608l-143 -670h-115l305 1434h838zM1137 1434h225l-21 -105h-225z" />
    <glyph glyph-name="F_I.dlig" horiz-adv-x="1251" 
d="M1165 1329h-723l-120 -559h610l-23 -100h-608l-141 -670h-117l305 1434h838zM1180 1434h114l-303 -1434h-114z" />
    <glyph glyph-name="F_L.dlig" horiz-adv-x="1910" 
d="M1165 1329h-723l-120 -559h610l-23 -100h-608l-141 -670h-115l303 1434h838zM1368 1434l-283 -1330h697l-21 -104h-813l303 1434h117zM1102 1434h188l-20 -105h-189z" />
    <glyph glyph-name="H_E.dlig" horiz-adv-x="2066" 
d="M1409 1434l-303 -1434h-113l142 670h-834l-141 -670h-115l303 1434h115l-139 -660h833l139 660h113zM2159 1434l-21 -105h-749l-119 -559h682l-23 -100h-682l-121 -566h750l-21 -104h-862l305 1434h861z" />
    <glyph glyph-name="N_T.dlig" horiz-adv-x="2273" 
d="M1354 1434h114l-303 -1434h-172l-544 1329h-25q-8 -117 -35 -244l-229 -1085h-115l303 1434h176l543 -1330h25q5 121 32 244zM2443 1434l-20 -105h-455l-282 -1329h-113l282 1329h-456l20 105h1024z" />
    <glyph glyph-name="T_E.dlig" horiz-adv-x="1153" 
d="M1245 1434l-20 -105h-453l-283 -1329h-118l282 1329h-452l20 105h1024zM1245 1434l-18 -88h-455l-123 -580h387l-22 -102h-387l-119 -560h455l-21 -104h-571l305 1434h569z" />
    <glyph glyph-name="T_T.dlig" horiz-adv-x="2099" 
d="M1245 1434l-20 -105h-453l-283 -1329h-116l282 1329h-454l20 105h1024zM2269 1434l-20 -105h-455l-283 -1329h-116l282 1329h-452l20 105h1024z" />
    <glyph glyph-name="U_B.dlig" horiz-adv-x="2195" 
d="M1290 1434h115l-184 -856q-17 -79 -46.5 -156t-84.5 -160t-125.5 -145t-175.5 -102t-228 -40q-85 0 -153.5 21t-114.5 57t-78.5 85t-49 103t-22 114t-1.5 115.5t16 109.5l180 854h117l-185 -856q-16 -76 -17.5 -144.5t15 -134.5t52.5 -113.5t103 -76.5t159 -29
q107 0 200 45t156.5 119t106 159t61.5 175zM1511 104q75 0 146 17.5t136.5 53.5t113 98t65.5 143q17 79 -4 138.5t-71 93.5t-113 50.5t-137 16.5h-398l-129 -611h391zM1663 819q84 0 160.5 25t140 86.5t82.5 150.5q12 54 1 95.5t-35 70.5t-62.5 47t-81.5 26.5t-92 8.5h-394
l-110 -510h391zM2081 383q-22 -101 -85.5 -178.5t-149.5 -120t-175.5 -63.5t-179.5 -21h-508l307 1434h498q80 0 152 -20t129 -60t82.5 -109t7.5 -158q-28 -126 -124 -206.5t-208 -96.5l-10 -24q137 -25 216.5 -126t47.5 -251z" />
    <glyph glyph-name="U_D.dlig" horiz-adv-x="2334" 
d="M1290 1434h115l-184 -859q-16 -78 -48.5 -157t-88 -160t-126.5 -143t-171.5 -101t-215.5 -39q-86 0 -155.5 21.5t-116.5 57.5t-80.5 86t-50.5 104.5t-23.5 115t-3 116t14.5 108.5l182 850h115l-183 -859q-15 -72 -16.5 -140.5t16 -133.5t53 -113.5t99.5 -78t151 -29.5
q89 0 169 30.5t139 80.5t106.5 116t76.5 135.5t44 141.5zM1509 104q109 0 207.5 35.5t172.5 95.5t133.5 140t97.5 167t57 179q16 76 18 148.5t-10 141t-44 126t-80 101t-121.5 67.5t-165.5 24h-392l-260 -1225h387zM2290 709q-71 -332 -289.5 -520.5t-507.5 -188.5h-508
l305 1434h504q137 0 245 -48t176.5 -140.5t89.5 -227.5t-15 -309z" />
    <glyph glyph-name="U_L.dlig" horiz-adv-x="1947" 
d="M1290 1434h115l-182 -859q-17 -79 -49.5 -157.5t-88.5 -159.5t-127 -143t-171.5 -101t-215.5 -39q-86 0 -155.5 21.5t-116.5 57.5t-80.5 86t-50.5 104.5t-23.5 115t-3 116t14.5 108.5l182 850h115l-183 -859q-15 -72 -16.5 -140.5t16 -133.5t53 -113.5t99.5 -78
t151 -29.5q89 0 169 30.5t139 80.5t106.5 116t76.5 135.5t44 141.5zM1405 1434l-283 -1330h699l-23 -104h-813l305 1434h115z" />
    <glyph glyph-name="U_P.dlig" horiz-adv-x="2150" 
d="M1290 1434h117l-184 -859q-16 -78 -48.5 -157t-88.5 -160t-127 -143t-172 -101t-216 -39q-86 0 -155.5 21.5t-116.5 57.5t-80.5 86t-50.5 104.5t-23.5 115t-3 116t14.5 108.5l182 850h115l-183 -859q-15 -72 -16.5 -140.5t16 -133.5t53 -113.5t99.5 -78t151 -29.5
q89 0 169 30.5t139 80.5t106.5 116t76.5 135.5t44 141.5zM1708 770q84 0 162.5 28.5t144 95.5t86.5 161q15 70 -2 124.5t-57.5 86t-93.5 47.5t-115 16h-449l-118 -559h442zM1849 1434q56 0 111.5 -13t110.5 -41.5t91 -74t53 -111t-3 -152.5q-17 -82 -59 -148t-95.5 -107
t-117.5 -69t-122.5 -39t-113.5 -11h-461l-141 -668h-117l305 1434h559z" />
    <glyph glyph-name="U_R.dlig" horiz-adv-x="2226" 
d="M1290 1434h115l-182 -859q-16 -78 -48.5 -157t-88.5 -160t-127 -143t-172 -101t-216 -39q-86 0 -155.5 21.5t-116.5 57.5t-80.5 86t-50.5 104.5t-23.5 115t-3 116t14.5 108.5l182 850h115l-183 -859q-15 -72 -16.5 -140.5t16 -133.5t53 -113.5t99.5 -78t151 -29.5
q89 0 169 30.5t139 80.5t106.5 116t76.5 135.5t44 141.5zM1708 768q61 0 122 16t117.5 48t98.5 88t57 127q16 73 -0.5 129t-58.5 88.5t-95 48.5t-114 16h-453l-118 -561h444zM1931 735q72 -2 126.5 -61t35.5 -148l-115 -526h-108q82 383 115 535q12 57 -17 94t-86 37h-641
l-141 -666h-117l307 1434h559q85 0 154 -20.5t113.5 -56.5t73 -85t33 -105t-6.5 -118q-12 -58 -41 -107t-57 -77t-70 -53.5t-61 -33.5t-50 -20z" />
    <glyph glyph-name="V_A" horiz-adv-x="1845" 
d="M1323 1434h125l-819 -1434h-187l-225 1434h113l198 -1241l11 -93h24q20 50 51 105zM1503 1434l213 -1434h-106l-58 387h-702l-221 -387h-119l813 1434h180zM905 485h633l-123 844h-24z" />
    <glyph glyph-name="a.ss01" horiz-adv-x="1116" 
d="M627 920q-90 0 -167 -35.5t-130.5 -97.5t-90 -137t-55.5 -161q-13 -65 -14.5 -123t12.5 -111t43 -91.5t80.5 -61t120.5 -22.5q89 0 167 36t133.5 96.5t94 136.5t56.5 161q19 78 12.5 152t-32 131.5t-85 92t-145.5 34.5zM406 -25q-74 0 -133.5 21t-99.5 58.5t-67 87.5
t-37.5 110t-8.5 125t16 133q21 100 65 189.5t108.5 163.5t157 117.5t199.5 43.5q149 0 228.5 -74.5t95.5 -193.5h28q-3 106 17 219l6 24h115l-213 -999h-115l6 31q11 51 28.5 103.5t29.5 79.5l12 26h-23q-154 -265 -415 -265z" />
    <glyph glyph-name="aacute.ss01" horiz-adv-x="1116" 
d="M963 1448l-177 -242h-106l170 242h113zM627 920q-90 0 -167 -35.5t-130.5 -97.5t-90 -137t-55.5 -161q-13 -65 -14.5 -123t12.5 -111t43 -91.5t80.5 -61t120.5 -22.5q89 0 167 36t133.5 96.5t94 136.5t56.5 161q19 78 12.5 152t-32 131.5t-85 92t-145.5 34.5zM406 -25
q-74 0 -133.5 21t-99.5 58.5t-67 87.5t-37.5 110t-8.5 125t16 133q21 100 65 189.5t108.5 163.5t157 117.5t199.5 43.5q149 0 228.5 -74.5t95.5 -193.5h28q-3 106 17 219l6 24h115l-213 -999h-115l6 31q11 51 28.5 103.5t29.5 79.5l12 26h-23q-154 -265 -415 -265z" />
    <glyph glyph-name="acircumflex.ss01" horiz-adv-x="1116" 
d="M885 1448l108 -227h-106l-74 155h-16l-140 -155h-120l204 227h144zM627 920q-90 0 -167 -35.5t-130.5 -97.5t-90 -137t-55.5 -161q-13 -65 -14.5 -123t12.5 -111t43 -91.5t80.5 -61t120.5 -22.5q89 0 167 36t133.5 96.5t94 136.5t56.5 161q19 78 12.5 152t-32 131.5
t-85 92t-145.5 34.5zM406 -25q-74 0 -133.5 21t-99.5 58.5t-67 87.5t-37.5 110t-8.5 125t16 133q21 100 65 189.5t108.5 163.5t157 117.5t199.5 43.5q149 0 228.5 -74.5t95.5 -193.5h28q-3 106 17 219l6 24h115l-213 -999h-115l6 31q11 51 28.5 103.5t29.5 79.5l12 26h-23
q-154 -265 -415 -265z" />
    <glyph glyph-name="adieresis.ss01" horiz-adv-x="1116" 
d="M629 1305q-34 0 -53.5 24t-12.5 57q4 26 27 44t51 18q32 0 51 -23.5t10 -56.5q-4 -26 -26 -44.5t-47 -18.5zM938 1305q-33 0 -53 24t-13 57q4 26 27.5 44t50.5 18q32 0 51.5 -23.5t12.5 -56.5q-4 -26 -27.5 -44.5t-48.5 -18.5zM627 920q-90 0 -167 -35.5t-130.5 -97.5
t-90 -137t-55.5 -161q-13 -65 -14.5 -123t12.5 -111t43 -91.5t80.5 -61t120.5 -22.5q89 0 167 36t133.5 96.5t94 136.5t56.5 161q19 78 12.5 152t-32 131.5t-85 92t-145.5 34.5zM406 -25q-74 0 -133.5 21t-99.5 58.5t-67 87.5t-37.5 110t-8.5 125t16 133q21 100 65 189.5
t108.5 163.5t157 117.5t199.5 43.5q149 0 228.5 -74.5t95.5 -193.5h28q-3 106 17 219l6 24h115l-213 -999h-115l6 31q11 51 28.5 103.5t29.5 79.5l12 26h-23q-154 -265 -415 -265z" />
    <glyph glyph-name="aring.ss01" horiz-adv-x="1116" 
d="M756 1311q69 0 113.5 42.5t58.5 100.5q9 54 -12.5 92.5t-86.5 38.5q-66 0 -109.5 -42t-55.5 -99q-4 -31 -1.5 -60.5t27 -51t66.5 -21.5zM834 1669q75 0 121 -36.5t58.5 -87t0.5 -105.5q-17 -85 -82.5 -147t-175.5 -62t-154.5 69t-23.5 158q17 85 82 148t174 63zM627 920
q-90 0 -167 -35.5t-130.5 -97.5t-90 -137t-55.5 -161q-13 -65 -14.5 -123t12.5 -111t43 -91.5t80.5 -61t120.5 -22.5q89 0 167 36t133.5 96.5t94 136.5t56.5 161q19 78 12.5 152t-32 131.5t-85 92t-145.5 34.5zM406 -25q-74 0 -133.5 21t-99.5 58.5t-67 87.5t-37.5 110
t-8.5 125t16 133q21 100 65 189.5t108.5 163.5t157 117.5t199.5 43.5q149 0 228.5 -74.5t95.5 -193.5h28q-3 106 17 219l6 24h115l-213 -999h-115l6 31q11 51 28.5 103.5t29.5 79.5l12 26h-23q-154 -265 -415 -265z" />
    <glyph glyph-name="f.ss01" horiz-adv-x="575" 
d="M113 895h127l-191 -895h117l190 895h265l20 104h-508zM487 999q-76 0 -119 42t-26 130q17 78 89.5 118t154.5 40h127l20 105h-164q-55 0 -107.5 -14t-101 -42t-84.5 -77t-49 -113q-19 -93 38 -165l3 -3l-4 -25z" />
    <glyph glyph-name="g.ss01" horiz-adv-x="1105" 
d="M442 162q-202 0 -302.5 121t-59.5 317q41 192 184 308t338 116q100 0 177.5 -40t116.5 -118t24 -178q2 -18 12.5 -28.5t20.5 -14t15.5 -18t0.5 -41.5q-41 -191 -185.5 -307.5t-341.5 -116.5zM449 254q153 0 270 95t149 247q32 147 -43 240.5t-225 93.5q-154 0 -273 -96
t-149 -248q-32 -146 44 -239t227 -93zM944 688q3 192 17 260q5 21 24.5 36t44.5 15h139l-22 -104h-86q-11 0 -21.5 -8.5t-11.5 -18.5l-59 -276h-72l23 96h24zM971 600q-72 -336 -121 -567q-42 -191 -179.5 -296.5t-324.5 -105.5q-85 0 -158 24t-125.5 69.5t-74.5 118.5
t-4 163h100q-30 -133 48.5 -207.5t209.5 -74.5q146 0 261.5 84t146.5 233l120 559h101z" />
    <glyph glyph-name="k.ss01" horiz-adv-x="1062" 
d="M543 455l262 -459h129l-291 493l4 25q132 11 237 82t130 188q21 99 -43 169.5t-217 70.5q-77 0 -148.5 -20.5t-122.5 -51t-93.5 -68.5t-66.5 -70t-36 -58h-25q55 110 78 221l98 457h-114l-306 -1434h115l98 455h312zM248 551q35 166 168.5 275.5t296.5 109.5
q54 0 93 -10.5t58 -28t30 -40t9.5 -46.5t-4.5 -47q-21 -95 -123.5 -154t-236.5 -59h-291z" />
    <glyph glyph-name="o.ss01" horiz-adv-x="1206" 
d="M500 -25q-109 0 -199.5 42t-146 114.5t-78.5 170t2 208.5q29 140 122 258.5t226 187t274 68.5q109 0 199.5 -42t146 -114.5t78.5 -170t-2 -208.5q-29 -140 -122 -258.5t-226 -187t-274 -68.5zM502 80q175 0 323.5 125t188.5 305q35 171 -56.5 290.5t-259.5 119.5
q-175 0 -323.5 -125.5t-188.5 -305.5q-35 -171 56.5 -290t259.5 -119z" />
    <glyph glyph-name="oacute.ss01" horiz-adv-x="1206" 
d="M1032 1450l-176 -242h-106l170 242h112zM500 -25q-109 0 -199.5 42t-146 114.5t-78.5 170t2 208.5q29 140 122 258.5t226 187t274 68.5q109 0 199.5 -42t146 -114.5t78.5 -170t-2 -208.5q-29 -140 -122 -258.5t-226 -187t-274 -68.5zM502 80q175 0 323.5 125t188.5 305
q35 171 -56.5 290.5t-259.5 119.5q-175 0 -323.5 -125.5t-188.5 -305.5q-35 -171 56.5 -290t259.5 -119z" />
    <glyph glyph-name="ocircumflex.ss01" horiz-adv-x="1206" 
d="M944 1448l109 -227h-107l-74 155h-16l-139 -155h-121l205 227h143zM500 -25q-109 0 -199.5 42t-146 114.5t-78.5 170t2 208.5q29 140 122 258.5t226 187t274 68.5q109 0 199.5 -42t146 -114.5t78.5 -170t-2 -208.5q-29 -140 -122 -258.5t-226 -187t-274 -68.5zM502 80
q175 0 323.5 125t188.5 305q35 171 -56.5 290.5t-259.5 119.5q-175 0 -323.5 -125.5t-188.5 -305.5q-35 -171 56.5 -290t259.5 -119z" />
    <glyph glyph-name="odieresis.ss01" horiz-adv-x="1206" 
d="M694 1305q-34 0 -53 23.5t-12 57.5q4 26 27 44t51 18q32 0 51 -23.5t10 -56.5q-4 -26 -26.5 -44.5t-47.5 -18.5zM1004 1305q-33 0 -53 24t-13 57q4 26 27.5 44t50.5 18q32 0 51 -23.5t12 -56.5q-4 -26 -27 -44.5t-48 -18.5zM500 -25q-109 0 -199.5 42t-146 114.5
t-78.5 170t2 208.5q29 140 122 258.5t226 187t274 68.5q109 0 199.5 -42t146 -114.5t78.5 -170t-2 -208.5q-29 -140 -122 -258.5t-226 -187t-274 -68.5zM502 80q175 0 323.5 125t188.5 305q35 171 -56.5 290.5t-259.5 119.5q-175 0 -323.5 -125.5t-188.5 -305.5
q-35 -171 56.5 -290t259.5 -119z" />
    <glyph glyph-name="ohungarumlaut.ss01" horiz-adv-x="1206" 
d="M1135 1448l-177 -242h-106l170 242h113zM893 1448l-176 -242h-107l170 242h113zM500 -25q-109 0 -199.5 42t-146 114.5t-78.5 170t2 208.5q29 140 122 258.5t226 187t274 68.5q109 0 199.5 -42t146 -114.5t78.5 -170t-2 -208.5q-29 -140 -122 -258.5t-226 -187
t-274 -68.5zM502 80q175 0 323.5 125t188.5 305q35 171 -56.5 290.5t-259.5 119.5q-175 0 -323.5 -125.5t-188.5 -305.5q-35 -171 56.5 -290t259.5 -119z" />
    <glyph glyph-name="oslash.ss01" horiz-adv-x="1210" 
d="M1190 1004l-1055 -1008h-112l1054 1008h113zM504 -25q-109 0 -199.5 42t-146 114.5t-78.5 170t2 208.5q29 140 122.5 258.5t226.5 187t274 68.5q145 0 253 -71t153.5 -194.5t14.5 -269.5q-29 -140 -122 -258.5t-226 -187t-274 -68.5zM506 80q175 0 323.5 125t188.5 305
q35 171 -56.5 290.5t-259.5 119.5q-175 0 -323.5 -125.5t-188.5 -305.5q-35 -171 56.5 -290t259.5 -119z" />
    <glyph glyph-name="oslashacute.ss01" horiz-adv-x="1208" 
d="M1028 1450l-176 -242h-107l170 242h113zM1194 1004l-1055 -1008h-112l1054 1008h113zM508 -25q-109 0 -199.5 42t-146 114.5t-78.5 170t2 208.5q29 140 122.5 258.5t226.5 187t274 68.5q145 0 253 -71t153.5 -194.5t14.5 -269.5q-29 -140 -122 -258.5t-226 -187
t-274 -68.5zM510 80q175 0 323.5 125t188.5 305q35 171 -56 290.5t-259 119.5q-175 0 -323.5 -125.5t-188.5 -305.5q-35 -171 56 -290t259 -119z" />
    <glyph glyph-name="t.ss01" horiz-adv-x="579" 
d="M133 999l-20 -104h127l-125 -588q-29 -129 36.5 -218.5t202.5 -88.5h78l21 98h-76q-95 0 -133.5 54.5t-18.5 142.5l129 600h269l22 104h-512zM319 1167q-17 -82 -57 -125t-129 -43q-2 0 35.5 -7t76 -14t40.5 -7l10 55q111 0 137 125l60 283h-117z" />
    <glyph glyph-name="tcaron.ss01" horiz-adv-x="608" 
d="M762 1786l-121 -508h-86l92 508h115zM133 999l-20 -104h127l-125 -588q-29 -129 36.5 -218.5t202.5 -88.5h78l21 98h-76q-95 0 -133.5 54.5t-18.5 142.5l129 600h269l22 104h-512zM319 1167q-17 -82 -57 -125t-129 -43q-2 0 35.5 -7t76 -14t40.5 -7l10 55q111 0 137 125
l60 283h-117z" />
    <glyph glyph-name="a_e.dlig" horiz-adv-x="1835" 
d="M848 604q-71 -51 -447 -115q-56 -8 -106.5 -33t-92 -72.5t-55.5 -109.5q-17 -74 23.5 -130.5t110.5 -67.5q65 -12 130.5 -1.5t147.5 54.5q157 82 229 258q24 66 35 115zM795 289q-3 -7 -9.5 -18.5t-28.5 -44t-46 -62t-62.5 -64t-79.5 -57.5q-153 -84 -331 -63
q-104 11 -165 93.5t-36 198.5q46 217 291 281q65 14 190 31t174 30q47 8 79 19t58 35.5t27 60.5q2 78 -64 137.5t-182 59.5q-135 0 -241.5 -79.5t-130.5 -193.5l-111 4q32 152 171 259.5t323 107.5q187 0 280 -113.5t57 -287.5q-13 -62 -32 -119.5t-36.5 -95t-33.5 -65.5
t-26 -41l-9 -13h-26zM1382 926q-85 0 -159.5 -32.5t-127.5 -87t-90 -118t-57 -131.5l707 6q7 50 6 100t-21 97.5t-51 84.5t-85 59t-122 22zM928 475q-8 -56 -9.5 -112t16 -108t47.5 -92.5t84 -64.5t126 -24q258 0 393 258h115q-33 -74 -79.5 -136.5t-109.5 -113t-146 -79
t-177 -28.5q-80 0 -145 22.5t-108 62.5t-72 92t-40.5 112.5t-11 123t13.5 124.5q20 94 65 182t113.5 163.5t169 121t218.5 45.5q93 0 166 -28.5t117.5 -78.5t70 -118.5t25 -148.5t-18.5 -169z" />
    <glyph glyph-name="f_f.dlig" horiz-adv-x="1040" 
d="M291 1133q31 135 119.5 218t248.5 83h78l-22 -105h-80q-87 0 -146.5 -50.5t-78.5 -131.5l-33 -148h268l-22 -104h-267l-190 -895h-117l191 895h-127l20 104h127zM754 1133q31 135 120 218t248 83h78l-22 -105h-78q-88 0 -148 -50.5t-78 -131.5l-34 -148h268l-23 -104
h-266l-190 -895h-115l191 895h-130l21 104h129z" />
    <glyph glyph-name="f_f_i.dlig" horiz-adv-x="1304" 
d="M281 1090q14 64 42.5 122.5t73 109.5t111 81.5t145.5 30.5h82l-20 -105h-76q-96 0 -158 -67.5t-84 -159.5l-22 -103h266l-20 -104h-267l-190 -895h-115l191 895h-127l20 104h127zM739 1090q14 64 43 122.5t73.5 109.5t111 81.5t145.5 30.5h82l-20 -105h-78
q-95 0 -157.5 -68t-82.5 -159l-22 -103h266l-21 -104h-266l-190 -895h-115l190 895h-127l21 104h127zM1278 936l-199 -936h-114l184 868q3 12 -3 19.5t-18 7.5h-84l21 104h162q26 0 41.5 -19t9.5 -44z" />
    <glyph glyph-name="f_f_j.dlig" horiz-adv-x="1308" 
d="M279 1090q14 64 42.5 122.5t73 109.5t111 81.5t145.5 30.5h84l-22 -105h-76q-97 0 -160 -68t-80 -159l-22 -103h266l-23 -104h-264l-190 -895h-117l191 895h-127l22 104h127zM737 1090q13 64 42 122.5t73.5 109.5t111.5 81.5t146 30.5h84l-23 -105h-75q-97 0 -160 -67.5
t-82 -159.5l-20 -103h266l-23 -104h-264l-190 -895h-117l190 895h-127l23 104h125zM1024 -283q-28 -123 -121 -204.5t-231 -81.5h-94l30 104h80q75 0 139.5 54t81.5 132l240 1137q4 15 -4.5 26t-22.5 11h-80l23 104h156q33 0 49 -21.5t10 -55.5z" />
    <glyph glyph-name="f_f_r.dlig" horiz-adv-x="1619" 
d="M281 1090q15 65 43.5 123t72.5 109t109.5 81.5t144.5 30.5h84l-20 -105h-76q-95 0 -158 -67.5t-82 -159.5l-24 -103h266l-20 -104h-265l-190 -895h-115l191 895h-129l20 104h127zM739 1090q15 65 43.5 123t72.5 109t110 81.5t145 30.5h84l-20 -105h-76q-96 0 -158.5 -67
t-83.5 -160l-22 -103h266l-21 -104h-264l-190 -895h-115l190 895h-129l21 104h127zM1653 895q-87 0 -164.5 -42t-131 -105t-97.5 -145t-68.5 -153.5t-38.5 -138.5l-66 -311h-116l186 866q3 10 -4 19.5t-18 9.5h-88l22 104h154q32 0 46.5 -17.5t8.5 -45.5q-8 -36 -38 -127
t-56 -165l-27 -73h29q36 90 83 164t108 135t139.5 95t166.5 34z" />
    <glyph glyph-name="f_f_t.dlig" horiz-adv-x="1505" 
d="M1163 895h-346l-190 -895h-117l190 895h-344l-190 -895h-117l191 895h-127l20 104h127l21 91q15 65 43.5 123t72.5 109t109.5 81.5t144.5 30.5h84l-20 -105h-76q-96 0 -158 -68t-82 -159l-24 -103h346l20 91q15 65 43.5 123t72.5 109t110 81.5t145 30.5h84l-20 -105h-76
q-96 0 -158 -67.5t-84 -159.5l-22 -103h348l92 435h117l-93 -435h267l-21 -104h-266l-129 -604q-17 -80 23 -133.5t118 -53.5h84l-20 -104h-84q-129 0 -196 88t-40 211z" />
    <glyph glyph-name="f_i.dlig" horiz-adv-x="845" 
d="M281 1090q15 65 43.5 123t72.5 109t109.5 81.5t144.5 30.5h84l-20 -105h-76q-97 0 -158.5 -67t-81.5 -160l-24 -103h266l-20 -104h-265l-190 -895h-117l191 895h-127l20 104h127zM819 936l-198 -936h-113l182 868q7 27 -20 27h-84l20 104h162q25 0 40.5 -19t10.5 -44z
" />
    <glyph glyph-name="f_j.dlig" horiz-adv-x="831" 
d="M279 1090q14 64 42.5 122.5t73 109.5t111 81.5t145.5 30.5h84l-22 -105h-76q-97 0 -160 -68t-80 -159l-22 -103h266l-23 -104h-264l-190 -895h-117l191 895h-127l22 104h127zM547 -283q-28 -123 -121 -204.5t-231 -81.5h-95l31 104h80q75 0 138.5 54t80.5 132l242 1137
q4 14 -5 25.5t-22 11.5h-80l23 104h155q34 0 50 -21.5t8 -55.5z" />
    <glyph glyph-name="f_r.dlig" horiz-adv-x="1130" 
d="M281 1090q15 65 43.5 123t72.5 109t109.5 81.5t144.5 30.5h84l-20 -105h-76q-97 0 -158.5 -67.5t-81.5 -159.5l-24 -103h266l-20 -104h-265l-190 -895h-117l191 895h-127l20 104h127zM1163 895q-87 0 -164.5 -42t-131 -105t-97 -145t-68 -153.5t-38.5 -138.5l-66 -311
h-117l187 866q3 10 -4.5 19.5t-18.5 9.5h-88l23 104h153q32 0 46.5 -17.5t8.5 -45.5q-8 -36 -38 -127t-56 -165l-26 -73h28q36 90 83 164t108 135t140 95t167 34z" />
    <glyph glyph-name="f_t.dlig" horiz-adv-x="1069" 
d="M281 1090q15 65 43.5 123t72.5 109t109.5 81.5t144.5 30.5h84l-20 -105h-76q-96 0 -158 -68t-82 -159l-24 -103h373l92 435h116l-92 -435h266l-20 -104h-266l-129 -604q-17 -80 23 -133.5t118 -53.5h84l-20 -104h-84q-129 0 -196 88t-40 211l127 596h-371l-190 -895h-117
l191 895h-127l20 104h127z" />
    <glyph glyph-name="g_i.dlig" horiz-adv-x="1411" 
d="M453 162q-85 0 -159 32.5t-125 88.5t-72 139t-1 178q41 193 183.5 308.5t336.5 115.5q69 0 129.5 -20.5t108 -59t70 -102.5t12.5 -144q3 -18 13.5 -30t20 -17.5t15.5 -22t0 -42.5q-41 -192 -187.5 -308t-344.5 -116zM467 258q153 0 270 94.5t148 243.5q31 147 -44 238.5
t-225 91.5q-153 0 -270 -95t-149 -245q-28 -135 52 -231.5t218 -96.5zM326 -504q180 0 311.5 60t153.5 155q13 62 -33 109.5t-134 72.5t-202 25q-182 0 -312.5 -60t-150.5 -155q-20 -92 84.5 -149.5t282.5 -57.5zM150 -47h-37q-64 0 -102.5 34.5t-24.5 98.5q13 63 62.5 94
t113.5 31h41l12 33l244 -41l-10 -41h-252q-38 0 -71.5 -21t-41.5 -61q-8 -36 15 -54t59 -18h276q233 0 361.5 -88t99.5 -225q-18 -86 -100 -152.5t-207 -101.5t-273 -35q-231 0 -361 84.5t-101 216.5q32 153 288 225zM961 698q4 172 16 238q4 30 24 46.5t50 16.5h135
l-21 -104h-84q-31 0 -37 -29l-59 -280l-78 -2l29 114h25zM1368 918l-194 -918h-117l182 858q4 13 -5.5 25t-23.5 12h-73l20 104h143q36 0 55.5 -22t12.5 -59zM1399 1307q-34 0 -53.5 24t-12.5 58q4 26 27 43.5t51 17.5q31 0 51 -24.5t13 -57.5q-4 -26 -27 -43.5t-49 -17.5z
" />
    <glyph glyph-name="g_r.dlig" horiz-adv-x="1718" 
d="M453 162q-85 0 -159 32.5t-125 88.5t-72 139t-1 178q41 193 183.5 308.5t336.5 115.5q69 0 129.5 -20.5t108 -59t70 -102.5t12.5 -144q3 -18 13.5 -30t20 -17.5t15.5 -22t0 -42.5q-41 -192 -187.5 -308t-344.5 -116zM467 258q153 0 270 94.5t148 243.5q31 147 -44 238.5
t-225 91.5q-153 0 -270 -95t-149 -245q-28 -135 52 -231.5t218 -96.5zM326 -504q180 0 311.5 60t153.5 155q13 62 -33 109.5t-134 72.5t-202 25q-182 0 -312.5 -60t-150.5 -155q-20 -92 84.5 -149.5t282.5 -57.5zM150 -47h-37q-64 0 -102.5 34.5t-24.5 98.5q13 63 62.5 94
t113.5 31h41l12 33l244 -41l-10 -41h-252q-38 0 -71.5 -21t-41.5 -61q-8 -36 15 -54t59 -18h276q233 0 361.5 -88t99.5 -225q-18 -86 -100 -152.5t-207 -101.5t-273 -35q-231 0 -361 84.5t-101 216.5q32 153 288 225zM961 698q4 172 16 238q4 30 24 46.5t50 16.5h135
l-21 -104h-84q-31 0 -37 -29l-59 -280l-78 -2l29 114h25zM1749 895q-87 0 -164.5 -42t-131 -105t-97.5 -145t-68.5 -153.5t-38.5 -138.5l-63 -311h-117l186 866q2 11 -5 20t-19 9h-86l22 104h154q32 0 46.5 -17.5t6.5 -45.5q-7 -36 -37 -127t-56 -165l-26 -73h29
q35 90 82 164.5t108.5 135t140.5 94.5t167 34z" />
    <glyph glyph-name="r_i.dlig" horiz-adv-x="999" 
d="M760 999q-88 0 -167 -34t-140.5 -94.5t-108.5 -135t-82 -164.5h-29q103 285 119 365q8 28 -6.5 45.5t-46.5 17.5h-154l-22 -104h86q12 0 19 -9t5 -20l-186 -866h117l63 311q14 67 38.5 138.5t68.5 153.5t97.5 145t131 105t164.5 42zM952 918q7 37 -12 59t-55 22h-133
l-33 -104h76q14 0 22 -12t4 -25l-180 -858h115zM987 1307q-34 0 -54 24.5t-11 57.5q4 26 26.5 43.5t50.5 17.5q32 0 51.5 -24.5t10.5 -57.5q-4 -26 -26.5 -43.5t-47.5 -17.5z" />
    <glyph glyph-name="r_j.dlig" horiz-adv-x="999" 
d="M760 999q-88 0 -167 -34t-140.5 -94.5t-108.5 -135t-82 -164.5h-29q103 285 119 365q8 28 -6.5 45.5t-46.5 17.5h-154l-22 -104h86q12 0 19 -9t5 -20l-186 -866h117l63 311q14 67 38.5 138.5t68.5 153.5t97.5 145t131 105t164.5 42zM954 922q8 34 -8.5 55.5t-50.5 21.5
h-141l-37 -104h80q14 0 22.5 -11t5.5 -26l-241 -1137q-17 -78 -82 -132t-140 -54h-77l-33 -104h94q140 0 233 81.5t119 204.5zM981 1307q-34 0 -54 24t-14 58q6 26 29 43.5t51 17.5q31 0 50.5 -24.5t13.5 -57.5q-6 -25 -29 -43t-47 -18z" />
    <glyph glyph-name="t_i.dlig" horiz-adv-x="894" 
d="M240 895h-127l20 104h127l92 435h117l-92 -435h409q35 0 52 -21t10 -56l-195 -922h-114l182 862q4 14 -3.5 23.5t-21.5 9.5h-342l-129 -604q-17 -79 24 -133t118 -54h86l-21 -104h-84q-129 0 -195.5 88t-39.5 211zM813 1389q6 25 29 43t49 18q32 0 51.5 -24t13.5 -58
q-6 -26 -28 -43.5t-47 -17.5q-34 0 -54.5 23.5t-13.5 58.5z" />
    <glyph glyph-name="t_r.dlig" horiz-adv-x="1191" 
d="M240 895h-127l20 104h127l92 435h117l-92 -435h266l-22 -104h-267l-129 -604q-19 -79 23.5 -133t118.5 -54h82l-13 -104h-84q-132 0 -198 88t-41 211zM1225 895q-87 0 -164.5 -42t-131 -105t-97.5 -145t-68.5 -153.5t-38.5 -138.5l-66 -311h-116l188 866q2 11 -6 20
t-18 9h-86l20 104h154q33 0 47 -17t8 -46q-8 -36 -37.5 -127t-55.5 -165l-26 -73h29q35 90 81.5 164t107.5 135t139.5 95t166.5 34z" />
    <glyph glyph-name="t_t" horiz-adv-x="1038" 
d="M696 895h-129l21 104h129l92 435h115l-93 -435h269l-21 -104h-268l-129 -600q-17 -82 23.5 -136.5t121.5 -54.5h82l-20 -104h-86q-129 0 -196 88t-40 211zM240 895h-127l20 104h127l92 435h117l-92 -435h266l-20 -104h-267l-131 -604q-19 -79 23 -133t119 -54h82
l-13 -104h-84q-132 0 -198 88t-41 211z" />
    </font>
</defs>
</svg>
