<?xml version="1.0" standalone="no"?>
<!DOCTYPE svg PUBLIC "-//W3C//DTD SVG 1.1//EN" "http://www.w3.org/Graphics/SVG/1.1/DTD/svg11.dtd" >
<svg xmlns="http://www.w3.org/2000/svg" xmlns:xlink="http://www.w3.org/1999/xlink" version="1.1">
<metadata>
Created by FontForge 20201107 at Fri Feb 16 19:17:23 2024
 By 
copyright missing
</metadata>
<defs>
<font id="NeueRegrade-SemiBold-Italic" horiz-adv-x="1198" >
  <font-face 
    font-family="Neue Regrade SemiBold"
    font-weight="600"
    font-style="italic"
    font-stretch="normal"
    units-per-em="2048"
    panose-1="0 0 0 0 0 0 0 0 0 0"
    ascent="1638"
    descent="-410"
    x-height="999"
    cap-height="1434"
    bbox="-330 -594 2654 2087"
    underline-thickness="102"
    underline-position="-255"
    slope="-12"
    unicode-range="U+0020-2265"
  />
<missing-glyph horiz-adv-x="1167" 
d="M956 1741v-2335h-739v2335h739zM778 150h-389v-265h389v265zM700 72v-111h-233v111h233zM778 553h-233v-131h78v53h77v-108h-233v186h-78v-264h389v264zM778 838h-78v-154h-311v-80h389v234zM778 977h-389v-76h156v-88h-156v-76h234v164h155v76zM545 1204v-84h-78v84h78z
M623 1284h-234v-244h389v80h-155v164zM778 1585h-385v-78h152v-86h-156v-78h389v78h-155v86h155v78zM778 -170h-389v-76h164l-164 -110v-76h389v76h-239l163 110h76v76z" />
    <glyph glyph-name=".notdef" horiz-adv-x="1167" 
d="M956 1741v-2335h-739v2335h739zM778 150h-389v-265h389v265zM700 72v-111h-233v111h233zM778 553h-233v-131h78v53h77v-108h-233v186h-78v-264h389v264zM778 838h-78v-154h-311v-80h389v234zM778 977h-389v-76h156v-88h-156v-76h234v164h155v76zM545 1204v-84h-78v84h78z
M623 1284h-234v-244h389v80h-155v164zM778 1585h-385v-78h152v-86h-156v-78h389v78h-155v86h155v78zM778 -170h-389v-76h164l-164 -110v-76h389v76h-239l163 110h76v76z" />
    <glyph glyph-name=".null" horiz-adv-x="0" 
 />
    <glyph glyph-name="nonmarkingreturn" horiz-adv-x="682" 
 />
    <glyph glyph-name="space" unicode=" " horiz-adv-x="555" 
 />
    <glyph glyph-name="space" unicode="&#xa0;" horiz-adv-x="555" 
 />
    <glyph glyph-name="exclam" unicode="!" horiz-adv-x="557" 
d="M367 1434h221l-246 -1065h-184zM186 -25q-62 0 -98.5 43t-24.5 103q10 45 52 77.5t90 32.5q57 0 91.5 -42.5t22.5 -102.5q-10 -45 -50 -78t-83 -33z" />
    <glyph glyph-name="quotedbl" unicode="&#x22;" horiz-adv-x="815" 
d="M530 1434l-139 -551h-176l94 551h221zM899 1434l-139 -551h-176l94 551h221z" />
    <glyph glyph-name="numbersign" unicode="#" horiz-adv-x="1394" 
d="M1171 1434h213l-581 -1434h-213zM682 1434h211l-580 -1434h-213zM100 573h1157l-38 -180h-1158zM262 1036h1157l-39 -182h-1157z" />
    <glyph glyph-name="dollar" unicode="$" horiz-adv-x="1218" 
d="M743 1636l-389 -1837h189l389 1837h-189zM1116 375q9 57 9 103.5t-17 87t-39.5 72.5t-58.5 58.5t-73.5 47t-86 37t-95 28t-100.5 20.5q-148 27 -211 76t-41 150q20 83 106.5 143t233.5 59q156 0 226 -66t49 -155q0 -6 -2 -12h221q1 3 2 9t2 9q7 42 6.5 84t-16 83t-40 78
t-65 68t-91 54t-118.5 36t-147 13q-139 0 -247 -34.5t-175 -95.5t-105.5 -132t-54.5 -156q-15 -78 1 -142t51 -106.5t92 -75.5t114 -52t127 -33q47 -9 72 -14.5t67.5 -17.5t66 -22.5t52.5 -28t42.5 -36.5t20.5 -46.5t1 -59.5q-20 -100 -114 -165t-255 -65q-69 0 -122 14
t-83 38t-49 56t-19.5 67t5.5 71h-223q-7 -44 -7.5 -89t14.5 -89t38.5 -84t64 -73.5t90.5 -58.5t119.5 -39t149.5 -14q145 0 258 33t183.5 91t111.5 126t59 150z" />
    <glyph glyph-name="percent" unicode="%" horiz-adv-x="1720" 
d="M336 0h-254l1384 1434h256zM489 938q91 0 152 58t78 134q5 38 0.5 73t-35.5 60t-84 25q-92 0 -153 -57.5t-76 -132.5q-14 -65 12.5 -112.5t105.5 -47.5zM600 1458q63 0 113.5 -15t83.5 -41t56.5 -61t32 -75t10.5 -83t-9 -85q-14 -61 -43.5 -116t-76 -104t-118 -78.5
t-157.5 -29.5q-76 0 -134 21.5t-91 57t-53 82t-19.5 97.5t8.5 102q13 61 42.5 116t76 104t119 78.5t159.5 29.5zM1204 147q94 0 156.5 57.5t75.5 131.5q8 28 4.5 56t-15 50.5t-40 37t-70.5 14.5q-91 0 -152 -57.5t-78 -133.5q-12 -63 14.5 -109.5t104.5 -46.5zM1315 664
q76 0 134 -21.5t91 -57.5t52.5 -82.5t19 -97.5t-9.5 -102q-10 -47 -29.5 -92t-53.5 -88t-78 -75.5t-105 -52.5t-132 -20q-75 0 -132 21.5t-89.5 57.5t-52 83t-19 97.5t8.5 101.5q13 60 42.5 115.5t76.5 104.5t118.5 78.5t157.5 29.5z" />
    <glyph glyph-name="ampersand" unicode="&#x26;" horiz-adv-x="1503" 
d="M733 303q23 25 53.5 58.5t46.5 51t17 17.5l-84 129q-72 109 -178 107q-62 0 -122 -25.5t-111.5 -86.5t-69.5 -148q-13 -70 -3.5 -117.5t41 -76.5t70 -41.5t84.5 -12.5q119 0 256 145zM1483 666q-98 0 -164.5 -24t-126.5 -81l-115 -121l285 -440h-234l-190 293l-119 -131
q-38 -41 -70.5 -69t-78.5 -58t-101.5 -45t-119.5 -15q-70 0 -133.5 17.5t-117 53t-88 89t-47 126.5t6.5 165q19 90 66.5 162.5t108 115.5t125 66t124.5 23q20 0 37.5 -2.5t29 -5.5t23.5 -9t17 -9.5t14 -9.5t10 -7l51 -7q-88 78 -137 154q-17 24 -21 29.5t-19 28.5t-19 34
t-13 34t-11 40.5t-2 41.5t5 48q28 136 148.5 220.5t281.5 84.5q97 0 173 -39t112.5 -111t17.5 -159h-221q13 60 -22.5 93.5t-100.5 33.5t-116 -34.5t-64 -94.5q-10 -71 47 -158l270 -407l121 123q162 143 414 143z" />
    <glyph glyph-name="quotesingle" unicode="'" horiz-adv-x="446" 
d="M530 1434l-139 -551h-176l94 551h221z" />
    <glyph glyph-name="parenleft" unicode="(" horiz-adv-x="593" 
d="M393 -426q-97 188 -115.5 435.5t35.5 484.5q54 254 176.5 504.5t298.5 435.5h-227q-344 -371 -463 -920q-50 -237 -22 -490t127 -450h190z" />
    <glyph glyph-name="parenright" unicode=")" horiz-adv-x="593" 
d="M-199 -426q178 188 299 428.5t174 491.5q35 165 42 328t-22 325t-95 287h190q101 -200 129.5 -438t-22.5 -482q-53 -253 -172 -502t-295 -438h-228z" />
    <glyph glyph-name="asterisk" unicode="*" horiz-adv-x="772" 
d="M647 1434l-51 -232l246 86l20 -121l-264 -92l96 -231l-108 -64l-86 215l-181 -215l-102 66l201 248l-225 90l65 104l213 -86l51 232h125z" />
    <glyph glyph-name="plus" unicode="+" horiz-adv-x="1124" 
d="M780 1100l-69 -322h321l-41 -182h-319l-68 -322h-188l69 322h-319l41 182h317l68 322h188z" />
    <glyph glyph-name="comma" unicode="," horiz-adv-x="550" 
d="M301 121q10 45 -15.5 77.5t-70.5 32.5q-62 0 -116 -42.5t-66 -102.5q-11 -46 16 -78.5t76 -32.5q58 0 112 43.5t64 102.5zM168 -18q-2 -53 -37.5 -99.5t-99.5 -60.5l-35 -76q144 14 246 136q81 96 92 201q10 99 -53 134q-27 15 -66 14z" />
    <glyph glyph-name="hyphen" unicode="-" horiz-adv-x="995" 
d="M158 641h733l-39 -182h-733z" />
    <glyph glyph-name="period" unicode="." horiz-adv-x="507" 
d="M162 -25q-62 0 -98.5 43t-24.5 103q10 46 51 78t88 32q59 0 94 -42.5t23 -102.5q-10 -45 -50 -78t-83 -33z" />
    <glyph glyph-name="slash" unicode="/" horiz-adv-x="903" 
d="M1100 1434l-1075 -1805h-213l1077 1805h211z" />
    <glyph glyph-name="zero" unicode="0" horiz-adv-x="1390" 
d="M606 176q104 0 195.5 49.5t155.5 132t107.5 178t65.5 197.5q16 78 20.5 149t-7.5 140.5t-42 120.5t-88.5 82.5t-140.5 31.5q-104 0 -195.5 -49.5t-155.5 -132t-107.5 -178t-65.5 -197.5q-13 -64 -18.5 -123.5t-2 -120t22 -110t49.5 -88.5t84 -60.5t123 -21.5zM879 1458
q110 0 196.5 -31.5t142 -87.5t91 -128.5t48 -158.5t9 -174t-22.5 -178q-23 -105 -63 -204t-105 -195t-146 -167.5t-192.5 -115t-236.5 -43.5q-110 0 -196.5 31.5t-142 87.5t-91.5 128.5t-48.5 158.5t-9 174t22.5 178q23 105 63 204t105.5 195t146.5 167.5t192.5 115
t236.5 43.5z" />
    <glyph glyph-name="one" unicode="1" horiz-adv-x="739" 
d="M598 1434q-16 -77 -49.5 -144t-85 -123.5t-127.5 -91.5t-168 -39l-43 -209q130 4 237 89t168 202h33q-55 -110 -84 -241l-184 -877h219l303 1434h-219z" />
    <glyph glyph-name="two" unicode="2" horiz-adv-x="1251" 
d="M641 201q-57 0 -119 -8.5t-96 -16.5l-33 -8l6 31q422 311 535 397q256 198 311 408q16 56 12 111.5t-19.5 106t-52 94t-86 75t-120.5 49.5t-156 18q-114 0 -211 -26.5t-163.5 -69.5t-118 -101.5t-80.5 -117.5t-45 -123q-6 -25 -10 -51h217q2 8 5 25.5t5 25.5
q14 56 59.5 108.5t126.5 90.5t178 38q152 0 211 -69.5t33 -169.5q-28 -121 -336 -352l-655 -488l-39 -178h1051l43 201h-453z" />
    <glyph glyph-name="three" unicode="3" horiz-adv-x="1204" 
d="M1098 408q19 104 2 181.5t-64 131t-100.5 82.5t-108.5 35q-43 4 -80 0t-63 -10l-25 -7l7 35l563 410l37 168h-924l-43 -201h580l-465 -340l-37 -172h256q137 0 211 -78t41 -211q-29 -118 -129.5 -187t-233.5 -69q-144 0 -212 62.5t-42 175.5q0 4 4 16h-217q-4 -12 -4 -20
q-18 -82 4.5 -161t77 -139.5t143 -97.5t195.5 -37q256 0 420.5 116t206.5 317z" />
    <glyph glyph-name="four" unicode="4" horiz-adv-x="1388" 
d="M1081 1233h-28l-785 -780h414q56 0 112 -8.5t84 -16.5l29 -8zM1307 453l-37 -183h-172l-58 -270h-221l58 270h-863l52 250l925 914h352l-208 -981h172z" />
    <glyph glyph-name="five" unicode="5" horiz-adv-x="1273" 
d="M1192 481q16 69 12 135.5t-21 127t-53 112t-83.5 89t-114.5 58.5t-144 21q-134 0 -227 -41t-141 -111h-31q9 11 22.5 30t44 76t46.5 112l49 143h696l43 201h-878l-256 -701h262q41 52 118 89.5t181 37.5q71 0 125 -20t84.5 -54t49 -78.5t18 -93.5t-8.5 -100
q-14 -62 -47 -120t-84 -108t-124.5 -80t-158.5 -30q-57 0 -104.5 14t-78.5 37.5t-55 53.5t-33.5 62.5t-14 65t3.5 60.5h-215q-10 -88 15 -174.5t82 -158.5t156 -116.5t224 -44.5q114 0 213 29.5t169.5 78.5t125 115.5t86.5 137t47 145.5z" />
    <glyph glyph-name="six" unicode="6" horiz-adv-x="1361" 
d="M616 176q95 0 175.5 30t133 78.5t86 104t46.5 113.5q10 38 7.5 77t-11.5 75.5t-33.5 68t-58 55.5t-86 37.5t-117.5 13.5q-95 0 -175 -29.5t-133.5 -78t-87 -105.5t-45.5 -118q-7 -44 -6 -89t22.5 -87t55 -74.5t92.5 -52t135 -19.5zM838 1024q97 -5 177 -36t133 -82.5
t87.5 -119.5t40.5 -146.5t-8 -164.5q-43 -218 -217.5 -359t-429.5 -141q-139 0 -246 43.5t-179.5 134.5t-91.5 231.5t19 334.5q22 105 64 206.5t109 199t150 171t196 118t239 44.5q113 0 203 -35.5t145.5 -95.5t86 -132t34.5 -151l-211 3q-14 94 -93.5 152t-222.5 58
q-88 0 -176 -40.5t-164 -114.5t-133 -189.5t-80 -255.5l35 2q15 62 61 126.5t114 120t163 89t195 29.5z" />
    <glyph glyph-name="seven" unicode="7" horiz-adv-x="1116" 
d="M236 1434l-41 -201h481q56 0 122 8.5t104 16.5l38 8l-4 -33q-113 -76 -213 -195t-170.5 -245.5t-129.5 -274t-95 -271.5t-62 -247h219q21 96 42 178.5t56.5 190.5t76 200t99.5 194.5t127 187.5t160 166.5t197 142.5l37 174h-1044z" />
    <glyph glyph-name="eight" unicode="8" horiz-adv-x="1296" 
d="M575 176q62 0 124.5 15t121.5 44.5t102.5 82t57.5 120.5q15 67 -6 118.5t-67 81t-101.5 44t-116.5 14.5q-63 0 -125.5 -15t-122 -44.5t-103 -82t-58.5 -120.5q-15 -70 6 -122.5t68 -81t102 -41.5t118 -13zM475 1067q-10 -48 7.5 -85.5t56 -58.5t85 -31.5t99.5 -10.5
q74 0 141.5 17.5t123 62t69.5 110.5q10 50 -7.5 87.5t-56.5 58t-85.5 30.5t-100.5 10q-73 0 -140 -18t-122.5 -62.5t-69.5 -109.5zM924 770q64 -16 118 -49t93.5 -82.5t53.5 -113.5t-1 -142q-38 -179 -210.5 -293.5t-430.5 -114.5q-262 0 -396.5 116.5t-95.5 297.5
q31 144 153 246t273 135l8 33q-115 32 -181 114.5t-40 200.5q32 147 185 243.5t381 96.5q116 0 209 -29t149.5 -78.5t80.5 -115.5t9 -139q-26 -114 -122.5 -187t-227.5 -106z" />
    <glyph glyph-name="nine" unicode="9" horiz-adv-x="1361" 
d="M831 1257q-95 0 -175.5 -29.5t-132.5 -78t-85 -104t-45 -113.5q-10 -39 -8 -78.5t11 -76t33.5 -68t58.5 -55t86.5 -37t117.5 -13.5q95 0 175 29.5t133 78.5t86.5 106t46.5 118q10 36 7 74t-12.5 73.5t-34.5 67t-59.5 55.5t-86.5 37.5t-116 13.5zM612 410q-97 5 -177 36
t-133 82t-87.5 119.5t-40.5 146.5t8 164q20 106 74.5 197t136.5 158.5t194.5 106t241.5 38.5q139 0 246 -43t179.5 -134t90.5 -231.5t-20 -334.5q-22 -105 -63.5 -207t-108.5 -199.5t-150 -170.5t-195.5 -118t-238.5 -45q-113 0 -203 35.5t-145.5 95.5t-86 132t-34.5 151
l211 -2q13 -94 92.5 -152.5t221.5 -58.5q89 0 177.5 40.5t164.5 114.5t133 189.5t80 255.5l-35 -2q-15 -61 -61.5 -126t-114.5 -120.5t-162.5 -88.5t-194.5 -29z" />
    <glyph glyph-name="colon" unicode=":" horiz-adv-x="534" 
d="M174 -25q-62 0 -98 43t-23 103q9 45 50.5 77.5t89.5 32.5q58 0 92.5 -43t21.5 -102q-9 -45 -49.5 -78t-83.5 -33zM344 768q-63 0 -99 42.5t-24 102.5q9 46 50.5 78.5t88.5 32.5q58 0 93.5 -43t23.5 -102q-10 -45 -50 -78t-83 -33z" />
    <glyph glyph-name="semicolon" unicode=";" horiz-adv-x="591" 
d="M389 768q-62 0 -98.5 42.5t-24.5 102.5q11 46 52 78.5t88 32.5q59 0 93.5 -42.5t22.5 -102.5q-10 -45 -50 -78t-83 -33zM322 121q10 45 -15.5 77.5t-70.5 32.5q-62 0 -116.5 -42.5t-66.5 -102.5q-11 -46 16 -78.5t76 -32.5q58 0 112.5 43.5t64.5 102.5zM188 -18
q-2 -53 -37.5 -99.5t-99.5 -60.5l-35 -76q144 14 246 136q81 96 92 201q11 99 -52 134q-27 15 -66 14z" />
    <glyph glyph-name="less" unicode="&#x3c;" horiz-adv-x="1128" 
d="M946 367l-41 -189l-760 305l56 271l891 307l-41 -207q-549 -193 -574 -201q-27 -9 -61.5 -16.5t-55.5 -10.5l-20 -3v-21q64 -15 119 -35z" />
    <glyph glyph-name="equal" unicode="=" horiz-adv-x="1126" 
d="M164 571h825l-39 -182h-825zM250 975h825l-39 -182h-825z" />
    <glyph glyph-name="greater" unicode="&#x3e;" horiz-adv-x="1130" 
d="M125 385q538 189 573 199q28 10 62 18t54 11l20 3v21q-64 14 -117 37l-488 198l41 189l760 -307l-55 -271l-891 -305z" />
    <glyph glyph-name="question" unicode="?" horiz-adv-x="1103" 
d="M1161 1067q34 159 -77.5 272t-321.5 119q-244 7 -392 -95.5t-188 -285.5q-4 -32 -4 -47h217q0 17 2 25q22 100 107 154t209 48q127 -5 189 -54.5t40 -147.5q-11 -50 -45 -88t-80.5 -65t-101.5 -54.5t-112.5 -65.5t-108.5 -88.5t-94 -133.5t-66 -191h411l39 182h-24
q-52 0 -102 -7.5t-74 -15.5l-23 -8q9 46 44 84t83.5 65.5t105.5 54.5t115.5 58t109 67.5t89 92.5t53.5 125zM457 -25q-56 0 -87.5 37.5t-21.5 89.5q12 56 56 92.5t106 36.5q52 0 82 -38t20 -91q-12 -53 -56.5 -90t-98.5 -37z" />
    <glyph glyph-name="at" unicode="@" horiz-adv-x="1961" 
d="M801 213q70 -1 133 23.5t109.5 65t83.5 94.5t60.5 110.5t35.5 114.5q12 54 14 105.5t-10 101t-37.5 87t-72.5 60t-111 22.5q-91 0 -166 -34.5t-125 -93t-82.5 -127.5t-48.5 -148q-11 -53 -12 -105t11 -102.5t37.5 -88.5t71.5 -61.5t109 -23.5zM1165 1458
q123 0 233.5 -32.5t196.5 -91t153 -141t102.5 -183t45 -216t-19.5 -239.5q-41 -194 -141 -301t-234 -107q-110 0 -182 65.5t-49 178.5l-33 -16q-160 -295 -440 -295q-75 0 -136 21.5t-102.5 60t-70 90t-40 112t-10.5 125.5t15 132q15 74 43.5 144t75 137t104.5 117
t137.5 80.5t169.5 30.5q84 0 147.5 -25t103 -69.5t61.5 -98t30 -118.5l47 8q-6 127 21 242l8 37h135l-129 -602q-23 -107 -1 -165t87 -58q90 0 156 79.5t98 227.5q23 124 12 234t-61 202.5t-124.5 159t-178 104t-221.5 37.5q-161 0 -317 -61t-279.5 -164t-213 -245
t-122.5 -300q-42 -201 20 -370.5t209 -268t344 -98.5q229 0 457 131l213 -10q-328 -254 -662 -254q-123 0 -233 32.5t-196.5 91t-153 141t-102.5 183t-45.5 216t18.5 239.5q50 237 209 437t383.5 316.5t461.5 116.5z" />
    <glyph glyph-name="A" unicode="A" horiz-adv-x="1349" 
d="M1010 1434l211 -1434h-193l-47 328h-676l-184 -328h-209l817 1434h281zM410 510h544l-100 723h-33z" />
    <glyph glyph-name="B" unicode="B" horiz-adv-x="1314" 
d="M647 201q88 0 158.5 22.5t124 75t71.5 131.5q23 115 -48.5 170t-207.5 55h-348l-96 -454h346zM782 854q105 0 182.5 49.5t98.5 143.5q19 93 -36.5 139.5t-162.5 46.5h-342l-82 -379h342zM1210 371q-21 -99 -83 -173.5t-150 -116t-183.5 -61.5t-199.5 -20h-553l303 1434
h547q88 0 165 -22t135 -64t83.5 -112t7.5 -157q-16 -75 -54.5 -132.5t-91.5 -92t-108.5 -54t-116.5 -26.5l-8 -33q54 -6 103.5 -22.5t94.5 -46t73 -72t40 -100t-4 -129.5z" />
    <glyph glyph-name="C" unicode="C" horiz-adv-x="1470" 
d="M1124 426q-31 -48 -70 -88.5t-92 -79t-123.5 -60.5t-148.5 -22q-97 0 -169 32t-113 85.5t-61.5 125t-20 147.5t17.5 157q20 95 68.5 187.5t120 171t172.5 127t213 48.5q83 0 147.5 -22t104 -60t62.5 -80t34 -91h233q-5 50 -23 104t-60 118.5t-101 114.5t-155.5 83.5
t-215.5 33.5q-137 0 -258 -40t-211 -108.5t-161.5 -161t-116.5 -194.5t-68 -213q-16 -75 -18 -152t12 -152t42.5 -143.5t75 -126.5t107.5 -101t143.5 -67t178.5 -24q88 0 170 18t144.5 46t120.5 68.5t98 79.5t77.5 86.5t59 81.5t42.5 71h-258z" />
    <glyph glyph-name="D" unicode="D" horiz-adv-x="1435" 
d="M582 205q118 0 220.5 40.5t177.5 110.5t126.5 163t73.5 200q16 86 14.5 162.5t-29 141t-73.5 111t-120.5 73t-168.5 26.5h-281l-221 -1028h281zM1397 702q-71 -334 -301 -518t-551 -184h-506l305 1434h502q152 0 271 -49.5t193.5 -143t99 -229.5t-12.5 -310z" />
    <glyph glyph-name="E" unicode="E" horiz-adv-x="1148" 
d="M1241 1434l-41 -201h-678l-88 -408h613l-43 -194h-611l-92 -430h678l-41 -201h-899l305 1434h897z" />
    <glyph glyph-name="F" unicode="F" horiz-adv-x="1077" 
d="M1174 1233h-652l-88 -408h537l-41 -194h-537l-133 -631h-219l303 1434h870z" />
    <glyph glyph-name="G" unicode="G" horiz-adv-x="1515" 
d="M1454 709q11 50 -15.5 83t-78.5 33h-551l-43 -198h393q18 0 27 -13t6 -32q-14 -70 -59.5 -142t-111 -131t-153 -96t-176.5 -37q-99 1 -172 32.5t-114 84t-61 123.5t-19 147t18 158q20 96 67.5 188.5t119 171.5t174.5 127.5t219 48.5q71 0 129 -16.5t95.5 -42t65.5 -60.5
t41.5 -67.5t20.5 -66.5h237q-4 48 -23.5 104t-63.5 119t-105 113.5t-158 84t-213 33.5q-119 0 -225.5 -29t-189.5 -80.5t-152 -119.5t-119 -150t-84 -167t-53 -175q-22 -95 -17.5 -188t24.5 -178t65.5 -157.5t105.5 -125.5t144 -83t182 -30q102 0 198.5 40.5t163 97.5
t123 128.5t86 124t45.5 93.5h35q-134 -240 -164 -371l-18 -88h205z" />
    <glyph glyph-name="H" unicode="H" horiz-adv-x="1429" 
d="M1475 1434l-301 -1434h-222l133 629h-692l-133 -629h-219l303 1434h219l-127 -605h690l129 605h220z" />
    <glyph glyph-name="I" unicode="I" horiz-adv-x="516" 
d="M344 1434h219l-303 -1434h-219z" />
    <glyph glyph-name="J" unicode="J" horiz-adv-x="792" 
d="M328 1434l-41 -201h291l-170 -795q-20 -98 -104 -167.5t-181 -69.5h-158l-43 -201h168q211 0 352.5 113t184.5 311l213 1010h-512z" />
    <glyph glyph-name="K" unicode="K" horiz-adv-x="1341" 
d="M1509 1434l-866 -732l-6 -30l516 -672h-246l-467 610h-53l-127 -610h-221l305 1434h219l-133 -625h41l739 625h299z" />
    <glyph glyph-name="L" unicode="L" horiz-adv-x="1075" 
d="M565 1434l-262 -1233h664l-41 -201h-885l303 1434h221z" />
    <glyph glyph-name="M" unicode="M" horiz-adv-x="1937" 
d="M1595 1434l-684 -1233h-32l-162 1233h-373l-301 -1434h217l213 1001q11 53 19 111t10.5 90.5t1.5 32.5h33l161 -1235h328l686 1233h31q-45 -119 -70 -236l-211 -997h219l304 1434h-390z" />
    <glyph glyph-name="N" unicode="N" horiz-adv-x="1554" 
d="M1178 463q-14 -64 -24 -130t-14 -100l-3 -34h-33l-418 1235h-342l-303 -1434h219l207 979q14 61 23.5 125t12.5 98l3 33h33l419 -1235h340l304 1434h-220z" />
    <glyph glyph-name="O" unicode="O" horiz-adv-x="1513" 
d="M668 176q97 0 184.5 33.5t153 88.5t118.5 128t86 151t50 158q16 75 16.5 147t-19 140.5t-57.5 120t-106.5 83t-159.5 31.5q-120 0 -224.5 -50t-177 -132.5t-120.5 -178t-70 -196.5q-16 -75 -16.5 -147.5t18.5 -141.5t57 -120.5t106.5 -83t160.5 -31.5zM942 1458
q119 0 215 -31.5t158.5 -87.5t104.5 -129t58.5 -159t15 -174.5t-20.5 -178.5q-22 -103 -65 -203t-114.5 -195t-160.5 -166.5t-211.5 -115t-259.5 -43.5q-103 0 -188.5 23.5t-146 65.5t-105.5 99.5t-70 124t-36 141.5t-8 150.5t19 151.5q23 105 67 205t115.5 195.5t161 167.5
t212 115.5t259.5 43.5z" />
    <glyph glyph-name="P" unicode="P" horiz-adv-x="1275" 
d="M834 825q100 0 180 53t102 150q21 92 -34 148.5t-152 56.5h-406l-88 -408h398zM963 1434q87 0 163 -31t128.5 -85.5t74 -134.5t2.5 -171q-38 -172 -178.5 -279.5t-316.5 -107.5h-443l-131 -625h-221l303 1434h619z" />
    <glyph glyph-name="Q" unicode="Q" horiz-adv-x="1529" 
d="M344 707q-16 -75 -17.5 -147t17.5 -140.5t56.5 -120t105 -82.5t158.5 -31q111 0 214.5 51.5t177 133.5t124.5 177.5t71 190.5q16 74 17.5 144.5t-16 139.5t-55 120t-106 82.5t-161.5 31.5q-97 0 -183.5 -33t-151.5 -87.5t-117 -126.5t-84.5 -148t-49.5 -155zM952 158
q146 43 275 43h112l-43 -201h-661q-115 0 -207 30.5t-152 84t-99.5 124t-55 154t-13.5 169.5t21 175q18 86 51.5 169.5t83 165.5t118 151t150 122t185.5 83t219 30q118 0 213.5 -32t157 -88.5t103.5 -130t58.5 -159t15 -172.5t-19.5 -174q-23 -109 -73 -198t-120 -150
t-146 -101t-164 -65z" />
    <glyph glyph-name="R" unicode="R" horiz-adv-x="1333" 
d="M838 823q99 0 179.5 52.5t102.5 148.5q22 95 -33.5 152t-152.5 57h-408l-86 -410h398zM1010 723q88 -3 146 -73.5t36 -170.5l-100 -479h-201q71 344 104 500q11 56 -12 89.5t-78 33.5h-510l-135 -623h-219l309 1434h617q85 0 154.5 -21.5t114 -59.5t73.5 -89t33 -109
t-7 -121q-13 -62 -44.5 -111.5t-66.5 -77.5t-78.5 -49t-72 -28.5t-55.5 -11.5z" />
    <glyph glyph-name="S" unicode="S" horiz-adv-x="1247" 
d="M1133 375q9 57 9 103.5t-17 87t-39.5 72.5t-58.5 58.5t-73.5 47t-86 37t-95 28t-100.5 20.5q-148 27 -211 76t-41 150q20 83 106.5 143t233.5 59q80 0 139 -19t90.5 -51t43 -70.5t1.5 -80.5q0 -6 -2 -12h221q1 3 2 9t2 9q7 42 6.5 84t-16 83t-40 78t-65 68t-91 54
t-118.5 36t-147 13q-139 0 -247 -34.5t-174.5 -95.5t-105 -132t-54.5 -156q-15 -78 1 -142t51 -106.5t92 -75.5t114 -52t127 -33q47 -9 72 -14.5t67.5 -17.5t66 -22.5t52 -28t42 -36.5t20.5 -46.5t1 -59.5q-20 -100 -113.5 -165t-254.5 -65q-69 0 -122 14t-83.5 38t-49 56
t-19.5 67t5 71h-223q-7 -44 -7.5 -89t14.5 -89t38.5 -84t64 -73.5t90.5 -58.5t119.5 -39t149.5 -14q117 0 214 22t163.5 59.5t116 89.5t77.5 108.5t42 120.5z" />
    <glyph glyph-name="T" unicode="T" horiz-adv-x="1140" 
d="M1303 1434l-41 -201h-426l-263 -1233h-219l262 1233h-428l41 201h1074z" />
    <glyph glyph-name="U" unicode="U" horiz-adv-x="1425" 
d="M1087 604q-13 -61 -38.5 -120.5t-66.5 -115.5t-91.5 -98.5t-118 -68t-141.5 -25.5q-75 0 -130 24.5t-84.5 64t-43.5 94t-12.5 110t14.5 115.5l180 850h-221l-174 -828q-15 -70 -16 -141t12.5 -143t48 -133.5t87 -110t135 -76t185.5 -27.5q123 0 230 38.5t182.5 100
t135 143t94 163t51.5 164.5l180 850h-221z" />
    <glyph glyph-name="V" unicode="V" horiz-adv-x="1370" 
d="M1303 1434q-611 -1090 -629 -1123q-14 -26 -26 -53.5t-18 -41.5l-5 -15h-33q0 55 -6 114l-152 1119h-217l189 -1434h346l794 1434h-243z" />
    <glyph glyph-name="W" unicode="W" horiz-adv-x="2226" 
d="M2165 1434q-543 -1104 -561 -1137l-41 -96h-31q0 53 -2 96l-72 1137h-317l-551 -1135l-45 -98h-31q2 55 0 98l-80 1135h-207l72 -1434h363l546 1124q10 21 21 48.5t17 45.5l5 17h35q-1 -7 -2 -19t-2 -41.5t0 -50.5l70 -1124h360l680 1434h-227z" />
    <glyph glyph-name="X" unicode="X" horiz-adv-x="1490" 
d="M1657 1434l-670 -723l369 -715l-250 4l-303 610h-33l-563 -610h-287l674 731l-361 703h248l310 -623l575 623h291z" />
    <glyph glyph-name="Y" unicode="Y" horiz-adv-x="1228" 
d="M739 918q-18 -22 -33.5 -46t-21.5 -38l-6 -13h-33q-2 50 -20 99l-197 514h-211l311 -816l-129 -618h219l132 616l655 818h-252z" />
    <glyph glyph-name="Z" unicode="Z" horiz-adv-x="1251" 
d="M293 225q68 33 166 133l880 904l37 172h-1071l-41 -201h785l-7 -27q-57 -20 -149 -114l-897 -920l-35 -172h1098l41 201h-813z" />
    <glyph glyph-name="bracketleft" unicode="[" horiz-adv-x="604" 
d="M510 1272q94 -21 211 -21h39l41 183h-477l-396 -1860h475l39 182h-41q-52 0 -106.5 -4.5t-83.5 -9.5l-29 -4z" />
    <glyph glyph-name="backslash" unicode="\" horiz-adv-x="878" 
d="M381 1434l309 -1805h-186l-307 1805h184z" />
    <glyph glyph-name="bracketright" unicode="]" horiz-adv-x="604" 
d="M92 -262q-94 18 -211 18h-41l-39 -182h475l396 1860h-473l-39 -183h41q52 0 106.5 5.5t83.5 10.5l29 5z" />
    <glyph glyph-name="asciicircum" unicode="^" horiz-adv-x="1107" 
d="M887 993q-84 430 -84 434q-5 35 -4.5 66t3.5 53l3 21h-31q-16 -74 -59 -140l-269 -434h-213l463 744h240l143 -744h-192z" />
    <glyph glyph-name="underscore" unicode="_" horiz-adv-x="1277" 
d="M18 -25h1014l-39 -182h-1013z" />
    <glyph glyph-name="grave" unicode="`" horiz-adv-x="512" 
d="M377 1837h196l72 -295h-182z" />
    <glyph glyph-name="a" unicode="a" 
d="M817 541q-52 -31 -366 -78q-69 -10 -130 -53t-75 -109q-12 -59 21.5 -101t92.5 -53q54 -8 108 0t120 41q68 34 117.5 87.5t70.5 109.5q4 14 12.5 42.5t12.5 41.5zM1090 199l-43 -201h-160q-58 0 -84 36t-15 93q8 38 40.5 106.5t61.5 118.5l28 49h-33q-5 -10 -14 -27
t-38.5 -65t-60.5 -90t-78.5 -89.5t-93.5 -76.5q-154 -97 -364 -73q-107 11 -169.5 91.5t-37.5 198.5q13 63 43.5 113.5t72 83t86 52.5t95.5 32q76 17 192.5 31t155.5 22q35 6 49.5 9t42 11.5t39.5 17.5t22 26t9 39q-2 59 -58 97t-149 38q-116 0 -198.5 -58t-100.5 -137h-213
q16 72 59.5 138.5t111.5 120.5t166.5 86t213.5 32q77 0 141 -15t109 -41.5t78.5 -63.5t48.5 -80.5t20 -92t-8 -98.5l-84 -391q-3 -18 7 -30.5t28 -12.5h82z" />
    <glyph glyph-name="b" unicode="b" horiz-adv-x="1200" 
d="M547 176q132 0 232.5 92.5t131.5 235.5q29 141 -32.5 231t-190.5 90t-230 -92.5t-132 -234.5q-30 -141 31 -231.5t190 -90.5zM768 1026q90 0 161 -31.5t114 -85.5t69 -125.5t25.5 -151.5t-15.5 -163q-20 -97 -65 -183.5t-112 -156.5t-162.5 -111t-207.5 -41
q-256 0 -313 220h-33q4 -91 -6 -183l-2 -12h-221l305 1434h221l-84 -392q-13 -59 -34 -118.5t-36 -89.5l-14 -29h33q31 45 63 79t77.5 68.5t106 53t130.5 18.5z" />
    <glyph glyph-name="c" unicode="c" horiz-adv-x="1087" 
d="M754 324q-40 -62 -106 -105t-156 -43q-62 0 -106 19.5t-67.5 51.5t-33.5 75.5t-8.5 88t12.5 93.5q11 54 39 108t69.5 102.5t102 78.5t127.5 30q171 0 202 -153h232q-5 68 -33 130t-77.5 113t-129 81t-176.5 30q-99 0 -186 -30t-150 -79t-112.5 -115.5t-80 -137.5
t-46.5 -146q-10 -51 -10.5 -103.5t10 -105.5t30.5 -101.5t54.5 -90.5t78.5 -73.5t104.5 -49t131.5 -17.5q85 0 158.5 20t126.5 52t98.5 79t76.5 94t58 104h-233z" />
    <glyph glyph-name="d" unicode="d" horiz-adv-x="1200" 
d="M293 498q-31 -141 28.5 -231.5t188.5 -90.5q130 0 229 91.5t129 234.5t-29 232t-188 89t-229 -91.5t-129 -233.5zM72 524q21 98 66.5 185t113.5 159t165 114t210 42q59 0 108 -13t81.5 -34.5t57.5 -51t38.5 -59t21.5 -63.5h33q-11 111 18 244l82 387h221l-305 -1434h-221
l4 16q5 41 22.5 85t32.5 68l15 24h-33q-24 -36 -46.5 -63t-57 -58t-72.5 -51t-91 -33t-114 -13q-73 0 -133.5 23t-102 63t-71.5 93.5t-42 114.5t-14 126.5t13 128.5z" />
    <glyph glyph-name="e" unicode="e" horiz-adv-x="1118" 
d="M629 842q-64 0 -121.5 -23.5t-98.5 -62t-70 -82t-46 -90.5l559 2q4 44 -5.5 87t-33.5 82t-71.5 63t-112.5 24zM260 449q-3 -35 -3.5 -74t14.5 -78t38 -70t67.5 -50t102.5 -19q192 0 291 176h221q-22 -48 -48.5 -91t-73.5 -94t-101.5 -87.5t-134 -61.5t-170.5 -25
q-71 0 -131.5 18t-104 49t-77 73.5t-53 91t-29.5 102t-8.5 106.5t12.5 103q20 95 65 182.5t114.5 161.5t171.5 118t222 44q82 0 150.5 -21.5t116.5 -59.5t81 -91t48 -116.5t13.5 -135t-20.5 -147.5z" />
    <glyph glyph-name="f" unicode="f" horiz-adv-x="735" 
d="M311 1087q13 56 31.5 102t52.5 93t79 79t113 52.5t152 20.5h164l-43 -201h-178q-55 0 -93.5 -32.5t-49.5 -84.5l-27 -117h299l-43 -200h-297l-170 -799h-221l170 799h-162l41 200h162z" />
    <glyph glyph-name="g" unicode="g" horiz-adv-x="1212" 
d="M475 127q-200 0 -309.5 130t-67.5 329q43 202 184 320t341 118q74 0 138 -23t110.5 -68t64 -111.5t-1.5 -153.5q3 -19 21.5 -28.5t38.5 -12t33.5 -16t8.5 -40.5q-41 -200 -196 -322t-365 -122zM510 309q126 0 222.5 75.5t121.5 193.5q25 117 -38.5 190.5t-188.5 73.5
q-127 0 -223.5 -76t-122.5 -195q-22 -111 43.5 -186.5t185.5 -75.5zM373 -432q149 0 256.5 42t122.5 107q13 65 -77 105.5t-237 40.5q-151 0 -257.5 -42t-119.5 -108q-13 -65 74.5 -105t237.5 -40zM172 -57h-61q-67 0 -100.5 34.5t-20.5 94.5q12 59 58 90t114 31h22l9 36
l288 -61l-10 -41h-231q-30 0 -52 -13.5t-28 -39.5t10 -37.5t47 -11.5h252q247 0 379.5 -97t103.5 -235q-29 -131 -199.5 -209t-408.5 -78q-239 0 -377.5 85.5t-111.5 209.5q11 54 46.5 95t84 63.5t92 34.5t86.5 16zM967 668q4 176 20 254q6 34 32 55.5t60 21.5h195l-41 -200
h-107q-41 0 -51 -41l-39 -187l-168 -22l66 119h33z" />
    <glyph glyph-name="h" unicode="h" horiz-adv-x="1189" 
d="M1090 547q12 57 13.5 112.5t-10 112.5t-37.5 104t-74.5 84t-115.5 54q-141 34 -279.5 -37.5t-219.5 -245.5h-33q78 142 98 238l98 465h-219l-305 -1434h221l68 322q21 108 70 276q19 58 51.5 108.5t77 89t103.5 54t124 0.5q200 -41 145 -307l-112 -543h219z" />
    <glyph glyph-name="i" unicode="i" horiz-adv-x="503" 
d="M473 887q10 51 -15.5 81.5t-76.5 30.5h-236l-43 -200h82q21 0 33 -15.5t6 -38.5l-160 -745h222zM453 1255q-54 0 -86.5 39.5t-22.5 91.5q9 41 44 68t75 27q53 0 83.5 -37.5t20.5 -91.5q-7 -39 -42 -68t-72 -29z" />
    <glyph glyph-name="j" unicode="j" horiz-adv-x="528" 
d="M498 891q9 47 -12.5 77.5t-67.5 30.5h-258l-43 -200h88q21 0 33 -15t6 -39l-211 -1001q-11 -51 -47.5 -82t-87.5 -31h-166l-62 -200h215q150 0 243 82.5t120 203.5zM465 1255q-55 0 -87.5 39t-21.5 92q7 40 42.5 67.5t76.5 27.5q52 0 83.5 -38t21.5 -91q-9 -39 -43.5 -68
t-71.5 -29z" />
    <glyph glyph-name="k" unicode="k" horiz-adv-x="1052" 
d="M532 1434l-188 -883h47l481 448h273l-580 -550l-8 -33l352 -418l-258 2l-295 352h-55l-74 -352h-221l305 1434h221z" />
    <glyph glyph-name="l" unicode="l" horiz-adv-x="466" 
d="M319 1434h220l-303 -1434h-220z" />
    <glyph glyph-name="m" unicode="m" horiz-adv-x="1921" 
d="M1819 547q12 56 14.5 110.5t-8.5 112t-37 104.5t-75 84.5t-118 55.5q-138 37 -280 -35.5t-232 -247.5h-32q6 11 3.5 34t-7 50t-19.5 57.5t-34.5 57.5t-53 50t-74.5 34q-138 38 -279 -36.5t-220 -246.5h-33q74 123 94 219l12 49h-221l-213 -999h221l68 322q26 125 70 276
q26 79 72.5 141t119.5 96.5t156 16.5q58 -12 95.5 -44t51 -74t16.5 -92t-10 -99l-112 -543h204l68 322q25 129 68 276q19 58 51 108.5t75.5 88.5t102 54t121.5 3q209 -44 153 -309l-112 -543h219z" />
    <glyph glyph-name="n" unicode="n" horiz-adv-x="1189" 
d="M1090 547q12 57 13.5 112.5t-10 112.5t-37.5 104t-74.5 84t-115.5 54q-139 34 -278.5 -37.5t-220.5 -245.5h-33q69 123 94 219l12 49h-221l-213 -999h221l68 322q21 108 70 276q19 58 51.5 108.5t77 89t103.5 54t124 0.5q202 -40 145 -307l-112 -543h219z" />
    <glyph glyph-name="o" unicode="o" horiz-adv-x="1122" 
d="M465 141q81 0 150.5 33.5t116.5 89.5t79 119.5t47 132.5q10 50 11.5 97t-10 92.5t-35 78.5t-67.5 53.5t-104 20.5q-81 0 -150.5 -33.5t-116.5 -89.5t-79 -119.5t-47 -132.5q-10 -50 -11.5 -97t10 -92.5t35 -78.5t67.5 -53.5t104 -20.5zM651 1024q88 0 158 -22.5
t116 -62.5t76.5 -92t42.5 -113t11 -124t-15 -127q-15 -73 -44.5 -142.5t-79.5 -136.5t-113 -117.5t-150 -81t-186 -30.5q-88 0 -159 22.5t-116.5 62.5t-76.5 91.5t-42.5 113t-11 124.5t14.5 127q15 73 45 142.5t80 136.5t113 117.5t150.5 81t186.5 30.5z" />
    <glyph glyph-name="p" unicode="p" horiz-adv-x="1200" 
d="M909 502q30 142 -29 231.5t-192 89.5q-131 0 -232 -91.5t-130 -233.5q-28 -141 32 -231.5t189 -90.5q133 0 232.5 91.5t129.5 234.5zM1122 475q-21 -98 -66 -185t-112.5 -159t-164.5 -114t-210 -42q-73 0 -130 19.5t-91.5 53t-55 70t-30.5 79.5h-33q11 -111 -20 -244
l-111 -522h-219l334 1568h219l-2 -16q-4 -40 -21.5 -84t-32.5 -68l-16 -24h31q31 46 61 79t75.5 67.5t107.5 52.5t137 18q73 0 133.5 -23t102 -63t71.5 -93.5t42 -114.5t14 -126.5t-13 -128.5z" />
    <glyph glyph-name="q" unicode="q" horiz-adv-x="1200" 
d="M649 823q-132 0 -231.5 -91t-132.5 -234q-30 -143 30.5 -232.5t192.5 -89.5q130 0 230.5 92t129.5 234q30 141 -30 231t-189 90zM430 -25q-141 0 -234 82.5t-122.5 208.5t0.5 266q16 77 47 147.5t79 133.5t108.5 109.5t140.5 74t169 27.5q76 0 135 -19.5t94.5 -53
t56 -69.5t30.5 -79h33q-6 92 4 184l2 12h221l-332 -1568h-223l113 524q13 60 34.5 119.5t36.5 89.5l15 29h-33q-31 -45 -62.5 -79t-77 -68t-105.5 -52.5t-130 -18.5z" />
    <glyph glyph-name="r" unicode="r" horiz-adv-x="854" 
d="M918 999q-102 0 -194.5 -42.5t-161.5 -114.5t-120 -154.5t-86 -175.5h-45q138 326 158 420q7 33 -11 50t-59 17h-254l-43 -200h101q15 0 26.5 -13t8.5 -28l-164 -758h223l51 244q15 67 38.5 134t66.5 145.5t97 137.5t134 98.5t172 39.5z" />
    <glyph glyph-name="s" unicode="s" horiz-adv-x="978" 
d="M872 301q13 73 -4.5 127t-56.5 83.5t-91.5 50.5t-109.5 29.5t-111 19t-95 20.5t-62 32t-12 56q14 60 78 91.5t145 31.5q93 0 145.5 -32.5t36.5 -96.5q-1 -3 -2 -8.5t-2 -8.5h205q0 9 4 21q27 129 -76 218t-297 89q-196 0 -311.5 -83.5t-140.5 -215.5q-15 -76 9 -128.5
t73.5 -78.5t112 -42t126.5 -26.5t116 -24.5t80.5 -43t20.5 -75q-9 -49 -49 -84t-90 -50t-104 -15q-110 0 -164.5 38t-36.5 111h-203q-29 -140 71.5 -236t301.5 -96q110 0 200 26.5t149.5 72.5t95.5 103.5t48 123.5z" />
    <glyph glyph-name="t" unicode="t" horiz-adv-x="747" 
d="M158 362q-17 -70 -3.5 -135t47 -115.5t98 -81t149.5 -30.5h149l43 201h-178q-58 0 -82 33t-12 90l102 475h297l43 200h-299l92 435h-219l-92 -435h-164l-41 -200h164z" />
    <glyph glyph-name="u" unicode="u" horiz-adv-x="1189" 
d="M98 453q-12 -57 -14 -112.5t9.5 -113t37.5 -104.5t75 -84t116 -53q89 -21 180 -0.5t177.5 93t139.5 189.5h33q-69 -123 -94 -219l-13 -49h222l213 999h-222l-67 -321q-26 -132 -68 -277q-41 -125 -136.5 -201.5t-221.5 -49.5q-202 43 -146 307l113 542h-219z" />
    <glyph glyph-name="v" unicode="v" horiz-adv-x="1058" 
d="M535 346q-19 -33 -35.5 -69.5t-23.5 -56.5l-7 -21l-33 2q6 73 -4 149l-96 649h-217l135 -999h334l561 999h-240z" />
    <glyph glyph-name="w" unicode="w" horiz-adv-x="1828" 
d="M1317 328q-17 -34 -31.5 -65.5t-19.5 -46.5l-6 -15h-33q0 51 -4 127l-60 671h-311q-338 -655 -346 -667l-62 -131h-30q-2 55 -6 131l-64 667h-215l92 -999h334l350 672q16 33 30 65t20 48l6 16h32q-4 -55 0 -129l60 -672h336l520 999h-244z" />
    <glyph glyph-name="x" unicode="x" horiz-adv-x="1030" 
d="M1116 999l-424 -516l213 -483h-211l-174 403h-31l-323 -403h-242l428 545l-227 454h219l195 -395l331 395h246z" />
    <glyph glyph-name="y" unicode="y" horiz-adv-x="1075" 
d="M549 346q-26 -43 -44.5 -79.5t-24.5 -52.5l-5 -15h-33q8 55 -10 151l-102 649h-211l149 -999h90l-161 -283q-26 -43 -68.5 -70.5t-91.5 -27.5h-187l-40 -188h202q140 0 238.5 67t152.5 164l762 1337h-237z" />
    <glyph glyph-name="z" unicode="z" horiz-adv-x="993" 
d="M684 786q-69 -17 -160 -102q-28 -24 -158 -149t-246 -238l-116 -113l-41 -184h834l39 182h-562l7 31q6 1 13.5 4t13.5 6t14.5 9t14 9.5t15.5 11.5l15 12t16.5 14t16 14t16.5 14.5t16 14.5q21 17 153.5 140.5t254.5 237.5l123 115l41 184h-793l-39 -182h518z" />
    <glyph glyph-name="braceleft" unicode="{" horiz-adv-x="700" 
d="M244 520q108 0 179.5 71t92.5 165l47 227q11 49 33.5 93t57 82.5t86.5 59.5t114 17l43 199q-121 8 -222 -31.5t-169 -114t-111.5 -164.5t-62.5 -192l-41 -191q-15 -68 -64 -118t-125 -50l-28 -139q76 0 102.5 -50t11.5 -118l-41 -192q-14 -53 -10.5 -109.5t15 -110.5
t42 -103t71 -86.5t101.5 -62t134 -28.5l43 195q-62 4 -105 30t-61 65t-24 86.5t7 94.5l41 197q12 41 6 84.5t-23 79t-55 58.5t-91 23z" />
    <glyph glyph-name="bar" unicode="|" horiz-adv-x="669" 
d="M438 1434h189l-398 -1860h-188z" />
    <glyph glyph-name="braceright" unicode="}" horiz-adv-x="702" 
d="M455 487q-56 0 -104 -21.5t-80.5 -57.5t-53.5 -77t-31 -85l-47 -217q-11 -48 -35 -94t-60.5 -85t-89.5 -61.5t-112 -19.5l-41 -195q104 -6 191 19t147.5 70.5t107.5 110t73.5 131.5t41.5 142l48 219q14 68 62 118t124 50l31 139q-76 0 -104 50.5t-13 117.5l41 193
q9 44 10.5 90.5t-6.5 94t-25 91.5t-47 83.5t-69 69t-94 48.5t-121 23l-45 -199q62 -4 105 -31t60.5 -66.5t23 -88t-6.5 -95.5l-41 -192q-21 -91 23 -166.5t143 -75.5z" />
    <glyph glyph-name="asciitilde" unicode="~" horiz-adv-x="1191" 
d="M936 879q-9 -43 -16.5 -69t-20.5 -53t-33 -39.5t-47 -12.5q-31 0 -81 26.5t-96 58t-103.5 58t-102.5 26.5q-41 0 -76.5 -12t-61.5 -31t-48 -50t-36.5 -60.5t-28.5 -72.5t-22 -75.5t-18 -78.5h185q8 33 11.5 47t11.5 39.5t15.5 36.5t18.5 25t25.5 19t33.5 5q32 0 82 -26
t96 -58t103.5 -58t101.5 -26q57 0 103 23.5t74 56.5t52 89.5t36 100.5t26 111h-184z" />
    <glyph glyph-name="sterling" unicode="&#xa3;" horiz-adv-x="1253" 
d="M932 256q-13 -55 -70 -55h-368q-52 0 -139.5 -8.5t-149.5 -16.5l-62 -8l7 33q75 21 134.5 64.5t95 98.5t58.5 120t25 130t-6 129h501l27 134h-524q-5 45 7 97t42 102t72.5 90.5t104.5 65.5t132 25q66 0 114 -20.5t71 -53.5t32.5 -65t7.5 -63h209q4 55 -6 108.5t-40 107.5
t-77 95t-124 66.5t-175 25.5q-122 0 -225 -39.5t-169.5 -102t-112.5 -140.5t-64.5 -154.5t-15.5 -144.5h-111l-29 -134h144q20 -81 11 -166.5t-38 -159t-90 -131.5t-145 -85l-43 -201h946q178 18 215 184l37 174h-189z" />
    <glyph glyph-name="yen" unicode="&#xa5;" horiz-adv-x="1269" 
d="M760 918q-18 -22 -33.5 -46t-22.5 -38l-6 -13h-32q-3 50 -21 99l-196 514h-211l311 -816l-129 -618h219l131 616l655 818h-251zM283 711l-29 -133h799l28 133h-798zM221 430l-26 -133h798l27 133h-799z" />
    <glyph glyph-name="section" unicode="&#xa7;" horiz-adv-x="1030" 
d="M532 592q42 0 82 7.5t76 22.5t59 41t25 60q4 66 -64.5 98.5t-160.5 32.5q-41 0 -81 -7t-76.5 -22t-59.5 -41.5t-25 -60.5q-4 -65 65 -98t160 -33zM592 1036q122 0 216 -31t145.5 -94.5t39.5 -150.5q-8 -54 -40.5 -97t-72.5 -67t-86 -40.5t-77.5 -22t-48.5 -5.5l-4 -32
q38 -1 79.5 -17.5t78 -46t56.5 -78.5t11 -106q-14 -125 -129 -199t-299 -74q-183 0 -286 88t-89 216q1 3 2 9t2 9h215q-1 -3 -2 -9t-2 -9q-1 -57 50.5 -89t131.5 -32q79 0 132.5 32t56.5 89q4 59 -45 90.5t-129 31.5q-79 0 -152.5 17.5t-135.5 51.5t-95.5 92.5t-24.5 131.5
q8 54 40 96.5t72.5 65.5t86.5 38.5t77 20.5t50 5l6 32q-79 4 -159 74t-68 164q14 124 129.5 196t304.5 72q188 0 291.5 -83.5t89.5 -209.5q-4 -16 -4 -24h-215v14q4 57 -49 89t-138 32q-82 0 -136.5 -32t-57.5 -89q-3 -55 48.5 -87t133.5 -32z" />
    <glyph glyph-name="dieresis" unicode="&#xa8;" horiz-adv-x="825" 
d="M477 1612q-53 0 -84.5 38.5t-21.5 92.5q7 39 42.5 66.5t75.5 27.5q52 0 83.5 -38t19.5 -91q-7 -39 -41.5 -67.5t-73.5 -28.5zM856 1612q-54 0 -86 38.5t-20 92.5q7 40 41.5 67t76.5 27q51 0 82.5 -38t18.5 -91q-7 -39 -41.5 -67.5t-71.5 -28.5z" />
    <glyph glyph-name="copyright" unicode="&#xa9;" horiz-adv-x="1662" 
d="M614 709q11 53 37.5 104.5t66.5 95t97.5 70.5t122.5 27q139 0 166 -132h160q-4 33 -13.5 64.5t-33 70.5t-57.5 67t-91.5 47.5t-130.5 19.5q-83 0 -155.5 -25t-125 -66t-94 -95.5t-66 -112t-36.5 -117.5q-11 -52 -12 -102t9 -99.5t34.5 -91t62 -73.5t95.5 -50t130 -18
q71 0 134.5 18.5t106.5 45t80.5 64t57.5 65.5t37 59h-188q-36 -48 -97.5 -81.5t-132.5 -33.5q-61 0 -101 25.5t-54.5 65.5t-18 90t9.5 98zM702 109q127 0 253.5 49t228.5 132.5t177 199.5t103 243q33 162 -17 298.5t-170 215t-282 78.5q-169 0 -331.5 -83.5t-278.5 -227.5
t-152 -314q-34 -162 16 -298t170 -214.5t283 -78.5zM989 1458q124 0 233.5 -38.5t187.5 -107.5t130.5 -164.5t64.5 -208.5t-12 -239q-31 -148 -117 -282t-204 -231t-265.5 -154.5t-297.5 -57.5q-125 0 -234 38.5t-187.5 107.5t-131 164.5t-64.5 208.5t12 239q41 197 174 364
t322 264t389 97z" />
    <glyph glyph-name="guillemotleft" unicode="&#xab;" horiz-adv-x="1327" 
d="M647 0q-262 404 -266 406q-30 39 -57 58t-39 19v31q8 0 31 8t59.5 28t66.5 46l439 403h-260l-541 -499l326 -500h241zM1108 0q-262 404 -264 406q-27 39 -56 58t-43 19v31q8 0 30.5 7t59.5 26t68 45l436 407h-258l-540 -499l327 -500h240z" />
    <glyph glyph-name="registered" unicode="&#xae;" horiz-adv-x="954" 
d="M479 754q82 0 152 28.5t117 75.5t77.5 101t42.5 112q7 44 7.5 87.5t-17 84.5t-45.5 72t-78.5 50t-116.5 19q-83 0 -153 -28.5t-116.5 -75.5t-76 -101t-41.5 -112q-7 -44 -8 -87.5t16 -84.5t45 -72t78.5 -50t116.5 -19zM629 1458q70 0 125.5 -16t92 -45t61 -66.5
t34.5 -81.5t10 -89.5t-10 -92.5q-15 -70 -50.5 -136t-92 -123.5t-142.5 -92.5t-188 -35q-70 0 -126 16t-93 45t-61.5 66.5t-34.5 81.5t-10 89.5t10 92.5q15 71 51 136.5t92.5 123t142.5 92.5t189 35zM584 1114q25 0 44.5 13.5t22.5 35.5q4 21 -9.5 34t-37.5 13h-100l-19 -96
h99zM637 1073q29 0 42 -18.5t7 -48.5l-29 -146h-73q22 107 32 152q3 14 -5 23t-23 9h-121l-39 -184h-76l88 420h183q60 0 88.5 -32t19.5 -79q-13 -57 -92 -88z" />
    <glyph glyph-name="plusminus" unicode="&#xb1;" horiz-adv-x="1124" 
d="M76 160h825l-35 -160h-825zM774 1073l-61 -295h319l-39 -180h-319l-62 -293h-186l61 293h-319l39 180h319l62 295h186z" />
    <glyph glyph-name="acute" unicode="&#xb4;" horiz-adv-x="526" 
d="M713 1837l-213 -295h-195l199 295h209z" />
    <glyph glyph-name="periodcentered" unicode="&#xb7;" horiz-adv-x="507" 
d="M244 369q-65 0 -102.5 44t-24.5 107q9 51 52.5 86t96.5 35q61 0 98.5 -46t24.5 -108q-10 -50 -52.5 -84t-92.5 -34z" />
    <glyph glyph-name="guillemotright" unicode="&#xbb;" horiz-adv-x="1316" 
d="M436 0h258l539 500l-326 499h-241q260 -399 264 -403q26 -38 54 -60t40 -22v-31q-9 0 -29.5 -6.5t-55.5 -25t-65 -45.5zM-27 0h258l541 500l-328 499h-241q264 -403 266 -407q29 -38 56.5 -58t39.5 -20v-31q-9 0 -30 -6t-57 -25t-66 -46z" />
    <glyph glyph-name="Aacute" unicode="&#xc1;" horiz-adv-x="1349" 
d="M1010 1434l211 -1434h-193l-47 328h-676l-184 -328h-209l817 1434h281zM410 510h544l-100 723h-33zM1202 1835l-213 -295h-194l198 295h209z" />
    <glyph glyph-name="Acircumflex" unicode="&#xc2;" horiz-adv-x="1349" 
d="M1010 1434l211 -1434h-193l-47 328h-676l-184 -328h-209l817 1434h281zM410 510h544l-100 723h-33zM1077 1835l125 -256h-184l-74 147h-12l-135 -147h-205l231 256h254z" />
    <glyph glyph-name="Adieresis" unicode="&#xc4;" horiz-adv-x="1349" 
d="M1010 1434l211 -1434h-193l-47 328h-676l-184 -328h-209l817 1434h281zM410 510h544l-100 723h-33zM737 1612q-53 0 -84.5 38.5t-21.5 92.5q7 39 43 66.5t76 27.5q52 0 83 -38t19 -91q-7 -39 -41.5 -67.5t-73.5 -28.5zM1116 1612q-54 0 -86 38.5t-20 92.5q7 40 41.5 67
t76.5 27q51 0 82.5 -38t18.5 -91q-7 -39 -41.5 -67.5t-71.5 -28.5z" />
    <glyph glyph-name="Aring" unicode="&#xc5;" horiz-adv-x="1349" 
d="M1010 1434l211 -1434h-193l-47 328h-676l-184 -328h-209l817 1434h281zM410 510h544l-100 723h-33zM922 1712q60 0 98.5 36.5t48.5 84.5q9 47 -10 81t-76 34t-95 -36t-48 -83q-9 -49 9 -83t73 -34zM993 2087q85 0 141.5 -43t74 -103.5t3.5 -123.5q-10 -48 -31 -89
t-56 -76.5t-89.5 -56t-122.5 -20.5q-84 0 -140 43t-74 103.5t-5 123.5q10 47 31.5 88t56.5 76.5t89 56.5t122 21z" />
    <glyph glyph-name="Eacute" unicode="&#xc9;" horiz-adv-x="1148" 
d="M1241 1434l-41 -201h-678l-88 -408h613l-43 -194h-611l-92 -430h678l-41 -201h-899l305 1434h897zM1100 1837l-213 -295h-195l199 295h209z" />
    <glyph glyph-name="Ecircumflex" unicode="&#xca;" horiz-adv-x="1148" 
d="M1241 1434l-41 -201h-678l-88 -408h613l-43 -194h-611l-92 -430h678l-41 -201h-899l305 1434h897zM993 1837l125 -256h-184l-74 148h-12l-135 -148h-205l231 256h254z" />
    <glyph glyph-name="Edieresis" unicode="&#xcb;" horiz-adv-x="1148" 
d="M1241 1434l-41 -201h-678l-88 -408h613l-43 -194h-611l-92 -430h678l-41 -201h-899l305 1434h897zM647 1612q-53 0 -84.5 38.5t-21.5 92.5q7 39 42.5 66.5t75.5 27.5q52 0 83.5 -38t19.5 -91q-7 -39 -41.5 -67.5t-73.5 -28.5zM1026 1612q-54 0 -86 38.5t-20 92.5
q7 40 41.5 67t76.5 27q51 0 82.5 -38t18.5 -91q-7 -39 -41.5 -67.5t-71.5 -28.5z" />
    <glyph glyph-name="Igrave" unicode="&#xcc;" horiz-adv-x="546" 
d="M365 1434h219l-303 -1434h-220zM301 1835h197l71 -295h-182z" />
    <glyph glyph-name="Iacute" unicode="&#xcd;" horiz-adv-x="540" 
d="M354 1434h219l-303 -1434h-219zM799 1835l-213 -295h-195l199 295h209z" />
    <glyph glyph-name="Icircumflex" unicode="&#xce;" horiz-adv-x="542" 
d="M344 1434h219l-303 -1434h-219zM678 1835l125 -256h-185l-73 147h-13l-135 -147h-204l231 256h254z" />
    <glyph glyph-name="Idieresis" unicode="&#xcf;" horiz-adv-x="534" 
d="M344 1434h219l-303 -1434h-219zM330 1610q-53 0 -85 38.5t-22 92.5q7 39 43 66.5t76 27.5q52 0 83 -38t19 -91q-7 -39 -41 -67.5t-73 -28.5zM709 1610q-54 0 -86.5 38.5t-20.5 92.5q7 39 42 66.5t77 27.5q51 0 82 -38t18 -91q-7 -39 -41 -67.5t-71 -28.5z" />
    <glyph glyph-name="Oacute" unicode="&#xd3;" horiz-adv-x="1513" 
d="M668 176q97 0 184.5 33.5t153 88.5t118.5 128t86 151t50 158q16 75 16.5 147t-19 140.5t-57.5 120t-106.5 83t-159.5 31.5q-120 0 -224.5 -50t-177 -132.5t-120.5 -178t-70 -196.5q-16 -75 -16.5 -147.5t18.5 -141.5t57 -120.5t106.5 -83t160.5 -31.5zM942 1458
q119 0 215 -31.5t158.5 -87.5t104.5 -129t58.5 -159t15 -174.5t-20.5 -178.5q-22 -103 -65 -203t-114.5 -195t-160.5 -166.5t-211.5 -115t-259.5 -43.5q-103 0 -188.5 23.5t-146 65.5t-105.5 99.5t-70 124t-36 141.5t-8 150.5t19 151.5q23 105 67 205t115.5 195.5t161 167.5
t212 115.5t259.5 43.5zM1278 1837l-213 -295h-195l199 295h209z" />
    <glyph glyph-name="Ocircumflex" unicode="&#xd4;" horiz-adv-x="1513" 
d="M668 176q97 0 184.5 33.5t153 88.5t118.5 128t86 151t50 158q16 75 16.5 147t-19 140.5t-57.5 120t-106.5 83t-159.5 31.5q-120 0 -224.5 -50t-177 -132.5t-120.5 -178t-70 -196.5q-16 -75 -16.5 -147.5t18.5 -141.5t57 -120.5t106.5 -83t160.5 -31.5zM942 1458
q119 0 215 -31.5t158.5 -87.5t104.5 -129t58.5 -159t15 -174.5t-20.5 -178.5q-22 -103 -65 -203t-114.5 -195t-160.5 -166.5t-211.5 -115t-259.5 -43.5q-103 0 -188.5 23.5t-146 65.5t-105.5 99.5t-70 124t-36 141.5t-8 150.5t19 151.5q23 105 67 205t115.5 195.5t161 167.5
t212 115.5t259.5 43.5zM1169 1837l125 -256h-184l-74 148h-12l-135 -148h-205l231 256h254z" />
    <glyph glyph-name="Odieresis" unicode="&#xd6;" horiz-adv-x="1513" 
d="M668 176q97 0 184.5 33.5t153 88.5t118.5 128t86 151t50 158q16 75 16.5 147t-19 140.5t-57.5 120t-106.5 83t-159.5 31.5q-120 0 -224.5 -50t-177 -132.5t-120.5 -178t-70 -196.5q-16 -75 -16.5 -147.5t18.5 -141.5t57 -120.5t106.5 -83t160.5 -31.5zM942 1458
q119 0 215 -31.5t158.5 -87.5t104.5 -129t58.5 -159t15 -174.5t-20.5 -178.5q-22 -103 -65 -203t-114.5 -195t-160.5 -166.5t-211.5 -115t-259.5 -43.5q-103 0 -188.5 23.5t-146 65.5t-105.5 99.5t-70 124t-36 141.5t-8 150.5t19 151.5q23 105 67 205t115.5 195.5t161 167.5
t212 115.5t259.5 43.5zM825 1612q-53 0 -84.5 38.5t-21.5 92.5q7 39 43 66.5t76 27.5q52 0 83 -38t19 -91q-7 -39 -41.5 -67.5t-73.5 -28.5zM1204 1612q-54 0 -86 38.5t-20 92.5q7 39 42 66.5t77 27.5q51 0 82 -38t18 -91q-7 -39 -41.5 -67.5t-71.5 -28.5z" />
    <glyph glyph-name="multiply" unicode="&#xd7;" horiz-adv-x="1067" 
d="M971 911l-281 -231l191 -231l-140 -121l-180 223l-287 -238l-114 144l280 233l-182 221l141 117l170 -209l273 223z" />
    <glyph glyph-name="Oslash" unicode="&#xd8;" horiz-adv-x="1523" 
d="M688 176q97 0 184.5 33.5t153 88.5t118.5 128t86 151t50 158q16 75 16.5 147t-19 140.5t-57.5 120t-106.5 83t-159.5 31.5q-120 0 -224.5 -50t-177 -132.5t-120.5 -178t-70 -196.5q-16 -75 -16.5 -147.5t18.5 -141.5t57 -120.5t106.5 -83t160.5 -31.5zM963 1458
q119 0 215 -31.5t158.5 -87.5t104.5 -129t58 -159t14.5 -174.5t-20.5 -178.5q-22 -103 -65 -203t-114.5 -195t-160.5 -166.5t-211.5 -115t-259.5 -43.5q-103 0 -188.5 23.5t-146 65.5t-105.5 99.5t-70 124t-36 141.5t-8 150.5t19 151.5q23 105 67 205t116 195.5t161.5 167.5
t212 115.5t259.5 43.5zM1620 1448l-1413 -1462h-252l1415 1462h250z" />
    <glyph glyph-name="Uacute" unicode="&#xda;" horiz-adv-x="1425" 
d="M1087 604q-13 -61 -38.5 -120.5t-66.5 -115.5t-91.5 -98.5t-118 -68t-141.5 -25.5q-75 0 -130 24.5t-84.5 64t-43.5 94t-12.5 110t14.5 115.5l180 850h-221l-174 -828q-15 -70 -16 -141t12.5 -143t48 -133.5t87 -110t135 -76t185.5 -27.5q123 0 230 38.5t182.5 100
t135 143t94 163t51.5 164.5l180 850h-221zM1237 1837l-213 -295h-195l199 295h209z" />
    <glyph glyph-name="Udieresis" unicode="&#xdc;" horiz-adv-x="1425" 
d="M1087 604q-13 -61 -38.5 -120.5t-66.5 -115.5t-91.5 -98.5t-118 -68t-141.5 -25.5q-75 0 -130 24.5t-84.5 64t-43.5 94t-12.5 110t14.5 115.5l180 850h-221l-174 -828q-15 -70 -16 -141t12.5 -143t48 -133.5t87 -110t135 -76t185.5 -27.5q123 0 230 38.5t182.5 100
t135 143t94 163t51.5 164.5l180 850h-221zM801 1612q-53 0 -85 38.5t-22 92.5q7 39 43 66.5t76 27.5q52 0 83 -38t19 -91q-7 -39 -41 -67.5t-73 -28.5zM1180 1612q-54 0 -86.5 38.5t-20.5 92.5q7 39 42 66.5t77 27.5q51 0 82 -38t18 -91q-7 -39 -41 -67.5t-71 -28.5z" />
    <glyph glyph-name="Yacute" unicode="&#xdd;" horiz-adv-x="1228" 
d="M739 918q-18 -22 -33.5 -46t-21.5 -38l-6 -13h-33q-2 50 -20 99l-197 514h-211l311 -816l-129 -618h219l132 616l655 818h-252zM1110 1837l-213 -295h-195l199 295h209z" />
    <glyph glyph-name="aacute" unicode="&#xe1;" 
d="M817 541q-52 -31 -366 -78q-69 -10 -130 -53t-75 -109q-12 -59 21.5 -101t92.5 -53q54 -8 108 0t120 41q68 34 117.5 87.5t70.5 109.5q4 14 12.5 42.5t12.5 41.5zM1090 199l-43 -201h-160q-58 0 -84 36t-15 93q8 38 40.5 106.5t61.5 118.5l28 49h-33q-5 -10 -14 -27
t-38.5 -65t-60.5 -90t-78.5 -89.5t-93.5 -76.5q-154 -97 -364 -73q-107 11 -169.5 91.5t-37.5 198.5q13 63 43.5 113.5t72 83t86 52.5t95.5 32q76 17 192.5 31t155.5 22q35 6 49.5 9t42 11.5t39.5 17.5t22 26t9 39q-2 59 -58 97t-149 38q-116 0 -198.5 -58t-100.5 -137h-213
q16 72 59.5 138.5t111.5 120.5t166.5 86t213.5 32q77 0 141 -15t109 -41.5t78.5 -63.5t48.5 -80.5t20 -92t-8 -98.5l-84 -391q-3 -18 7 -30.5t28 -12.5h82zM1047 1481l-213 -295h-195l199 295h209z" />
    <glyph glyph-name="acircumflex" unicode="&#xe2;" 
d="M817 541q-52 -31 -366 -78q-69 -10 -130 -53t-75 -109q-12 -59 21.5 -101t92.5 -53q54 -8 108 0t120 41q68 34 117.5 87.5t70.5 109.5q4 14 12.5 42.5t12.5 41.5zM1090 199l-43 -201h-160q-58 0 -84 36t-15 93q8 38 40.5 106.5t61.5 118.5l28 49h-33q-5 -10 -14 -27
t-38.5 -65t-60.5 -90t-78.5 -89.5t-93.5 -76.5q-154 -97 -364 -73q-107 11 -169.5 91.5t-37.5 198.5q13 63 43.5 113.5t72 83t86 52.5t95.5 32q76 17 192.5 31t155.5 22q35 6 49.5 9t42 11.5t39.5 17.5t22 26t9 39q-2 59 -58 97t-149 38q-116 0 -198.5 -58t-100.5 -137h-213
q16 72 59.5 138.5t111.5 120.5t166.5 86t213.5 32q77 0 141 -15t109 -41.5t78.5 -63.5t48.5 -80.5t20 -92t-8 -98.5l-84 -391q-3 -18 7 -30.5t28 -12.5h82zM963 1481l124 -256h-184l-74 147h-12l-135 -147h-205l232 256h254z" />
    <glyph glyph-name="adieresis" unicode="&#xe4;" 
d="M817 541q-52 -31 -366 -78q-69 -10 -130 -53t-75 -109q-12 -59 21.5 -101t92.5 -53q54 -8 108 0t120 41q68 34 117.5 87.5t70.5 109.5q4 14 12.5 42.5t12.5 41.5zM1090 199l-43 -201h-160q-58 0 -84 36t-15 93q8 38 40.5 106.5t61.5 118.5l28 49h-33q-5 -10 -14 -27
t-38.5 -65t-60.5 -90t-78.5 -89.5t-93.5 -76.5q-154 -97 -364 -73q-107 11 -169.5 91.5t-37.5 198.5q13 63 43.5 113.5t72 83t86 52.5t95.5 32q76 17 192.5 31t155.5 22q35 6 49.5 9t42 11.5t39.5 17.5t22 26t9 39q-2 59 -58 97t-149 38q-116 0 -198.5 -58t-100.5 -137h-213
q16 72 59.5 138.5t111.5 120.5t166.5 86t213.5 32q77 0 141 -15t109 -41.5t78.5 -63.5t48.5 -80.5t20 -92t-8 -98.5l-84 -391q-3 -18 7 -30.5t28 -12.5h82zM629 1255q-53 0 -85 38.5t-22 92.5q7 39 43 67t76 28q52 0 83 -38t19 -91q-7 -40 -41.5 -68.5t-72.5 -28.5z
M1008 1255q-54 0 -86.5 38.5t-20.5 92.5q7 40 42.5 67.5t76.5 27.5q51 0 82 -38t18 -91q-7 -39 -41 -68t-71 -29z" />
    <glyph glyph-name="aring" unicode="&#xe5;" 
d="M817 541q-52 -31 -366 -78q-69 -10 -130 -53t-75 -109q-12 -59 21.5 -101t92.5 -53q54 -8 108 0t120 41q68 34 117.5 87.5t70.5 109.5q4 14 12.5 42.5t12.5 41.5zM1090 199l-43 -201h-160q-58 0 -84 36t-15 93q8 38 40.5 106.5t61.5 118.5l28 49h-33q-5 -10 -14 -27
t-38.5 -65t-60.5 -90t-78.5 -89.5t-93.5 -76.5q-154 -97 -364 -73q-107 11 -169.5 91.5t-37.5 198.5q13 63 43.5 113.5t72 83t86 52.5t95.5 32q76 17 192.5 31t155.5 22q35 6 49.5 9t42 11.5t39.5 17.5t22 26t9 39q-2 59 -58 97t-149 38q-116 0 -198.5 -58t-100.5 -137h-213
q16 72 59.5 138.5t111.5 120.5t166.5 86t213.5 32q77 0 141 -15t109 -41.5t78.5 -63.5t48.5 -80.5t20 -92t-8 -98.5l-84 -391q-3 -18 7 -30.5t28 -12.5h82zM780 1362q60 0 99 36.5t49 84.5q9 47 -10 80.5t-76 33.5t-95.5 -36t-48.5 -82q-9 -49 9 -83t73 -34zM852 1737
q65 0 114 -25.5t73 -65t34.5 -87.5t-2.5 -93q-10 -48 -31 -89t-56 -76.5t-89.5 -55.5t-122.5 -20q-84 0 -140 43t-74 103.5t-5 123.5q10 47 31.5 88t56.5 76.5t89 56.5t122 21z" />
    <glyph glyph-name="eacute" unicode="&#xe9;" horiz-adv-x="1118" 
d="M629 842q-64 0 -121.5 -23.5t-98.5 -62t-70 -82t-46 -90.5l559 2q4 44 -5.5 87t-33.5 82t-71.5 63t-112.5 24zM260 449q-3 -35 -3.5 -74t14.5 -78t38 -70t67.5 -50t102.5 -19q192 0 291 176h221q-22 -48 -48.5 -91t-73.5 -94t-101.5 -87.5t-134 -61.5t-170.5 -25
q-71 0 -131.5 18t-104 49t-77 73.5t-53 91t-29.5 102t-8.5 106.5t12.5 103q20 95 65 182.5t114.5 161.5t171.5 118t222 44q82 0 150.5 -21.5t116.5 -59.5t81 -91t48 -116.5t13.5 -135t-20.5 -147.5zM1028 1483l-213 -295h-194l198 295h209z" />
    <glyph glyph-name="ecircumflex" unicode="&#xea;" horiz-adv-x="1118" 
d="M629 842q-64 0 -121.5 -23.5t-98.5 -62t-70 -82t-46 -90.5l559 2q4 44 -5.5 87t-33.5 82t-71.5 63t-112.5 24zM260 449q-3 -35 -3.5 -74t14.5 -78t38 -70t67.5 -50t102.5 -19q192 0 291 176h221q-22 -48 -48.5 -91t-73.5 -94t-101.5 -87.5t-134 -61.5t-170.5 -25
q-71 0 -131.5 18t-104 49t-77 73.5t-53 91t-29.5 102t-8.5 106.5t12.5 103q20 95 65 182.5t114.5 161.5t171.5 118t222 44q82 0 150.5 -21.5t116.5 -59.5t81 -91t48 -116.5t13.5 -135t-20.5 -147.5zM938 1481l125 -256h-184l-74 147h-12l-136 -147h-204l231 256h254z" />
    <glyph glyph-name="edieresis" unicode="&#xeb;" horiz-adv-x="1118" 
d="M629 842q-64 0 -121.5 -23.5t-98.5 -62t-70 -82t-46 -90.5l559 2q4 44 -5.5 87t-33.5 82t-71.5 63t-112.5 24zM260 449q-3 -35 -3.5 -74t14.5 -78t38 -70t67.5 -50t102.5 -19q192 0 291 176h221q-22 -48 -48.5 -91t-73.5 -94t-101.5 -87.5t-134 -61.5t-170.5 -25
q-71 0 -131.5 18t-104 49t-77 73.5t-53 91t-29.5 102t-8.5 106.5t12.5 103q20 95 65 182.5t114.5 161.5t171.5 118t222 44q82 0 150.5 -21.5t116.5 -59.5t81 -91t48 -116.5t13.5 -135t-20.5 -147.5zM596 1257q-53 0 -85 39t-22 93q7 39 43 66.5t76 27.5q52 0 83.5 -38
t19.5 -91q-7 -39 -41.5 -68t-73.5 -29zM975 1257q-54 0 -86.5 39t-20.5 93q7 39 42 66.5t77 27.5q51 0 82 -38t18 -91q-7 -39 -41 -68t-71 -29z" />
    <glyph glyph-name="iacute" unicode="&#xed;" horiz-adv-x="542" 
d="M737 1481l-213 -295h-194l198 295h209zM471 887q10 51 -15.5 81.5t-76.5 30.5h-236l-41 -200h80q21 0 33 -15.5t6 -38.5l-160 -745h222z" />
    <glyph glyph-name="icircumflex" unicode="&#xee;" horiz-adv-x="516" 
d="M578 1481l124 -256h-184l-74 147h-12l-135 -147h-205l232 256h254zM487 887q9 51 -16.5 81.5t-77.5 30.5h-235l-41 -200h80q21 0 33 -15.5t6 -38.5l-158 -745h219z" />
    <glyph glyph-name="idieresis" unicode="&#xef;" horiz-adv-x="503" 
d="M231 1255q-53 0 -84.5 38.5t-21.5 92.5q7 39 43 67t76 28q52 0 83 -38t19 -91q-7 -39 -41.5 -68t-73.5 -29zM610 1255q-54 0 -86 38.5t-20 92.5q7 40 42.5 67.5t76.5 27.5q51 0 82 -38t18 -91q-7 -39 -41.5 -68t-71.5 -29zM487 887q9 51 -16.5 81.5t-77.5 30.5h-235
l-41 -200h80q21 0 33 -15.5t6 -38.5l-158 -745h219z" />
    <glyph glyph-name="oacute" unicode="&#xf3;" horiz-adv-x="1122" 
d="M465 141q81 0 150.5 33.5t116.5 89.5t79 119.5t47 132.5q10 50 11.5 97t-10 92.5t-35 78.5t-67.5 53.5t-104 20.5q-81 0 -150.5 -33.5t-116.5 -89.5t-79 -119.5t-47 -132.5q-10 -50 -11.5 -97t10 -92.5t35 -78.5t67.5 -53.5t104 -20.5zM651 1024q88 0 158 -22.5
t116 -62.5t76.5 -92t42.5 -113t11 -124t-15 -127q-15 -73 -44.5 -142.5t-79.5 -136.5t-113 -117.5t-150 -81t-186 -30.5q-88 0 -159 22.5t-116.5 62.5t-76.5 91.5t-42.5 113t-11 124.5t14.5 127q15 73 45 142.5t80 136.5t113 117.5t150.5 81t186.5 30.5zM1024 1481
l-213 -295h-195l199 295h209z" />
    <glyph glyph-name="ocircumflex" unicode="&#xf4;" horiz-adv-x="1122" 
d="M465 141q81 0 150.5 33.5t116.5 89.5t79 119.5t47 132.5q10 50 11.5 97t-10 92.5t-35 78.5t-67.5 53.5t-104 20.5q-81 0 -150.5 -33.5t-116.5 -89.5t-79 -119.5t-47 -132.5q-10 -50 -11.5 -97t10 -92.5t35 -78.5t67.5 -53.5t104 -20.5zM651 1024q88 0 158 -22.5
t116 -62.5t76.5 -92t42.5 -113t11 -124t-15 -127q-15 -73 -44.5 -142.5t-79.5 -136.5t-113 -117.5t-150 -81t-186 -30.5q-88 0 -159 22.5t-116.5 62.5t-76.5 91.5t-42.5 113t-11 124.5t14.5 127q15 73 45 142.5t80 136.5t113 117.5t150.5 81t186.5 30.5zM936 1481l125 -256
h-184l-74 147h-12l-136 -147h-204l231 256h254z" />
    <glyph glyph-name="odieresis" unicode="&#xf6;" horiz-adv-x="1122" 
d="M465 141q81 0 150.5 33.5t116.5 89.5t79 119.5t47 132.5q10 50 11.5 97t-10 92.5t-35 78.5t-67.5 53.5t-104 20.5q-81 0 -150.5 -33.5t-116.5 -89.5t-79 -119.5t-47 -132.5q-10 -50 -11.5 -97t10 -92.5t35 -78.5t67.5 -53.5t104 -20.5zM651 1024q88 0 158 -22.5
t116 -62.5t76.5 -92t42.5 -113t11 -124t-15 -127q-15 -73 -44.5 -142.5t-79.5 -136.5t-113 -117.5t-150 -81t-186 -30.5q-88 0 -159 22.5t-116.5 62.5t-76.5 91.5t-42.5 113t-11 124.5t14.5 127q15 73 45 142.5t80 136.5t113 117.5t150.5 81t186.5 30.5zM616 1255
q-53 0 -84.5 38.5t-21.5 92.5q7 39 43 67t76 28q52 0 83 -38t19 -91q-7 -39 -41.5 -68t-73.5 -29zM995 1255q-54 0 -86 38.5t-20 92.5q7 40 42.5 67.5t76.5 27.5q51 0 82 -38t18 -91q-7 -39 -41.5 -68t-71.5 -29z" />
    <glyph glyph-name="divide" unicode="&#xf7;" horiz-adv-x="1124" 
d="M193 709h825l-39 -183h-825zM506 158q-56 0 -89.5 39t-21.5 94q9 41 45 69.5t78 28.5q54 0 86.5 -39t22.5 -94q-9 -41 -45 -69.5t-76 -28.5zM653 846q-57 0 -90 38.5t-22 92.5q9 42 45.5 71t79.5 29q53 0 85.5 -39t20.5 -94q-9 -41 -44.5 -69.5t-74.5 -28.5z" />
    <glyph glyph-name="oslash" unicode="&#xf8;" horiz-adv-x="1085" 
d="M446 141q81 0 150.5 33.5t117 89.5t79.5 119.5t47 132.5q10 50 11.5 97t-10 92.5t-35 78.5t-67.5 53.5t-104 20.5q-81 0 -150.5 -33.5t-116.5 -89.5t-79 -119.5t-47 -132.5q-10 -50 -11.5 -97t9.5 -92.5t35 -78.5t67.5 -53.5t103.5 -20.5zM633 1024q88 0 158 -22.5
t116 -62.5t76.5 -92t42.5 -113t11 -124t-15 -127q-15 -73 -44.5 -142.5t-79.5 -136.5t-113 -117.5t-150 -81t-186 -30.5q-88 0 -159 22.5t-117 62.5t-76.5 91.5t-42.5 113t-11.5 124.5t14.5 127q15 73 45 142.5t80 136.5t113.5 117.5t151 81t186.5 30.5zM1100 1014
l-953 -1028h-178l951 1028h180z" />
    <glyph glyph-name="uacute" unicode="&#xfa;" horiz-adv-x="1189" 
d="M98 453q-12 -57 -14 -112.5t9.5 -113t37.5 -104.5t75 -84t116 -53q89 -21 180 -0.5t177.5 93t139.5 189.5h33q-69 -123 -94 -219l-13 -49h222l213 999h-222l-67 -321q-26 -132 -68 -277q-41 -125 -136.5 -201.5t-221.5 -49.5q-202 43 -146 307l113 542h-219zM1077 1481
l-213 -295h-194l198 295h209z" />
    <glyph glyph-name="ucircumflex" unicode="&#xfb;" horiz-adv-x="1189" 
d="M98 453q-12 -57 -14 -112.5t9.5 -113t37.5 -104.5t75 -84t116 -53q89 -21 180 -0.5t177.5 93t139.5 189.5h33q-69 -123 -94 -219l-13 -49h222l213 999h-222l-67 -321q-26 -132 -68 -277q-41 -125 -136.5 -201.5t-221.5 -49.5q-202 43 -146 307l113 542h-219zM961 1481
l124 -256h-184l-74 147h-12l-135 -147h-205l232 256h254z" />
    <glyph glyph-name="udieresis" unicode="&#xfc;" horiz-adv-x="1189" 
d="M98 453q-12 -57 -14 -112.5t9.5 -113t37.5 -104.5t75 -84t116 -53q89 -21 180 -0.5t177.5 93t139.5 189.5h33q-69 -123 -94 -219l-13 -49h222l213 999h-222l-67 -321q-26 -132 -68 -277q-41 -125 -136.5 -201.5t-221.5 -49.5q-202 43 -146 307l113 542h-219zM629 1255
q-53 0 -85 38.5t-22 92.5q7 39 43 67t76 28q52 0 83 -38t19 -91q-7 -40 -41.5 -68.5t-72.5 -28.5zM1008 1255q-54 0 -86.5 38.5t-20.5 92.5q7 40 42.5 67.5t76.5 27.5q51 0 82 -38t18 -91q-7 -39 -41 -68t-71 -29z" />
    <glyph glyph-name="yacute" unicode="&#xfd;" horiz-adv-x="1075" 
d="M549 346q-26 -43 -44.5 -79.5t-24.5 -52.5l-5 -15h-33q8 55 -10 151l-102 649h-211l149 -999h90l-161 -283q-26 -43 -68.5 -70.5t-91.5 -27.5h-187l-40 -188h202q140 0 238.5 67t152.5 164l762 1337h-237zM977 1481l-213 -295h-195l199 295h209z" />
    <glyph glyph-name="ydieresis" unicode="&#xff;" horiz-adv-x="1075" 
d="M549 346q-26 -43 -44.5 -79.5t-24.5 -52.5l-5 -15h-33q8 55 -10 151l-102 649h-211l149 -999h90l-161 -283q-26 -43 -68.5 -70.5t-91.5 -27.5h-187l-40 -188h202q140 0 238.5 67t152.5 164l762 1337h-237zM545 1255q-53 0 -85 38.5t-22 92.5q7 39 43 67t76 28
q52 0 83 -38t19 -91q-7 -40 -41.5 -68.5t-72.5 -28.5zM924 1255q-54 0 -86.5 38.5t-20.5 92.5q7 40 42.5 67.5t76.5 27.5q51 0 82 -38t18 -91q-7 -39 -41 -68t-71 -29z" />
    <glyph glyph-name="Ccaron" unicode="&#x10c;" horiz-adv-x="1470" 
d="M1124 426q-31 -48 -70 -88.5t-92 -79t-123.5 -60.5t-148.5 -22q-97 0 -169 32t-113 85.5t-61.5 125t-20 147.5t17.5 157q20 95 68.5 187.5t120 171t172.5 127t213 48.5q83 0 147.5 -22t104 -60t62.5 -80t34 -91h233q-5 50 -23 104t-60 118.5t-101 114.5t-155.5 83.5
t-215.5 33.5q-137 0 -258 -40t-211 -108.5t-161.5 -161t-116.5 -194.5t-68 -213q-16 -75 -18 -152t12 -152t42.5 -143.5t75 -126.5t107.5 -101t143.5 -67t178.5 -24q88 0 170 18t144.5 46t120.5 68.5t98 79.5t77.5 86.5t59 81.5t42.5 71h-258zM866 1581l-123 256h185
l71 -149h15l135 149h203l-230 -256h-256z" />
    <glyph glyph-name="ccaron" unicode="&#x10d;" horiz-adv-x="1087" 
d="M754 324q-40 -62 -106 -105t-156 -43q-62 0 -106 19.5t-67.5 51.5t-33.5 75.5t-8.5 88t12.5 93.5q11 54 39 108t69.5 102.5t102 78.5t127.5 30q171 0 202 -153h232q-5 68 -33 130t-77.5 113t-129 81t-176.5 30q-99 0 -186 -30t-150 -79t-112.5 -115.5t-80 -137.5
t-46.5 -146q-10 -51 -10.5 -103.5t10 -105.5t30.5 -101.5t54.5 -90.5t78.5 -73.5t104.5 -49t131.5 -17.5q85 0 158.5 20t126.5 52t98.5 79t76.5 94t58 104h-233zM659 1225l-122 256h184l72 -150h14l135 150h203l-230 -256h-256z" />
    <glyph glyph-name="Dcaron" unicode="&#x10e;" horiz-adv-x="1435" 
d="M582 205q118 0 220.5 40.5t177.5 110.5t126.5 163t73.5 200q16 86 14.5 162.5t-29 141t-73.5 111t-120.5 73t-168.5 26.5h-281l-221 -1028h281zM1397 702q-71 -334 -301 -518t-551 -184h-506l305 1434h502q152 0 271 -49.5t193.5 -143t99 -229.5t-12.5 -310zM741 1581
l-123 256h185l71 -149h15l135 149h203l-230 -256h-256z" />
    <glyph glyph-name="dcaron" unicode="&#x10f;" horiz-adv-x="1355" 
d="M293 498q-31 -141 28.5 -231.5t188.5 -90.5q130 0 229 91.5t129 234.5t-29 232t-188 89t-229 -91.5t-129 -233.5zM72 524q21 98 66.5 185t113.5 159t165 114t210 42q59 0 108 -13t81.5 -34.5t57.5 -51t38.5 -59t21.5 -63.5h33q-11 111 18 244l82 387h221l-305 -1434h-221
l4 16q5 41 22.5 85t32.5 68l15 24h-33q-24 -36 -46.5 -63t-57 -58t-72.5 -51t-91 -33t-114 -13q-73 0 -133.5 23t-102 63t-71.5 93.5t-42 114.5t-14 126.5t13 128.5zM1610 1434l-140 -551h-176l95 551h221z" />
    <glyph glyph-name="Ebreve" unicode="&#x114;" horiz-adv-x="1148" 
d="M1241 1434l-41 -201h-678l-88 -408h613l-43 -194h-611l-92 -430h678l-41 -201h-899l305 1434h897zM1137 1837q-8 -50 -31 -96t-62.5 -87.5t-103 -64.5t-141.5 -18q-114 7 -169.5 87t-39.5 179h153q-10 -46 6 -81.5t64 -39.5q65 -6 111.5 32.5t56.5 88.5h156z" />
    <glyph glyph-name="Ecaron" unicode="&#x11a;" horiz-adv-x="1148" 
d="M1241 1434l-41 -201h-678l-88 -408h613l-43 -194h-611l-92 -430h678l-41 -201h-899l305 1434h897zM680 1581l-123 256h184l72 -149h14l136 149h202l-229 -256h-256z" />
    <glyph glyph-name="ecaron" unicode="&#x11b;" horiz-adv-x="1118" 
d="M629 842q-64 0 -121.5 -23.5t-98.5 -62t-70 -82t-46 -90.5l559 2q4 44 -5.5 87t-33.5 82t-71.5 63t-112.5 24zM260 449q-3 -35 -3.5 -74t14.5 -78t38 -70t67.5 -50t102.5 -19q192 0 291 176h221q-22 -48 -48.5 -91t-73.5 -94t-101.5 -87.5t-134 -61.5t-170.5 -25
q-71 0 -131.5 18t-104 49t-77 73.5t-53 91t-29.5 102t-8.5 106.5t12.5 103q20 95 65 182.5t114.5 161.5t171.5 118t222 44q82 0 150.5 -21.5t116.5 -59.5t81 -91t48 -116.5t13.5 -135t-20.5 -147.5zM627 1225l-123 256h184l72 -150h14l135 150h203l-229 -256h-256z" />
    <glyph glyph-name="Ibreve" unicode="&#x12c;" horiz-adv-x="538" 
d="M342 1434h219l-303 -1434h-219zM823 1835q-8 -50 -31 -96t-62.5 -87.5t-103 -64.5t-141.5 -18q-114 7 -169.5 87t-39.5 179h154q-10 -46 6 -81.5t64 -39.5q65 -6 111.5 32.5t56.5 88.5h155z" />
    <glyph glyph-name="Idotaccent" unicode="&#x130;" horiz-adv-x="536" 
d="M350 1434h219l-303 -1434h-219zM526 1610q-53 0 -84.5 38.5t-21.5 92.5q7 39 43 66.5t76 27.5q52 0 83 -38t19 -91q-7 -39 -41.5 -67.5t-73.5 -28.5z" />
    <glyph glyph-name="Lacute" unicode="&#x139;" horiz-adv-x="1075" 
d="M565 1434l-262 -1233h664l-41 -201h-885l303 1434h221zM801 1835l-213 -295h-195l199 295h209z" />
    <glyph glyph-name="lacute" unicode="&#x13a;" horiz-adv-x="462" 
d="M315 1434h220l-304 -1434h-219zM760 1837l-213 -295h-195l199 295h209z" />
    <glyph glyph-name="Lcaron" unicode="&#x13d;" horiz-adv-x="1075" 
d="M565 1434l-262 -1233h664l-41 -201h-885l303 1434h221zM971 1434l-140 -551h-176l95 551h221z" />
    <glyph glyph-name="lcaron" unicode="&#x13e;" horiz-adv-x="591" 
d="M315 1434h220l-304 -1434h-219zM862 1434l-139 -551h-176l94 551h221z" />
    <glyph glyph-name="Lslash" unicode="&#x141;" horiz-adv-x="1157" 
d="M647 1434l-262 -1233h664l-41 -201h-885l303 1434h221zM86 627l682 315l-35 -180l-680 -316z" />
    <glyph glyph-name="lslash" unicode="&#x142;" horiz-adv-x="456" 
d="M311 1434h219l-303 -1434h-219zM510 780l-494 -213l35 170l494 213z" />
    <glyph glyph-name="Ncaron" unicode="&#x147;" horiz-adv-x="1554" 
d="M1178 463q-14 -64 -24 -130t-14 -100l-3 -34h-33l-418 1235h-342l-303 -1434h219l207 979q14 61 23.5 125t12.5 98l3 33h33l419 -1235h340l304 1434h-220zM879 1581l-123 256h184l72 -149h14l135 149h203l-229 -256h-256z" />
    <glyph glyph-name="ncaron" unicode="&#x148;" horiz-adv-x="1189" 
d="M1090 547q12 57 13.5 112.5t-10 112.5t-37.5 104t-74.5 84t-115.5 54q-139 34 -278.5 -37.5t-220.5 -245.5h-33q69 123 94 219l12 49h-221l-213 -999h221l68 322q21 108 70 276q19 58 51.5 108.5t77 89t103.5 54t124 0.5q202 -40 145 -307l-112 -543h219zM709 1225
l-123 256h184l72 -150h14l135 150h203l-229 -256h-256z" />
    <glyph glyph-name="Ohungarumlaut" unicode="&#x150;" horiz-adv-x="1513" 
d="M668 176q97 0 184.5 33.5t153 88.5t118.5 128t86 151t50 158q16 75 16.5 147t-19 140.5t-57.5 120t-106.5 83t-159.5 31.5q-120 0 -224.5 -50t-177 -132.5t-120.5 -178t-70 -196.5q-16 -75 -16.5 -147.5t18.5 -141.5t57 -120.5t106.5 -83t160.5 -31.5zM942 1458
q119 0 215 -31.5t158.5 -87.5t104.5 -129t58.5 -159t15 -174.5t-20.5 -178.5q-22 -103 -65 -203t-114.5 -195t-160.5 -166.5t-211.5 -115t-259.5 -43.5q-103 0 -188.5 23.5t-146 65.5t-105.5 99.5t-70 124t-36 141.5t-8 150.5t19 151.5q23 105 67 205t115.5 195.5t161 167.5
t212 115.5t259.5 43.5zM1440 1837l-213 -295h-195l199 295h209zM1137 1837l-213 -295h-195l199 295h209z" />
    <glyph glyph-name="ohungarumlaut" unicode="&#x151;" horiz-adv-x="1126" 
d="M465 141q81 0 150.5 33.5t116.5 89.5t79 119.5t47 132.5q10 50 11.5 97t-10 92.5t-35 78.5t-67.5 53.5t-104 20.5q-81 0 -150.5 -33.5t-116.5 -89.5t-79 -119.5t-47 -132.5q-10 -50 -11.5 -97t10 -92.5t35 -78.5t67.5 -53.5t104 -20.5zM651 1024q88 0 158 -22.5
t116 -62.5t76.5 -92t42.5 -113t11 -124t-15 -127q-15 -73 -44.5 -142.5t-79.5 -136.5t-113 -117.5t-150 -81t-186 -30.5q-88 0 -159 22.5t-116.5 62.5t-76.5 91.5t-42.5 113t-11 124.5t14.5 127q15 73 45 142.5t80 136.5t113 117.5t150.5 81t186.5 30.5zM1188 1481
l-213 -295h-195l199 295h209zM885 1481l-213 -295h-195l199 295h209z" />
    <glyph glyph-name="racute" unicode="&#x155;" horiz-adv-x="854" 
d="M918 999q-102 0 -194.5 -42.5t-161.5 -114.5t-120 -154.5t-86 -175.5h-45q138 326 158 420q7 33 -11 50t-59 17h-254l-43 -200h101q15 0 26.5 -13t8.5 -28l-164 -758h223l51 244q15 67 38.5 134t66.5 145.5t97 137.5t134 98.5t172 39.5zM961 1481l-213 -295h-195l199 295
h209z" />
    <glyph glyph-name="Rcaron" unicode="&#x158;" horiz-adv-x="1333" 
d="M838 823q99 0 179.5 52.5t102.5 148.5q22 95 -33.5 152t-152.5 57h-408l-86 -410h398zM1010 723q88 -3 146 -73.5t36 -170.5l-100 -479h-201q71 344 104 500q11 56 -12 89.5t-78 33.5h-510l-135 -623h-219l309 1434h617q85 0 154.5 -21.5t114 -59.5t73.5 -89t33 -109
t-7 -121q-13 -62 -44.5 -111.5t-66.5 -77.5t-78.5 -49t-72 -28.5t-55.5 -11.5zM735 1581l-123 256h185l71 -149h15l135 149h203l-230 -256h-256z" />
    <glyph glyph-name="rcaron" unicode="&#x159;" horiz-adv-x="854" 
d="M918 999q-102 0 -194.5 -42.5t-161.5 -114.5t-120 -154.5t-86 -175.5h-45q138 326 158 420q7 33 -11 50t-59 17h-254l-43 -200h101q15 0 26.5 -13t8.5 -28l-164 -758h223l51 244q15 67 38.5 134t66.5 145.5t97 137.5t134 98.5t172 39.5zM520 1225l-123 256h185l71 -150
h15l135 150h203l-230 -256h-256z" />
    <glyph glyph-name="Scaron" unicode="&#x160;" horiz-adv-x="1247" 
d="M1133 375q9 57 9 103.5t-17 87t-39.5 72.5t-58.5 58.5t-73.5 47t-86 37t-95 28t-100.5 20.5q-148 27 -211 76t-41 150q20 83 106.5 143t233.5 59q80 0 139 -19t90.5 -51t43 -70.5t1.5 -80.5q0 -6 -2 -12h221q1 3 2 9t2 9q7 42 6.5 84t-16 83t-40 78t-65 68t-91 54
t-118.5 36t-147 13q-139 0 -247 -34.5t-174.5 -95.5t-105 -132t-54.5 -156q-15 -78 1 -142t51 -106.5t92 -75.5t114 -52t127 -33q47 -9 72 -14.5t67.5 -17.5t66 -22.5t52 -28t42 -36.5t20.5 -46.5t1 -59.5q-20 -100 -113.5 -165t-254.5 -65q-69 0 -122 14t-83.5 38t-49 56
t-19.5 67t5 71h-223q-7 -44 -7.5 -89t14.5 -89t38.5 -84t64 -73.5t90.5 -58.5t119.5 -39t149.5 -14q117 0 214 22t163.5 59.5t116 89.5t77.5 108.5t42 120.5zM702 1581l-122 256h184l72 -149h14l135 149h203l-230 -256h-256z" />
    <glyph glyph-name="scaron" unicode="&#x161;" horiz-adv-x="978" 
d="M872 301q13 73 -4.5 127t-56.5 83.5t-91.5 50.5t-109.5 29.5t-111 19t-95 20.5t-62 32t-12 56q14 60 78 91.5t145 31.5q93 0 145.5 -32.5t36.5 -96.5q-1 -3 -2 -8.5t-2 -8.5h205q0 9 4 21q27 129 -76 218t-297 89q-196 0 -311.5 -83.5t-140.5 -215.5q-15 -76 9 -128.5
t73.5 -78.5t112 -42t126.5 -26.5t116 -24.5t80.5 -43t20.5 -75q-9 -49 -49 -84t-90 -50t-104 -15q-110 0 -164.5 38t-36.5 111h-203q-29 -140 71.5 -236t301.5 -96q110 0 200 26.5t149.5 72.5t95.5 103.5t48 123.5zM580 1225l-123 256h184l72 -150h14l135 150h203l-229 -256
h-256z" />
    <glyph glyph-name="Tcaron" unicode="&#x164;" horiz-adv-x="1140" 
d="M1303 1434l-41 -201h-426l-263 -1233h-219l262 1233h-428l41 201h1074zM672 1579l-123 256h184l72 -149h14l135 149h203l-229 -256h-256z" />
    <glyph glyph-name="tcaron" unicode="&#x165;" horiz-adv-x="737" 
d="M158 362q-17 -70 -3.5 -135t47 -115.5t98 -81t149.5 -30.5h149l43 201h-178q-58 0 -82 33t-12 90l102 475h297l43 200h-299l92 435h-219l-92 -435h-164l-41 -200h164zM989 1837l-139 -551h-176l94 551h221z" />
    <glyph glyph-name="Uring" unicode="&#x16e;" horiz-adv-x="1425" 
d="M1087 604q-13 -61 -38.5 -120.5t-66.5 -115.5t-91.5 -98.5t-118 -68t-141.5 -25.5q-75 0 -130 24.5t-84.5 64t-43.5 94t-12.5 110t14.5 115.5l180 850h-221l-174 -828q-15 -70 -16 -141t12.5 -143t48 -133.5t87 -110t135 -76t185.5 -27.5q123 0 230 38.5t182.5 100
t135 143t94 163t51.5 164.5l180 850h-221zM956 1675q60 0 99 36.5t49 84.5q9 47 -10 81t-76 34t-95.5 -36t-48.5 -83q-9 -49 9 -83t73 -34zM1028 2050q85 0 141.5 -43t74 -103.5t3.5 -123.5q-10 -48 -31 -89t-56 -76.5t-89.5 -56t-122.5 -20.5q-84 0 -140 43t-74 103.5
t-5 123.5q10 47 31.5 88t56.5 76.5t89 56.5t122 21z" />
    <glyph glyph-name="uring" unicode="&#x16f;" horiz-adv-x="1189" 
d="M98 453q-12 -57 -14 -112.5t9.5 -113t37.5 -104.5t75 -84t116 -53q89 -21 180 -0.5t177.5 93t139.5 189.5h33q-69 -123 -94 -219l-13 -49h222l213 999h-222l-67 -321q-26 -132 -68 -277q-41 -125 -136.5 -201.5t-221.5 -49.5q-202 43 -146 307l113 542h-219zM817 1413
q60 0 99 36.5t49 84.5q9 47 -10 81t-76 34t-95.5 -36t-48.5 -83q-9 -49 9 -83t73 -34zM889 1788q85 0 141.5 -43t74 -103.5t3.5 -123.5q-10 -48 -31 -89t-56 -76.5t-89.5 -56t-122.5 -20.5q-84 0 -140 43t-74 103.5t-5 123.5q10 47 31.5 88t56.5 76.5t89 56.5t122 21z" />
    <glyph glyph-name="Uhungarumlaut" unicode="&#x170;" horiz-adv-x="1425" 
d="M1087 604q-13 -61 -38.5 -120.5t-66.5 -115.5t-91.5 -98.5t-118 -68t-141.5 -25.5q-75 0 -130 24.5t-84.5 64t-43.5 94t-12.5 110t14.5 115.5l180 850h-221l-174 -828q-15 -70 -16 -141t12.5 -143t48 -133.5t87 -110t135 -76t185.5 -27.5q123 0 230 38.5t182.5 100
t135 143t94 163t51.5 164.5l180 850h-221zM1397 1837l-213 -295h-195l199 295h209zM1094 1837l-213 -295h-195l199 295h209z" />
    <glyph glyph-name="uhungarumlaut" unicode="&#x171;" horiz-adv-x="1193" 
d="M98 453q-12 -57 -14 -112.5t9.5 -113t37.5 -104.5t75 -84t116 -53q89 -21 180 -0.5t177.5 93t139.5 189.5h33q-69 -123 -94 -219l-13 -49h222l213 999h-222l-67 -321q-26 -132 -68 -277q-41 -125 -136.5 -201.5t-221.5 -49.5q-202 43 -146 307l113 542h-219zM1221 1481
l-213 -295h-195l199 295h209zM918 1481l-213 -295h-195l199 295h209z" />
    <glyph glyph-name="Ydieresis" unicode="&#x178;" horiz-adv-x="1228" 
d="M739 918q-18 -22 -33.5 -46t-21.5 -38l-6 -13h-33q-2 50 -20 99l-197 514h-211l311 -816l-129 -618h219l132 616l655 818h-252zM672 1612q-53 0 -85 38.5t-22 92.5q7 39 43 66.5t76 27.5q52 0 83 -38t19 -91q-7 -39 -41 -67.5t-73 -28.5zM1051 1612q-54 0 -86.5 38.5
t-20.5 92.5q7 39 42 66.5t77 27.5q51 0 82 -38t18 -91q-7 -39 -41 -67.5t-71 -28.5z" />
    <glyph glyph-name="Zcaron" unicode="&#x17d;" horiz-adv-x="1251" 
d="M293 225q68 33 166 133l880 904l37 172h-1071l-41 -201h785l-7 -27q-57 -20 -149 -114l-897 -920l-35 -172h1098l41 201h-813zM727 1581l-123 256h184l72 -149h14l136 149h202l-229 -256h-256z" />
    <glyph glyph-name="zcaron" unicode="&#x17e;" horiz-adv-x="993" 
d="M684 786q-69 -17 -160 -102q-28 -24 -158 -149t-246 -238l-116 -113l-41 -184h834l39 182h-562l7 31q6 1 13.5 4t13.5 6t14.5 9t14 9.5t15.5 11.5l15 12t16.5 14t16 14t16.5 14.5t16 14.5q21 17 153.5 140.5t254.5 237.5l123 115l41 184h-793l-39 -182h518zM551 1225
l-123 256h184l72 -150h14l136 150h202l-229 -256h-256z" />
    <glyph glyph-name="Oslashacute" unicode="&#x1fe;" horiz-adv-x="1499" 
d="M676 176q97 0 184.5 33.5t153 88.5t118.5 128t86 151t50 158q16 75 16.5 147t-19 140.5t-57.5 120t-106.5 83t-159.5 31.5q-120 0 -224.5 -50t-177 -132.5t-120.5 -178t-70 -196.5q-16 -75 -16.5 -147.5t18.5 -141.5t57 -120.5t106.5 -83t160.5 -31.5zM950 1458
q119 0 215 -31.5t158.5 -87.5t104.5 -129t58.5 -159t15 -174.5t-20.5 -178.5q-22 -103 -65 -203t-114.5 -195t-160.5 -166.5t-211.5 -115t-259.5 -43.5q-103 0 -188.5 23.5t-146 65.5t-105.5 99.5t-70 124t-36 141.5t-8 150.5t19 151.5q23 105 67 205t115.5 195.5t161 167.5
t212 115.5t259.5 43.5zM1608 1448l-1413 -1462h-252l1415 1462h250zM1292 1837l-213 -295h-194l198 295h209z" />
    <glyph glyph-name="oslashacute" unicode="&#x1ff;" horiz-adv-x="1085" 
d="M446 141q81 0 150.5 33.5t117 89.5t79.5 119.5t47 132.5q10 50 11.5 97t-10 92.5t-35 78.5t-67.5 53.5t-104 20.5q-81 0 -150.5 -33.5t-116.5 -89.5t-79 -119.5t-47 -132.5q-10 -50 -11.5 -97t9.5 -92.5t35 -78.5t67.5 -53.5t103.5 -20.5zM633 1024q88 0 158 -22.5
t116 -62.5t76.5 -92t42.5 -113t11 -124t-15 -127q-15 -73 -44.5 -142.5t-79.5 -136.5t-113 -117.5t-150 -81t-186 -30.5q-88 0 -159 22.5t-117 62.5t-76.5 91.5t-42.5 113t-11.5 124.5t14.5 127q15 73 45 142.5t80 136.5t113.5 117.5t151 81t186.5 30.5zM1100 1014
l-953 -1028h-178l951 1028h180zM1016 1481l-213 -295h-195l199 295h209z" />
    <glyph glyph-name="circumflex" unicode="&#x2c6;" horiz-adv-x="774" 
d="M795 1837l125 -256h-185l-73 148h-13l-135 -148h-205l232 256h254z" />
    <glyph glyph-name="caron" unicode="&#x2c7;" horiz-adv-x="774" 
d="M487 1581l-122 256h184l72 -149h14l135 149h203l-230 -256h-256z" />
    <glyph glyph-name="breve" unicode="&#x2d8;" horiz-adv-x="729" 
d="M920 1837q-8 -50 -31 -96t-62.5 -87.5t-103 -64.5t-141.5 -18q-114 7 -169.5 87t-39.5 179h153q-10 -46 6 -81.5t64 -39.5q65 -6 111.5 32.5t56.5 88.5h156z" />
    <glyph glyph-name="dotaccent" unicode="&#x2d9;" horiz-adv-x="407" 
d="M457 1612q-53 0 -85 38.5t-22 92.5q7 39 43 66.5t76 27.5q52 0 83 -38t19 -91q-7 -39 -41 -67.5t-73 -28.5z" />
    <glyph glyph-name="ring" unicode="&#x2da;" horiz-adv-x="688" 
d="M584 1675q60 0 98.5 36.5t48.5 84.5q9 47 -10 81t-76 34t-95 -36t-48 -83q-9 -49 9 -83t73 -34zM655 2050q85 0 141.5 -43t74 -103.5t3.5 -123.5q-10 -48 -31 -89t-56 -76.5t-89.5 -56t-122.5 -20.5q-84 0 -140 43t-74 103.5t-5 123.5q10 47 31.5 88t56.5 76.5t89 56.5
t122 21z" />
    <glyph glyph-name="hungarumlaut" unicode="&#x2dd;" horiz-adv-x="827" 
d="M1014 1837l-213 -295h-195l199 295h209zM711 1837l-213 -295h-195l199 295h209z" />
    <glyph glyph-name="endash" unicode="&#x2013;" horiz-adv-x="1280" 
d="M158 641h1018l-39 -182h-1018z" />
    <glyph glyph-name="emdash" unicode="&#x2014;" horiz-adv-x="1964" 
d="M158 641h1702l-39 -182h-1702z" />
    <glyph glyph-name="quoteleft" unicode="&#x2018;" horiz-adv-x="563" 
d="M342 1313q-10 -45 15.5 -78t70.5 -33q62 0 116 43t66 103q11 46 -16 78t-76 32q-58 0 -112 -43t-64 -102zM475 1452q2 53 37.5 99.5t99.5 60.5l35 76q-143 -14 -246 -136q-81 -96 -92 -201q-10 -100 53 -135q27 -15 66 -14z" />
    <glyph glyph-name="quoteright" unicode="&#x2019;" horiz-adv-x="563" 
d="M641 1694q10 45 -15.5 77.5t-70.5 32.5q-62 0 -116 -42.5t-66 -102.5q-11 -46 16 -78.5t76 -32.5q58 0 112 43.5t64 102.5zM508 1554q-2 -52 -37.5 -98.5t-99.5 -60.5l-35 -76q144 14 246 136q81 96 92 201q10 99 -53 134q-27 15 -66 14z" />
    <glyph glyph-name="quotedblleft" unicode="&#x201c;" horiz-adv-x="905" 
d="M684 1313q-10 -45 15.5 -78t70.5 -33q62 0 116 43t66 103q11 46 -16 78t-76 32q-58 0 -112 -43t-64 -102zM817 1452q2 53 37.5 99.5t99.5 60.5l35 76q-143 -14 -246 -136q-81 -96 -92 -201q-10 -100 53 -135q27 -15 66 -14zM342 1313q-10 -45 15.5 -78t70.5 -33
q62 0 116 43t66 103q11 46 -16 78t-76 32q-58 0 -112 -43t-64 -102zM475 1452q2 53 37.5 99.5t99.5 60.5l35 76q-143 -14 -246 -136q-81 -96 -92 -201q-10 -100 53 -135q27 -15 66 -14z" />
    <glyph glyph-name="quotedblright" unicode="&#x201d;" horiz-adv-x="905" 
d="M983 1694q10 45 -15.5 77.5t-70.5 32.5q-62 0 -116 -42.5t-66 -102.5q-11 -46 16 -78.5t76 -32.5q58 0 112 43.5t64 102.5zM850 1554q-2 -52 -37.5 -98.5t-99.5 -60.5l-35 -76q144 14 246 136q81 96 92 201q10 99 -53 134q-27 15 -66 14zM641 1694q10 45 -15.5 77.5
t-70.5 32.5q-62 0 -116 -42.5t-66 -102.5q-11 -46 16 -78.5t76 -32.5q58 0 112 43.5t64 102.5zM508 1554q-2 -52 -37.5 -98.5t-99.5 -60.5l-35 -76q144 14 246 136q81 96 92 201q10 99 -53 134q-27 15 -66 14z" />
    <glyph glyph-name="quotedblbase" unicode="&#x201e;" horiz-adv-x="905" 
d="M649 121q10 45 -15.5 77.5t-70.5 32.5q-62 0 -116 -42.5t-66 -102.5q-11 -46 16 -78.5t76 -32.5q58 0 112 43.5t64 102.5zM516 -18q-2 -53 -37.5 -99.5t-99.5 -60.5l-35 -76q144 14 246 136q81 96 92 201q10 99 -53 134q-27 15 -66 14zM307 121q10 45 -15.5 77.5
t-70.5 32.5q-62 0 -116 -42.5t-66 -102.5q-11 -46 16 -78.5t76 -32.5q58 0 112 43.5t64 102.5zM174 -18q-2 -53 -37.5 -99.5t-99.5 -60.5l-35 -76q144 14 246 136q81 96 92 201q10 99 -53 134q-27 15 -66 14z" />
    <glyph glyph-name="bullet" unicode="&#x2022;" horiz-adv-x="675" 
d="M313 287q-100 0 -158 68.5t-38 164.5q19 85 92 144t158 59q95 0 152 -70t36 -166q-17 -83 -89.5 -141.5t-152.5 -58.5z" />
    <glyph glyph-name="guilsinglleft" unicode="&#x2039;" horiz-adv-x="856" 
d="M645 0q-258 404 -262 406q-27 39 -54 58t-40 19v31q8 0 30 8t57.5 28t65.5 46l437 403h-258l-541 -499l328 -500h237z" />
    <glyph glyph-name="guilsinglright" unicode="&#x203a;" horiz-adv-x="854" 
d="M-27 0h256l541 500l-328 499h-241q260 -399 264 -403q27 -38 56.5 -60t41.5 -22v-31q-9 0 -30 -6t-57 -25t-66 -46z" />
    <glyph glyph-name="Euro" unicode="&#x20ac;" horiz-adv-x="1568" 
d="M1202 428q-31 -45 -73 -86.5t-99 -80.5t-131 -62t-154 -23q-95 0 -165.5 31t-110 82t-58.5 120.5t-17.5 143t18.5 152.5q16 75 49 150.5t86.5 148.5t120 128.5t155 90t185.5 34.5q84 0 148.5 -23.5t101.5 -63.5t56.5 -80t28.5 -84h226q-4 33 -12.5 68.5t-28 81t-46 86
t-70 81t-97 70t-130 47.5t-165.5 18q-139 0 -263 -43.5t-214.5 -115.5t-162.5 -167.5t-116.5 -196t-66.5 -204.5q-20 -90 -21.5 -178.5t15.5 -174t60 -158t106.5 -127.5t160.5 -86.5t217 -31.5q90 0 174 18.5t147.5 47.5t122.5 71t100 81.5t78.5 87t58 80t40.5 67.5h-254z
M131 915l-29 -131h936l29 131h-936zM76 649l-29 -131h936l29 131h-936z" />
    <glyph glyph-name="uni2117" unicode="&#x2117;" horiz-adv-x="952" 
d="M653 1118q27 0 47.5 13t24.5 38q6 23 -10 36.5t-41 13.5h-105l-22 -101h106zM799 1159q-11 -55 -53 -81.5t-97 -26.5h-114l-43 -203h-78l94 438h182q49 0 85 -34t24 -93zM524 754q83 0 153.5 28.5t117 76t76 101t42.5 111.5q7 44 7.5 87.5t-16.5 84.5t-45 72t-79 50
t-118 19q-83 0 -153 -28.5t-116 -76t-75.5 -101.5t-41.5 -111q-7 -44 -8 -87.5t16 -84.5t45 -72t78.5 -50t116.5 -19zM674 1458q70 0 126 -16t92.5 -45t61 -66t34 -81.5t9.5 -90t-10 -92.5q-15 -71 -50.5 -136.5t-92 -123t-142.5 -92.5t-190 -35q-70 0 -125.5 16t-91.5 45
t-60.5 66t-34 81.5t-9.5 90t10 92.5q15 71 50.5 136.5t92 123t142 92.5t188.5 35z" />
    <glyph glyph-name="trademark" unicode="&#x2122;" horiz-adv-x="1267" 
d="M672 1434l-19 -84h-164l-104 -488h-94l104 488h-166l19 84h424zM1341 1434l-122 -572h-93l88 416l-266 -416h-137l-80 416l-90 -416h-92l123 572h116l93 -488h20l313 488h127z" />
    <glyph glyph-name="minus" unicode="&#x2212;" horiz-adv-x="1171" 
d="M207 778h872l-41 -182h-872z" />
    <glyph glyph-name="approxequal" unicode="&#x2248;" horiz-adv-x="1193" 
d="M977 1067q-18 -85 -42.5 -128.5t-74.5 -43.5q-32 0 -82 26.5t-95.5 58.5t-103 58.5t-102.5 26.5q-57 0 -103 -23.5t-74 -56.5t-52 -89.5t-36 -100.5t-26 -111h185q9 43 16 68t20 52t32 39.5t46 12.5q32 0 82.5 -26.5t96.5 -58.5t103 -58.5t101 -26.5q48 0 87.5 14.5
t68.5 44.5t50 62.5t38 81t27 86.5t22 92h-184zM879 610q-9 -43 -16.5 -69t-20.5 -53t-32 -39.5t-46 -12.5q-32 0 -82 26t-95.5 58t-103 58t-102.5 26q-49 0 -88.5 -14.5t-68.5 -44t-50 -61.5t-37.5 -80.5t-26.5 -86t-22 -92.5h186q18 87 41.5 129.5t73.5 42.5q32 0 82 -26.5
t95.5 -58.5t103 -58.5t102.5 -26.5q57 0 103 23.5t74.5 57.5t52.5 90t36.5 101t26.5 111h-186z" />
    <glyph glyph-name="notequal" unicode="&#x2260;" horiz-adv-x="1144" 
d="M174 571h825l-41 -182h-825zM258 975h825l-39 -182h-825zM920 1130h176l-803 -897h-176z" />
    <glyph glyph-name="lessequal" unicode="&#x2264;" horiz-adv-x="1128" 
d="M905 182h-825l-39 -182h825zM977 506l-43 -189l-760 308l57 270l891 305l-43 -201q-540 -190 -571 -198q-29 -10 -63.5 -19.5t-54.5 -13.5l-19 -4v-21q63 -18 116 -38z" />
    <glyph glyph-name="greaterequal" unicode="&#x2265;" horiz-adv-x="1126" 
d="M76 182h823l-39 -182h-823zM147 524q545 191 572 199q29 9 63.5 17t53.5 12l20 4v20q-64 17 -117 37l-487 199l41 186l760 -305l-58 -270l-889 -306z" />
    <glyph glyph-name="O.ss01" horiz-adv-x="1634" 
d="M721 -25q-123 0 -231 38.5t-185.5 108t-129.5 164.5t-64 208.5t12 240.5q32 147 117.5 281t202 230.5t262.5 154t294 57.5q123 0 230.5 -38.5t185 -107.5t130 -164t65 -207.5t-10.5 -238.5q-43 -198 -175.5 -365.5t-319.5 -264.5t-383 -97zM713 176q142 0 285.5 74.5
t249.5 204t138 280.5q31 146 -9 266t-139 188t-237 68q-143 0 -285 -74.5t-245.5 -203t-134.5 -277.5q-31 -147 6.5 -267.5t135 -189.5t235.5 -69z" />
    <glyph glyph-name="Oacute.ss01" horiz-adv-x="1634" 
d="M1350 1837l-213 -295h-195l199 295h209zM721 -25q-123 0 -231 38.5t-185.5 108t-129.5 164.5t-64 208.5t12 240.5q32 147 117.5 281t202 230.5t262.5 154t294 57.5q123 0 230.5 -38.5t185 -107.5t130 -164t65 -207.5t-10.5 -238.5q-43 -198 -175.5 -365.5t-319.5 -264.5
t-383 -97zM713 176q142 0 285.5 74.5t249.5 204t138 280.5q31 146 -9 266t-139 188t-237 68q-143 0 -285 -74.5t-245.5 -203t-134.5 -277.5q-31 -147 6.5 -267.5t135 -189.5t235.5 -69z" />
    <glyph glyph-name="Ocircumflex.ss01" horiz-adv-x="1634" 
d="M1214 1837l125 -256h-184l-74 148h-12l-135 -148h-205l232 256h253zM721 -25q-123 0 -231 38.5t-185.5 108t-129.5 164.5t-64 208.5t12 240.5q32 147 117.5 281t202 230.5t262.5 154t294 57.5q123 0 230.5 -38.5t185 -107.5t130 -164t65 -207.5t-10.5 -238.5
q-43 -198 -175.5 -365.5t-319.5 -264.5t-383 -97zM713 176q142 0 285.5 74.5t249.5 204t138 280.5q31 146 -9 266t-139 188t-237 68q-143 0 -285 -74.5t-245.5 -203t-134.5 -277.5q-31 -147 6.5 -267.5t135 -189.5t235.5 -69z" />
    <glyph glyph-name="Odieresis.ss01" horiz-adv-x="1634" 
d="M872 1612q-53 0 -84.5 38.5t-21.5 92.5q7 39 43 66.5t76 27.5q52 0 83 -38t19 -91q-7 -39 -41.5 -67.5t-73.5 -28.5zM1251 1612q-54 0 -86 38.5t-20 92.5q7 39 42 66.5t77 27.5q51 0 82 -38t18 -91q-7 -39 -41.5 -67.5t-71.5 -28.5zM721 -25q-123 0 -231 38.5t-185.5 108
t-129.5 164.5t-64 208.5t12 240.5q32 147 117.5 281t202 230.5t262.5 154t294 57.5q123 0 230.5 -38.5t185 -107.5t130 -164t65 -207.5t-10.5 -238.5q-43 -198 -175.5 -365.5t-319.5 -264.5t-383 -97zM713 176q142 0 285.5 74.5t249.5 204t138 280.5q31 146 -9 266t-139 188
t-237 68q-143 0 -285 -74.5t-245.5 -203t-134.5 -277.5q-31 -147 6.5 -267.5t135 -189.5t235.5 -69z" />
    <glyph glyph-name="Ohungarumlaut.ss01" horiz-adv-x="1634" 
d="M1485 1837l-213 -295h-195l199 295h209zM1182 1837l-213 -295h-195l199 295h209zM721 -25q-123 0 -231 38.5t-185.5 108t-129.5 164.5t-64 208.5t12 240.5q32 147 117.5 281t202 230.5t262.5 154t294 57.5q123 0 230.5 -38.5t185 -107.5t130 -164t65 -207.5t-10.5 -238.5
q-43 -198 -175.5 -365.5t-319.5 -264.5t-383 -97zM713 176q142 0 285.5 74.5t249.5 204t138 280.5q31 146 -9 266t-139 188t-237 68q-143 0 -285 -74.5t-245.5 -203t-134.5 -277.5q-31 -147 6.5 -267.5t135 -189.5t235.5 -69z" />
    <glyph glyph-name="Oslash.ss01" horiz-adv-x="1642" 
d="M1731 1448l-1510 -1462h-258l1512 1462h256zM741 -25q-123 0 -231 38.5t-185.5 108t-129.5 164.5t-64 208.5t12 240.5q42 196 174 362.5t319 263.5t384 97q123 0 230.5 -38.5t185 -107.5t130 -164t65 -207.5t-10.5 -238.5q-43 -198 -176 -365.5t-320 -264.5t-383 -97z
M733 176q142 0 285.5 74.5t250 204.5t138.5 280q31 146 -9 266t-139 188t-237 68q-143 0 -285.5 -74.5t-246 -203t-134.5 -277.5q-31 -147 6.5 -267.5t135 -189.5t235.5 -69z" />
    <glyph glyph-name="Oslashacute.ss01" horiz-adv-x="1642" 
d="M1364 1837l-213 -295h-195l199 295h209zM1731 1448l-1510 -1462h-258l1512 1462h256zM741 -25q-123 0 -231 38.5t-185.5 108t-129.5 164.5t-64 208.5t12 240.5q42 196 174 362.5t319 263.5t384 97q123 0 230.5 -38.5t185 -107.5t130 -164t65 -207.5t-10.5 -238.5
q-43 -198 -176 -365.5t-320 -264.5t-383 -97zM733 176q142 0 285.5 74.5t250 204.5t138.5 280q31 146 -9 266t-139 188t-237 68q-143 0 -285.5 -74.5t-246 -203t-134.5 -277.5q-31 -147 6.5 -267.5t135 -189.5t235.5 -69z" />
    <glyph glyph-name="A_A.dlig" horiz-adv-x="2725" 
d="M1010 1434l211 -1434h-193l-47 328h-676l-184 -328h-209l817 1434h281zM410 510h544l-100 723h-33zM2386 1434l211 -1434h-193l-47 328h-676l-184 -328h-209l817 1434h281zM1786 510h545l-101 723h-32zM881 510h962v-182h-962v182z" />
    <glyph glyph-name="A_E.dlig" horiz-adv-x="1992" 
d="M1407 1434l-305 -1434h-219l71 328h-555l-258 -328h-229l1135 1434h360zM541 510h450l154 723h-33zM2085 1434l-41 -201h-678l-88 -408h612l-43 -194h-610l-92 -430h678l-41 -201h-899l305 1434h897z" />
    <glyph glyph-name="A_V.dlig" horiz-adv-x="1990" 
d="M1927 1442l240 -8l-795 -1434h-330l-221 1434h217l174 -1129q4 -24 5.5 -50.5t0.5 -40.5l-1 -15h40q10 59 35 106zM1010 1434l211 -1434h-179l-49 328h-688l-184 -328h-209l817 1434h281zM410 510h555l-111 723h-33z" />
    <glyph glyph-name="F_F.dlig" horiz-adv-x="2019" 
d="M1176 1233h-654l-88 -408h539l-41 -194h-539l-133 -631h-219l303 1434h873zM2116 1233h-654l-86 -408h537l-41 -194h-537l-135 -631h-219l303 1434h873zM1159 1434h213l-41 -201h-213z" />
    <glyph glyph-name="F_I.dlig" horiz-adv-x="1372" 
d="M1174 1233h-652l-88 -408h537l-41 -194h-537l-133 -631h-219l303 1434h870zM1202 1434h217l-303 -1434h-217z" />
    <glyph glyph-name="F_L.dlig" horiz-adv-x="2002" 
d="M1176 1233h-654l-88 -408h539l-41 -194h-539l-133 -631h-219l303 1434h873zM1493 1434l-262 -1233h663l-41 -201h-884l303 1434h221zM1133 1434h229l-41 -201h-229z" />
    <glyph glyph-name="H_E.dlig" horiz-adv-x="2060" 
d="M1473 1434l-304 -1434h-219l133 629h-690l-133 -629h-219l303 1434h219l-127 -605h690l127 605h220zM2152 1434l-41 -201h-679l-86 -408h610l-41 -194h-612l-93 -430h680l-41 -201h-899l305 1434h897z" />
    <glyph glyph-name="N_T.dlig" horiz-adv-x="2492" 
d="M1386 1434h220l-303 -1434h-340l-422 1233h-43q-2 -125 -33 -264l-205 -969h-219l303 1434h342l422 -1233h43q2 129 33 270zM2654 1434l-41 -201h-426l-262 -1233h-219l262 1233h-428l41 201h1073z" />
    <glyph glyph-name="T_E.dlig" horiz-adv-x="1210" 
d="M1303 1434l-41 -201h-426l-263 -1233h-221l262 1233h-426l41 201h1074zM1303 1434l-33 -160h-426l-99 -461h359l-43 -201h-359l-90 -411h428l-41 -201h-647l305 1434h646z" />
    <glyph glyph-name="T_T.dlig" horiz-adv-x="2213" 
d="M1303 1434l-41 -201h-426l-263 -1233h-219l262 1233h-428l41 201h1074zM2376 1434l-41 -201h-428l-262 -1233h-220l263 1233h-426l41 201h1073z" />
    <glyph glyph-name="U_B.dlig" horiz-adv-x="2234" 
d="M1264 1434h221l-185 -850q-17 -83 -51 -164t-92.5 -163t-133.5 -143.5t-181.5 -100t-229.5 -38.5q-103 0 -185.5 27.5t-135 76t-87 110t-48 133.5t-12.5 143t16 141l174 828h221l-180 -850q-13 -60 -14.5 -115.5t12.5 -110t43.5 -94t84.5 -64t130 -24.5q74 0 141.5 25.5
t118 68t91.5 98.5t66.5 115.5t38.5 120.5zM1567 201q88 0 158.5 22.5t124 75t71.5 131.5q23 115 -48.5 170t-207.5 55h-348l-96 -454h346zM1702 854q105 0 182 49.5t98 143.5q19 93 -36 139.5t-162 46.5h-342l-82 -379h342zM2130 371q-21 -99 -83.5 -173.5t-150 -116
t-183.5 -61.5t-200 -20h-552l303 1434h546q88 0 165 -22t135.5 -64t84 -112t7.5 -157q-16 -75 -54.5 -132.5t-91.5 -92t-108.5 -54t-116.5 -26.5l-8 -33q54 -6 103.5 -22.5t94.5 -46t73 -72t40 -100t-4 -129.5z" />
    <glyph glyph-name="U_D.dlig" horiz-adv-x="2357" 
d="M1264 1434h221l-180 -844q-18 -85 -53.5 -168t-95 -165t-134.5 -143.5t-180 -100t-224 -38.5q-104 0 -187.5 28t-136.5 76.5t-89 111t-49.5 134t-13 142t15.5 139.5l176 828h221l-180 -844q-13 -61 -14 -118t13.5 -111.5t44 -95t82.5 -65t124 -24.5q94 0 176 39
t138.5 103t94 138t53.5 150zM1501 205q118 0 220.5 40.5t178 110.5t127 163t74.5 200q25 106 11 199.5t-57.5 163.5t-129 110.5t-203.5 40.5h-280l-219 -1028h278zM2316 702q-71 -335 -300.5 -518.5t-549.5 -183.5h-508l306 1434h503q152 0 270.5 -49.5t193 -143
t98.5 -229.5t-13 -310z" />
    <glyph glyph-name="U_L.dlig" horiz-adv-x="1994" 
d="M1264 1434h221l-178 -844q-18 -85 -53.5 -168t-95.5 -165t-135.5 -143.5t-180.5 -100t-224 -38.5q-104 0 -187.5 28t-136.5 76.5t-89 111t-49.5 134t-13 142t15.5 139.5l176 828h221l-180 -844q-13 -61 -14 -118t13.5 -111.5t44 -95t82.5 -65t124 -24.5q94 0 176 39
t138.5 103t94 138t53.5 150zM1485 1434l-262 -1233h665l-43 -201h-887l306 1434h221z" />
    <glyph glyph-name="U_P.dlig" horiz-adv-x="2195" 
d="M1264 1434h223l-180 -844q-18 -85 -53.5 -168t-95.5 -165t-135.5 -143.5t-180.5 -100t-224 -38.5q-104 0 -187.5 28t-136.5 76.5t-89 111t-49.5 134t-13 142t15.5 139.5l176 828h221l-180 -844q-13 -61 -14 -118t13.5 -111.5t44 -95t82.5 -65t124 -24.5q94 0 176 39
t138.5 103t94 138t53.5 150zM1755 825q98 0 178.5 53.5t104.5 149.5q21 92 -35 148.5t-152 56.5h-407l-86 -408h397zM1884 1434q87 0 163 -31t128 -85.5t73.5 -134.5t2.5 -171q-38 -172 -178.5 -279.5t-317.5 -107.5h-440l-133 -625h-221l303 1434h620z" />
    <glyph glyph-name="U_R.dlig" horiz-adv-x="2246" 
d="M1264 1434h221l-180 -844q-18 -85 -53.5 -168t-95 -165t-134.5 -143.5t-180 -100t-224 -38.5q-104 0 -187.5 28t-136.5 76.5t-89 111t-49.5 134t-13 142t15.5 139.5l176 828h221l-180 -844q-13 -61 -14 -118t13.5 -111.5t44 -95t82.5 -65t124 -24.5q94 0 176 39
t138.5 103t94 138t53.5 150zM1751 823q99 0 181 52.5t104 148.5q21 95 -35 152t-152 57h-407l-88 -410h397zM1923 723q89 -3 147.5 -73.5t36.5 -170.5l-102 -479h-201q72 344 105 500q12 55 -11 89t-79 34h-510l-133 -623h-222l310 1434h616q140 0 233.5 -57.5t126.5 -147
t11 -195.5q-13 -62 -45 -111t-67.5 -78t-79 -49.5t-72.5 -28t-56 -11.5z" />
    <glyph glyph-name="V_A" horiz-adv-x="1966" 
d="M1317 1434h231l-811 -1434h-334l-186 1434h217l150 -1129q2 -17 3.5 -34.5t2 -30.5t0.5 -24v-17v-6h35q24 74 59 137zM1628 1434l209 -1434h-192l-46 328h-677l-185 -328h-213l793 1434h311zM1026 510h547l-103 723h-32z" />
    <glyph glyph-name="a.ss01" horiz-adv-x="1191" 
d="M657 823q-78 0 -144.5 -29t-112 -78.5t-75.5 -108t-44 -124.5q-10 -48 -10.5 -90.5t11 -83t35 -69.5t65.5 -46.5t99 -17.5q77 0 144 29t114 78t79 108.5t46 124.5q8 46 9.5 90t-12 83.5t-37.5 69t-67 47t-100 17.5zM434 -25q-77 0 -140.5 22t-107 61t-73.5 91t-43 113
t-13 125t13 129q16 76 46.5 147.5t79 137.5t108.5 115t139.5 78.5t168.5 29.5q77 0 136.5 -20t95.5 -54.5t57 -71t31 -79.5h35q-2 11 -3.5 28.5t-3.5 69.5t5 88l2 14h221l-213 -999h-221l6 25q9 40 26 81t30 62l13 20h-30q-31 -46 -59.5 -78.5t-72.5 -66t-102.5 -51
t-130.5 -17.5z" />
    <glyph glyph-name="aacute.ss01" horiz-adv-x="1191" 
d="M1081 1481l-213 -295h-194l198 295h209zM657 823q-78 0 -144.5 -29t-112 -78.5t-75.5 -108t-44 -124.5q-10 -48 -10.5 -90.5t11 -83t35 -69.5t65.5 -46.5t99 -17.5q77 0 144 29t114 78t79 108.5t46 124.5q8 46 9.5 90t-12 83.5t-37.5 69t-67 47t-100 17.5zM434 -25
q-77 0 -140.5 22t-107 61t-73.5 91t-43 113t-13 125t13 129q16 76 46.5 147.5t79 137.5t108.5 115t139.5 78.5t168.5 29.5q77 0 136.5 -20t95.5 -54.5t57 -71t31 -79.5h35q-2 11 -3.5 28.5t-3.5 69.5t5 88l2 14h221l-213 -999h-221l6 25q9 40 26 81t30 62l13 20h-30
q-31 -46 -59.5 -78.5t-72.5 -66t-102.5 -51t-130.5 -17.5z" />
    <glyph glyph-name="acircumflex.ss01" horiz-adv-x="1191" 
d="M995 1481l125 -256h-184l-74 147h-12l-135 -147h-205l231 256h254zM657 823q-78 0 -144.5 -29t-112 -78.5t-75.5 -108t-44 -124.5q-10 -48 -10.5 -90.5t11 -83t35 -69.5t65.5 -46.5t99 -17.5q77 0 144 29t114 78t79 108.5t46 124.5q8 46 9.5 90t-12 83.5t-37.5 69t-67 47
t-100 17.5zM434 -25q-77 0 -140.5 22t-107 61t-73.5 91t-43 113t-13 125t13 129q16 76 46.5 147.5t79 137.5t108.5 115t139.5 78.5t168.5 29.5q77 0 136.5 -20t95.5 -54.5t57 -71t31 -79.5h35q-2 11 -3.5 28.5t-3.5 69.5t5 88l2 14h221l-213 -999h-221l6 25q9 40 26 81
t30 62l13 20h-30q-31 -46 -59.5 -78.5t-72.5 -66t-102.5 -51t-130.5 -17.5z" />
    <glyph glyph-name="adieresis.ss01" horiz-adv-x="1191" 
d="M643 1255q-53 0 -84.5 38.5t-21.5 92.5q7 39 42.5 67t75.5 28q52 0 83.5 -38t19.5 -91q-7 -39 -41.5 -68t-73.5 -29zM1022 1255q-54 0 -86.5 38.5t-20.5 92.5q7 40 42.5 67.5t76.5 27.5q51 0 82.5 -38t18.5 -91q-7 -39 -41.5 -68t-71.5 -29zM657 823q-78 0 -144.5 -29
t-112 -78.5t-75.5 -108t-44 -124.5q-10 -48 -10.5 -90.5t11 -83t35 -69.5t65.5 -46.5t99 -17.5q77 0 144 29t114 78t79 108.5t46 124.5q8 46 9.5 90t-12 83.5t-37.5 69t-67 47t-100 17.5zM434 -25q-77 0 -140.5 22t-107 61t-73.5 91t-43 113t-13 125t13 129
q16 76 46.5 147.5t79 137.5t108.5 115t139.5 78.5t168.5 29.5q77 0 136.5 -20t95.5 -54.5t57 -71t31 -79.5h35q-2 11 -3.5 28.5t-3.5 69.5t5 88l2 14h221l-213 -999h-221l6 25q9 40 26 81t30 62l13 20h-30q-31 -46 -59.5 -78.5t-72.5 -66t-102.5 -51t-130.5 -17.5z" />
    <glyph glyph-name="aring.ss01" horiz-adv-x="1191" 
d="M813 1362q60 0 99 36.5t49 84.5q9 47 -10 80.5t-77 33.5q-57 0 -95 -35.5t-48 -82.5q-9 -49 9 -83t73 -34zM885 1737q65 0 114 -25.5t73 -65t34.5 -87.5t-2.5 -93q-10 -48 -31 -89t-56 -76.5t-89.5 -55.5t-122.5 -20q-84 0 -140 43t-74 103.5t-5 123.5q10 47 31.5 88
t56.5 76.5t89 56.5t122 21zM657 823q-78 0 -144.5 -29t-112 -78.5t-75.5 -108t-44 -124.5q-10 -48 -10.5 -90.5t11 -83t35 -69.5t65.5 -46.5t99 -17.5q77 0 144 29t114 78t79 108.5t46 124.5q8 46 9.5 90t-12 83.5t-37.5 69t-67 47t-100 17.5zM434 -25q-77 0 -140.5 22
t-107 61t-73.5 91t-43 113t-13 125t13 129q16 76 46.5 147.5t79 137.5t108.5 115t139.5 78.5t168.5 29.5q77 0 136.5 -20t95.5 -54.5t57 -71t31 -79.5h35q-2 11 -3.5 28.5t-3.5 69.5t5 88l2 14h221l-213 -999h-221l6 25q9 40 26 81t30 62l13 20h-30q-31 -46 -59.5 -78.5
t-72.5 -66t-102.5 -51t-130.5 -17.5z" />
    <glyph glyph-name="f.ss01" horiz-adv-x="733" 
d="M88 799h162l-170 -799h223l170 799h293l41 200h-678zM575 999q-56 0 -89.5 30t-22.5 95q11 53 58 81t104 28h233l41 201h-315q-54 0 -105.5 -12.5t-100.5 -38.5t-85 -73.5t-49 -111.5q-3 -15 -4.5 -29.5t-1 -26t3 -23.5t5 -20.5t7.5 -18.5t8 -15t9 -13t8.5 -10.5
t8.5 -9.5l5 -6l-6 -29z" />
    <glyph glyph-name="g.ss01" horiz-adv-x="1185" 
d="M467 127q-208 0 -319 130t-70 329q41 201 184.5 319.5t343.5 118.5q102 0 180.5 -47t114 -131t12.5 -184q2 -19 20 -27.5t38 -10t33 -14t8 -39.5q-43 -201 -190 -322.5t-355 -121.5zM483 297q125 0 222.5 78.5t123.5 202.5q26 122 -37.5 199t-187.5 77q-126 0 -224 -78.5
t-126 -204.5q-26 -121 38.5 -197.5t190.5 -76.5zM946 662q-1 188 17 266q6 30 32 50.5t58 20.5h196l-43 -200h-106q-17 0 -30.5 -11t-18.5 -28l-39 -187h-146l47 89h33zM1018 600q-72 -340 -121 -569q-20 -95 -62.5 -173.5t-107.5 -140t-157.5 -95.5t-204.5 -34
q-134 0 -229 58.5t-132 156t-14 213.5h180q-25 -112 30.5 -185t172.5 -73q131 0 223 77.5t117 199.5l123 565h182z" />
    <glyph glyph-name="k.ss01" horiz-adv-x="1175" 
d="M565 362l234 -364h252l-312 465l9 33q134 11 235.5 82.5t126.5 191.5q23 104 -50.5 179t-225.5 75q-80 0 -152 -19.5t-119.5 -46.5t-87 -62t-59.5 -61.5t-31 -48.5h-33q65 117 90 228l88 420h-219l-303 -1434h219l78 362h260zM338 545q31 141 137 232t246 91
q59 0 98 -14.5t53.5 -37.5t19.5 -50.5t-3 -52.5q-15 -76 -98.5 -122t-198.5 -46h-254z" />
    <glyph glyph-name="o.ss01" 
d="M510 -25q-148 0 -259 72.5t-158.5 197t-16.5 271.5q29 139 119.5 256t219.5 184.5t267 67.5q148 0 259 -72.5t158.5 -197t16.5 -271.5q-29 -139 -119.5 -256t-219.5 -184.5t-267 -67.5zM508 176q135 0 250.5 99.5t146.5 240.5q26 129 -37.5 218t-183.5 89
q-135 0 -250.5 -99.5t-146.5 -240.5q-26 -129 37.5 -218t183.5 -89z" />
    <glyph glyph-name="oacute.ss01" 
d="M1090 1483l-213 -295h-195l199 295h209zM510 -25q-148 0 -259 72.5t-158.5 197t-16.5 271.5q29 139 119.5 256t219.5 184.5t267 67.5q148 0 259 -72.5t158.5 -197t16.5 -271.5q-29 -139 -119.5 -256t-219.5 -184.5t-267 -67.5zM508 176q135 0 250.5 99.5t146.5 240.5
q26 129 -37.5 218t-183.5 89q-135 0 -250.5 -99.5t-146.5 -240.5q-26 -129 37.5 -218t183.5 -89z" />
    <glyph glyph-name="ocircumflex.ss01" 
d="M997 1481l125 -256h-184l-74 147h-12l-135 -147h-205l231 256h254zM510 -25q-148 0 -259 72.5t-158.5 197t-16.5 271.5q29 139 119.5 256t219.5 184.5t267 67.5q148 0 259 -72.5t158.5 -197t16.5 -271.5q-29 -139 -119.5 -256t-219.5 -184.5t-267 -67.5zM508 176
q135 0 250.5 99.5t146.5 240.5q26 129 -37.5 218t-183.5 89q-135 0 -250.5 -99.5t-146.5 -240.5q-26 -129 37.5 -218t183.5 -89z" />
    <glyph glyph-name="odieresis.ss01" 
d="M645 1255q-53 0 -84.5 38.5t-21.5 92.5q7 39 42.5 67t75.5 28q52 0 83.5 -38t19.5 -91q-7 -39 -41.5 -68t-73.5 -29zM1024 1255q-54 0 -86 38.5t-20 92.5q7 40 42 67.5t76 27.5q51 0 82.5 -38t18.5 -91q-7 -39 -41.5 -68t-71.5 -29zM510 -25q-148 0 -259 72.5t-158.5 197
t-16.5 271.5q29 139 119.5 256t219.5 184.5t267 67.5q148 0 259 -72.5t158.5 -197t16.5 -271.5q-29 -139 -119.5 -256t-219.5 -184.5t-267 -67.5zM508 176q135 0 250.5 99.5t146.5 240.5q26 129 -37.5 218t-183.5 89q-135 0 -250.5 -99.5t-146.5 -240.5q-26 -129 37.5 -218
t183.5 -89z" />
    <glyph glyph-name="ohungarumlaut.ss01" 
d="M1229 1481l-213 -295h-195l199 295h209zM926 1481l-213 -295h-195l199 295h209zM510 -25q-148 0 -259 72.5t-158.5 197t-16.5 271.5q29 139 119.5 256t219.5 184.5t267 67.5q148 0 259 -72.5t158.5 -197t16.5 -271.5q-29 -139 -119.5 -256t-219.5 -184.5t-267 -67.5z
M508 176q135 0 250.5 99.5t146.5 240.5q26 129 -37.5 218t-183.5 89q-135 0 -250.5 -99.5t-146.5 -240.5q-26 -129 37.5 -218t183.5 -89z" />
    <glyph glyph-name="oslash.ss01" horiz-adv-x="1204" 
d="M1233 1014l-1075 -1028h-189l1073 1028h191zM520 -25q-148 0 -259 72.5t-158.5 197t-16.5 271.5q29 139 119.5 256t219.5 184.5t267 67.5q148 0 259 -72.5t158.5 -197t16.5 -271.5q-29 -139 -119.5 -256t-219.5 -184.5t-267 -67.5zM518 176q135 0 250.5 99.5t146.5 240.5
q26 129 -37.5 218t-183.5 89q-135 0 -250.5 -99.5t-146.5 -240.5q-26 -129 37.5 -218t183.5 -89z" />
    <glyph glyph-name="oslashacute.ss01" horiz-adv-x="1202" 
d="M1102 1483l-213 -295h-195l199 295h209zM1245 1014l-1075 -1028h-188l1073 1028h190zM532 -25q-148 0 -259 72.5t-158.5 197t-16.5 271.5q29 139 119.5 256t220 184.5t267.5 67.5q148 0 259 -72.5t158.5 -197t16.5 -271.5q-29 -139 -119.5 -256t-220 -184.5t-267.5 -67.5
zM530 176q135 0 251 99.5t147 240.5q26 129 -37.5 218t-183.5 89q-135 0 -251 -99.5t-147 -240.5q-26 -129 37.5 -218t183.5 -89z" />
    <glyph glyph-name="t.ss01" horiz-adv-x="737" 
d="M129 999l-41 -200h162l-92 -437q-21 -109 -1 -191t94.5 -128.5t194.5 -42.5h152l39 182h-176q-62 0 -87 35t-12 90l109 492h297l43 200h-682zM379 1208q-21 -102 -74.5 -155.5t-175.5 -53.5q-4 0 50.5 -6.5t111.5 -13t61 -6.5l10 65q106 0 167 58t77 153l39 185h-219z
" />
    <glyph glyph-name="tcaron.ss01" horiz-adv-x="827" 
d="M1030 1837l-139 -551h-176l94 551h221zM129 999l-41 -200h162l-92 -437q-21 -109 -1 -191t94.5 -128.5t194.5 -42.5h152l39 182h-176q-62 0 -87 35t-12 90l109 492h297l43 200h-682zM379 1208q-21 -102 -74.5 -155.5t-175.5 -53.5q-4 0 50.5 -6.5t111.5 -13t61 -6.5
l10 65q106 0 167 58t77 153l39 185h-219z" />
    <glyph glyph-name="a_e.dlig" horiz-adv-x="1857" 
d="M817 541q-52 -31 -366 -78q-69 -10 -130 -53t-75 -109q-12 -59 21.5 -101t92.5 -53q54 -8 108 0t120 41q68 34 117.5 87.5t70.5 109.5q4 14 12.5 42.5t12.5 41.5zM788 258q-2 -5 -7 -14.5t-22 -36.5t-37 -51t-53 -53.5t-69 -49.5q-170 -95 -364 -73q-107 11 -169.5 91.5
t-37.5 198.5q27 122 107.5 189t189.5 92q76 17 192.5 31t155.5 22q35 6 49.5 9t42 11.5t39.5 17.5t22 26t9 39q-2 59 -58 97t-149 38q-116 0 -198.5 -58t-100.5 -137h-213q16 73 57.5 138.5t107 120t162.5 86.5t211 32q77 0 141 -15t108 -41.5t76.5 -63.5t47 -80.5t19 -92
t-8.5 -98.5q-18 -87 -72 -180.5t-98 -144.5l-45 -50h-35zM1368 842q-64 0 -121.5 -23.5t-98.5 -62t-70 -82t-46 -90.5l559 2q4 44 -5.5 87t-33.5 82t-71.5 63t-112.5 24zM999 449q-3 -35 -3.5 -74t14.5 -78t38.5 -70t68 -50t102.5 -19q191 0 290 176h222
q-22 -47 -48.5 -90.5t-73.5 -94.5t-102 -87.5t-134.5 -61.5t-170.5 -25q-71 0 -131.5 18t-104 49t-77 73.5t-53 91t-29.5 102t-8.5 106.5t12.5 103q20 95 65 182.5t114.5 161.5t171.5 118t222 44q82 0 150.5 -21.5t116.5 -59.5t81.5 -91t48 -116.5t13.5 -135t-20 -147.5z
" />
    <glyph glyph-name="f_f.dlig" horiz-adv-x="1355" 
d="M311 1087q13 56 31.5 102t52.5 93t79 79t113 52.5t152 20.5h164l-43 -201h-178q-55 0 -93.5 -32.5t-49.5 -84.5l-27 -117h299l-43 -200h-297l-170 -799h-221l170 799h-162l41 200h162zM932 1087q14 56 32.5 102t52.5 93t78.5 79t112.5 52.5t152 20.5h164l-43 -201h-178
q-55 0 -94 -32.5t-50 -84.5l-26 -117h299l-43 -200h-297l-170 -799h-222l170 799h-161l41 200h161z" />
    <glyph glyph-name="f_f_i.dlig" horiz-adv-x="1732" 
d="M307 1071q16 69 47 130t80 115t123 86t164 32h180l-41 -201h-170q-63 0 -105 -42.5t-55 -103.5l-18 -88h295l-41 -200h-295l-170 -799h-221l170 799h-162l41 200h162zM922 1071q15 69 45.5 130t79.5 115t123.5 86t164.5 32h181l-41 -201h-172q-62 0 -104.5 -43
t-53.5 -103l-21 -88h297l-41 -200h-297l-170 -799h-219l170 799h-164l41 200h164zM1714 915l-194 -915h-222l162 766q9 33 -24 33h-99l41 200h269q32 0 52.5 -26t14.5 -58z" />
    <glyph glyph-name="f_f_j.dlig" horiz-adv-x="1740" 
d="M305 1071q16 69 47 130t80 115t123 86t164 32h182l-43 -201h-170q-65 0 -105 -41.5t-53 -104.5l-18 -88h295l-43 -200h-297l-170 -799h-219l170 799h-162l43 200h162zM920 1071q15 69 45.5 130t79.5 115t123.5 86t164.5 32h183l-43 -201h-170q-65 0 -106 -42t-54 -104
l-19 -88h297l-43 -200h-297l-170 -799h-219l170 799h-164l43 200h162zM1466 -283q-27 -121 -119.5 -203.5t-242.5 -82.5h-215l61 200h166q51 0 87.5 31t47.5 82l211 1001q6 24 -6 39t-33 15h-88l43 200h258q46 0 67.5 -30.5t12.5 -77.5z" />
    <glyph glyph-name="f_f_r.dlig" horiz-adv-x="2091" 
d="M307 1071q16 69 47.5 130t80.5 115t123.5 86t164.5 32h178l-41 -201h-170q-62 0 -103.5 -42t-54.5 -104l-20 -88h295l-41 -200h-293l-170 -799h-221l170 799h-164l41 200h162zM922 1071q16 69 46.5 130t79 115t123 86t164.5 32h181l-41 -201h-170q-66 0 -106.5 -41.5
t-53.5 -104.5l-19 -88h295l-41 -200h-295l-170 -799h-219l170 799h-166l41 200h164zM2093 799q-92 0 -172 -39.5t-134 -98.5t-97 -137.5t-66.5 -145.5t-38.5 -134l-51 -244h-221l162 758q3 15 -7.5 28t-27.5 13h-101l43 200h254q41 0 59 -17t11 -50q-9 -42 -48.5 -147
t-74.5 -189l-35 -84h45q28 73 65 140.5t89.5 131.5t112 111t136 75.5t158.5 28.5z" />
    <glyph glyph-name="f_f_t.dlig" horiz-adv-x="1986" 
d="M1489 799h-404l-170 -799h-219l170 799h-397l-170 -799h-219l170 799h-162l41 200h162l16 72q16 69 47.5 130t80.5 115t123.5 86t164.5 32h178l-41 -201h-170q-63 0 -105 -42.5t-53 -103.5l-20 -88h395l17 72q16 69 46.5 130t79 115t123 86t164.5 32h181l-41 -201h-170
q-66 0 -106.5 -42t-53.5 -104l-19 -88h402l92 435h219l-92 -435h299l-41 -200h-297l-104 -486q-10 -51 13 -81.5t73 -30.5h186l-41 -201h-190q-102 0 -168 49.5t-87 122.5t-3 156z" />
    <glyph glyph-name="f_i.dlig" horiz-adv-x="1118" 
d="M307 1071q16 69 47.5 130t80.5 115t123.5 86t164.5 32h178l-41 -201h-170q-64 0 -104.5 -41.5t-53.5 -104.5l-20 -88h295l-41 -200h-297l-170 -799h-219l170 799h-162l41 200h162zM1098 915l-193 -915h-219l162 766q6 33 -25 33h-98l41 200h266q31 0 51.5 -26t14.5 -58z
" />
    <glyph glyph-name="f_j.dlig" horiz-adv-x="1114" 
d="M307 1071q15 68 46 129.5t79.5 115.5t123.5 86t165 32h180l-43 -201h-168q-65 0 -106 -42t-54 -104l-18 -88h295l-43 -200h-297l-170 -799h-219l170 799h-162l43 200h162zM840 -283q-26 -121 -118.5 -203.5t-242.5 -82.5h-217l64 200h166q50 0 86.5 31t46.5 82l213 1001
q4 24 -7.5 39t-31.5 15h-88l43 200h258q45 0 67 -31t11 -77z" />
    <glyph glyph-name="f_r.dlig" horiz-adv-x="1458" 
d="M307 1071q16 69 47.5 130t80.5 115t123.5 86t164.5 32h178l-41 -201h-170q-67 0 -106.5 -42t-51.5 -104l-20 -88h295l-41 -200h-297l-170 -799h-219l170 799h-162l41 200h162zM1460 799q-92 0 -172 -39.5t-134 -98.5t-97 -137.5t-66.5 -145.5t-38.5 -134l-51 -244h-221
l162 758q3 15 -7.5 28t-27.5 13h-100l43 200h254q40 0 58 -17t11 -50q-9 -42 -48.5 -147t-74.5 -189l-35 -84h46q28 73 65 140.5t89.5 131.5t112 111t136 75.5t158.5 28.5z" />
    <glyph glyph-name="f_t.dlig" horiz-adv-x="1386" 
d="M307 1071q16 69 47.5 130t80.5 115t123.5 86t164.5 32h178l-41 -201h-170q-65 0 -105.5 -42.5t-52.5 -103.5l-20 -88h418l92 435h219l-92 -435h299l-41 -200h-297l-104 -486q-10 -51 13 -81.5t73 -30.5h186l-41 -201h-190q-102 0 -168.5 49.5t-87.5 123t-3 155.5l101 471
h-420l-170 -799h-219l170 799h-162l41 200h162z" />
    <glyph glyph-name="g_i.dlig" horiz-adv-x="1605" 
d="M475 127q-200 0 -309.5 130t-67.5 329q43 202 184 320t341 118q74 0 138 -23t110.5 -68t64 -111.5t-1.5 -153.5q3 -19 21.5 -28.5t38.5 -12t33.5 -16t8.5 -40.5q-41 -200 -196 -322t-365 -122zM510 309q126 0 222.5 75.5t121.5 193.5q25 117 -38.5 190.5t-188.5 73.5
q-127 0 -223.5 -76t-122.5 -195q-22 -111 43.5 -186.5t185.5 -75.5zM373 -432q149 0 256.5 42t122.5 107q13 65 -77 105.5t-237 40.5q-151 0 -257.5 -42t-119.5 -108q-13 -65 74.5 -105t237.5 -40zM172 -57h-61q-67 0 -100.5 34.5t-20.5 94.5q12 59 58 90t114 31h22l9 36
l288 -61l-10 -41h-231q-30 0 -52 -13.5t-28 -39.5t10 -37.5t47 -11.5h252q247 0 379.5 -97t103.5 -235q-29 -131 -199.5 -209t-408.5 -78q-239 0 -377.5 85.5t-111.5 209.5q11 54 46.5 95t84 63.5t92 34.5t86.5 16zM967 668q4 176 20 254q6 34 32 55.5t60 21.5h195l-41 -200
h-107q-41 0 -51 -41l-39 -187l-168 -22l66 119h33zM1575 887l-189 -887h-221l160 745q6 23 -6 38.5t-33 15.5h-82l43 200h236q51 0 76.5 -30.5t15.5 -81.5zM1554 1255q-54 0 -86.5 39t-21.5 92q9 41 44 68t75 27q53 0 83.5 -37.5t20.5 -91.5q-7 -39 -42.5 -68t-72.5 -29z
" />
    <glyph glyph-name="g_r.dlig" horiz-adv-x="1953" 
d="M475 127q-200 0 -309.5 130t-67.5 329q43 202 184 320t341 118q74 0 138 -23t110.5 -68t64 -111.5t-1.5 -153.5q3 -19 21.5 -28.5t38.5 -12t33.5 -16t8.5 -40.5q-41 -200 -196 -322t-365 -122zM510 309q126 0 222.5 75.5t121.5 193.5q25 117 -38.5 190.5t-188.5 73.5
q-127 0 -223.5 -76t-122.5 -195q-22 -111 43.5 -186.5t185.5 -75.5zM373 -432q149 0 256.5 42t122.5 107q13 65 -77 105.5t-237 40.5q-151 0 -257.5 -42t-119.5 -108q-13 -65 74.5 -105t237.5 -40zM172 -57h-61q-67 0 -100.5 34.5t-20.5 94.5q12 59 58 90t114 31h22l9 36
l288 -61l-10 -41h-231q-30 0 -52 -13.5t-28 -39.5t10 -37.5t47 -11.5h252q247 0 379.5 -97t103.5 -235q-29 -131 -199.5 -209t-408.5 -78q-239 0 -377.5 85.5t-111.5 209.5q11 54 46.5 95t84 63.5t92 34.5t86.5 16zM967 668q4 176 20 254q6 34 32 55.5t60 21.5h195l-41 -200
h-107q-41 0 -51 -41l-39 -187l-168 -22l66 119h33zM1956 799q-92 0 -172 -39.5t-134 -98.5t-97 -137.5t-66.5 -145.5t-38.5 -134l-51 -244h-223l163 758q3 15 -8 28t-26 13h-101l43 200h254q41 0 59 -17t11 -50q-9 -42 -48.5 -147t-74.5 -189l-35 -84h45q35 93 86 175.5
t119.5 154.5t161 114.5t194.5 42.5z" />
    <glyph glyph-name="r_i.dlig" horiz-adv-x="1239" 
d="M918 999q-102 0 -194.5 -42.5t-161.5 -114.5t-120 -154.5t-86 -175.5h-45q138 326 158 420q7 33 -11 50t-59 17h-254l-43 -200h101q15 0 26.5 -13t8.5 -28l-164 -758h223l51 244q15 67 38.5 134t66.5 145.5t97 137.5t134 98.5t172 39.5zM1204 887q10 51 -15.5 81.5
t-76.5 30.5h-199l-77 -200h79q21 0 33 -15.5t6 -38.5l-159 -745h221zM1186 1255q-54 0 -86.5 39.5t-20.5 91.5q7 40 42.5 67.5t76.5 27.5q52 0 83 -38t19 -91q-7 -39 -42 -68t-72 -29z" />
    <glyph glyph-name="r_j.dlig" horiz-adv-x="1239" 
d="M918 999q-102 0 -194.5 -42.5t-161.5 -114.5t-120 -154.5t-86 -175.5h-45q138 326 158 420q7 33 -11 50t-59 17h-254l-43 -200h101q15 0 26.5 -13t8.5 -28l-164 -758h223l51 244q15 67 38.5 134t66.5 145.5t97 137.5t134 98.5t172 39.5zM1206 891q11 47 -10.5 77.5
t-67.5 30.5h-213l-88 -200h88q20 0 32.5 -15t6.5 -39l-213 -1001q-10 -51 -46.5 -82t-86.5 -31h-166l-61 -200h215q150 0 242.5 82.5t119.5 203.5zM1176 1255q-56 0 -88.5 39.5t-20.5 91.5q7 41 42 68t77 27q52 0 83 -38t19 -91q-9 -39 -42.5 -68t-69.5 -29z" />
    <glyph glyph-name="t_i.dlig" horiz-adv-x="1150" 
d="M250 799h-164l43 200h162l92 435h219l-92 -435h520q50 0 74.5 -30t15.5 -78l-190 -891h-219l159 748q6 23 -4.5 37t-31.5 14h-367l-102 -486q-10 -51 13 -81.5t73 -30.5h188l-41 -201h-190q-102 0 -169 49t-88.5 123t-3.5 156zM991 1386q9 40 44 67.5t75 27.5
q52 0 83 -38t21 -91q-7 -39 -42 -68t-72 -29q-55 0 -87.5 38.5t-21.5 92.5z" />
    <glyph glyph-name="t_r.dlig" horiz-adv-x="1513" 
d="M250 799h-162l41 200h162l92 435h219l-92 -435h295l-43 -200h-291l-104 -486q-12 -50 14 -81t74 -31h176l-25 -201h-190q-80 0 -140 29t-89 75t-41 105t4 119zM1513 799q-91 0 -170.5 -39.5t-133.5 -98.5t-97 -137t-66.5 -146t-37.5 -134l-52 -244h-223l164 758
q2 15 -9 28t-26 13h-100l41 200h256q85 0 67 -67q-8 -42 -47 -147t-73 -189l-35 -84h45q34 93 85 175.5t120 154.5t161.5 114.5t194.5 42.5z" />
    <glyph glyph-name="t_t" horiz-adv-x="1359" 
d="M862 799h-162l41 200h162l92 435h219l-92 -435h299l-41 -200h-297l-104 -473q-11 -56 14.5 -90.5t81.5 -34.5h176l-41 -201h-192q-102 0 -167.5 49.5t-86 122.5t-2.5 156zM250 799h-162l41 200h162l92 435h219l-92 -435h299l-41 -200h-297l-104 -486q-12 -50 12.5 -81
t71.5 -31h180l-25 -201h-190q-80 0 -140 29t-89 75t-41 105t4 119z" />
    </font>
</defs>
</svg>
