<?xml version="1.0" standalone="no"?>
<!DOCTYPE svg PUBLIC "-//W3C//DTD SVG 1.1//EN" "http://www.w3.org/Graphics/SVG/1.1/DTD/svg11.dtd" >
<svg xmlns="http://www.w3.org/2000/svg" xmlns:xlink="http://www.w3.org/1999/xlink" version="1.1">
<metadata>
Created by FontForge 20201107 at Fri Feb 16 19:17:23 2024
 By 
copyright missing
</metadata>
<defs>
<font id="NeueRegrade-Light" horiz-adv-x="1112" >
  <font-face 
    font-family="Neue Regrade Light"
    font-weight="300"
    font-stretch="normal"
    units-per-em="2048"
    panose-1="0 0 0 0 0 0 0 0 0 0"
    ascent="1638"
    descent="-410"
    x-height="999"
    cap-height="1434"
    bbox="-113 -594 2404 1954"
    underline-thickness="102"
    underline-position="-255"
    unicode-range="U+0020-2265"
  />
<missing-glyph horiz-adv-x="1167" 
d="M956 1741v-2335h-739v2335h739zM778 150h-389v-265h389v265zM700 72v-111h-233v111h233zM778 553h-233v-131h78v53h77v-108h-233v186h-78v-264h389v264zM778 838h-78v-154h-311v-80h389v234zM778 977h-389v-76h156v-88h-156v-76h234v164h155v76zM545 1204v-84h-78v84h78z
M623 1284h-234v-244h389v80h-155v164zM778 1585h-385v-78h152v-86h-156v-78h389v78h-155v86h155v78zM778 -170h-389v-76h164l-164 -110v-76h389v76h-239l163 110h76v76z" />
    <glyph glyph-name=".notdef" horiz-adv-x="1167" 
d="M956 1741v-2335h-739v2335h739zM778 150h-389v-265h389v265zM700 72v-111h-233v111h233zM778 553h-233v-131h78v53h77v-108h-233v186h-78v-264h389v264zM778 838h-78v-154h-311v-80h389v234zM778 977h-389v-76h156v-88h-156v-76h234v164h155v76zM545 1204v-84h-78v84h78z
M623 1284h-234v-244h389v80h-155v164zM778 1585h-385v-78h152v-86h-156v-78h389v78h-155v86h155v78zM778 -170h-389v-76h164l-164 -110v-76h389v76h-239l163 110h76v76z" />
    <glyph glyph-name=".null" horiz-adv-x="0" 
 />
    <glyph glyph-name="nonmarkingreturn" horiz-adv-x="682" 
 />
    <glyph glyph-name="space" unicode=" " horiz-adv-x="573" 
 />
    <glyph glyph-name="space" unicode="&#xa0;" horiz-adv-x="573" 
 />
    <glyph glyph-name="exclam" unicode="!" horiz-adv-x="350" 
d="M145 1434h62v-1121h-62v1121zM176 -25q-22 0 -37.5 15t-15.5 37t15.5 36.5t37.5 14.5q21 0 36 -15t15 -36t-15.5 -36.5t-35.5 -15.5z" />
    <glyph glyph-name="quotedbl" unicode="&#x22;" horiz-adv-x="466" 
d="M143 1434l-8 -488h-43l-10 488h61zM385 1434l-10 -488h-43l-8 488h61z" />
    <glyph glyph-name="numbersign" unicode="#" horiz-adv-x="1306" 
d="M1022 1434h63l-278 -1434h-64zM504 1434h63l-278 -1434h-64zM92 496h1059v-56h-1059v56zM156 987h1058v-55h-1058v55z" />
    <glyph glyph-name="dollar" unicode="$" horiz-adv-x="1185" 
d="M571 1636v-1837h62v1837h-62zM1094 381q0 70 -20.5 126t-66 95t-86.5 66t-113.5 48.5t-114.5 31.5t-119 25q-3 1 -5 1q-138 27 -178 40q-163 52 -198 178q-11 38 -11 83q0 60 23 116t70 104.5t130 78t191 29.5q110 0 194.5 -29.5t131.5 -78t70.5 -104.5t23.5 -116v-24h61
v24q0 56 -16 108.5t-52.5 103t-90.5 88t-137 60.5t-185 23q-100 0 -182 -23t-135.5 -60.5t-89.5 -88t-52 -103.5t-16 -108q0 -79 29 -139.5t62 -93t104 -60t104.5 -35.5t115.5 -23q24 -5 35 -7q53 -10 92 -18.5t90 -24t87.5 -32t75 -42.5t62.5 -56t39 -72t15 -91
q0 -67 -25 -127t-75.5 -111t-138.5 -81.5t-203 -30.5q-116 0 -205.5 33.5t-140.5 88.5t-76 118t-25 130h-61q0 -61 16.5 -120t55.5 -115t96 -98t144 -67.5t194 -25.5t194 23.5t144 62.5t95.5 92t55.5 110t17 118z" />
    <glyph glyph-name="percent" unicode="%" horiz-adv-x="1736" 
d="M367 0h-78l1081 1434h76zM424 825q67 0 118.5 26t81 68.5t44 92t14.5 102.5q0 52 -14.5 101.5t-44 92.5t-81 69t-118.5 26t-119 -26t-82 -69t-44.5 -92.5t-14.5 -101.5q0 -53 14.5 -102.5t44.5 -92.5t82 -68.5t119 -25.5zM424 1458q83 0 146.5 -30.5t100 -82t54.5 -110
t18 -121.5t-18 -121.5t-54.5 -110t-100 -82t-146.5 -30.5q-84 0 -148 30.5t-101 82t-55 110t-18 121.5t18 121.5t55 110t101 82t148 30.5zM1313 33q67 0 119 25.5t82 68t44.5 91.5t14.5 101q0 53 -14.5 102.5t-44.5 92.5t-82 68.5t-119 25.5t-118.5 -26t-81 -68.5t-44 -92
t-14.5 -102.5q0 -52 14.5 -101t44 -91.5t81 -68t118.5 -25.5zM1313 664q84 0 148 -31t100.5 -82t54.5 -110t18 -122q0 -62 -18 -120.5t-54.5 -110t-101 -82.5t-147.5 -31q-67 0 -122 20.5t-91 55t-60.5 79.5t-35.5 92.5t-11 96.5q0 63 18 122t54.5 110t100.5 82t147 31z" />
    <glyph glyph-name="ampersand" unicode="&#x26;" horiz-adv-x="1331" 
d="M739 166l146 229l-252 291q-67 74 -160 74q-61 0 -117 -20.5t-105 -61.5t-78.5 -113.5t-29.5 -167.5t29.5 -168.5t79 -115t105.5 -62t116 -20.5q75 0 150.5 36.5t115.5 98.5zM1311 741q-63 0 -118 -30t-89 -84l-141 -224l348 -403h-82l-301 348l-131 -207
q-40 -64 -122.5 -115t-203.5 -51q-56 0 -109 13.5t-104.5 45t-90 77.5t-62 117t-23.5 157q0 107 35 190t92.5 130.5t124 71.5t137.5 24q9 0 72 -10l14 12q-84 63 -154 147q-5 6 -27 31.5t-30.5 36t-26 36t-25 44t-14 45.5t-6.5 55q0 67 27 119t72 82t96 44.5t106 14.5
t106.5 -14.5t97 -44t73 -81.5t27.5 -120h-62q0 71 -38 119t-90.5 67t-113.5 19q-44 0 -84.5 -11.5t-76 -34.5t-57 -64t-21.5 -95q0 -76 74 -162l510 -585l124 198q41 65 114 106.5t153 41.5v-56z" />
    <glyph glyph-name="quotesingle" unicode="'" horiz-adv-x="307" 
d="M184 1434l-8 -488h-43l-10 488h61z" />
    <glyph glyph-name="parenleft" unicode="(" horiz-adv-x="471" 
d="M471 -426q-144 185 -215.5 430t-71.5 500q0 257 71 501t216 429h-76q-137 -190 -204.5 -434t-67.5 -496t67.5 -496t204.5 -434h76z" />
    <glyph glyph-name="parenright" unicode=")" horiz-adv-x="471" 
d="M0 -426q144 185 215.5 430t71.5 500q0 257 -71 501t-216 429h76q137 -190 204.5 -434t67.5 -496t-67.5 -496t-204.5 -434h-76z" />
    <glyph glyph-name="asterisk" unicode="*" horiz-adv-x="765" 
d="M414 1434v-275l270 101l21 -56l-277 -104l166 -271l-53 -32l-158 258l-158 -258l-53 32l166 271l-277 104l21 56l270 -101v275h62z" />
    <glyph glyph-name="plus" unicode="+" 
d="M586 1100v-385h383v-56h-383v-385h-62v385h-381v56h381v385h62z" />
    <glyph glyph-name="comma" unicode="," horiz-adv-x="389" 
d="M227 27q0 21 -15 36t-36 15q-22 0 -37.5 -14.5t-15.5 -36.5t15.5 -37t37.5 -15q20 0 35.5 15.5t15.5 36.5zM197 -20q25 -22 10.5 -63t-53.5 -50v-39q69 15 98.5 76.5t6.5 117.5t-83 56z" />
    <glyph glyph-name="hyphen" unicode="-" horiz-adv-x="946" 
d="M143 561h660v-55h-660v55z" />
    <glyph glyph-name="period" unicode="." horiz-adv-x="350" 
d="M176 -25q-22 0 -37.5 15t-15.5 37t15.5 36.5t37.5 14.5q21 0 36 -15t15 -36t-15.5 -36.5t-35.5 -15.5z" />
    <glyph glyph-name="slash" unicode="/" horiz-adv-x="757" 
d="M758 1434l-692 -1805h-66l692 1805h66z" />
    <glyph glyph-name="zero" unicode="0" horiz-adv-x="1380" 
d="M690 31q108 0 197 41t147 109t98 158t57 184.5t17 193.5t-17 193.5t-57 184.5t-98 158t-147 109t-197 41t-197 -41t-147 -109t-98 -158t-57 -184.5t-17 -193.5t17 -193.5t57 -184.5t98 -158t147 -109t197 -41zM690 1458q121 0 220.5 -44.5t165 -117.5t109.5 -170.5
t63.5 -199.5t19.5 -209t-19.5 -209t-63.5 -199.5t-109.5 -171t-165 -118t-220.5 -44.5t-220.5 44.5t-164.5 118t-109.5 171t-63.5 199.5t-19 209t19 209t63.5 199.5t109.5 170.5t164.5 117.5t220.5 44.5z" />
    <glyph glyph-name="one" unicode="1" horiz-adv-x="600" 
d="M375 1434q0 -77 -18.5 -150t-55.5 -138t-101.5 -109.5t-148.5 -55.5v-55q221 22 324 229h18q-18 -118 -18 -233v-922h61v1434h-61z" />
    <glyph glyph-name="two" unicode="2" horiz-adv-x="1095" 
d="M406 55q-53 0 -113.5 -5t-94.5 -10l-34 -5v20q606 547 700 631q64 58 98.5 147t34.5 183q0 64 -15 125t-50 119t-86 101.5t-129.5 70t-173.5 26.5t-173.5 -26.5t-129.5 -70t-86.5 -101.5t-50.5 -119t-15 -125q0 -31 2 -47h62q-2 16 -2 47q0 71 22 137t66.5 123.5t123 92
t181.5 34.5t181.5 -34.5t123 -92t66.5 -123.5t22 -137q0 -183 -131 -301l-723 -652v-63h922v55h-598z" />
    <glyph glyph-name="three" unicode="3" horiz-adv-x="1110" 
d="M1018 412q0 96 -33 175.5t-88 130.5t-119 82t-133 42q-39 5 -76 1.5t-63.5 -9t-26.5 -7.5v25l512 508v74h-850v-56h783l-533 -526v-55h154q59 0 116 -13t111 -43t94.5 -73.5t65 -109.5t24.5 -146q0 -100 -37 -176.5t-98 -119.5t-131 -64t-145 -21q-59 0 -116 12.5
t-111 41.5t-94.5 72t-65.5 108.5t-25 146.5v18h-61v-18q0 -92 28.5 -167t75 -124t108.5 -83t127.5 -48.5t133.5 -14.5t133.5 14.5t127.5 48.5t108.5 83t75 124t28.5 167z" />
    <glyph glyph-name="four" unicode="4" horiz-adv-x="1202" 
d="M881 1378h-19l-733 -1005h518q52 0 110.5 -5.5t90.5 -10.5l33 -5v1026zM1110 373v-56h-168v-317h-61v317h-799v93l743 1024h117v-1061h168z" />
    <glyph glyph-name="five" unicode="5" horiz-adv-x="1187" 
d="M1106 498q0 74 -16.5 146.5t-55.5 142.5t-95.5 122.5t-143.5 84t-193 30.5q-221 -3 -358 -164h-19q33 123 47 221l37 297h682v56h-737l-80 -637h64q123 172 358 172q94 0 171.5 -28.5t127.5 -75t84.5 -109t49.5 -127t15 -131.5q0 -68 -15 -132.5t-49.5 -125.5t-85 -107
t-127.5 -74t-171 -28q-84 0 -155 22.5t-120 60.5t-85 89.5t-55.5 107.5t-26.5 117h-62q8 -70 29.5 -133t62.5 -122.5t96.5 -102.5t137 -69t178.5 -26q107 0 195 31.5t145.5 83t96.5 120t56 141t17 147.5z" />
    <glyph glyph-name="six" unicode="6" horiz-adv-x="1253" 
d="M651 31q94 0 171.5 28t128 74t85 107.5t49.5 126t15 131.5q0 68 -15 132.5t-49.5 126t-85 108t-128 74.5t-171.5 28t-171 -28t-127.5 -74.5t-85 -108t-49.5 -126t-15 -132.5q0 -67 15 -131.5t49.5 -126t85 -107.5t127.5 -74t171 -28zM666 1022q99 0 188 -34.5
t157.5 -98.5t109 -165.5t40.5 -225.5t-40.5 -224.5t-109.5 -165t-157.5 -99t-187.5 -34.5q-60 0 -114 8t-113 30.5t-108 58t-94.5 93.5t-76.5 133.5t-49.5 182.5t-18.5 236q0 107 17.5 209t57.5 199.5t99 170.5t148.5 117.5t199.5 44.5q175 0 291 -103.5t176 -277.5h-65
q-53 149 -153.5 237.5t-248.5 88.5q-165 0 -280 -112t-163 -312t-26 -459h21q0 150 71 266.5t183.5 176t245.5 59.5z" />
    <glyph glyph-name="seven" unicode="7" horiz-adv-x="991" 
d="M20 1434v-56h607q51 0 109.5 5t91.5 11l32 5v-21q-244 -178 -388 -557.5t-144 -820.5h61q0 194 35 395.5t103 393.5t183 349.5t261 239.5v56h-951z" />
    <glyph glyph-name="eight" unicode="8" horiz-adv-x="1200" 
d="M600 31q65 0 126.5 12.5t120 42t102.5 72.5t71 109t27 147t-27 147t-71 109t-102.5 72.5t-120 42t-126.5 12.5q-64 0 -125.5 -12.5t-120 -42t-102.5 -72.5t-71 -109t-27 -147t27 -147t71 -109t102.5 -72.5t120 -42t125.5 -12.5zM215 1126q0 -72 34.5 -127t92 -86
t122.5 -46t136 -15t136 15t122.5 46t92 86t34.5 127t-34.5 127.5t-92 87t-123 47t-135.5 15.5t-135.5 -15.5t-123 -47t-92 -87t-34.5 -127.5zM772 813q147 -37 241.5 -138.5t94.5 -268.5q0 -90 -30.5 -164.5t-81 -123t-117.5 -81.5t-136.5 -47.5t-142.5 -14.5t-142.5 14.5
t-136.5 47.5t-117.5 81.5t-81 123t-30.5 164.5q0 167 94.5 268.5t241.5 138.5v21q-122 32 -198 107t-76 194q0 68 27 124t71 92t102.5 61t120 35.5t125.5 10.5q82 0 158 -18t142.5 -54.5t106.5 -101t40 -149.5q0 -119 -76.5 -194t-198.5 -107v-21z" />
    <glyph glyph-name="nine" unicode="9" horiz-adv-x="1253" 
d="M602 1403q-94 0 -171 -28t-127.5 -74t-85 -107.5t-49.5 -126t-15 -131.5q0 -68 15 -132.5t49.5 -126t85 -108t127.5 -74.5t171 -28t171.5 28t128 74.5t85 108t49.5 126t15 132.5q0 67 -15 131.5t-49.5 126t-85 107.5t-128 74t-171.5 28zM588 412q-99 0 -188 34.5
t-158 98.5t-109.5 165.5t-40.5 225.5t40.5 224.5t110 164.5t158 98.5t187.5 34.5q60 0 114 -8t113 -30.5t108 -57.5t94 -93t76 -133.5t49.5 -182.5t18.5 -236q0 -107 -17.5 -209t-57.5 -199.5t-99 -171t-148.5 -118t-199.5 -44.5q-175 0 -291 103.5t-176 277.5h66
q53 -149 153 -237t248 -88q165 0 280 112t163 311.5t26 458.5h-21q0 -113 -41 -209t-110 -159t-159 -98t-189 -35z" />
    <glyph glyph-name="colon" unicode=":" horiz-adv-x="391" 
d="M197 -25q-22 0 -38 15t-16 37q0 21 16 36t38 15q21 0 36 -15t15 -36t-15 -36.5t-36 -15.5zM197 922q-22 0 -38 15t-16 36t16 36t38 15q21 0 36 -15t15 -36t-15 -36t-36 -15z" />
    <glyph glyph-name="semicolon" unicode=";" horiz-adv-x="430" 
d="M197 922q-22 0 -38 15t-16 36t16 36t38 15q21 0 36 -15t15 -36t-15 -36t-36 -15zM248 25q0 21 -15 36t-36 15q-22 0 -38 -15t-16 -36q0 -22 16 -37t38 -15q21 0 36 15.5t15 36.5zM217 -23q25 -22 10.5 -62.5t-53.5 -49.5v-39q69 15 98.5 76.5t7 117.5t-82.5 56z" />
    <glyph glyph-name="less" unicode="&#x3c;" 
d="M969 358v-65l-826 334v86l826 334v-66q-656 -266 -660 -268q-29 -12 -56.5 -20.5t-40.5 -11.5l-13 -3v-16q44 -8 110 -35z" />
    <glyph glyph-name="equal" unicode="=" 
d="M143 528h826v-55h-826v55zM143 901h826v-55h-826v55z" />
    <glyph glyph-name="greater" unicode="&#x3e;" 
d="M143 358q656 267 660 269q29 12 56.5 21t40.5 12l13 2v16q-44 8 -110 35l-660 268v66l826 -334v-86l-826 -334v65z" />
    <glyph glyph-name="question" unicode="?" horiz-adv-x="999" 
d="M938 1077q0 81 -26 146.5t-69.5 108.5t-101 72t-118 41.5t-123.5 12.5t-123.5 -12.5t-118.5 -41.5t-101 -72t-69.5 -108.5t-26.5 -146.5q0 -7 5 -47h61q-4 32 -4 47q0 85 34 150.5t90 102.5t120 55t133 18t133 -18t120 -55t90 -102.5t34 -150.5q0 -73 -25 -132
t-64.5 -101t-88 -81t-96.5 -80.5t-87.5 -89.5t-64.5 -120t-25 -160h248v56h-10q-52 0 -96 -4.5t-62 -9.5l-17 -5q0 66 25 123t64.5 99.5t87.5 82.5t95.5 82t87 88.5t64.5 111t25 140.5zM543 -25q-22 0 -38 15t-16 37q0 21 16 36t38 15q21 0 36 -15t15 -36t-15 -36.5
t-36 -15.5z" />
    <glyph glyph-name="at" unicode="@" horiz-adv-x="1937" 
d="M932 186q102 0 180.5 42.5t122.5 112.5t66 149.5t22 164.5q0 68 -13 132.5t-43 126.5t-74 108.5t-111.5 75t-149.5 28.5t-149.5 -28.5t-111.5 -75t-74 -108.5t-43 -126.5t-13 -132.5q0 -85 22 -164.5t66 -149.5t122.5 -112.5t180.5 -42.5zM969 1458q180 0 344 -70.5
t283 -189t189 -283t70 -344.5q0 -75 -12 -135t-34 -99.5t-48.5 -67.5t-59 -43t-62.5 -21t-62 -6q-86 0 -160 65t-74 170h-20q-45 -136 -146 -219.5t-259 -83.5q-92 0 -167.5 31.5t-125 83t-83.5 120.5t-48.5 141.5t-14.5 147.5q0 76 14.5 148.5t48.5 142t83.5 121.5
t125 83.5t167.5 31.5q157 0 258.5 -84t146.5 -219h20q-20 118 -20 233v45h61v-702q0 -94 54 -147.5t129 -53.5q50 0 88 13t71 46t50.5 98t17.5 160q0 169 -65 323t-175.5 265.5t-263.5 177.5t-321 66t-321 -66t-263.5 -177.5t-176 -265.5t-65.5 -323q0 -227 110.5 -418
t300.5 -302t415 -111q236 0 430 121h102q-238 -176 -532 -176q-180 0 -344.5 70t-283 189t-189 283t-70.5 344t70.5 344.5t189 283t283 189t344.5 70.5z" />
    <glyph glyph-name="A" unicode="A" horiz-adv-x="1191" 
d="M651 1434l520 -1434h-65l-152 418h-716l-152 -418h-66l521 1434h110zM258 473h676l-328 905h-20z" />
    <glyph glyph-name="B" unicode="B" horiz-adv-x="1232" 
d="M643 55q63 0 123 11.5t117.5 37.5t100.5 65t69 99t26 133t-26 132.5t-69 98t-100.5 64.5t-117.5 37.5t-123 11.5h-418v-690h418zM643 801q67 0 129.5 16t117 49t87.5 91.5t33 134.5q0 61 -22 110.5t-58 81.5t-84.5 54t-99 31t-103.5 9h-418v-577h418zM1141 395
q0 -83 -32 -151.5t-83 -112.5t-117.5 -74.5t-133 -43.5t-132.5 -13h-479v1434h479q60 0 118 -11t114.5 -36.5t99.5 -63t69.5 -95.5t26.5 -130q0 -118 -75 -205t-175 -105v-20q136 -27 228 -129t92 -244z" />
    <glyph glyph-name="C" unicode="C" horiz-adv-x="1400" 
d="M1255 403q-30 -79 -75 -144t-108.5 -117.5t-151 -81.5t-191.5 -29q-121 0 -220 41.5t-163.5 109.5t-109 158.5t-63.5 186t-19 194.5q0 98 19 191.5t63.5 183.5t109 157.5t163.5 108.5t220 41q104 0 191.5 -29t151 -81t108.5 -117.5t75 -145.5h64q-31 92 -80.5 167
t-120.5 135t-170.5 93t-218.5 33q-134 0 -243.5 -44.5t-181.5 -117.5t-121 -170t-70 -198.5t-21 -206.5q0 -107 21 -210t70 -201t121 -171.5t181.5 -118.5t243.5 -45q119 0 218.5 33.5t170.5 93.5t120.5 135t80.5 166h-64z" />
    <glyph glyph-name="D" unicode="D" horiz-adv-x="1382" 
d="M670 55q117 0 213.5 40t159.5 105t106 152.5t61.5 178.5t18.5 186q0 79 -13.5 155.5t-41 151.5t-73 138t-105.5 112t-144 76.5t-182 27.5h-445v-1323h445zM1290 717q0 -166 -47 -302t-129.5 -226.5t-196.5 -139.5t-247 -49h-506v1434h506q130 0 242.5 -48t196.5 -137
t132.5 -226t48.5 -306z" />
    <glyph glyph-name="E" unicode="E" 
d="M1010 1434v-56h-785v-635h717v-55h-717v-633h785v-55h-846l2 1434h844z" />
    <glyph glyph-name="F" unicode="F" horiz-adv-x="1036" 
d="M985 1378h-760v-635h645v-55h-645v-688h-61v1434h821v-56z" />
    <glyph glyph-name="G" unicode="G" horiz-adv-x="1452" 
d="M1350 678q0 30 -18.5 50t-51.5 20h-559v-56h545q22 0 22 -22q0 -89 -20.5 -177t-64.5 -171.5t-107.5 -147t-157.5 -103t-205 -40.5q-122 1 -221.5 43t-165 110t-110 158t-63.5 183.5t-19 191.5q0 99 19.5 193.5t65 185t112.5 158t169 108.5t228 41q106 0 195.5 -29
t155 -81.5t112 -117.5t77.5 -145h62q-32 91 -82.5 166t-123 135t-174 93.5t-222.5 33.5q-139 0 -252 -44.5t-186.5 -117.5t-124 -170.5t-72 -199.5t-21.5 -209q0 -106 21 -207.5t69 -199.5t119.5 -171.5t180.5 -118.5t243 -45q108 0 201.5 35t154 86t107 115t69 116t31.5 95
h21q-21 -152 -21 -234v-188h62v678z" />
    <glyph glyph-name="H" unicode="H" horiz-adv-x="1355" 
d="M1192 1434v-1434h-62v690h-905v-690h-61v1434h61v-689h905v689h62z" />
    <glyph glyph-name="I" unicode="I" horiz-adv-x="389" 
d="M164 1434h61v-1434h-61v1434z" />
    <glyph glyph-name="J" unicode="J" horiz-adv-x="731" 
d="M147 1434v-56h359v-895q0 -116 -57 -214.5t-154 -156t-211 -57.5h-43v-55h43q131 0 242 64.5t176 175.5t65 243v951h-420z" />
    <glyph glyph-name="K" unicode="K" 
d="M1071 1434l-727 -707v-20l727 -707h-88l-709 688h-49v-688h-61v1434h61v-691h49l709 691h88z" />
    <glyph glyph-name="L" unicode="L" horiz-adv-x="983" 
d="M225 1434v-1379h717v-55h-778v1434h61z" />
    <glyph glyph-name="M" unicode="M" horiz-adv-x="1675" 
d="M1405 1434l-557 -1379h-21l-557 1379h-106v-1434h61v1145q0 52 -4.5 110.5t-8.5 90.5l-5 32h20l557 -1378h107l557 1378h20q-18 -116 -18 -233v-1145h61v1434h-106z" />
    <glyph glyph-name="N" unicode="N" horiz-adv-x="1384" 
d="M1159 287q0 -51 4.5 -109t8.5 -90l4 -33h-17l-897 1379h-98v-1434h61v1145q0 53 -4 111t-8 90l-4 32h16l897 -1378h99v1434h-62v-1147z" />
    <glyph glyph-name="O" unicode="O" horiz-adv-x="1423" 
d="M713 31q117 0 212.5 41t158 108.5t106 157.5t62 184.5t18.5 192.5q0 82 -13.5 162t-41 158t-73 144t-105.5 116.5t-143 79t-181 28.5t-182 -28.5t-144 -79t-105.5 -116.5t-73 -144t-41 -158t-13.5 -162q0 -81 13.5 -160t41 -157t73 -143.5t105.5 -116t144 -79t182 -28.5z
M713 1458q130 0 236.5 -44.5t176 -117.5t117 -171t68 -200.5t20.5 -209.5q0 -106 -20.5 -208t-68 -199.5t-117 -170.5t-176 -117.5t-236.5 -44.5q-110 0 -203 31t-159.5 85.5t-117.5 125.5t-81 155t-45 169.5t-15 173.5q0 107 20.5 209.5t68 200.5t117.5 171t177 117.5
t238 44.5z" />
    <glyph glyph-name="P" unicode="P" horiz-adv-x="1185" 
d="M694 743q69 0 134 18.5t121 55t90 100.5t34 146t-34 145t-90 99t-121 53.5t-134 17.5h-469v-635h469zM694 1434q50 0 103 -8.5t115.5 -33.5t110 -64.5t80 -108t32.5 -156.5q0 -89 -32.5 -158t-81 -108.5t-111 -65.5t-115 -34.5t-101.5 -8.5h-469v-688h-61v1434h530z" />
    <glyph glyph-name="Q" unicode="Q" horiz-adv-x="1392" 
d="M154 729q0 -97 18 -190t60.5 -181.5t104 -155t156 -107t209.5 -40.5q100 0 188.5 40t153 107.5t111.5 154.5t70.5 182.5t23.5 189.5q0 97 -18 190t-60 181.5t-103.5 155t-156 107t-209.5 40.5t-209.5 -40.5t-156 -107t-104 -155t-60.5 -181.5t-18 -190zM905 35
q119 20 236 20h170v-55h-609q-128 0 -233 43.5t-174 115.5t-115.5 168t-67 196.5t-20.5 205.5t20.5 205.5t67 196.5t115.5 168t174 115.5t233 43.5t232.5 -43.5t173.5 -115.5t115.5 -168t67 -196.5t20.5 -205.5q0 -101 -23.5 -199t-70.5 -189.5t-127.5 -166.5t-184.5 -117
v-22z" />
    <glyph glyph-name="R" unicode="R" horiz-adv-x="1271" 
d="M696 741q68 0 133 18.5t122 55t91.5 100.5t34.5 146t-34.5 145.5t-91.5 99.5t-121.5 54t-133.5 18h-471v-637h471zM946 741q75 0 131 -55.5t56 -130.5v-555h-62v561q0 51 -37 88t-88 37h-721v-686h-61v1434h532q210 0 326.5 -102.5t116.5 -260.5q0 -56 -16.5 -106
t-36 -80t-52.5 -59.5t-48 -39t-40 -24.5v-21z" />
    <glyph glyph-name="S" unicode="S" horiz-adv-x="1175" 
d="M1083 381q0 83 -36 148t-78.5 101.5t-128 68.5t-132.5 43.5t-145 30.5q-3 1 -4 1q-138 27 -178 40q-163 52 -198 178q-11 38 -11 83q0 60 23 116t70 104.5t130 78t191 29.5q110 0 194.5 -29.5t131.5 -78t70.5 -104.5t23.5 -116v-24h61v24q0 56 -16 108.5t-52.5 103
t-90.5 88t-137 60.5t-185 23q-100 0 -182 -23t-135.5 -60.5t-89.5 -88t-52 -103.5t-16 -108q0 -79 29 -139.5t62 -93t104 -60t104.5 -35.5t115.5 -23q24 -5 35 -7q53 -10 92 -18.5t90 -24t87.5 -32t75 -42.5t62.5 -56t39 -72t15 -91q0 -67 -25 -127t-75.5 -111t-138.5 -81.5
t-203 -30.5q-116 0 -205.5 33.5t-140.5 88.5t-76 118t-25 130h-61q0 -61 16.5 -120t55.5 -115t96 -98t144 -67.5t194 -25.5t194 23.5t144 62.5t95.5 92t55 110t16.5 118z" />
    <glyph glyph-name="T" unicode="T" horiz-adv-x="1040" 
d="M1020 1434v-56h-469v-1378h-62v1378h-469v56h1000z" />
    <glyph glyph-name="U" unicode="U" horiz-adv-x="1331" 
d="M1116 569q0 -77 -15 -151t-49.5 -145t-85 -124t-128 -85.5t-172.5 -32.5t-172.5 32.5t-128.5 85.5t-85.5 124t-49.5 145t-15 151v865h-61v-865q0 -72 14.5 -147.5t51.5 -157.5t93 -144.5t147.5 -103.5t205.5 -41t205.5 40t147.5 102t93 143.5t51.5 157.5t14.5 151v865
h-62v-865z" />
    <glyph glyph-name="V" unicode="V" horiz-adv-x="1236" 
d="M1151 1434q-494 -1283 -500 -1297l-26 -82h-13q-8 33 -26 82l-500 1297h-66l551 -1434h95l551 1434h-66z" />
    <glyph glyph-name="W" unicode="W" horiz-adv-x="1867" 
d="M1774 1434q-365 -1270 -373 -1299l-17 -80h-14q-10 45 -18 80l-371 1299h-94l-371 -1295l-18 -84h-15q-8 49 -18 84l-371 1295h-63l409 -1434h101l370 1296q4 15 7.5 35.5t4.5 33.5l1 13h20q2 -49 12 -82l371 -1296h100l410 1434h-63z" />
    <glyph glyph-name="X" unicode="X" horiz-adv-x="1212" 
d="M1180 1434l-514 -711l526 -723h-76l-502 688h-16l-502 -688h-76l527 723l-514 711h76l497 -691l498 691h76z" />
    <glyph glyph-name="Y" unicode="Y" horiz-adv-x="995" 
d="M555 854q-13 -22 -24.5 -46t-16.5 -37l-6 -13h-21q-20 47 -49 96l-346 580h-72l447 -746v-688h61v688l447 746h-72z" />
    <glyph glyph-name="Z" unicode="Z" horiz-adv-x="1165" 
d="M129 70q43 18 98 96l856 1184v84h-946v-56h914v-16q-5 -2 -14 -6.5t-36 -28t-51 -57.5l-858 -1186v-84h946v55h-909v15z" />
    <glyph glyph-name="bracketleft" unicode="[" horiz-adv-x="471" 
d="M164 1399q116 -21 233 -21h74v56h-369v-1860h369v55h-74q-52 0 -110.5 -4.5t-90.5 -8.5l-32 -5v1788z" />
    <glyph glyph-name="backslash" unicode="\" horiz-adv-x="757" 
d="M66 1434l692 -1805h-66l-692 1805h66z" />
    <glyph glyph-name="bracketright" unicode="]" horiz-adv-x="471" 
d="M307 -389q-116 18 -233 18h-74v-55h369v1860h-369v-56h74q52 0 110 5t90 11l33 5v-1788z" />
    <glyph glyph-name="asciicircum" unicode="^" horiz-adv-x="974" 
d="M766 993q-232 574 -234 578q-12 29 -21 56.5t-12 40.5l-3 13h-17q-10 -44 -37 -110l-233 -578h-66l301 744h86l301 -744h-65z" />
    <glyph glyph-name="underscore" unicode="_" horiz-adv-x="1226" 
d="M143 -25h940v-55h-940v55z" />
    <glyph glyph-name="grave" unicode="`" horiz-adv-x="344" 
d="M82 1761h61l109 -215h-62z" />
    <glyph glyph-name="a" unicode="a" horiz-adv-x="1038" 
d="M836 639q-69 -66 -461 -135q-93 -17 -157 -76.5t-64 -159.5q0 -87 57 -152t137 -77q71 -14 140.5 -3t148.5 60q146 91 186 287q13 67 13 133v123zM997 55v-55h-53q-42 0 -75 29.5t-33 74.5q0 38 5 83.5t10 71.5l5 26h-20q-2 -7 -7 -18.5t-22 -44.5t-36.5 -62t-51.5 -63
t-66 -56q-128 -81 -305 -61q-103 11 -179.5 92.5t-76.5 195.5q0 64 20.5 114.5t56 83.5t74.5 53t85 32q67 16 190.5 35t165.5 30q68 16 105.5 43t29.5 76q-15 91 -101.5 162.5t-217.5 71.5q-141 0 -239.5 -90.5t-98.5 -219.5h-62q0 151 117 258t283 107q167 0 282 -112
t115 -287v-539q0 -13 9.5 -22t25.5 -9h65z" />
    <glyph glyph-name="b" unicode="b" horiz-adv-x="1093" 
d="M580 31q76 0 138.5 25.5t105 69t71.5 104t42 128t13 142.5q0 94 -22 176.5t-65 149t-116 105t-167 38.5t-167.5 -38.5t-118 -105t-67 -149t-22.5 -176.5t22 -176.5t66 -149t117.5 -105t169.5 -38.5zM590 1024q106 0 189 -43.5t132.5 -118t75 -166.5t25.5 -196
q0 -105 -25 -196.5t-74 -166.5t-132.5 -118.5t-190.5 -43.5q-148 0 -244.5 78t-142.5 211h-19q21 -106 21 -231v-33h-62v1434h62v-467q0 -56 -5.5 -114.5t-10.5 -88.5l-5 -31h19q46 133 143 212t244 79z" />
    <glyph glyph-name="c" unicode="c" horiz-adv-x="1017" 
d="M883 279q-43 -111 -131 -179.5t-220 -68.5q-102 0 -180 42t-122 111.5t-65.5 150t-21.5 167.5q0 84 21.5 163.5t65.5 149t122 112t180 42.5q132 0 220 -68.5t131 -181.5h63q-45 134 -149 219.5t-265 85.5q-95 0 -173 -31.5t-128.5 -83t-85 -120.5t-49 -140.5
t-14.5 -146.5q0 -76 14.5 -148.5t49 -142t85 -121.5t128.5 -83.5t173 -31.5q162 0 265.5 84t148.5 220h-63z" />
    <glyph glyph-name="d" unicode="d" horiz-adv-x="1089" 
d="M143 500q0 -74 13 -141.5t42 -128t71.5 -104.5t105 -69.5t139.5 -25.5q95 0 168 39t116.5 105.5t65 148.5t21.5 176t-22 176.5t-66 149t-117 105t-166 38.5q-95 0 -168 -38.5t-116.5 -105t-65 -149t-21.5 -176.5zM82 500q0 104 25 196t74.5 166.5t132 118t188.5 43.5
q146 0 242.5 -79t140.5 -212h20q-20 107 -20 234v467h61v-1434h-61v33q0 56 5 113.5t10 87.5l5 30h-20q-44 -133 -139.5 -211t-243.5 -78q-107 0 -190 43.5t-132 118.5t-73.5 166.5t-24.5 196.5z" />
    <glyph glyph-name="e" unicode="e" horiz-adv-x="1069" 
d="M530 969q-94 0 -168 -36.5t-119.5 -98t-71 -134.5t-30.5 -153h783q0 58 -15 116.5t-47.5 113.5t-77.5 97.5t-111 68.5t-143 26zM141 492q1 -68 14 -131t42 -124t72 -106t110 -72.5t151 -27.5q290 0 377 305h60q-38 -167 -150 -264t-282 -97q-94 0 -171.5 31.5t-129 83
t-86.5 121t-50.5 142.5t-15.5 149q0 75 15 147t50 141t86.5 120.5t129 82.5t172.5 31q112 0 200 -42.5t142.5 -116.5t82 -168.5t27.5 -204.5h-846z" />
    <glyph glyph-name="f" unicode="f" horiz-adv-x="497" 
d="M141 1096q0 49 9.5 96t31.5 91t54 77.5t80.5 53.5t107.5 20h33v-56h-33q-58 0 -102.5 -24t-69.5 -63.5t-37 -84.5t-12 -94v-113h250v-55h-250v-944h-62v944h-110v55h110v97z" />
    <glyph glyph-name="g" unicode="g" horiz-adv-x="1081" 
d="M510 178q-78 0 -155 31t-139.5 84.5t-101 134t-38.5 172.5q0 190 120 307t314 117q134 0 233.5 -69.5t135.5 -178.5q3 -9 33 -70.5t30 -105.5q0 -190 -119 -306t-313 -116zM510 233q163 0 267 102.5t104 264.5q0 163 -104 266t-267 103q-164 0 -268.5 -103t-104.5 -266
q0 -162 104 -264.5t269 -102.5zM530 -541q195 0 322 68t127 176q0 107 -132.5 175.5t-316.5 68.5q-197 0 -322.5 -67.5t-125.5 -176.5q0 -108 126 -176t322 -68zM244 -41h-17q-61 0 -108 32.5t-47 96.5q0 66 46.5 98.5t108.5 32.5h62v31l221 -31v-41h-266q-43 0 -75 -22.5
t-32 -67.5q0 -44 32.5 -66t74.5 -22h286q147 0 262.5 -36.5t181.5 -104.5t66 -156q0 -132 -143 -214.5t-365 -82.5q-226 0 -369 82t-143 215q0 42 18 79t40.5 60.5t58.5 45.5t56.5 31.5t50.5 21.5v18zM897 776q-18 113 -18 170q0 23 15 38t38 15h108v-55h-75q-23 0 -23 -20
v-324h-35l-28 176h18z" />
    <glyph glyph-name="h" unicode="h" horiz-adv-x="1101" 
d="M969 578q0 167 -67.5 284.5t-201.5 151.5q-103 21 -186 2t-146.5 -74.5t-104.5 -130t-60 -164.5h-19q21 119 21 234v553h-62v-1434h62v340q0 127 22 244q36 202 159 311.5t284 69.5q128 -31 182.5 -134t54.5 -276v-555h62v578z" />
    <glyph glyph-name="i" unicode="i" horiz-adv-x="339" 
d="M201 950q0 20 -15.5 34.5t-35.5 14.5h-113v-55h76q11 0 18.5 -8t7.5 -18v-918h62v950zM170 1331q-22 0 -37.5 14.5t-15.5 36.5t15.5 37t37.5 15q20 0 35.5 -15t15.5 -37q0 -21 -15 -36t-36 -15z" />
    <glyph glyph-name="j" unicode="j" horiz-adv-x="342" 
d="M203 942q0 23 -16.5 40t-39.5 17h-110v-55h78q11 0 18.5 -8t7.5 -18v-1205q0 -92 -66 -159.5t-155 -67.5h-33v-55h33q116 0 199.5 83.5t83.5 198.5v1229zM172 1331q-22 0 -37.5 14.5t-15.5 36.5t15.5 37t37.5 15q20 0 35.5 -15t15.5 -37q0 -21 -15 -36t-36 -15z" />
    <glyph glyph-name="k" unicode="k" horiz-adv-x="876" 
d="M205 1434v-955h57l508 520h86l-526 -538v-19l465 -442h-90l-445 424h-55v-424h-62v1434h62z" />
    <glyph glyph-name="l" unicode="l" horiz-adv-x="348" 
d="M143 1434h62v-1434h-62v1434z" />
    <glyph glyph-name="m" unicode="m" horiz-adv-x="1865" 
d="M1733 614q0 139 -72 253t-199 145q-98 21 -177.5 2.5t-142.5 -74t-106 -130t-69 -165.5h-21q3 25 -1 62.5t-20.5 85t-43 90t-74.5 79t-109 50.5q-98 20 -177.5 1.5t-142 -73.5t-105 -129.5t-68.5 -165.5h-21q21 119 21 234v120h-62v-999h62v395q0 99 20 187
q21 83 58.5 156t92 131t130.5 82.5t162 4.5q239 -57 239 -362v-594h62v395q0 99 20 187q21 84 58.5 156.5t91.5 130.5t130 82.5t163 4.5q120 -29 179.5 -129t59.5 -233v-594h62v614z" />
    <glyph glyph-name="n" unicode="n" horiz-adv-x="1101" 
d="M969 578q0 167 -67.5 284.5t-201.5 151.5q-103 21 -186 2t-146.5 -74.5t-104.5 -130t-60 -164.5h-19q21 119 21 234v118h-62v-999h62v340q0 127 22 244q36 202 159 311.5t284 69.5q128 -31 182.5 -134t54.5 -276v-555h62v578z" />
    <glyph glyph-name="o" unicode="o" horiz-adv-x="1040" 
d="M520 31q79 0 144 28t107.5 74.5t71.5 108t41.5 126t12.5 132.5t-12.5 132.5t-41.5 126t-71.5 108t-107.5 74.5t-144 28t-144 -28t-107.5 -74.5t-71.5 -108t-41.5 -126t-12.5 -132.5t12.5 -132.5t41.5 -126t71.5 -108t107.5 -74.5t144 -28zM520 1024q92 0 167 -31.5
t124.5 -83t83.5 -120.5t48.5 -141.5t14.5 -147.5t-14.5 -147.5t-48.5 -141.5t-83.5 -121t-124.5 -83.5t-167 -31.5t-167.5 31.5t-125 83.5t-83 121t-48 141.5t-14.5 147.5t14.5 147.5t48 141.5t83 120.5t125 83t167.5 31.5z" />
    <glyph glyph-name="p" unicode="p" horiz-adv-x="1091" 
d="M948 500q0 74 -13 141.5t-42.5 128t-72 104.5t-105.5 69.5t-140 25.5q-94 0 -167 -39t-116.5 -105.5t-65.5 -149t-21 -175.5q1 -94 23 -176t65.5 -148.5t116 -105.5t165.5 -39q94 0 167.5 39t117 105.5t66 149t22.5 175.5zM1010 500q0 -104 -25 -196.5t-74.5 -167
t-132 -118t-188.5 -43.5q-147 0 -245 79.5t-142 211.5h-19q21 -106 21 -233v-602h-62v1568h62v-30q0 -56 -5.5 -114.5t-10.5 -88.5l-5 -31h19q44 132 141.5 210.5t245.5 78.5q107 0 190 -43.5t132 -118t73.5 -166t24.5 -196.5z" />
    <glyph glyph-name="q" unicode="q" horiz-adv-x="1089" 
d="M516 969q-77 0 -140 -25.5t-105.5 -69.5t-72 -104.5t-42.5 -128t-13 -141.5q0 -93 22.5 -175.5t66 -149t117 -105.5t167.5 -39q93 0 165.5 39t116 105.5t65.5 149t22 175.5q0 94 -21.5 176t-65 148.5t-116 105.5t-166.5 39zM502 -25q-106 0 -188.5 43.5t-132 118
t-74.5 167t-25 196.5q0 105 24.5 196.5t73.5 166t132 118t190 43.5q148 0 244.5 -78.5t138.5 -210.5h20q-20 109 -20 234v30h61v-1568h-61v602q0 56 5 114.5t10 88.5l5 30h-20q-44 -133 -140.5 -212t-242.5 -79z" />
    <glyph glyph-name="r" unicode="r" horiz-adv-x="614" 
d="M573 999q-148 -4 -240 -73.5t-130 -190.5h-19q21 139 21 211q0 23 -15 38t-38 15h-111v-55h82q20 0 20 -20v-924h62v535q0 79 20.5 149.5t62.5 130t115.5 94.5t169.5 35v55z" />
    <glyph glyph-name="s" unicode="s" horiz-adv-x="866" 
d="M774 276q0 68 -21.5 118.5t-57.5 79t-83.5 47.5t-99 29t-103.5 18t-99.5 19.5t-83.5 29.5t-57.5 52t-21.5 83q0 46 16.5 83t44 61.5t64.5 41.5t75.5 24t78.5 7q50 0 97 -12t88 -36.5t66 -68t25 -100.5v-17h62v17q0 71 -30.5 125.5t-80.5 85.5t-107.5 46t-119.5 15
t-120 -15t-108.5 -46t-81 -85.5t-30.5 -125.5q0 -77 34.5 -125.5t90 -69.5t122 -32.5t133.5 -23t122.5 -32t90 -69t34.5 -124.5q0 -64 -26.5 -113t-70 -77t-94 -41.5t-104.5 -13.5q-53 0 -103 13.5t-94 40.5t-70.5 75.5t-27.5 111.5h-62q1 -62 22.5 -113t56.5 -84.5
t82 -56.5t96 -33t100 -10q65 0 125.5 17t113.5 51t85 94.5t32 138.5z" />
    <glyph glyph-name="t" unicode="t" horiz-adv-x="497" 
d="M141 283q0 -120 82 -201.5t201 -81.5h7h8h9h9v55h-1v0v0h1v0v0v0v0v0v0v0v0h-1v0h-1v0h-1h-1h-1h-1h-1h-1h-1h-1h-1h-1h-1h-1h-1h-1h-1h-1h-1h-1h-1h-1h-1h-1h-9q-92 0 -156.5 66.5t-64.5 161.5v661h254v55h-254v435h-62v-435h-110v-55h110v-661z" />
    <glyph glyph-name="u" unicode="u" horiz-adv-x="1101" 
d="M133 422q0 -167 67 -284.5t201 -151.5q103 -21 186.5 -2t147 74t104.5 129.5t60 164.5h19q-21 -118 -21 -233v-119h61v999h-61v-340q0 -121 -23 -243q-36 -202 -158.5 -311.5t-283.5 -69.5q-128 31 -182.5 133.5t-54.5 275.5v555h-62v-577z" />
    <glyph glyph-name="v" unicode="v" horiz-adv-x="933" 
d="M510 168q-12 -29 -20.5 -57.5t-11.5 -42.5l-3 -13h-16q-10 47 -37 113l-336 831h-66l404 -999h86l403 999h-65z" />
    <glyph glyph-name="w" unicode="w" horiz-adv-x="1511" 
d="M1145 164q-11 -34 -18 -61t-8 -37l-1 -11h-16q-4 33 -29 109l-270 835h-94q-257 -790 -267 -823q-13 -38 -21 -68.5t-9 -41.5l-2 -11h-15q-4 35 -33 121l-266 823h-65l325 -999h93l272 836q11 34 18 61t8 37l1 10h16q2 -32 27 -108l272 -836h92l326 999h-66z" />
    <glyph glyph-name="x" unicode="x" horiz-adv-x="892" 
d="M864 999l-358 -493l366 -506h-75l-342 473h-17l-342 -473h-76l367 506l-358 493h75l342 -471l342 471h76z" />
    <glyph glyph-name="y" unicode="y" horiz-adv-x="942" 
d="M532 203l-55 -148h-14q-16 52 -55 148l-322 796h-66l404 -999h27l-132 -324q-14 -35 -34 -65t-51.5 -60t-78 -47.5t-102.5 -17.5h-14v-55h1v0v0h-1v0v0v0v0h1h1h1h1h1h9q69 0 126 21.5t95.5 58t63 72.5t41.5 77l543 1339h-66z" />
    <glyph glyph-name="z" unicode="z" horiz-adv-x="872" 
d="M750 928q-28 0 -95 -86l-583 -776v-66h696v55h-645v17q25 0 90 80l588 782v65h-697v-55h646v-16z" />
    <glyph glyph-name="braceleft" unicode="{" horiz-adv-x="641" 
d="M180 514q75 0 111.5 53t36.5 125v309q0 54 10.5 105.5t34 101.5t59 87t89.5 60t120 23v56q-79 0 -143.5 -27t-106.5 -71.5t-71 -104t-41.5 -121t-12.5 -125.5v-256q0 -51 -15 -94t-53.5 -74t-95.5 -31v-55q83 0 123.5 -58t40.5 -136v-254q0 -65 12.5 -127.5t41.5 -122
t71 -104.5t106.5 -72t143.5 -27v55q-66 0 -120 23t-89.5 60.5t-59 87.5t-34 102.5t-10.5 107.5v309q0 70 -36.5 122.5t-111.5 52.5v20z" />
    <glyph glyph-name="bar" unicode="|" horiz-adv-x="552" 
d="M246 1434h61v-1860h-61v1860z" />
    <glyph glyph-name="braceright" unicode="}" horiz-adv-x="641" 
d="M461 494q-75 0 -111.5 -53.5t-36.5 -125.5v-309q0 -54 -10.5 -105.5t-34 -101.5t-59 -87t-89.5 -60t-120 -23v-55q79 0 143.5 27t106.5 71.5t71 104t41.5 121t12.5 125.5v256q0 37 9 71t27.5 63t51.5 46.5t76 17.5v55q-83 0 -123.5 58.5t-40.5 136.5v254
q0 65 -12.5 127.5t-41.5 122t-71 104.5t-106.5 72t-143.5 27v-56q66 0 120 -23t89.5 -60.5t59 -87.5t34 -102.5t10.5 -107.5v-309q0 -70 36.5 -122t111.5 -52v-20z" />
    <glyph glyph-name="asciitilde" unicode="~" horiz-adv-x="1058" 
d="M854 840q0 -41 -0.5 -64t-3.5 -56t-9.5 -52t-17 -38t-28 -27.5t-41.5 -8.5q-32 0 -93 38.5t-118.5 84.5t-126 84.5t-113.5 38.5q-94 0 -127 -74.5t-33 -226.5h62q0 41 0.5 64t3.5 56t9.5 51.5t17 37.5t28 27.5t41.5 8.5q32 0 92.5 -38.5t118.5 -84t126 -84t112 -38.5
q93 0 127 75t34 226h-61z" />
    <glyph glyph-name="sterling" unicode="&#xa3;" horiz-adv-x="1163" 
d="M1010 98q0 -19 -13 -31t-32 -12h-557q-52 0 -110.5 -5t-91.5 -10l-32 -5v20q92 68 145 156.5t65.5 172t2.5 167t-34.5 144.5t-55.5 100h582v55h-607q-13 34 -20.5 79t-5.5 98t13.5 105.5t39.5 101.5t69 86.5t107 60t148 22.5q84 0 151.5 -26t111 -71t70 -98.5
t37.5 -115.5h62q-11 72 -40.5 134.5t-80 116t-131 84.5t-180.5 31q-104 0 -185.5 -31.5t-130 -83.5t-79.5 -116.5t-39 -133.5t-3 -131t23 -112h-137v-55h159q59 -80 84.5 -177t15 -197.5t-76.5 -198.5t-182 -167v-55h899q41 0 70.5 29t29.5 69v103h-61v-103z" />
    <glyph glyph-name="yen" unicode="&#xa5;" horiz-adv-x="1036" 
d="M575 854q-13 -22 -24.5 -46t-16.5 -37l-6 -13h-20q-20 47 -49 96l-346 580h-72l446 -746v-688h62v688l446 746h-71zM143 688v-55h750v55h-750zM143 428v-55h750v55h-750z" />
    <glyph glyph-name="section" unicode="&#xa7;" horiz-adv-x="917" 
d="M459 502q57 0 111 12.5t100.5 37.5t75 69.5t28.5 101.5q0 58 -28.5 102.5t-75.5 69.5t-100.5 37t-110.5 12t-111 -12t-101 -37t-75.5 -69.5t-28.5 -102.5q0 -57 28.5 -101.5t75.5 -69.5t101 -37.5t111 -12.5zM459 999q172 0 274.5 -77t102.5 -199q0 -45 -19.5 -84.5
t-48.5 -65.5t-62 -45t-59 -27.5t-41 -8.5v-21q71 -3 125.5 -68t54.5 -163q0 -69 -29 -122t-78 -83t-104.5 -45t-115.5 -15t-116 15t-104.5 45t-78 83t-29.5 122v20h62v-20q0 -72 42 -121t100 -68.5t124 -19.5t124 19.5t100 68.5t42 121q0 54 -24 95.5t-63.5 65t-84.5 34.5
t-94 11q-35 0 -73 5.5t-82 17t-82.5 33.5t-70.5 51t-50.5 73t-18.5 97q0 45 19.5 84.5t47.5 66t61 46t59.5 28t41.5 8.5v21q-70 3 -125 68t-55 157q0 67 29.5 118t78 80t104.5 43.5t116 14.5t115.5 -14.5t104.5 -43.5t78 -80t29 -118v-24h-61v24q0 52 -24 92t-63.5 63
t-85 34.5t-93.5 11.5t-93.5 -11.5t-85 -34.5t-63.5 -63t-24 -92q0 -69 42 -117t100 -67t124 -19z" />
    <glyph glyph-name="dieresis" unicode="&#xa8;" horiz-adv-x="626" 
d="M176 1659q-22 0 -37.5 14.5t-15.5 36.5t15.5 36.5t37.5 14.5q21 0 36 -15t15 -36t-15 -36t-36 -15zM453 1659q-22 0 -38 15t-16 36t16 36t38 15q21 0 36 -15t15 -36t-15 -36t-36 -15z" />
    <glyph glyph-name="copyright" unicode="&#xa9;" horiz-adv-x="1662" 
d="M537 719q0 53 10.5 104t34 100t58.5 85.5t88 59t118 22.5q104 0 172.5 -53t103.5 -140h66q-39 111 -124 179.5t-218 68.5q-78 0 -142 -25.5t-105.5 -67.5t-70 -98t-41 -115t-12.5 -120q0 -62 12.5 -121t41 -115.5t70 -98.5t105.5 -67.5t142 -25.5q131 0 216.5 67.5
t123.5 176.5h-66q-35 -85 -103.5 -137t-170.5 -52q-65 0 -118 22.5t-88 59t-58.5 86t-34 100.5t-10.5 105zM831 31q140 0 267.5 54.5t219.5 146t147 218.5t55 267t-55 267t-147 218.5t-219.5 146t-267.5 54.5t-267 -54.5t-219.5 -146t-147 -218.5t-54.5 -267t54.5 -267
t147 -218.5t219.5 -146t267 -54.5zM831 1458q153 0 291.5 -58.5t239 -157.5t160 -236.5t59.5 -288.5t-59.5 -288.5t-160 -237t-239 -158t-291.5 -58.5t-291.5 58.5t-238.5 158t-159.5 237t-59.5 288.5t59.5 288.5t159.5 236.5t238.5 157.5t291.5 58.5z" />
    <glyph glyph-name="guillemotleft" unicode="&#xab;" horiz-adv-x="1062" 
d="M598 0q-365 420 -369 422q-27 32 -50 49.5t-34 17.5v19q10 0 33.5 18t50.5 49l369 424h-82l-434 -499l434 -500h82zM981 0q-367 420 -369 422q-27 32 -51 49.5t-35 17.5v19q25 0 86 67l369 424h-82l-434 -499l434 -500h82z" />
    <glyph glyph-name="registered" unicode="&#xae;" horiz-adv-x="954" 
d="M477 725q89 0 157.5 31t107 82.5t58 110t19.5 120.5t-19.5 120.5t-58 110t-107 82.5t-157.5 31t-157 -31t-106.5 -82.5t-57.5 -109.5t-19 -121t19 -121t57.5 -109.5t106.5 -82.5t157 -31zM477 1458q103 0 182 -35t124 -92.5t67 -124t22 -137.5t-22 -137.5t-67 -124
t-124 -92.5t-182 -35t-182 35t-124 92.5t-67 124t-22 137.5t22 137.5t67 124t124 92.5t182 35zM494 1114q32 0 56.5 17t24.5 51t-24.5 50.5t-56.5 16.5h-107v-135h107zM569 1085q56 0 56 -55v-172h-56v180q0 12 -8.5 21.5t-21.5 9.5h-152v-211h-55v436h164q61 0 98 -29
t37 -79q0 -62 -62 -94v-7z" />
    <glyph glyph-name="plusminus" unicode="&#xb1;" 
d="M143 55h826v-55h-826v55zM586 1008v-344h383v-56h-383v-344h-62v344h-381v56h381v344h62z" />
    <glyph glyph-name="acute" unicode="&#xb4;" horiz-adv-x="344" 
d="M262 1761l-108 -215h-62l109 215h61z" />
    <glyph glyph-name="periodcentered" unicode="&#xb7;" horiz-adv-x="309" 
d="M156 459q-22 0 -38 15t-16 36t16 36t38 15q21 0 36 -15t15 -36t-15 -36t-36 -15z" />
    <glyph glyph-name="guillemotright" unicode="&#xbb;" horiz-adv-x="1062" 
d="M465 0h82l434 500l-434 499h-82q365 -420 369 -424q27 -31 50.5 -49t33.5 -18v-19q-11 0 -34 -17.5t-50 -49.5zM82 0h82l434 500l-434 499h-82q367 -420 369 -424q61 -67 86 -67v-19q-11 0 -35 -17.5t-51 -49.5z" />
    <glyph glyph-name="Aacute" unicode="&#xc1;" horiz-adv-x="1191" 
d="M651 1434l520 -1434h-65l-152 418h-716l-152 -418h-66l521 1434h110zM258 473h676l-328 905h-20zM748 1761l-109 -215h-61l108 215h62z" />
    <glyph glyph-name="Acircumflex" unicode="&#xc2;" horiz-adv-x="1191" 
d="M651 1434l520 -1434h-65l-152 418h-716l-152 -418h-66l521 1434h110zM258 473h676l-328 905h-20zM643 1761l145 -213h-73l-109 158h-18l-109 -158h-73l145 213h92z" />
    <glyph glyph-name="Adieresis" unicode="&#xc4;" horiz-adv-x="1191" 
d="M651 1434l520 -1434h-65l-152 418h-716l-152 -418h-66l521 1434h110zM258 473h676l-328 905h-20zM459 1659q-22 0 -37.5 14.5t-15.5 36.5t15.5 36.5t37.5 14.5q21 0 36 -15t15 -36t-15 -36t-36 -15zM735 1659q-22 0 -37.5 14.5t-15.5 36.5t15.5 36.5t37.5 14.5
q21 0 36 -15t15 -36t-15 -36t-36 -15z" />
    <glyph glyph-name="Aring" unicode="&#xc5;" horiz-adv-x="1191" 
d="M651 1434l520 -1434h-65l-152 418h-716l-152 -418h-66l521 1434h110zM258 473h676l-328 905h-20zM596 1606q70 0 104.5 44t34.5 103t-34.5 102t-104.5 43q-69 0 -103 -43.5t-34 -101.5q0 -59 34 -103t103 -44zM596 1954q100 0 150.5 -61t50.5 -140q0 -80 -50.5 -140.5
t-150.5 -60.5q-99 0 -149 60.5t-50 140.5q0 79 50 140t149 61z" />
    <glyph glyph-name="Eacute" unicode="&#xc9;" 
d="M1010 1434v-56h-785v-635h717v-55h-717v-633h785v-55h-846l2 1434h844zM707 1761l-109 -215h-61l108 215h62z" />
    <glyph glyph-name="Ecircumflex" unicode="&#xca;" 
d="M1010 1434v-56h-785v-635h717v-55h-717v-633h785v-55h-846l2 1434h844zM633 1761l145 -213h-73l-109 158h-18l-109 -158h-74l146 213h92z" />
    <glyph glyph-name="Edieresis" unicode="&#xcb;" 
d="M1010 1434v-56h-785v-635h717v-55h-717v-633h785v-55h-846l2 1434h844zM457 1659q-22 0 -38 15t-16 36t16 36t38 15q21 0 36 -15t15 -36t-15 -36t-36 -15zM733 1659q-22 0 -37.5 14.5t-15.5 36.5t15.5 36.5t37.5 14.5q21 0 36 -15t15 -36t-15 -36t-36 -15z" />
    <glyph glyph-name="Igrave" unicode="&#xcc;" horiz-adv-x="389" 
d="M164 1434h61v-1434h-61v1434zM49 1761h62l108 -215h-61z" />
    <glyph glyph-name="Iacute" unicode="&#xcd;" horiz-adv-x="389" 
d="M164 1434h61v-1434h-61v1434zM340 1761l-109 -215h-61l109 215h61z" />
    <glyph glyph-name="Icircumflex" unicode="&#xce;" horiz-adv-x="389" 
d="M164 1434h61v-1434h-61v1434zM240 1761l145 -213h-74l-108 158h-19l-108 -158h-74l145 213h93z" />
    <glyph glyph-name="Idieresis" unicode="&#xcf;" horiz-adv-x="389" 
d="M164 1434h61v-1434h-61v1434zM55 1659q-22 0 -37.5 14.5t-15.5 36.5t15.5 36.5t37.5 14.5q21 0 36 -15t15 -36t-15 -36t-36 -15zM332 1659q-22 0 -37.5 14.5t-15.5 36.5t15.5 36.5t37.5 14.5q21 0 36 -15t15 -36t-15 -36t-36 -15z" />
    <glyph glyph-name="Oacute" unicode="&#xd3;" horiz-adv-x="1423" 
d="M713 31q117 0 212.5 41t158 108.5t106 157.5t62 184.5t18.5 192.5q0 82 -13.5 162t-41 158t-73 144t-105.5 116.5t-143 79t-181 28.5t-182 -28.5t-144 -79t-105.5 -116.5t-73 -144t-41 -158t-13.5 -162q0 -81 13.5 -160t41 -157t73 -143.5t105.5 -116t144 -79t182 -28.5z
M713 1458q130 0 236.5 -44.5t176 -117.5t117 -171t68 -200.5t20.5 -209.5q0 -106 -20.5 -208t-68 -199.5t-117 -170.5t-176 -117.5t-236.5 -44.5q-110 0 -203 31t-159.5 85.5t-117.5 125.5t-81 155t-45 169.5t-15 173.5q0 107 20.5 209.5t68 200.5t117.5 171t177 117.5
t238 44.5zM842 1761l-109 -215h-61l108 215h62z" />
    <glyph glyph-name="Ocircumflex" unicode="&#xd4;" horiz-adv-x="1423" 
d="M713 31q117 0 212.5 41t158 108.5t106 157.5t62 184.5t18.5 192.5q0 82 -13.5 162t-41 158t-73 144t-105.5 116.5t-143 79t-181 28.5t-182 -28.5t-144 -79t-105.5 -116.5t-73 -144t-41 -158t-13.5 -162q0 -81 13.5 -160t41 -157t73 -143.5t105.5 -116t144 -79t182 -28.5z
M713 1458q130 0 236.5 -44.5t176 -117.5t117 -171t68 -200.5t20.5 -209.5q0 -106 -20.5 -208t-68 -199.5t-117 -170.5t-176 -117.5t-236.5 -44.5q-110 0 -203 31t-159.5 85.5t-117.5 125.5t-81 155t-45 169.5t-15 173.5q0 107 20.5 209.5t68 200.5t117.5 171t177 117.5
t238 44.5zM760 1763l145 -213h-74l-108 158h-18l-109 -158h-74l146 213h92z" />
    <glyph glyph-name="Odieresis" unicode="&#xd6;" horiz-adv-x="1423" 
d="M713 31q117 0 212.5 41t158 108.5t106 157.5t62 184.5t18.5 192.5q0 82 -13.5 162t-41 158t-73 144t-105.5 116.5t-143 79t-181 28.5t-182 -28.5t-144 -79t-105.5 -116.5t-73 -144t-41 -158t-13.5 -162q0 -81 13.5 -160t41 -157t73 -143.5t105.5 -116t144 -79t182 -28.5z
M713 1458q130 0 236.5 -44.5t176 -117.5t117 -171t68 -200.5t20.5 -209.5q0 -106 -20.5 -208t-68 -199.5t-117 -170.5t-176 -117.5t-236.5 -44.5q-110 0 -203 31t-159.5 85.5t-117.5 125.5t-81 155t-45 169.5t-15 173.5q0 107 20.5 209.5t68 200.5t117.5 171t177 117.5
t238 44.5zM573 1659q-22 0 -37.5 14.5t-15.5 36.5t15.5 36.5t37.5 14.5q21 0 36.5 -15t15.5 -36t-15.5 -36t-36.5 -15zM850 1659q-22 0 -37.5 14.5t-15.5 36.5t15.5 36.5t37.5 14.5q21 0 36 -15t15 -36t-15 -36t-36 -15z" />
    <glyph glyph-name="multiply" unicode="&#xd7;" horiz-adv-x="995" 
d="M811 956l-272 -272l270 -270l-39 -39l-270 270l-273 -272l-43 43l273 272l-271 270l39 39l271 -270l272 272z" />
    <glyph glyph-name="Oslash" unicode="&#xd8;" horiz-adv-x="1423" 
d="M713 31q117 0 212.5 41t158 108.5t106 157.5t62 184.5t18.5 192.5q0 82 -13.5 162t-41 158t-73 144t-105.5 116.5t-143 79t-181 28.5t-182 -28.5t-144 -79t-105.5 -116.5t-73 -144t-41 -158t-13.5 -162q0 -81 13.5 -160t41 -157t73 -143.5t105.5 -116t144 -79t182 -28.5z
M713 1458q130 0 236.5 -44.5t176 -117.5t117 -171t68 -200.5t20.5 -209.5q0 -106 -20.5 -208t-68 -199.5t-117 -170.5t-176 -117.5t-236.5 -44.5q-110 0 -203 31t-159.5 85.5t-117.5 125.5t-81 155t-45 169.5t-15 173.5q0 107 20.5 209.5t68 200.5t117.5 171t177 117.5
t238 44.5zM1290 1434l-1079 -1434h-78l1081 1434h76z" />
    <glyph glyph-name="Uacute" unicode="&#xda;" horiz-adv-x="1331" 
d="M1116 569q0 -77 -15 -151t-49.5 -145t-85 -124t-128 -85.5t-172.5 -32.5t-172.5 32.5t-128.5 85.5t-85.5 124t-49.5 145t-15 151v865h-61v-865q0 -72 14.5 -147.5t51.5 -157.5t93 -144.5t147.5 -103.5t205.5 -41t205.5 40t147.5 102t93 143.5t51.5 157.5t14.5 151v865
h-62v-865zM782 1761l-108 -215h-62l109 215h61z" />
    <glyph glyph-name="Udieresis" unicode="&#xdc;" horiz-adv-x="1331" 
d="M1116 569q0 -77 -15 -151t-49.5 -145t-85 -124t-128 -85.5t-172.5 -32.5t-172.5 32.5t-128.5 85.5t-85.5 124t-49.5 145t-15 151v865h-61v-865q0 -72 14.5 -147.5t51.5 -157.5t93 -144.5t147.5 -103.5t205.5 -41t205.5 40t147.5 102t93 143.5t51.5 157.5t14.5 151v865
h-62v-865zM549 1659q-22 0 -37.5 14.5t-15.5 36.5t15.5 36.5t37.5 14.5q21 0 36 -15t15 -36t-15 -36t-36 -15zM825 1659q-22 0 -37.5 14.5t-15.5 36.5t15.5 36.5t37.5 14.5q21 0 36.5 -15t15.5 -36t-15.5 -36t-36.5 -15z" />
    <glyph glyph-name="Yacute" unicode="&#xdd;" horiz-adv-x="995" 
d="M555 854q-13 -22 -24.5 -46t-16.5 -37l-6 -13h-21q-20 47 -49 96l-346 580h-72l447 -746v-688h61v688l447 746h-72zM662 1761l-109 -215h-61l108 215h62z" />
    <glyph glyph-name="aacute" unicode="&#xe1;" horiz-adv-x="1038" 
d="M836 639q-69 -66 -461 -135q-93 -17 -157 -76.5t-64 -159.5q0 -87 57 -152t137 -77q71 -14 140.5 -3t148.5 60q146 91 186 287q13 67 13 133v123zM997 55v-55h-53q-42 0 -75 29.5t-33 74.5q0 38 5 83.5t10 71.5l5 26h-20q-2 -7 -7 -18.5t-22 -44.5t-36.5 -62t-51.5 -63
t-66 -56q-128 -81 -305 -61q-103 11 -179.5 92.5t-76.5 195.5q0 64 20.5 114.5t56 83.5t74.5 53t85 32q67 16 190.5 35t165.5 30q68 16 105.5 43t29.5 76q-15 91 -101.5 162.5t-217.5 71.5q-141 0 -239.5 -90.5t-98.5 -219.5h-62q0 151 117 258t283 107q167 0 282 -112
t115 -287v-539q0 -13 9.5 -22t25.5 -9h65zM659 1434l-108 -215h-62l109 215h61z" />
    <glyph glyph-name="acircumflex" unicode="&#xe2;" horiz-adv-x="1038" 
d="M836 639q-69 -66 -461 -135q-93 -17 -157 -76.5t-64 -159.5q0 -87 57 -152t137 -77q71 -14 140.5 -3t148.5 60q146 91 186 287q13 67 13 133v123zM997 55v-55h-53q-42 0 -75 29.5t-33 74.5q0 38 5 83.5t10 71.5l5 26h-20q-2 -7 -7 -18.5t-22 -44.5t-36.5 -62t-51.5 -63
t-66 -56q-128 -81 -305 -61q-103 11 -179.5 92.5t-76.5 195.5q0 64 20.5 114.5t56 83.5t74.5 53t85 32q67 16 190.5 35t165.5 30q68 16 105.5 43t29.5 76q-15 91 -101.5 162.5t-217.5 71.5q-141 0 -239.5 -90.5t-98.5 -219.5h-62q0 151 117 258t283 107q167 0 282 -112
t115 -287v-539q0 -13 9.5 -22t25.5 -9h65zM555 1434l145 -213h-73l-109 157h-18l-109 -157h-74l146 213h92z" />
    <glyph glyph-name="adieresis" unicode="&#xe4;" horiz-adv-x="1038" 
d="M836 639q-69 -66 -461 -135q-93 -17 -157 -76.5t-64 -159.5q0 -87 57 -152t137 -77q71 -14 140.5 -3t148.5 60q146 91 186 287q13 67 13 133v123zM997 55v-55h-53q-42 0 -75 29.5t-33 74.5q0 38 5 83.5t10 71.5l5 26h-20q-2 -7 -7 -18.5t-22 -44.5t-36.5 -62t-51.5 -63
t-66 -56q-128 -81 -305 -61q-103 11 -179.5 92.5t-76.5 195.5q0 64 20.5 114.5t56 83.5t74.5 53t85 32q67 16 190.5 35t165.5 30q68 16 105.5 43t29.5 76q-15 91 -101.5 162.5t-217.5 71.5q-141 0 -239.5 -90.5t-98.5 -219.5h-62q0 151 117 258t283 107q167 0 282 -112
t115 -287v-539q0 -13 9.5 -22t25.5 -9h65zM381 1331q-22 0 -37.5 14.5t-15.5 36.5t15.5 37t37.5 15q21 0 36 -15t15 -37q0 -21 -15 -36t-36 -15zM657 1331q-22 0 -37.5 14.5t-15.5 36.5t15.5 37t37.5 15q21 0 36.5 -15.5t15.5 -36.5t-15.5 -36t-36.5 -15z" />
    <glyph glyph-name="aring" unicode="&#xe5;" horiz-adv-x="1038" 
d="M836 639q-69 -66 -461 -135q-93 -17 -157 -76.5t-64 -159.5q0 -87 57 -152t137 -77q71 -14 140.5 -3t148.5 60q146 91 186 287q13 67 13 133v123zM997 55v-55h-53q-42 0 -75 29.5t-33 74.5q0 38 5 83.5t10 71.5l5 26h-20q-2 -7 -7 -18.5t-22 -44.5t-36.5 -62t-51.5 -63
t-66 -56q-128 -81 -305 -61q-103 11 -179.5 92.5t-76.5 195.5q0 64 20.5 114.5t56 83.5t74.5 53t85 32q67 16 190.5 35t165.5 30q68 16 105.5 43t29.5 76q-15 91 -101.5 162.5t-217.5 71.5q-141 0 -239.5 -90.5t-98.5 -219.5h-62q0 151 117 258t283 107q167 0 282 -112
t115 -287v-539q0 -13 9.5 -22t25.5 -9h65zM487 1286q70 0 105 44.5t35 103.5q0 58 -34.5 101.5t-105.5 43.5q-69 0 -103 -43.5t-34 -101.5q0 -59 34 -103.5t103 -44.5zM487 1634q100 0 150.5 -60.5t50.5 -139.5q0 -80 -50.5 -140.5t-150.5 -60.5q-99 0 -148.5 60t-49.5 141
q0 79 49.5 139.5t148.5 60.5z" />
    <glyph glyph-name="eacute" unicode="&#xe9;" horiz-adv-x="1069" 
d="M530 969q-94 0 -168 -36.5t-119.5 -98t-71 -134.5t-30.5 -153h783q0 58 -15 116.5t-47.5 113.5t-77.5 97.5t-111 68.5t-143 26zM141 492q1 -68 14 -131t42 -124t72 -106t110 -72.5t151 -27.5q290 0 377 305h60q-38 -167 -150 -264t-282 -97q-94 0 -171.5 31.5t-129 83
t-86.5 121t-50.5 142.5t-15.5 149q0 75 15 147t50 141t86.5 120.5t129 82.5t172.5 31q112 0 200 -42.5t142.5 -116.5t82 -168.5t27.5 -204.5h-846zM664 1434l-109 -215h-61l108 215h62z" />
    <glyph glyph-name="ecircumflex" unicode="&#xea;" horiz-adv-x="1069" 
d="M530 969q-94 0 -168 -36.5t-119.5 -98t-71 -134.5t-30.5 -153h783q0 58 -15 116.5t-47.5 113.5t-77.5 97.5t-111 68.5t-143 26zM141 492q1 -68 14 -131t42 -124t72 -106t110 -72.5t151 -27.5q290 0 377 305h60q-38 -167 -150 -264t-282 -97q-94 0 -171.5 31.5t-129 83
t-86.5 121t-50.5 142.5t-15.5 149q0 75 15 147t50 141t86.5 120.5t129 82.5t172.5 31q112 0 200 -42.5t142.5 -116.5t82 -168.5t27.5 -204.5h-846zM584 1434l145 -213h-74l-108 157h-19l-108 -157h-74l146 213h92z" />
    <glyph glyph-name="edieresis" unicode="&#xeb;" horiz-adv-x="1069" 
d="M530 969q-94 0 -168 -36.5t-119.5 -98t-71 -134.5t-30.5 -153h783q0 58 -15 116.5t-47.5 113.5t-77.5 97.5t-111 68.5t-143 26zM141 492q1 -68 14 -131t42 -124t72 -106t110 -72.5t151 -27.5q290 0 377 305h60q-38 -167 -150 -264t-282 -97q-94 0 -171.5 31.5t-129 83
t-86.5 121t-50.5 142.5t-15.5 149q0 75 15 147t50 141t86.5 120.5t129 82.5t172.5 31q112 0 200 -42.5t142.5 -116.5t82 -168.5t27.5 -204.5h-846zM395 1331q-22 0 -37.5 14.5t-15.5 36.5t15.5 37t37.5 15q21 0 36 -15t15 -37q0 -21 -15 -36t-36 -15zM672 1331q-22 0 -38 15
t-16 36q0 22 16 37t38 15q20 0 35.5 -15t15.5 -37q0 -21 -15 -36t-36 -15z" />
    <glyph glyph-name="iacute" unicode="&#xed;" horiz-adv-x="339" 
d="M295 1434l-109 -215h-61l108 215h62zM201 950q0 20 -15.5 34.5t-35.5 14.5h-113v-55h76q11 0 18.5 -8t7.5 -18v-918h62v950z" />
    <glyph glyph-name="icircumflex" unicode="&#xee;" horiz-adv-x="339" 
d="M215 1434l145 -213h-73l-109 157h-18l-109 -157h-74l146 213h92zM201 950q0 20 -15.5 34.5t-35.5 14.5h-113v-55h76q11 0 18.5 -8t7.5 -18v-918h62v950z" />
    <glyph glyph-name="idieresis" unicode="&#xef;" horiz-adv-x="339" 
d="M4 1331q-22 0 -37.5 14.5t-15.5 36.5t15.5 37t37.5 15q20 0 35.5 -15t15.5 -37q0 -21 -15 -36t-36 -15zM281 1331q-22 0 -38 15t-16 36q0 22 16 37t38 15q21 0 36 -15t15 -37q0 -21 -15 -36t-36 -15zM201 950q0 20 -15.5 34.5t-35.5 14.5h-113v-55h76q11 0 18.5 -8
t7.5 -18v-918h62v950z" />
    <glyph glyph-name="oacute" unicode="&#xf3;" horiz-adv-x="1040" 
d="M520 31q79 0 144 28t107.5 74.5t71.5 108t41.5 126t12.5 132.5t-12.5 132.5t-41.5 126t-71.5 108t-107.5 74.5t-144 28t-144 -28t-107.5 -74.5t-71.5 -108t-41.5 -126t-12.5 -132.5t12.5 -132.5t41.5 -126t71.5 -108t107.5 -74.5t144 -28zM520 1024q92 0 167 -31.5
t124.5 -83t83.5 -120.5t48.5 -141.5t14.5 -147.5t-14.5 -147.5t-48.5 -141.5t-83.5 -121t-124.5 -83.5t-167 -31.5t-167.5 31.5t-125 83.5t-83 121t-48 141.5t-14.5 147.5t14.5 147.5t48 141.5t83 120.5t125 83t167.5 31.5zM659 1434l-108 -215h-62l109 215h61z" />
    <glyph glyph-name="ocircumflex" unicode="&#xf4;" horiz-adv-x="1040" 
d="M520 31q79 0 144 28t107.5 74.5t71.5 108t41.5 126t12.5 132.5t-12.5 132.5t-41.5 126t-71.5 108t-107.5 74.5t-144 28t-144 -28t-107.5 -74.5t-71.5 -108t-41.5 -126t-12.5 -132.5t12.5 -132.5t41.5 -126t71.5 -108t107.5 -74.5t144 -28zM520 1024q92 0 167 -31.5
t124.5 -83t83.5 -120.5t48.5 -141.5t14.5 -147.5t-14.5 -147.5t-48.5 -141.5t-83.5 -121t-124.5 -83.5t-167 -31.5t-167.5 31.5t-125 83.5t-83 121t-48 141.5t-14.5 147.5t14.5 147.5t48 141.5t83 120.5t125 83t167.5 31.5zM549 1434l145 -213h-73l-109 157h-18l-109 -157
h-74l146 213h92z" />
    <glyph glyph-name="odieresis" unicode="&#xf6;" horiz-adv-x="1040" 
d="M520 31q79 0 144 28t107.5 74.5t71.5 108t41.5 126t12.5 132.5t-12.5 132.5t-41.5 126t-71.5 108t-107.5 74.5t-144 28t-144 -28t-107.5 -74.5t-71.5 -108t-41.5 -126t-12.5 -132.5t12.5 -132.5t41.5 -126t71.5 -108t107.5 -74.5t144 -28zM520 1024q92 0 167 -31.5
t124.5 -83t83.5 -120.5t48.5 -141.5t14.5 -147.5t-14.5 -147.5t-48.5 -141.5t-83.5 -121t-124.5 -83.5t-167 -31.5t-167.5 31.5t-125 83.5t-83 121t-48 141.5t-14.5 147.5t14.5 147.5t48 141.5t83 120.5t125 83t167.5 31.5zM379 1331q-22 0 -37.5 14.5t-15.5 36.5t15.5 37
t37.5 15q21 0 36 -15t15 -37q0 -21 -15 -36t-36 -15zM655 1331q-22 0 -37.5 14.5t-15.5 36.5t15.5 37t37.5 15q21 0 36.5 -15.5t15.5 -36.5t-15.5 -36t-36.5 -15z" />
    <glyph glyph-name="divide" unicode="&#xf7;" 
d="M143 662h826v-56h-826v56zM557 268q-22 0 -37.5 14.5t-15.5 36.5t15.5 37t37.5 15q21 0 36 -15.5t15 -36.5t-15 -36t-36 -15zM557 897q-22 0 -37.5 14.5t-15.5 36.5t15.5 36.5t37.5 14.5q21 0 36 -15t15 -36t-15 -36t-36 -15z" />
    <glyph glyph-name="oslash" unicode="&#xf8;" horiz-adv-x="1040" 
d="M520 31q79 0 144 28t107.5 74.5t71.5 108t41.5 126t12.5 132.5t-12.5 132.5t-41.5 126t-71.5 108t-107.5 74.5t-144 28t-144 -28t-107.5 -74.5t-71.5 -108t-41.5 -126t-12.5 -132.5t12.5 -132.5t41.5 -126t71.5 -108t107.5 -74.5t144 -28zM520 1024q92 0 167 -31.5
t124.5 -83t83.5 -120.5t48.5 -141.5t14.5 -147.5t-14.5 -147.5t-48.5 -141.5t-83.5 -121t-124.5 -83.5t-167 -31.5t-167.5 31.5t-125 83.5t-83 121t-48 141.5t-14.5 147.5t14.5 147.5t48 141.5t83 120.5t125 83t167.5 31.5zM913 999l-710 -999h-76l711 999h75z" />
    <glyph glyph-name="uacute" unicode="&#xfa;" horiz-adv-x="1101" 
d="M133 422q0 -167 67 -284.5t201 -151.5q103 -21 186.5 -2t147 74t104.5 129.5t60 164.5h19q-21 -118 -21 -233v-119h61v999h-61v-340q0 -121 -23 -243q-36 -202 -158.5 -311.5t-283.5 -69.5q-128 31 -182.5 133.5t-54.5 275.5v555h-62v-577zM664 1434l-109 -215h-61
l108 215h62z" />
    <glyph glyph-name="ucircumflex" unicode="&#xfb;" horiz-adv-x="1101" 
d="M133 422q0 -167 67 -284.5t201 -151.5q103 -21 186.5 -2t147 74t104.5 129.5t60 164.5h19q-21 -118 -21 -233v-119h61v999h-61v-340q0 -121 -23 -243q-36 -202 -158.5 -311.5t-283.5 -69.5q-128 31 -182.5 133.5t-54.5 275.5v555h-62v-577zM592 1434l145 -213h-73
l-109 157h-18l-109 -157h-74l146 213h92z" />
    <glyph glyph-name="udieresis" unicode="&#xfc;" horiz-adv-x="1101" 
d="M133 422q0 -167 67 -284.5t201 -151.5q103 -21 186.5 -2t147 74t104.5 129.5t60 164.5h19q-21 -118 -21 -233v-119h61v999h-61v-340q0 -121 -23 -243q-36 -202 -158.5 -311.5t-283.5 -69.5q-128 31 -182.5 133.5t-54.5 275.5v555h-62v-577zM414 1331q-22 0 -38 15t-16 36
q0 22 16 37t38 15q20 0 35.5 -15t15.5 -37q0 -21 -15 -36t-36 -15zM690 1331q-22 0 -37.5 14.5t-15.5 36.5t15.5 37t37.5 15q20 0 35.5 -15t15.5 -37q0 -21 -15 -36t-36 -15z" />
    <glyph glyph-name="yacute" unicode="&#xfd;" horiz-adv-x="942" 
d="M532 203l-55 -148h-14q-16 52 -55 148l-322 796h-66l404 -999h27l-132 -324q-14 -35 -34 -65t-51.5 -60t-78 -47.5t-102.5 -17.5h-14v-55h1v0v0h-1v0v0v0v0h1h1h1h1h1h9q69 0 126 21.5t95.5 58t63 72.5t41.5 77l543 1339h-66zM604 1434l-108 -215h-62l109 215h61z" />
    <glyph glyph-name="ydieresis" unicode="&#xff;" horiz-adv-x="942" 
d="M532 203l-55 -148h-14q-16 52 -55 148l-322 796h-66l404 -999h27l-132 -324q-14 -35 -34 -65t-51.5 -60t-78 -47.5t-102.5 -17.5h-14v-55h1v0v0h-1v0v0v0v0h1h1h1h1h1h9q69 0 126 21.5t95.5 58t63 72.5t41.5 77l543 1339h-66zM338 1331q-22 0 -37.5 14.5t-15.5 36.5
t15.5 37t37.5 15q20 0 35.5 -15t15.5 -37q0 -21 -15 -36t-36 -15zM614 1331q-22 0 -37.5 14.5t-15.5 36.5t15.5 37t37.5 15q21 0 36.5 -15.5t15.5 -36.5t-15.5 -36t-36.5 -15z" />
    <glyph glyph-name="Ccaron" unicode="&#x10c;" horiz-adv-x="1400" 
d="M1255 403q-30 -79 -75 -144t-108.5 -117.5t-151 -81.5t-191.5 -29q-121 0 -220 41.5t-163.5 109.5t-109 158.5t-63.5 186t-19 194.5q0 98 19 191.5t63.5 183.5t109 157.5t163.5 108.5t220 41q104 0 191.5 -29t151 -81t108.5 -117.5t75 -145.5h64q-31 92 -80.5 167
t-120.5 135t-170.5 93t-218.5 33q-134 0 -243.5 -44.5t-181.5 -117.5t-121 -170t-70 -198.5t-21 -206.5q0 -107 21 -210t70 -201t121 -171.5t181.5 -118.5t243.5 -45q119 0 218.5 33.5t170.5 93.5t120.5 135t80.5 166h-64zM684 1548l-145 213h73l109 -157h18l109 157h74
l-146 -213h-92z" />
    <glyph glyph-name="ccaron" unicode="&#x10d;" horiz-adv-x="1017" 
d="M883 279q-43 -111 -131 -179.5t-220 -68.5q-102 0 -180 42t-122 111.5t-65.5 150t-21.5 167.5q0 84 21.5 163.5t65.5 149t122 112t180 42.5q132 0 220 -68.5t131 -181.5h63q-45 134 -149 219.5t-265 85.5q-95 0 -173 -31.5t-128.5 -83t-85 -120.5t-49 -140.5
t-14.5 -146.5q0 -76 14.5 -148.5t49 -142t85 -121.5t128.5 -83.5t173 -31.5q162 0 265.5 84t148.5 220h-63zM469 1221l-145 213h73l109 -158h18l109 158h74l-146 -213h-92z" />
    <glyph glyph-name="Dcaron" unicode="&#x10e;" horiz-adv-x="1382" 
d="M670 55q117 0 213.5 40t159.5 105t106 152.5t61.5 178.5t18.5 186q0 79 -13.5 155.5t-41 151.5t-73 138t-105.5 112t-144 76.5t-182 27.5h-445v-1323h445zM1290 717q0 -166 -47 -302t-129.5 -226.5t-196.5 -139.5t-247 -49h-506v1434h506q130 0 242.5 -48t196.5 -137
t132.5 -226t48.5 -306zM559 1548l-145 213h73l109 -157h18l109 157h74l-146 -213h-92z" />
    <glyph glyph-name="dcaron" unicode="&#x10f;" horiz-adv-x="1089" 
d="M143 500q0 -74 13 -141.5t42 -128t71.5 -104.5t105 -69.5t139.5 -25.5q95 0 168 39t116.5 105.5t65 148.5t21.5 176t-22 176.5t-66 149t-117 105t-166 38.5q-95 0 -168 -38.5t-116.5 -105t-65 -149t-21.5 -176.5zM82 500q0 104 25 196t74.5 166.5t132 118t188.5 43.5
q146 0 242.5 -79t140.5 -212h20q-20 107 -20 234v467h61v-1434h-61v33q0 56 5 113.5t10 87.5l5 30h-20q-44 -133 -139.5 -211t-243.5 -78q-107 0 -190 43.5t-132 118.5t-73.5 166.5t-24.5 196.5zM1212 1434l-8 -488h-43l-10 488h61z" />
    <glyph glyph-name="Ebreve" unicode="&#x114;" 
d="M1010 1434v-56h-785v-635h717v-55h-717v-633h785v-55h-846l2 1434h844zM799 1761q0 -85 -54.5 -149t-164.5 -64q-57 0 -100.5 19t-68 51t-37 68t-12.5 75h62q0 -64 39 -111.5t117 -47.5q79 0 118 47.5t39 111.5h62z" />
    <glyph glyph-name="Ecaron" unicode="&#x11a;" 
d="M1010 1434v-56h-785v-635h717v-55h-717v-633h785v-55h-846l2 1434h844zM522 1548l-145 213h74l108 -157h19l108 157h74l-146 -213h-92z" />
    <glyph glyph-name="ecaron" unicode="&#x11b;" horiz-adv-x="1069" 
d="M530 969q-94 0 -168 -36.5t-119.5 -98t-71 -134.5t-30.5 -153h783q0 58 -15 116.5t-47.5 113.5t-77.5 97.5t-111 68.5t-143 26zM141 492q1 -68 14 -131t42 -124t72 -106t110 -72.5t151 -27.5q290 0 377 305h60q-38 -167 -150 -264t-282 -97q-94 0 -171.5 31.5t-129 83
t-86.5 121t-50.5 142.5t-15.5 149q0 75 15 147t50 141t86.5 120.5t129 82.5t172.5 31q112 0 200 -42.5t142.5 -116.5t82 -168.5t27.5 -204.5h-846zM477 1221l-145 213h74l108 -158h18l109 158h74l-146 -213h-92z" />
    <glyph glyph-name="Ibreve" unicode="&#x12c;" horiz-adv-x="389" 
d="M164 1434h61v-1434h-61v1434zM412 1761q0 -85 -54.5 -149t-164.5 -64q-57 0 -100.5 19t-68 51t-37 68t-12.5 75h62q0 -64 39 -111.5t117 -47.5q79 0 118 47.5t39 111.5h62z" />
    <glyph glyph-name="Idotaccent" unicode="&#x130;" horiz-adv-x="389" 
d="M164 1434h61v-1434h-61v1434zM195 1659q-22 0 -38 15t-16 36t16 36t38 15q21 0 36 -15t15 -36t-15 -36t-36 -15z" />
    <glyph glyph-name="Lacute" unicode="&#x139;" horiz-adv-x="983" 
d="M225 1434v-1379h717v-55h-778v1434h61zM334 1761l-109 -215h-61l108 215h62z" />
    <glyph glyph-name="lacute" unicode="&#x13a;" horiz-adv-x="348" 
d="M143 1434h62v-1434h-62v1434zM322 1761l-109 -215h-61l108 215h62z" />
    <glyph glyph-name="Lcaron" unicode="&#x13d;" horiz-adv-x="983" 
d="M225 1434v-1379h717v-55h-778v1434h61zM528 1434l-8 -488h-43l-10 488h61z" />
    <glyph glyph-name="lcaron" unicode="&#x13e;" horiz-adv-x="348" 
d="M143 1434h62v-1434h-62v1434zM471 1434l-8 -488h-43l-10 488h61z" />
    <glyph glyph-name="Lslash" unicode="&#x141;" horiz-adv-x="1024" 
d="M266 1434v-1379h717v-55h-778v1434h61zM61 569l590 301v-61l-590 -301v61z" />
    <glyph glyph-name="lslash" unicode="&#x142;" horiz-adv-x="348" 
d="M143 1434h62v-1434h-62v1434zM348 793l-348 -164v59l348 164v-59z" />
    <glyph glyph-name="Ncaron" unicode="&#x147;" horiz-adv-x="1384" 
d="M1159 287q0 -51 4.5 -109t8.5 -90l4 -33h-17l-897 1379h-98v-1434h61v1145q0 53 -4 111t-8 90l-4 32h16l897 -1378h99v1434h-62v-1147zM659 1548l-145 213h74l108 -157h19l108 157h74l-145 -213h-93z" />
    <glyph glyph-name="ncaron" unicode="&#x148;" horiz-adv-x="1101" 
d="M969 578q0 167 -67.5 284.5t-201.5 151.5q-103 21 -186 2t-146.5 -74.5t-104.5 -130t-60 -164.5h-19q21 119 21 234v118h-62v-999h62v340q0 127 22 244q36 202 159 311.5t284 69.5q128 -31 182.5 -134t54.5 -276v-555h62v578zM508 1221l-146 213h74l109 -158h18l109 158
h73l-145 -213h-92z" />
    <glyph glyph-name="Ohungarumlaut" unicode="&#x150;" horiz-adv-x="1423" 
d="M713 31q117 0 212.5 41t158 108.5t106 157.5t62 184.5t18.5 192.5q0 82 -13.5 162t-41 158t-73 144t-105.5 116.5t-143 79t-181 28.5t-182 -28.5t-144 -79t-105.5 -116.5t-73 -144t-41 -158t-13.5 -162q0 -81 13.5 -160t41 -157t73 -143.5t105.5 -116t144 -79t182 -28.5z
M713 1458q130 0 236.5 -44.5t176 -117.5t117 -171t68 -200.5t20.5 -209.5q0 -106 -20.5 -208t-68 -199.5t-117 -170.5t-176 -117.5t-236.5 -44.5q-110 0 -203 31t-159.5 85.5t-117.5 125.5t-81 155t-45 169.5t-15 173.5q0 107 20.5 209.5t68 200.5t117.5 171t177 117.5
t238 44.5zM950 1761l-108 -215h-62l109 215h61zM739 1761l-108 -215h-62l109 215h61z" />
    <glyph glyph-name="ohungarumlaut" unicode="&#x151;" horiz-adv-x="1040" 
d="M520 31q79 0 144 28t107.5 74.5t71.5 108t41.5 126t12.5 132.5t-12.5 132.5t-41.5 126t-71.5 108t-107.5 74.5t-144 28t-144 -28t-107.5 -74.5t-71.5 -108t-41.5 -126t-12.5 -132.5t12.5 -132.5t41.5 -126t71.5 -108t107.5 -74.5t144 -28zM520 1024q92 0 167 -31.5
t124.5 -83t83.5 -120.5t48.5 -141.5t14.5 -147.5t-14.5 -147.5t-48.5 -141.5t-83.5 -121t-124.5 -83.5t-167 -31.5t-167.5 31.5t-125 83.5t-83 121t-48 141.5t-14.5 147.5t14.5 147.5t48 141.5t83 120.5t125 83t167.5 31.5zM754 1434l-109 -215h-61l108 215h62zM543 1434
l-109 -215h-61l108 215h62z" />
    <glyph glyph-name="racute" unicode="&#x155;" horiz-adv-x="614" 
d="M573 999q-148 -4 -240 -73.5t-130 -190.5h-19q21 139 21 211q0 23 -15 38t-38 15h-111v-55h82q20 0 20 -20v-924h62v535q0 79 20.5 149.5t62.5 130t115.5 94.5t169.5 35v55zM436 1434l-108 -215h-62l109 215h61z" />
    <glyph glyph-name="Rcaron" unicode="&#x158;" horiz-adv-x="1271" 
d="M696 741q68 0 133 18.5t122 55t91.5 100.5t34.5 146t-34.5 145.5t-91.5 99.5t-121.5 54t-133.5 18h-471v-637h471zM946 741q75 0 131 -55.5t56 -130.5v-555h-62v561q0 51 -37 88t-88 37h-721v-686h-61v1434h532q210 0 326.5 -102.5t116.5 -260.5q0 -56 -16.5 -106
t-36 -80t-52.5 -59.5t-48 -39t-40 -24.5v-21zM547 1548l-146 213h74l109 -157h18l109 157h73l-145 -213h-92z" />
    <glyph glyph-name="rcaron" unicode="&#x159;" horiz-adv-x="614" 
d="M573 999q-148 -4 -240 -73.5t-130 -190.5h-19q21 139 21 211q0 23 -15 38t-38 15h-111v-55h82q20 0 20 -20v-924h62v535q0 79 20.5 149.5t62.5 130t115.5 94.5t169.5 35v55zM252 1221l-146 213h74l109 -158h18l109 158h73l-145 -213h-92z" />
    <glyph glyph-name="Scaron" unicode="&#x160;" horiz-adv-x="1175" 
d="M1083 381q0 83 -36 148t-78.5 101.5t-128 68.5t-132.5 43.5t-145 30.5q-3 1 -4 1q-138 27 -178 40q-163 52 -198 178q-11 38 -11 83q0 60 23 116t70 104.5t130 78t191 29.5q110 0 194.5 -29.5t131.5 -78t70.5 -104.5t23.5 -116v-24h61v24q0 56 -16 108.5t-52.5 103
t-90.5 88t-137 60.5t-185 23q-100 0 -182 -23t-135.5 -60.5t-89.5 -88t-52 -103.5t-16 -108q0 -79 29 -139.5t62 -93t104 -60t104.5 -35.5t115.5 -23q24 -5 35 -7q53 -10 92 -18.5t90 -24t87.5 -32t75 -42.5t62.5 -56t39 -72t15 -91q0 -67 -25 -127t-75.5 -111t-138.5 -81.5
t-203 -30.5q-116 0 -205.5 33.5t-140.5 88.5t-76 118t-25 130h-61q0 -61 16.5 -120t55.5 -115t96 -98t144 -67.5t194 -25.5t194 23.5t144 62.5t95.5 92t55 110t16.5 118zM528 1548l-145 213h74l108 -157h19l108 157h74l-145 -213h-93z" />
    <glyph glyph-name="scaron" unicode="&#x161;" horiz-adv-x="866" 
d="M774 276q0 68 -21.5 118.5t-57.5 79t-83.5 47.5t-99 29t-103.5 18t-99.5 19.5t-83.5 29.5t-57.5 52t-21.5 83q0 46 16.5 83t44 61.5t64.5 41.5t75.5 24t78.5 7q50 0 97 -12t88 -36.5t66 -68t25 -100.5v-17h62v17q0 71 -30.5 125.5t-80.5 85.5t-107.5 46t-119.5 15
t-120 -15t-108.5 -46t-81 -85.5t-30.5 -125.5q0 -77 34.5 -125.5t90 -69.5t122 -32.5t133.5 -23t122.5 -32t90 -69t34.5 -124.5q0 -64 -26.5 -113t-70 -77t-94 -41.5t-104.5 -13.5q-53 0 -103 13.5t-94 40.5t-70.5 75.5t-27.5 111.5h-62q1 -62 22.5 -113t56.5 -84.5
t82 -56.5t96 -33t100 -10q65 0 125.5 17t113.5 51t85 94.5t32 138.5zM375 1221l-146 213h74l109 -158h18l109 158h73l-145 -213h-92z" />
    <glyph glyph-name="Tcaron" unicode="&#x164;" horiz-adv-x="1040" 
d="M1020 1434v-56h-469v-1378h-62v1378h-469v56h1000zM473 1548l-145 213h73l109 -157h18l109 157h74l-146 -213h-92z" />
    <glyph glyph-name="tcaron" unicode="&#x165;" horiz-adv-x="514" 
d="M141 283q0 -120 82 -201.5t201 -81.5h7h8h9h9v55h-1v0v0h1v0v0v0v0v0v0v0v0h-1v0h-1v0h-1h-1h-1h-1h-1h-1h-1h-1h-1h-1h-1h-1h-1h-1h-1h-1h-1h-1h-1h-1h-1h-1h-9q-92 0 -156.5 66.5t-64.5 161.5v661h254v55h-254v435h-62v-435h-110v-55h110v-661zM471 1761l-8 -487h-43
l-10 487h61z" />
    <glyph glyph-name="Uring" unicode="&#x16e;" horiz-adv-x="1331" 
d="M1116 569q0 -77 -15 -151t-49.5 -145t-85 -124t-128 -85.5t-172.5 -32.5t-172.5 32.5t-128.5 85.5t-85.5 124t-49.5 145t-15 151v865h-61v-865q0 -72 14.5 -147.5t51.5 -157.5t93 -144.5t147.5 -103.5t205.5 -41t205.5 40t147.5 102t93 143.5t51.5 157.5t14.5 151v865
h-62v-865zM664 1599q70 0 104.5 44.5t34.5 103.5t-34.5 102t-104.5 43q-69 0 -103.5 -43.5t-34.5 -101.5q0 -59 34.5 -103.5t103.5 -44.5zM664 1948q100 0 150 -60.5t50 -140.5q0 -81 -50 -141t-150 -60q-99 0 -149 60.5t-50 140.5q0 79 50 140t149 61z" />
    <glyph glyph-name="uring" unicode="&#x16f;" horiz-adv-x="1101" 
d="M133 422q0 -167 67 -284.5t201 -151.5q103 -21 186.5 -2t147 74t104.5 129.5t60 164.5h19q-21 -118 -21 -233v-119h61v999h-61v-340q0 -121 -23 -243q-36 -202 -158.5 -311.5t-283.5 -69.5q-128 31 -182.5 133.5t-54.5 275.5v555h-62v-577zM543 1286q70 0 104.5 44.5
t34.5 103.5t-34.5 102t-104.5 43q-69 0 -103 -43.5t-34 -101.5q0 -59 34 -103.5t103 -44.5zM543 1634q100 0 150 -60.5t50 -139.5q0 -81 -50 -141t-150 -60q-99 0 -149 60.5t-50 140.5q0 79 50 139.5t149 60.5z" />
    <glyph glyph-name="Uhungarumlaut" unicode="&#x170;" horiz-adv-x="1331" 
d="M1116 569q0 -77 -15 -151t-49.5 -145t-85 -124t-128 -85.5t-172.5 -32.5t-172.5 32.5t-128.5 85.5t-85.5 124t-49.5 145t-15 151v865h-61v-865q0 -72 14.5 -147.5t51.5 -157.5t93 -144.5t147.5 -103.5t205.5 -41t205.5 40t147.5 102t93 143.5t51.5 157.5t14.5 151v865
h-62v-865zM889 1761l-109 -215h-61l108 215h62zM678 1761l-109 -215h-61l108 215h62z" />
    <glyph glyph-name="uhungarumlaut" unicode="&#x171;" horiz-adv-x="1101" 
d="M133 422q0 -167 67 -284.5t201 -151.5q103 -21 186.5 -2t147 74t104.5 129.5t60 164.5h19q-21 -118 -21 -233v-119h61v999h-61v-340q0 -121 -23 -243q-36 -202 -158.5 -311.5t-283.5 -69.5q-128 31 -182.5 133.5t-54.5 275.5v555h-62v-577zM770 1434l-108 -215h-62
l109 215h61zM559 1434l-108 -215h-62l109 215h61z" />
    <glyph glyph-name="Ydieresis" unicode="&#x178;" horiz-adv-x="995" 
d="M555 854q-13 -22 -24.5 -46t-16.5 -37l-6 -13h-21q-20 47 -49 96l-346 580h-72l447 -746v-688h61v688l447 746h-72zM358 1659q-22 0 -37.5 14.5t-15.5 36.5t15.5 36.5t37.5 14.5q21 0 36.5 -15t15.5 -36t-15.5 -36t-36.5 -15zM635 1659q-22 0 -37.5 14.5t-15.5 36.5
t15.5 36.5t37.5 14.5q21 0 36 -15t15 -36t-15 -36t-36 -15z" />
    <glyph glyph-name="Zcaron" unicode="&#x17d;" horiz-adv-x="1165" 
d="M129 70q43 18 98 96l856 1184v84h-946v-56h914v-16q-5 -2 -14 -6.5t-36 -28t-51 -57.5l-858 -1186v-84h946v55h-909v15zM545 1548l-146 213h74l109 -157h18l109 157h73l-145 -213h-92z" />
    <glyph glyph-name="zcaron" unicode="&#x17e;" horiz-adv-x="872" 
d="M750 928q-28 0 -95 -86l-583 -776v-66h696v55h-645v17q25 0 90 80l588 782v65h-697v-55h646v-16zM395 1221l-145 213h74l108 -158h19l108 158h74l-146 -213h-92z" />
    <glyph glyph-name="Oslashacute" unicode="&#x1fe;" horiz-adv-x="1423" 
d="M713 31q117 0 212.5 41t158 108.5t106 157.5t62 184.5t18.5 192.5q0 82 -13.5 162t-41 158t-73 144t-105.5 116.5t-143 79t-181 28.5t-182 -28.5t-144 -79t-105.5 -116.5t-73 -144t-41 -158t-13.5 -162q0 -81 13.5 -160t41 -157t73 -143.5t105.5 -116t144 -79t182 -28.5z
M713 1458q130 0 236.5 -44.5t176 -117.5t117 -171t68 -200.5t20.5 -209.5q0 -106 -20.5 -208t-68 -199.5t-117 -170.5t-176 -117.5t-236.5 -44.5q-110 0 -203 31t-159.5 85.5t-117.5 125.5t-81 155t-45 169.5t-15 173.5q0 107 20.5 209.5t68 200.5t117.5 171t177 117.5
t238 44.5zM1290 1434l-1079 -1434h-78l1081 1434h76zM850 1761l-109 -215h-61l108 215h62z" />
    <glyph glyph-name="oslashacute" unicode="&#x1ff;" horiz-adv-x="1040" 
d="M520 31q79 0 144 28t107.5 74.5t71.5 108t41.5 126t12.5 132.5t-12.5 132.5t-41.5 126t-71.5 108t-107.5 74.5t-144 28t-144 -28t-107.5 -74.5t-71.5 -108t-41.5 -126t-12.5 -132.5t12.5 -132.5t41.5 -126t71.5 -108t107.5 -74.5t144 -28zM520 1024q92 0 167 -31.5
t124.5 -83t83.5 -120.5t48.5 -141.5t14.5 -147.5t-14.5 -147.5t-48.5 -141.5t-83.5 -121t-124.5 -83.5t-167 -31.5t-167.5 31.5t-125 83.5t-83 121t-48 141.5t-14.5 147.5t14.5 147.5t48 141.5t83 120.5t125 83t167.5 31.5zM913 999l-710 -999h-76l711 999h75zM655 1434
l-108 -215h-62l109 215h61z" />
    <glyph glyph-name="circumflex" unicode="&#x2c6;" horiz-adv-x="546" 
d="M319 1761l146 -213h-74l-108 158h-19l-108 -158h-74l145 213h92z" />
    <glyph glyph-name="caron" unicode="&#x2c7;" horiz-adv-x="546" 
d="M227 1548l-145 213h74l108 -157h19l108 157h74l-146 -213h-92z" />
    <glyph glyph-name="breve" unicode="&#x2d8;" horiz-adv-x="641" 
d="M539 1761q0 -85 -55 -149t-165 -64q-57 0 -100.5 19t-68 51t-36.5 68t-12 75h62q0 -64 38.5 -111.5t116.5 -47.5q79 0 118.5 47.5t39.5 111.5h62z" />
    <glyph glyph-name="dotaccent" unicode="&#x2d9;" horiz-adv-x="309" 
d="M156 1659q-22 0 -38 15t-16 36t16 36t38 15q21 0 36 -15t15 -36t-15 -36t-36 -15z" />
    <glyph glyph-name="ring" unicode="&#x2da;" horiz-adv-x="563" 
d="M281 1599q70 0 104.5 44.5t34.5 103.5t-34.5 102t-104.5 43q-69 0 -103.5 -43.5t-34.5 -101.5q0 -59 34.5 -103.5t103.5 -44.5zM281 1948q100 0 150 -60.5t50 -140.5q0 -81 -50 -141t-150 -60q-99 0 -149 60.5t-50 140.5q0 79 50 140t149 61z" />
    <glyph glyph-name="hungarumlaut" unicode="&#x2dd;" horiz-adv-x="552" 
d="M467 1761l-109 -215h-61l109 215h61zM256 1761l-109 -215h-61l109 215h61z" />
    <glyph glyph-name="endash" unicode="&#x2013;" horiz-adv-x="1230" 
d="M143 561h944v-55h-944v55z" />
    <glyph glyph-name="emdash" unicode="&#x2014;" horiz-adv-x="1884" 
d="M143 561h1598v-55h-1598v55z" />
    <glyph glyph-name="quoteleft" unicode="&#x2018;" horiz-adv-x="389" 
d="M162 1407q0 -21 15 -36t36 -15q22 0 37.5 14.5t15.5 36.5t-15.5 36.5t-37.5 14.5q-21 0 -36 -15t-15 -36zM193 1454q-25 22 -10.5 63t53.5 50v39q-69 -15 -98.5 -76.5t-7 -117.5t82.5 -56z" />
    <glyph glyph-name="quoteright" unicode="&#x2019;" horiz-adv-x="389" 
d="M227 1608q0 21 -15 36t-36 15q-22 0 -37.5 -14.5t-15.5 -36.5t15.5 -37t37.5 -15q20 0 35.5 15t15.5 37zM197 1561q25 -22 10.5 -63t-53.5 -50v-39q69 15 98.5 76.5t6.5 117.5t-83 56z" />
    <glyph glyph-name="quotedblleft" unicode="&#x201c;" horiz-adv-x="550" 
d="M324 1407q0 -21 15 -36t36 -15q22 0 37.5 14.5t15.5 36.5t-15.5 36.5t-37.5 14.5q-21 0 -36 -15t-15 -36zM354 1454q-25 22 -10.5 63t53.5 50v39q-69 -15 -98.5 -76.5t-6.5 -117.5t83 -56zM162 1407q0 -21 15 -36t36 -15q22 0 37.5 14.5t15.5 36.5t-15.5 36.5t-37.5 14.5
q-21 0 -36 -15t-15 -36zM193 1454q-25 22 -10.5 63t53.5 50v39q-69 -15 -98.5 -76.5t-7 -117.5t82.5 -56z" />
    <glyph glyph-name="quotedblright" unicode="&#x201d;" horiz-adv-x="550" 
d="M389 1608q0 21 -15 36t-36 15q-22 0 -37.5 -14.5t-15.5 -36.5t15.5 -37t37.5 -15q20 0 35.5 15t15.5 37zM358 1561q25 -22 10.5 -63t-53.5 -50v-39q69 15 98.5 76.5t7 117.5t-82.5 56zM227 1608q0 21 -15 36t-36 15q-22 0 -37.5 -14.5t-15.5 -36.5t15.5 -37t37.5 -15
q20 0 35.5 15t15.5 37zM197 1561q25 -22 10.5 -63t-53.5 -50v-39q69 15 98.5 76.5t6.5 117.5t-83 56z" />
    <glyph glyph-name="quotedblbase" unicode="&#x201e;" horiz-adv-x="552" 
d="M391 27q0 21 -15 36t-36 15q-22 0 -37.5 -14.5t-15.5 -36.5t15.5 -37t37.5 -15q20 0 35.5 15.5t15.5 36.5zM360 -20q25 -22 10.5 -63t-53.5 -50v-39q69 15 98.5 76.5t7 117.5t-82.5 56zM227 27q0 21 -15 36t-36 15q-22 0 -37.5 -14.5t-15.5 -36.5t15.5 -37t37.5 -15
q20 0 35.5 15.5t15.5 36.5zM197 -20q25 -22 10.5 -63t-53.5 -50v-39q69 15 98.5 76.5t6.5 117.5t-83 56z" />
    <glyph glyph-name="bullet" unicode="&#x2022;" horiz-adv-x="434" 
d="M219 397q-46 0 -81.5 34t-35.5 79t35.5 79t81.5 34q43 0 78 -34t35 -79t-35 -79t-78 -34z" />
    <glyph glyph-name="guilsinglleft" unicode="&#x2039;" horiz-adv-x="677" 
d="M596 0q-363 420 -367 422q-27 32 -51 49.5t-35 17.5v19q10 0 34.5 18t51.5 49l367 424h-80l-434 -499l434 -500h80z" />
    <glyph glyph-name="guilsinglright" unicode="&#x203a;" horiz-adv-x="677" 
d="M82 0h80l434 500l-434 499h-80q363 -420 367 -424q27 -31 51.5 -49t34.5 -18v-19q-11 0 -35 -17.5t-51 -49.5z" />
    <glyph glyph-name="Euro" unicode="&#x20ac;" horiz-adv-x="1546" 
d="M1370 403q-30 -79 -75 -144t-108.5 -117.5t-151 -81.5t-191.5 -29q-121 0 -220 41.5t-164 109.5t-109 158.5t-63.5 186t-19.5 194.5q0 98 19.5 191.5t63.5 183.5t109 157.5t164 108.5t220 41q104 0 191.5 -29t151 -81t108.5 -117.5t75 -145.5h64q-31 92 -80.5 167
t-120.5 135t-170.5 93t-218.5 33q-134 0 -243.5 -44.5t-181.5 -117.5t-121 -170t-70 -198.5t-21 -206.5q0 -107 21 -210t70 -201t121 -171.5t181.5 -118.5t243.5 -45q119 0 218.5 33.5t170.5 93.5t120.5 135t80.5 166h-64zM61 874v-55h912v55h-912zM63 614v-55h910v55h-910z
" />
    <glyph glyph-name="uni2117" unicode="&#x2117;" horiz-adv-x="952" 
d="M516 1104q33 0 57.5 16.5t24.5 50.5t-24.5 51t-57.5 17h-108v-135h108zM651 1171q0 -58 -40.5 -85t-94.5 -27h-108v-211h-54v438h162q28 0 56.5 -8.5t53.5 -36.5t25 -70zM475 725q90 0 158.5 31t107 82.5t57.5 109.5t19 121t-19 121t-57.5 109.5t-107 82.5t-158.5 31
q-89 0 -157 -31t-106.5 -82.5t-57.5 -109.5t-19 -121t19 -121t57.5 -109.5t106.5 -82.5t157 -31zM475 1458q104 0 183 -35t123.5 -93t66.5 -124t22 -137t-22 -137t-66.5 -124t-123.5 -93t-183 -35q-103 0 -182 35t-123 93t-66 124t-22 137t22 137t66 124t123 93t182 35z" />
    <glyph glyph-name="trademark" unicode="&#x2122;" horiz-adv-x="1146" 
d="M451 1434v-56h-168v-516h-62v516h-170v56h400zM1024 1434v-572h-61v416l-179 -416h-94l-178 416v-416h-61v572h61l221 -516h8l222 516h61z" />
    <glyph glyph-name="minus" unicode="&#x2212;" horiz-adv-x="1110" 
d="M143 715h824v-56h-824v56z" />
    <glyph glyph-name="approxequal" unicode="&#x2248;" horiz-adv-x="1060" 
d="M856 995q0 -39 -1 -63t-4 -56t-9.5 -51.5t-17.5 -38.5t-28.5 -27.5t-41.5 -8.5q-32 0 -93 38.5t-118.5 84t-126 84t-113.5 38.5q-94 0 -127 -74.5t-33 -226.5h62q0 41 0.5 64t3.5 56t9.5 52t17 38t28 27.5t41.5 8.5q27 0 71 -25t92.5 -61t98.5 -72t101 -61t88 -25
q92 0 127 75t35 224h-62zM856 571q0 -39 -1 -63.5t-4 -56.5t-9.5 -51.5t-17.5 -38t-28.5 -27t-41.5 -8.5q-32 0 -93 38t-118.5 83.5t-126 83.5t-113.5 38q-94 0 -127 -73.5t-33 -225.5h62q0 41 0.5 64t3.5 56t9.5 52t17 38t28 27.5t41.5 8.5q32 0 93 -38.5t119 -84.5
t126 -84.5t113 -38.5q92 0 127 76t35 225h-62z" />
    <glyph glyph-name="notequal" unicode="&#x2260;" 
d="M143 528h826v-55h-826v55zM143 901h826v-55h-826v55zM815 1085h76l-602 -798h-76z" />
    <glyph glyph-name="lessequal" unicode="&#x2264;" 
d="M969 55h-826v-55h826v55zM969 446v-65l-826 334v86l826 334v-66q-656 -264 -660 -266q-29 -12 -56.5 -21t-40.5 -12l-13 -4v-16q44 -10 110 -37z" />
    <glyph glyph-name="greaterequal" unicode="&#x2265;" 
d="M143 55h824v-55h-824v55zM143 444q656 265 660 267q29 12 56.5 21.5t40.5 12.5l13 3v16q-44 10 -110 37l-660 266v66l826 -334v-86l-826 -334v65z" />
    <glyph glyph-name="O.ss01" horiz-adv-x="1646" 
d="M823 -25q-151 0 -288.5 59t-236.5 158.5t-157.5 237t-58.5 289.5q0 150 58.5 287t157.5 236t236.5 157.5t288.5 58.5q150 0 287.5 -58.5t237 -157.5t158.5 -236t59 -287q0 -152 -59 -290t-158.5 -237t-237 -158t-287.5 -59zM823 31q139 0 265 54.5t217 146.5t144.5 219.5
t53.5 267.5q0 139 -53.5 265.5t-144.5 218t-217 146t-265 54.5q-186 0 -343 -92t-247 -249t-90 -343q0 -188 90.5 -346t247 -250t342.5 -92z" />
    <glyph glyph-name="Oacute.ss01" horiz-adv-x="1646" 
d="M967 1761l-109 -215h-61l108 215h62zM823 -25q-151 0 -288.5 59t-236.5 158.5t-157.5 237t-58.5 289.5q0 150 58.5 287t157.5 236t236.5 157.5t288.5 58.5q150 0 287.5 -58.5t237 -157.5t158.5 -236t59 -287q0 -152 -59 -290t-158.5 -237t-237 -158t-287.5 -59zM823 31
q139 0 265 54.5t217 146.5t144.5 219.5t53.5 267.5q0 139 -53.5 265.5t-144.5 218t-217 146t-265 54.5q-186 0 -343 -92t-247 -249t-90 -343q0 -188 90.5 -346t247 -250t342.5 -92z" />
    <glyph glyph-name="Ocircumflex.ss01" horiz-adv-x="1646" 
d="M858 1761l146 -213h-74l-109 158h-18l-109 -158h-73l145 213h92zM823 -25q-151 0 -288.5 59t-236.5 158.5t-157.5 237t-58.5 289.5q0 150 58.5 287t157.5 236t236.5 157.5t288.5 58.5q150 0 287.5 -58.5t237 -157.5t158.5 -236t59 -287q0 -152 -59 -290t-158.5 -237
t-237 -158t-287.5 -59zM823 31q139 0 265 54.5t217 146.5t144.5 219.5t53.5 267.5q0 139 -53.5 265.5t-144.5 218t-217 146t-265 54.5q-186 0 -343 -92t-247 -249t-90 -343q0 -188 90.5 -346t247 -250t342.5 -92z" />
    <glyph glyph-name="Odieresis.ss01" horiz-adv-x="1646" 
d="M678 1659q-22 0 -37.5 14.5t-15.5 36.5t15.5 36.5t37.5 14.5q21 0 36 -15t15 -36t-15 -36t-36 -15zM954 1659q-22 0 -37.5 14.5t-15.5 36.5t15.5 36.5t37.5 14.5q21 0 36.5 -15t15.5 -36t-15.5 -36t-36.5 -15zM823 -25q-151 0 -288.5 59t-236.5 158.5t-157.5 237
t-58.5 289.5q0 150 58.5 287t157.5 236t236.5 157.5t288.5 58.5q150 0 287.5 -58.5t237 -157.5t158.5 -236t59 -287q0 -152 -59 -290t-158.5 -237t-237 -158t-287.5 -59zM823 31q139 0 265 54.5t217 146.5t144.5 219.5t53.5 267.5q0 139 -53.5 265.5t-144.5 218t-217 146
t-265 54.5q-186 0 -343 -92t-247 -249t-90 -343q0 -188 90.5 -346t247 -250t342.5 -92z" />
    <glyph glyph-name="Ohungarumlaut.ss01" horiz-adv-x="1646" 
d="M1061 1761l-109 -215h-61l108 215h62zM850 1761l-109 -215h-61l108 215h62zM823 -25q-151 0 -288.5 59t-236.5 158.5t-157.5 237t-58.5 289.5q0 150 58.5 287t157.5 236t236.5 157.5t288.5 58.5q150 0 287.5 -58.5t237 -157.5t158.5 -236t59 -287q0 -152 -59 -290
t-158.5 -237t-237 -158t-287.5 -59zM823 31q139 0 265 54.5t217 146.5t144.5 219.5t53.5 267.5q0 139 -53.5 265.5t-144.5 218t-217 146t-265 54.5q-186 0 -343 -92t-247 -249t-90 -343q0 -188 90.5 -346t247 -250t342.5 -92z" />
    <glyph glyph-name="Oslash.ss01" horiz-adv-x="1646" 
d="M1464 1434l-1202 -1434h-78l1205 1434h75zM823 -25q-151 0 -288.5 59t-236.5 158.5t-157.5 237t-58.5 289.5q0 150 58.5 287t157.5 236t236.5 157.5t288.5 58.5q150 0 287.5 -58.5t237 -157.5t158.5 -236t59 -287q0 -152 -59 -290t-158.5 -237t-237 -158t-287.5 -59z
M823 31q139 0 265 54.5t217 146.5t144.5 219.5t53.5 267.5q0 139 -53.5 265.5t-144.5 218t-217 146t-265 54.5q-186 0 -343 -92t-247 -249t-90 -343q0 -188 90.5 -346t247 -250t342.5 -92z" />
    <glyph glyph-name="Oslashacute.ss01" horiz-adv-x="1646" 
d="M958 1761l-108 -215h-62l109 215h61zM1464 1434l-1202 -1434h-78l1205 1434h75zM823 -25q-151 0 -288.5 59t-236.5 158.5t-157.5 237t-58.5 289.5q0 150 58.5 287t157.5 236t236.5 157.5t288.5 58.5q150 0 287.5 -58.5t237 -157.5t158.5 -236t59 -287q0 -152 -59 -290
t-158.5 -237t-237 -158t-287.5 -59zM823 31q139 0 265 54.5t217 146.5t144.5 219.5t53.5 267.5q0 139 -53.5 265.5t-144.5 218t-217 146t-265 54.5q-186 0 -343 -92t-247 -249t-90 -343q0 -188 90.5 -346t247 -250t342.5 -92z" />
    <glyph glyph-name="A_A.dlig" horiz-adv-x="2424" 
d="M651 1434l520 -1434h-65l-152 418h-716l-152 -418h-66l521 1434h110zM258 473h676l-328 905h-20zM1884 1434l520 -1434h-65l-152 418h-717l-151 -418h-66l521 1434h110zM1491 473h676l-328 905h-20zM840 473h692v-55h-692v55z" />
    <glyph glyph-name="A_E.dlig" horiz-adv-x="1859" 
d="M973 1434v-1434h-62l2 418h-579l-242 -418h-72l834 1434h119zM367 473h546v905h-20zM1757 1434v-56h-784v-635h717v-55h-717v-633h784v-55h-846l2 1434h844z" />
    <glyph glyph-name="A_V.dlig" horiz-adv-x="1775" 
d="M1690 1434h65l-551 -1434h-98l-520 1434h65l473 -1297l27 -82h12q9 33 27 82zM651 1434l520 -1434h-65l-152 418h-716l-152 -418h-66l521 1434h110zM258 473h676l-328 905h-20z" />
    <glyph glyph-name="F_F.dlig" horiz-adv-x="1910" 
d="M985 1378h-760v-635h645v-55h-645v-688h-61v1434h821v-56zM1860 1378h-760v-635h645v-55h-645v-688h-62v1434h822v-56zM938 1434h231v-56h-231v56z" />
    <glyph glyph-name="F_I.dlig" horiz-adv-x="1208" 
d="M985 1378h-760v-635h645v-55h-645v-688h-61v1434h821v-56zM983 1434h61v-1434h-61v1434z" />
    <glyph glyph-name="F_L.dlig" horiz-adv-x="1873" 
d="M985 1378h-760v-635h645v-55h-645v-688h-61v1434h821v-56zM1116 1434v-1379h717v-55h-778v1434h61zM899 1434h168v-56h-168v56z" />
    <glyph glyph-name="H_E.dlig" horiz-adv-x="2078" 
d="M1192 1434v-1434h-62v690h-905v-690h-61v1434h61v-689h905v689h62zM1976 1434v-56h-784v-635h717v-55h-717v-633h784v-55h-846l3 1434h843z" />
    <glyph glyph-name="N_T.dlig" horiz-adv-x="2179" 
d="M1159 1434h62v-1434h-99l-897 1378h-16q16 -114 16 -233v-1145h-61v1434h98l897 -1379h17q-17 117 -17 232v1147zM2159 1434v-56h-469v-1378h-62v1378h-469v56h1000z" />
    <glyph glyph-name="T_E.dlig" horiz-adv-x="1122" 
d="M1020 1434v-56h-469v-1378h-62v1378h-469v56h1000zM1020 1434v-54h-471v-637h403v-55h-403v-633h471v-55h-533l2 1434h531z" />
    <glyph glyph-name="T_T.dlig" horiz-adv-x="2039" 
d="M1020 1434v-56h-469v-1378h-62v1378h-469v56h1000zM2019 1434v-56h-469v-1378h-61v1378h-469v56h999z" />
    <glyph glyph-name="U_B.dlig" horiz-adv-x="2185" 
d="M1116 1434h62v-865q0 -75 -14.5 -151t-51.5 -157.5t-93 -143.5t-147.5 -102t-205.5 -40t-205.5 41t-147.5 103.5t-93 144.5t-51.5 157.5t-14.5 147.5v865h61v-865q0 -77 15 -151t49.5 -145t85.5 -124t128.5 -85.5t172.5 -32.5t172.5 32.5t128 85.5t85 124t49.5 145
t15 151v865zM1595 55q80 0 154 19t139 58t104.5 108.5t39.5 160.5q0 90 -39.5 159t-104.5 108t-139 58t-154 19h-417v-690h417zM1595 801q67 0 129.5 16t117 49t87.5 91.5t33 134.5q0 61 -22 110.5t-58 81.5t-84.5 54t-99 31t-103.5 9h-417v-577h417zM2093 395
q0 -83 -32 -151.5t-83 -112.5t-117.5 -74.5t-133 -43.5t-132.5 -13h-479v1434h479q60 0 118 -11t114.5 -36.5t99.5 -63t69.5 -95.5t26.5 -130q0 -118 -74.5 -205t-174.5 -105v-20q136 -27 227.5 -129t91.5 -244z" />
    <glyph glyph-name="U_D.dlig" horiz-adv-x="2334" 
d="M1116 1434h62v-865q0 -75 -14.5 -151t-51.5 -157.5t-93 -143.5t-147.5 -102t-205.5 -40t-205.5 41t-147.5 103.5t-93 144.5t-51.5 157.5t-14.5 147.5v865h61v-865q0 -77 15 -151t49.5 -145t85.5 -124t128.5 -85.5t172.5 -32.5t172.5 32.5t128 85.5t85 124t49.5 145
t15 151v865zM1622 55q117 0 213.5 40t159.5 105t106 152.5t61.5 178.5t18.5 186q0 79 -13.5 155.5t-41 151.5t-73 138t-105.5 112t-144 76.5t-182 27.5h-444v-1323h444zM2243 717q0 -166 -47 -302t-130 -226.5t-197 -139.5t-247 -49h-506v1434h506q130 0 242.5 -48t197 -137
t133 -226t48.5 -306z" />
    <glyph glyph-name="U_L.dlig" horiz-adv-x="1935" 
d="M1116 1434h62v-865q0 -75 -14.5 -151t-51.5 -157.5t-93 -143.5t-147.5 -102t-205.5 -40t-205.5 41t-147.5 103.5t-93 144.5t-51.5 157.5t-14.5 147.5v865h61v-865q0 -77 15 -151t49.5 -145t85.5 -124t128.5 -85.5t172.5 -32.5t172.5 32.5t128 85.5t85 124t49.5 145
t15 151v865zM1178 1434v-1379h716v-55h-778v1434h62z" />
    <glyph glyph-name="U_P.dlig" horiz-adv-x="2138" 
d="M1116 1434h62v-865q0 -75 -14.5 -151t-51.5 -157.5t-93 -143.5t-147.5 -102t-205.5 -40t-205.5 41t-147.5 103.5t-93 144.5t-51.5 157.5t-14.5 147.5v865h61v-865q0 -77 15 -151t49.5 -145t85.5 -124t128.5 -85.5t172.5 -32.5t172.5 32.5t128 85.5t85 124t49.5 145
t15 151v865zM1647 743q69 0 134 18.5t120.5 55t89.5 100.5t34 146q0 66 -22.5 120.5t-59.5 90t-87 59.5t-102 34.5t-107 10.5h-469v-635h469zM1647 1434q50 0 102.5 -8.5t115 -33.5t110.5 -64.5t80 -108t32 -156.5q0 -89 -32.5 -158t-80.5 -108.5t-110.5 -65.5t-115 -34.5
t-101.5 -8.5h-469v-688h-62v1434h531z" />
    <glyph glyph-name="U_R.dlig" horiz-adv-x="2224" 
d="M1116 1434h62v-865q0 -75 -14.5 -151t-51.5 -157.5t-93 -143.5t-147.5 -102t-205.5 -40t-205.5 41t-147.5 103.5t-93 144.5t-51.5 157.5t-14.5 147.5v865h61v-865q0 -77 15 -151t49.5 -145t85.5 -124t128.5 -85.5t172.5 -32.5t172.5 32.5t128 85.5t85 124t49.5 145
t15 151v865zM1649 741q68 0 133 18.5t122 55t91.5 100.5t34.5 146t-34.5 145.5t-91.5 99.5t-121.5 54t-133.5 18h-471v-637h471zM1898 741q75 0 131 -55.5t56 -130.5v-555h-62v561q0 51 -37 88t-88 37h-720v-686h-62v1434h533q210 0 326 -102.5t116 -260.5q0 -56 -16.5 -106
t-36 -80t-52.5 -59.5t-48 -39t-40 -24.5v-21z" />
    <glyph glyph-name="V_A" horiz-adv-x="1775" 
d="M1124 1434h66l-520 -1434h-99l-551 1434h66l500 -1297l26 -82h13q8 33 26 82zM1235 1434l520 -1434h-65l-152 418h-717l-151 -418h-66l520 1434h111zM842 473h676l-328 905h-21z" />
    <glyph glyph-name="a.ss01" horiz-adv-x="1089" 
d="M516 969q-77 0 -140 -25.5t-105.5 -69.5t-72 -104.5t-42.5 -128t-13 -141.5q0 -93 22.5 -175.5t66 -149t117 -105.5t167.5 -39q93 0 165.5 39t116 105.5t65.5 149t22 175.5q0 94 -21.5 176t-65 148.5t-116 105.5t-166.5 39zM502 -25q-106 0 -188.5 43.5t-132 118
t-74.5 167t-25 196.5q0 105 24.5 196.5t73.5 166t132 118t190 43.5q148 0 244.5 -78.5t138.5 -210.5h20q-20 109 -20 234v30h61v-999h-61v33q0 56 5 114.5t10 88.5l5 30h-20q-44 -133 -140.5 -212t-242.5 -79z" />
    <glyph glyph-name="aacute.ss01" horiz-adv-x="1089" 
d="M696 1434l-108 -215h-62l109 215h61zM516 969q-77 0 -140 -25.5t-105.5 -69.5t-72 -104.5t-42.5 -128t-13 -141.5q0 -93 22.5 -175.5t66 -149t117 -105.5t167.5 -39q93 0 165.5 39t116 105.5t65.5 149t22 175.5q0 94 -21.5 176t-65 148.5t-116 105.5t-166.5 39zM502 -25
q-106 0 -188.5 43.5t-132 118t-74.5 167t-25 196.5q0 105 24.5 196.5t73.5 166t132 118t190 43.5q148 0 244.5 -78.5t138.5 -210.5h20q-20 109 -20 234v30h61v-999h-61v33q0 56 5 114.5t10 88.5l5 30h-20q-44 -133 -140.5 -212t-242.5 -79z" />
    <glyph glyph-name="acircumflex.ss01" horiz-adv-x="1089" 
d="M606 1434l146 -213h-74l-109 157h-18l-109 -157h-73l145 213h92zM516 969q-77 0 -140 -25.5t-105.5 -69.5t-72 -104.5t-42.5 -128t-13 -141.5q0 -93 22.5 -175.5t66 -149t117 -105.5t167.5 -39q93 0 165.5 39t116 105.5t65.5 149t22 175.5q0 94 -21.5 176t-65 148.5
t-116 105.5t-166.5 39zM502 -25q-106 0 -188.5 43.5t-132 118t-74.5 167t-25 196.5q0 105 24.5 196.5t73.5 166t132 118t190 43.5q148 0 244.5 -78.5t138.5 -210.5h20q-20 109 -20 234v30h61v-999h-61v33q0 56 5 114.5t10 88.5l5 30h-20q-44 -133 -140.5 -212t-242.5 -79z
" />
    <glyph glyph-name="adieresis.ss01" horiz-adv-x="1089" 
d="M414 1331q-22 0 -38 15t-16 36q0 22 16 37t38 15q20 0 35.5 -15t15.5 -37q0 -21 -15 -36t-36 -15zM690 1331q-22 0 -37.5 14.5t-15.5 36.5t15.5 37t37.5 15q20 0 35.5 -15t15.5 -37q0 -21 -15 -36t-36 -15zM516 969q-77 0 -140 -25.5t-105.5 -69.5t-72 -104.5t-42.5 -128
t-13 -141.5q0 -93 22.5 -175.5t66 -149t117 -105.5t167.5 -39q93 0 165.5 39t116 105.5t65.5 149t22 175.5q0 94 -21.5 176t-65 148.5t-116 105.5t-166.5 39zM502 -25q-106 0 -188.5 43.5t-132 118t-74.5 167t-25 196.5q0 105 24.5 196.5t73.5 166t132 118t190 43.5
q148 0 244.5 -78.5t138.5 -210.5h20q-20 109 -20 234v30h61v-999h-61v33q0 56 5 114.5t10 88.5l5 30h-20q-44 -133 -140.5 -212t-242.5 -79z" />
    <glyph glyph-name="aring.ss01" horiz-adv-x="1089" 
d="M549 1286q70 0 104.5 44.5t34.5 103.5t-34.5 102t-104.5 43q-69 0 -103 -43.5t-34 -101.5q0 -59 34 -103.5t103 -44.5zM549 1634q100 0 150.5 -60.5t50.5 -139.5q0 -80 -50.5 -140.5t-150.5 -60.5q-99 0 -149 60.5t-50 140.5q0 79 50 139.5t149 60.5zM516 969
q-77 0 -140 -25.5t-105.5 -69.5t-72 -104.5t-42.5 -128t-13 -141.5q0 -93 22.5 -175.5t66 -149t117 -105.5t167.5 -39q93 0 165.5 39t116 105.5t65.5 149t22 175.5q0 94 -21.5 176t-65 148.5t-116 105.5t-166.5 39zM502 -25q-106 0 -188.5 43.5t-132 118t-74.5 167
t-25 196.5q0 105 24.5 196.5t73.5 166t132 118t190 43.5q148 0 244.5 -78.5t138.5 -210.5h20q-20 109 -20 234v30h61v-999h-61v33q0 56 5 114.5t10 88.5l5 30h-20q-44 -133 -140.5 -212t-242.5 -79z" />
    <glyph glyph-name="f.ss01" horiz-adv-x="493" 
d="M31 944h110v-944h62v944h250v55h-422v-55zM362 999q-56 0 -105 17.5t-84.5 62t-35.5 109.5t35.5 109.5t84.5 62.5t105 18h91v56h-91q-42 0 -82 -8.5t-77.5 -27.5t-66 -46.5t-45.5 -69.5t-17 -92q0 -31 5 -57t15 -45.5t17 -30.5t19 -24l11 -13v-27z" />
    <glyph glyph-name="g.ss01" horiz-adv-x="1067" 
d="M496 178q-196 0 -315.5 115.5t-119.5 306.5q0 190 120.5 307t314.5 117q134 0 233 -69.5t135 -178.5q3 -10 33.5 -71t30.5 -105q0 -190 -119 -306t-313 -116zM496 233q163 0 266.5 102.5t103.5 264.5q0 163 -103.5 266t-266.5 103q-164 0 -268.5 -103t-104.5 -266
q0 -162 104 -264.5t269 -102.5zM883 776q-19 119 -19 176q0 19 15 33t39 14h108v-55h-78q-20 0 -20 -18v-326h-35l-29 176h19zM928 600v-559q0 -99 -35 -175.5t-95.5 -122t-133.5 -68.5t-156 -23q-60 0 -117.5 11.5t-112.5 38t-96.5 66t-66.5 99.5t-25 133h62
q0 -75 32 -133.5t84.5 -92t113.5 -50.5t126 -17q71 0 134.5 20.5t114 60t80 105t29.5 148.5v559h62z" />
    <glyph glyph-name="k.ss01" horiz-adv-x="1013" 
d="M532 500l383 -504h78l-385 506v20q83 7 151 38t112 89.5t44 134.5q0 46 -16.5 87t-50.5 76.5t-94.5 56t-141.5 20.5q-93 0 -171 -31t-126 -78t-76 -91t-38 -81h-21q25 102 25 213v478h-62v-1434h62v500h327zM205 555q0 179 116.5 296.5t290.5 117.5q57 0 101.5 -12
t70 -31t42 -44.5t22.5 -49t6 -48.5q0 -105 -99 -167t-245 -62h-305z" />
    <glyph glyph-name="o.ss01" horiz-adv-x="1212" 
d="M606 -25q-143 0 -263.5 70t-190.5 191t-70 264t70 263.5t190.5 190.5t263.5 70t263.5 -70t190.5 -190.5t70 -263.5t-70 -264t-190.5 -191t-263.5 -70zM606 31q194 0 328.5 136.5t134.5 332.5t-134.5 332.5t-328.5 136.5t-328.5 -136.5t-134.5 -332.5t134.5 -332.5
t328.5 -136.5z" />
    <glyph glyph-name="oacute.ss01" horiz-adv-x="1212" 
d="M735 1434l-108 -215h-62l109 215h61zM606 -25q-143 0 -263.5 70t-190.5 191t-70 264t70 263.5t190.5 190.5t263.5 70t263.5 -70t190.5 -190.5t70 -263.5t-70 -264t-190.5 -191t-263.5 -70zM606 31q194 0 328.5 136.5t134.5 332.5t-134.5 332.5t-328.5 136.5
t-328.5 -136.5t-134.5 -332.5t134.5 -332.5t328.5 -136.5z" />
    <glyph glyph-name="ocircumflex.ss01" horiz-adv-x="1212" 
d="M653 1434l146 -213h-74l-109 157h-18l-109 -157h-73l145 213h92zM606 -25q-143 0 -263.5 70t-190.5 191t-70 264t70 263.5t190.5 190.5t263.5 70t263.5 -70t190.5 -190.5t70 -263.5t-70 -264t-190.5 -191t-263.5 -70zM606 31q194 0 328.5 136.5t134.5 332.5t-134.5 332.5
t-328.5 136.5t-328.5 -136.5t-134.5 -332.5t134.5 -332.5t328.5 -136.5z" />
    <glyph glyph-name="odieresis.ss01" horiz-adv-x="1212" 
d="M469 1331q-22 0 -37.5 14.5t-15.5 36.5t15.5 37t37.5 15q21 0 36 -15t15 -37q0 -21 -15 -36t-36 -15zM745 1331q-22 0 -37.5 14.5t-15.5 36.5t15.5 37t37.5 15q21 0 36.5 -15.5t15.5 -36.5t-15.5 -36t-36.5 -15zM606 -25q-143 0 -263.5 70t-190.5 191t-70 264t70 263.5
t190.5 190.5t263.5 70t263.5 -70t190.5 -190.5t70 -263.5t-70 -264t-190.5 -191t-263.5 -70zM606 31q194 0 328.5 136.5t134.5 332.5t-134.5 332.5t-328.5 136.5t-328.5 -136.5t-134.5 -332.5t134.5 -332.5t328.5 -136.5z" />
    <glyph glyph-name="ohungarumlaut.ss01" horiz-adv-x="1212" 
d="M860 1434l-108 -215h-62l109 215h61zM649 1434l-108 -215h-62l109 215h61zM606 -25q-143 0 -263.5 70t-190.5 191t-70 264t70 263.5t190.5 190.5t263.5 70t263.5 -70t190.5 -190.5t70 -263.5t-70 -264t-190.5 -191t-263.5 -70zM606 31q194 0 328.5 136.5t134.5 332.5
t-134.5 332.5t-328.5 136.5t-328.5 -136.5t-134.5 -332.5t134.5 -332.5t328.5 -136.5z" />
    <glyph glyph-name="oslash.ss01" horiz-adv-x="1212" 
d="M1065 999l-834 -999h-75l833 999h76zM606 -25q-143 0 -263.5 70t-190.5 191t-70 264t70 263.5t190.5 190.5t263.5 70t263.5 -70t190.5 -190.5t70 -263.5t-70 -264t-190.5 -191t-263.5 -70zM606 31q194 0 328.5 136.5t134.5 332.5t-134.5 332.5t-328.5 136.5
t-328.5 -136.5t-134.5 -332.5t134.5 -332.5t328.5 -136.5z" />
    <glyph glyph-name="oslashacute.ss01" horiz-adv-x="1212" 
d="M764 1434l-109 -215h-61l108 215h62zM1065 999l-834 -999h-75l833 999h76zM606 -25q-143 0 -263.5 70t-190.5 191t-70 264t70 263.5t190.5 190.5t263.5 70t263.5 -70t190.5 -190.5t70 -263.5t-70 -264t-190.5 -191t-263.5 -70zM606 31q194 0 328.5 136.5t134.5 332.5
t-134.5 332.5t-328.5 136.5t-328.5 -136.5t-134.5 -332.5t134.5 -332.5t328.5 -136.5z" />
    <glyph glyph-name="t.ss01" horiz-adv-x="507" 
d="M41 999v-55h111v-604q0 -63 15.5 -121t47.5 -108.5t88.5 -80.5t130.5 -30h7h8h9h9v55h-1v0v0h1v0v0v0v0v0v0v0v0h-1v0h-1v0h-1h-1h-1h-1h-1h-1h-1h-1h-1h-1h-1h-1h-1h-1h-1h-1h-1h-1h-1h-1h-1h-1h-9q-58 0 -102.5 23.5t-69.5 63t-37 84t-12 93.5v625h254v55h-426z
M164 1149q0 -61 -30.5 -105.5t-92.5 -44.5l121 -28v49q33 0 48 23.5t15 56.5v334h-61v-285z" />
    <glyph glyph-name="tcaron.ss01" horiz-adv-x="501" 
d="M461 1761l-8 -487h-43l-11 487h62zM31 999v-55h110v-604q0 -50 9.5 -97t31 -91.5t53.5 -78t80.5 -53.5t108.5 -20h7h8h9h9v55h-1v0v0h1v0v0v0v0v0v0v0v0h-1v0h-1v0h-1h-1h-1h-1h-1h-1h-1h-1h-1h-1h-1h-1h-1h-1h-1h-1h-1h-1h-1h-1h-1h-1h-9q-58 0 -102.5 23.5t-69.5 63
t-37 84t-12 93.5v625h254v55h-426zM154 1149q0 -61 -30.5 -105.5t-92.5 -44.5l121 -28v49q33 0 48 23.5t15 56.5v334h-61v-285z" />
    <glyph glyph-name="a_e.dlig" horiz-adv-x="1822" 
d="M836 639q-69 -66 -461 -135q-93 -17 -157 -76.5t-64 -159.5q0 -87 57 -152t137 -77q71 -14 140.5 -3t148.5 60q146 91 186 287q13 67 13 133v123zM844 303q-2 -7 -6.5 -19.5t-21.5 -47.5t-37 -66t-54 -68t-72 -61q-128 -81 -305 -61q-103 11 -179.5 92.5t-76.5 195.5
q0 64 20.5 114.5t56 83.5t74.5 53t85 32q67 16 190.5 35t165.5 30q68 16 105.5 43t29.5 76q-15 91 -101.5 162.5t-217.5 71.5q-141 0 -239.5 -90.5t-98.5 -219.5h-62q0 151 117 258t283 107q167 0 282 -112t115 -287q0 -108 -8.5 -188.5t-16.5 -106.5l-8 -27h-20zM1284 969
q-94 0 -168 -36.5t-119.5 -98t-71 -134.5t-30.5 -153h782q0 73 -24.5 145.5t-71.5 135.5t-124.5 102t-172.5 39zM895 492q1 -68 14 -131t42 -124t72 -106t110 -72.5t151 -27.5q290 0 377 305h59q-38 -167 -150 -264t-282 -97q-94 0 -171.5 31.5t-128.5 83t-86 121
t-50.5 142.5t-15.5 149q0 75 15 147t50 141t86 120.5t128.5 82.5t172.5 31q112 0 200.5 -42.5t142.5 -116.5t82 -168.5t28 -204.5h-846z" />
    <glyph glyph-name="f_f.dlig" horiz-adv-x="878" 
d="M141 1096q0 49 9.5 96t31.5 91t54 77.5t80.5 53.5t107.5 20h33v-56h-33q-58 0 -102.5 -24t-69.5 -63.5t-37 -84.5t-12 -94v-113h250v-55h-250v-944h-62v944h-110v55h110v97zM522 1096q0 49 9.5 96t31.5 91t54 77.5t80.5 53.5t107.5 20h33v-56h-33q-58 0 -102.5 -24
t-69.5 -63.5t-37 -84.5t-12 -94v-113h250v-55h-250v-944h-62v944h-110v55h110v97z" />
    <glyph glyph-name="f_f_i.dlig" horiz-adv-x="1085" 
d="M141 1096q0 49 9.5 96t31.5 91t54 77.5t80.5 53.5t107.5 20h33v-56h-33q-58 0 -102.5 -24t-69.5 -63.5t-37 -84.5t-12 -94v-113h250v-55h-250v-944h-62v944h-110v55h110v97zM522 1096q0 49 9.5 96t31.5 91t54 77.5t80.5 53.5t107.5 20h33v-56h-33q-58 0 -102.5 -24
t-69.5 -63.5t-37 -84.5t-12 -94v-113h250v-55h-250v-944h-62v944h-110v55h110v97zM967 948v-948h-62v918q0 10 -7.5 18t-18.5 8h-76v55h112q22 0 37 -14.5t15 -36.5z" />
    <glyph glyph-name="f_f_j.dlig" horiz-adv-x="1087" 
d="M141 1096q0 49 9.5 96t31.5 91t54 77.5t80.5 53.5t107.5 20h33v-56h-33q-58 0 -102.5 -24t-69.5 -63.5t-37 -84.5t-12 -94v-113h250v-55h-250v-944h-62v944h-110v55h110v97zM522 1096q0 49 9.5 96t31.5 91t54 77.5t80.5 53.5t107.5 20h33v-56h-33q-58 0 -102.5 -24
t-69.5 -63.5t-37 -84.5t-12 -94v-113h250v-55h-250v-944h-62v944h-110v55h110v97zM969 -287q0 -130 -80.5 -206t-202.5 -76h-33v57h33q99 0 160 58t61 167v1205q0 10 -7.5 18t-18.5 8h-78v55h110q23 0 39.5 -17t16.5 -40v-1229z" />
    <glyph glyph-name="f_f_r.dlig" horiz-adv-x="1335" 
d="M141 1096q0 49 9.5 96t31.5 91t54 77.5t80.5 53.5t107.5 20h33v-56h-33q-58 0 -102.5 -24t-69.5 -63.5t-37 -84.5t-12 -94v-113h250v-55h-250v-944h-62v944h-110v55h110v97zM522 1096q0 49 9.5 96t31.5 91t54 77.5t80.5 53.5t107.5 20h33v-56h-33q-58 0 -102.5 -24
t-69.5 -63.5t-37 -84.5t-12 -94v-113h250v-55h-250v-944h-62v944h-110v55h110v97zM1294 944q-96 0 -169.5 -35t-115.5 -94.5t-62.5 -130t-20.5 -149.5v-535h-62v924q0 20 -20 20h-82v55h110q23 0 38.5 -15t15.5 -38q0 -32 -5 -85t-11 -89l-5 -37h19q38 121 130 190.5
t240 73.5v-55z" />
    <glyph glyph-name="f_f_t.dlig" horiz-adv-x="1263" 
d="M907 944h-321v-944h-62v944h-321v-944h-62v944h-110v55h110v97q0 49 9.5 96t31.5 91t54 77.5t80.5 53.5t107.5 20h33v-56h-33q-58 0 -102.5 -24t-69.5 -63.5t-37 -84.5t-12 -94v-113h321v97q0 49 9.5 96t31.5 91t54 77.5t80.5 53.5t107.5 20h33v-56h-33q-58 0 -102.5 -24
t-69.5 -63.5t-37 -84.5t-12 -94v-113h321v435h62v-435h254v-55h-254v-661q0 -95 64.5 -161.5t156.5 -66.5h33v-55h-33q-119 0 -201 81.5t-82 201.5v661z" />
    <glyph glyph-name="f_i.dlig" horiz-adv-x="704" 
d="M141 1096q0 49 9.5 96t31.5 91t54 77.5t80.5 53.5t107.5 20h33v-56h-33q-58 0 -102.5 -24t-69.5 -63.5t-37 -84.5t-12 -94v-113h250v-55h-250v-944h-62v944h-110v55h110v97zM586 948v-948h-62v918q0 10 -8 18t-18 8h-76v55h113q22 0 36.5 -14.5t14.5 -36.5z" />
    <glyph glyph-name="f_j.dlig" horiz-adv-x="706" 
d="M141 1096q0 49 9.5 96t31.5 91t54 77.5t80.5 53.5t107.5 20h33v-56h-33q-58 0 -102.5 -24t-69.5 -63.5t-37 -84.5t-12 -94v-113h250v-55h-250v-944h-62v944h-110v55h110v97zM588 -287q0 -130 -80.5 -206t-202.5 -76h-33v57h33q99 0 160 58t61 167v1205q0 10 -8 18t-18 8
h-78v55h110q23 0 39.5 -17t16.5 -40v-1229z" />
    <glyph glyph-name="f_r.dlig" horiz-adv-x="954" 
d="M141 1096q0 49 9.5 96t31.5 91t54 77.5t80.5 53.5t107.5 20h33v-56h-33q-58 0 -102.5 -24t-69.5 -63.5t-37 -84.5t-12 -94v-113h250v-55h-250v-944h-62v944h-110v55h110v97zM913 944q-96 0 -169.5 -35t-115.5 -94.5t-62.5 -130t-20.5 -149.5v-535h-62v924q0 20 -20 20
h-82v55h111q23 0 38 -15t15 -38q0 -32 -5.5 -85t-10.5 -89l-5 -37h19q38 121 130 190.5t240 73.5v-55z" />
    <glyph glyph-name="f_t.dlig" horiz-adv-x="909" 
d="M141 1096q0 49 9.5 96t31.5 91t54 77.5t80.5 53.5t107.5 20h33v-56h-33q-58 0 -102.5 -24t-69.5 -63.5t-37 -84.5t-12 -94v-113h350v435h61v-435h254v-55h-254v-661q0 -95 65 -161.5t157 -66.5h32v-55h-32q-119 0 -201 81.5t-82 201.5v661h-350v-944h-62v944h-110v55h110
v97z" />
    <glyph glyph-name="g_i.dlig" horiz-adv-x="1343" 
d="M510 178q-78 0 -155 31t-139.5 84.5t-101 134t-38.5 172.5q0 190 120 307t314 117q134 0 233.5 -69.5t135.5 -178.5q3 -9 33 -70.5t30 -105.5q0 -190 -119 -306t-313 -116zM510 233q163 0 267 102.5t104 264.5q0 163 -104 266t-267 103q-164 0 -268.5 -103t-104.5 -266
q0 -162 104 -264.5t269 -102.5zM530 -541q195 0 322 68t127 176q0 107 -132.5 175.5t-316.5 68.5q-197 0 -322.5 -67.5t-125.5 -176.5q0 -108 126 -176t322 -68zM244 -41h-17q-61 0 -108 32.5t-47 96.5q0 66 46.5 98.5t108.5 32.5h62v31l221 -31v-41h-266q-43 0 -75 -22.5
t-32 -67.5q0 -44 32.5 -66t74.5 -22h286q147 0 262.5 -36.5t181.5 -104.5t66 -156q0 -132 -143 -214.5t-365 -82.5q-226 0 -369 82t-143 215q0 42 18 79t40.5 60.5t58.5 45.5t56.5 31.5t50.5 21.5v18zM897 776q-18 113 -18 170q0 23 15 38t38 15h108v-55h-75q-23 0 -23 -20
v-324h-35l-28 176h18zM1204 950v-950h-61v918q0 10 -8 18t-19 8h-76v55h113q20 0 35.5 -14.5t15.5 -34.5zM1120 1382q0 -21 16 -36t38 -15q21 0 36 15t15 36q0 22 -15.5 37t-35.5 15q-22 0 -38 -15t-16 -37z" />
    <glyph glyph-name="g_r.dlig" horiz-adv-x="1613" 
d="M510 178q-78 0 -155 31t-139.5 84.5t-101 134t-38.5 172.5q0 190 120 307t314 117q134 0 233.5 -69.5t135.5 -178.5q3 -9 33 -70.5t30 -105.5q0 -190 -119 -306t-313 -116zM510 233q163 0 267 102.5t104 264.5q0 163 -104 266t-267 103q-164 0 -268.5 -103t-104.5 -266
q0 -162 104 -264.5t269 -102.5zM530 -541q195 0 322 68t127 176q0 107 -132.5 175.5t-316.5 68.5q-197 0 -322.5 -67.5t-125.5 -176.5q0 -108 126 -176t322 -68zM244 -41h-17q-61 0 -108 32.5t-47 96.5q0 66 46.5 98.5t108.5 32.5h62v31l221 -31v-41h-266q-43 0 -75 -22.5
t-32 -67.5q0 -44 32.5 -66t74.5 -22h286q147 0 262.5 -36.5t181.5 -104.5t66 -156q0 -132 -143 -214.5t-365 -82.5q-226 0 -369 82t-143 215q0 42 18 79t40.5 60.5t58.5 45.5t56.5 31.5t50.5 21.5v18zM897 776q-18 113 -18 170q0 23 15 38t38 15h108v-55h-75q-23 0 -23 -20
v-324h-35l-28 176h18zM1573 944q-78 0 -141 -23.5t-105 -62.5t-70 -92.5t-40.5 -111t-12.5 -119.5v-535h-61v924q0 20 -21 20h-82v55h111q23 0 38 -15t15 -38q0 -32 -5 -85t-10 -89l-5 -37h18q38 121 130.5 190.5t240.5 73.5v-55z" />
    <glyph glyph-name="r_i.dlig" horiz-adv-x="876" 
d="M573 999q-148 -4 -240 -73.5t-130 -190.5h-19q21 139 21 211q0 23 -15 38t-38 15h-111v-55h82q20 0 20 -20v-924h62v535q0 79 20.5 149.5t62.5 130t115.5 94.5t169.5 35v55zM737 950q0 20 -15.5 34.5t-35.5 14.5h-113v-55h76q11 0 19 -8t8 -18v-918h61v950zM707 1331
q-22 0 -38 15t-16 36q0 22 16 37t38 15q21 0 36 -15t15 -37q0 -21 -15 -36t-36 -15z" />
    <glyph glyph-name="r_j.dlig" horiz-adv-x="878" 
d="M573 999q-148 -4 -240 -73.5t-130 -190.5h-19q21 139 21 211q0 23 -15 38t-38 15h-111v-55h82q20 0 20 -20v-924h62v535q0 79 20.5 149.5t62.5 130t115.5 94.5t169.5 35v55zM739 942q0 23 -16 40t-39 17h-111v-55h78q11 0 19 -8t8 -18v-1205q0 -92 -66 -159.5t-155 -67.5
h-33v-55h33q115 0 198.5 83.5t83.5 198.5v1229zM709 1331q-22 0 -38 15t-16 36q0 22 16 37t38 15q21 0 36 -15t15 -37q0 -21 -15 -36t-36 -15z" />
    <glyph glyph-name="t_i.dlig" horiz-adv-x="759" 
d="M141 944h-110v55h110v435h62v-435h366q21 0 36.5 -14.5t15.5 -34.5v-950h-62v918q0 10 -8 18t-19 8h-329v-661q0 -95 64.5 -161.5t156.5 -66.5h33v-55h-33q-119 0 -201 81.5t-82 201.5v661zM537 1382q0 22 15.5 37t37.5 15q20 0 35.5 -15t15.5 -37q0 -21 -15 -36t-36 -15
q-22 0 -37.5 14.5t-15.5 36.5z" />
    <glyph glyph-name="t_r.dlig" horiz-adv-x="1030" 
d="M141 944h-110v55h110v435h62v-435h254v-55h-254v-661q0 -95 64.5 -161.5t156.5 -66.5h4h4h4h5h4h4h8v-55h-3h-2h-1h-1h-1h1h1h1h1h1h1h1h1h1h1h1h1h1h1v0v0h1v0h-1v0v0h-1v0h-1v0h-1h-1h-1h-1h-1h-1h-1h-1h-1h-1h-1h-1h-1h-1h-1h-1h-1h-1h-1h-1h-1h-1h-1h-1h-1h-1h-1h-10
q-119 0 -201 81.5t-82 201.5v661zM989 944q-96 0 -169.5 -35t-115.5 -94.5t-62.5 -130t-20.5 -149.5v-535h-62v924q0 20 -20 20h-82v55h110q23 0 38.5 -15t15.5 -38q0 -32 -5.5 -85t-10.5 -89l-5 -37h18q38 121 130.5 190.5t240.5 73.5v-55z" />
    <glyph glyph-name="t_t" horiz-adv-x="874" 
d="M518 944h-110v55h110v435h62v-435h254v-55h-254v-661q0 -95 64.5 -161.5t156.5 -66.5h33v-55h-33q-119 0 -201 81.5t-82 201.5v661zM141 944h-110v55h110v435h62v-435h254v-55h-254v-661q0 -95 64.5 -161.5t156.5 -66.5h4h4h4h5h4h4h8v-55h-3h-2h-1h-1h-1h1h1h1h1h1h1h1
h1h1h1h1h1h1h1v0v0h1v0h-1v0v0h-1v0h-1v0h-1h-1h-1h-1h-1h-1h-1h-1h-1h-1h-1h-1h-1h-1h-1h-1h-1h-1h-1h-1h-1h-1h-1h-1h-1h-1h-1h-10q-119 0 -201 81.5t-82 201.5v661z" />
    </font>
</defs>
</svg>
