<?xml version="1.0" standalone="no"?>
<!DOCTYPE svg PUBLIC "-//W3C//DTD SVG 1.1//EN" "http://www.w3.org/Graphics/SVG/1.1/DTD/svg11.dtd" >
<svg xmlns="http://www.w3.org/2000/svg" xmlns:xlink="http://www.w3.org/1999/xlink" version="1.1">
<metadata>
Created by FontForge 20201107 at Fri Feb 16 19:17:23 2024
 By 
copyright missing
</metadata>
<defs>
<font id="NeueRegrade-Regular" horiz-adv-x="1132" >
  <font-face 
    font-family="Neue Regrade"
    font-weight="400"
    font-stretch="normal"
    units-per-em="2048"
    panose-1="0 0 0 0 0 0 0 0 0 0"
    ascent="1638"
    descent="-410"
    x-height="999"
    cap-height="1434"
    bbox="-106 -594 2509 1999"
    underline-thickness="102"
    underline-position="-255"
    unicode-range="U+0020-2265"
  />
<missing-glyph horiz-adv-x="1167" 
d="M956 1741v-2335h-739v2335h739zM778 150h-389v-265h389v265zM700 72v-111h-233v111h233zM778 553h-233v-131h78v53h77v-108h-233v186h-78v-264h389v264zM778 838h-78v-154h-311v-80h389v234zM778 977h-389v-76h156v-88h-156v-76h234v164h155v76zM545 1204v-84h-78v84h78z
M623 1284h-234v-244h389v80h-155v164zM778 1585h-385v-78h152v-86h-156v-78h389v78h-155v86h155v78zM778 -170h-389v-76h164l-164 -110v-76h389v76h-239l163 110h76v76z" />
    <glyph glyph-name=".notdef" horiz-adv-x="1167" 
d="M956 1741v-2335h-739v2335h739zM778 150h-389v-265h389v265zM700 72v-111h-233v111h233zM778 553h-233v-131h78v53h77v-108h-233v186h-78v-264h389v264zM778 838h-78v-154h-311v-80h389v234zM778 977h-389v-76h156v-88h-156v-76h234v164h155v76zM545 1204v-84h-78v84h78z
M623 1284h-234v-244h389v80h-155v164zM778 1585h-385v-78h152v-86h-156v-78h389v78h-155v86h155v78zM778 -170h-389v-76h164l-164 -110v-76h389v76h-239l163 110h76v76z" />
    <glyph glyph-name=".null" horiz-adv-x="0" 
 />
    <glyph glyph-name="nonmarkingreturn" horiz-adv-x="682" 
 />
    <glyph glyph-name="space" unicode=" " horiz-adv-x="567" 
 />
    <glyph glyph-name="space" unicode="&#xa0;" horiz-adv-x="567" 
 />
    <glyph glyph-name="exclam" unicode="!" horiz-adv-x="419" 
d="M154 1434h114l-6 -1102h-102zM211 -25q-32 0 -56 22.5t-24 53.5q0 32 24 55t56 23q31 0 54.5 -23t23.5 -55q0 -31 -23.5 -53.5t-54.5 -22.5z" />
    <glyph glyph-name="quotedbl" unicode="&#x22;" horiz-adv-x="583" 
d="M207 1434l-12 -508h-89l-14 508h115zM492 1434l-15 -508h-88l-12 508h115z" />
    <glyph glyph-name="numbersign" unicode="#" horiz-adv-x="1335" 
d="M1008 1434h110l-278 -1434h-111zM498 1434h112l-278 -1434h-111zM90 522h1092v-98h-1092v98zM154 1004h1091v-99h-1091v99z" />
    <glyph glyph-name="dollar" unicode="$" horiz-adv-x="1196" 
d="M553 1636v-1837h102v1837h-102zM1108 393q0 48 -11 89.5t-28 74t-46.5 60.5t-57.5 48.5t-70.5 39t-75 30t-82 23.5t-81 19t-81.5 16q-149 27 -211 54q-145 65 -145 216q0 53 21.5 103t64.5 93t119 69t174 26q100 0 177 -26t120 -69.5t64.5 -93t21.5 -102.5v-21h115v21
q0 72 -28 139.5t-85 126t-156.5 94t-228.5 35.5q-128 0 -226.5 -35.5t-155 -94t-84.5 -126t-28 -139.5q0 -59 14.5 -108.5t40.5 -84t59.5 -62t75 -46t83 -31.5t87 -23t83.5 -17l18 -3q50 -9 83 -16t82.5 -21t82 -28t70 -37t59 -49.5t36.5 -63.5t15 -80q0 -60 -22.5 -113.5
t-68 -99.5t-125.5 -73t-185 -27q-104 0 -185 29.5t-127 79t-69 105.5t-23 116h-114q0 -63 17.5 -123t57.5 -117t98.5 -100t147.5 -69t197 -26q109 0 197.5 24.5t146.5 65t98 95t57 113t17 120.5z" />
    <glyph glyph-name="percent" unicode="%" horiz-adv-x="1730" 
d="M389 0h-129l1081 1434h127zM422 862q60 0 105.5 22.5t71.5 60t39 80.5t13 89q0 45 -13 88t-39 80t-72 59.5t-105 22.5q-60 0 -106.5 -22.5t-73 -59.5t-39.5 -80t-13 -88q0 -46 13 -89t39.5 -80.5t73 -60t106.5 -22.5zM422 1458q69 0 125.5 -20.5t93.5 -54.5t62 -79
t36 -92.5t11 -97.5t-11 -97.5t-36 -92.5t-62 -79t-93.5 -54.5t-125.5 -20.5q-86 0 -152 30.5t-103.5 82t-56 110t-18.5 121.5t18.5 121.5t56 110t103.5 82t152 30.5zM1309 72q60 0 106.5 22t72.5 58.5t39 79t13 87.5q0 46 -13 88.5t-39 80t-72.5 59.5t-106.5 22
q-59 0 -105 -22.5t-72 -59t-39.5 -79.5t-13.5 -89q0 -45 13.5 -87.5t39.5 -79t72 -58.5t105 -22zM1309 664q86 0 152 -31t103 -82t55.5 -110t18.5 -122t-18.5 -121t-55.5 -109.5t-103 -82.5t-152 -31q-85 0 -151 31t-103 82.5t-55.5 110t-18.5 120.5q0 63 18.5 122t55.5 110
t103 82t151 31z" />
    <glyph glyph-name="ampersand" unicode="&#x26;" horiz-adv-x="1390" 
d="M754 211l125 197l-205 235q-72 86 -172 86q-44 0 -86 -11t-81.5 -36.5t-69.5 -62.5t-48 -93.5t-18 -124.5q0 -86 27.5 -151.5t72.5 -102.5t96.5 -55t106.5 -18q72 0 141.5 37.5t110.5 99.5zM1358 717q-155 0 -228 -113l-120 -188l358 -416h-135l-285 330l-119 -183
q-46 -70 -129 -121t-204 -51q-61 0 -118.5 14t-111.5 46.5t-94 80t-64 119t-24 158.5q0 101 34.5 182t90 128t120.5 71.5t132 24.5q19 0 36 -4t33.5 -10.5t24.5 -8.5l18 17q-89 61 -157 141q-2 2 -20.5 23.5t-23 26.5t-20.5 25t-21 30t-16 30t-14.5 35.5t-7.5 36t-4 41.5
q0 132 94 204t229 72q64 0 122 -17.5t104.5 -50.5t74 -87t27.5 -121h-115q0 89 -63 133.5t-150 44.5q-85 0 -147 -45t-62 -133q0 -70 78 -160l459 -526l113 172q47 68 128.5 106.5t176.5 38.5v-96z" />
    <glyph glyph-name="quotesingle" unicode="'" horiz-adv-x="364" 
d="M240 1434l-13 -508h-88l-14 508h115z" />
    <glyph glyph-name="parenleft" unicode="(" horiz-adv-x="512" 
d="M512 -426q-142 186 -212.5 431t-70.5 499q0 256 70 500.5t213 429.5h-121q-137 -191 -206.5 -435.5t-69.5 -494.5t69.5 -494.5t206.5 -435.5h121z" />
    <glyph glyph-name="parenright" unicode=")" horiz-adv-x="512" 
d="M0 -426q142 186 212.5 431t70.5 499q0 256 -70 500.5t-213 429.5h121q137 -191 206.5 -435.5t69.5 -494.5t-69.5 -494.5t-206.5 -435.5h-121z" />
    <glyph glyph-name="asterisk" unicode="*" horiz-adv-x="765" 
d="M424 1434v-260l258 96l27 -76l-265 -100l160 -260l-72 -43l-149 243l-150 -243l-69 43l160 260l-267 100l29 76l256 -96v260h82z" />
    <glyph glyph-name="plus" unicode="+" horiz-adv-x="1116" 
d="M608 1100v-365h363v-96h-363v-365h-102v365h-361v96h361v365h102z" />
    <glyph glyph-name="comma" unicode="," horiz-adv-x="440" 
d="M281 51q0 32 -23.5 55t-54.5 23q-32 0 -56 -23t-24 -55q0 -31 24 -53.5t56 -22.5q31 0 54.5 22.5t23.5 53.5zM229 -20q22 -30 0 -73.5t-71 -53.5v-52q98 15 141 102q36 74 11 146q-24 70 -92 79q-7 1 -15 1z" />
    <glyph glyph-name="hyphen" unicode="-" horiz-adv-x="962" 
d="M139 588h684v-99h-684v99z" />
    <glyph glyph-name="period" unicode="." horiz-adv-x="403" 
d="M203 -25q-32 0 -56 22.5t-24 53.5q0 32 24 55t56 23q31 0 54.5 -23t23.5 -55q0 -31 -23.5 -53.5t-54.5 -22.5z" />
    <glyph glyph-name="slash" unicode="/" horiz-adv-x="800" 
d="M801 1434l-692 -1805h-109l692 1805h109z" />
    <glyph glyph-name="zero" unicode="0" horiz-adv-x="1384" 
d="M692 80q100 0 181 38t134.5 101t90 146.5t52 171.5t15.5 180t-15.5 180t-52 171.5t-90 146.5t-134.5 101t-181 38t-181 -38t-134.5 -101t-90 -146.5t-52 -171.5t-15.5 -180t15.5 -180t52 -171.5t90 -146.5t134.5 -101t181 -38zM692 1458q124 0 225 -44.5t167.5 -117.5
t111.5 -170.5t64.5 -199.5t19.5 -209t-19.5 -209t-64.5 -199.5t-111.5 -171t-167.5 -118t-225 -44.5t-225 44.5t-167.5 118t-111.5 171t-64.5 199.5t-19.5 209t19.5 209t64.5 199.5t111.5 170.5t167.5 117.5t225 44.5z" />
    <glyph glyph-name="one" unicode="1" horiz-adv-x="651" 
d="M385 1434q0 -61 -11 -118.5t-37 -112.5t-63.5 -97t-94 -71t-126.5 -36v-106q120 10 203.5 79t126.5 171h25q-23 -117 -23 -236v-907h115v1434h-115z" />
    <glyph glyph-name="two" unicode="2" horiz-adv-x="1146" 
d="M498 104q-55 0 -115.5 -6t-93.5 -12l-33 -6v24q539 482 633 566q69 62 113.5 156.5t44.5 189.5q0 81 -27.5 156.5t-82 141t-150 105t-218.5 39.5q-100 0 -181.5 -26.5t-136 -70t-91.5 -101.5t-53.5 -119t-16.5 -125q0 -31 2 -47h115q-2 16 -2 47q0 62 20.5 120t62 108
t114 80t167.5 30q94 0 166.5 -30t114 -80t62 -108t20.5 -120q0 -73 -44.5 -156.5t-121.5 -152.5l-676 -605v-102h965v104h-557z" />
    <glyph glyph-name="three" unicode="3" horiz-adv-x="1142" 
d="M1053 420q0 97 -34 175.5t-89.5 128t-118 78.5t-127.5 38q-41 5 -78 1.5t-62.5 -8.5t-25.5 -8v29l500 475v105h-875v-105h717l-485 -463v-94h188q70 0 135 -20t119.5 -60t87.5 -109t33 -157q0 -89 -32.5 -158t-87 -108.5t-119.5 -59.5t-138 -20q-71 0 -136.5 19.5
t-119.5 58.5t-86.5 104.5t-32.5 149.5v18h-114v-18q0 -106 40.5 -191t110 -138t156.5 -80.5t184 -27.5t183.5 28t155.5 81t110 140t41 196z" />
    <glyph glyph-name="four" unicode="4" horiz-adv-x="1261" 
d="M893 1329h-21l-696 -930h483q54 0 112.5 -6t90.5 -12l31 -6v954zM1178 399v-98h-170v-301h-115v301h-817v145l739 988h193v-1035h170z" />
    <glyph glyph-name="five" unicode="5" horiz-adv-x="1222" 
d="M1143 498q0 76 -17.5 149.5t-57 143t-97 121t-145 82.5t-193.5 30q-228 -3 -350 -160h-23q39 115 53 219l31 246h686v105h-784l-88 -658h129q110 156 329 156q107 0 189.5 -38.5t129.5 -102.5t70 -136.5t23 -150.5q0 -62 -14 -120.5t-45.5 -114.5t-78 -97.5t-117 -66.5
t-157.5 -25q-78 0 -143.5 21t-111 55.5t-78.5 82t-50.5 98t-23.5 105.5h-115q6 -70 27 -135.5t63.5 -126.5t100.5 -106t143.5 -72t187.5 -27q110 0 200.5 31.5t150 83t100 120t58.5 141t18 147.5z" />
    <glyph glyph-name="six" unicode="6" horiz-adv-x="1290" 
d="M664 80q89 0 161.5 25t120 66.5t79.5 96.5t46 112.5t14 117.5q0 61 -14 119t-46 113t-79.5 96.5t-120 66.5t-161.5 25q-109 0 -193.5 -37.5t-132.5 -100t-72 -134t-24 -148.5q0 -60 14 -117.5t47 -112.5t80.5 -96.5t120 -66.5t160.5 -25zM688 1022q225 0 368.5 -143
t143.5 -381q0 -235 -146 -379t-370 -144q-93 0 -175 20.5t-161 72.5t-135 134t-90.5 213.5t-34.5 301.5q0 107 18.5 209t60.5 199.5t104 170.5t156.5 117.5t209.5 44.5q97 0 180.5 -31t144 -86.5t103 -124t68.5 -149.5h-113q-48 131 -145 209t-244 78q-149 0 -257.5 -97
t-159.5 -276.5t-34 -413.5h25q1 128 66 232.5t175 163.5t242 59z" />
    <glyph glyph-name="seven" unicode="7" horiz-adv-x="1032" 
d="M27 1434v-105h569q53 0 113.5 6.5t94.5 12.5l34 6v-25q-160 -120 -276.5 -340t-172 -473.5t-55.5 -515.5h115q0 146 17.5 293.5t59.5 305.5t104.5 294t159.5 255t218 191v95h-981z" />
    <glyph glyph-name="eight" unicode="8" horiz-adv-x="1234" 
d="M616 80q59 0 116 11.5t112 37.5t96.5 64.5t66.5 97.5t25 131t-25 130.5t-66.5 97t-96 65t-112 38t-116.5 11.5t-115.5 -11.5t-111 -38t-95.5 -65t-66 -97t-25 -130.5t25 -131t66 -97.5t95.5 -64.5t111 -37.5t115.5 -11.5zM264 1108q0 -65 31.5 -114t83.5 -77t112 -41.5
t125 -13.5t125.5 13.5t113 41.5t84.5 77t32 114q0 64 -32 113t-84.5 77t-113 42t-125.5 14t-125 -14t-112 -42t-83.5 -77t-31.5 -113zM805 799q69 -17 129 -49.5t108.5 -81t76.5 -118t28 -151.5q0 -104 -44 -186.5t-119 -133.5t-169 -77.5t-199 -26.5q-104 0 -197.5 26.5
t-168 77.5t-118.5 133.5t-44 186.5q0 82 27.5 151.5t76 118t108 81t128.5 49.5v24q-121 32 -199.5 109.5t-78.5 195.5q0 106 67 182.5t170.5 112t228.5 35.5q93 0 176 -21t148.5 -61t104 -104t38.5 -144q0 -118 -78.5 -195.5t-199.5 -109.5v-24z" />
    <glyph glyph-name="nine" unicode="9" horiz-adv-x="1290" 
d="M627 1354q-88 0 -160.5 -25t-120 -66.5t-80.5 -96.5t-47 -112.5t-14 -117.5q0 -77 24 -148.5t72 -134t132.5 -100t193.5 -37.5t193.5 37.5t132.5 100t72 134t24 148.5q0 60 -14 117.5t-47 112.5t-80.5 96.5t-120 66.5t-160.5 25zM604 412q-225 0 -369.5 143t-144.5 381
q0 235 146 378.5t370 143.5q94 0 176 -20t161 -72.5t135 -134t90 -213t34 -301.5q0 -107 -18.5 -209t-60.5 -199.5t-104 -171t-156.5 -118t-209.5 -44.5q-97 0 -180 31.5t-143 87t-102.5 124t-69.5 149.5h114q46 -130 143.5 -208.5t243.5 -78.5q228 0 353.5 216t97.5 570
h-25q-1 -128 -65.5 -232.5t-174 -163t-241.5 -58.5z" />
    <glyph glyph-name="colon" unicode=":" horiz-adv-x="444" 
d="M223 -25q-32 0 -56 22.5t-24 53.5q0 32 24 55t56 23q31 0 54.5 -23t23.5 -55q0 -31 -23.5 -53.5t-54.5 -22.5zM223 870q-32 0 -56 22.5t-24 53.5q0 32 24 55t56 23q31 0 54.5 -23t23.5 -55q0 -31 -23.5 -53.5t-54.5 -22.5z" />
    <glyph glyph-name="semicolon" unicode=";" horiz-adv-x="481" 
d="M223 870q-32 0 -56 22.5t-24 53.5q0 32 24 55t56 23q31 0 54.5 -23t23.5 -55q0 -31 -23.5 -53.5t-54.5 -22.5zM301 49q0 32 -23.5 55t-54.5 23q-32 0 -56 -23t-24 -55q0 -31 24 -53.5t56 -22.5q31 0 54.5 22.5t23.5 53.5zM250 -23q21 -32 -1 -74.5t-71 -52.5v-51
q98 15 141 102q36 74 11 146q-24 70 -92 79q-7 1 -15 1z" />
    <glyph glyph-name="less" unicode="&#x3c;" horiz-adv-x="1116" 
d="M971 365v-111l-826 326v147l826 324v-109q-607 -242 -617 -246q-28 -11 -56.5 -19.5t-43.5 -11.5l-14 -3v-19q51 -8 114 -35z" />
    <glyph glyph-name="equal" unicode="=" horiz-adv-x="1116" 
d="M145 543h826v-99h-826v99zM145 926h826v-99h-826v99z" />
    <glyph glyph-name="greater" unicode="&#x3e;" horiz-adv-x="1116" 
d="M145 365q605 239 617 243q28 12 57 21t43 11l15 3v19q-52 9 -115 34l-617 246v109l826 -324v-147l-826 -326v111z" />
    <glyph glyph-name="question" unicode="?" horiz-adv-x="1036" 
d="M975 1077q0 94 -37.5 168t-102 119.5t-145.5 69.5t-172 24t-172 -24t-145.5 -69.5t-102 -119.5t-37.5 -168q0 -7 5 -47h114q-4 28 -4 39q0 74 29 130.5t78 89.5t108.5 49t126.5 16q66 0 125 -16t108.5 -49t79 -89.5t29.5 -130.5q0 -65 -25 -117.5t-64.5 -89.5
t-87.5 -71.5t-96 -75t-87.5 -89t-64.5 -124t-25 -170.5h299v98h-15q-52 0 -97.5 -5.5t-64.5 -10.5l-20 -6q0 59 25 109t66 88t90.5 74t99 75t90.5 82.5t66.5 105.5t25.5 135zM553 -25q-34 0 -58 22.5t-24 53.5q0 32 24 55t58 23q30 0 53 -23t23 -55q0 -30 -23 -53t-53 -23z
" />
    <glyph glyph-name="at" unicode="@" horiz-adv-x="1945" 
d="M915 195q95 0 168.5 40t115.5 106t62.5 141.5t20.5 156.5t-20.5 156.5t-62.5 141.5t-115.5 106t-168.5 40t-168.5 -40t-115 -106t-62 -141.5t-20.5 -156.5t20.5 -156.5t62 -141.5t115 -106t168.5 -40zM973 1458q180 0 344.5 -70.5t283 -189t189 -283t70.5 -344.5
q0 -86 -16.5 -154t-44 -111.5t-66 -72t-78.5 -40t-84 -11.5q-92 0 -168 64t-76 172h-24q-45 -136 -145 -219.5t-257 -83.5q-92 0 -167.5 31.5t-125 83t-83 120.5t-48 141.5t-14.5 147.5q0 76 14.5 148.5t48 142t83 121t125 83t167.5 31.5q157 0 257 -84t145 -219h24
q-20 119 -20 234v45h86v-668q0 -98 49.5 -154.5t122.5 -56.5q98 0 153.5 70t55.5 239q0 218 -107.5 403.5t-292 293.5t-401.5 108t-401.5 -108t-292 -293.5t-107.5 -403.5q0 -164 63.5 -313t171 -256.5t255.5 -171t311 -63.5q238 0 426 122h135q-252 -204 -561 -204
q-180 0 -344.5 70t-283 189t-189 283t-70.5 344t70.5 344.5t189 283t283 189t344.5 70.5z" />
    <glyph glyph-name="A" unicode="A" horiz-adv-x="1245" 
d="M707 1434l518 -1434h-111l-139 387h-705l-139 -387h-111l519 1434h168zM305 485h633l-303 844h-25z" />
    <glyph glyph-name="B" unicode="B" horiz-adv-x="1263" 
d="M670 104q75 0 142.5 17t125 52t91.5 96t34 141t-34 141t-92 95.5t-125 51.5t-142 17h-394v-611h394zM670 819q62 0 117.5 14.5t102.5 44t75 80.5t28 117t-28 116.5t-75 79.5t-102.5 43.5t-117.5 14.5h-394v-510h394zM1178 387q0 -82 -31.5 -149t-83 -110.5t-119.5 -73
t-137.5 -42t-140.5 -12.5h-504v1434h502q81 0 156 -19.5t140 -58.5t104.5 -107.5t39.5 -156.5q0 -124 -80.5 -208t-187.5 -100v-24q142 -25 242 -124t100 -249z" />
    <glyph glyph-name="C" unicode="C" horiz-adv-x="1423" 
d="M1225 412q-27 -69 -68 -126t-99.5 -104.5t-140 -74.5t-178.5 -27q-112 0 -204 38.5t-152.5 101.5t-102 147.5t-59.5 173t-18 180.5q0 91 18 178t59.5 170.5t102 146t152.5 100.5t204 38q97 0 178.5 -27t140 -74.5t99.5 -104.5t68 -126h121q-22 66 -55 125t-85 117.5
t-116.5 100t-154.5 67.5t-194 26q-136 0 -248 -44.5t-186 -117.5t-124.5 -170t-72.5 -199t-22 -208t22 -209t72.5 -200.5t124.5 -171t186 -118.5t248 -45q104 0 194 26t154.5 68t116.5 101t85 117.5t55 124.5h-121z" />
    <glyph glyph-name="D" unicode="D" horiz-adv-x="1404" 
d="M666 104q110 0 201 35.5t152 94.5t103 139t61 166t19 178t-19 178t-61 165.5t-103 138.5t-152 94.5t-201 35.5h-390v-1225h390zM1317 717q0 -167 -48.5 -302.5t-134.5 -226t-205.5 -139.5t-260.5 -49h-506v1434h506q137 0 255.5 -48t206 -137t137.5 -226t50 -306z" />
    <glyph glyph-name="E" unicode="E" horiz-adv-x="1128" 
d="M1026 1434v-105h-750v-559h682v-100h-682v-566h750v-104h-864l2 1434h862z" />
    <glyph glyph-name="F" unicode="F" horiz-adv-x="1052" 
d="M999 1329h-723v-559h609v-100h-609v-670h-114v1434h837v-105z" />
    <glyph glyph-name="G" unicode="G" horiz-adv-x="1472" 
d="M1370 688q0 36 -23.5 61t-62.5 25h-555v-104h494q13 0 20.5 -8.5t7.5 -20.5q0 -79 -19 -156.5t-60.5 -150.5t-100 -129t-143.5 -90t-185 -35q-113 1 -206 39.5t-153.5 101.5t-102.5 147t-60 171t-18 178q0 92 18.5 180t60.5 171.5t104.5 146.5t157.5 101t212 38
q99 0 182.5 -27.5t143 -75.5t100.5 -105t67 -124h121q-22 65 -55 123t-86 117t-118 101t-157 68.5t-198 26.5q-141 0 -256 -44t-190 -117t-126.5 -170t-73.5 -199.5t-22 -210.5q0 -149 41 -281.5t117.5 -236t197.5 -164t271 -60.5q95 0 177.5 25t140.5 67.5t103.5 91
t74.5 103t45.5 96t23.5 76.5h25q-43 -168 -43 -278v-156h108v688z" />
    <glyph glyph-name="H" unicode="H" horiz-adv-x="1386" 
d="M1225 1434v-1434h-115v670h-834v-670h-114v1434h114v-660h834v660h115z" />
    <glyph glyph-name="I" unicode="I" horiz-adv-x="438" 
d="M162 1434h114v-1434h-114v1434z" />
    <glyph glyph-name="J" unicode="J" horiz-adv-x="753" 
d="M141 1434v-105h336v-860q0 -151 -105 -258t-253 -107h-82v-104h82q196 0 334.5 139.5t138.5 337.5v957h-451z" />
    <glyph glyph-name="K" unicode="K" horiz-adv-x="1191" 
d="M1155 1434l-711 -707v-25l707 -702h-160l-667 662h-48v-662h-114v1434h114v-668h48l671 668h160z" />
    <glyph glyph-name="L" unicode="L" horiz-adv-x="1015" 
d="M276 1434v-1330h699v-104h-813v1434h114z" />
    <glyph glyph-name="M" unicode="M" horiz-adv-x="1759" 
d="M1405 1434l-512 -1330h-25l-514 1330h-192v-1434h114v1096q0 52 -4.5 110.5t-9.5 90.5l-4 32h25l512 -1329h170l512 1329h24q-18 -116 -18 -233v-1096h114v1434h-192z" />
    <glyph glyph-name="N" unicode="N" horiz-adv-x="1449" 
d="M1174 346q0 -56 4 -116.5t8 -93.5l4 -32h-23l-825 1330h-180v-1434h114v1090q0 56 -4 115.5t-8 91.5l-4 32h21l827 -1329h180v1434h-114v-1088z" />
    <glyph glyph-name="O" unicode="O" horiz-adv-x="1452" 
d="M727 80q109 0 198.5 38t148.5 101t99.5 146.5t58 171t17.5 178.5q0 92 -17.5 180.5t-58 172.5t-99.5 147t-148.5 101t-198.5 38q-110 0 -199.5 -38t-149 -101t-100 -147t-58 -172.5t-17.5 -180.5q0 -91 17.5 -178.5t58 -171t99.5 -146.5t149 -101t200 -38zM727 1458
q133 0 242.5 -44.5t181.5 -117.5t121 -171t70.5 -200.5t21.5 -209.5q0 -106 -21.5 -208t-70.5 -199.5t-121 -170.5t-181.5 -117.5t-242.5 -44.5q-134 0 -243.5 44.5t-182 117.5t-121.5 170.5t-70.5 199.5t-21.5 208q0 107 21.5 209.5t70.5 200.5t121.5 171t182 117.5
t243.5 44.5z" />
    <glyph glyph-name="P" unicode="P" horiz-adv-x="1218" 
d="M725 770q61 0 118 17t105 50t76.5 89t28.5 127q0 57 -19 103.5t-51 78t-74.5 53t-88.5 31.5t-95 10h-449v-559h449zM733 1434q56 0 113 -11.5t115.5 -40t103.5 -71t73.5 -109.5t28.5 -149q0 -83 -29 -150.5t-74 -110t-104 -71.5t-115.5 -41t-111.5 -12h-457v-668h-114
v1434h571z" />
    <glyph glyph-name="Q" unicode="Q" horiz-adv-x="1433" 
d="M201 729q0 -90 17.5 -176.5t57.5 -169t98 -144.5t146.5 -99.5t196.5 -37.5q95 0 179 37.5t144 100t104 143.5t65.5 169.5t21.5 176.5q0 90 -17 176.5t-57 169t-97.5 144.5t-146 99.5t-196.5 37.5t-196.5 -37.5t-146.5 -99.5t-98 -144.5t-57.5 -169t-17.5 -176.5zM946 76
q125 28 246 28h151v-104h-626q-95 0 -178 22.5t-146 62.5t-114.5 95.5t-86.5 119.5t-58.5 136.5t-34.5 145.5t-11 147t11 147t34.5 145.5t58.5 136.5t86.5 119.5t114.5 95.5t146 62.5t178 22.5q131 0 238.5 -43.5t178 -115.5t119 -167.5t69.5 -196.5t21 -206
q0 -213 -103 -384.5t-294 -244.5v-24z" />
    <glyph glyph-name="R" unicode="R" horiz-adv-x="1296" 
d="M727 768q61 0 118 17t105 50t77.5 89t29.5 127q0 70 -29 125t-77.5 87.5t-105.5 49t-118 16.5h-451v-561h451zM956 735q82 0 141.5 -59t59.5 -141v-535h-108v537q0 53 -38.5 91t-90.5 38h-646v-666h-112v1434h573q210 0 323 -101.5t113 -259.5q0 -208 -215 -313v-25z" />
    <glyph glyph-name="S" unicode="S" horiz-adv-x="1196" 
d="M1106 393q0 48 -11 89.5t-28 74t-46.5 60.5t-57.5 48.5t-70.5 39t-75 30t-82 23.5t-81 19t-81.5 16q-149 27 -211 54q-145 65 -145 216q0 53 21.5 103t64.5 93t119 69t174 26q100 0 177 -26t120 -69.5t64.5 -93t21.5 -102.5v-21h115v21q0 72 -28 139.5t-85 126t-156.5 94
t-228.5 35.5q-128 0 -226.5 -35.5t-155 -94t-84.5 -126t-28 -139.5q0 -59 14.5 -108.5t40.5 -84t59.5 -62t75 -46t83 -31.5t87 -23t83.5 -17l18 -3q50 -9 83 -16t82.5 -21t82 -28t70 -37t59 -49.5t36.5 -63.5t15 -80q0 -60 -22.5 -113.5t-68 -99.5t-125.5 -73t-185 -27
q-104 0 -185 29.5t-127 79t-69 105.5t-23 116h-114q0 -63 17.5 -123t57.5 -117t98.5 -100t147.5 -69t197 -26q109 0 197.5 24.5t146.5 65t98 95t57 113t17 120.5z" />
    <glyph glyph-name="T" unicode="T" horiz-adv-x="1073" 
d="M1049 1434v-105h-455v-1329h-115v1329h-454v105h1024z" />
    <glyph glyph-name="U" unicode="U" horiz-adv-x="1366" 
d="M1102 580q0 -72 -14 -141t-46.5 -134.5t-79.5 -115t-119.5 -79.5t-160.5 -30t-159.5 30t-119 79.5t-79.5 115t-46 134.5t-14 141v854h-114v-854q0 -53 8 -108.5t26.5 -115.5t46.5 -114t71 -103.5t96.5 -85.5t126.5 -57t157 -21q117 0 211.5 39.5t153.5 102t98.5 144.5
t55.5 161t16 158v854h-115v-854z" />
    <glyph glyph-name="V" unicode="V" horiz-adv-x="1282" 
d="M1141 1434q-457 -1217 -463 -1237l-29 -93h-16q-9 40 -29 93l-463 1237h-121l531 -1434h180l531 1434h-121z" />
    <glyph glyph-name="W" unicode="W" horiz-adv-x="1978" 
d="M1833 1434q-348 -1215 -356 -1244l-19 -86h-18q-11 47 -21 86l-350 1244h-160l-350 -1241l-20 -89h-19q-10 52 -20 89l-355 1241h-114l399 -1434h182l351 1239q4 16 7.5 38.5t5.5 36.5l1 15h24q5 -53 15 -90l350 -1239h182l400 1434h-115z" />
    <glyph glyph-name="X" unicode="X" horiz-adv-x="1304" 
d="M1274 1434l-512 -711l520 -723h-139l-479 662h-23l-477 -662h-141l522 723l-512 711h141l479 -668l480 668h141z" />
    <glyph glyph-name="Y" unicode="Y" horiz-adv-x="1071" 
d="M592 877q-13 -22 -24 -46t-16 -37l-5 -14h-25q-16 48 -45 97l-334 557h-123l457 -768v-666h115v664l459 770h-123z" />
    <glyph glyph-name="Z" unicode="Z" horiz-adv-x="1191" 
d="M199 123q6 2 15.5 8t38.5 33.5t56 64.5l801 1092v113h-981v-105h870v-20q-6 -2 -15.5 -7t-38.5 -30.5t-56 -61.5l-805 -1097v-113h997v104h-882v19z" />
    <glyph glyph-name="bracketleft" unicode="[" horiz-adv-x="516" 
d="M225 1356q111 -21 228 -21h63v99h-405v-1860h405v98h-63q-52 0 -109 -4.5t-88 -9.5l-31 -4v1702z" />
    <glyph glyph-name="backslash" unicode="\" horiz-adv-x="800" 
d="M109 1434l692 -1805h-109l-692 1805h109z" />
    <glyph glyph-name="bracketright" unicode="]" horiz-adv-x="516" 
d="M291 -346q-111 18 -228 18h-63v-98h406v1860h-406v-99h63q52 0 109 5.5t88 10.5l31 5v-1702z" />
    <glyph glyph-name="asciicircum" unicode="^" horiz-adv-x="1019" 
d="M770 993q-213 527 -215 531q-12 29 -20.5 58.5t-11.5 44.5l-3 15h-20q-8 -52 -37 -118l-213 -531h-111l301 744h138l303 -744h-111z" />
    <glyph glyph-name="underscore" unicode="_" horiz-adv-x="1243" 
d="M139 -25h965v-98h-965v98z" />
    <glyph glyph-name="grave" unicode="`" horiz-adv-x="403" 
d="M86 1786h109l118 -242h-104z" />
    <glyph glyph-name="a" unicode="a" horiz-adv-x="1091" 
d="M827 606q-58 -53 -424 -117q-84 -13 -144 -66.5t-60 -141.5q0 -79 53 -136.5t127 -68.5q65 -12 129 -2t135 53q73 42 116.5 109.5t57.5 146.5q10 72 10 117v106zM1051 102v-102h-90q-47 0 -81 31.5t-34 79.5q0 38 6 81.5t12 67.5l6 25h-24q-2 -7 -6.5 -18t-20.5 -43.5
t-35 -61t-50.5 -62t-65.5 -55.5q-135 -86 -320 -65q-105 11 -182.5 92t-77.5 196q0 64 20 114.5t55.5 83.5t75.5 53t87 32q67 16 187.5 33t162.5 28q70 15 107 39.5t28 73.5q-15 81 -94.5 141t-198.5 60q-132 0 -220.5 -78.5t-88.5 -192.5h-113q0 152 119 260.5t305 108.5
q187 0 304.5 -112t117.5 -283v-492q0 -14 10 -24.5t27 -10.5h72z" />
    <glyph glyph-name="b" unicode="b" 
d="M594 80q112 0 192 59t117 152t37 209t-37 209t-117 152t-192 59q-165 0 -255.5 -120.5t-90.5 -299.5q0 -116 37 -209t117 -152t192 -59zM623 1024q108 0 193 -44.5t136 -119t77 -166.5t26 -194t-25.5 -194t-76 -167t-135 -119.5t-193.5 -44.5q-147 0 -240 73.5
t-139 193.5h-23q25 -102 25 -215v-27h-115v1434h115v-441q0 -57 -6 -116t-12 -89l-7 -30h23q45 119 139 192.5t238 73.5z" />
    <glyph glyph-name="c" unicode="c" horiz-adv-x="1040" 
d="M854 295q-39 -96 -116 -155.5t-195 -59.5q-92 0 -162 37.5t-109.5 99.5t-59 134t-19.5 151q0 75 19.5 146t59 133.5t109.5 100.5t162 38q118 0 195 -60t116 -158h119q-20 66 -55 121.5t-86.5 102t-125.5 72.5t-163 26q-98 0 -178.5 -31.5t-132.5 -83t-87.5 -120.5
t-51 -140.5t-15.5 -146.5q0 -76 15.5 -148.5t51 -142t87.5 -121.5t132.5 -83.5t178.5 -31.5q173 0 280.5 90t149.5 230h-119z" />
    <glyph glyph-name="d" unicode="d" horiz-adv-x="1126" 
d="M193 500q0 -86 21 -160.5t62 -133t108 -92.5t153 -34q84 0 150.5 34t107.5 92.5t62.5 133.5t21.5 160q0 86 -21.5 161t-63 133t-108 92t-149.5 34q-112 0 -191.5 -59t-116 -152t-36.5 -209zM78 500q0 81 15.5 156t49.5 142.5t83 117.5t121 79t159 29q144 0 236.5 -73.5
t136.5 -192.5h24q-24 106 -24 235v441h114v-1434h-114v27q0 50 6 104t12 83l6 28h-24q-44 -120 -136 -193.5t-239 -73.5q-109 0 -193 44.5t-133.5 120t-74.5 166.5t-25 194z" />
    <glyph glyph-name="e" unicode="e" horiz-adv-x="1087" 
d="M541 926q-84 0 -151 -32t-108.5 -86t-65 -117t-28.5 -132h707q-1 50 -15 100.5t-43 98.5t-69.5 85.5t-99 60t-127.5 22.5zM186 477q2 -73 22 -140t59 -128t109.5 -98t164.5 -37q259 0 336 262h112q-18 -74 -52.5 -137t-88 -114.5t-131.5 -80.5t-172 -29q-98 0 -178 31.5
t-133 83t-89 121t-51.5 142t-15.5 149.5q0 75 15.5 147t51.5 141t89 120.5t133 82.5t178 31q117 0 208.5 -44t147 -120t83.5 -173.5t26 -209.5h-824z" />
    <glyph glyph-name="f" unicode="f" horiz-adv-x="575" 
d="M156 1085q0 64 17 123.5t52 111.5t96 83t140 31h78v-105h-80q-64 0 -108.5 -35t-62.5 -83.5t-18 -104.5v-107h267v-104h-267v-895h-114v895h-127v104h127v86z" />
    <glyph glyph-name="g" unicode="g" horiz-adv-x="1124" 
d="M524 162q-84 0 -164.5 31t-143 86t-100.5 137t-38 176q0 193 121.5 312.5t318.5 119.5q136 0 235.5 -73t131.5 -183q6 -20 45 -76.5t39 -99.5q0 -194 -122.5 -312t-322.5 -118zM524 258q151 0 246.5 93t95.5 241t-95.5 241t-246.5 93q-152 0 -248 -93t-96 -241t96 -241
t248 -93zM545 -504q180 0 296.5 58.5t116.5 152.5q0 62 -57.5 110.5t-151 74.5t-204.5 26q-182 0 -298 -58.5t-116 -152.5t116 -152.5t298 -58.5zM258 -47h-31q-62 0 -107.5 33.5t-45.5 95.5q0 63 45 96t108 33h49v33l248 -41v-41h-256q-38 0 -66 -20t-28 -58t28 -57t66 -19
h277q228 0 375 -83.5t147 -217.5q0 -88 -67.5 -156.5t-186 -106.5t-266.5 -38q-231 0 -377.5 81t-146.5 210q0 53 25 96t65.5 70t75 42.5t69.5 24.5v23zM907 768q-22 107 -22 170q0 26 17.5 43.5t43.5 17.5h137v-104h-86q-28 0 -28 -27v-276l-70 8l-14 168h22z" />
    <glyph glyph-name="h" unicode="h" 
d="M1008 575q0 104 -28 191.5t-93 155.5t-160 92q-177 41 -310 -58t-173 -280h-23q29 124 29 233v525h-115v-1434h115v334q0 125 18 244q29 180 136 279.5t260 66.5q123 -25 176 -119t53 -250v-555h115v575z" />
    <glyph glyph-name="i" unicode="i" horiz-adv-x="393" 
d="M264 942q0 23 -18 40t-41 17h-168v-104h82q12 0 21.5 -9.5t9.5 -21.5v-864h114v942zM205 1307q-31 0 -52.5 20.5t-21.5 50.5q0 29 21.5 50.5t52.5 21.5q28 0 49.5 -21.5t21.5 -50.5q0 -30 -21.5 -50.5t-49.5 -20.5z" />
    <glyph glyph-name="j" unicode="j" horiz-adv-x="401" 
d="M272 936q0 26 -18.5 44.5t-44.5 18.5h-168v-104h86q12 0 21.5 -9.5t9.5 -21.5v-1138q0 -77 -56 -134t-131 -57h-77v-104h92q123 0 204.5 84.5t81.5 201.5v1219zM209 1307q-30 0 -52 20.5t-22 50.5q0 29 22.5 50.5t51.5 21.5q28 0 50 -21.5t22 -50.5q0 -30 -21.5 -50.5
t-50.5 -20.5z" />
    <glyph glyph-name="k" unicode="k" horiz-adv-x="940" 
d="M250 1434v-930h53l477 495h140l-512 -534v-23l464 -442h-149l-420 399h-53v-399h-115v1434h115z" />
    <glyph glyph-name="l" unicode="l" horiz-adv-x="385" 
d="M135 1434h115v-1434h-115v1434z" />
    <glyph glyph-name="m" unicode="m" horiz-adv-x="1886" 
d="M1761 606q0 138 -74.5 256t-207.5 150q-169 41 -301 -56.5t-187 -281.5h-24q3 22 -1.5 55.5t-20.5 77.5t-41.5 84t-71.5 73.5t-105 47.5q-169 40 -299.5 -57t-181.5 -281h-25q29 118 29 227v98h-115v-999h115v377q0 116 16 201q17 74 49 138.5t80 117.5t117 76.5t150 7.5
q231 -47 231 -332v-586h108v377q0 84 17 201q17 74 48.5 138.5t79 117.5t117 76.5t150.5 7.5q117 -23 175.5 -115.5t58.5 -216.5v-586h114v606z" />
    <glyph glyph-name="n" unicode="n" 
d="M1008 575q0 104 -28 191.5t-93 155.5t-160 92q-177 41 -310 -58t-173 -280h-23q29 118 29 227v96h-115v-999h115v334q0 125 18 244q29 180 136 279.5t260 66.5q123 -25 176 -119t53 -250v-555h115v575z" />
    <glyph glyph-name="o" unicode="o" horiz-adv-x="1064" 
d="M532 68q73 0 133.5 26t100 68t66.5 99t39 116.5t12 122.5t-12 122.5t-39 116.5t-66.5 99t-100 68t-133.5 26t-133.5 -26t-100 -68t-66.5 -99t-38.5 -116.5t-11.5 -122.5t11.5 -122.5t38.5 -116.5t66.5 -99t100 -68t133.5 -26zM532 1024q95 0 173.5 -31.5t129.5 -83
t86.5 -120.5t50.5 -141.5t15 -147.5t-15 -147.5t-50.5 -141.5t-86.5 -121t-129.5 -83.5t-173.5 -31.5q-96 0 -174.5 31.5t-129.5 83.5t-85.5 121t-49.5 141t-15 148t15 148t49.5 141t85.5 120.5t129.5 83t174.5 31.5z" />
    <glyph glyph-name="p" unicode="p" horiz-adv-x="1130" 
d="M938 500q0 115 -36 208t-116.5 152.5t-193.5 59.5q-84 0 -151 -34t-109 -92.5t-63.5 -133.5t-20.5 -160q1 -115 38 -208t116.5 -152.5t189.5 -59.5q84 0 151 34t109 92.5t64 133.5t22 160zM1053 500q0 -102 -26 -194t-76.5 -167t-135 -119.5t-192.5 -44.5
q-145 0 -239.5 74t-137.5 193h-23q25 -107 25 -236v-575h-115v1568h115v-24q0 -51 -6 -105.5t-12 -83.5l-7 -28h23q44 119 138 192.5t241 73.5q88 0 160 -29.5t121 -79t82.5 -117t49 -142.5t15.5 -156z" />
    <glyph glyph-name="q" unicode="q" horiz-adv-x="1128" 
d="M539 920q-113 0 -193.5 -59.5t-116.5 -152.5t-36 -208q0 -85 22 -160t64 -133.5t109 -92.5t151 -34q110 0 189.5 59.5t116 152.5t36.5 208q0 85 -21.5 160t-62.5 133.5t-107.5 92.5t-150.5 34zM508 -25q-108 0 -192.5 44.5t-135 119.5t-76.5 167t-26 194q0 81 15.5 156
t49 142.5t82.5 117t121 79t160 29.5q147 0 240 -73.5t135 -192.5h24q-24 102 -24 217v24h114v-1568h-114v575q0 57 6 116t12 90l6 30h-24q-44 -119 -136.5 -193t-236.5 -74z" />
    <glyph glyph-name="r" unicode="r" horiz-adv-x="690" 
d="M649 999q-153 -3 -250 -79.5t-137 -208.5h-22q22 149 22 227q0 28 -18 44.5t-47 16.5h-156v-104h92q25 0 25 -25v-870h114v483q0 62 12.5 120t41.5 111.5t71.5 93.5t107.5 63.5t144 23.5v104z" />
    <glyph glyph-name="s" unicode="s" horiz-adv-x="903" 
d="M821 289q0 76 -27 130t-71 81.5t-100.5 46.5t-115.5 25.5t-115.5 18t-100.5 25t-71 44.5t-27 79q0 64 39 108t94 61.5t120 17.5q64 0 119 -18t94 -62t39 -107v-16h109v16q0 91 -51 157t-132 97t-180 31q-155 0 -259.5 -74.5t-104.5 -210.5q0 -62 21.5 -106t57.5 -68.5
t83.5 -40t99.5 -23.5t103.5 -15.5t99 -19.5t83.5 -32t57.5 -57t21.5 -90q0 -56 -23.5 -98.5t-63.5 -66.5t-85.5 -36t-94.5 -12q-72 0 -131 19.5t-100.5 69t-42.5 122.5h-109q1 -99 55 -170.5t138.5 -105.5t187.5 -34q104 0 189.5 34t139.5 106.5t54 173.5z" />
    <glyph glyph-name="t" unicode="t" horiz-adv-x="579" 
d="M156 295q0 -123 83 -209t212 -86h88v104h-80q-78 0 -133.5 56t-55.5 135v600h269v104h-269v435h-114v-435h-127v-104h127v-600z" />
    <glyph glyph-name="u" unicode="u" 
d="M125 424q0 -104 28 -191.5t93 -155t160 -91.5q177 -41 310.5 58t174.5 280h22q-30 -119 -30 -228v-96h114v999h-114v-333q0 -131 -17 -244q-15 -87 -49.5 -158t-84 -118.5t-117.5 -66.5t-144 -3q-123 25 -177 119t-54 249v555h-115v-575z" />
    <glyph glyph-name="v" unicode="v" horiz-adv-x="968" 
d="M530 227q-12 -30 -20.5 -61t-11.5 -46l-2 -16h-23q-10 55 -37 123l-301 772h-117l385 -999h162l385 999h-116z" />
    <glyph glyph-name="w" unicode="w" horiz-adv-x="1609" 
d="M1210 219q-10 -34 -17 -62.5t-9 -40.5l-2 -12h-21q-6 39 -31 115l-245 780h-158q-238 -745 -246 -770q-12 -37 -20 -68.5t-10 -44.5l-2 -12h-21q-6 41 -33 125l-245 770h-121l319 -999h168l252 780q10 34 17 62.5t9 40.5l1 12h20q4 -39 29 -115l248 -780h170l319 999
h-121z" />
    <glyph glyph-name="x" unicode="x" horiz-adv-x="946" 
d="M922 999l-347 -491l353 -508h-129l-316 451h-20l-316 -451h-129l355 508l-346 491h129l317 -446l320 446h129z" />
    <glyph glyph-name="y" unicode="y" horiz-adv-x="978" 
d="M551 252q-17 -43 -30 -80t-17 -52l-4 -16h-21q-12 52 -51 148l-295 747h-115l390 -999h47l-121 -309q-66 -160 -223 -160h-74v-100h69q69 0 127.5 21t98 56.5t65 73t41.5 78.5l523 1339h-115z" />
    <glyph glyph-name="z" unicode="z" horiz-adv-x="911" 
d="M709 881q-36 -2 -111 -90l-526 -685v-106h741v98h-620v21q26 2 102 88l534 686v106h-725v-98h605v-20z" />
    <glyph glyph-name="braceleft" unicode="{" horiz-adv-x="661" 
d="M201 516q86 0 129 59t43 138v276q0 49 9.5 95.5t31.5 91.5t54.5 78.5t82.5 54t111 20.5v105q-84 0 -153.5 -28t-115 -74t-77 -107.5t-45 -126t-13.5 -131.5v-234q0 -77 -39.5 -132.5t-120.5 -55.5v-84q81 0 120.5 -55.5t39.5 -129.5v-233q0 -67 13.5 -132t45 -126.5
t77 -108t115 -74.5t153.5 -28v104q-61 0 -111 20.5t-82.5 54t-54.5 79t-31.5 92.5t-9.5 96v277q0 78 -43 136.5t-129 58.5v24z" />
    <glyph glyph-name="bar" unicode="|" horiz-adv-x="589" 
d="M244 1434h102v-1860h-102v1860z" />
    <glyph glyph-name="braceright" unicode="}" horiz-adv-x="661" 
d="M461 492q-86 0 -129 -59t-43 -138v-277q0 -49 -9.5 -95.5t-31.5 -91.5t-54.5 -78.5t-82.5 -54t-111 -20.5v-104q84 0 153 28t114.5 74t77 107.5t45 126t13.5 131.5v233q0 77 39.5 133t120.5 56v84q-81 0 -120.5 55t-39.5 129v234q0 67 -13.5 132t-45 126.5t-77 108
t-114.5 74.5t-153 28v-105q61 0 111 -20.5t82.5 -54t54.5 -79t31.5 -92.5t9.5 -96v-276q0 -78 43 -136.5t129 -58.5v-24z" />
    <glyph glyph-name="asciitilde" unicode="~" horiz-adv-x="1103" 
d="M856 852q0 -37 -0.5 -58t-3 -50.5t-9 -46.5t-16.5 -34t-26.5 -24.5t-38.5 -7.5q-32 0 -90.5 34.5t-114.5 76t-123 76t-112 34.5t-78 -17.5t-52 -45t-29.5 -72t-14 -88.5t-3.5 -105h103q0 37 0.5 58t3 50.5t8.5 46.5t16 34t26 24.5t38 7.5q32 0 91 -34.5t115.5 -76
t123 -76t110.5 -34.5q56 0 92.5 24.5t54.5 72.5t24.5 101.5t6.5 129.5h-102z" />
    <glyph glyph-name="sterling" unicode="&#xa3;" horiz-adv-x="1198" 
d="M1008 152q0 -22 -14 -35t-36 -13h-497q-52 0 -119.5 -6t-109.5 -12l-42 -6v24q84 54 136 128t69 147.5t13.5 150.5t-22.5 138.5t-48 109.5h553v80h-578q-14 40 -19 90t0.5 106t29 109t61.5 96t103 69t149 26q78 0 140.5 -24.5t102 -65.5t63 -87.5t32.5 -97.5h112
q-8 53 -27 103.5t-55.5 101.5t-85.5 89t-122 61.5t-160 23.5q-102 0 -184.5 -30t-133.5 -80.5t-85 -113.5t-46 -130.5t-9.5 -130.5t18.5 -115h-127v-80h153q50 -81 70.5 -173.5t8.5 -184.5t-71.5 -176.5t-162.5 -139.5v-104h917q57 3 91 38t34 89v127h-102v-102z" />
    <glyph glyph-name="yen" unicode="&#xa5;" horiz-adv-x="1112" 
d="M612 877q-13 -22 -24 -46t-16 -37l-5 -14h-24q-16 48 -45 97l-334 557h-123l457 -768v-666h114v664l459 770h-123zM174 696v-82h766v82h-766zM174 428v-80h766v80h-766z" />
    <glyph glyph-name="section" unicode="&#xa7;" horiz-adv-x="958" 
d="M479 532q72 0 134.5 18t108.5 63t46 110q0 50 -26 88t-69 59.5t-92 32t-102 10.5t-102 -10.5t-92 -32t-69 -59.5t-26 -88q0 -65 46 -110t108.5 -63t134.5 -18zM481 1012q180 0 290 -76t110 -201q0 -47 -22 -88t-54 -66.5t-69 -43.5t-65 -25.5t-44 -7.5v-25
q77 -3 140.5 -64.5t63.5 -162.5q0 -130 -102.5 -203.5t-249.5 -73.5t-249.5 73.5t-102.5 203.5v20h113v-20q0 -60 36.5 -102t88.5 -59t114 -17t114.5 17t89 59t36.5 102q0 90 -71 135t-169 45q-50 0 -102 8.5t-106.5 29t-96.5 51.5t-69 80.5t-27 111.5q0 59 32.5 107
t77.5 73t83.5 38t60.5 13v25q-74 3 -139.5 66t-65.5 155q0 127 102.5 197.5t251.5 70.5q96 0 175 -29t129.5 -91t50.5 -148v-25h-113v21q0 58 -37 99t-90 58t-115 17q-98 0 -169.5 -44t-71.5 -130t71.5 -130t169.5 -44z" />
    <glyph glyph-name="dieresis" unicode="&#xa8;" horiz-adv-x="694" 
d="M193 1642q-29 0 -51.5 21.5t-22.5 50.5q0 30 22 51t52 21q29 0 50 -21t21 -51q0 -29 -21 -50.5t-50 -21.5zM504 1642q-31 0 -53.5 21.5t-22.5 50.5q0 30 22.5 51t53.5 21q28 0 49.5 -21t21.5 -51q0 -29 -21.5 -50.5t-49.5 -21.5z" />
    <glyph glyph-name="copyright" unicode="&#xa9;" horiz-adv-x="1662" 
d="M559 719q0 62 16 119.5t48.5 108.5t89.5 81.5t131 30.5q92 0 154 -46t94 -120h102q-17 48 -44 89.5t-68 79.5t-102.5 60.5t-135.5 22.5q-79 0 -144 -25.5t-108 -67.5t-72 -98t-42 -115t-13 -120q0 -78 21.5 -151.5t64.5 -136.5t119 -101.5t174 -38.5q73 0 134 22
t102 59.5t68 79t44 89.5h-102q-32 -74 -93.5 -119t-152.5 -45q-74 0 -131 30.5t-89.5 81.5t-48.5 109.5t-16 120.5zM831 57q134 0 257 52t211.5 140.5t141 211t52.5 256.5t-52.5 256.5t-141 210.5t-211 140t-257.5 52q-180 0 -332 -88t-240.5 -240t-88.5 -331
q0 -134 52.5 -256.5t141 -211t211 -140.5t256.5 -52zM831 1458q153 0 291.5 -58.5t239 -157.5t160 -236.5t59.5 -288.5t-59.5 -288.5t-160 -237t-239 -158t-291.5 -58.5t-291.5 58.5t-238.5 158t-159.5 237t-59.5 288.5t59.5 288.5t159.5 236.5t238.5 157.5t291.5 58.5z" />
    <glyph glyph-name="guillemotleft" unicode="&#xab;" horiz-adv-x="1142" 
d="M651 0q-358 414 -362 416q-29 34 -56 52.5t-38 18.5v23q11 0 38 19.5t56 52.5l362 417h-135l-434 -499l434 -500h135zM1061 0q-361 414 -363 416q-30 34 -57.5 52.5t-38.5 18.5v23q10 0 36.5 19t59.5 53l363 417h-135l-434 -499l434 -500h135z" />
    <glyph glyph-name="registered" unicode="&#xae;" horiz-adv-x="954" 
d="M477 735q87 0 153.5 30t104.5 79.5t57 106.5t19 118t-19 118t-57 106.5t-104.5 79.5t-153.5 30t-153.5 -30t-104 -80t-56 -106.5t-18.5 -117.5t18.5 -117.5t56 -106.5t104 -80t153.5 -30zM477 1458q103 0 182 -35t124 -92.5t67 -124t22 -137.5t-22 -137.5t-67 -124
t-124 -92.5t-182 -35t-182 35t-124 92.5t-67 124t-22 137.5t22 137.5t67 124t124 92.5t182 35zM498 1114q29 0 51 16t22 46t-22 45.5t-51 15.5h-105v-123h105zM567 1081q29 0 44.5 -16t15.5 -43v-164h-62v170q0 14 -9.5 23.5t-23.5 9.5h-141v-203h-61v432h172q61 0 96 -29
t35 -77q0 -64 -66 -94v-9z" />
    <glyph glyph-name="plusminus" unicode="&#xb1;" horiz-adv-x="1112" 
d="M143 90h826v-90h-826v90zM606 1030v-328h363v-98h-363v-325h-102v325h-361v98h361v328h102z" />
    <glyph glyph-name="acute" unicode="&#xb4;" horiz-adv-x="403" 
d="M317 1786l-122 -242h-105l117 242h110z" />
    <glyph glyph-name="periodcentered" unicode="&#xb7;" horiz-adv-x="376" 
d="M190 428q-34 0 -59 23.5t-25 56.5t25 56.5t59 23.5q31 0 55.5 -23.5t24.5 -56.5t-24.5 -56.5t-55.5 -23.5z" />
    <glyph glyph-name="guillemotright" unicode="&#xbb;" horiz-adv-x="1142" 
d="M492 0h135l434 500l-434 499h-135q358 -413 362 -417q29 -33 56 -52.5t38 -19.5v-23q-11 0 -38 -18.5t-56 -52.5zM82 0h135l434 500l-434 499h-135q360 -413 362 -417q31 -33 58.5 -52.5t38.5 -19.5v-23q-11 0 -39 -18.5t-58 -52.5z" />
    <glyph glyph-name="Aacute" unicode="&#xc1;" horiz-adv-x="1245" 
d="M707 1434l518 -1434h-111l-139 387h-705l-139 -387h-111l519 1434h168zM305 485h633l-303 844h-25zM809 1786l-123 -242h-104l116 242h111z" />
    <glyph glyph-name="Acircumflex" unicode="&#xc2;" horiz-adv-x="1245" 
d="M707 1434l518 -1434h-111l-139 387h-705l-139 -387h-111l519 1434h168zM305 485h633l-303 844h-25zM696 1786l156 -227h-113l-106 155h-19l-106 -155h-113l156 227h145z" />
    <glyph glyph-name="Adieresis" unicode="&#xc4;" horiz-adv-x="1245" 
d="M707 1434l518 -1434h-111l-139 387h-705l-139 -387h-111l519 1434h168zM305 485h633l-303 844h-25zM467 1642q-29 0 -51.5 21.5t-22.5 50.5q0 30 22 51t52 21t51 -21t21 -51q0 -29 -21.5 -50.5t-50.5 -21.5zM778 1642q-31 0 -53.5 21.5t-22.5 50.5q0 30 22.5 51t53.5 21
q28 0 50 -21t22 -51q0 -29 -22 -50.5t-50 -21.5z" />
    <glyph glyph-name="Aring" unicode="&#xc5;" horiz-adv-x="1245" 
d="M707 1434l518 -1434h-111l-139 387h-705l-139 -387h-111l519 1434h168zM305 485h633l-303 844h-25zM625 1640q66 0 98.5 41.5t32.5 98.5q0 54 -32.5 94.5t-98.5 40.5q-65 0 -97 -40.5t-32 -94.5q0 -57 32 -98.5t97 -41.5zM625 1999q110 0 165.5 -66.5t55.5 -152.5
q0 -41 -12.5 -78.5t-37.5 -69.5t-69.5 -51.5t-101.5 -19.5t-100.5 19.5t-68.5 51.5t-37.5 69.5t-12.5 78.5q0 86 55 152.5t164 66.5z" />
    <glyph glyph-name="Eacute" unicode="&#xc9;" horiz-adv-x="1128" 
d="M1026 1434v-105h-750v-559h682v-100h-682v-566h750v-104h-864l2 1434h862zM752 1786l-123 -242h-105l117 242h111z" />
    <glyph glyph-name="Ecircumflex" unicode="&#xca;" horiz-adv-x="1128" 
d="M1026 1434v-105h-750v-559h682v-100h-682v-566h750v-104h-864l2 1434h862zM666 1786l155 -227h-112l-107 155h-18l-107 -155h-112l155 227h146z" />
    <glyph glyph-name="Edieresis" unicode="&#xcb;" horiz-adv-x="1128" 
d="M1026 1434v-105h-750v-559h682v-100h-682v-566h750v-104h-864l2 1434h862zM449 1642q-29 0 -51.5 21.5t-22.5 50.5q0 30 22 51t52 21q29 0 50 -21t21 -51q0 -29 -21 -50.5t-50 -21.5zM760 1642q-31 0 -53.5 21.5t-22.5 50.5q0 30 22.5 51t53.5 21q28 0 49.5 -21t21.5 -51
q0 -29 -21.5 -50.5t-49.5 -21.5z" />
    <glyph glyph-name="Igrave" unicode="&#xcc;" horiz-adv-x="438" 
d="M162 1434h114v-1434h-114v1434zM39 1786h108l119 -242h-104z" />
    <glyph glyph-name="Iacute" unicode="&#xcd;" horiz-adv-x="438" 
d="M162 1434h114v-1434h-114v1434zM399 1786l-123 -242h-104l117 242h110z" />
    <glyph glyph-name="Icircumflex" unicode="&#xce;" horiz-adv-x="438" 
d="M162 1434h114v-1434h-114v1434zM291 1786l155 -227h-112l-107 155h-18l-107 -155h-112l155 227h146z" />
    <glyph glyph-name="Idieresis" unicode="&#xcf;" horiz-adv-x="438" 
d="M162 1434h114v-1434h-114v1434zM63 1642q-29 0 -51 21.5t-22 50.5q0 30 21.5 51t51.5 21t51 -21t21 -51q0 -29 -21.5 -50.5t-50.5 -21.5zM375 1642q-31 0 -53.5 21.5t-22.5 50.5q0 30 22.5 51t53.5 21q28 0 49.5 -21t21.5 -51q0 -29 -21.5 -50.5t-49.5 -21.5z" />
    <glyph glyph-name="Oacute" unicode="&#xd3;" horiz-adv-x="1452" 
d="M727 80q109 0 198.5 38t148.5 101t99.5 146.5t58 171t17.5 178.5q0 92 -17.5 180.5t-58 172.5t-99.5 147t-148.5 101t-198.5 38q-110 0 -199.5 -38t-149 -101t-100 -147t-58 -172.5t-17.5 -180.5q0 -91 17.5 -178.5t58 -171t99.5 -146.5t149 -101t200 -38zM727 1458
q133 0 242.5 -44.5t181.5 -117.5t121 -171t70.5 -200.5t21.5 -209.5q0 -106 -21.5 -208t-70.5 -199.5t-121 -170.5t-181.5 -117.5t-242.5 -44.5q-134 0 -243.5 44.5t-182 117.5t-121.5 170.5t-70.5 199.5t-21.5 208q0 107 21.5 209.5t70.5 200.5t121.5 171t182 117.5
t243.5 44.5zM895 1786l-123 -242h-104l116 242h111z" />
    <glyph glyph-name="Ocircumflex" unicode="&#xd4;" horiz-adv-x="1452" 
d="M727 80q109 0 198.5 38t148.5 101t99.5 146.5t58 171t17.5 178.5q0 92 -17.5 180.5t-58 172.5t-99.5 147t-148.5 101t-198.5 38q-110 0 -199.5 -38t-149 -101t-100 -147t-58 -172.5t-17.5 -180.5q0 -91 17.5 -178.5t58 -171t99.5 -146.5t149 -101t200 -38zM727 1458
q133 0 242.5 -44.5t181.5 -117.5t121 -171t70.5 -200.5t21.5 -209.5q0 -106 -21.5 -208t-70.5 -199.5t-121 -170.5t-181.5 -117.5t-242.5 -44.5q-134 0 -243.5 44.5t-182 117.5t-121.5 170.5t-70.5 199.5t-21.5 208q0 107 21.5 209.5t70.5 200.5t121.5 171t182 117.5
t243.5 44.5zM801 1788l155 -227h-112l-107 155h-18l-107 -155h-112l155 227h146z" />
    <glyph glyph-name="Odieresis" unicode="&#xd6;" horiz-adv-x="1452" 
d="M727 80q109 0 198.5 38t148.5 101t99.5 146.5t58 171t17.5 178.5q0 92 -17.5 180.5t-58 172.5t-99.5 147t-148.5 101t-198.5 38q-110 0 -199.5 -38t-149 -101t-100 -147t-58 -172.5t-17.5 -180.5q0 -91 17.5 -178.5t58 -171t99.5 -146.5t149 -101t200 -38zM727 1458
q133 0 242.5 -44.5t181.5 -117.5t121 -171t70.5 -200.5t21.5 -209.5q0 -106 -21.5 -208t-70.5 -199.5t-121 -170.5t-181.5 -117.5t-242.5 -44.5q-134 0 -243.5 44.5t-182 117.5t-121.5 170.5t-70.5 199.5t-21.5 208q0 107 21.5 209.5t70.5 200.5t121.5 171t182 117.5
t243.5 44.5zM571 1642q-29 0 -51 21.5t-22 50.5q0 30 21.5 51t51.5 21t51 -21t21 -51q0 -29 -21.5 -50.5t-50.5 -21.5zM883 1642q-31 0 -53.5 21.5t-22.5 50.5q0 30 22.5 51t53.5 21q28 0 49.5 -21t21.5 -51q0 -29 -21.5 -50.5t-49.5 -21.5z" />
    <glyph glyph-name="multiply" unicode="&#xd7;" horiz-adv-x="1015" 
d="M836 942l-258 -258l256 -256l-68 -70l-256 256l-258 -256l-72 72l258 258l-256 254l68 70l256 -256l258 258z" />
    <glyph glyph-name="Oslash" unicode="&#xd8;" horiz-adv-x="1460" 
d="M731 80q109 0 198.5 38t148.5 101t99.5 146.5t58 171t17.5 178.5q0 92 -17.5 180.5t-58 172.5t-99.5 147t-148.5 101t-198.5 38q-110 0 -199.5 -38t-149 -101t-100 -147t-58 -172.5t-17.5 -180.5q0 -91 17.5 -178.5t58 -171t99.5 -146.5t149 -101t200 -38zM731 1458
q133 0 242.5 -44.5t181.5 -117.5t121 -171t70.5 -200.5t21.5 -209.5q0 -106 -21.5 -208t-70.5 -199.5t-121 -170.5t-181.5 -117.5t-242.5 -44.5q-134 0 -243.5 44.5t-182 117.5t-121.5 170.5t-70.5 199.5t-21.5 208q0 107 21.5 209.5t70.5 200.5t121.5 171t182 117.5
t243.5 44.5zM1339 1438l-1087 -1442h-131l1089 1442h129z" />
    <glyph glyph-name="Uacute" unicode="&#xda;" horiz-adv-x="1366" 
d="M1102 580q0 -72 -14 -141t-46.5 -134.5t-79.5 -115t-119.5 -79.5t-160.5 -30t-159.5 30t-119 79.5t-79.5 115t-46 134.5t-14 141v854h-114v-854q0 -53 8 -108.5t26.5 -115.5t46.5 -114t71 -103.5t96.5 -85.5t126.5 -57t157 -21q117 0 211.5 39.5t153.5 102t98.5 144.5
t55.5 161t16 158v854h-115v-854zM840 1786l-123 -242h-105l117 242h111z" />
    <glyph glyph-name="Udieresis" unicode="&#xdc;" horiz-adv-x="1366" 
d="M1102 580q0 -72 -14 -141t-46.5 -134.5t-79.5 -115t-119.5 -79.5t-160.5 -30t-159.5 30t-119 79.5t-79.5 115t-46 134.5t-14 141v854h-114v-854q0 -53 8 -108.5t26.5 -115.5t46.5 -114t71 -103.5t96.5 -85.5t126.5 -57t157 -21q117 0 211.5 39.5t153.5 102t98.5 144.5
t55.5 161t16 158v854h-115v-854zM549 1642q-29 0 -51.5 21.5t-22.5 50.5q0 30 22 51t52 21t51 -21t21 -51q0 -29 -21.5 -50.5t-50.5 -21.5zM860 1642q-31 0 -53.5 21.5t-22.5 50.5q0 30 22.5 51t53.5 21q28 0 50 -21t22 -51q0 -29 -22 -50.5t-50 -21.5z" />
    <glyph glyph-name="Yacute" unicode="&#xdd;" horiz-adv-x="1071" 
d="M592 877q-13 -22 -24 -46t-16 -37l-5 -14h-25q-16 48 -45 97l-334 557h-123l457 -768v-666h115v664l459 770h-123zM733 1786l-123 -242h-104l117 242h110z" />
    <glyph glyph-name="aacute" unicode="&#xe1;" horiz-adv-x="1091" 
d="M827 606q-58 -53 -424 -117q-84 -13 -144 -66.5t-60 -141.5q0 -79 53 -136.5t127 -68.5q65 -12 129 -2t135 53q73 42 116.5 109.5t57.5 146.5q10 72 10 117v106zM1051 102v-102h-90q-47 0 -81 31.5t-34 79.5q0 38 6 81.5t12 67.5l6 25h-24q-2 -7 -6.5 -18t-20.5 -43.5
t-35 -61t-50.5 -62t-65.5 -55.5q-135 -86 -320 -65q-105 11 -182.5 92t-77.5 196q0 64 20 114.5t55.5 83.5t75.5 53t87 32q67 16 187.5 33t162.5 28q70 15 107 39.5t28 73.5q-15 81 -94.5 141t-198.5 60q-132 0 -220.5 -78.5t-88.5 -192.5h-113q0 152 119 260.5t305 108.5
q187 0 304.5 -112t117.5 -283v-492q0 -14 10 -24.5t27 -10.5h72zM715 1448l-123 -242h-105l117 242h111z" />
    <glyph glyph-name="acircumflex" unicode="&#xe2;" horiz-adv-x="1091" 
d="M827 606q-58 -53 -424 -117q-84 -13 -144 -66.5t-60 -141.5q0 -79 53 -136.5t127 -68.5q65 -12 129 -2t135 53q73 42 116.5 109.5t57.5 146.5q10 72 10 117v106zM1051 102v-102h-90q-47 0 -81 31.5t-34 79.5q0 38 6 81.5t12 67.5l6 25h-24q-2 -7 -6.5 -18t-20.5 -43.5
t-35 -61t-50.5 -62t-65.5 -55.5q-135 -86 -320 -65q-105 11 -182.5 92t-77.5 196q0 64 20 114.5t55.5 83.5t75.5 53t87 32q67 16 187.5 33t162.5 28q70 15 107 39.5t28 73.5q-15 81 -94.5 141t-198.5 60q-132 0 -220.5 -78.5t-88.5 -192.5h-113q0 152 119 260.5t305 108.5
q187 0 304.5 -112t117.5 -283v-492q0 -14 10 -24.5t27 -10.5h72zM606 1448l156 -227h-113l-106 155h-19l-106 -155h-113l156 227h145z" />
    <glyph glyph-name="adieresis" unicode="&#xe4;" horiz-adv-x="1091" 
d="M827 606q-58 -53 -424 -117q-84 -13 -144 -66.5t-60 -141.5q0 -79 53 -136.5t127 -68.5q65 -12 129 -2t135 53q73 42 116.5 109.5t57.5 146.5q10 72 10 117v106zM1051 102v-102h-90q-47 0 -81 31.5t-34 79.5q0 38 6 81.5t12 67.5l6 25h-24q-2 -7 -6.5 -18t-20.5 -43.5
t-35 -61t-50.5 -62t-65.5 -55.5q-135 -86 -320 -65q-105 11 -182.5 92t-77.5 196q0 64 20 114.5t55.5 83.5t75.5 53t87 32q67 16 187.5 33t162.5 28q70 15 107 39.5t28 73.5q-15 81 -94.5 141t-198.5 60q-132 0 -220.5 -78.5t-88.5 -192.5h-113q0 152 119 260.5t305 108.5
q187 0 304.5 -112t117.5 -283v-492q0 -14 10 -24.5t27 -10.5h72zM387 1305q-30 0 -52 21t-22 50q0 30 22 51t52 21t51 -21t21 -51q0 -29 -21.5 -50t-50.5 -21zM698 1305q-31 0 -53 21t-22 50q0 30 22 51t53 21q28 0 50 -21t22 -51q0 -29 -22 -50t-50 -21z" />
    <glyph glyph-name="aring" unicode="&#xe5;" horiz-adv-x="1091" 
d="M827 606q-58 -53 -424 -117q-84 -13 -144 -66.5t-60 -141.5q0 -79 53 -136.5t127 -68.5q65 -12 129 -2t135 53q73 42 116.5 109.5t57.5 146.5q10 72 10 117v106zM1051 102v-102h-90q-47 0 -81 31.5t-34 79.5q0 38 6 81.5t12 67.5l6 25h-24q-2 -7 -6.5 -18t-20.5 -43.5
t-35 -61t-50.5 -62t-65.5 -55.5q-135 -86 -320 -65q-105 11 -182.5 92t-77.5 196q0 64 20 114.5t55.5 83.5t75.5 53t87 32q67 16 187.5 33t162.5 28q70 15 107 39.5t28 73.5q-15 81 -94.5 141t-198.5 60q-132 0 -220.5 -78.5t-88.5 -192.5h-113q0 152 119 260.5t305 108.5
q187 0 304.5 -112t117.5 -283v-492q0 -14 10 -24.5t27 -10.5h72zM512 1311q66 0 98.5 41t32.5 98q0 54 -32.5 94.5t-98.5 40.5q-65 0 -97 -40.5t-32 -94.5q0 -56 32 -97.5t97 -41.5zM512 1669q110 0 165.5 -66.5t55.5 -152.5q0 -41 -12.5 -78.5t-37.5 -69.5t-69.5 -51.5
t-101.5 -19.5t-100.5 19.5t-68.5 51.5t-37.5 69.5t-12.5 78.5q0 86 55 152.5t164 66.5z" />
    <glyph glyph-name="eacute" unicode="&#xe9;" horiz-adv-x="1087" 
d="M541 926q-84 0 -151 -32t-108.5 -86t-65 -117t-28.5 -132h707q-1 50 -15 100.5t-43 98.5t-69.5 85.5t-99 60t-127.5 22.5zM186 477q2 -73 22 -140t59 -128t109.5 -98t164.5 -37q259 0 336 262h112q-18 -74 -52.5 -137t-88 -114.5t-131.5 -80.5t-172 -29q-98 0 -178 31.5
t-133 83t-89 121t-51.5 142t-15.5 149.5q0 75 15.5 147t51.5 141t89 120.5t133 82.5t178 31q117 0 208.5 -44t147 -120t83.5 -173.5t26 -209.5h-824zM713 1450l-123 -242h-105l117 242h111z" />
    <glyph glyph-name="ecircumflex" unicode="&#xea;" horiz-adv-x="1087" 
d="M541 926q-84 0 -151 -32t-108.5 -86t-65 -117t-28.5 -132h707q-1 50 -15 100.5t-43 98.5t-69.5 85.5t-99 60t-127.5 22.5zM186 477q2 -73 22 -140t59 -128t109.5 -98t164.5 -37q259 0 336 262h112q-18 -74 -52.5 -137t-88 -114.5t-131.5 -80.5t-172 -29q-98 0 -178 31.5
t-133 83t-89 121t-51.5 142t-15.5 149.5q0 75 15.5 147t51.5 141t89 120.5t133 82.5t178 31q117 0 208.5 -44t147 -120t83.5 -173.5t26 -209.5h-824zM618 1448l156 -227h-112l-107 155h-18l-107 -155h-113l156 227h145z" />
    <glyph glyph-name="edieresis" unicode="&#xeb;" horiz-adv-x="1087" 
d="M541 926q-84 0 -151 -32t-108.5 -86t-65 -117t-28.5 -132h707q-1 50 -15 100.5t-43 98.5t-69.5 85.5t-99 60t-127.5 22.5zM186 477q2 -73 22 -140t59 -128t109.5 -98t164.5 -37q259 0 336 262h112q-18 -74 -52.5 -137t-88 -114.5t-131.5 -80.5t-172 -29q-98 0 -178 31.5
t-133 83t-89 121t-51.5 142t-15.5 149.5q0 75 15.5 147t51.5 141t89 120.5t133 82.5t178 31q117 0 208.5 -44t147 -120t83.5 -173.5t26 -209.5h-824zM387 1307q-30 0 -52 21t-22 50q0 30 22 51t52 21t51 -21t21 -51q0 -29 -21.5 -50t-50.5 -21zM698 1307q-31 0 -53 21
t-22 50q0 30 22 51t53 21q28 0 50 -21t22 -51q0 -29 -22 -50t-50 -21z" />
    <glyph glyph-name="iacute" unicode="&#xed;" horiz-adv-x="397" 
d="M365 1448l-123 -242h-105l117 242h111zM264 942q0 23 -18 40t-41 17h-168v-104h82q12 0 21.5 -9.5t9.5 -21.5v-864h114v942z" />
    <glyph glyph-name="icircumflex" unicode="&#xee;" horiz-adv-x="397" 
d="M266 1448l156 -227h-113l-106 155h-19l-106 -155h-113l156 227h145zM264 942q0 23 -18 40t-41 17h-168v-104h82q12 0 21.5 -9.5t9.5 -21.5v-864h114v942z" />
    <glyph glyph-name="idieresis" unicode="&#xef;" horiz-adv-x="397" 
d="M20 1305q-29 0 -51 21t-22 50q0 30 21.5 51t51.5 21t51 -21t21 -51q0 -29 -21.5 -50t-50.5 -21zM332 1305q-31 0 -53.5 21t-22.5 50q0 30 22.5 51t53.5 21q28 0 49.5 -21t21.5 -51q0 -29 -21.5 -50t-49.5 -21zM264 942q0 23 -18 40t-41 17h-168v-104h82q12 0 21.5 -9.5
t9.5 -21.5v-864h114v942z" />
    <glyph glyph-name="oacute" unicode="&#xf3;" horiz-adv-x="1064" 
d="M532 68q73 0 133.5 26t100 68t66.5 99t39 116.5t12 122.5t-12 122.5t-39 116.5t-66.5 99t-100 68t-133.5 26t-133.5 -26t-100 -68t-66.5 -99t-38.5 -116.5t-11.5 -122.5t11.5 -122.5t38.5 -116.5t66.5 -99t100 -68t133.5 -26zM532 1024q95 0 173.5 -31.5t129.5 -83
t86.5 -120.5t50.5 -141.5t15 -147.5t-15 -147.5t-50.5 -141.5t-86.5 -121t-129.5 -83.5t-173.5 -31.5q-96 0 -174.5 31.5t-129.5 83.5t-85.5 121t-49.5 141t-15 148t15 148t49.5 141t85.5 120.5t129.5 83t174.5 31.5zM707 1448l-123 -242h-105l117 242h111z" />
    <glyph glyph-name="ocircumflex" unicode="&#xf4;" horiz-adv-x="1064" 
d="M532 68q73 0 133.5 26t100 68t66.5 99t39 116.5t12 122.5t-12 122.5t-39 116.5t-66.5 99t-100 68t-133.5 26t-133.5 -26t-100 -68t-66.5 -99t-38.5 -116.5t-11.5 -122.5t11.5 -122.5t38.5 -116.5t66.5 -99t100 -68t133.5 -26zM532 1024q95 0 173.5 -31.5t129.5 -83
t86.5 -120.5t50.5 -141.5t15 -147.5t-15 -147.5t-50.5 -141.5t-86.5 -121t-129.5 -83.5t-173.5 -31.5q-96 0 -174.5 31.5t-129.5 83.5t-85.5 121t-49.5 141t-15 148t15 148t49.5 141t85.5 120.5t129.5 83t174.5 31.5zM588 1448l155 -227h-112l-107 155h-18l-107 -155h-112
l155 227h146z" />
    <glyph glyph-name="odieresis" unicode="&#xf6;" horiz-adv-x="1064" 
d="M532 68q73 0 133.5 26t100 68t66.5 99t39 116.5t12 122.5t-12 122.5t-39 116.5t-66.5 99t-100 68t-133.5 26t-133.5 -26t-100 -68t-66.5 -99t-38.5 -116.5t-11.5 -122.5t11.5 -122.5t38.5 -116.5t66.5 -99t100 -68t133.5 -26zM532 1024q95 0 173.5 -31.5t129.5 -83
t86.5 -120.5t50.5 -141.5t15 -147.5t-15 -147.5t-50.5 -141.5t-86.5 -121t-129.5 -83.5t-173.5 -31.5q-96 0 -174.5 31.5t-129.5 83.5t-85.5 121t-49.5 141t-15 148t15 148t49.5 141t85.5 120.5t129.5 83t174.5 31.5zM375 1305q-30 0 -52 21t-22 50q0 30 22 51t52 21
q29 0 50 -21t21 -51q0 -29 -21 -50t-50 -21zM686 1305q-31 0 -53.5 21t-22.5 50q0 30 22.5 51t53.5 21q28 0 50 -21t22 -51q0 -29 -22 -50t-50 -21z" />
    <glyph glyph-name="divide" unicode="&#xf7;" horiz-adv-x="1116" 
d="M145 678h826v-98h-826v98zM559 231q-31 0 -53.5 21.5t-22.5 50.5q0 31 22.5 52.5t53.5 21.5q30 0 52 -22t22 -52q0 -29 -22.5 -50.5t-51.5 -21.5zM559 881q-31 0 -53.5 20.5t-22.5 50.5q0 31 22.5 52.5t53.5 21.5q30 0 52 -22t22 -52t-22 -50.5t-52 -20.5z" />
    <glyph glyph-name="oslash" unicode="&#xf8;" horiz-adv-x="1064" 
d="M532 68q73 0 133.5 26t100 68t66.5 99t39 116.5t12 122.5t-12 122.5t-39 116.5t-66.5 99t-100 68t-133.5 26t-133.5 -26t-100 -68t-66.5 -99t-38.5 -116.5t-11.5 -122.5t11.5 -122.5t38.5 -116.5t66.5 -99t100 -68t133.5 -26zM532 1024q95 0 173.5 -31.5t129.5 -83
t86.5 -120.5t50.5 -141.5t15 -147.5t-15 -147.5t-50.5 -141.5t-86.5 -121t-129.5 -83.5t-173.5 -31.5q-96 0 -174.5 31.5t-129.5 83.5t-85.5 121t-49.5 141t-15 148t15 148t49.5 141t85.5 120.5t129.5 83t174.5 31.5zM944 1004l-717 -1008h-106l719 1008h104z" />
    <glyph glyph-name="uacute" unicode="&#xfa;" 
d="M125 424q0 -104 28 -191.5t93 -155t160 -91.5q177 -41 310.5 58t174.5 280h22q-30 -119 -30 -228v-96h114v999h-114v-333q0 -131 -17 -244q-15 -87 -49.5 -158t-84 -118.5t-117.5 -66.5t-144 -3q-123 25 -177 119t-54 249v555h-115v-575zM721 1448l-123 -242h-104
l116 242h111z" />
    <glyph glyph-name="ucircumflex" unicode="&#xfb;" 
d="M125 424q0 -104 28 -191.5t93 -155t160 -91.5q177 -41 310.5 58t174.5 280h22q-30 -119 -30 -228v-96h114v999h-114v-333q0 -131 -17 -244q-15 -87 -49.5 -158t-84 -118.5t-117.5 -66.5t-144 -3q-123 25 -177 119t-54 249v555h-115v-575zM637 1448l156 -227h-113
l-107 155h-18l-106 -155h-113l156 227h145z" />
    <glyph glyph-name="udieresis" unicode="&#xfc;" 
d="M125 424q0 -104 28 -191.5t93 -155t160 -91.5q177 -41 310.5 58t174.5 280h22q-30 -119 -30 -228v-96h114v999h-114v-333q0 -131 -17 -244q-15 -87 -49.5 -158t-84 -118.5t-117.5 -66.5t-144 -3q-123 25 -177 119t-54 249v555h-115v-575zM416 1305q-30 0 -52 21t-22 50
q0 30 22 51t52 21t50.5 -21t20.5 -51q0 -29 -21 -50t-50 -21zM727 1305q-31 0 -53.5 21t-22.5 50q0 30 22.5 51t53.5 21q28 0 50 -21t22 -51q0 -29 -22 -50t-50 -21z" />
    <glyph glyph-name="yacute" unicode="&#xfd;" horiz-adv-x="978" 
d="M551 252q-17 -43 -30 -80t-17 -52l-4 -16h-21q-12 52 -51 148l-295 747h-115l390 -999h47l-121 -309q-66 -160 -223 -160h-74v-100h69q69 0 127.5 21t98 56.5t65 73t41.5 78.5l523 1339h-115zM657 1448l-122 -242h-105l117 242h110z" />
    <glyph glyph-name="ydieresis" unicode="&#xff;" horiz-adv-x="978" 
d="M551 252q-17 -43 -30 -80t-17 -52l-4 -16h-21q-12 52 -51 148l-295 747h-115l390 -999h47l-121 -309q-66 -160 -223 -160h-74v-100h69q69 0 127.5 21t98 56.5t65 73t41.5 78.5l523 1339h-115zM340 1305q-30 0 -52 21t-22 50q0 30 22 51t52 21t51 -21t21 -51
q0 -29 -21.5 -50t-50.5 -21zM651 1305q-31 0 -53.5 21t-22.5 50q0 30 22.5 51t53.5 21q28 0 50 -21t22 -51q0 -29 -22 -50t-50 -21z" />
    <glyph glyph-name="Ccaron" unicode="&#x10c;" horiz-adv-x="1423" 
d="M1225 412q-27 -69 -68 -126t-99.5 -104.5t-140 -74.5t-178.5 -27q-112 0 -204 38.5t-152.5 101.5t-102 147.5t-59.5 173t-18 180.5q0 91 18 178t59.5 170.5t102 146t152.5 100.5t204 38q97 0 178.5 -27t140 -74.5t99.5 -104.5t68 -126h121q-22 66 -55 125t-85 117.5
t-116.5 100t-154.5 67.5t-194 26q-136 0 -248 -44.5t-186 -117.5t-124.5 -170t-72.5 -199t-22 -208t22 -209t72.5 -200.5t124.5 -171t186 -118.5t248 -45q104 0 194 26t154.5 68t116.5 101t85 117.5t55 124.5h-121zM668 1559l-156 227h113l106 -154h19l106 154h113
l-156 -227h-145z" />
    <glyph glyph-name="ccaron" unicode="&#x10d;" horiz-adv-x="1040" 
d="M854 295q-39 -96 -116 -155.5t-195 -59.5q-92 0 -162 37.5t-109.5 99.5t-59 134t-19.5 151q0 75 19.5 146t59 133.5t109.5 100.5t162 38q118 0 195 -60t116 -158h119q-20 66 -55 121.5t-86.5 102t-125.5 72.5t-163 26q-98 0 -178.5 -31.5t-132.5 -83t-87.5 -120.5
t-51 -140.5t-15.5 -146.5q0 -76 15.5 -148.5t51 -142t87.5 -121.5t132.5 -83.5t178.5 -31.5q173 0 280.5 90t149.5 230h-119zM457 1221l-156 227h113l106 -154h19l106 154h113l-156 -227h-145z" />
    <glyph glyph-name="Dcaron" unicode="&#x10e;" horiz-adv-x="1404" 
d="M666 104q110 0 201 35.5t152 94.5t103 139t61 166t19 178t-19 178t-61 165.5t-103 138.5t-152 94.5t-201 35.5h-390v-1225h390zM1317 717q0 -167 -48.5 -302.5t-134.5 -226t-205.5 -139.5t-260.5 -49h-506v1434h506q137 0 255.5 -48t206 -137t137.5 -226t50 -306z
M543 1559l-156 227h113l106 -154h19l106 154h113l-156 -227h-145z" />
    <glyph glyph-name="dcaron" unicode="&#x10f;" horiz-adv-x="1177" 
d="M193 500q0 -86 21 -160.5t62 -133t108 -92.5t153 -34q84 0 150.5 34t107.5 92.5t62.5 133.5t21.5 160q0 86 -21.5 161t-63 133t-108 92t-149.5 34q-112 0 -191.5 -59t-116 -152t-36.5 -209zM78 500q0 81 15.5 156t49.5 142.5t83 117.5t121 79t159 29q144 0 236.5 -73.5
t136.5 -192.5h24q-24 106 -24 235v441h114v-1434h-114v27q0 50 6 104t12 83l6 28h-24q-44 -120 -136 -193.5t-239 -73.5q-109 0 -193 44.5t-133.5 120t-74.5 166.5t-25 194zM1284 1434l-12 -508h-88l-15 508h115z" />
    <glyph glyph-name="Ebreve" unicode="&#x114;" horiz-adv-x="1128" 
d="M1026 1434v-105h-750v-559h682v-100h-682v-566h750v-104h-864l2 1434h862zM825 1786q0 -42 -13.5 -81t-40 -73.5t-74 -55t-109.5 -20.5t-109 20.5t-74 55t-40 73.5t-13 81h92q0 -57 36 -101.5t108 -44.5t108.5 44.5t36.5 101.5h92z" />
    <glyph glyph-name="Ecaron" unicode="&#x11a;" horiz-adv-x="1128" 
d="M1026 1434v-105h-750v-559h682v-100h-682v-566h750v-104h-864l2 1434h862zM506 1559l-156 227h113l106 -154h19l106 154h113l-156 -227h-145z" />
    <glyph glyph-name="ecaron" unicode="&#x11b;" horiz-adv-x="1087" 
d="M541 926q-84 0 -151 -32t-108.5 -86t-65 -117t-28.5 -132h707q-1 50 -15 100.5t-43 98.5t-69.5 85.5t-99 60t-127.5 22.5zM186 477q2 -73 22 -140t59 -128t109.5 -98t164.5 -37q259 0 336 262h112q-18 -74 -52.5 -137t-88 -114.5t-131.5 -80.5t-172 -29q-98 0 -178 31.5
t-133 83t-89 121t-51.5 142t-15.5 149.5q0 75 15.5 147t51.5 141t89 120.5t133 82.5t178 31q117 0 208.5 -44t147 -120t83.5 -173.5t26 -209.5h-824zM461 1221l-156 227h113l106 -154h19l106 154h113l-156 -227h-145z" />
    <glyph glyph-name="Ibreve" unicode="&#x12c;" horiz-adv-x="438" 
d="M162 1434h114v-1434h-114v1434zM455 1786q0 -42 -13.5 -81t-40.5 -73.5t-74.5 -55t-109.5 -20.5t-109 20.5t-73.5 55t-39.5 73.5t-13 81h92q0 -57 35.5 -101.5t107.5 -44.5t108.5 44.5t36.5 101.5h93z" />
    <glyph glyph-name="Idotaccent" unicode="&#x130;" horiz-adv-x="438" 
d="M162 1434h114v-1434h-114v1434zM219 1642q-29 0 -51.5 21.5t-22.5 50.5q0 30 22 51t52 21t51 -21t21 -51q0 -29 -21.5 -50.5t-50.5 -21.5z" />
    <glyph glyph-name="Lacute" unicode="&#x139;" horiz-adv-x="1015" 
d="M276 1434v-1330h699v-104h-813v1434h114zM395 1786l-123 -242h-104l117 242h110z" />
    <glyph glyph-name="lacute" unicode="&#x13a;" horiz-adv-x="389" 
d="M135 1434h115v-1434h-115v1434zM377 1786l-123 -242h-104l116 242h111z" />
    <glyph glyph-name="Lcaron" unicode="&#x13d;" horiz-adv-x="1015" 
d="M276 1434v-1330h699v-104h-813v1434h114zM616 1434l-12 -508h-88l-14 508h114z" />
    <glyph glyph-name="lcaron" unicode="&#x13e;" horiz-adv-x="436" 
d="M135 1434h115v-1434h-115v1434zM543 1434l-13 -508h-88l-14 508h115z" />
    <glyph glyph-name="Lslash" unicode="&#x141;" horiz-adv-x="1056" 
d="M317 1434v-1330h699v-104h-813v1434h114zM61 586l598 305v-98l-598 -306v99z" />
    <glyph glyph-name="lslash" unicode="&#x142;" horiz-adv-x="382" 
d="M135 1434h115v-1434h-115v1434zM383 788l-383 -180v97l383 180v-97z" />
    <glyph glyph-name="Ncaron" unicode="&#x147;" horiz-adv-x="1449" 
d="M1174 346q0 -56 4 -116.5t8 -93.5l4 -32h-23l-825 1330h-180v-1434h114v1090q0 56 -4 115.5t-8 91.5l-4 32h21l827 -1329h180v1434h-114v-1088zM662 1559l-156 227h112l107 -154h18l107 154h113l-156 -227h-145z" />
    <glyph glyph-name="ncaron" unicode="&#x148;" 
d="M1008 575q0 104 -28 191.5t-93 155.5t-160 92q-177 41 -310 -58t-173 -280h-23q29 118 29 227v96h-115v-999h115v334q0 125 18 244q29 180 136 279.5t260 66.5q123 -25 176 -119t53 -250v-555h115v575zM498 1221l-156 227h113l106 -154h19l106 154h113l-156 -227h-145z
" />
    <glyph glyph-name="Ohungarumlaut" unicode="&#x150;" horiz-adv-x="1452" 
d="M727 80q109 0 198.5 38t148.5 101t99.5 146.5t58 171t17.5 178.5q0 92 -17.5 180.5t-58 172.5t-99.5 147t-148.5 101t-198.5 38q-110 0 -199.5 -38t-149 -101t-100 -147t-58 -172.5t-17.5 -180.5q0 -91 17.5 -178.5t58 -171t99.5 -146.5t149 -101t200 -38zM727 1458
q133 0 242.5 -44.5t181.5 -117.5t121 -171t70.5 -200.5t21.5 -209.5q0 -106 -21.5 -208t-70.5 -199.5t-121 -170.5t-181.5 -117.5t-242.5 -44.5q-134 0 -243.5 44.5t-182 117.5t-121.5 170.5t-70.5 199.5t-21.5 208q0 107 21.5 209.5t70.5 200.5t121.5 171t182 117.5
t243.5 44.5zM1018 1786l-123 -242h-104l116 242h111zM776 1786l-123 -242h-104l117 242h110z" />
    <glyph glyph-name="ohungarumlaut" unicode="&#x151;" horiz-adv-x="1064" 
d="M532 68q73 0 133.5 26t100 68t66.5 99t39 116.5t12 122.5t-12 122.5t-39 116.5t-66.5 99t-100 68t-133.5 26t-133.5 -26t-100 -68t-66.5 -99t-38.5 -116.5t-11.5 -122.5t11.5 -122.5t38.5 -116.5t66.5 -99t100 -68t133.5 -26zM532 1024q95 0 173.5 -31.5t129.5 -83
t86.5 -120.5t50.5 -141.5t15 -147.5t-15 -147.5t-50.5 -141.5t-86.5 -121t-129.5 -83.5t-173.5 -31.5q-96 0 -174.5 31.5t-129.5 83.5t-85.5 121t-49.5 141t-15 148t15 148t49.5 141t85.5 120.5t129.5 83t174.5 31.5zM819 1448l-123 -242h-104l117 242h110zM578 1448
l-123 -242h-105l117 242h111z" />
    <glyph glyph-name="racute" unicode="&#x155;" horiz-adv-x="690" 
d="M649 999q-153 -3 -250 -79.5t-137 -208.5h-22q22 149 22 227q0 28 -18 44.5t-47 16.5h-156v-104h92q25 0 25 -25v-870h114v483q0 62 12.5 120t41.5 111.5t71.5 93.5t107.5 63.5t144 23.5v104zM516 1448l-123 -242h-104l117 242h110z" />
    <glyph glyph-name="Rcaron" unicode="&#x158;" horiz-adv-x="1296" 
d="M727 768q61 0 118 17t105 50t77.5 89t29.5 127q0 70 -29 125t-77.5 87.5t-105.5 49t-118 16.5h-451v-561h451zM956 735q82 0 141.5 -59t59.5 -141v-535h-108v537q0 53 -38.5 91t-90.5 38h-646v-666h-112v1434h573q210 0 323 -101.5t113 -259.5q0 -208 -215 -313v-25z
M532 1559l-155 227h112l107 -154h18l107 154h113l-156 -227h-146z" />
    <glyph glyph-name="rcaron" unicode="&#x159;" horiz-adv-x="690" 
d="M649 999q-153 -3 -250 -79.5t-137 -208.5h-22q22 149 22 227q0 28 -18 44.5t-47 16.5h-156v-104h92q25 0 25 -25v-870h114v483q0 62 12.5 120t41.5 111.5t71.5 93.5t107.5 63.5t144 23.5v104zM264 1221l-155 227h112l107 -154h18l107 154h112l-155 -227h-146z" />
    <glyph glyph-name="Scaron" unicode="&#x160;" horiz-adv-x="1196" 
d="M1106 393q0 48 -11 89.5t-28 74t-46.5 60.5t-57.5 48.5t-70.5 39t-75 30t-82 23.5t-81 19t-81.5 16q-149 27 -211 54q-145 65 -145 216q0 53 21.5 103t64.5 93t119 69t174 26q100 0 177 -26t120 -69.5t64.5 -93t21.5 -102.5v-21h115v21q0 72 -28 139.5t-85 126t-156.5 94
t-228.5 35.5q-128 0 -226.5 -35.5t-155 -94t-84.5 -126t-28 -139.5q0 -59 14.5 -108.5t40.5 -84t59.5 -62t75 -46t83 -31.5t87 -23t83.5 -17l18 -3q50 -9 83 -16t82.5 -21t82 -28t70 -37t59 -49.5t36.5 -63.5t15 -80q0 -60 -22.5 -113.5t-68 -99.5t-125.5 -73t-185 -27
q-104 0 -185 29.5t-127 79t-69 105.5t-23 116h-114q0 -63 17.5 -123t57.5 -117t98.5 -100t147.5 -69t197 -26q109 0 197.5 24.5t146.5 65t98 95t57 113t17 120.5zM510 1559l-156 227h113l106 -154h19l106 154h113l-156 -227h-145z" />
    <glyph glyph-name="scaron" unicode="&#x161;" horiz-adv-x="903" 
d="M821 289q0 76 -27 130t-71 81.5t-100.5 46.5t-115.5 25.5t-115.5 18t-100.5 25t-71 44.5t-27 79q0 64 39 108t94 61.5t120 17.5q64 0 119 -18t94 -62t39 -107v-16h109v16q0 91 -51 157t-132 97t-180 31q-155 0 -259.5 -74.5t-104.5 -210.5q0 -62 21.5 -106t57.5 -68.5
t83.5 -40t99.5 -23.5t103.5 -15.5t99 -19.5t83.5 -32t57.5 -57t21.5 -90q0 -56 -23.5 -98.5t-63.5 -66.5t-85.5 -36t-94.5 -12q-72 0 -131 19.5t-100.5 69t-42.5 122.5h-109q1 -99 55 -170.5t138.5 -105.5t187.5 -34q104 0 189.5 34t139.5 106.5t54 173.5zM367 1221
l-156 227h113l106 -154h19l106 154h113l-156 -227h-145z" />
    <glyph glyph-name="Tcaron" unicode="&#x164;" horiz-adv-x="1073" 
d="M1049 1434v-105h-455v-1329h-115v1329h-454v105h1024zM463 1559l-156 227h113l106 -154h19l106 154h113l-156 -227h-145z" />
    <glyph glyph-name="tcaron" unicode="&#x165;" horiz-adv-x="589" 
d="M156 295q0 -123 83 -209t212 -86h88v104h-80q-78 0 -133.5 56t-55.5 135v600h269v104h-269v435h-114v-435h-127v-104h127v-600zM563 1786l-12 -508h-88l-14 508h114z" />
    <glyph glyph-name="Uring" unicode="&#x16e;" horiz-adv-x="1366" 
d="M1102 580q0 -72 -14 -141t-46.5 -134.5t-79.5 -115t-119.5 -79.5t-160.5 -30t-159.5 30t-119 79.5t-79.5 115t-46 134.5t-14 141v854h-114v-854q0 -53 8 -108.5t26.5 -115.5t46.5 -114t71 -103.5t96.5 -85.5t126.5 -57t157 -21q117 0 211.5 39.5t153.5 102t98.5 144.5
t55.5 161t16 158v854h-115v-854zM680 1624q66 0 98.5 41t32.5 98q0 54 -32.5 94.5t-98.5 40.5q-65 0 -97 -40.5t-32 -94.5q0 -56 32 -97.5t97 -41.5zM680 1982q110 0 165.5 -66.5t55.5 -152.5q0 -41 -12.5 -78.5t-37.5 -69.5t-69.5 -51.5t-101.5 -19.5t-100.5 19.5
t-68.5 51.5t-37.5 69.5t-12.5 78.5q0 86 55 152.5t164 66.5z" />
    <glyph glyph-name="uring" unicode="&#x16f;" 
d="M125 424q0 -104 28 -191.5t93 -155t160 -91.5q177 -41 310.5 58t174.5 280h22q-30 -119 -30 -228v-96h114v999h-114v-333q0 -131 -17 -244q-15 -87 -49.5 -158t-84 -118.5t-117.5 -66.5t-144 -3q-123 25 -177 119t-54 249v555h-115v-575zM561 1327q66 0 98.5 41t32.5 98
q0 54 -32.5 95t-98.5 41q-65 0 -97 -41t-32 -95q0 -56 32 -97.5t97 -41.5zM561 1686q57 0 101.5 -20t69.5 -53t37.5 -70t12.5 -77q0 -41 -12.5 -78.5t-37.5 -69.5t-69.5 -51.5t-101.5 -19.5t-100.5 19.5t-68.5 51.5t-37.5 69.5t-12.5 78.5q0 86 55 153t164 67z" />
    <glyph glyph-name="Uhungarumlaut" unicode="&#x170;" horiz-adv-x="1366" 
d="M1102 580q0 -72 -14 -141t-46.5 -134.5t-79.5 -115t-119.5 -79.5t-160.5 -30t-159.5 30t-119 79.5t-79.5 115t-46 134.5t-14 141v854h-114v-854q0 -53 8 -108.5t26.5 -115.5t46.5 -114t71 -103.5t96.5 -85.5t126.5 -57t157 -21q117 0 211.5 39.5t153.5 102t98.5 144.5
t55.5 161t16 158v854h-115v-854zM963 1786l-123 -242h-105l117 242h111zM721 1786l-123 -242h-104l116 242h111z" />
    <glyph glyph-name="uhungarumlaut" unicode="&#x171;" 
d="M125 424q0 -104 28 -191.5t93 -155t160 -91.5q177 -41 310.5 58t174.5 280h22q-30 -119 -30 -228v-96h114v999h-114v-333q0 -131 -17 -244q-15 -87 -49.5 -158t-84 -118.5t-117.5 -66.5t-144 -3q-123 25 -177 119t-54 249v555h-115v-575zM844 1448l-123 -242h-105
l117 242h111zM602 1448l-123 -242h-104l117 242h110z" />
    <glyph glyph-name="Ydieresis" unicode="&#x178;" horiz-adv-x="1071" 
d="M592 877q-13 -22 -24 -46t-16 -37l-5 -14h-25q-16 48 -45 97l-334 557h-123l457 -768v-666h115v664l459 770h-123zM379 1642q-29 0 -51.5 21.5t-22.5 50.5q0 30 22 51t52 21t51 -21t21 -51q0 -29 -21.5 -50.5t-50.5 -21.5zM690 1642q-31 0 -53.5 21.5t-22.5 50.5
q0 30 22.5 51t53.5 21q28 0 50 -21t22 -51q0 -29 -22 -50.5t-50 -21.5z" />
    <glyph glyph-name="Zcaron" unicode="&#x17d;" horiz-adv-x="1191" 
d="M199 123q6 2 15.5 8t38.5 33.5t56 64.5l801 1092v113h-981v-105h870v-20q-6 -2 -15.5 -7t-38.5 -30.5t-56 -61.5l-805 -1097v-113h997v104h-882v19zM528 1559l-155 227h112l107 -154h18l107 154h112l-155 -227h-146z" />
    <glyph glyph-name="zcaron" unicode="&#x17e;" horiz-adv-x="911" 
d="M709 881q-36 -2 -111 -90l-526 -685v-106h741v98h-620v21q26 2 102 88l534 686v106h-725v-98h605v-20zM389 1221l-156 227h113l107 -154h18l107 154h112l-155 -227h-146z" />
    <glyph glyph-name="Oslashacute" unicode="&#x1fe;" horiz-adv-x="1460" 
d="M731 80q109 0 198.5 38t148.5 101t99.5 146.5t58 171t17.5 178.5q0 92 -17.5 180.5t-58 172.5t-99.5 147t-148.5 101t-198.5 38q-110 0 -199.5 -38t-149 -101t-100 -147t-58 -172.5t-17.5 -180.5q0 -91 17.5 -178.5t58 -171t99.5 -146.5t149 -101t200 -38zM731 1458
q133 0 242.5 -44.5t181.5 -117.5t121 -171t70.5 -200.5t21.5 -209.5q0 -106 -21.5 -208t-70.5 -199.5t-121 -170.5t-181.5 -117.5t-242.5 -44.5q-134 0 -243.5 44.5t-182 117.5t-121.5 170.5t-70.5 199.5t-21.5 208q0 107 21.5 209.5t70.5 200.5t121.5 171t182 117.5
t243.5 44.5zM1339 1438l-1087 -1442h-131l1089 1442h129zM907 1786l-123 -242h-104l117 242h110z" />
    <glyph glyph-name="oslashacute" unicode="&#x1ff;" horiz-adv-x="1064" 
d="M532 68q73 0 133.5 26t100 68t66.5 99t39 116.5t12 122.5t-12 122.5t-39 116.5t-66.5 99t-100 68t-133.5 26t-133.5 -26t-100 -68t-66.5 -99t-38.5 -116.5t-11.5 -122.5t11.5 -122.5t38.5 -116.5t66.5 -99t100 -68t133.5 -26zM532 1024q95 0 173.5 -31.5t129.5 -83
t86.5 -120.5t50.5 -141.5t15 -147.5t-15 -147.5t-50.5 -141.5t-86.5 -121t-129.5 -83.5t-173.5 -31.5q-96 0 -174.5 31.5t-129.5 83.5t-85.5 121t-49.5 141t-15 148t15 148t49.5 141t85.5 120.5t129.5 83t174.5 31.5zM944 1004l-717 -1008h-106l719 1008h104zM707 1448
l-123 -242h-105l117 242h111z" />
    <glyph glyph-name="circumflex" unicode="&#x2c6;" horiz-adv-x="620" 
d="M383 1786l156 -227h-113l-107 155h-18l-106 -155h-113l156 227h145z" />
    <glyph glyph-name="caron" unicode="&#x2c7;" horiz-adv-x="620" 
d="M238 1559l-156 227h113l106 -154h18l107 154h113l-156 -227h-145z" />
    <glyph glyph-name="breve" unicode="&#x2d8;" horiz-adv-x="669" 
d="M571 1786q0 -42 -13.5 -81t-40 -73.5t-74 -55t-109.5 -20.5t-109 20.5t-74 55t-40 73.5t-13 81h92q0 -57 36 -101.5t108 -44.5t108.5 44.5t36.5 101.5h92z" />
    <glyph glyph-name="dotaccent" unicode="&#x2d9;" horiz-adv-x="342" 
d="M172 1642q-29 0 -51.5 21.5t-22.5 50.5q0 30 22 51t52 21t51 -21t21 -51q0 -29 -21.5 -50.5t-50.5 -21.5z" />
    <glyph glyph-name="ring" unicode="&#x2da;" horiz-adv-x="604" 
d="M301 1624q66 0 98.5 41t32.5 98q0 54 -32.5 94.5t-98.5 40.5q-65 0 -97 -40.5t-32 -94.5q0 -56 32 -97.5t97 -41.5zM301 1982q110 0 165.5 -66.5t55.5 -152.5q0 -41 -12.5 -78.5t-37.5 -69.5t-69.5 -51.5t-101.5 -19.5t-100.5 19.5t-68.5 51.5t-37.5 69.5t-12.5 78.5
q0 86 55 152.5t164 66.5z" />
    <glyph glyph-name="hungarumlaut" unicode="&#x2dd;" horiz-adv-x="643" 
d="M555 1786l-123 -242h-104l116 242h111zM313 1786l-123 -242h-104l117 242h110z" />
    <glyph glyph-name="endash" unicode="&#x2013;" horiz-adv-x="1247" 
d="M139 588h969v-99h-969v99z" />
    <glyph glyph-name="emdash" unicode="&#x2014;" horiz-adv-x="1910" 
d="M139 588h1633v-99h-1633v99z" />
    <glyph glyph-name="quoteleft" unicode="&#x2018;" horiz-adv-x="444" 
d="M162 1382q0 -32 23.5 -54.5t54.5 -22.5q32 0 55.5 22.5t23.5 54.5q0 31 -23.5 53.5t-55.5 22.5q-31 0 -54.5 -22.5t-23.5 -53.5zM213 1454q-21 32 1 74.5t71 52.5v51q-98 -15 -141 -102q-36 -74 -12 -145q25 -70 93 -79q7 -1 15 -1z" />
    <glyph glyph-name="quoteright" unicode="&#x2019;" horiz-adv-x="444" 
d="M283 1630q0 32 -23.5 55t-54.5 23q-32 0 -56 -23t-24 -55q0 -31 24 -53.5t56 -22.5q31 0 54.5 22.5t23.5 53.5zM231 1559q22 -30 0 -73.5t-71 -53.5v-52q98 15 141 102q36 74 11 146q-24 70 -92 79q-7 1 -15 1z" />
    <glyph glyph-name="quotedblleft" unicode="&#x201c;" horiz-adv-x="667" 
d="M385 1382q0 -32 23.5 -54.5t54.5 -22.5q33 0 56.5 22.5t23.5 54.5q0 31 -24 53.5t-56 22.5q-31 0 -54.5 -22.5t-23.5 -53.5zM436 1454q-21 32 1 74.5t71 52.5v51q-98 -15 -141 -102q-36 -74 -12 -145q25 -70 93 -79q7 -1 15 -1zM162 1382q0 -32 23.5 -54.5t54.5 -22.5
q32 0 55.5 22.5t23.5 54.5q0 31 -23.5 53.5t-55.5 22.5q-31 0 -54.5 -22.5t-23.5 -53.5zM213 1454q-21 32 1 74.5t71 52.5v51q-98 -15 -141 -102q-36 -74 -12 -145q25 -70 93 -79q7 -1 15 -1z" />
    <glyph glyph-name="quotedblright" unicode="&#x201d;" horiz-adv-x="667" 
d="M504 1630q0 32 -23.5 55t-54.5 23q-32 0 -56 -23t-24 -55q0 -31 24 -53.5t56 -22.5q31 0 54.5 22.5t23.5 53.5zM453 1559q21 -32 -1 -74.5t-71 -52.5v-52q98 15 141 102q36 74 11 146q-24 70 -92 79q-7 1 -15 1zM283 1630q0 32 -23.5 55t-54.5 23q-32 0 -56 -23t-24 -55
q0 -31 24 -53.5t56 -22.5q31 0 54.5 22.5t23.5 53.5zM231 1559q22 -30 0 -73.5t-71 -53.5v-52q98 15 141 102q36 74 11 146q-24 70 -92 79q-7 1 -15 1z" />
    <glyph glyph-name="quotedblbase" unicode="&#x201e;" horiz-adv-x="667" 
d="M506 51q0 32 -23.5 55t-54.5 23q-32 0 -56 -23t-24 -55q0 -31 24 -53.5t56 -22.5q31 0 54.5 22.5t23.5 53.5zM455 -20q21 -32 -1 -74.5t-71 -52.5v-52q98 15 141 102q36 74 11 146q-24 70 -92 79q-7 1 -15 1zM283 51q0 32 -23.5 55t-54.5 23q-32 0 -56 -23t-24 -55
q0 -31 24 -53.5t56 -22.5q31 0 54.5 22.5t23.5 53.5zM231 -20q22 -30 0 -73.5t-71 -53.5v-52q98 15 141 102q36 74 11 146q-24 70 -92 79q-7 1 -15 1z" />
    <glyph glyph-name="bullet" unicode="&#x2022;" horiz-adv-x="514" 
d="M260 360q-62 0 -108 43.5t-46 104.5t46 104t108 43q58 0 103 -43.5t45 -103.5t-45 -104t-103 -44z" />
    <glyph glyph-name="guilsinglleft" unicode="&#x2039;" horiz-adv-x="731" 
d="M649 0q-356 414 -360 416q-29 34 -56 52.5t-38 18.5v23q11 0 38 19.5t56 52.5l360 417h-133l-434 -499l434 -500h133z" />
    <glyph glyph-name="guilsinglright" unicode="&#x203a;" horiz-adv-x="731" 
d="M82 0h133l434 500l-434 499h-133q356 -413 360 -417q31 -33 58.5 -52.5t38.5 -19.5v-23q-11 0 -39 -18.5t-58 -52.5z" />
    <glyph glyph-name="Euro" unicode="&#x20ac;" horiz-adv-x="1550" 
d="M1323 412q-27 -69 -67.5 -126t-99 -104.5t-140 -74.5t-178.5 -27q-112 0 -204 38.5t-152.5 101.5t-102.5 147t-60 173t-18 181q0 91 18 178t60 170.5t103 146t153.5 100.5t204.5 38q96 0 177 -27t139.5 -74.5t99 -104.5t67.5 -126h121q-22 66 -54.5 125t-84.5 117.5
t-116.5 100t-154.5 67.5t-194 26q-136 0 -248 -44.5t-186 -117.5t-125 -170t-73 -199t-22 -208t22 -209t73 -200.5t125 -171t186 -118.5t248 -45q104 0 194 26t154.5 68.5t117 100.5t84.5 117.5t54 124.5h-121zM55 889v-82h920v82h-920zM57 627v-82h918v82h-918z" />
    <glyph glyph-name="uni2117" unicode="&#x2117;" horiz-adv-x="952" 
d="M520 1108q31 0 52.5 15.5t21.5 45.5q0 32 -21.5 48t-52.5 16h-108v-125h108zM655 1169q0 -57 -40 -84.5t-93 -27.5h-110v-209h-62v438h172q29 0 57.5 -9.5t52 -37.5t23.5 -70zM475 735q87 0 154 30t105 80t56.5 106.5t18.5 117.5t-18.5 117.5t-56.5 106.5t-105 80
t-154 30t-153.5 -30t-104 -80t-56 -106.5t-18.5 -117.5t18.5 -117.5t56 -106.5t104 -80t153.5 -30zM475 1458q104 0 183 -35t123.5 -93t66.5 -124t22 -137t-22 -137t-66.5 -124t-123.5 -93t-183 -35q-103 0 -182 35t-123 93t-66 124t-22 137t22 137t66 124t123 93t182 35z
" />
    <glyph glyph-name="trademark" unicode="&#x2122;" horiz-adv-x="1183" 
d="M459 1434v-66h-168v-506h-70v506h-170v66h408zM1061 1434v-572h-72v416l-176 -416h-108l-175 416v-416h-71v572h82l213 -506h12l213 506h82z" />
    <glyph glyph-name="minus" unicode="&#x2212;" horiz-adv-x="1130" 
d="M145 735h840v-96h-840v96z" />
    <glyph glyph-name="approxequal" unicode="&#x2248;" horiz-adv-x="1103" 
d="M856 1020q0 -37 -0.5 -58t-3 -50.5t-9 -46.5t-16.5 -34t-26.5 -24.5t-38.5 -7.5q-32 0 -90.5 34t-114.5 75.5t-123 75.5t-112 34t-78 -17.5t-52 -45t-29.5 -72t-14 -88.5t-3.5 -105h103q0 37 0.5 58.5t3 51t8.5 46.5t16 33.5t26 24t38 7.5q32 0 91.5 -34t116 -74.5
t123 -74.5t111.5 -34q44 0 76.5 17t51.5 44.5t30 71.5t14.5 88.5t3.5 104.5h-102zM856 584q0 -37 -0.5 -58t-3 -51t-9 -47t-16.5 -34t-26.5 -24.5t-38.5 -7.5q-32 0 -90.5 34.5t-114.5 75.5t-123 75.5t-112 34.5t-78 -17t-52 -44.5t-29.5 -72t-14 -88t-3.5 -104.5h103
q0 37 0.5 58t3 50.5t8.5 46.5t16 34t26 24.5t38 7.5q32 0 91.5 -34.5t116 -76t123 -76t111.5 -34.5q44 0 76.5 17.5t51.5 45t30 72t14.5 89t3.5 104.5h-102z" />
    <glyph glyph-name="notequal" unicode="&#x2260;" horiz-adv-x="1118" 
d="M147 543h826v-99h-826v99zM147 926h826v-99h-826v99zM807 1100h104l-606 -832h-104z" />
    <glyph glyph-name="lessequal" unicode="&#x2264;" horiz-adv-x="1116" 
d="M971 98h-826v-98h826v98zM971 469v-109l-826 324v147l826 326v-110q-605 -238 -617 -244q-28 -11 -56.5 -20.5t-43.5 -12.5l-14 -4v-16q51 -12 114 -37z" />
    <glyph glyph-name="greaterequal" unicode="&#x2265;" horiz-adv-x="1116" 
d="M145 98h824v-98h-824v98zM145 467q607 240 617 244q28 11 57 20.5t43 12.5l15 4v18q-52 12 -115 37l-617 244v108l826 -326v-147l-826 -324v109z" />
    <glyph glyph-name="O.ss01" horiz-adv-x="1642" 
d="M821 -25q-151 0 -288.5 59t-236.5 158.5t-157.5 237t-58.5 289.5q0 150 58.5 287t157.5 236t236.5 157.5t288.5 58.5q150 0 287.5 -58.5t237 -157.5t158.5 -236t59 -287q0 -152 -59 -290t-158.5 -237t-237 -158t-287.5 -59zM821 80q170 0 314.5 85.5t228.5 232.5t84 321
q0 129 -49.5 246.5t-133.5 202.5t-200.5 135.5t-243.5 50.5q-171 0 -315 -85t-227.5 -231.5t-83.5 -318.5q0 -174 83.5 -321t227.5 -232.5t315 -85.5z" />
    <glyph glyph-name="Oacute.ss01" horiz-adv-x="1642" 
d="M999 1786l-122 -242h-105l117 242h110zM821 -25q-151 0 -288.5 59t-236.5 158.5t-157.5 237t-58.5 289.5q0 150 58.5 287t157.5 236t236.5 157.5t288.5 58.5q150 0 287.5 -58.5t237 -157.5t158.5 -236t59 -287q0 -152 -59 -290t-158.5 -237t-237 -158t-287.5 -59zM821 80
q170 0 314.5 85.5t228.5 232.5t84 321q0 129 -49.5 246.5t-133.5 202.5t-200.5 135.5t-243.5 50.5q-171 0 -315 -85t-227.5 -231.5t-83.5 -318.5q0 -174 83.5 -321t227.5 -232.5t315 -85.5z" />
    <glyph glyph-name="Ocircumflex.ss01" horiz-adv-x="1642" 
d="M883 1786l155 -227h-112l-107 155h-18l-107 -155h-112l155 227h146zM821 -25q-151 0 -288.5 59t-236.5 158.5t-157.5 237t-58.5 289.5q0 150 58.5 287t157.5 236t236.5 157.5t288.5 58.5q150 0 287.5 -58.5t237 -157.5t158.5 -236t59 -287q0 -152 -59 -290t-158.5 -237
t-237 -158t-287.5 -59zM821 80q170 0 314.5 85.5t228.5 232.5t84 321q0 129 -49.5 246.5t-133.5 202.5t-200.5 135.5t-243.5 50.5q-171 0 -315 -85t-227.5 -231.5t-83.5 -318.5q0 -174 83.5 -321t227.5 -232.5t315 -85.5z" />
    <glyph glyph-name="Odieresis.ss01" horiz-adv-x="1642" 
d="M659 1642q-29 0 -51 21.5t-22 50.5q0 30 21.5 51t51.5 21t51 -21t21 -51q0 -29 -21.5 -50.5t-50.5 -21.5zM971 1642q-31 0 -53.5 21.5t-22.5 50.5q0 30 22.5 51t53.5 21q28 0 49.5 -21t21.5 -51q0 -29 -21.5 -50.5t-49.5 -21.5zM821 -25q-151 0 -288.5 59t-236.5 158.5
t-157.5 237t-58.5 289.5q0 150 58.5 287t157.5 236t236.5 157.5t288.5 58.5q150 0 287.5 -58.5t237 -157.5t158.5 -236t59 -287q0 -152 -59 -290t-158.5 -237t-237 -158t-287.5 -59zM821 80q170 0 314.5 85.5t228.5 232.5t84 321q0 129 -49.5 246.5t-133.5 202.5
t-200.5 135.5t-243.5 50.5q-171 0 -315 -85t-227.5 -231.5t-83.5 -318.5q0 -174 83.5 -321t227.5 -232.5t315 -85.5z" />
    <glyph glyph-name="Ohungarumlaut.ss01" horiz-adv-x="1642" 
d="M1108 1786l-123 -242h-104l116 242h111zM866 1786l-123 -242h-104l117 242h110zM821 -25q-151 0 -288.5 59t-236.5 158.5t-157.5 237t-58.5 289.5q0 150 58.5 287t157.5 236t236.5 157.5t288.5 58.5q150 0 287.5 -58.5t237 -157.5t158.5 -236t59 -287q0 -152 -59 -290
t-158.5 -237t-237 -158t-287.5 -59zM821 80q170 0 314.5 85.5t228.5 232.5t84 321q0 129 -49.5 246.5t-133.5 202.5t-200.5 135.5t-243.5 50.5q-171 0 -315 -85t-227.5 -231.5t-83.5 -318.5q0 -174 83.5 -321t227.5 -232.5t315 -85.5z" />
    <glyph glyph-name="Oslash.ss01" horiz-adv-x="1654" 
d="M1495 1438l-1202 -1442h-131l1204 1442h129zM827 -25q-151 0 -288.5 59t-236.5 158.5t-157.5 237t-58.5 289.5q0 150 58.5 287t157.5 236t236.5 157.5t288.5 58.5q150 0 287.5 -58.5t237 -157.5t158.5 -236t59 -287q0 -152 -59 -290t-158.5 -237t-237 -158t-287.5 -59z
M827 80q170 0 314.5 85.5t228.5 232.5t84 321q0 129 -49.5 246.5t-133.5 202.5t-200.5 135.5t-243.5 50.5q-171 0 -315 -85t-227.5 -231.5t-83.5 -318.5q0 -174 83.5 -321t227.5 -232.5t315 -85.5z" />
    <glyph glyph-name="Oslashacute.ss01" horiz-adv-x="1654" 
d="M999 1786l-122 -242h-105l117 242h110zM1495 1438l-1202 -1442h-131l1204 1442h129zM827 -25q-151 0 -288.5 59t-236.5 158.5t-157.5 237t-58.5 289.5q0 150 58.5 287t157.5 236t236.5 157.5t288.5 58.5q150 0 287.5 -58.5t237 -157.5t158.5 -236t59 -287
q0 -152 -59 -290t-158.5 -237t-237 -158t-287.5 -59zM827 80q170 0 314.5 85.5t228.5 232.5t84 321q0 129 -49.5 246.5t-133.5 202.5t-200.5 135.5t-243.5 50.5q-171 0 -315 -85t-227.5 -231.5t-83.5 -318.5q0 -174 83.5 -321t227.5 -232.5t315 -85.5z" />
    <glyph glyph-name="A_A.dlig" horiz-adv-x="2527" 
d="M707 1434l518 -1434h-111l-139 387h-705l-139 -387h-111l519 1434h168zM305 485h633l-303 844h-25zM1991 1434l518 -1434h-111l-139 387h-705l-139 -387h-110l518 1434h168zM1589 485h633l-303 844h-25zM854 485h782v-98h-782v98z" />
    <glyph glyph-name="A_E.dlig" horiz-adv-x="1902" 
d="M1051 1434v-1434h-115l2 387h-571l-226 -387h-121l834 1434h197zM422 485h516v844h-25zM1800 1434v-105h-749v-559h682v-100h-682v-566h749v-104h-864l2 1434h862z" />
    <glyph glyph-name="A_V.dlig" horiz-adv-x="1845" 
d="M1704 1434h121l-533 -1434h-180l-514 1434h117l452 -1237q9 -24 15.5 -47t9.5 -34l2 -12h18q9 40 27 93zM707 1434l518 -1434h-111l-139 387h-705l-139 -387h-111l519 1434h168zM305 485h633l-303 844h-25z" />
    <glyph glyph-name="F_F.dlig" horiz-adv-x="1949" 
d="M999 1329h-723v-559h609v-100h-609v-670h-114v1434h837v-105zM1896 1329h-722v-559h608v-100h-608v-670h-115v1434h837v-105zM950 1434h226v-105h-226v105z" />
    <glyph glyph-name="F_I.dlig" horiz-adv-x="1271" 
d="M999 1329h-723v-559h609v-100h-609v-670h-114v1434h837v-105zM995 1434h115v-1434h-115v1434z" />
    <glyph glyph-name="F_L.dlig" horiz-adv-x="1921" 
d="M999 1329h-723v-559h609v-100h-609v-670h-114v1434h837v-105zM1180 1434v-1330h700v-104h-815v1434h115zM915 1434h189v-105h-189v105z" />
    <glyph glyph-name="H_E.dlig" horiz-adv-x="2076" 
d="M1225 1434v-1434h-115v670h-834v-670h-114v1434h114v-660h834v660h115zM1974 1434v-105h-749v-559h682v-100h-682v-566h749v-104h-864l2 1434h862z" />
    <glyph glyph-name="N_T.dlig" horiz-adv-x="2287" 
d="M1174 1434h114v-1434h-180l-827 1329h-21q16 -114 16 -239v-1090h-114v1434h180l825 -1330h23q-16 117 -16 242v1088zM2263 1434v-105h-455v-1329h-114v1329h-455v105h1024z" />
    <glyph glyph-name="T_E.dlig" horiz-adv-x="1150" 
d="M1049 1434v-105h-455v-1329h-115v1329h-454v105h1024zM1049 1434v-88h-459v-580h391v-102h-391v-560h459v-104h-570l2 1434h568z" />
    <glyph glyph-name="T_T.dlig" horiz-adv-x="2097" 
d="M1049 1434v-105h-455v-1329h-115v1329h-454v105h1024zM2073 1434v-105h-455v-1329h-115v1329h-454v105h1024z" />
    <glyph glyph-name="U_B.dlig" horiz-adv-x="2203" 
d="M1102 1434h115v-854q0 -79 -16 -158t-55.5 -161t-98.5 -144.5t-153.5 -102t-211.5 -39.5q-84 0 -157 21t-126.5 57t-96.5 85.5t-71 103.5t-46.5 114t-26.5 115.5t-8 108.5v854h114v-854q0 -72 14 -141t46 -134.5t79.5 -115t119 -79.5t159.5 -30t160.5 30t119.5 79.5
t79.5 115t46.5 134.5t14 141v854zM1610 104q75 0 142.5 17t125 52t91.5 96t34 141t-34 141t-92 95.5t-125 51.5t-142 17h-393v-611h393zM1608 819q63 0 119 14.5t103 44t75 80.5t28 117t-28 116.5t-75 79.5t-103 43.5t-119 14.5h-391v-510h391zM2118 387q0 -82 -31.5 -149
t-83 -110.5t-119.5 -73t-137.5 -42t-140.5 -12.5h-504v1434h502q64 0 124.5 -11.5t118 -38t100.5 -65.5t69 -97.5t26 -129.5q0 -124 -79.5 -208t-186.5 -100v-24q142 -25 242 -124t100 -249z" />
    <glyph glyph-name="U_D.dlig" horiz-adv-x="2344" 
d="M1102 1434h115v-854q0 -79 -16 -158t-55.5 -161t-98.5 -144.5t-153.5 -102t-211.5 -39.5q-84 0 -157 21t-126.5 57t-96.5 85.5t-71 103.5t-46.5 114t-26.5 115.5t-8 108.5v854h114v-854q0 -72 14 -141t46 -134.5t79.5 -115t119 -79.5t159.5 -30t160.5 30t119.5 79.5
t79.5 115t46.5 134.5t14 141v854zM1606 104q109 0 200 35.5t152 94.5t103.5 139t61.5 166.5t19 177.5t-19 177.5t-61.5 166t-103.5 138.5t-152 94.5t-200 35.5h-389v-1225h389zM2257 717q0 -167 -48.5 -302.5t-134.5 -226t-205.5 -139.5t-260.5 -49h-506v1434h506
q137 0 255.5 -48t206 -137t137.5 -226t50 -306z" />
    <glyph glyph-name="U_L.dlig" horiz-adv-x="1955" 
d="M1102 1434h115v-854q0 -79 -16 -158t-55.5 -161t-98.5 -144.5t-153.5 -102t-211.5 -39.5q-84 0 -157 21t-126.5 57t-96.5 85.5t-71 103.5t-46.5 114t-26.5 115.5t-8 108.5v854h114v-854q0 -72 14 -141t46 -134.5t79.5 -115t119 -79.5t159.5 -30t160.5 30t119.5 79.5
t79.5 115t46.5 134.5t14 141v854zM1217 1434v-1330h698v-104h-813v1434h115z" />
    <glyph glyph-name="U_P.dlig" horiz-adv-x="2158" 
d="M1102 1434h115v-854q0 -79 -16 -158t-55.5 -161t-98.5 -144.5t-153.5 -102t-211.5 -39.5q-84 0 -157 21t-126.5 57t-96.5 85.5t-71 103.5t-46.5 114t-26.5 115.5t-8 108.5v854h114v-854q0 -72 14 -141t46 -134.5t79.5 -115t119 -79.5t159.5 -30t160.5 30t119.5 79.5
t79.5 115t46.5 134.5t14 141v854zM1665 770q61 0 118 17t105 50t76.5 89t28.5 127q0 57 -19 103.5t-51 78t-74.5 53t-88.5 31.5t-95 10h-448v-559h448zM1673 1434q56 0 113 -11.5t115.5 -40t103.5 -71t73.5 -109.5t28.5 -149q0 -83 -29 -150.5t-74 -110t-104 -71.5
t-115.5 -41t-111.5 -12h-456v-668h-115v1434h571z" />
    <glyph glyph-name="U_R.dlig" horiz-adv-x="2234" 
d="M1102 1434h115v-854q0 -79 -16 -158t-55.5 -161t-98.5 -144.5t-153.5 -102t-211.5 -39.5q-84 0 -157 21t-126.5 57t-96.5 85.5t-71 103.5t-46.5 114t-26.5 115.5t-8 108.5v854h114v-854q0 -72 14 -141t46 -134.5t79.5 -115t119 -79.5t159.5 -30t160.5 30t119.5 79.5
t79.5 115t46.5 134.5t14 141v854zM1667 768q61 0 117.5 17t104.5 50t77 89t29 127q0 70 -29 125t-77 87.5t-104.5 49t-117.5 16.5h-450v-561h450zM1896 735q82 0 141.5 -59t59.5 -141v-535h-108v537q0 53 -38.5 91t-90.5 38h-646v-666h-112v1434h573q210 0 322 -101.5
t112 -259.5q0 -209 -213 -313v-25z" />
    <glyph glyph-name="V_A" horiz-adv-x="1832" 
d="M1126 1434h109l-514 -1434h-170l-531 1434h121l463 -1237q9 -24 16 -47t10 -34l3 -12h16q11 40 29 93zM1294 1434l518 -1434h-110l-139 387h-703l-141 -387h-111l518 1434h168zM895 485h633l-305 844h-25z" />
    <glyph glyph-name="a.ss01" horiz-adv-x="1126" 
d="M537 920q-89 0 -157 -35t-108 -95t-59.5 -133t-19.5 -157q0 -83 20.5 -156.5t60.5 -133.5t107.5 -95t155.5 -35q70 0 127.5 23t97 62.5t66 93.5t39 114.5t12.5 126.5q0 83 -20 156.5t-60 133.5t-107.5 95t-154.5 35zM504 -25q-107 0 -191 44.5t-134 119.5t-75.5 167
t-25.5 194q0 81 15 156t48.5 142.5t82.5 117t121.5 79t160.5 29.5q146 0 238.5 -73.5t134.5 -192.5h24q-24 102 -24 217v24h114v-999h-114v27q0 51 6 105t12 82l6 28h-24q-44 -120 -136.5 -193.5t-238.5 -73.5z" />
    <glyph glyph-name="aacute.ss01" horiz-adv-x="1126" 
d="M750 1448l-123 -242h-105l117 242h111zM537 920q-89 0 -157 -35t-108 -95t-59.5 -133t-19.5 -157q0 -83 20.5 -156.5t60.5 -133.5t107.5 -95t155.5 -35q70 0 127.5 23t97 62.5t66 93.5t39 114.5t12.5 126.5q0 83 -20 156.5t-60 133.5t-107.5 95t-154.5 35zM504 -25
q-107 0 -191 44.5t-134 119.5t-75.5 167t-25.5 194q0 81 15 156t48.5 142.5t82.5 117t121.5 79t160.5 29.5q146 0 238.5 -73.5t134.5 -192.5h24q-24 102 -24 217v24h114v-999h-114v27q0 51 6 105t12 82l6 28h-24q-44 -120 -136.5 -193.5t-238.5 -73.5z" />
    <glyph glyph-name="acircumflex.ss01" horiz-adv-x="1126" 
d="M659 1448l156 -227h-113l-106 155h-18l-107 -155h-113l156 227h145zM537 920q-89 0 -157 -35t-108 -95t-59.5 -133t-19.5 -157q0 -83 20.5 -156.5t60.5 -133.5t107.5 -95t155.5 -35q70 0 127.5 23t97 62.5t66 93.5t39 114.5t12.5 126.5q0 83 -20 156.5t-60 133.5
t-107.5 95t-154.5 35zM504 -25q-107 0 -191 44.5t-134 119.5t-75.5 167t-25.5 194q0 81 15 156t48.5 142.5t82.5 117t121.5 79t160.5 29.5q146 0 238.5 -73.5t134.5 -192.5h24q-24 102 -24 217v24h114v-999h-114v27q0 51 6 105t12 82l6 28h-24q-44 -120 -136.5 -193.5
t-238.5 -73.5z" />
    <glyph glyph-name="adieresis.ss01" horiz-adv-x="1126" 
d="M420 1305q-30 0 -52 21t-22 50q0 30 22 51t52 21t51 -21t21 -51q0 -29 -21.5 -50t-50.5 -21zM731 1305q-31 0 -53.5 21t-22.5 50q0 30 22.5 51t53.5 21q28 0 50 -21t22 -51q0 -29 -22 -50t-50 -21zM537 920q-89 0 -157 -35t-108 -95t-59.5 -133t-19.5 -157
q0 -83 20.5 -156.5t60.5 -133.5t107.5 -95t155.5 -35q70 0 127.5 23t97 62.5t66 93.5t39 114.5t12.5 126.5q0 83 -20 156.5t-60 133.5t-107.5 95t-154.5 35zM504 -25q-107 0 -191 44.5t-134 119.5t-75.5 167t-25.5 194q0 81 15 156t48.5 142.5t82.5 117t121.5 79t160.5 29.5
q146 0 238.5 -73.5t134.5 -192.5h24q-24 102 -24 217v24h114v-999h-114v27q0 51 6 105t12 82l6 28h-24q-44 -120 -136.5 -193.5t-238.5 -73.5z" />
    <glyph glyph-name="aring.ss01" horiz-adv-x="1126" 
d="M569 1311q66 0 98.5 41t32.5 98q0 54 -32.5 94.5t-98.5 40.5q-65 0 -97 -40.5t-32 -94.5q0 -56 32 -97.5t97 -41.5zM569 1669q57 0 101.5 -20t70 -52.5t38 -70t12.5 -76.5q0 -56 -21 -103.5t-73 -81.5t-128 -34q-57 0 -100.5 19.5t-68.5 51.5t-37.5 69.5t-12.5 78.5
q0 86 55 152.5t164 66.5zM537 920q-89 0 -157 -35t-108 -95t-59.5 -133t-19.5 -157q0 -83 20.5 -156.5t60.5 -133.5t107.5 -95t155.5 -35q70 0 127.5 23t97 62.5t66 93.5t39 114.5t12.5 126.5q0 83 -20 156.5t-60 133.5t-107.5 95t-154.5 35zM504 -25q-107 0 -191 44.5
t-134 119.5t-75.5 167t-25.5 194q0 81 15 156t48.5 142.5t82.5 117t121.5 79t160.5 29.5q146 0 238.5 -73.5t134.5 -192.5h24q-24 102 -24 217v24h114v-999h-114v27q0 51 6 105t12 82l6 28h-24q-44 -120 -136.5 -193.5t-238.5 -73.5z" />
    <glyph glyph-name="f.ss01" horiz-adv-x="573" 
d="M29 895h127v-895h114v895h267v104h-508v-104zM399 999q-79 0 -138.5 41t-59.5 123q0 43 17.5 76.5t47 52t63.5 28t70 9.5h138v105h-170q-52 0 -101 -14t-91 -41.5t-67.5 -75t-25.5 -109.5q0 -31 6 -58t16.5 -45.5t19 -30.5t19.5 -23l13 -13v-29z" />
    <glyph glyph-name="g.ss01" horiz-adv-x="1107" 
d="M508 162q-203 0 -325 117.5t-122 312.5q0 193 122 312.5t319 119.5q136 0 235 -73t131 -183q6 -20 45 -76.5t39 -99.5q0 -195 -122 -312.5t-322 -117.5zM508 254q151 0 246.5 94.5t95.5 243.5t-95.5 243.5t-246.5 94.5q-152 0 -248 -94.5t-96 -243.5q0 -150 95.5 -244
t248.5 -94zM891 768q-23 113 -23 176q0 22 17.5 38.5t44.5 16.5h137v-104h-88q-12 0 -19.5 -7t-7.5 -18v-278l-69 8l-15 168h23zM952 600v-561q0 -192 -122 -300t-310 -108q-85 0 -161 24t-136 70t-95.5 118.5t-35.5 162.5h103q0 -133 97 -207.5t230 -74.5q140 0 234 83.5
t94 231.5v561h102z" />
    <glyph glyph-name="k.ss01" horiz-adv-x="1067" 
d="M557 455l358 -459h134l-390 493v25q130 11 219 81t89 183q0 104 -76.5 175t-233.5 71q-77 0 -144.5 -20t-112 -50t-79 -67.5t-51.5 -69t-24 -57.5h-25q29 102 29 213v461h-115v-1434h115v455h307zM250 551q0 167 107.5 276t271.5 109q65 0 112 -16t70 -43.5t33 -55
t10 -57.5q0 -98 -92.5 -155.5t-229.5 -57.5h-282z" />
    <glyph glyph-name="o.ss01" horiz-adv-x="1204" 
d="M602 -25q-143 0 -263.5 70t-190.5 191t-70 264t70 263.5t190.5 190.5t263.5 70t263.5 -70t190.5 -190.5t70 -263.5t-70 -264t-190.5 -191t-263.5 -70zM602 80q171 0 290.5 122.5t119.5 297.5t-119.5 297.5t-290.5 122.5t-290 -122.5t-119 -297.5t119 -297.5t290 -122.5z
" />
    <glyph glyph-name="oacute.ss01" horiz-adv-x="1204" 
d="M766 1450l-123 -242h-104l116 242h111zM602 -25q-143 0 -263.5 70t-190.5 191t-70 264t70 263.5t190.5 190.5t263.5 70t263.5 -70t190.5 -190.5t70 -263.5t-70 -264t-190.5 -191t-263.5 -70zM602 80q171 0 290.5 122.5t119.5 297.5t-119.5 297.5t-290.5 122.5
t-290 -122.5t-119 -297.5t119 -297.5t290 -122.5z" />
    <glyph glyph-name="ocircumflex.ss01" horiz-adv-x="1204" 
d="M678 1448l156 -227h-113l-107 155h-18l-107 -155h-112l155 227h146zM602 -25q-143 0 -263.5 70t-190.5 191t-70 264t70 263.5t190.5 190.5t263.5 70t263.5 -70t190.5 -190.5t70 -263.5t-70 -264t-190.5 -191t-263.5 -70zM602 80q171 0 290.5 122.5t119.5 297.5
t-119.5 297.5t-290.5 122.5t-290 -122.5t-119 -297.5t119 -297.5t290 -122.5z" />
    <glyph glyph-name="odieresis.ss01" horiz-adv-x="1204" 
d="M449 1305q-30 0 -52 21t-22 50q0 30 22 51t52 21q29 0 50 -21t21 -51q0 -29 -21 -50t-50 -21zM760 1305q-31 0 -53.5 21t-22.5 50q0 30 22.5 51t53.5 21q28 0 49.5 -21t21.5 -51q0 -29 -21.5 -50t-49.5 -21zM602 -25q-143 0 -263.5 70t-190.5 191t-70 264t70 263.5
t190.5 190.5t263.5 70t263.5 -70t190.5 -190.5t70 -263.5t-70 -264t-190.5 -191t-263.5 -70zM602 80q171 0 290.5 122.5t119.5 297.5t-119.5 297.5t-290.5 122.5t-290 -122.5t-119 -297.5t119 -297.5t290 -122.5z" />
    <glyph glyph-name="ohungarumlaut.ss01" horiz-adv-x="1204" 
d="M909 1448l-123 -242h-104l117 242h110zM668 1448l-123 -242h-105l117 242h111zM602 -25q-143 0 -263.5 70t-190.5 191t-70 264t70 263.5t190.5 190.5t263.5 70t263.5 -70t190.5 -190.5t70 -263.5t-70 -264t-190.5 -191t-263.5 -70zM602 80q171 0 290.5 122.5t119.5 297.5
t-119.5 297.5t-290.5 122.5t-290 -122.5t-119 -297.5t119 -297.5t290 -122.5z" />
    <glyph glyph-name="oslash.ss01" horiz-adv-x="1216" 
d="M1085 1004l-839 -1008h-109l840 1008h108zM606 -25q-143 0 -263.5 70t-190.5 191t-70 264t70 263.5t190.5 190.5t263.5 70t263.5 -70t190.5 -190.5t70 -263.5t-70 -264t-190.5 -191t-263.5 -70zM606 80q171 0 290.5 122.5t119.5 297.5t-119.5 297.5t-290.5 122.5
t-290 -122.5t-119 -297.5t119 -297.5t290 -122.5z" />
    <glyph glyph-name="oslashacute.ss01" horiz-adv-x="1216" 
d="M799 1450l-123 -242h-105l117 242h111zM1085 1004l-839 -1008h-109l840 1008h108zM606 -25q-143 0 -263.5 70t-190.5 191t-70 264t70 263.5t190.5 190.5t263.5 70t263.5 -70t190.5 -190.5t70 -263.5t-70 -264t-190.5 -191t-263.5 -70zM606 80q171 0 290.5 122.5
t119.5 297.5t-119.5 297.5t-290.5 122.5t-290 -122.5t-119 -297.5t119 -297.5t290 -122.5z" />
    <glyph glyph-name="t.ss01" horiz-adv-x="583" 
d="M37 999v-104h127v-561q0 -65 16 -122t49.5 -106t92.5 -77.5t137 -28.5h88v90h-82q-93 0 -139.5 65.5t-46.5 153.5v586h268v104h-510zM186 1171q0 -71 -36 -121.5t-113 -50.5l156 -28v53q55 0 81.5 36.5t26.5 86.5v287h-115v-263z" />
    <glyph glyph-name="tcaron.ss01" horiz-adv-x="579" 
d="M567 1786l-12 -508h-88l-14 508h114zM29 999v-104h127v-561q0 -65 16 -122t49.5 -106t92.5 -77.5t137 -28.5h88v90h-82q-93 0 -140 66t-47 153v586h269v104h-510zM178 1171q0 -71 -36 -121.5t-113 -50.5l155 -28v53q55 0 82 37t27 86v287h-115v-263z" />
    <glyph glyph-name="a_e.dlig" horiz-adv-x="1837" 
d="M827 606q-58 -53 -424 -117q-84 -13 -144 -66.5t-60 -141.5q0 -79 53 -136.5t127 -68.5q65 -12 129 -2t135 53q73 42 116.5 109.5t57.5 146.5q10 72 10 117v106zM844 279q-2 -6 -6 -17t-19 -41.5t-33.5 -58t-50 -61t-67.5 -56.5q-134 -86 -320 -65q-105 11 -182.5 92
t-77.5 196q0 64 20 114.5t55.5 83.5t75.5 53t87 32q67 16 187.5 33t162.5 28q70 15 107 39.5t28 73.5q-15 81 -94.5 141t-198.5 60q-132 0 -220.5 -78.5t-88.5 -192.5h-113q0 152 119 260.5t305 108.5q187 0 303.5 -112t116.5 -283q0 -101 -18 -188.5t-36 -124.5l-18 -37
h-24zM1290 926q-68 0 -124.5 -21.5t-96 -57t-68.5 -83.5t-44 -99t-19 -106h707q-2 63 -24.5 126t-64.5 118t-111.5 89t-154.5 34zM936 477q2 -72 21 -139.5t58.5 -128.5t110 -98t164.5 -37q259 0 336 262h113q-18 -74 -53 -137t-88.5 -114.5t-132 -80.5t-173.5 -29
q-97 0 -177 31.5t-132.5 83t-88.5 121t-51.5 142.5t-15.5 149q0 62 11 122.5t34 120t61 109.5t88 88.5t119.5 60t151.5 21.5q118 0 209.5 -44t147 -120t83 -173.5t25.5 -209.5h-821z" />
    <glyph glyph-name="f_f.dlig" horiz-adv-x="1034" 
d="M156 1085q0 64 17 123.5t52 111.5t96 83t140 31h78v-105h-80q-64 0 -108.5 -35t-62.5 -83.5t-18 -104.5v-107h267v-104h-267v-895h-114v895h-127v104h127v86zM614 1085q0 50 10.5 98.5t34 94.5t58 80t87 55t116.5 21h77v-105h-79q-64 0 -108.5 -35t-62.5 -83.5
t-18 -104.5v-107h266v-104h-266v-895h-115v895h-127v104h127v86z" />
    <glyph glyph-name="f_f_i.dlig" horiz-adv-x="1300" 
d="M156 1085q0 64 17 123.5t52 111.5t96 83t140 31h78v-105h-80q-64 0 -108.5 -35t-62.5 -83.5t-18 -104.5v-107h267v-104h-267v-895h-114v895h-127v104h127v86zM614 1085q0 50 10.5 98.5t34 94.5t58 80t87 55t116.5 21h77v-105h-79q-64 0 -108.5 -35t-62.5 -83.5
t-18 -104.5v-107h266v-104h-266v-895h-115v895h-127v104h127v86zM1186 940v-940h-115v864q0 12 -9.5 21.5t-21.5 9.5h-79v104h165q26 0 43 -17t17 -42z" />
    <glyph glyph-name="f_f_j.dlig" horiz-adv-x="1304" 
d="M156 1085q0 64 17 123.5t52 111.5t96 83t140 31h78v-105h-80q-64 0 -108.5 -35t-62.5 -83.5t-18 -104.5v-107h267v-104h-267v-895h-114v895h-127v104h127v86zM614 1085q0 50 10.5 98.5t34 94.5t58 80t87 55t116.5 21h77v-105h-79q-64 0 -108.5 -35t-62.5 -83.5
t-18 -104.5v-107h266v-104h-266v-895h-115v895h-127v104h127v86zM1190 -283q0 -128 -79 -207t-206 -79h-94v104h78q82 0 134 50t52 141v1138q0 12 -9.5 21.5t-21.5 9.5h-83v104h167q26 0 44 -18.5t18 -44.5v-1219z" />
    <glyph glyph-name="f_f_r.dlig" horiz-adv-x="1574" 
d="M156 1085q0 64 17 123.5t52 111.5t96 83t140 31h78v-105h-80q-64 0 -108.5 -35t-62.5 -83.5t-18 -104.5v-107h267v-104h-267v-895h-114v895h-127v104h127v86zM614 1085q0 50 10.5 98.5t34 94.5t58 80t87 55t116.5 21h77v-105h-79q-64 0 -108.5 -35t-62.5 -83.5
t-18 -104.5v-107h266v-104h-266v-895h-115v895h-127v104h127v86zM1534 895q-79 0 -144 -23.5t-107.5 -63.5t-71.5 -93.5t-41.5 -111.5t-12.5 -120v-483h-115v870q0 25 -24 25h-92v104h155q29 0 47.5 -16.5t18.5 -44.5q0 -35 -5.5 -91.5t-11.5 -96.5l-6 -39h23
q40 132 137 208.5t250 79.5v-104z" />
    <glyph glyph-name="f_f_t.dlig" horiz-adv-x="1503" 
d="M1079 895h-348v-895h-115v895h-346v-895h-114v895h-127v104h127v86q0 64 17 123.5t52 111.5t96 83t140 31h78v-105h-80q-64 0 -108.5 -35t-62.5 -83.5t-18 -104.5v-107h346v86q0 50 10.5 98.5t34 94.5t58 80t87 55t116.5 21h77v-105h-79q-64 0 -108.5 -35t-62.5 -83.5
t-18 -104.5v-107h348v435h115v-435h268v-104h-268v-600q0 -79 55 -135t133 -56h80v-104h-88q-129 0 -212 86t-83 209v600z" />
    <glyph glyph-name="f_i.dlig" horiz-adv-x="841" 
d="M156 1085q0 64 17 123.5t52 111.5t96 83t140 31h78v-105h-80q-64 0 -108.5 -35t-62.5 -83.5t-18 -104.5v-107h267v-104h-267v-895h-114v895h-127v104h127v86zM729 940v-940h-115v864q0 12 -9.5 21.5t-22.5 9.5h-80v104h168q25 0 42 -17t17 -42z" />
    <glyph glyph-name="f_j.dlig" horiz-adv-x="845" 
d="M156 1085q0 64 17 123.5t52 111.5t96 83t140 31h78v-105h-80q-64 0 -108.5 -35t-62.5 -83.5t-18 -104.5v-107h267v-104h-267v-895h-114v895h-127v104h127v86zM733 -283q0 -127 -79.5 -206.5t-207.5 -79.5h-92v104h76q84 0 136 50t52 141v1138q0 12 -9.5 21.5t-22.5 9.5
h-84v104h168q26 0 44.5 -18.5t18.5 -44.5v-1219z" />
    <glyph glyph-name="f_r.dlig" horiz-adv-x="1118" 
d="M156 1085q0 64 17 123.5t52 111.5t96 83t140 31h78v-105h-80q-64 0 -108.5 -35t-62.5 -83.5t-18 -104.5v-107h267v-104h-267v-895h-114v895h-127v104h127v86zM1077 895q-80 0 -145 -23.5t-108 -63.5t-72 -93.5t-41.5 -111.5t-12.5 -120v-483h-114v870q0 25 -25 25h-92
v104h158q28 0 46.5 -17t18.5 -44q0 -35 -6 -91.5t-12 -96.5l-6 -39h22q40 131 138 208t251 80v-104z" />
    <glyph glyph-name="f_t.dlig" horiz-adv-x="1067" 
d="M156 1085q0 64 17 123.5t52 111.5t96 83t140 31h78v-105h-80q-64 0 -108.5 -35t-62.5 -83.5t-18 -104.5v-107h373v435h115v-435h268v-104h-268v-600q0 -79 55 -135t133 -56h80v-104h-88q-129 0 -212 86t-83 209v600h-373v-895h-114v895h-127v104h127v86z" />
    <glyph glyph-name="g_i.dlig" horiz-adv-x="1437" 
d="M524 162q-84 0 -164.5 31t-143 86t-100.5 137t-38 176q0 193 121.5 312.5t318.5 119.5q136 0 235.5 -73t131.5 -183q6 -20 45 -76.5t39 -99.5q0 -194 -122.5 -312t-322.5 -118zM524 258q151 0 246.5 93t95.5 241t-95.5 241t-246.5 93q-152 0 -248 -93t-96 -241t96 -241
t248 -93zM545 -504q180 0 296.5 58.5t116.5 152.5q0 62 -57.5 110.5t-151 74.5t-204.5 26q-182 0 -298 -58.5t-116 -152.5t116 -152.5t298 -58.5zM258 -47h-31q-62 0 -107.5 33.5t-45.5 95.5q0 63 45 96t108 33h49v33l248 -41v-41h-256q-38 0 -66 -20t-28 -58t28 -57t66 -19
h277q228 0 375 -83.5t147 -217.5q0 -88 -67.5 -156.5t-186 -106.5t-266.5 -38q-231 0 -377.5 81t-146.5 210q0 53 25 96t65.5 70t75 42.5t69.5 24.5v23zM907 768q-22 107 -22 170q0 26 17.5 43.5t43.5 17.5h137v-104h-86q-28 0 -28 -27v-276l-70 8l-14 168h22zM1309 942
v-942h-115v864q0 12 -10 21.5t-23 9.5h-80v104h168q24 0 42 -17t18 -40zM1174 1378q0 -30 22 -50.5t53 -20.5q29 0 50.5 20.5t21.5 50.5q0 29 -22 50.5t-50 21.5q-31 0 -53 -21.5t-22 -50.5z" />
    <glyph glyph-name="g_r.dlig" horiz-adv-x="1732" 
d="M524 162q-84 0 -164.5 31t-143 86t-100.5 137t-38 176q0 193 121.5 312.5t318.5 119.5q136 0 235.5 -73t131.5 -183q6 -20 45 -76.5t39 -99.5q0 -194 -122.5 -312t-322.5 -118zM524 258q151 0 246.5 93t95.5 241t-95.5 241t-246.5 93q-152 0 -248 -93t-96 -241t96 -241
t248 -93zM545 -504q180 0 296.5 58.5t116.5 152.5q0 62 -57.5 110.5t-151 74.5t-204.5 26q-182 0 -298 -58.5t-116 -152.5t116 -152.5t298 -58.5zM258 -47h-31q-62 0 -107.5 33.5t-45.5 95.5q0 63 45 96t108 33h49v33l248 -41v-41h-256q-38 0 -66 -20t-28 -58t28 -57t66 -19
h277q228 0 375 -83.5t147 -217.5q0 -88 -67.5 -156.5t-186 -106.5t-266.5 -38q-231 0 -377.5 81t-146.5 210q0 53 25 96t65.5 70t75 42.5t69.5 24.5v23zM907 768q-22 107 -22 170q0 26 17.5 43.5t43.5 17.5h137v-104h-86q-28 0 -28 -27v-276l-70 8l-14 168h22zM1692 895
q-79 0 -144 -23.5t-107.5 -63.5t-71.5 -93.5t-41.5 -111.5t-12.5 -120v-483h-115v870q0 25 -24 25h-93v104h156q29 0 47.5 -16.5t18.5 -44.5q0 -35 -5.5 -91.5t-11.5 -96.5l-6 -39h23q40 132 137 208.5t250 79.5v-104z" />
    <glyph glyph-name="r_i.dlig" horiz-adv-x="997" 
d="M649 999q-153 -3 -250 -79.5t-137 -208.5h-22q22 149 22 227q0 28 -18 44.5t-47 16.5h-156v-104h92q25 0 25 -25v-870h114v483q0 62 12.5 120t41.5 111.5t71.5 93.5t107.5 63.5t144 23.5v104zM866 942q0 23 -17 40t-42 17h-166v-104h80q12 0 21.5 -9.5t9.5 -21.5v-864
h114v942zM807 1307q-30 0 -52 20.5t-22 50.5q0 29 22.5 50.5t51.5 21.5t50.5 -21.5t21.5 -50.5q0 -30 -21 -50.5t-51 -20.5z" />
    <glyph glyph-name="r_j.dlig" horiz-adv-x="999" 
d="M649 999q-153 -3 -250 -79.5t-137 -208.5h-22q22 149 22 227q0 28 -18 44.5t-47 16.5h-156v-104h92q25 0 25 -25v-870h114v483q0 62 12.5 120t41.5 111.5t71.5 93.5t107.5 63.5t144 23.5v104zM868 936q0 26 -17.5 44.5t-43.5 18.5h-168v-104h84q12 0 21.5 -9.5t9.5 -21.5
v-1138q0 -77 -56 -134t-131 -57h-78v-104h93q123 0 204.5 84.5t81.5 201.5v1219zM805 1307q-30 0 -52 20.5t-22 50.5q0 29 22.5 50.5t51.5 21.5t50.5 -21.5t21.5 -50.5q0 -30 -21 -50.5t-51 -20.5z" />
    <glyph glyph-name="t_i.dlig" horiz-adv-x="888" 
d="M156 895h-127v104h127v435h114v-435h430q24 0 42 -17t18 -40v-942h-115v864q0 12 -9.5 21.5t-21.5 9.5h-344v-600q0 -79 55.5 -135t133.5 -56h80v-104h-88q-129 0 -212 86t-83 209v600zM627 1378q0 30 21.5 51t51.5 21q28 0 50 -21.5t22 -50.5q0 -30 -21.5 -50.5
t-50.5 -20.5q-31 0 -52 20t-21 51z" />
    <glyph glyph-name="t_r.dlig" horiz-adv-x="1187" 
d="M156 895h-127v104h127v435h114v-435h269v-104h-269v-600q0 -79 55.5 -135t133.5 -56h80v-104h-88q-129 0 -212 86t-83 209v600zM1147 895q-80 0 -145 -23.5t-108 -63.5t-72 -93.5t-41.5 -111.5t-12.5 -120v-483h-115v870q0 25 -24 25h-92v104h157q28 0 47 -17t19 -44
q0 -35 -6 -91.5t-12 -96.5l-7 -39h23q40 131 138 208t251 80v-104z" />
    <glyph glyph-name="t_t" horiz-adv-x="1036" 
d="M612 895h-129v104h129v435h115v-435h268v-104h-268v-600q0 -80 54 -135.5t132 -55.5h82v-104h-90q-129 0 -211 86t-82 209v600zM156 895h-127v104h127v435h114v-435h269v-104h-269v-600q0 -79 55.5 -135t133.5 -56h80v-104h-88q-129 0 -212 86t-83 209v600z" />
    </font>
</defs>
</svg>
