<?xml version="1.0" standalone="no"?>
<!DOCTYPE svg PUBLIC "-//W3C//DTD SVG 1.1//EN" "http://www.w3.org/Graphics/SVG/1.1/DTD/svg11.dtd" >
<svg xmlns="http://www.w3.org/2000/svg" xmlns:xlink="http://www.w3.org/1999/xlink" version="1.1">
<metadata>
Created by FontForge 20201107 at Sat Feb 17 11:41:00 2024
 By 
Copyright (c) 2020 by Serdar Ozturk. All rights reserved.
</metadata>
<defs>
<font id="Rota-SemiBold" horiz-adv-x="1099" >
  <font-face 
    font-family="Rota SemBd"
    font-weight="600"
    font-stretch="normal"
    units-per-em="2048"
    panose-1="0 0 0 0 0 0 0 0 0 0"
    ascent="1638"
    descent="-410"
    x-height="983"
    cap-height="1393"
    bbox="-202 -542 2558 1806"
    underline-thickness="81"
    underline-position="-203"
    unicode-range="U+000D-FB05"
  />
<missing-glyph horiz-adv-x="409" 
 />
    <glyph glyph-name="f_f" unicode="ff" horiz-adv-x="1279" 
d="M811 0v816h-441v-816h-177v816h-150v167h150v90q0 176 75.5 253.5t244.5 77.5h88v-174h-72q-84 0 -121.5 -39.5t-37.5 -127.5v-80h441v90q0 176 75 253.5t244 77.5h89v-174h-72q-84 0 -121.5 -39.5t-37.5 -127.5v-80h231v-167h-231v-816h-177z" />
    <glyph glyph-name="fi" unicode="fi" horiz-adv-x="1020" 
d="M932 0h-175v816h-380v-816h-175v816h-151v167h151v90q0 176 75 253.5t244 77.5h87v-174h-71q-84 0 -122 -39.5t-38 -127.5v-80h555v-983zM739 1278q0 47 28.5 76t77.5 29q46 0 75 -29t29 -76q0 -48 -28.5 -77.5t-75.5 -29.5q-49 0 -77.5 29.5t-28.5 77.5z" />
    <glyph glyph-name="fl" unicode="fl" horiz-adv-x="1022" 
d="M932 0h-177v816h-378v-816h-175v816h-151v167h151v90q0 176 75 253.5t244 77.5h87v-174h-71q-84 0 -122 -39.5t-38 -127.5v-80h378v410h177v-1393z" />
    <glyph glyph-name="f_f_i" unicode="ffi" horiz-adv-x="1620" 
d="M1532 0h-175v816h-410v-816h-177v816h-400v-816h-175v816h-151v167h151v90q0 176 75 253.5t244 77.5h89v-174h-72q-84 0 -122.5 -39.5t-38.5 -127.5v-80h400v90q0 176 75.5 253.5t244.5 77.5h88v-174h-72q-84 0 -121.5 -39.5t-37.5 -127.5v-80h585v-983zM1339 1278
q0 47 28 76t76 29t76.5 -29t28.5 -76q0 -48 -28.5 -77.5t-76.5 -29.5t-76 29.5t-28 77.5z" />
    <glyph glyph-name="f_f_l" unicode="ffl" horiz-adv-x="1631" 
d="M1543 0h-175v816h-403v-816h-175v816h-418v-816h-177v816h-151v167h151v90q0 176 75.5 253.5t245.5 77.5h87v-174h-72q-84 0 -121.5 -39.5t-37.5 -127.5v-80h418v90q0 176 75 253.5t244 77.5h89v-174h-72q-84 0 -122.5 -39.5t-38.5 -127.5v-80h403v410h175v-1393z" />
    <glyph glyph-name="f_t" unicode="ft" horiz-adv-x="1307" 
d="M875 1191h133v-208h231v-167h-231v-475q0 -87 38 -127t121 -40h72v-174h-87q-170 0 -245.5 77.5t-75.5 253.5v485h-456v-816h-177v816h-150v167h150v90q0 176 75.5 253.5t244.5 77.5h88v-174h-72q-84 0 -121.5 -39.5t-37.5 -127.5v-80h456z" />
    <glyph glyph-name="t_f" unicode="tf" horiz-adv-x="1264" 
d="M795 0v816h-412v-475q0 -87 38 -127t121 -40h72v-174h-86q-170 0 -246 77.5t-76 253.5v485h-152v167h152l45 208h132v-208h412v90q0 177 74.5 254t244.5 77h87v-174h-71q-84 0 -122 -39.5t-38 -127.5v-80h233v-167h-233v-816h-175z" />
    <glyph glyph-name=".notdef" horiz-adv-x="409" 
 />
    <glyph glyph-name="uni0000" horiz-adv-x="0" 
 />
    <glyph glyph-name="uni000D" horiz-adv-x="409" 
 />
    <glyph glyph-name="uni000D" horiz-adv-x="409" 
 />
    <glyph glyph-name="CR" unicode="&#xd;" horiz-adv-x="512" 
 />
    <glyph glyph-name="space" unicode=" " horiz-adv-x="409" 
 />
    <glyph glyph-name="exclam" unicode="!" horiz-adv-x="365" 
d="M247 372h-149l-14 1021h177zM66 97q0 47 28.5 75t77.5 28q46 0 74.5 -28t28.5 -75q0 -48 -28.5 -77.5t-74.5 -29.5q-49 0 -77.5 29.5t-28.5 77.5z" />
    <glyph glyph-name="quotedbl" unicode="&#x22;" horiz-adv-x="617" 
d="M228 1050h-149l-15 343h178zM536 1050h-149l-15 343h177z" />
    <glyph glyph-name="numbersign" unicode="#" horiz-adv-x="1720" 
d="M288 0l90 362h-312l42 177h315l82 326h-312l41 177h313l89 351h183l-87 -351h410l87 351h185l-89 -351h328l-42 -177h-330l-80 -326h324l-41 -177h-327l-90 -362h-186l92 362h-411l-90 -362h-184zM606 539h410l82 326h-410z" />
    <glyph glyph-name="dollar" unicode="$" horiz-adv-x="1104" 
d="M62 418h176q8 -114 101 -186.5t221 -72.5q131 0 218.5 63.5t88.5 165.5q1 47 -16 84t-42.5 61.5t-68 45t-80 32.5t-91.5 25q-15 4 -46 11q-82 19 -124 31t-108.5 41.5t-99.5 65.5t-59.5 98t-26.5 143q0 164 102.5 258t269.5 112v234h175v-236q156 -25 255.5 -122
t103.5 -255h-175q-8 101 -86.5 158t-192.5 57q-119 0 -197.5 -53.5t-79.5 -149.5q-1 -44 17 -77.5t36 -53t69.5 -39.5t74.5 -26t95 -23q19 -5 28 -7q51 -12 91 -23.5t88.5 -30.5t84.5 -40t71.5 -53t58.5 -69t36.5 -87.5t13.5 -109.5q-1 -152 -110 -259.5t-280 -133.5v-246
h-176v244q-176 24 -293 137t-123 286z" />
    <glyph glyph-name="percent" unicode="%" horiz-adv-x="1767" 
d="M70 1029q0 154 100.5 259t248.5 105t248.5 -105t100.5 -259q0 -156 -100.5 -260.5t-248.5 -104.5q-149 0 -249 104.5t-100 260.5zM706 0h-175l514 1393h176zM419 1234q-80 0 -135.5 -59.5t-55.5 -145.5q0 -87 55.5 -146t135.5 -59q81 0 136.5 59t55.5 146
q0 86 -55.5 145.5t-136.5 59.5zM986 356q0 154 100.5 258.5t248.5 104.5t248.5 -104.5t100.5 -258.5q0 -156 -100.5 -261t-248.5 -105q-149 0 -249 105t-100 261zM1335 560q-80 0 -135.5 -59t-55.5 -145q0 -87 55.5 -146t135.5 -59q81 0 136.5 59t55.5 146q0 86 -55.5 145
t-136.5 59z" />
    <glyph glyph-name="ampersand" unicode="&#x26;" horiz-adv-x="1346" 
d="M647 713l272 -289q104 147 136 317h177q-43 -233 -197 -438l287 -303h-226l-170 182q-97 -91 -203.5 -141.5t-208.5 -50.5q-198 0 -320 101.5t-122 267.5q0 140 80.5 238t222.5 168q-69 80 -106.5 153.5t-37.5 154.5q0 145 101.5 236.5t263.5 91.5q163 0 279 -123.5
t116 -296.5h-169q-10 112 -75 183t-154 71q-83 0 -132.5 -48.5t-49.5 -126.5q0 -63 52 -137t184 -210zM813 300l-326 344q-235 -107 -235 -275q0 -92 73.5 -150t195.5 -58q142 0 292 139z" />
    <glyph glyph-name="quotesingle" unicode="'" horiz-adv-x="303" 
d="M228 1050h-149l-15 343h178z" />
    <glyph glyph-name="parenleft" unicode="(" horiz-adv-x="652" 
d="M406 -326q-336 534 -336 952q0 233 88 471.5t248 437.5h184q-160 -200 -248 -437t-90 -472q-2 -197 93 -466t245 -486h-184z" />
    <glyph glyph-name="parenright" unicode=")" horiz-adv-x="652" 
d="M249 -326h-182q148 217 243 486t93 466q-2 236 -89.5 472.5t-246.5 436.5h182q160 -199 248 -437.5t88 -471.5q0 -418 -336 -952z" />
    <glyph glyph-name="asterisk" unicode="*" horiz-adv-x="611" 
d="M501 1334l51 -74l-165 -111l165 -112l-51 -74l-150 100v-159h-89v159l-152 -100l-49 74l165 112l-165 111l49 74l152 -100v159h89v-159z" />
    <glyph glyph-name="plus" unicode="+" horiz-adv-x="865" 
d="M74 544v175h273v272h174v-272h272v-175h-272v-272h-174v272h-273z" />
    <glyph glyph-name="comma" unicode="," horiz-adv-x="339" 
d="M64 97q0 47 28 75t77 28q48 0 76.5 -28t28.5 -75q0 -66 -21 -125.5t-69 -138.5l-17 -28h-98l28 54q44 75 59 131q-43 5 -67.5 34t-24.5 73z" />
    <glyph glyph-name="hyphen" unicode="-" horiz-adv-x="763" 
d="M67 544v175h619v-175h-619z" />
    <glyph glyph-name="period" unicode="." horiz-adv-x="342" 
d="M64 97q0 47 28.5 75t77.5 28q48 0 76 -28t28 -75q0 -48 -28 -77.5t-76 -29.5q-49 0 -77.5 29.5t-28.5 77.5z" />
    <glyph glyph-name="slash" unicode="/" horiz-adv-x="738" 
d="M202 0h-177l514 1393h177z" />
    <glyph glyph-name="zero" unicode="0" horiz-adv-x="1264" 
d="M61 696q0 155 41 285.5t114.5 223t180.5 144.5t234 52t234 -52t180.5 -144.5t114.5 -223t41 -285.5q0 -207 -70 -367t-200 -249.5t-300 -89.5t-300 89.5t-200 249.5t-70 367zM631 1227q-179 0 -286 -147t-107 -384q0 -239 107 -385.5t286 -146.5q180 0 287.5 146.5
t107.5 385.5q0 238 -107.5 384.5t-287.5 146.5z" />
    <glyph glyph-name="one" unicode="1" horiz-adv-x="629" 
d="M364 0v1199l-313 -116v182l345 128h143v-1393h-175z" />
    <glyph glyph-name="two" unicode="2" horiz-adv-x="1081" 
d="M256 177h758v-177h-934v146q0 89 22 164t56 128.5t90 102t109 81t128 69.5q204 101 274 170t70 166q0 92 -73 148.5t-191 56.5q-121 0 -195 -61t-80 -165h-177q4 189 132.5 292t319.5 103q193 0 316 -98t123 -277q0 -57 -16 -109t-40.5 -91.5t-63 -78t-73 -64t-82 -52.5
t-78 -42t-73.5 -34.5t-57 -26.5q-265 -132 -265 -351z" />
    <glyph glyph-name="three" unicode="3" horiz-adv-x="1114" 
d="M419 800h133q129 0 202 62t73 167q0 98 -70 154t-195 56q-126 0 -203.5 -64.5t-81.5 -176.5h-177q1 101 38.5 180.5t101.5 128.5t145.5 74.5t174.5 25.5q201 0 325 -98.5t124 -282.5q0 -194 -149 -302q86 -52 132.5 -133t46.5 -183q0 -203 -133 -310.5t-351 -107.5
q-98 0 -184 25.5t-154 75t-107.5 129t-40.5 180.5h177q4 -112 88 -176.5t221 -64.5q146 0 226.5 64.5t80.5 181.5q0 107 -82.5 168t-227.5 61h-133v166z" />
    <glyph glyph-name="four" unicode="4" horiz-adv-x="1182" 
d="M64 301v177l704 915h176v-915h168v-177h-168v-301h-176v301h-704zM283 478h485v636z" />
    <glyph glyph-name="five" unicode="5" horiz-adv-x="1069" 
d="M105 691l51 702h745v-176h-582l-26 -358h238q210 0 337 -115.5t127 -307.5q0 -208 -124.5 -327t-342.5 -119q-92 0 -173.5 26.5t-145 76.5t-101 129.5t-39.5 177.5h177q5 -108 83 -174.5t199 -66.5q137 0 214 72t77 202q0 117 -77.5 187.5t-205.5 70.5h-431z" />
    <glyph glyph-name="six" unicode="6" horiz-adv-x="1096" 
d="M64 477q0 173 105 303l468 613h203l-321 -435q5 0 16 1t16 1q135 0 246 -64.5t174 -175t63 -243.5q0 -134 -63 -246t-174 -176.5t-246 -64.5t-247 64.5t-176 176.5t-64 246zM552 783q-132 0 -221.5 -89t-89.5 -217q0 -130 89.5 -220t220.5 -90q130 0 219 90t89 220
q0 128 -88.5 217t-218.5 89z" />
    <glyph glyph-name="seven" unicode="7" horiz-adv-x="974" 
d="M921 1248l-495 -1248h-192l495 1217h-681v176h873v-145z" />
    <glyph glyph-name="eight" unicode="8" horiz-adv-x="1122" 
d="M64 393q0 110 59.5 200.5t161.5 143.5q-78 53 -121.5 129.5t-43.5 168.5q0 159 126.5 262.5t315.5 103.5q188 0 313.5 -103.5t125.5 -262.5q0 -93 -43.5 -170t-121.5 -128q102 -55 159.5 -145t57.5 -199q0 -175 -141 -289t-352 -114q-140 0 -253 51.5t-178 144t-65 207.5
zM562 1226q-114 0 -189.5 -58t-75.5 -149q0 -94 75 -155t188 -61q114 0 190 61t76 155q0 91 -75.5 149t-188.5 58zM560 659q-137 0 -228 -71t-91 -180q0 -107 90.5 -174t228.5 -67q137 0 227.5 66.5t90.5 172.5q0 110 -90.5 181.5t-227.5 71.5z" />
    <glyph glyph-name="nine" unicode="9" horiz-adv-x="1082" 
d="M1032 916q0 -175 -106 -305l-466 -611h-204l321 433q-5 0 -16 -1t-17 -1q-203 0 -342.5 141t-139.5 344t139.5 344t342.5 141q207 0 347.5 -141t140.5 -344zM544 608q132 0 221.5 90t89.5 218q0 129 -89.5 219.5t-221.5 90.5q-129 0 -217.5 -90.5t-88.5 -219.5
q0 -128 88 -218t218 -90z" />
    <glyph glyph-name="colon" unicode=":" horiz-adv-x="360" 
d="M69 868q0 47 28.5 76t77.5 29q48 0 76 -29t28 -76q0 -48 -28 -77t-76 -29q-49 0 -77.5 29t-28.5 77zM69 97q0 47 28.5 75t77.5 28q48 0 76 -28t28 -75q0 -48 -28 -77.5t-76 -29.5q-49 0 -77.5 29.5t-28.5 77.5z" />
    <glyph glyph-name="semicolon" unicode=";" horiz-adv-x="345" 
d="M64 868q0 47 28 76t77 29q48 0 76.5 -29t28.5 -76q0 -48 -28.5 -77t-76.5 -29q-49 0 -77 29t-28 77zM64 97q0 47 28 75t77 28q48 0 76.5 -28t28.5 -75q0 -66 -21 -125.5t-69 -138.5l-17 -28h-98l28 54q44 75 59 131q-43 5 -67.5 34t-24.5 73z" />
    <glyph glyph-name="less" unicode="&#x3c;" horiz-adv-x="865" 
d="M74 539v182l719 282v-181l-490 -193l490 -192v-181z" />
    <glyph glyph-name="equal" unicode="=" horiz-adv-x="869" 
d="M74 778v174h719v-174h-719zM74 365v174h719v-174h-719z" />
    <glyph glyph-name="greater" unicode="&#x3e;" horiz-adv-x="866" 
d="M74 256v181l490 192l-490 193v181l719 -282v-182z" />
    <glyph glyph-name="question" unicode="?" horiz-adv-x="1082" 
d="M570 372h-177v75q0 73 18.5 131t53.5 99t76.5 69t97.5 52q100 43 142.5 88.5t42.5 135.5q0 95 -79.5 152.5t-197.5 57.5q-115 0 -192.5 -56.5t-85.5 -158.5h-176q3 124 67.5 212.5t164 130t222.5 41.5q128 0 228.5 -42t161.5 -129.5t62 -208.5q1 -52 -7.5 -95t-19.5 -74
t-35.5 -59.5t-42 -44.5t-55 -37t-57 -30t-64.5 -29q-148 -66 -148 -205v-75zM377 97q0 47 28.5 75t77.5 28q47 0 75.5 -28.5t28.5 -74.5q0 -48 -28.5 -77.5t-75.5 -29.5q-49 0 -77.5 29.5t-28.5 77.5z" />
    <glyph glyph-name="at" unicode="@" horiz-adv-x="1789" 
d="M896 1419q168 0 318.5 -62t258.5 -168t171 -253.5t63 -312.5q0 -202 -81 -322.5t-224 -120.5q-102 0 -176.5 51t-109.5 138q-36 -76 -111.5 -121t-168.5 -45q-162 0 -261.5 106t-99.5 279t99.5 279t261.5 106q85 0 157 -41t97 -105v136h137v-442q0 -96 44.5 -149.5
t124.5 -53.5q78 0 126 86.5t48 218.5q0 137 -52.5 259t-142.5 209.5t-215.5 138.5t-266.5 51q-135 0 -259 -54.5t-214 -145.5t-143.5 -216.5t-53.5 -261.5q0 -186 89.5 -344t245 -250.5t341.5 -92.5q115 0 217.5 28.5t218.5 91.5l-1 -138q-190 -119 -428 -119
q-168 0 -320 64t-262 173.5t-175 261.5t-65 320t64 320t173 261.5t259.5 174.5t315.5 65zM614 588q0 -111 65.5 -180t170.5 -69q108 0 175 69.5t65 179.5q0 108 -67 178t-171 70q-106 0 -172 -68.5t-66 -179.5z" />
    <glyph glyph-name="A" unicode="A" horiz-adv-x="1345" 
d="M16 0l564 1393h188l564 -1393h-188l-149 367h-641l-149 -367h-189zM423 539h503l-251 621z" />
    <glyph glyph-name="B" unicode="B" horiz-adv-x="1114" 
d="M75 0v1393h525q182 0 289 -100.5t107 -275.5q0 -210 -159 -299q105 -43 163 -127.5t58 -195.5q0 -172 -111.5 -283.5t-284.5 -111.5h-587zM600 1217h-348v-431h362q94 0 149.5 60t55.5 160q0 96 -59.5 153.5t-159.5 57.5zM662 177q99 0 159 62.5t60 161.5q0 96 -72.5 158
t-194.5 62h-362v-444h410z" />
    <glyph glyph-name="C" unicode="C" horiz-adv-x="1372" 
d="M1112 911q-53 145 -163 225.5t-259 80.5q-204 0 -328 -143t-124 -378q0 -233 124.5 -376t327.5 -143q151 0 263 81.5t159 223.5h191q-53 -226 -217 -358t-395 -132q-283 0 -456.5 194t-173.5 510q0 317 173.5 511t456.5 194q231 0 392.5 -131t219.5 -359h-191z" />
    <glyph glyph-name="D" unicode="D" horiz-adv-x="1243" 
d="M508 0h-431v1393h416q331 0 509.5 -181t178.5 -516q0 -333 -175.5 -514.5t-497.5 -181.5zM493 1217h-239v-1040h254q237 0 366.5 135.5t129.5 383.5q0 252 -132 386.5t-379 134.5z" />
    <glyph glyph-name="E" unicode="E" horiz-adv-x="968" 
d="M896 1217h-644v-432h629v-177h-629v-431h659v-177h-836v1393h821v-176z" />
    <glyph glyph-name="F" unicode="F" horiz-adv-x="955" 
d="M252 0h-177v1393h821v-176h-644v-432h629v-177h-629v-608z" />
    <glyph glyph-name="G" unicode="G" horiz-adv-x="1418" 
d="M623 613v167h732q5 -52 5 -90q0 -152 -50.5 -283t-137 -221.5t-205.5 -142t-254 -51.5q-183 0 -332 88t-235.5 249.5t-86.5 366.5q0 201 83.5 362.5t232 252t334.5 90.5q211 0 366.5 -105t228.5 -293h-190q-58 106 -163.5 163.5t-239.5 57.5q-208 0 -341.5 -145
t-133.5 -383t133.5 -382.5t344.5 -144.5q187 0 315.5 120.5t150.5 323.5h-557z" />
    <glyph glyph-name="H" unicode="H" horiz-adv-x="1196" 
d="M252 0h-177v1393h177v-608h697v608h175v-1393h-175v608h-697v-608z" />
    <glyph glyph-name="I" unicode="I" horiz-adv-x="352" 
d="M264 0h-177v1393h177v-1393z" />
    <glyph glyph-name="J" unicode="J" horiz-adv-x="1060" 
d="M809 495v898h176v-898q0 -227 -128 -365t-338 -138q-179 0 -301.5 102t-155.5 278h187q26 -95 98 -149t172 -54q131 0 210.5 89t79.5 237z" />
    <glyph glyph-name="K" unicode="K" horiz-adv-x="1110" 
d="M261 0h-177v1393h177v-677l566 677h208l-578 -697l631 -696h-226l-601 665v-665z" />
    <glyph glyph-name="L" unicode="L" horiz-adv-x="969" 
d="M911 177v-177h-836v1393h177v-1216h659z" />
    <glyph glyph-name="M" unicode="M" horiz-adv-x="1441" 
d="M251 0h-177v1393h177l470 -756l472 756h177v-1393h-177v1055l-400 -627h-143l-399 627v-1055z" />
    <glyph glyph-name="N" unicode="N" horiz-adv-x="1284" 
d="M251 0h-177v1393h177l780 -1092v1092h175v-1339h2l-2 -2v-52h-175l-780 1091v-1091z" />
    <glyph glyph-name="O" unicode="O" horiz-adv-x="1397" 
d="M64 696q0 204 81 365t226 250.5t330 89.5t330.5 -89.5t226.5 -250.5t81 -365q0 -311 -178.5 -508.5t-459.5 -197.5q-185 0 -330 89.5t-226 250.5t-81 366zM701 1227q-204 0 -333 -148.5t-129 -382.5q0 -236 129 -384t333 -148t333 148t129 384t-128 383.5t-334 147.5z
" />
    <glyph glyph-name="P" unicode="P" horiz-adv-x="1094" 
d="M573 505h-321v-505h-177v1393h484q214 0 344.5 -119t130.5 -322q0 -200 -128 -323.5t-333 -123.5zM559 1217h-307v-535h321q124 0 204 75.5t80 194.5t-82.5 192t-215.5 73z" />
    <glyph glyph-name="Q" unicode="Q" horiz-adv-x="1423" 
d="M64 696q0 207 79.5 367.5t224.5 249t333 88.5q286 0 462 -194.5t176 -510.5q0 -166 -51.5 -302.5t-147.5 -231.5l167 -332h-198l-113 227q-132 -67 -295 -67q-285 0 -461 195t-176 511zM701 1227q-206 0 -334 -146.5t-128 -384.5t128 -385t334 -147t334 147t128 385
q0 239 -127 385t-335 146z" />
    <glyph glyph-name="R" unicode="R" horiz-adv-x="1119" 
d="M252 0h-177v1393h487q214 0 344.5 -119t130.5 -322q0 -156 -80 -268t-218 -155l352 -529h-210l-332 505h-297v-505zM562 1217h-310v-535h325q123 0 203 75.5t80 194.5t-82.5 192t-215.5 73z" />
    <glyph glyph-name="S" unicode="S" horiz-adv-x="1104" 
d="M62 418h176q8 -114 101 -186.5t221 -72.5q131 0 218.5 63.5t88.5 165.5q1 47 -16 84t-42.5 61.5t-68 45t-80 32.5t-91.5 25q-15 4 -46 11q-82 19 -124 31t-108.5 41.5t-99.5 65.5t-59.5 98t-26.5 143q1 93 36.5 166t98 118t143 68t174.5 23q189 0 319 -101t135 -283h-175
q-8 101 -86.5 158t-192.5 57q-119 0 -197.5 -53.5t-79.5 -149.5q-1 -44 17 -77.5t36 -53t69.5 -39.5t74.5 -26t95 -23q19 -5 28 -7q51 -12 91 -23.5t88.5 -30.5t84.5 -40t71.5 -53t58.5 -69t36.5 -87.5t13.5 -109.5q-1 -114 -64 -205t-172.5 -142.5t-245.5 -52.5
q-133 0 -244 50t-181 148.5t-75 229.5z" />
    <glyph glyph-name="T" unicode="T" 
d="M636 0h-176v1217h-424v176h1024v-176h-424v-1217z" />
    <glyph glyph-name="U" unicode="U" horiz-adv-x="1297" 
d="M80 696v697h177v-697q0 -274 93 -403t292 -129q197 0 290.5 129.5t93.5 402.5v697h177v-697q0 -345 -143.5 -525.5t-417.5 -180.5q-275 0 -418.5 180t-143.5 526z" />
    <glyph glyph-name="V" unicode="V" horiz-adv-x="1304" 
d="M744 0h-189l-542 1393h189l447 -1152l449 1152h188z" />
    <glyph glyph-name="W" unicode="W" horiz-adv-x="1756" 
d="M444 0v3l-429 1390h183l328 -1055l260 1055h181l259 -1057l329 1057h182l-431 -1393h-180l-249 1024l-253 -1024h-180z" />
    <glyph glyph-name="X" unicode="X" horiz-adv-x="1235" 
d="M1211 0h-213l-384 546l-385 -546h-213l492 696l-492 697h213l385 -546l384 546h213l-490 -697z" />
    <glyph glyph-name="Y" unicode="Y" horiz-adv-x="1200" 
d="M686 591v-591h-175v591l-496 802h203l382 -651l380 651h203z" />
    <glyph glyph-name="Z" unicode="Z" horiz-adv-x="1104" 
d="M59 0v133l742 1088h-731v172h965v-140l-735 -1081h745v-172h-986z" />
    <glyph glyph-name="bracketleft" unicode="[" horiz-adv-x="673" 
d="M111 -326v1861h503v-173h-326v-1514h326v-174h-503z" />
    <glyph glyph-name="backslash" unicode="\" horiz-adv-x="745" 
d="M539 0l-514 1393h177l514 -1393h-177z" />
    <glyph glyph-name="bracketright" unicode="]" horiz-adv-x="673" 
d="M61 -326v174h327v1514h-327v173h503v-1861h-503z" />
    <glyph glyph-name="asciicircum" unicode="^" horiz-adv-x="830" 
d="M511 1393l256 -325h-194l-158 202l-161 -202h-193l257 325h193z" />
    <glyph glyph-name="underscore" unicode="_" horiz-adv-x="758" 
d="M70 0v174h620v-174h-620z" />
    <glyph glyph-name="grave" unicode="`" horiz-adv-x="339" 
d="M161 1070l-145 323h195l89 -323h-139z" />
    <glyph glyph-name="a" unicode="a" horiz-adv-x="1143" 
d="M867 0v184q-33 -85 -127.5 -139.5t-205.5 -54.5q-211 0 -339.5 138t-128.5 365q0 226 128 364t340 138q111 0 205.5 -54.5t127.5 -140.5v183h175v-983h-175zM242 493q0 -147 87 -236.5t226 -89.5t225.5 89.5t86.5 235.5q0 144 -88 235.5t-225 91.5q-139 0 -225.5 -89.5
t-86.5 -236.5z" />
    <glyph glyph-name="b" unicode="b" horiz-adv-x="1146" 
d="M272 0h-175v1393h175v-593q33 86 127.5 140.5t205.5 54.5q212 0 340 -138t128 -364q0 -227 -128.5 -365t-339.5 -138q-111 0 -205.5 54.5t-127.5 139.5v-184zM896 493q0 147 -86 236.5t-225 89.5q-137 0 -225 -91.5t-88 -235.5q0 -146 86.5 -235.5t224.5 -89.5
q139 0 226 89.5t87 236.5z" />
    <glyph glyph-name="c" unicode="c" horiz-adv-x="1091" 
d="M542 821q-135 0 -217.5 -89.5t-82.5 -236.5t82.5 -236.5t217.5 -89.5q101 0 175 53t107 150h185q-38 -178 -162 -279t-305 -101q-213 0 -344.5 138t-131.5 365q0 225 131.5 363t344.5 138q180 0 304.5 -100.5t162.5 -277.5h-185q-35 97 -108.5 150t-173.5 53z" />
    <glyph glyph-name="d" unicode="d" horiz-adv-x="1141" 
d="M881 0v184q-33 -86 -126 -140t-204 -54q-212 0 -341.5 138t-129.5 365q0 226 129.5 364t341.5 138q109 0 203 -54.5t127 -140.5v593h177v-1393h-177zM257 493q0 -147 87 -236.5t226 -89.5t225.5 89.5t85.5 235.5q0 144 -87.5 235.5t-223.5 91.5q-139 0 -226 -89.5
t-87 -236.5z" />
    <glyph glyph-name="e" unicode="e" 
d="M800 301h186q-51 -139 -169.5 -224t-265.5 -85q-212 0 -346.5 141t-134.5 362q0 140 62.5 255t171.5 180.5t242 65.5q202 0 339 -142t137 -351q0 -44 -6 -72h-765q19 -124 100 -199t198 -75q84 0 150.5 39.5t100.5 104.5zM252 560h590q-19 119 -100.5 194t-195.5 75
q-113 0 -194 -74.5t-100 -194.5z" />
    <glyph glyph-name="f" unicode="f" horiz-adv-x="670" 
d="M202 0v816h-151v167h151v90q0 176 75 253.5t244 77.5h87v-174h-71q-84 0 -122 -39.5t-38 -127.5v-80h232v-167h-232v-816h-175z" />
    <glyph glyph-name="g" unicode="g" horiz-adv-x="1112" 
d="M855 52v132q-33 -85 -126 -139.5t-200 -54.5q-207 0 -336 138.5t-129 364.5q0 225 129.5 363.5t335.5 138.5q107 0 200.5 -56t125.5 -139v183h176v-931q0 -227 -128 -365t-336 -138q-173 0 -296 96t-163 271h185q34 -93 107 -142t167 -49q128 0 208 89.5t80 237.5z
M241 493q0 -146 87.5 -236t220.5 -90q134 0 220 90t86 235q0 141 -86.5 234t-219.5 93t-220.5 -90t-87.5 -236z" />
    <glyph glyph-name="h" unicode="h" horiz-adv-x="1033" 
d="M770 493q0 149 -70.5 237.5t-189.5 88.5q-108 0 -179.5 -92.5t-71.5 -234.5v-492h-175v1393h175v-593q29 86 106 140.5t174 54.5q187 0 296.5 -136.5t109.5 -365.5v-493h-175v493z" />
    <glyph glyph-name="i" unicode="i" horiz-adv-x="358" 
d="M74 1278q0 47 28.5 76t77.5 29q46 0 74.5 -29t28.5 -76q0 -48 -28.5 -77.5t-74.5 -29.5q-49 0 -77.5 29.5t-28.5 77.5zM269 0h-177v983h177v-983z" />
    <glyph glyph-name="j" unicode="j" horiz-adv-x="386" 
d="M88 1278q0 47 29 76t78 29q46 0 74.5 -29t28.5 -76q0 -48 -28.5 -77.5t-74.5 -29.5q-49 0 -78 29.5t-29 77.5zM282 983v-1103q0 -176 -75.5 -253.5t-245.5 -77.5h-87v174h72q84 0 121.5 39.5t37.5 127.5v1093h177z" />
    <glyph glyph-name="k" unicode="k" horiz-adv-x="924" 
d="M261 0h-177v1393h177v-874l414 464h197l-417 -491l453 -492h-228l-419 464v-464z" />
    <glyph glyph-name="l" unicode="l" horiz-adv-x="357" 
d="M267 0h-177v1393h177v-1393z" />
    <glyph glyph-name="m" unicode="m" horiz-adv-x="1720" 
d="M777 493q0 148 -70.5 237t-188.5 89q-109 0 -180 -92t-71 -235v-492h-177v983h177v-183q29 86 106 140.5t174 54.5q116 0 205.5 -56.5t140.5 -158.5q48 103 129.5 159t186.5 56q197 0 314 -137t117 -365v-493h-177v493q0 149 -70.5 237.5t-189.5 88.5
q-108 0 -178.5 -92.5t-70.5 -233.5v-493h-177v493z" />
    <glyph glyph-name="n" unicode="n" horiz-adv-x="1028" 
d="M770 493q0 148 -70.5 237t-188.5 89q-109 0 -179.5 -92t-70.5 -235v-492h-177v983h177v-183q29 86 106 140.5t174 54.5q186 0 296 -137t110 -365v-493h-177v493z" />
    <glyph glyph-name="o" unicode="o" horiz-adv-x="1082" 
d="M59 493q0 212 139 357t343 145q202 0 340 -145t138 -357q0 -140 -63 -255.5t-172.5 -181.5t-242.5 -66q-204 0 -343 144.5t-139 358.5zM541 819q-129 0 -217 -93.5t-88 -232.5q0 -140 87.5 -233t217.5 -93q129 0 216 93t87 233q0 139 -87 232.5t-216 93.5z" />
    <glyph glyph-name="p" unicode="p" horiz-adv-x="1115" 
d="M254 983v-183q32 85 125.5 139t205.5 54q211 0 339.5 -138t128.5 -365q0 -226 -128 -363.5t-340 -137.5q-111 0 -204.5 54.5t-126.5 140.5v-594h-177v1393h177zM878 490q0 147 -87.5 237.5t-226.5 90.5t-225 -90t-85 -236q0 -144 87 -235.5t224 -91.5q139 0 226 89.5
t87 235.5z" />
    <glyph glyph-name="q" unicode="q" horiz-adv-x="1123" 
d="M862 983h177v-1393h-177v594q-33 -86 -127 -140.5t-204 -54.5q-212 0 -341 137.5t-129 363.5q0 227 129 365t341 138q111 0 204.5 -54t126.5 -139v183zM238 490q0 -146 87 -235.5t226 -89.5q136 0 223.5 91.5t87.5 235.5q1 146 -85.5 236t-225.5 90t-226 -90.5
t-87 -237.5z" />
    <glyph glyph-name="r" unicode="r" horiz-adv-x="686" 
d="M636 995v-176q-181 1 -281.5 -89.5t-100.5 -256.5v-473h-175v983h175v-201q28 60 73 103.5t97.5 66.5t104.5 33t107 10z" />
    <glyph glyph-name="s" unicode="s" horiz-adv-x="866" 
d="M61 313h167q4 -71 66 -120.5t147 -51.5q80 -2 130 32.5t50 93.5q0 66 -52.5 103.5t-173.5 70.5q-54 15 -91 28.5t-80 37t-69.5 51t-44 69.5t-17.5 94q0 124 98 199t246 75q142 0 235.5 -80.5t105.5 -213.5h-159q-8 62 -59.5 102.5t-123.5 40.5q-70 1 -117.5 -33
t-49.5 -87q0 -33 17 -58t46.5 -40.5t55.5 -24.5t58 -17q6 -1 9 -2q137 -35 194 -65q147 -77 147 -248q0 -121 -102.5 -200t-257.5 -79q-146 0 -258.5 89.5t-116.5 233.5z" />
    <glyph glyph-name="t" unicode="t" horiz-adv-x="684" 
d="M252 1191h133v-208h231v-167h-231v-475q0 -87 38 -127t121 -40h72v-174h-88q-169 0 -244.5 77.5t-75.5 253.5v485h-152v167h152z" />
    <glyph glyph-name="u" unicode="u" horiz-adv-x="1007" 
d="M247 490q0 -148 70.5 -236.5t188.5 -88.5q109 0 180 92t71 235v491h177v-983h-177v184q-29 -86 -106 -140.5t-174 -54.5q-186 0 -296.5 136.5t-110.5 364.5v493h177v-493z" />
    <glyph glyph-name="v" unicode="v" horiz-adv-x="1010" 
d="M598 0h-188l-390 983h188l297 -747l296 747h187z" />
    <glyph glyph-name="w" unicode="w" horiz-adv-x="1472" 
d="M518 0h-185l-310 983h183l218 -691l220 691h183l218 -691l218 691h185l-311 -983h-183l-218 691z" />
    <glyph glyph-name="x" unicode="x" horiz-adv-x="953" 
d="M25 0l347 492l-347 491h211l241 -341l241 341h213l-348 -491l348 -492h-213l-241 341l-241 -341h-211z" />
    <glyph glyph-name="y" unicode="y" horiz-adv-x="1009" 
d="M988 983l-429 -1085q-26 -65 -43 -101.5t-43.5 -75.5t-56 -57t-72.5 -30t-102 -12h-60v173h44q54 0 90 28t64 97l30 80l-390 983h188l297 -747l296 747h187z" />
    <glyph glyph-name="z" unicode="z" horiz-adv-x="878" 
d="M59 0v133l505 678h-494v172h734v-139l-496 -672h506v-172h-755z" />
    <glyph glyph-name="braceleft" unicode="{" horiz-adv-x="776" 
d="M220 605q71 0 122 -60t51 -152v-234q0 -170 49 -240.5t169 -70.5h74v-174h-74q-211 0 -303 112t-92 368v239q0 59 -34.5 91.5t-93.5 38.5v162q58 6 93 42t35 99v229q0 256 92 368t303 112h74v-173h-74q-120 0 -169 -71t-49 -241v-224q0 -94 -51.5 -157.5t-121.5 -63.5z
" />
    <glyph glyph-name="bar" unicode="|" horiz-adv-x="445" 
d="M311 -249h-177v1724h177v-1724z" />
    <glyph glyph-name="braceright" unicode="}" horiz-adv-x="776" 
d="M555 605q-71 0 -123 63.5t-52 157.5v224q0 170 -49 241t-169 71h-74v173h74q212 0 303.5 -112t91.5 -368v-229q0 -63 35 -99t93 -42v-162q-59 -6 -93.5 -38.5t-34.5 -91.5v-239q0 -256 -91.5 -368t-303.5 -112h-74v174h74q120 0 169 70.5t49 240.5v234q0 91 52 151.5
t123 60.5z" />
    <glyph glyph-name="asciitilde" unicode="~" horiz-adv-x="891" 
d="M164 464h-115q11 129 70 207t145 78q54 0 105.5 -22.5t85 -49t77.5 -49t86 -22.5q89 0 105 143h113q-4 -127 -64 -206t-154 -79q-48 0 -90.5 14.5t-72.5 35.5t-57.5 42t-59.5 35.5t-66 14.5q-39 0 -70 -40.5t-38 -101.5z" />
    <glyph glyph-name="exclamdown" unicode="&#xa1;" horiz-adv-x="380" 
d="M72 891q0 47 29 76t78 29q47 0 75 -29t28 -76q0 -48 -27.5 -76.5t-75.5 -28.5q-49 0 -78 28.5t-29 76.5zM102 614h150l13 -1020h-177z" />
    <glyph glyph-name="cent" unicode="&#xa2;" horiz-adv-x="1096" 
d="M546 821q-135 0 -217.5 -89.5t-82.5 -236.5t82.5 -236.5t217.5 -89.5q101 0 174.5 53t106.5 150h186q-35 -156 -134.5 -254t-247.5 -120v-247h-177v247q-176 29 -280.5 162.5t-104.5 334.5q0 199 104.5 331.5t278.5 161.5v242h177v-240q148 -22 248.5 -119.5
t135.5 -252.5h-186q-35 97 -108 150t-173 53z" />
    <glyph glyph-name="sterling" unicode="&#xa3;" horiz-adv-x="1086" 
d="M75 167q68 19 107 84.5t39 159.5v207h-151v167h151v288q0 176 78 253.5t253 77.5h385v-174h-377q-85 0 -123.5 -39.5t-38.5 -127.5v-278h434v-167h-434v-207q0 -152 -92 -244h693v-167h-924v167z" />
    <glyph glyph-name="currency" unicode="&#xa4;" horiz-adv-x="1207" 
d="M118 683q0 157 79 279l-112 111l125 125l106 -107q127 94 290 94q157 0 285 -92l108 108l125 -125l-111 -111q80 -125 80 -282q0 -159 -82 -285l115 -115l-125 -124l-111 111q-125 -90 -284 -90q-162 0 -287 92l-109 -110l-125 123l115 115q-82 126 -82 283zM606 1009
q-133 0 -223 -93.5t-90 -232.5q0 -140 90 -233t223 -93t221.5 93t88.5 233q0 139 -88.5 232.5t-221.5 93.5z" />
    <glyph glyph-name="yen" unicode="&#xa5;" horiz-adv-x="1200" 
d="M238 569v173h180l-403 651h203l380 -651h2l380 651h203l-401 -651h175v-173h-271v-166h271v-174h-271v-229h-175v229h-273v174h273v166h-273z" />
    <glyph glyph-name="brokenbar" unicode="&#xa6;" horiz-adv-x="444" 
d="M305 693h-176v782h176v-782zM305 -249h-176v781h176v-781z" />
    <glyph glyph-name="section" unicode="&#xa7;" horiz-adv-x="1001" 
d="M57 -21h159q7 -100 89.5 -164t194.5 -64q115 0 191.5 55t78.5 145q1 41 -14 74t-37 54.5t-59.5 39.5t-70.5 28.5t-81 22.5q-150 36 -183 47q-149 50 -199 151q-31 62 -31 148q0 182 144 282q-144 78 -144 260q1 110 56 187t143.5 112.5t201.5 35.5q168 0 283.5 -89.5
t119.5 -251.5h-158q-7 89 -76 138.5t-169 49.5q-105 0 -173 -47t-69 -131q-1 -37 12.5 -66t31.5 -46.5t55 -33.5t64 -23.5t78 -20.5q54 -12 92 -22t87 -27.5t82.5 -36t69 -47.5t56.5 -62.5t34 -80t13 -101.5q-3 -172 -159 -259q159 -97 159 -284q-2 -153 -124 -252
t-304 -101q-182 0 -310 103.5t-134 276.5zM519 323q112 4 180.5 46.5t70.5 125.5q1 51 -19 88t-61 61.5t-81 39t-101 29.5l-30 6q-95 -5 -159 -61.5t-65 -139.5q0 -25 4.5 -45.5t16.5 -37t23 -29t34 -24t38 -18t46.5 -15.5t48.5 -13t54 -13z" />
    <glyph glyph-name="dieresis" unicode="&#xa8;" horiz-adv-x="648" 
d="M34 1278q0 47 29 76t78 29q47 0 75 -29t28 -76q0 -48 -27.5 -77.5t-75.5 -29.5q-49 0 -78 29.5t-29 77.5zM401 1278q0 47 28.5 76t76.5 29t76.5 -29t28.5 -76q0 -48 -28.5 -77.5t-76.5 -29.5t-76.5 29.5t-28.5 77.5z" />
    <glyph glyph-name="copyright" unicode="&#xa9;" horiz-adv-x="1559" 
d="M70 696q0 146 55.5 276.5t149.5 224.5t225 149t277 55t276.5 -55t225 -149t149.5 -224.5t55 -276.5t-55 -276.5t-149 -225t-225 -149.5t-277 -55t-277 55t-225 149.5t-149.5 225t-55.5 276.5zM777 1260q-117 0 -222 -43.5t-180.5 -118.5t-119.5 -180t-44 -222
q0 -157 74.5 -286.5t204.5 -204t287 -74.5t287 74.5t204 204t74 286.5t-74.5 286.5t-204 203.5t-286.5 74zM775 914q-93 0 -150.5 -62.5t-57.5 -165.5q0 -102 57.5 -164.5t150.5 -62.5q71 0 122.5 37.5t74.5 104.5h136q-29 -127 -116.5 -198.5t-216.5 -71.5
q-151 0 -243.5 97t-92.5 258t93 259.5t243 98.5q128 0 216 -71.5t117 -197.5h-136q-23 67 -74 103t-123 36z" />
    <glyph glyph-name="ordfeminine" unicode="&#xaa;" horiz-adv-x="532" 
d="M387 922v74q-15 -33 -57.5 -55.5t-88.5 -22.5q-84 0 -135.5 42t-51.5 110q0 71 47.5 104.5t149.5 33.5h136v6q0 53 -30 82t-83 29q-42 0 -73 -19t-36 -49h-95q5 66 62 110t138 44q96 0 151.5 -53t55.5 -144v-292h-90zM146 1076q0 -33 28 -51.5t78 -18.5q57 0 96 32.5
t39 82.5v24h-135q-106 0 -106 -69z" />
    <glyph glyph-name="guillemotleft" unicode="&#xab;" horiz-adv-x="1305" 
d="M80 588l367 395h241l-367 -395l367 -395h-241zM616 588l367 395h241l-367 -395l367 -395h-241z" />
    <glyph glyph-name="logicalnot" unicode="&#xac;" horiz-adv-x="1007" 
d="M85 808v175h823v-501h-177v326h-646z" />
    <glyph glyph-name="registered" unicode="&#xae;" horiz-adv-x="840" 
d="M59 1042q0 151 104 255t256 104q150 0 254.5 -104t104.5 -255q0 -152 -104 -256t-255 -104t-255.5 104t-104.5 256zM419 1343q-127 0 -214 -87t-87 -214t87 -214t214 -87t214.5 87t87.5 214t-87.5 214t-214.5 87zM344 845h-56v400h140q62 0 99 -34.5t37 -93.5
q0 -43 -21 -74t-58 -45l97 -153h-68l-90 143h-80v-143zM428 1189h-84v-145h87q33 0 54 20.5t21 52.5q0 33 -20.5 52.5t-57.5 19.5z" />
    <glyph glyph-name="macron" unicode="&#xaf;" horiz-adv-x="871" 
d="M72 1165v175h728v-175h-728z" />
    <glyph glyph-name="degree" unicode="&#xb0;" horiz-adv-x="642" 
d="M46 1357q0 121 79 202t196 81t196 -81t79 -202t-79 -202.5t-196 -81.5t-196 81.5t-79 202.5zM321 1506q-60 0 -102 -43t-42 -106q0 -64 41 -106.5t103 -42.5q61 0 102 42.5t41 106.5t-41 106.5t-102 42.5z" />
    <glyph glyph-name="plusminus" unicode="&#xb1;" horiz-adv-x="873" 
d="M74 791v174h273v272h174v-272h272v-174h-272v-273h-174v273h-273zM74 218v174h719v-174h-719z" />
    <glyph glyph-name="twosuperior" unicode="&#xb2;" horiz-adv-x="550" 
d="M46 708v72q0 55 14.5 97.5t45 74.5t61 53t77.5 45q99 50 132.5 84t33.5 83q0 43 -35 70t-92 27q-58 0 -93.5 -29.5t-37.5 -78.5h-91q1 93 64.5 144t157.5 51q98 0 158 -48t60 -139q0 -32 -9 -60.5t-27 -51.5t-36.5 -41t-45 -34t-44 -25t-43 -21t-32.5 -16
q-127 -62 -130 -167h372v-90h-460z" />
    <glyph glyph-name="threesuperior" unicode="&#xb3;" horiz-adv-x="563" 
d="M223 1117h67q57 0 90 27t33 72q0 43 -31.5 67t-86.5 24q-58 0 -90.5 -26.5t-34.5 -74.5h-106q0 101 66.5 152t164.5 51q101 0 163.5 -50.5t62.5 -146.5q0 -89 -64 -142q79 -55 79 -152q0 -102 -67.5 -156t-173.5 -54q-105 0 -175.5 51.5t-70.5 149.5h105
q2 -47 39.5 -73.5t101.5 -26.5q63 0 98.5 28.5t35.5 78.5q0 47 -37 73.5t-104 26.5h-65v101z" />
    <glyph glyph-name="acute" unicode="&#xb4;" horiz-adv-x="352" 
d="M179 1070h-140l89 323h195z" />
    <glyph glyph-name="paragraph" unicode="&#xb6;" horiz-adv-x="1328" 
d="M1045 -210v1427h-300v-1427h-176v721q-212 0 -347 125t-135 318q0 194 130 316.5t352 122.5h652v-1603h-176z" />
    <glyph glyph-name="periodcentered" unicode="&#xb7;" horiz-adv-x="394" 
d="M87 744q0 48 28.5 76.5t77.5 28.5q47 0 75.5 -28.5t28.5 -76.5t-28.5 -76.5t-75.5 -28.5q-49 0 -77.5 28.5t-28.5 76.5z" />
    <glyph glyph-name="cedilla" unicode="&#xb8;" horiz-adv-x="221" 
d="M-56 -274l95 295h141l-59 -295h-177z" />
    <glyph glyph-name="onesuperior" unicode="&#xb9;" horiz-adv-x="352" 
d="M197 708v585l-154 -58v95l170 63h74v-685h-90z" />
    <glyph glyph-name="ordmasculine" unicode="&#xba;" horiz-adv-x="645" 
d="M44 1053q0 155 76.5 251.5t203.5 96.5q125 0 202 -97t77 -251q0 -153 -77 -249t-202 -96q-127 0 -203.5 96t-76.5 249zM324 1312q-86 0 -138 -72t-52 -187q0 -114 52 -185.5t138 -71.5t137.5 71.5t51.5 185.5q0 116 -51.5 187.5t-137.5 71.5z" />
    <glyph glyph-name="guillemotright" unicode="&#xbb;" horiz-adv-x="1299" 
d="M1224 588l-367 -395h-241l367 395l-367 395h241zM688 588l-367 -395h-241l367 395l-367 395h241z" />
    <glyph glyph-name="onequarter" unicode="&#xbc;" horiz-adv-x="1413" 
d="M449 0h-111l514 1393h111zM224 708v585l-154 -58v95l169 63h74v-685h-89zM806 149v90l347 446h91v-446h85v-90h-85v-149h-91v149h-347zM921 239h232v305z" />
    <glyph glyph-name="questiondown" unicode="&#xbf;" horiz-adv-x="1015" 
d="M680 890q0 -48 -28.5 -76.5t-76.5 -28.5t-76.5 28.5t-28.5 76.5q0 47 28.5 76t76.5 29t76.5 -29t28.5 -76zM487 613h177v-76q0 -73 -18 -130.5t-53.5 -98t-76.5 -68.5t-98 -53q-100 -43 -142.5 -89t-42.5 -136q0 -94 79.5 -151.5t197.5 -57.5q115 0 192.5 56t85.5 158
h175q-4 -183 -133.5 -283t-319.5 -100q-128 0 -229 42t-162 129.5t-62 208.5q0 40 4.5 75t11.5 62t21.5 52t26.5 42.5t34.5 36t37.5 29t44 25.5t44.5 22t48.5 22q6 3 9 4q148 65 148 205v74z" />
    <glyph glyph-name="Agrave" unicode="&#xc0;" horiz-adv-x="1345" 
d="M598 1479l-144 323h195l88 -323h-139zM16 0l564 1393h188l564 -1393h-188l-149 367h-641l-149 -367h-189zM423 539h503l-251 621z" />
    <glyph glyph-name="Aacute" unicode="&#xc1;" horiz-adv-x="1345" 
d="M744 1479h-141l88 323h195zM16 0l564 1393h188l564 -1393h-188l-149 367h-641l-149 -367h-189zM423 539h503l-251 621z" />
    <glyph glyph-name="Acircumflex" unicode="&#xc2;" horiz-adv-x="1345" 
d="M768 1802l258 -324h-194l-160 201l-159 -201h-194l256 324h193zM16 0l564 1393h188l564 -1393h-188l-149 367h-641l-149 -367h-189zM423 539h503l-251 621z" />
    <glyph glyph-name="Atilde" unicode="&#xc3;" horiz-adv-x="1345" 
d="M410 1517h-115q10 130 66.5 207.5t139.5 77.5q43 0 83 -14.5t71.5 -35.5t60.5 -42t60.5 -35.5t60.5 -14.5q41 0 66 36.5t31 105.5h115q-4 -127 -62 -206t-148 -79q-55 0 -104 22.5t-79 49.5t-69 49.5t-77 22.5q-36 0 -64.5 -40.5t-35.5 -103.5zM16 0l564 1393h188
l564 -1393h-188l-149 367h-641l-149 -367h-189zM423 539h503l-251 621z" />
    <glyph glyph-name="Adieresis" unicode="&#xc4;" horiz-adv-x="1345" 
d="M385 1688q0 47 28 75.5t77 28.5q48 0 76.5 -28.5t28.5 -75.5q0 -48 -28.5 -77.5t-76.5 -29.5q-49 0 -77 29t-28 78zM750 1688q0 47 28.5 75.5t76.5 28.5t76.5 -28.5t28.5 -75.5q0 -48 -28.5 -77.5t-76.5 -29.5t-76.5 29.5t-28.5 77.5zM16 0l564 1393h188l564 -1393h-188
l-149 367h-641l-149 -367h-189zM423 539h503l-251 621z" />
    <glyph glyph-name="Aring" unicode="&#xc5;" horiz-adv-x="1345" 
d="M16 0l553 1366q-64 48 -64 136q0 76 47.5 122.5t122.5 46.5q73 0 120 -46.5t47 -122.5q0 -90 -62 -136l552 -1366h-188l-149 367h-641l-149 -367h-189zM675 1594q-40 0 -66.5 -26t-26.5 -67q0 -40 27 -66t66 -26q38 0 65 26.5t27 65.5q0 41 -26.5 67t-65.5 26zM423 539
h503l-251 621z" />
    <glyph glyph-name="AE" unicode="&#xc6;" horiz-adv-x="1957" 
d="M1886 1217h-644v-432h629v-177h-629v-431h659v-177h-836v367h-559l-270 -367h-211l1027 1393h834v-176zM632 539h433v585z" />
    <glyph glyph-name="Ccedilla" unicode="&#xc7;" horiz-adv-x="1372" 
d="M1112 911q-53 145 -163 225.5t-259 80.5q-204 0 -328 -143t-124 -378q0 -233 124.5 -376t327.5 -143q151 0 263 81.5t159 223.5h191q-46 -198 -179 -325.5t-323 -156.5l-56 -274h-176l85 267q-268 14 -430.5 205.5t-162.5 497.5q0 317 173.5 511t456.5 194
q231 0 392.5 -131t219.5 -359h-191z" />
    <glyph glyph-name="Egrave" unicode="&#xc8;" horiz-adv-x="968" 
d="M454 1479l-144 323h196l89 -323h-141zM896 1217h-644v-432h629v-177h-629v-431h659v-177h-836v1393h821v-176z" />
    <glyph glyph-name="Eacute" unicode="&#xc9;" horiz-adv-x="968" 
d="M554 1479h-139l88 323h195zM896 1217h-644v-432h629v-177h-629v-431h659v-177h-836v1393h821v-176z" />
    <glyph glyph-name="Ecircumflex" unicode="&#xca;" horiz-adv-x="968" 
d="M580 1802l257 -324h-193l-161 201l-159 -201h-193l256 324h193zM896 1217h-644v-432h629v-177h-629v-431h659v-177h-836v1393h821v-176z" />
    <glyph glyph-name="Edieresis" unicode="&#xcb;" horiz-adv-x="968" 
d="M197 1688q0 47 28.5 75.5t77.5 28.5q46 0 74.5 -28.5t28.5 -75.5q0 -48 -28.5 -77.5t-74.5 -29.5q-49 0 -77.5 29.5t-28.5 77.5zM562 1688q0 47 28.5 75.5t77.5 28.5q48 0 76 -28.5t28 -75.5q0 -48 -28 -77.5t-76 -29.5q-49 0 -77.5 29.5t-28.5 77.5zM896 1217h-644v-432
h629v-177h-629v-431h659v-177h-836v1393h821v-176z" />
    <glyph glyph-name="Igrave" unicode="&#xcc;" horiz-adv-x="347" 
d="M105 1479l-144 323h196l89 -323h-141zM264 0h-176v1393h176v-1393z" />
    <glyph glyph-name="Iacute" unicode="&#xcd;" horiz-adv-x="347" 
d="M239 1479h-139l88 323h195zM264 0h-176v1393h176v-1393z" />
    <glyph glyph-name="Icircumflex" unicode="&#xce;" horiz-adv-x="347" 
d="M269 1802l257 -324h-193l-161 201l-159 -201h-193l255 324h194zM264 0h-176v1393h176v-1393z" />
    <glyph glyph-name="Idieresis" unicode="&#xcf;" horiz-adv-x="347" 
d="M-115 1688q0 47 28.5 75.5t76.5 28.5t76.5 -28.5t28.5 -75.5q0 -48 -28.5 -77.5t-76.5 -29.5t-76.5 29.5t-28.5 77.5zM251 1688q0 47 28.5 75.5t77.5 28.5q46 0 74.5 -28.5t28.5 -75.5q0 -48 -28.5 -77.5t-74.5 -29.5q-49 0 -77.5 29.5t-28.5 77.5zM264 0h-176v1393h176
v-1393z" />
    <glyph glyph-name="Eth" unicode="&#xd0;" horiz-adv-x="1297" 
d="M562 0h-429v626h-90v174h90v593h414q333 0 511.5 -180.5t178.5 -516.5q0 -333 -176 -514.5t-499 -181.5zM547 1217h-237v-417h352v-174h-352v-449h252q237 0 367.5 135.5t130.5 383.5q0 252 -132.5 386.5t-380.5 134.5z" />
    <glyph glyph-name="Ntilde" unicode="&#xd1;" horiz-adv-x="1284" 
d="M364 1517h-115q11 130 67 207.5t139 77.5q43 0 83 -14.5t71.5 -35.5t60.5 -42t60.5 -35.5t60.5 -14.5q41 0 66 36.5t31 105.5h115q-4 -127 -62 -206t-148 -79q-45 0 -85 15t-69 36t-55.5 42t-57 36t-61.5 15q-37 0 -65 -40.5t-36 -103.5zM251 0h-177v1393h177l780 -1092
v1092h175v-1339h2l-2 -2v-52h-175l-780 1091v-1091z" />
    <glyph glyph-name="Ograve" unicode="&#xd2;" horiz-adv-x="1392" 
d="M631 1479l-144 323h195l88 -323h-139zM64 696q0 204 81 365t226 250.5t330 89.5t330.5 -89.5t226.5 -250.5t81 -365q0 -311 -178.5 -508.5t-459.5 -197.5q-185 0 -330 89.5t-226 250.5t-81 366zM701 1227q-204 0 -333 -148.5t-129 -382.5q0 -236 129 -384t333 -148
t333 148t129 384t-128 383.5t-334 147.5z" />
    <glyph glyph-name="Oacute" unicode="&#xd3;" horiz-adv-x="1392" 
d="M755 1479h-141l89 323h195zM64 696q0 204 81 365t226 250.5t330 89.5t330.5 -89.5t226.5 -250.5t81 -365q0 -311 -178.5 -508.5t-459.5 -197.5q-185 0 -330 89.5t-226 250.5t-81 366zM701 1227q-204 0 -333 -148.5t-129 -382.5q0 -236 129 -384t333 -148t333 148t129 384
t-128 383.5t-334 147.5z" />
    <glyph glyph-name="Ocircumflex" unicode="&#xd4;" horiz-adv-x="1392" 
d="M793 1802l256 -324h-192l-161 201l-160 -201h-192l256 324h193zM64 696q0 204 81 365t226 250.5t330 89.5t330.5 -89.5t226.5 -250.5t81 -365q0 -311 -178.5 -508.5t-459.5 -197.5q-185 0 -330 89.5t-226 250.5t-81 366zM701 1227q-204 0 -333 -148.5t-129 -382.5
q0 -236 129 -384t333 -148t333 148t129 384t-128 383.5t-334 147.5z" />
    <glyph glyph-name="Otilde" unicode="&#xd5;" horiz-adv-x="1392" 
d="M436 1517h-115q10 130 66.5 207.5t140.5 77.5q42 0 82 -14.5t71 -35.5t60 -42t60.5 -35.5t60.5 -14.5q41 0 65.5 36.5t30.5 105.5h115q-4 -128 -61.5 -206.5t-148.5 -78.5q-55 0 -103.5 22.5t-78.5 49.5t-69 49.5t-76 22.5t-65.5 -40.5t-34.5 -103.5zM64 696
q0 204 81 365t226 250.5t330 89.5t330.5 -89.5t226.5 -250.5t81 -365q0 -311 -178.5 -508.5t-459.5 -197.5q-185 0 -330 89.5t-226 250.5t-81 366zM701 1227q-204 0 -333 -148.5t-129 -382.5q0 -236 129 -384t333 -148t333 148t129 384t-128 383.5t-334 147.5z" />
    <glyph glyph-name="Odieresis" unicode="&#xd6;" horiz-adv-x="1392" 
d="M410 1688q0 47 28 75.5t76 28.5t76.5 -28.5t28.5 -75.5q0 -48 -28.5 -77.5t-76.5 -29.5t-76 29.5t-28 77.5zM775 1688q0 47 28.5 75.5t77.5 28.5q47 0 75.5 -29t28.5 -75q0 -48 -28.5 -77.5t-75.5 -29.5q-49 0 -77.5 29.5t-28.5 77.5zM64 696q0 204 81 365t226 250.5
t330 89.5t330.5 -89.5t226.5 -250.5t81 -365q0 -311 -178.5 -508.5t-459.5 -197.5q-185 0 -330 89.5t-226 250.5t-81 366zM701 1227q-204 0 -333 -148.5t-129 -382.5q0 -236 129 -384t333 -148t333 148t129 384t-128 383.5t-334 147.5z" />
    <glyph glyph-name="multiply" unicode="&#xd7;" horiz-adv-x="802" 
d="M211 316l-124 123l193 193l-192 192l123 125l192 -194l192 192l124 -123l-191 -192l191 -191l-123 -125l-193 194z" />
    <glyph glyph-name="Oslash" unicode="&#xd8;" horiz-adv-x="1392" 
d="M64 696q0 204 81 365t226 250.5t330 89.5q70 0 153 -17l34 91h175l-55 -151q155 -84 243 -249t88 -379q0 -311 -178.5 -508.5t-459.5 -197.5q-91 0 -178 25l-48 -130h-177l72 195q-144 88 -225 249t-81 367zM701 1227q-204 0 -333 -148.5t-129 -382.5q0 -144 51.5 -259.5
t143.5 -185.5l359 968q-33 8 -92 8zM947 1157l-364 -978q57 -15 118 -15q204 0 333 148t129 384q0 154 -57 274t-159 187z" />
    <glyph glyph-name="Ugrave" unicode="&#xd9;" horiz-adv-x="1297" 
d="M575 1479l-144 323h195l88 -323h-139zM80 696v697h177v-697q0 -274 93 -403t292 -129q197 0 290.5 129.5t93.5 402.5v697h177v-697q0 -345 -143.5 -525.5t-417.5 -180.5q-275 0 -418.5 180t-143.5 526z" />
    <glyph glyph-name="Uacute" unicode="&#xda;" horiz-adv-x="1297" 
d="M691 1479h-139l89 323h195zM80 696v697h177v-697q0 -274 93 -403t292 -129q197 0 290.5 129.5t93.5 402.5v697h177v-697q0 -345 -143.5 -525.5t-417.5 -180.5q-275 0 -418.5 180t-143.5 526z" />
    <glyph glyph-name="Ucircumflex" unicode="&#xdb;" horiz-adv-x="1297" 
d="M745 1802l258 -324h-194l-160 201l-159 -201h-193l255 324h193zM80 696v697h177v-697q0 -274 93 -403t292 -129q197 0 290.5 129.5t93.5 402.5v697h177v-697q0 -345 -143.5 -525.5t-417.5 -180.5q-275 0 -418.5 180t-143.5 526z" />
    <glyph glyph-name="Udieresis" unicode="&#xdc;" horiz-adv-x="1297" 
d="M360 1688q0 47 29 75.5t78 28.5q46 0 74.5 -28.5t28.5 -75.5q0 -48 -28.5 -77.5t-74.5 -29.5q-49 0 -78 29.5t-29 77.5zM727 1688q0 47 28 75.5t77 28.5q48 0 76.5 -28.5t28.5 -75.5q0 -48 -28.5 -77.5t-76.5 -29.5q-49 0 -77 29t-28 78zM80 696v697h177v-697
q0 -274 93 -403t292 -129q197 0 290.5 129.5t93.5 402.5v697h177v-697q0 -345 -143.5 -525.5t-417.5 -180.5q-275 0 -418.5 180t-143.5 526z" />
    <glyph glyph-name="Yacute" unicode="&#xdd;" horiz-adv-x="1200" 
d="M660 1479h-139l88 323h195zM686 591v-591h-175v591l-496 802h203l382 -651l380 651h203z" />
    <glyph glyph-name="Thorn" unicode="&#xde;" horiz-adv-x="1132" 
d="M254 1393v-387q32 85 125.5 139t205.5 54q211 0 339.5 -138t128.5 -365q0 -226 -128 -363.5t-340 -137.5q-111 0 -204.5 54.5t-126.5 140.5v-390h-177v1393h177zM878 696q0 147 -87.5 237.5t-226.5 90.5t-225 -90t-85 -236q0 -144 87 -235t224 -91q139 0 226 89t87 235z
" />
    <glyph glyph-name="germandbls" unicode="&#xdf;" horiz-adv-x="1024" 
d="M90 927q0 105 21.5 187t57 134t87 85t106.5 46.5t120 13.5q167 0 269.5 -83.5t102.5 -218.5q0 -107 -61 -210.5t-172 -187.5q156 -23 246 -109.5t90 -216.5q0 -171 -108 -269t-298 -98h-102v165h93q115 0 179.5 58t64.5 159q0 93 -90 144t-241 51v159q8 8 51.5 48.5
t71.5 69.5t57 73t32 79q21 87 -33.5 151.5t-150.5 64.5q-101 0 -162.5 -74t-61.5 -221v-927h-169v927z" />
    <glyph glyph-name="agrave" unicode="&#xe0;" horiz-adv-x="1143" 
d="M469 1070l-145 323h197l88 -323h-140zM867 0v184q-33 -85 -127.5 -139.5t-205.5 -54.5q-211 0 -339.5 138t-128.5 365q0 226 128 364t340 138q111 0 205.5 -54.5t127.5 -140.5v183h175v-983h-175zM242 493q0 -147 87 -236.5t226 -89.5t225.5 89.5t86.5 235.5
q0 144 -88 235.5t-225 91.5q-139 0 -225.5 -89.5t-86.5 -236.5z" />
    <glyph glyph-name="aacute" unicode="&#xe1;" horiz-adv-x="1143" 
d="M613 1070h-141l88 323h195zM867 0v184q-33 -85 -127.5 -139.5t-205.5 -54.5q-211 0 -339.5 138t-128.5 365q0 226 128 364t340 138q111 0 205.5 -54.5t127.5 -140.5v183h175v-983h-175zM242 493q0 -147 87 -236.5t226 -89.5t225.5 89.5t86.5 235.5q0 144 -88 235.5
t-225 91.5q-139 0 -225.5 -89.5t-86.5 -236.5z" />
    <glyph glyph-name="acircumflex" unicode="&#xe2;" horiz-adv-x="1143" 
d="M668 1393l256 -325h-193l-159 202l-161 -202h-193l257 325h193zM867 0v184q-33 -85 -127.5 -139.5t-205.5 -54.5q-211 0 -339.5 138t-128.5 365q0 226 128 364t340 138q111 0 205.5 -54.5t127.5 -140.5v183h175v-983h-175zM242 493q0 -147 87 -236.5t226 -89.5
t225.5 89.5t86.5 235.5q0 144 -88 235.5t-225 91.5q-139 0 -225.5 -89.5t-86.5 -236.5z" />
    <glyph glyph-name="atilde" unicode="&#xe3;" horiz-adv-x="1143" 
d="M293 1108h-114q10 130 66 207.5t140 77.5q51 0 101 -22.5t82.5 -49t73.5 -49t77 -22.5q83 0 99 143h113q-4 -128 -61 -206.5t-147 -78.5q-45 0 -85.5 15t-69.5 36t-55.5 42t-57.5 36t-62 15q-37 0 -65.5 -40.5t-34.5 -103.5zM867 0v184q-33 -85 -127.5 -139.5
t-205.5 -54.5q-211 0 -339.5 138t-128.5 365q0 226 128 364t340 138q111 0 205.5 -54.5t127.5 -140.5v183h175v-983h-175zM242 493q0 -147 87 -236.5t226 -89.5t225.5 89.5t86.5 235.5q0 144 -88 235.5t-225 91.5q-139 0 -225.5 -89.5t-86.5 -236.5z" />
    <glyph glyph-name="adieresis" unicode="&#xe4;" horiz-adv-x="1143" 
d="M285 1278q0 47 28 76t77 29q48 0 76.5 -29t28.5 -76q0 -48 -28.5 -77.5t-76.5 -29.5q-49 0 -77 29t-28 78zM650 1278q0 47 28.5 76t76.5 29t76.5 -29t28.5 -76q0 -48 -28.5 -77.5t-76.5 -29.5t-76.5 29.5t-28.5 77.5zM867 0v184q-33 -85 -127.5 -139.5t-205.5 -54.5
q-211 0 -339.5 138t-128.5 365q0 226 128 364t340 138q111 0 205.5 -54.5t127.5 -140.5v183h175v-983h-175zM242 493q0 -147 87 -236.5t226 -89.5t225.5 89.5t86.5 235.5q0 144 -88 235.5t-225 91.5q-139 0 -225.5 -89.5t-86.5 -236.5z" />
    <glyph glyph-name="aring" unicode="&#xe5;" horiz-adv-x="1143" 
d="M374 1227q0 76 47.5 122.5t122.5 46.5q73 0 120 -46.5t47 -122.5q0 -75 -47 -122t-120 -47q-75 0 -122.5 47t-47.5 122zM544 1319q-40 0 -66.5 -25.5t-26.5 -66.5q0 -40 27 -66t66 -26q38 0 65 26.5t27 65.5q0 40 -26.5 66t-65.5 26zM867 0v184q-33 -85 -127.5 -139.5
t-205.5 -54.5q-211 0 -339.5 138t-128.5 365q0 226 128 364t340 138q111 0 205.5 -54.5t127.5 -140.5v183h175v-983h-175zM242 493q0 -147 87 -236.5t226 -89.5t225.5 89.5t86.5 235.5q0 144 -88 235.5t-225 91.5q-139 0 -225.5 -89.5t-86.5 -236.5z" />
    <glyph glyph-name="ae" unicode="&#xe6;" horiz-adv-x="1893" 
d="M867 0v184q-33 -85 -127.5 -139.5t-205.5 -54.5q-211 0 -339.5 138t-128.5 365q0 226 128 364t340 138q111 0 205.5 -54.5t127.5 -140.5v183h175v-95q128 107 300 107q202 0 338.5 -142.5t136.5 -351.5q0 -34 -5 -72h-765q19 -124 99.5 -198.5t196.5 -74.5
q85 0 151.5 39.5t99.5 104.5h187q-51 -139 -170 -224.5t-266 -85.5q-175 0 -303 102v-92h-175zM1047 559h590q-17 118 -99 193t-196 75q-113 0 -194 -74t-101 -194zM242 493q0 -147 87 -236.5t226 -89.5q142 0 227 91.5t85 234.5q0 140 -87 233t-226 93t-225.5 -89.5
t-86.5 -236.5z" />
    <glyph glyph-name="ccedilla" unicode="&#xe7;" horiz-adv-x="1096" 
d="M546 821q-135 0 -217.5 -89.5t-82.5 -236.5t82.5 -236.5t217.5 -89.5q101 0 174.5 53t106.5 150h186q-34 -158 -136.5 -256t-253.5 -119l-54 -271h-177l85 269q-186 22 -297 157t-111 343q0 225 132 363t345 138q180 0 304.5 -100.5t162.5 -277.5h-186q-35 97 -108 150
t-173 53z" />
    <glyph glyph-name="egrave" unicode="&#xe8;" 
d="M490 1070l-144 323h196l89 -323h-141zM800 301h186q-51 -139 -169.5 -224t-265.5 -85q-212 0 -346.5 141t-134.5 362q0 140 62.5 255t171.5 180.5t242 65.5q202 0 339 -142t137 -351q0 -44 -6 -72h-765q19 -124 100 -199t198 -75q84 0 150.5 39.5t100.5 104.5zM252 560
h590q-19 119 -100.5 194t-195.5 75q-113 0 -194 -74.5t-100 -194.5z" />
    <glyph glyph-name="eacute" unicode="&#xe9;" 
d="M614 1070h-141l89 323h195zM800 301h186q-51 -139 -169.5 -224t-265.5 -85q-212 0 -346.5 141t-134.5 362q0 140 62.5 255t171.5 180.5t242 65.5q202 0 339 -142t137 -351q0 -44 -6 -72h-765q19 -124 100 -199t198 -75q84 0 150.5 39.5t100.5 104.5zM252 560h590
q-19 119 -100.5 194t-195.5 75q-113 0 -194 -74.5t-100 -194.5z" />
    <glyph glyph-name="ecircumflex" unicode="&#xea;" 
d="M647 1393l256 -325h-192l-160 202l-161 -202h-192l256 325h193zM800 301h186q-51 -139 -169.5 -224t-265.5 -85q-212 0 -346.5 141t-134.5 362q0 140 62.5 255t171.5 180.5t242 65.5q202 0 339 -142t137 -351q0 -44 -6 -72h-765q19 -124 100 -199t198 -75
q84 0 150.5 39.5t100.5 104.5zM252 560h590q-19 119 -100.5 194t-195.5 75q-113 0 -194 -74.5t-100 -194.5z" />
    <glyph glyph-name="edieresis" unicode="&#xeb;" 
d="M262 1278q0 47 29 76t78 29q46 0 74.5 -29t28.5 -76q0 -48 -28.5 -77.5t-74.5 -29.5q-49 0 -78 29.5t-29 77.5zM629 1278q0 47 28 76t77 29q48 0 76.5 -29t28.5 -76q0 -48 -28.5 -77.5t-76.5 -29.5q-49 0 -77 29t-28 78zM800 301h186q-51 -139 -169.5 -224t-265.5 -85
q-212 0 -346.5 141t-134.5 362q0 140 62.5 255t171.5 180.5t242 65.5q202 0 339 -142t137 -351q0 -44 -6 -72h-765q19 -124 100 -199t198 -75q84 0 150.5 39.5t100.5 104.5zM252 560h590q-19 119 -100.5 194t-195.5 75q-113 0 -194 -74.5t-100 -194.5z" />
    <glyph glyph-name="igrave" unicode="&#xec;" horiz-adv-x="358" 
d="M108 1070l-144 323h197l88 -323h-141zM267 0h-177v983h177v-983z" />
    <glyph glyph-name="iacute" unicode="&#xed;" horiz-adv-x="358" 
d="M242 1070h-139l89 323h195zM267 0h-177v983h177v-983z" />
    <glyph glyph-name="icircumflex" unicode="&#xee;" horiz-adv-x="358" 
d="M275 1393l257 -325h-193l-160 202l-159 -202h-194l256 325h193zM267 0h-177v983h177v-983z" />
    <glyph glyph-name="idieresis" unicode="&#xef;" horiz-adv-x="358" 
d="M-110 1278q0 47 29 76t78 29q46 0 74.5 -29t28.5 -76q0 -48 -28.5 -77.5t-74.5 -29.5q-49 0 -78 29.5t-29 77.5zM257 1278q0 47 28.5 76t76.5 29t76.5 -29t28.5 -76q0 -48 -28.5 -77.5t-76.5 -29.5t-76.5 29.5t-28.5 77.5zM267 0h-177v983h177v-983z" />
    <glyph glyph-name="eth" unicode="&#xf0;" horiz-adv-x="1120" 
d="M1047 477q0 -205 -140.5 -346t-347.5 -141q-134 0 -244.5 64.5t-174 176.5t-63.5 246q0 202 139.5 342.5t342.5 140.5q5 0 16 -1t16 -1l-118 158l-216 -112l-54 107l200 101l-134 181h204l79 -104l193 100l55 -104l-176 -91l318 -414q105 -130 105 -303zM559 783
q-130 0 -218.5 -89t-88.5 -217q0 -130 88.5 -220t218.5 -90q132 0 221.5 90t89.5 220q0 128 -89.5 217t-221.5 89z" />
    <glyph glyph-name="ntilde" unicode="&#xf1;" horiz-adv-x="1028" 
d="M238 1108h-115q10 130 66 207.5t140 77.5q51 0 101 -22.5t83 -49t74 -49t77 -22.5q40 0 65 37t31 106h115q-4 -128 -61.5 -206.5t-148.5 -78.5q-55 0 -103.5 22.5t-78.5 49.5t-69 49.5t-76 22.5t-65.5 -40.5t-34.5 -103.5zM770 493q0 149 -70.5 237.5t-189.5 88.5
q-108 0 -179.5 -92.5t-71.5 -234.5v-492h-175v983h175v-183q29 86 106 140.5t174 54.5q187 0 296.5 -136.5t109.5 -365.5v-493h-175v493z" />
    <glyph glyph-name="ograve" unicode="&#xf2;" horiz-adv-x="1076" 
d="M477 1070l-144 323h196l89 -323h-141zM59 493q0 212 139 357t343 145q202 0 340 -145t138 -357q0 -140 -63 -255.5t-172.5 -181.5t-242.5 -66q-204 0 -343 144.5t-139 358.5zM541 819q-129 0 -217 -93.5t-88 -232.5q0 -140 87.5 -233t217.5 -93q129 0 216 93t87 233
q0 139 -87 232.5t-216 93.5z" />
    <glyph glyph-name="oacute" unicode="&#xf3;" horiz-adv-x="1076" 
d="M606 1070h-141l89 323h196zM59 493q0 212 139 357t343 145q202 0 340 -145t138 -357q0 -140 -63 -255.5t-172.5 -181.5t-242.5 -66q-204 0 -343 144.5t-139 358.5zM541 819q-129 0 -217 -93.5t-88 -232.5q0 -140 87.5 -233t217.5 -93q129 0 216 93t87 233
q0 139 -87 232.5t-216 93.5z" />
    <glyph glyph-name="ocircumflex" unicode="&#xf4;" horiz-adv-x="1076" 
d="M636 1393l257 -325h-193l-161 202l-159 -202h-193l255 325h194zM59 493q0 212 139 357t343 145q202 0 340 -145t138 -357q0 -140 -63 -255.5t-172.5 -181.5t-242.5 -66q-204 0 -343 144.5t-139 358.5zM541 819q-129 0 -217 -93.5t-88 -232.5q0 -140 87.5 -233t217.5 -93
q129 0 216 93t87 233q0 139 -87 232.5t-216 93.5z" />
    <glyph glyph-name="otilde" unicode="&#xf5;" horiz-adv-x="1076" 
d="M279 1108h-115q10 130 66 207.5t140 77.5q51 0 101 -22.5t83 -49t74 -49t77 -22.5q40 0 65 37t31 106h115q-4 -128 -61.5 -206.5t-148.5 -78.5q-45 0 -85 15t-69 36t-55.5 42t-57 36t-61.5 15q-37 0 -65 -40.5t-34 -103.5zM59 493q0 212 139 357t343 145q202 0 340 -145
t138 -357q0 -140 -63 -255.5t-172.5 -181.5t-242.5 -66q-204 0 -343 144.5t-139 358.5zM541 819q-129 0 -217 -93.5t-88 -232.5q0 -140 87.5 -233t217.5 -93q129 0 216 93t87 233q0 139 -87 232.5t-216 93.5z" />
    <glyph glyph-name="odieresis" unicode="&#xf6;" horiz-adv-x="1076" 
d="M251 1278q0 47 28.5 76t77.5 29q46 0 74.5 -29t28.5 -76q0 -48 -28.5 -77.5t-74.5 -29.5q-49 0 -77.5 29.5t-28.5 77.5zM618 1278q0 47 28 76t77 29q48 0 76 -29t28 -76q0 -48 -28 -77.5t-76 -29.5q-49 0 -77 29t-28 78zM59 493q0 212 139 357t343 145q202 0 340 -145
t138 -357q0 -140 -63 -255.5t-172.5 -181.5t-242.5 -66q-204 0 -343 144.5t-139 358.5zM541 819q-129 0 -217 -93.5t-88 -232.5q0 -140 87.5 -233t217.5 -93q129 0 216 93t87 233q0 139 -87 232.5t-216 93.5z" />
    <glyph glyph-name="divide" unicode="&#xf7;" horiz-adv-x="937" 
d="M360 972q0 47 28.5 75.5t76.5 28.5t76.5 -28.5t28.5 -75.5q0 -48 -28.5 -77.5t-76.5 -29.5t-76.5 29.5t-28.5 77.5zM74 544v175h783v-175h-783zM360 295q0 47 28.5 75t76.5 28t76.5 -28t28.5 -75q0 -48 -28.5 -77.5t-76.5 -29.5t-76.5 29.5t-28.5 77.5z" />
    <glyph glyph-name="oslash" unicode="&#xf8;" horiz-adv-x="1076" 
d="M59 493q0 212 139 357t343 145q38 0 88 -9l43 115h177l-64 -174q108 -64 171 -179t63 -255t-63 -255.5t-172.5 -181.5t-242.5 -66q-53 0 -100 10l-41 -115h-177l64 177q-105 66 -166.5 179.5t-61.5 251.5zM541 819q-129 0 -217 -93.5t-88 -232.5q0 -79 30.5 -146.5
t84.5 -112.5l216 584q-4 0 -13 0.5t-13 0.5zM721 757l-218 -588q13 -2 38 -2q129 0 216 93t87 233q0 81 -33 150t-90 114z" />
    <glyph glyph-name="ugrave" unicode="&#xf9;" horiz-adv-x="1007" 
d="M444 1070l-144 323h195l88 -323h-139zM247 490q0 -148 70.5 -236.5t188.5 -88.5q109 0 180 92t71 235v491h177v-983h-177v184q-29 -86 -106 -140.5t-174 -54.5q-186 0 -296.5 136.5t-110.5 364.5v493h177v-493z" />
    <glyph glyph-name="uacute" unicode="&#xfa;" horiz-adv-x="1007" 
d="M580 1070h-141l89 323h195zM247 490q0 -148 70.5 -236.5t188.5 -88.5q109 0 180 92t71 235v491h177v-983h-177v184q-29 -86 -106 -140.5t-174 -54.5q-186 0 -296.5 136.5t-110.5 364.5v493h177v-493z" />
    <glyph glyph-name="ucircumflex" unicode="&#xfb;" horiz-adv-x="1007" 
d="M601 1393l256 -325h-192l-160 202l-161 -202h-192l256 325h193zM247 490q0 -148 70.5 -236.5t188.5 -88.5q109 0 180 92t71 235v491h177v-983h-177v184q-29 -86 -106 -140.5t-174 -54.5q-186 0 -296.5 136.5t-110.5 364.5v493h177v-493z" />
    <glyph glyph-name="udieresis" unicode="&#xfc;" horiz-adv-x="1007" 
d="M216 1278q0 47 28.5 76t76.5 29t76.5 -29t28.5 -76q0 -48 -28.5 -77.5t-76.5 -29.5t-76.5 29.5t-28.5 77.5zM582 1278q0 47 28.5 76t77.5 29q46 0 74.5 -29t28.5 -76q0 -48 -28.5 -77.5t-74.5 -29.5q-49 0 -77.5 29.5t-28.5 77.5zM247 490q0 -148 70.5 -236.5
t188.5 -88.5q109 0 180 92t71 235v491h177v-983h-177v184q-29 -86 -106 -140.5t-174 -54.5q-186 0 -296.5 136.5t-110.5 364.5v493h177v-493z" />
    <glyph glyph-name="yacute" unicode="&#xfd;" horiz-adv-x="1009" 
d="M562 1070h-139l88 323h195zM988 983l-429 -1085q-26 -65 -43 -101.5t-43.5 -75.5t-56 -57t-72.5 -30t-102 -12h-60v173h44q54 0 90 28t64 97l30 80l-390 983h188l297 -747l296 747h187z" />
    <glyph glyph-name="thorn" unicode="&#xfe;" horiz-adv-x="1130" 
d="M254 1393v-592q32 85 126 139.5t205 54.5q211 0 339.5 -138.5t128.5 -364.5q0 -227 -128 -365t-340 -138q-111 0 -204.5 55t-126.5 141v-595h-177v1803h177zM878 492q0 147 -87 236.5t-227 89.5q-139 0 -225 -89.5t-85 -235.5q0 -145 87 -236.5t224 -91.5q139 0 226 90
t87 237z" />
    <glyph glyph-name="ydieresis" unicode="&#xff;" horiz-adv-x="1009" 
d="M218 1278q0 47 28 76t77 29q48 0 76.5 -29t28.5 -76q0 -48 -28.5 -77.5t-76.5 -29.5q-49 0 -77 29t-28 78zM583 1278q0 47 28.5 76t76.5 29t76.5 -29t28.5 -76q0 -48 -28.5 -77.5t-76.5 -29.5t-76.5 29.5t-28.5 77.5zM988 983l-429 -1085q-26 -65 -43 -101.5t-43.5 -75.5
t-56 -57t-72.5 -30t-102 -12h-60v173h44q54 0 90 28t64 97l30 80l-390 983h188l297 -747l296 747h187z" />
    <glyph glyph-name="Amacron" unicode="&#x100;" horiz-adv-x="1345" 
d="M308 1575v175h727v-175h-727zM16 0l564 1393h188l564 -1393h-188l-149 367h-641l-149 -367h-189zM423 539h503l-251 621z" />
    <glyph glyph-name="amacron" unicode="&#x101;" horiz-adv-x="1143" 
d="M208 1165v175h728v-175h-728zM867 0v184q-33 -85 -127.5 -139.5t-205.5 -54.5q-211 0 -339.5 138t-128.5 365q0 226 128 364t340 138q111 0 205.5 -54.5t127.5 -140.5v183h175v-983h-175zM242 493q0 -147 87 -236.5t226 -89.5t225.5 89.5t86.5 235.5q0 144 -88 235.5
t-225 91.5q-139 0 -225.5 -89.5t-86.5 -236.5z" />
    <glyph glyph-name="Abreve" unicode="&#x102;" horiz-adv-x="1345" 
d="M377 1802h141q4 -67 46.5 -108t107.5 -41t107.5 41t46.5 108h142q-4 -130 -85.5 -210t-210.5 -80q-128 0 -210.5 80t-84.5 210zM16 0l564 1393h188l564 -1393h-188l-149 367h-641l-149 -367h-189zM423 539h503l-251 621z" />
    <glyph glyph-name="abreve" unicode="&#x103;" horiz-adv-x="1143" 
d="M275 1393h143q4 -67 46.5 -108t107.5 -41t106.5 40.5t45.5 108.5h143q-4 -130 -85.5 -210t-209.5 -80q-129 0 -211 80t-86 210zM867 0v184q-33 -85 -127.5 -139.5t-205.5 -54.5q-211 0 -339.5 138t-128.5 365q0 226 128 364t340 138q111 0 205.5 -54.5t127.5 -140.5v183
h175v-983h-175zM242 493q0 -147 87 -236.5t226 -89.5t225.5 89.5t86.5 235.5q0 144 -88 235.5t-225 91.5q-139 0 -225.5 -89.5t-86.5 -236.5z" />
    <glyph glyph-name="Aogonek" unicode="&#x104;" horiz-adv-x="1345" 
d="M16 0l564 1393h188l564 -1393h-31q-78 -69 -67 -141q6 -41 40.5 -65.5t87.5 -24.5v-118q-236 0 -248 180q-10 107 89 169h-59l-149 367h-641l-149 -367h-189zM423 539h503l-251 621z" />
    <glyph glyph-name="aogonek" unicode="&#x105;" horiz-adv-x="1143" 
d="M867 0v184q-33 -85 -127.5 -139.5t-205.5 -54.5q-211 0 -339.5 138t-128.5 365q0 226 128 364t340 138q111 0 205.5 -54.5t127.5 -140.5v183h175v-983h-31q-78 -69 -67 -141q6 -41 40.5 -65.5t87.5 -24.5v-118q-236 0 -248 180q-10 107 89 169h-46zM242 493
q0 -147 87 -236.5t226 -89.5t225.5 89.5t86.5 235.5q0 144 -88 235.5t-225 91.5q-139 0 -225.5 -89.5t-86.5 -236.5z" />
    <glyph glyph-name="Cacute" unicode="&#x106;" horiz-adv-x="1372" 
d="M754 1479h-140l89 323h195zM1112 911q-53 145 -163 225.5t-259 80.5q-204 0 -328 -143t-124 -378q0 -233 124.5 -376t327.5 -143q151 0 263 81.5t159 223.5h191q-53 -226 -217 -358t-395 -132q-283 0 -456.5 194t-173.5 510q0 317 173.5 511t456.5 194q231 0 392.5 -131
t219.5 -359h-191z" />
    <glyph glyph-name="cacute" unicode="&#x107;" horiz-adv-x="1096" 
d="M611 1070h-139l88 323h195zM546 821q-135 0 -217.5 -89.5t-82.5 -236.5t82.5 -236.5t217.5 -89.5q101 0 174.5 53t106.5 150h186q-38 -178 -162 -279t-305 -101q-213 0 -345 138.5t-132 364.5q0 225 132 363t345 138q180 0 304.5 -100.5t162.5 -277.5h-186
q-35 97 -108 150t-173 53z" />
    <glyph glyph-name="Ccircumflex" unicode="&#x108;" horiz-adv-x="1372" 
d="M783 1802l257 -324h-193l-161 201l-158 -201h-194l256 324h193zM1112 911q-53 145 -163 225.5t-259 80.5q-204 0 -328 -143t-124 -378q0 -233 124.5 -376t327.5 -143q151 0 263 81.5t159 223.5h191q-53 -226 -217 -358t-395 -132q-283 0 -456.5 194t-173.5 510
q0 317 173.5 511t456.5 194q231 0 392.5 -131t219.5 -359h-191z" />
    <glyph glyph-name="ccircumflex" unicode="&#x109;" horiz-adv-x="1096" 
d="M646 1393l255 -325h-193l-159 202l-161 -202h-193l257 325h194zM546 821q-135 0 -217.5 -89.5t-82.5 -236.5t82.5 -236.5t217.5 -89.5q101 0 174.5 53t106.5 150h186q-38 -178 -162 -279t-305 -101q-213 0 -345 138.5t-132 364.5q0 225 132 363t345 138
q180 0 304.5 -100.5t162.5 -277.5h-186q-35 97 -108 150t-173 53z" />
    <glyph glyph-name="Cdotaccent" unicode="&#x10a;" horiz-adv-x="1372" 
d="M582 1688q0 47 28.5 75.5t77.5 28.5q46 0 74.5 -28.5t28.5 -75.5q0 -48 -28.5 -77.5t-74.5 -29.5q-49 0 -77.5 29.5t-28.5 77.5zM1112 911q-53 145 -163 225.5t-259 80.5q-204 0 -328 -143t-124 -378q0 -233 124.5 -376t327.5 -143q151 0 263 81.5t159 223.5h191
q-53 -226 -217 -358t-395 -132q-283 0 -456.5 194t-173.5 510q0 317 173.5 511t456.5 194q231 0 392.5 -131t219.5 -359h-191z" />
    <glyph glyph-name="cdotaccent" unicode="&#x10b;" horiz-adv-x="1096" 
d="M442 1278q0 47 29 76t78 29q47 0 75 -29t28 -76q0 -48 -27.5 -77.5t-75.5 -29.5q-49 0 -78 29.5t-29 77.5zM546 821q-135 0 -217.5 -89.5t-82.5 -236.5t82.5 -236.5t217.5 -89.5q101 0 174.5 53t106.5 150h186q-38 -178 -162 -279t-305 -101q-213 0 -345 138.5
t-132 364.5q0 225 132 363t345 138q180 0 304.5 -100.5t162.5 -277.5h-186q-35 97 -108 150t-173 53z" />
    <glyph glyph-name="Ccaron" unicode="&#x10c;" horiz-adv-x="1372" 
d="M783 1478h-193l-256 324h194l158 -201l161 201h193zM1112 911q-53 145 -163 225.5t-259 80.5q-204 0 -328 -143t-124 -378q0 -233 124.5 -376t327.5 -143q151 0 263 81.5t159 223.5h191q-53 -226 -217 -358t-395 -132q-283 0 -456.5 194t-173.5 510q0 317 173.5 511
t456.5 194q231 0 392.5 -131t219.5 -359h-191z" />
    <glyph glyph-name="ccaron" unicode="&#x10d;" horiz-adv-x="1096" 
d="M646 1068h-194l-257 325h193l161 -202l159 202h193zM546 821q-135 0 -217.5 -89.5t-82.5 -236.5t82.5 -236.5t217.5 -89.5q101 0 174.5 53t106.5 150h186q-38 -178 -162 -279t-305 -101q-213 0 -345 138.5t-132 364.5q0 225 132 363t345 138q180 0 304.5 -100.5
t162.5 -277.5h-186q-35 97 -108 150t-173 53z" />
    <glyph glyph-name="Dcaron" unicode="&#x10e;" horiz-adv-x="1243" 
d="M636 1478h-194l-257 324h193l161 -201l159 201h193zM508 0h-431v1393h416q331 0 509.5 -181t178.5 -516q0 -333 -175.5 -514.5t-497.5 -181.5zM493 1217h-239v-1040h254q237 0 366.5 135.5t129.5 383.5q0 252 -132 386.5t-379 134.5z" />
    <glyph glyph-name="dcaron" unicode="&#x10f;" horiz-adv-x="1412" 
d="M1142 1309q0 48 28.5 76.5t76.5 28.5t76.5 -28.5t28.5 -76.5q0 -66 -20.5 -124.5t-68.5 -137.5l-18 -30h-98l29 55q43 75 58 132q-43 4 -67.5 32.5t-24.5 72.5zM881 0v184q-33 -86 -126 -140t-204 -54q-212 0 -341.5 138t-129.5 365q0 226 129.5 364t341.5 138
q109 0 203 -54.5t127 -140.5v593h177v-1393h-177zM257 493q0 -147 87 -236.5t226 -89.5t225.5 89.5t85.5 235.5q0 144 -87.5 235.5t-223.5 91.5q-139 0 -226 -89.5t-87 -236.5z" />
    <glyph glyph-name="Dcroat" unicode="&#x110;" horiz-adv-x="1297" 
d="M562 0h-429v626h-90v174h90v593h414q333 0 511.5 -180.5t178.5 -516.5q0 -333 -176 -514.5t-499 -181.5zM547 1217h-237v-417h352v-174h-352v-449h252q237 0 367.5 135.5t130.5 383.5q0 252 -132.5 386.5t-380.5 134.5z" />
    <glyph glyph-name="dcroat" unicode="&#x111;" horiz-adv-x="1222" 
d="M881 0v184q-33 -86 -126 -140t-204 -54q-212 0 -341.5 138t-129.5 365q0 226 129.5 364t341.5 138q109 0 203 -54.5t127 -140.5v316h-257v136h257v141h177v-141h128v-136h-128v-1116h-177zM257 493q0 -147 87 -236.5t226 -89.5t225.5 89.5t85.5 235.5q0 144 -87.5 235.5
t-223.5 91.5q-139 0 -226 -89.5t-87 -236.5z" />
    <glyph glyph-name="Emacron" unicode="&#x112;" horiz-adv-x="968" 
d="M121 1575v175h728v-175h-728zM896 1217h-644v-432h629v-177h-629v-431h659v-177h-836v1393h821v-176z" />
    <glyph glyph-name="emacron" unicode="&#x113;" 
d="M187 1165v175h727v-175h-727zM800 301h186q-51 -139 -169.5 -224t-265.5 -85q-212 0 -346.5 141t-134.5 362q0 140 62.5 255t171.5 180.5t242 65.5q202 0 339 -142t137 -351q0 -44 -6 -72h-765q19 -124 100 -199t198 -75q84 0 150.5 39.5t100.5 104.5zM252 560h590
q-19 119 -100.5 194t-195.5 75q-113 0 -194 -74.5t-100 -194.5z" />
    <glyph glyph-name="Ebreve" unicode="&#x114;" horiz-adv-x="968" 
d="M188 1802h143q2 -67 45 -108t109 -41q64 0 106 41t46 108h143q-4 -130 -85.5 -210t-209.5 -80q-130 0 -212.5 80t-84.5 210zM896 1217h-644v-432h629v-177h-629v-431h659v-177h-836v1393h821v-176z" />
    <glyph glyph-name="ebreve" unicode="&#x115;" 
d="M254 1393h142q4 -67 46.5 -108t108.5 -41q65 0 107.5 41t46.5 108h142q-4 -130 -85.5 -210t-210.5 -80q-128 0 -210.5 80t-86.5 210zM800 301h186q-51 -139 -169.5 -224t-265.5 -85q-212 0 -346.5 141t-134.5 362q0 140 62.5 255t171.5 180.5t242 65.5q202 0 339 -142
t137 -351q0 -44 -6 -72h-765q19 -124 100 -199t198 -75q84 0 150.5 39.5t100.5 104.5zM252 560h590q-19 119 -100.5 194t-195.5 75q-113 0 -194 -74.5t-100 -194.5z" />
    <glyph glyph-name="Edotaccent" unicode="&#x116;" horiz-adv-x="968" 
d="M378 1688q0 47 29 75.5t78 28.5q48 0 75.5 -28.5t27.5 -75.5q0 -48 -27.5 -77.5t-75.5 -29.5q-49 0 -78 29.5t-29 77.5zM896 1217h-644v-432h629v-177h-629v-431h659v-177h-836v1393h821v-176z" />
    <glyph glyph-name="edotaccent" unicode="&#x117;" 
d="M446 1278q0 47 28.5 76t77.5 29q46 0 74.5 -29t28.5 -76q0 -48 -28.5 -77.5t-74.5 -29.5q-49 0 -77.5 29.5t-28.5 77.5zM800 301h186q-51 -139 -169.5 -224t-265.5 -85q-212 0 -346.5 141t-134.5 362q0 140 62.5 255t171.5 180.5t242 65.5q202 0 339 -142t137 -351
q0 -44 -6 -72h-765q19 -124 100 -199t198 -75q84 0 150.5 39.5t100.5 104.5zM252 560h590q-19 119 -100.5 194t-195.5 75q-113 0 -194 -74.5t-100 -194.5z" />
    <glyph glyph-name="Eogonek" unicode="&#x118;" horiz-adv-x="968" 
d="M896 1217h-644v-432h629v-177h-629v-431h659v-177h-82q-69 -64 -59 -134q6 -40 40.5 -64.5t87.5 -24.5v-118q-117 0 -179.5 45.5t-68.5 133.5q-7 104 77 162h-652v1393h821v-176z" />
    <glyph glyph-name="eogonek" unicode="&#x119;" 
d="M800 301h186q-40 -109 -124 -186.5t-192 -106.5q-79 -67 -69 -141q8 -41 41.5 -65.5t86.5 -24.5v-118q-235 0 -247 180q-7 95 65 153q-138 1 -247 65t-169.5 178.5t-60.5 259.5q0 140 62.5 255t171.5 180.5t242 65.5q202 0 339 -142t137 -351q0 -44 -6 -72h-765
q19 -124 100 -199t198 -75q84 0 150.5 39.5t100.5 104.5zM252 560h590q-19 119 -100.5 194t-195.5 75q-113 0 -194 -74.5t-100 -194.5z" />
    <glyph glyph-name="Ecaron" unicode="&#x11a;" horiz-adv-x="968" 
d="M580 1478h-193l-256 324h193l159 -201l161 201h193zM896 1217h-644v-432h629v-177h-629v-431h659v-177h-836v1393h821v-176z" />
    <glyph glyph-name="ecaron" unicode="&#x11b;" 
d="M647 1068h-193l-256 325h192l161 -202l160 202h192zM800 301h186q-51 -139 -169.5 -224t-265.5 -85q-212 0 -346.5 141t-134.5 362q0 140 62.5 255t171.5 180.5t242 65.5q202 0 339 -142t137 -351q0 -44 -6 -72h-765q19 -124 100 -199t198 -75q84 0 150.5 39.5
t100.5 104.5zM252 560h590q-19 119 -100.5 194t-195.5 75q-113 0 -194 -74.5t-100 -194.5z" />
    <glyph glyph-name="Gcircumflex" unicode="&#x11c;" horiz-adv-x="1418" 
d="M806 1802l257 -324h-193l-161 201l-158 -201h-194l256 324h193zM623 613v167h732q5 -52 5 -90q0 -152 -50.5 -283t-137 -221.5t-205.5 -142t-254 -51.5q-183 0 -332 88t-235.5 249.5t-86.5 366.5q0 201 83.5 362.5t232 252t334.5 90.5q211 0 366.5 -105t228.5 -293h-190
q-58 106 -163.5 163.5t-239.5 57.5q-208 0 -341.5 -145t-133.5 -383t133.5 -382.5t344.5 -144.5q187 0 315.5 120.5t150.5 323.5h-557z" />
    <glyph glyph-name="gcircumflex" unicode="&#x11d;" horiz-adv-x="1117" 
d="M655 1393l258 -325h-194l-159 202l-160 -202h-194l258 325h191zM860 52v132q-32 -85 -125.5 -139.5t-200.5 -54.5q-206 0 -335 138.5t-129 364.5q0 225 129 363.5t335 138.5q107 0 200.5 -56t125.5 -139v183h177v-931q0 -227 -128.5 -365t-336.5 -138q-172 0 -295 96
t-164 271h185q35 -93 108 -142t166 -49q129 0 208.5 89.5t79.5 237.5zM246 493q0 -146 87.5 -236t221.5 -90t220 90t85 235q0 142 -86 234.5t-220 92.5q-133 0 -220.5 -90t-87.5 -236z" />
    <glyph glyph-name="Gbreve" unicode="&#x11e;" horiz-adv-x="1435" 
d="M416 1802h143q4 -67 46.5 -108t107.5 -41t106.5 40.5t45.5 108.5h143q-4 -130 -85.5 -210t-209.5 -80q-129 0 -211 80t-86 210zM623 613v167h732q5 -52 5 -90q0 -152 -50.5 -283t-137 -221.5t-205.5 -142t-254 -51.5q-183 0 -332 88t-235.5 249.5t-86.5 366.5
q0 201 83.5 362.5t232 252t334.5 90.5q211 0 366.5 -105t228.5 -293h-190q-58 106 -163.5 163.5t-239.5 57.5q-208 0 -341.5 -145t-133.5 -383t133.5 -382.5t344.5 -144.5q187 0 315.5 120.5t150.5 323.5h-557z" />
    <glyph glyph-name="gbreve" unicode="&#x11f;" horiz-adv-x="1112" 
d="M261 1393h142q2 -67 45 -108t109 -41q65 0 106.5 40.5t45.5 108.5h143q-4 -130 -85.5 -210t-209.5 -80q-129 0 -210.5 80t-85.5 210zM855 52v132q-33 -85 -126 -139.5t-200 -54.5q-207 0 -336 138.5t-129 364.5q0 225 129.5 363.5t335.5 138.5q107 0 200.5 -56
t125.5 -139v183h176v-931q0 -227 -128 -365t-336 -138q-173 0 -296 96t-163 271h185q34 -93 107 -142t167 -49q128 0 208 89.5t80 237.5zM241 493q0 -146 87.5 -236t220.5 -90q134 0 220 90t86 235q0 141 -86.5 234t-219.5 93t-220.5 -90t-87.5 -236z" />
    <glyph glyph-name="Gdotaccent" unicode="&#x120;" horiz-adv-x="1418" 
d="M605 1688q0 47 28.5 75.5t77.5 28.5q46 0 74.5 -28.5t28.5 -75.5q0 -48 -28.5 -77.5t-74.5 -29.5q-49 0 -77.5 29.5t-28.5 77.5zM623 613v167h732q5 -52 5 -90q0 -152 -50.5 -283t-137 -221.5t-205.5 -142t-254 -51.5q-183 0 -332 88t-235.5 249.5t-86.5 366.5
q0 201 83.5 362.5t232 252t334.5 90.5q211 0 366.5 -105t228.5 -293h-190q-58 106 -163.5 163.5t-239.5 57.5q-208 0 -341.5 -145t-133.5 -383t133.5 -382.5t344.5 -144.5q187 0 315.5 120.5t150.5 323.5h-557z" />
    <glyph glyph-name="gdotaccent" unicode="&#x121;" horiz-adv-x="1117" 
d="M454 1278q0 47 28.5 76t77.5 29q46 0 75 -29t29 -76q0 -48 -28.5 -77.5t-75.5 -29.5q-49 0 -77.5 29.5t-28.5 77.5zM860 52v132q-32 -85 -125.5 -139.5t-200.5 -54.5q-206 0 -335 138.5t-129 364.5q0 225 129 363.5t335 138.5q107 0 200.5 -56t125.5 -139v183h177v-931
q0 -227 -128.5 -365t-336.5 -138q-172 0 -295 96t-164 271h185q35 -93 108 -142t166 -49q129 0 208.5 89.5t79.5 237.5zM246 493q0 -146 87.5 -236t221.5 -90t220 90t85 235q0 142 -86 234.5t-220 92.5q-133 0 -220.5 -90t-87.5 -236z" />
    <glyph glyph-name="uni0122" unicode="&#x122;" horiz-adv-x="1418" 
d="M623 613v167h732q5 -52 5 -90q0 -152 -50.5 -283t-137 -221.5t-205.5 -142t-254 -51.5q-183 0 -332 88t-235.5 249.5t-86.5 366.5q0 201 83.5 362.5t232 252t334.5 90.5q211 0 366.5 -105t228.5 -293h-190q-58 106 -163.5 163.5t-239.5 57.5q-208 0 -341.5 -145
t-133.5 -383t133.5 -382.5t344.5 -144.5q187 0 315.5 120.5t150.5 323.5h-557zM608 -251q0 48 28.5 76.5t77.5 28.5q47 0 75.5 -28.5t28.5 -76.5q0 -66 -20.5 -124.5t-68.5 -137.5l-16 -29h-99l28 54q45 81 58 132q-42 4 -67 32.5t-25 72.5z" />
    <glyph glyph-name="uni0123" unicode="&#x123;" horiz-adv-x="1117" 
d="M655 1239q0 -48 -28.5 -76.5t-77.5 -28.5q-48 0 -75.5 28.5t-27.5 76.5q0 65 20.5 124.5t67.5 137.5l17 28h98l-28 -54q-46 -81 -57 -132q42 -5 66.5 -33t24.5 -71zM860 52v132q-32 -85 -125.5 -139.5t-200.5 -54.5q-206 0 -335 138.5t-129 364.5q0 225 129 363.5
t335 138.5q107 0 200.5 -56t125.5 -139v183h177v-931q0 -227 -128.5 -365t-336.5 -138q-172 0 -295 96t-164 271h185q35 -93 108 -142t166 -49q129 0 208.5 89.5t79.5 237.5zM246 493q0 -146 87.5 -236t221.5 -90t220 90t85 235q0 142 -86 234.5t-220 92.5
q-133 0 -220.5 -90t-87.5 -236z" />
    <glyph glyph-name="Hcircumflex" unicode="&#x124;" horiz-adv-x="1196" 
d="M695 1802l257 -324h-193l-159 201l-161 -201h-193l257 324h192zM252 0h-177v1393h177v-608h697v608h175v-1393h-175v608h-697v-608z" />
    <glyph glyph-name="hcircumflex" unicode="&#x125;" horiz-adv-x="1033" 
d="M265 1801l256 -325h-193l-159 202l-161 -202h-193l257 325h193zM770 493q0 149 -70.5 237.5t-189.5 88.5q-108 0 -179.5 -92.5t-71.5 -234.5v-492h-175v1393h175v-593q29 86 106 140.5t174 54.5q187 0 296.5 -136.5t109.5 -365.5v-493h-175v493z" />
    <glyph glyph-name="Hbar" unicode="&#x126;" horiz-adv-x="1279" 
d="M292 0h-176v1006h-103v175h103v212h176v-212h696v212h177v-212h100v-175h-100v-1006h-177v608h-696v-608zM292 785h696v221h-696v-221z" />
    <glyph glyph-name="hbar" unicode="&#x127;" horiz-adv-x="1117" 
d="M854 493q0 148 -70.5 237t-188.5 89q-109 0 -180 -92t-71 -235v-492h-177v1116h-133v150h133v127h177v-127h344v-150h-344v-316q29 86 106 140.5t174 54.5q186 0 296.5 -137t110.5 -365v-493h-177v493z" />
    <glyph glyph-name="Itilde" unicode="&#x128;" horiz-adv-x="352" 
d="M-87 1517h-115q11 130 68 207.5t141 77.5q42 0 82 -14.5t71 -35.5t60 -42t60.5 -35.5t60.5 -14.5q41 0 65.5 36.5t30.5 105.5h115q-4 -128 -61.5 -206.5t-148.5 -78.5q-55 0 -103.5 22.5t-78.5 49.5t-69 49.5t-76 22.5t-66 -40.5t-36 -103.5zM264 0h-177v1393h177v-1393z
" />
    <glyph glyph-name="itilde" unicode="&#x129;" horiz-adv-x="358" 
d="M-82 1108h-115q10 130 66.5 207.5t140.5 77.5q52 0 102 -22.5t83 -49t74 -49t77 -22.5q40 0 65 37t31 106h113q-4 -128 -61 -206.5t-147 -78.5q-55 0 -104 22.5t-79 49.5t-69 49.5t-77 22.5q-37 0 -65.5 -40.5t-34.5 -103.5zM269 0h-177v983h177v-983z" />
    <glyph glyph-name="Imacron" unicode="&#x12a;" horiz-adv-x="352" 
d="M-188 1575v175h727v-175h-727zM264 0h-177v1393h177v-1393z" />
    <glyph glyph-name="imacron" unicode="&#x12b;" horiz-adv-x="358" 
d="M-185 1165v175h727v-175h-727zM269 0h-177v983h177v-983z" />
    <glyph glyph-name="Iogonek" unicode="&#x12e;" horiz-adv-x="352" 
d="M264 0h-31q-79 -69 -69 -141q8 -41 41.5 -65.5t86.5 -24.5v-118q-236 0 -248 180q-7 107 89 169h-46v1393h177v-1393z" />
    <glyph glyph-name="iogonek" unicode="&#x12f;" horiz-adv-x="358" 
d="M74 1278q0 47 28.5 76t77.5 29q46 0 74.5 -29t28.5 -76q0 -48 -28.5 -77.5t-74.5 -29.5q-49 0 -77.5 29.5t-28.5 77.5zM269 0h-33q-79 -69 -69 -141q8 -41 42 -65.5t88 -24.5v-118q-237 0 -249 180q-7 108 88 169h-44v983h177v-983z" />
    <glyph glyph-name="Idotaccent" unicode="&#x130;" horiz-adv-x="352" 
d="M72 1688q0 47 28.5 75.5t76.5 28.5t76.5 -28.5t28.5 -75.5q0 -48 -28.5 -77.5t-76.5 -29.5t-76.5 29.5t-28.5 77.5zM264 0h-177v1393h177v-1393z" />
    <glyph glyph-name="dotlessi" unicode="&#x131;" horiz-adv-x="358" 
d="M269 0h-177v983h177v-983z" />
    <glyph glyph-name="IJ" unicode="&#x132;" horiz-adv-x="1391" 
d="M264 0h-176v1393h176v-1393zM1142 495v898h177v-898q0 -227 -128 -365t-337 -138q-180 0 -303 102t-156 278h187q25 -94 98 -148.5t174 -54.5q130 0 209 89t79 237z" />
    <glyph glyph-name="ij" unicode="&#x133;" horiz-adv-x="719" 
d="M69 1278q0 47 28.5 76t77.5 29q46 0 75 -29t29 -76q0 -48 -28.5 -77.5t-75.5 -29.5q-49 0 -77.5 29.5t-28.5 77.5zM421 1278q0 47 29 76t78 29q46 0 74.5 -29t28.5 -76q0 -48 -28.5 -77.5t-74.5 -29.5q-49 0 -78 29.5t-29 77.5zM264 0h-177v983h527v-1103
q0 -176 -75 -253.5t-244 -77.5h-89v174h73q83 0 120.5 39.5t37.5 127.5v919h-173v-809z" />
    <glyph glyph-name="Jcircumflex" unicode="&#x134;" horiz-adv-x="1060" 
d="M995 1802l255 -324h-192l-160 201l-161 -201h-191l255 324h194zM809 495v898h176v-898q0 -227 -128 -365t-338 -138q-179 0 -301.5 102t-155.5 278h187q26 -95 98 -149t172 -54q131 0 210.5 89t79.5 237z" />
    <glyph glyph-name="jcircumflex" unicode="&#x135;" horiz-adv-x="383" 
d="M287 1393l255 -325h-193l-159 202l-161 -202h-193l257 325h194zM277 983v-1103q0 -176 -75.5 -253.5t-244.5 -77.5h-88v174h72q84 0 122.5 39.5t38.5 127.5v1093h175z" />
    <glyph glyph-name="uni0136" unicode="&#x136;" horiz-adv-x="1115" 
d="M261 0h-177v1393h177v-677l566 677h208l-578 -697l631 -696h-226l-601 665v-665zM442 -249q0 47 29 76t78 29q46 0 74.5 -29t28.5 -76q0 -66 -20 -125.5t-68 -138.5l-17 -28h-98l28 54q42 73 57 133q-42 4 -67 32.5t-25 72.5z" />
    <glyph glyph-name="uni0137" unicode="&#x137;" horiz-adv-x="924" 
d="M283 0h-175v1393h175v-874l415 464h198l-418 -491l453 -492h-226l-422 464v-464zM351 -251q0 48 28 76.5t76 28.5t76.5 -28.5t28.5 -76.5q0 -66 -20 -125t-68 -137l-18 -29h-98l29 54q43 78 57 132q-42 4 -66.5 32t-24.5 73z" />
    <glyph glyph-name="kgreenlandic" unicode="&#x138;" horiz-adv-x="924" 
d="M261 0h-177v983h177v-464l414 464h197l-417 -491l453 -492h-228l-419 464v-464z" />
    <glyph glyph-name="Lacute" unicode="&#x139;" horiz-adv-x="969" 
d="M234 1476h-139l89 323h194zM911 177v-177h-836v1393h177v-1216h659z" />
    <glyph glyph-name="lacute" unicode="&#x13a;" horiz-adv-x="350" 
d="M244 1475h-141l89 322h195zM262 0h-175v1393h175v-1393z" />
    <glyph glyph-name="uni013B" unicode="&#x13b;" horiz-adv-x="969" 
d="M911 177v-177h-836v1393h177v-1216h659zM392 -251q0 47 28 76t76 29t76.5 -29t28.5 -76q0 -66 -20 -125t-68 -138l-17 -28h-100l30 54q42 74 57 132q-42 4 -66.5 32t-24.5 73z" />
    <glyph glyph-name="uni013C" unicode="&#x13c;" horiz-adv-x="350" 
d="M262 0h-175v1393h175v-1393zM74 -251q0 48 28.5 76.5t76.5 28.5t76 -28.5t28 -76.5q0 -66 -20 -125t-68 -137l-18 -29h-98l29 54q43 78 57 132q-42 4 -66.5 32t-24.5 73z" />
    <glyph glyph-name="Lcaron" unicode="&#x13d;" horiz-adv-x="969" 
d="M555 1289q0 47 28.5 75.5t76.5 28.5t76.5 -28.5t28.5 -75.5q0 -66 -20 -125.5t-68 -137.5l-18 -28h-99l30 54q42 73 57 131q-43 5 -67.5 33.5t-24.5 72.5zM911 177v-177h-836v1393h177v-1216h659z" />
    <glyph glyph-name="lcaron" unicode="&#x13e;" horiz-adv-x="617" 
d="M262 0h-175v1393h175v-1393zM351 1288q0 48 28.5 76.5t77.5 28.5q47 0 75 -28.5t28 -76.5q0 -66 -20 -125t-68 -137l-17 -30h-98l28 54q42 77 57 133q-42 5 -66.5 33t-24.5 72z" />
    <glyph glyph-name="Ldot" unicode="&#x13f;" horiz-adv-x="969" 
d="M911 177v-177h-836v1393h177v-1216h659zM506 696q0 48 29 76.5t78 28.5q47 0 75 -28.5t28 -76.5t-28 -76.5t-75 -28.5q-49 0 -78 28.5t-29 76.5z" />
    <glyph glyph-name="ldot" unicode="&#x140;" horiz-adv-x="624" 
d="M262 0h-175v1393h175v-1393zM349 696q0 48 28.5 76.5t77.5 28.5q47 0 75.5 -28.5t28.5 -76.5t-28.5 -76.5t-75.5 -28.5q-49 0 -77.5 28.5t-28.5 76.5z" />
    <glyph glyph-name="Lslash" unicode="&#x141;" horiz-adv-x="1014" 
d="M954 177v-177h-836v508l-85 -33v174l85 34v710h177v-641l134 52v-173l-134 -53v-401h659z" />
    <glyph glyph-name="lslash" unicode="&#x142;" horiz-adv-x="439" 
d="M306 0h-177v519l-96 -37v173l96 40v698h177v-630l100 40v-174l-100 -39v-590z" />
    <glyph glyph-name="Nacute" unicode="&#x143;" horiz-adv-x="1284" 
d="M714 1479h-141l89 323h197zM251 0h-177v1393h177l780 -1092v1092h175v-1339h2l-2 -2v-52h-175l-780 1091v-1091z" />
    <glyph glyph-name="nacute" unicode="&#x144;" horiz-adv-x="1028" 
d="M603 1070h-141l89 323h194zM770 493q0 149 -70.5 237.5t-189.5 88.5q-108 0 -179.5 -92.5t-71.5 -234.5v-492h-175v983h175v-183q29 86 106 140.5t174 54.5q187 0 296.5 -136.5t109.5 -365.5v-493h-175v493z" />
    <glyph glyph-name="uni0145" unicode="&#x145;" horiz-adv-x="1284" 
d="M251 0h-177v1393h177l780 -1092v1092h175v-1339h2l-2 -2v-52h-175l-780 1091v-1091zM541 -251q0 48 28.5 76.5t77.5 28.5q48 0 75.5 -28.5t27.5 -76.5q0 -66 -20 -125t-68 -137l-16 -29h-99l28 54q47 86 57 132q-42 4 -66.5 32.5t-24.5 72.5z" />
    <glyph glyph-name="uni0146" unicode="&#x146;" horiz-adv-x="1028" 
d="M770 493q0 149 -70.5 237.5t-189.5 88.5q-108 0 -179.5 -92.5t-71.5 -234.5v-492h-175v983h175v-183q29 86 106 140.5t174 54.5q187 0 296.5 -136.5t109.5 -365.5v-493h-175v493zM415 -251q0 48 27.5 76.5t76.5 28.5q48 0 76.5 -28.5t28.5 -76.5q0 -65 -21 -123.5
t-69 -138.5l-16 -29h-99l28 54q45 79 59 132q-42 4 -66.5 32t-24.5 73z" />
    <glyph glyph-name="Ncaron" unicode="&#x147;" horiz-adv-x="1284" 
d="M739 1478h-193l-256 324h193l159 -201l161 201h193zM251 0h-177v1393h177l780 -1092v1092h175v-1339h2l-2 -2v-52h-175l-780 1091v-1091z" />
    <glyph glyph-name="ncaron" unicode="&#x148;" horiz-adv-x="1028" 
d="M611 1068h-192l-257 325h194l160 -202l159 202h193zM770 493q0 149 -70.5 237.5t-189.5 88.5q-108 0 -179.5 -92.5t-71.5 -234.5v-492h-175v983h175v-183q29 86 106 140.5t174 54.5q187 0 296.5 -136.5t109.5 -365.5v-493h-175v493z" />
    <glyph glyph-name="napostrophe" unicode="&#x149;" horiz-adv-x="1263" 
d="M48 1098q0 48 28.5 76.5t77.5 28.5q47 0 75 -28.5t28 -76.5q0 -66 -20 -125t-68 -137l-17 -30h-100l30 54q42 77 57 133q-42 4 -66.5 32t-24.5 73zM1006 493q0 148 -71.5 237t-189.5 89q-108 0 -179 -92.5t-71 -234.5v-492h-176v983h176v-183q29 86 106 140.5t174 54.5
q186 0 296 -137t110 -365v-493h-175v493z" />
    <glyph glyph-name="Omacron" unicode="&#x14c;" horiz-adv-x="1392" 
d="M333 1575v175h727v-175h-727zM64 696q0 204 81 365t226 250.5t330 89.5t330.5 -89.5t226.5 -250.5t81 -365q0 -311 -178.5 -508.5t-459.5 -197.5q-185 0 -330 89.5t-226 250.5t-81 366zM701 1227q-204 0 -333 -148.5t-129 -382.5q0 -236 129 -384t333 -148t333 148
t129 384t-128 383.5t-334 147.5z" />
    <glyph glyph-name="omacron" unicode="&#x14d;" horiz-adv-x="1076" 
d="M175 1165v175h728v-175h-728zM59 493q0 212 139 357t343 145q202 0 340 -145t138 -357q0 -140 -63 -255.5t-172.5 -181.5t-242.5 -66q-204 0 -343 144.5t-139 358.5zM541 819q-129 0 -217 -93.5t-88 -232.5q0 -140 87.5 -233t217.5 -93q129 0 216 93t87 233
q0 139 -87 232.5t-216 93.5z" />
    <glyph glyph-name="Obreve" unicode="&#x14e;" horiz-adv-x="1392" 
d="M400 1802h142q4 -67 46.5 -108t107.5 -41t107.5 41t46.5 108h143q-4 -130 -86 -210t-211 -80q-128 0 -210 80t-86 210zM64 696q0 204 81 365t226 250.5t330 89.5t330.5 -89.5t226.5 -250.5t81 -365q0 -311 -178.5 -508.5t-459.5 -197.5q-185 0 -330 89.5t-226 250.5
t-81 366zM701 1227q-204 0 -333 -148.5t-129 -382.5q0 -236 129 -384t333 -148t333 148t129 384t-128 383.5t-334 147.5z" />
    <glyph glyph-name="obreve" unicode="&#x14f;" horiz-adv-x="1076" 
d="M244 1393h143q2 -67 45 -108t109 -41q64 0 106 41t46 108h143q-4 -130 -85.5 -210t-209.5 -80q-130 0 -212.5 80t-84.5 210zM59 493q0 212 139 357t343 145q202 0 340 -145t138 -357q0 -140 -63 -255.5t-172.5 -181.5t-242.5 -66q-204 0 -343 144.5t-139 358.5zM541 819
q-129 0 -217 -93.5t-88 -232.5q0 -140 87.5 -233t217.5 -93q129 0 216 93t87 233q0 139 -87 232.5t-216 93.5z" />
    <glyph glyph-name="Ohungarumlaut" unicode="&#x150;" horiz-adv-x="1392" 
d="M585 1479h-141l88 323h195zM942 1479h-139l88 323h195zM64 696q0 204 81 365t226 250.5t330 89.5t330.5 -89.5t226.5 -250.5t81 -365q0 -311 -178.5 -508.5t-459.5 -197.5q-185 0 -330 89.5t-226 250.5t-81 366zM701 1227q-204 0 -333 -148.5t-129 -382.5
q0 -236 129 -384t333 -148t333 148t129 384t-128 383.5t-334 147.5z" />
    <glyph glyph-name="ohungarumlaut" unicode="&#x151;" horiz-adv-x="1076" 
d="M419 1070h-139l89 323h195zM778 1070h-141l89 323h196zM59 493q0 212 139 357t343 145q202 0 340 -145t138 -357q0 -140 -63 -255.5t-172.5 -181.5t-242.5 -66q-204 0 -343 144.5t-139 358.5zM541 819q-129 0 -217 -93.5t-88 -232.5q0 -140 87.5 -233t217.5 -93
q129 0 216 93t87 233q0 139 -87 232.5t-216 93.5z" />
    <glyph glyph-name="OE" unicode="&#x152;" horiz-adv-x="2082" 
d="M64 696q0 204 81 365t226 250.5t330 89.5q142 0 261.5 -53.5t205.5 -151.5v197h821v-176h-646v-432h631v-177h-631v-431h661v-177h-836v195q-86 -98 -205.5 -151.5t-261.5 -53.5q-185 0 -330 89.5t-226 250.5t-81 366zM701 1227q-204 0 -333 -148.5t-129 -382.5
q0 -236 129 -384t333 -148t333 148t129 384t-128 383.5t-334 147.5z" />
    <glyph glyph-name="oe" unicode="&#x153;" horiz-adv-x="1869" 
d="M69 493q0 139 63.5 254.5t173.5 181.5t243 66q121 0 222.5 -54.5t168.5 -150.5q64 96 165.5 150.5t221.5 54.5q202 0 339.5 -142.5t137.5 -351.5q0 -34 -5 -72h-765q17 -123 98 -198t198 -75q85 0 151 39t100 105h187q-51 -139 -170 -224.5t-266 -85.5
q-126 0 -228.5 53.5t-166.5 148.5q-65 -94 -166.5 -148t-221.5 -54q-203 0 -341.5 145t-138.5 358zM1034 559h590q-17 118 -99.5 193t-197.5 75q-113 0 -193.5 -74t-99.5 -194zM549 819q-128 0 -216.5 -94t-88.5 -232q0 -139 88.5 -232.5t216.5 -93.5q129 0 216 93t87 233
q0 139 -87 232.5t-216 93.5z" />
    <glyph glyph-name="Racute" unicode="&#x154;" horiz-adv-x="1119" 
d="M557 1479h-139l88 323h195zM252 0h-177v1393h487q214 0 344.5 -119t130.5 -322q0 -156 -80 -268t-218 -155l352 -529h-210l-332 505h-297v-505zM562 1217h-310v-535h325q123 0 203 75.5t80 194.5t-82.5 192t-215.5 73z" />
    <glyph glyph-name="racute" unicode="&#x155;" horiz-adv-x="686" 
d="M398 1070h-141l89 323h195zM636 995v-176q-181 1 -281.5 -89.5t-100.5 -256.5v-473h-175v983h175v-201q28 60 73 103.5t97.5 66.5t104.5 33t107 10z" />
    <glyph glyph-name="uni0156" unicode="&#x156;" horiz-adv-x="1119" 
d="M252 0h-177v1393h487q214 0 344.5 -119t130.5 -322q0 -156 -80 -268t-218 -155l352 -529h-210l-332 505h-297v-505zM562 1217h-310v-535h325q123 0 203 75.5t80 194.5t-82.5 192t-215.5 73zM459 -251q0 48 28.5 76.5t76.5 28.5t76 -28.5t28 -76.5q0 -65 -20.5 -124.5
t-67.5 -137.5l-18 -28h-98l29 54q44 76 58 131q-43 5 -67.5 33.5t-24.5 71.5z" />
    <glyph glyph-name="uni0157" unicode="&#x157;" horiz-adv-x="686" 
d="M636 995v-176q-181 1 -281.5 -89.5t-100.5 -256.5v-473h-175v983h175v-201q28 60 73 103.5t97.5 66.5t104.5 33t107 10zM62 -247q0 47 28 75.5t77 28.5q48 0 76.5 -28.5t28.5 -75.5q0 -65 -21 -124.5t-69 -139.5l-17 -28h-98l28 54q44 74 59 133q-43 4 -67.5 32.5
t-24.5 72.5z" />
    <glyph glyph-name="Rcaron" unicode="&#x158;" horiz-adv-x="1119" 
d="M657 1478h-193l-258 324h194l160 -201l159 201h194zM252 0h-177v1393h487q214 0 344.5 -119t130.5 -322q0 -156 -80 -268t-218 -155l352 -529h-210l-332 505h-297v-505zM562 1217h-310v-535h325q123 0 203 75.5t80 194.5t-82.5 192t-215.5 73z" />
    <glyph glyph-name="rcaron" unicode="&#x159;" horiz-adv-x="686" 
d="M439 1068h-193l-256 325h194l158 -202l161 202h193zM636 995v-176q-181 1 -281.5 -89.5t-100.5 -256.5v-473h-175v983h175v-201q28 60 73 103.5t97.5 66.5t104.5 33t107 10z" />
    <glyph glyph-name="Sacute" unicode="&#x15a;" horiz-adv-x="1104" 
d="M614 1479h-139l89 323h195zM62 418h176q8 -114 101 -186.5t221 -72.5q131 0 218.5 63.5t88.5 165.5q1 47 -16 84t-42.5 61.5t-68 45t-80 32.5t-91.5 25q-15 4 -46 11q-82 19 -124 31t-108.5 41.5t-99.5 65.5t-59.5 98t-26.5 143q1 93 36.5 166t98 118t143 68t174.5 23
q189 0 319 -101t135 -283h-175q-8 101 -86.5 158t-192.5 57q-119 0 -197.5 -53.5t-79.5 -149.5q-1 -44 17 -77.5t36 -53t69.5 -39.5t74.5 -26t95 -23q19 -5 28 -7q51 -12 91 -23.5t88.5 -30.5t84.5 -40t71.5 -53t58.5 -69t36.5 -87.5t13.5 -109.5q-1 -114 -64 -205
t-172.5 -142.5t-245.5 -52.5q-133 0 -244 50t-181 148.5t-75 229.5z" />
    <glyph glyph-name="sacute" unicode="&#x15b;" horiz-adv-x="866" 
d="M493 1070h-141l89 323h196zM61 313h167q4 -71 66 -120.5t147 -51.5q80 -2 130 32.5t50 93.5q0 66 -52.5 103.5t-173.5 70.5q-54 15 -91 28.5t-80 37t-69.5 51t-44 69.5t-17.5 94q0 124 98 199t246 75q142 0 235.5 -80.5t105.5 -213.5h-159q-8 62 -59.5 102.5t-123.5 40.5
q-70 1 -117.5 -33t-49.5 -87q0 -33 17 -58t46.5 -40.5t55.5 -24.5t58 -17q6 -1 9 -2q137 -35 194 -65q147 -77 147 -248q0 -121 -102.5 -200t-257.5 -79q-146 0 -258.5 89.5t-116.5 233.5z" />
    <glyph glyph-name="Scircumflex" unicode="&#x15c;" horiz-adv-x="1104" 
d="M660 1802l258 -324h-194l-159 201l-160 -201h-194l258 324h191zM62 418h176q8 -114 101 -186.5t221 -72.5q131 0 218.5 63.5t88.5 165.5q1 47 -16 84t-42.5 61.5t-68 45t-80 32.5t-91.5 25q-15 4 -46 11q-82 19 -124 31t-108.5 41.5t-99.5 65.5t-59.5 98t-26.5 143
q1 93 36.5 166t98 118t143 68t174.5 23q189 0 319 -101t135 -283h-175q-8 101 -86.5 158t-192.5 57q-119 0 -197.5 -53.5t-79.5 -149.5q-1 -44 17 -77.5t36 -53t69.5 -39.5t74.5 -26t95 -23q19 -5 28 -7q51 -12 91 -23.5t88.5 -30.5t84.5 -40t71.5 -53t58.5 -69t36.5 -87.5
t13.5 -109.5q-1 -114 -64 -205t-172.5 -142.5t-245.5 -52.5q-133 0 -244 50t-181 148.5t-75 229.5z" />
    <glyph glyph-name="scircumflex" unicode="&#x15d;" horiz-adv-x="866" 
d="M534 1393l256 -325h-194l-159 202l-160 -202h-193l257 325h193zM61 313h167q4 -71 66 -120.5t147 -51.5q80 -2 130 32.5t50 93.5q0 66 -52.5 103.5t-173.5 70.5q-54 15 -91 28.5t-80 37t-69.5 51t-44 69.5t-17.5 94q0 124 98 199t246 75q142 0 235.5 -80.5t105.5 -213.5
h-159q-8 62 -59.5 102.5t-123.5 40.5q-70 1 -117.5 -33t-49.5 -87q0 -33 17 -58t46.5 -40.5t55.5 -24.5t58 -17q6 -1 9 -2q137 -35 194 -65q147 -77 147 -248q0 -121 -102.5 -200t-257.5 -79q-146 0 -258.5 89.5t-116.5 233.5z" />
    <glyph glyph-name="Scedilla" unicode="&#x15e;" horiz-adv-x="1104" 
d="M62 418h176q8 -114 101 -186.5t221 -72.5q131 0 218.5 63.5t88.5 165.5q1 47 -16 84t-42.5 61.5t-68 45t-80 32.5t-91.5 25q-15 4 -46 11q-82 19 -124 31t-108.5 41.5t-99.5 65.5t-59.5 98t-26.5 143q1 93 36.5 166t98 118t143 68t174.5 23q189 0 319 -101t135 -283h-175
q-8 101 -86.5 158t-192.5 57q-119 0 -197.5 -53.5t-79.5 -149.5q-1 -44 17 -77.5t36 -53t69.5 -39.5t74.5 -26t95 -23q19 -5 28 -7q51 -12 91 -23.5t88.5 -30.5t84.5 -40t71.5 -53t58.5 -69t36.5 -87.5t13.5 -109.5q-1 -150 -106 -256.5t-271 -133.5l-56 -274h-177l85 266
q-125 8 -226 60t-164 147.5t-67 218.5z" />
    <glyph glyph-name="scedilla" unicode="&#x15f;" horiz-adv-x="866" 
d="M61 313h167q4 -71 66 -120.5t147 -51.5q80 -2 130 32.5t50 93.5q0 66 -52.5 103.5t-173.5 70.5q-54 15 -91 28.5t-80 37t-69.5 51t-44 69.5t-17.5 94q0 124 98 199t246 75q142 0 235.5 -80.5t105.5 -213.5h-159q-8 62 -59.5 102.5t-123.5 40.5q-70 1 -117.5 -33
t-49.5 -87q0 -33 17 -58t46.5 -40.5t55.5 -24.5t58 -17q6 -1 9 -2q137 -35 194 -65q147 -77 147 -248q0 -102 -74 -175.5t-193 -95.5l-56 -272h-176l85 267q-130 17 -223.5 104t-97.5 216z" />
    <glyph glyph-name="Scaron" unicode="&#x160;" horiz-adv-x="1104" 
d="M649 1478h-194l-257 324h194l160 -201l159 201h193zM62 418h176q8 -114 101 -186.5t221 -72.5q131 0 218.5 63.5t88.5 165.5q1 47 -16 84t-42.5 61.5t-68 45t-80 32.5t-91.5 25q-15 4 -46 11q-82 19 -124 31t-108.5 41.5t-99.5 65.5t-59.5 98t-26.5 143q1 93 36.5 166
t98 118t143 68t174.5 23q189 0 319 -101t135 -283h-175q-8 101 -86.5 158t-192.5 57q-119 0 -197.5 -53.5t-79.5 -149.5q-1 -44 17 -77.5t36 -53t69.5 -39.5t74.5 -26t95 -23q19 -5 28 -7q51 -12 91 -23.5t88.5 -30.5t84.5 -40t71.5 -53t58.5 -69t36.5 -87.5t13.5 -109.5
q-1 -114 -64 -205t-172.5 -142.5t-245.5 -52.5q-133 0 -244 50t-181 148.5t-75 229.5z" />
    <glyph glyph-name="scaron" unicode="&#x161;" horiz-adv-x="866" 
d="M531 1068h-193l-258 325h194l160 -202l159 202h193zM61 313h167q4 -71 66 -120.5t147 -51.5q80 -2 130 32.5t50 93.5q0 66 -52.5 103.5t-173.5 70.5q-54 15 -91 28.5t-80 37t-69.5 51t-44 69.5t-17.5 94q0 124 98 199t246 75q142 0 235.5 -80.5t105.5 -213.5h-159
q-8 62 -59.5 102.5t-123.5 40.5q-70 1 -117.5 -33t-49.5 -87q0 -33 17 -58t46.5 -40.5t55.5 -24.5t58 -17q6 -1 9 -2q137 -35 194 -65q147 -77 147 -248q0 -121 -102.5 -200t-257.5 -79q-146 0 -258.5 89.5t-116.5 233.5z" />
    <glyph glyph-name="uni0162" unicode="&#x162;" 
d="M636 0h-15l-56 -274h-177l87 274h-15v1217h-424v176h1024v-176h-424v-1217z" />
    <glyph glyph-name="uni0163" unicode="&#x163;" horiz-adv-x="684" 
d="M252 1191h133v-208h231v-167h-231v-475q0 -87 38 -127t121 -40h72v-174h-70l-56 -274h-177l92 287q-102 25 -149.5 101.5t-47.5 216.5v485h-152v167h152z" />
    <glyph glyph-name="Tcaron" unicode="&#x164;" 
d="M646 1478h-194l-255 324h193l159 -201l160 201h194zM636 0h-176v1217h-424v176h1024v-176h-424v-1217z" />
    <glyph glyph-name="tcaron" unicode="&#x165;" horiz-adv-x="715" 
d="M510 1402q0 47 28 75.5t76 28.5t76.5 -28.5t28.5 -75.5q0 -66 -20 -125.5t-68 -137.5l-18 -28h-99l30 54q42 73 57 131q-43 5 -67 33.5t-24 72.5zM252 1191h133v-208h231v-167h-231v-475q0 -87 38 -127t121 -40h72v-174h-88q-169 0 -244.5 77.5t-75.5 253.5v485h-152v167
h152z" />
    <glyph glyph-name="Tbar" unicode="&#x166;" 
d="M636 0h-176v544h-276v177h276v496h-424v176h1024v-176h-424v-496h275v-177h-275v-544z" />
    <glyph glyph-name="tbar" unicode="&#x167;" horiz-adv-x="684" 
d="M252 1191h133v-208h231v-167h-231v-223h231v-165h-231v-87q0 -87 38 -127t121 -40h72v-174h-88q-169 0 -244.5 77.5t-75.5 253.5v97h-152v165h152v223h-152v167h152z" />
    <glyph glyph-name="Utilde" unicode="&#x168;" horiz-adv-x="1297" 
d="M370 1517h-114q10 130 66 207.5t140 77.5q43 0 83 -14.5t71.5 -35.5t60.5 -42t60.5 -35.5t60.5 -14.5q41 0 66 36.5t31 105.5h113q-4 -128 -61 -206.5t-147 -78.5q-45 0 -85.5 15t-69.5 36t-55.5 42t-57.5 36t-62 15q-36 0 -64.5 -40.5t-35.5 -103.5zM80 696v697h177
v-697q0 -274 93 -403t292 -129q197 0 290.5 129.5t93.5 402.5v697h177v-697q0 -345 -143.5 -525.5t-417.5 -180.5q-275 0 -418.5 180t-143.5 526z" />
    <glyph glyph-name="utilde" unicode="&#x169;" horiz-adv-x="1007" 
d="M226 1108h-115q10 130 66.5 207.5t140.5 77.5q52 0 102 -22.5t83 -49t74 -49t77 -22.5q40 0 65 37t31 106h113q-4 -128 -61 -206.5t-147 -78.5q-55 0 -104 22.5t-79 49.5t-69 49.5t-77 22.5q-36 0 -64.5 -40.5t-35.5 -103.5zM247 490q0 -148 70.5 -236.5t188.5 -88.5
q109 0 180 92t71 235v491h177v-983h-177v184q-29 -86 -106 -140.5t-174 -54.5q-186 0 -296.5 136.5t-110.5 364.5v493h177v-493z" />
    <glyph glyph-name="Umacron" unicode="&#x16a;" horiz-adv-x="1297" 
d="M285 1575v175h728v-175h-728zM80 696v697h177v-697q0 -274 93 -403t292 -129q197 0 290.5 129.5t93.5 402.5v697h177v-697q0 -345 -143.5 -525.5t-417.5 -180.5q-275 0 -418.5 180t-143.5 526z" />
    <glyph glyph-name="umacron" unicode="&#x16b;" horiz-adv-x="1007" 
d="M141 1165v175h727v-175h-727zM247 490q0 -148 70.5 -236.5t188.5 -88.5q109 0 180 92t71 235v491h177v-983h-177v184q-29 -86 -106 -140.5t-174 -54.5q-186 0 -296.5 136.5t-110.5 364.5v493h177v-493z" />
    <glyph glyph-name="Ubreve" unicode="&#x16c;" horiz-adv-x="1297" 
d="M354 1802h141q4 -67 46.5 -108t107.5 -41t107.5 41t46.5 108h142q-4 -130 -85.5 -210t-210.5 -80q-128 0 -210.5 80t-84.5 210zM80 696v697h177v-697q0 -274 93 -403t292 -129q197 0 290.5 129.5t93.5 402.5v697h177v-697q0 -345 -143.5 -525.5t-417.5 -180.5
q-275 0 -418.5 180t-143.5 526z" />
    <glyph glyph-name="ubreve" unicode="&#x16d;" horiz-adv-x="1007" 
d="M208 1393h143q4 -67 46.5 -108t107.5 -41t107.5 41t46.5 108h142q-4 -130 -85.5 -210t-210.5 -80q-128 0 -210.5 80t-86.5 210zM247 490q0 -148 70.5 -236.5t188.5 -88.5q109 0 180 92t71 235v491h177v-983h-177v184q-29 -86 -106 -140.5t-174 -54.5q-186 0 -296.5 136.5
t-110.5 364.5v493h177v-493z" />
    <glyph glyph-name="Uring" unicode="&#x16e;" horiz-adv-x="1297" 
d="M480 1637q0 76 48 122.5t122 46.5t121 -46.5t47 -122.5q0 -75 -47.5 -122t-120.5 -47q-74 0 -122 47t-48 122zM650 1729q-40 0 -66.5 -25.5t-26.5 -66.5q0 -40 27 -66t66 -26q38 0 65 26.5t27 65.5q0 40 -26.5 66t-65.5 26zM80 696v697h177v-697q0 -274 93 -403t292 -129
q197 0 290.5 129.5t93.5 402.5v697h177v-697q0 -345 -143.5 -525.5t-417.5 -180.5q-275 0 -418.5 180t-143.5 526z" />
    <glyph glyph-name="uring" unicode="&#x16f;" horiz-adv-x="1007" 
d="M336 1227q0 76 47.5 122.5t121.5 46.5t121 -46.5t47 -122.5q0 -75 -47 -122t-121 -47t-121.5 47t-47.5 122zM506 1319q-40 0 -67.5 -25.5t-27.5 -66.5q0 -40 27.5 -66t67.5 -26q37 0 63.5 26.5t26.5 65.5q0 40 -25.5 66t-64.5 26zM247 490q0 -148 70.5 -236.5
t188.5 -88.5q109 0 180 92t71 235v491h177v-983h-177v184q-29 -86 -106 -140.5t-174 -54.5q-186 0 -296.5 136.5t-110.5 364.5v493h177v-493z" />
    <glyph glyph-name="Uhungarumlaut" unicode="&#x170;" horiz-adv-x="1297" 
d="M531 1479h-141l88 323h197zM890 1479h-141l88 323h195zM80 696v697h177v-697q0 -274 93 -403t292 -129q197 0 290.5 129.5t93.5 402.5v697h177v-697q0 -345 -143.5 -525.5t-417.5 -180.5q-275 0 -418.5 180t-143.5 526z" />
    <glyph glyph-name="uhungarumlaut" unicode="&#x171;" horiz-adv-x="1007" 
d="M382 1070h-140l89 323h195zM741 1070h-141l88 323h197zM247 490q0 -148 70.5 -236.5t188.5 -88.5q109 0 180 92t71 235v491h177v-983h-177v184q-29 -86 -106 -140.5t-174 -54.5q-186 0 -296.5 136.5t-110.5 364.5v493h177v-493z" />
    <glyph glyph-name="Uogonek" unicode="&#x172;" horiz-adv-x="1297" 
d="M80 696v697h177v-697q0 -274 93 -403t292 -129q197 0 290.5 129.5t93.5 402.5v697h177v-697q0 -294 -105 -468.5t-307 -220.5q-78 -69 -67 -141q6 -41 39.5 -65.5t88.5 -24.5v-118q-237 0 -249 180q-5 97 67 152h-28q-275 0 -418.5 180t-143.5 526z" />
    <glyph glyph-name="uogonek" unicode="&#x173;" horiz-adv-x="1007" 
d="M247 490q0 -148 70.5 -236.5t188.5 -88.5q109 0 180 92t71 235v491h177v-983h-31q-80 -68 -69 -141q8 -41 41.5 -65.5t86.5 -24.5v-118q-236 0 -248 180q-7 107 89 169h-46v184q-29 -86 -106 -140.5t-174 -54.5q-186 0 -296.5 136.5t-110.5 364.5v493h177v-493z" />
    <glyph glyph-name="Wcircumflex" unicode="&#x174;" horiz-adv-x="1756" 
d="M975 1802l257 -324h-193l-161 201l-159 -201h-193l256 324h193zM444 0v3l-429 1390h183l328 -1055l260 1055h181l259 -1057l329 1057h182l-431 -1393h-180l-249 1024l-253 -1024h-180z" />
    <glyph glyph-name="wcircumflex" unicode="&#x175;" horiz-adv-x="1472" 
d="M834 1393l256 -325h-194l-159 202l-160 -202h-194l258 325h193zM518 0h-185l-310 983h183l218 -691l220 691h183l218 -691l218 691h185l-311 -983h-183l-218 691z" />
    <glyph glyph-name="Ycircumflex" unicode="&#x176;" horiz-adv-x="1200" 
d="M698 1802l256 -324h-192l-161 201l-160 -201h-192l256 324h193zM686 591v-591h-175v591l-496 802h203l382 -651l380 651h203z" />
    <glyph glyph-name="ycircumflex" unicode="&#x177;" horiz-adv-x="1009" 
d="M601 1393l258 -325h-194l-160 202l-159 -202h-194l256 325h193zM988 983l-429 -1085q-26 -65 -43 -101.5t-43.5 -75.5t-56 -57t-72.5 -30t-102 -12h-60v173h44q54 0 90 28t64 97l30 80l-390 983h188l297 -747l296 747h187z" />
    <glyph glyph-name="Ydieresis" unicode="&#x178;" horiz-adv-x="1200" 
d="M313 1688q0 47 28.5 75.5t76.5 28.5t76.5 -28.5t28.5 -75.5q0 -48 -28.5 -77.5t-76.5 -29.5t-76.5 29.5t-28.5 77.5zM678 1688q0 47 29 75.5t78 28.5q46 0 74.5 -28.5t28.5 -75.5q0 -48 -28.5 -77.5t-74.5 -29.5q-49 0 -78 29.5t-29 77.5zM686 591v-591h-175v591
l-496 802h203l382 -651l380 651h203z" />
    <glyph glyph-name="Zacute" unicode="&#x179;" horiz-adv-x="1104" 
d="M611 1479h-139l88 323h195zM59 0v133l742 1088h-731v172h965v-140l-735 -1081h745v-172h-986z" />
    <glyph glyph-name="zacute" unicode="&#x17a;" horiz-adv-x="878" 
d="M495 1070h-139l88 323h195zM59 0v133l505 678h-494v172h734v-139l-496 -672h506v-172h-755z" />
    <glyph glyph-name="Zdotaccent" unicode="&#x17b;" horiz-adv-x="1104" 
d="M449 1688q0 47 28.5 75.5t76.5 28.5t76.5 -28.5t28.5 -75.5q0 -48 -28.5 -77.5t-76.5 -29.5t-76.5 29.5t-28.5 77.5zM59 0v133l742 1088h-731v172h965v-140l-735 -1081h745v-172h-986z" />
    <glyph glyph-name="zdotaccent" unicode="&#x17c;" horiz-adv-x="878" 
d="M334 1278q0 47 29 76t78 29q46 0 74.5 -29t28.5 -76q0 -48 -28.5 -77.5t-74.5 -29.5q-49 0 -78 29.5t-29 77.5zM59 0v133l505 678h-494v172h734v-139l-496 -672h506v-172h-755z" />
    <glyph glyph-name="Zcaron" unicode="&#x17d;" horiz-adv-x="1104" 
d="M650 1478h-193l-257 324h193l161 -201l159 201h193zM59 0v133l742 1088h-731v172h965v-140l-735 -1081h745v-172h-986z" />
    <glyph glyph-name="zcaron" unicode="&#x17e;" horiz-adv-x="878" 
d="M536 1068h-194l-255 325h193l159 -202l161 202h193zM59 0v133l505 678h-494v172h734v-139l-496 -672h506v-172h-755z" />
    <glyph glyph-name="longs" unicode="&#x17f;" horiz-adv-x="558" 
d="M103 0v1073q0 176 75.5 253.5t245.5 77.5h87v-174h-72q-84 0 -121.5 -39.5t-37.5 -127.5v-1063h-177z" />
    <glyph glyph-name="florin" unicode="&#x192;" horiz-adv-x="670" 
d="M51 816v167h151v90q0 176 75 253.5t244 77.5h87v-174h-71q-84 0 -122 -39.5t-38 -127.5v-80h232v-167h-232v-906q0 -176 -75.5 -253.5t-244.5 -77.5h-88v174h72q84 0 122.5 39.5t38.5 127.5v896h-151z" />
    <glyph glyph-name="uni0218" unicode="&#x218;" horiz-adv-x="1104" 
d="M62 418h176q8 -114 101 -186.5t221 -72.5q131 0 218.5 63.5t88.5 165.5q1 47 -16 84t-42.5 61.5t-68 45t-80 32.5t-91.5 25q-15 4 -46 11q-82 19 -124 31t-108.5 41.5t-99.5 65.5t-59.5 98t-26.5 143q1 93 36.5 166t98 118t143 68t174.5 23q189 0 319 -101t135 -283h-175
q-8 101 -86.5 158t-192.5 57q-119 0 -197.5 -53.5t-79.5 -149.5q-1 -44 17 -77.5t36 -53t69.5 -39.5t74.5 -26t95 -23q19 -5 28 -7q51 -12 91 -23.5t88.5 -30.5t84.5 -40t71.5 -53t58.5 -69t36.5 -87.5t13.5 -109.5q-1 -114 -64 -205t-172.5 -142.5t-245.5 -52.5
q-133 0 -244 50t-181 148.5t-75 229.5zM462 -251q0 48 29 76.5t78 28.5q47 0 75 -28.5t28 -76.5q0 -66 -20.5 -124.5t-68.5 -137.5l-16 -29h-98l27 54q45 81 58 132q-42 4 -67 32.5t-25 72.5z" />
    <glyph glyph-name="uni0219" unicode="&#x219;" horiz-adv-x="866" 
d="M61 313h167q4 -71 66 -120.5t147 -51.5q80 -2 130 32.5t50 93.5q0 66 -52.5 103.5t-173.5 70.5q-54 15 -91 28.5t-80 37t-69.5 51t-44 69.5t-17.5 94q0 124 98 199t246 75q142 0 235.5 -80.5t105.5 -213.5h-159q-8 62 -59.5 102.5t-123.5 40.5q-70 1 -117.5 -33
t-49.5 -87q0 -33 17 -58t46.5 -40.5t55.5 -24.5t58 -17q6 -1 9 -2q137 -35 194 -65q147 -77 147 -248q0 -121 -102.5 -200t-257.5 -79q-146 0 -258.5 89.5t-116.5 233.5zM341 -251q0 48 28.5 76.5t76.5 28.5t76.5 -28.5t28.5 -76.5q0 -66 -20.5 -124.5t-68.5 -137.5l-18 -29
h-98l29 54q45 81 58 132q-43 4 -67.5 32.5t-24.5 72.5z" />
    <glyph glyph-name="uni021A" unicode="&#x21a;" 
d="M636 0h-176v1217h-424v176h1024v-176h-424v-1217zM444 -251q0 48 28 76.5t77 28.5q48 0 76.5 -28.5t28.5 -76.5q0 -65 -21 -123.5t-69 -138.5l-17 -29h-98l28 54q45 79 59 132q-43 4 -67.5 32.5t-24.5 72.5z" />
    <glyph glyph-name="uni021B" unicode="&#x21b;" horiz-adv-x="684" 
d="M252 1191h133v-208h231v-167h-231v-475q0 -87 38 -127t121 -40h72v-174h-88q-169 0 -244.5 77.5t-75.5 253.5v485h-152v167h152zM269 -251q0 48 28.5 76.5t77.5 28.5q48 0 75.5 -28.5t27.5 -76.5q0 -66 -20 -125t-68 -137l-16 -29h-99l28 54q47 86 57 132
q-42 4 -66.5 32.5t-24.5 72.5z" />
    <glyph glyph-name="uni0237" unicode="&#x237;" horiz-adv-x="386" 
d="M88 1278q0 47 29 76t78 29q46 0 74.5 -29t28.5 -76q0 -48 -28.5 -77.5t-74.5 -29.5q-49 0 -78 29.5t-29 77.5zM282 983v-1103q0 -176 -75.5 -253.5t-245.5 -77.5h-87v174h72q84 0 121.5 39.5t37.5 127.5v1093h177z" />
    <glyph glyph-name="circumflex" unicode="&#x2c6;" horiz-adv-x="827" 
d="M511 1393l256 -325h-194l-158 202l-161 -202h-193l257 325h193z" />
    <glyph glyph-name="caron" unicode="&#x2c7;" horiz-adv-x="812" 
d="M505 1068h-194l-255 325h193l159 -202l161 202h193z" />
    <glyph glyph-name="uni02C9" unicode="&#x2c9;" horiz-adv-x="753" 
d="M70 1165v175h605v-175h-605z" />
    <glyph glyph-name="breve" unicode="&#x2d8;" horiz-adv-x="650" 
d="M28 1393h142q4 -67 46.5 -108t107.5 -41t107 41t46 108h142q-4 -130 -85.5 -210t-209.5 -80q-129 0 -210.5 80t-85.5 210z" />
    <glyph glyph-name="dotaccent" unicode="&#x2d9;" horiz-adv-x="281" 
d="M34 1278q0 47 28.5 76t76.5 29t76.5 -29t28.5 -76q0 -48 -28.5 -77.5t-76.5 -29.5t-76.5 29.5t-28.5 77.5z" />
    <glyph glyph-name="ring" unicode="&#x2da;" horiz-adv-x="422" 
d="M43 1227q0 76 47.5 122.5t122.5 46.5q73 0 120 -46.5t47 -122.5q0 -75 -47 -122t-120 -47q-75 0 -122.5 47t-47.5 122zM213 1319q-40 0 -66.5 -25.5t-26.5 -66.5q0 -40 27 -66t66 -26q38 0 65 26.5t27 65.5q0 40 -26.5 66t-65.5 26z" />
    <glyph glyph-name="ogonek" unicode="&#x2db;" horiz-adv-x="330" 
d="M164 18l69 -18q-80 -68 -69 -141q6 -41 40.5 -65.5t87.5 -24.5v-118q-236 0 -248 180q-10 123 120 187z" />
    <glyph glyph-name="tilde" unicode="&#x2dc;" horiz-adv-x="860" 
d="M164 1108h-115q10 130 66.5 207.5t140.5 77.5q52 0 102 -22.5t83 -49t73.5 -49t76.5 -22.5q41 0 66 37t31 106h113q-4 -128 -61 -206.5t-147 -78.5q-55 0 -104 22.5t-79 49.5t-69 49.5t-77 22.5q-36 0 -64.5 -40.5t-35.5 -103.5z" />
    <glyph glyph-name="hungarumlaut" unicode="&#x2dd;" horiz-adv-x="714" 
d="M179 1070h-140l89 323h195zM537 1070h-141l89 323h197z" />
    <glyph glyph-name="uni0326" unicode="&#x326;" horiz-adv-x="293" 
d="M39 97q0 47 29 75t78 28q46 0 74.5 -28t28.5 -75q0 -66 -20.5 -126t-67.5 -138l-17 -28h-98l28 54q42 73 57 131q-42 5 -67 34t-25 73z" />
    <glyph glyph-name="uni0394" unicode="&#x394;" horiz-adv-x="1350" 
d="M16 0l564 1393h188l564 -1393h-1316zM274 170h801l-400 990z" />
    <glyph glyph-name="uni03A9" unicode="&#x3a9;" horiz-adv-x="1558" 
d="M580 0h-501v174h227q-177 199 -177 508q0 208 82.5 372t230.5 255.5t336 91.5q189 0 337 -91.5t230 -255.5t82 -372q0 -311 -175 -508h227v-174h-501v174q129 60 201.5 192.5t72.5 313.5q0 242 -132.5 394.5t-341.5 152.5t-340.5 -153t-131.5 -394q0 -180 73 -313
t201 -193v-174z" />
    <glyph glyph-name="uni03BC" unicode="&#x3bc;" horiz-adv-x="1012" 
d="M247 490q0 -148 70.5 -236.5t188.5 -88.5q109 0 180 92t71 235v491h177v-983h-177v184q-29 -86 -106 -140.5t-174 -54.5q-133 0 -230 72v-423h-177v1345h177v-493z" />
    <glyph glyph-name="pi" unicode="&#x3c0;" horiz-adv-x="1292" 
d="M1226 174v-174h-66q-170 0 -245.5 77.5t-75.5 253.5v491h-420v-822h-177v822h-183v161h1167v-161h-210v-481q0 -87 38 -127t121 -40h51z" />
    <glyph glyph-name="Wgrave" unicode="&#x1e80;" horiz-adv-x="1756" 
d="M801 1479l-144 323h195l88 -323h-139zM444 0v3l-429 1390h183l328 -1055l260 1055h181l259 -1057l329 1057h182l-431 -1393h-180l-249 1024l-253 -1024h-180z" />
    <glyph glyph-name="wgrave" unicode="&#x1e81;" horiz-adv-x="1472" 
d="M662 1070l-144 323h195l88 -323h-139zM518 0h-185l-310 983h183l218 -691l220 691h183l218 -691l218 691h185l-311 -983h-183l-218 691z" />
    <glyph glyph-name="Wacute" unicode="&#x1e82;" horiz-adv-x="1756" 
d="M949 1479h-141l88 323h195zM444 0v3l-429 1390h183l328 -1055l260 1055h181l259 -1057l329 1057h182l-431 -1393h-180l-249 1024l-253 -1024h-180z" />
    <glyph glyph-name="wacute" unicode="&#x1e83;" horiz-adv-x="1472" 
d="M806 1070h-141l89 323h195zM518 0h-185l-310 983h183l218 -691l220 691h183l218 -691l218 691h185l-311 -983h-183l-218 691z" />
    <glyph glyph-name="Wdieresis" unicode="&#x1e84;" horiz-adv-x="1756" 
d="M590 1688q0 47 28.5 75.5t77.5 28.5q46 0 75 -29t29 -75q0 -48 -28.5 -77.5t-75.5 -29.5q-49 0 -77.5 29.5t-28.5 77.5zM957 1688q0 47 28.5 75.5t76.5 28.5t76.5 -28.5t28.5 -75.5q0 -48 -28.5 -77.5t-76.5 -29.5t-76.5 29.5t-28.5 77.5zM444 0v3l-429 1390h183
l328 -1055l260 1055h181l259 -1057l329 1057h182l-431 -1393h-180l-249 1024l-253 -1024h-180z" />
    <glyph glyph-name="wdieresis" unicode="&#x1e85;" horiz-adv-x="1472" 
d="M449 1278q0 47 28 76t77 29q48 0 76.5 -29t28.5 -76q0 -48 -28.5 -77.5t-76.5 -29.5q-49 0 -77 29t-28 78zM814 1278q0 47 28.5 76t76.5 29t76.5 -29t28.5 -76q0 -48 -28.5 -77.5t-76.5 -29.5t-76.5 29.5t-28.5 77.5zM518 0h-185l-310 983h183l218 -691l220 691h183
l218 -691l218 691h185l-311 -983h-183l-218 691z" />
    <glyph glyph-name="endash" unicode="&#x2013;" horiz-adv-x="863" 
d="M67 544v175h724v-175h-724z" />
    <glyph glyph-name="emdash" unicode="&#x2014;" horiz-adv-x="1276" 
d="M67 544v175h1126v-175h-1126z" />
    <glyph glyph-name="quoteleft" unicode="&#x2018;" horiz-adv-x="344" 
d="M270 1101q0 -47 -28.5 -76t-76.5 -29t-76 29t-28 76q0 66 20 125.5t68 138.5l16 28h100l-29 -54q-42 -73 -57 -133q42 -4 66.5 -32t24.5 -73z" />
    <glyph glyph-name="quoteright" unicode="&#x2019;" horiz-adv-x="344" 
d="M69 1288q0 48 28.5 76.5t77.5 28.5q48 0 76 -28.5t28 -76.5q0 -66 -20.5 -124.5t-68.5 -137.5l-16 -30h-99l28 54q49 89 58 133q-42 5 -67 33t-25 72z" />
    <glyph glyph-name="quotesinglbase" unicode="&#x201a;" horiz-adv-x="352" 
d="M74 97q0 47 28.5 75t76.5 28t76 -28t28 -75q0 -66 -20.5 -126t-67.5 -138l-16 -28h-100l29 54q42 73 57 131q-43 5 -67 34t-24 73z" />
    <glyph glyph-name="quotedblleft" unicode="&#x201c;" horiz-adv-x="658" 
d="M270 1101q0 -47 -28.5 -76t-76.5 -29t-76 29t-28 76q0 66 20 125.5t68 138.5l16 28h100l-29 -54q-42 -73 -57 -133q42 -4 66.5 -32t24.5 -73zM585 1101q0 -47 -28.5 -76t-76.5 -29t-76.5 29t-28.5 76q0 66 20.5 125t68.5 139l16 28h100l-29 -54q-43 -76 -58 -133
q43 -4 67.5 -32.5t24.5 -72.5z" />
    <glyph glyph-name="quotedblright" unicode="&#x201d;" horiz-adv-x="658" 
d="M382 1288q0 48 28.5 76.5t77.5 28.5q47 0 75 -28.5t28 -76.5q0 -66 -20 -125t-68 -137l-16 -30h-99l28 54q42 77 57 133q-42 5 -66.5 33t-24.5 72zM67 1288q0 48 29 76.5t78 28.5q47 0 75 -28.5t28 -76.5q0 -66 -20.5 -124.5t-68.5 -137.5l-16 -30h-98l28 54
q42 77 57 133q-42 5 -67 33t-25 72z" />
    <glyph glyph-name="quotedblbase" unicode="&#x201e;" horiz-adv-x="661" 
d="M385 97q0 47 28 75t77 28q48 0 76.5 -28t28.5 -75q0 -66 -21 -125.5t-69 -138.5l-17 -28h-98l28 54q44 75 59 131q-43 5 -67.5 34t-24.5 73zM70 97q0 47 28 75t77 28q48 0 76.5 -28t28.5 -75q0 -66 -21 -125.5t-69 -138.5l-16 -28h-99l28 54q44 75 59 131q-43 5 -67.5 34
t-24.5 73z" />
    <glyph glyph-name="dagger" unicode="&#x2020;" horiz-adv-x="886" 
d="M526 -249h-175v1057h-269v175h269v410h175v-410h270v-175h-270v-1057z" />
    <glyph glyph-name="daggerdbl" unicode="&#x2021;" horiz-adv-x="838" 
d="M526 -249h-175v426h-269v175h269v456h-269v175h269v410h175v-410h270v-175h-270v-456h270v-175h-270v-426z" />
    <glyph glyph-name="bullet" unicode="&#x2022;" horiz-adv-x="432" 
d="M69 791q0 66 41 107t108 41q66 0 106 -41t40 -107t-40 -106.5t-106 -40.5q-67 0 -108 40.5t-41 106.5z" />
    <glyph glyph-name="ellipsis" unicode="&#x2026;" horiz-adv-x="1020" 
d="M64 97q0 47 28.5 75t77.5 28q48 0 76 -28t28 -75q0 -48 -28 -77.5t-76 -29.5q-49 0 -77.5 29.5t-28.5 77.5zM405 97q0 47 28.5 75t77.5 28q47 0 75 -28t28 -75q0 -48 -28.5 -77.5t-74.5 -29.5q-49 0 -77.5 29.5t-28.5 77.5zM745 97q0 47 28.5 75t76.5 28t76.5 -28
t28.5 -75q0 -48 -28.5 -77.5t-76.5 -29.5t-76.5 29.5t-28.5 77.5z" />
    <glyph glyph-name="perthousand" unicode="&#x2030;" horiz-adv-x="2546" 
d="M70 1029q0 154 100.5 259t248.5 105t248.5 -105t100.5 -259q0 -156 -100.5 -260.5t-248.5 -104.5q-149 0 -249 104.5t-100 260.5zM706 0h-175l514 1393h176zM419 1234q-80 0 -135.5 -59.5t-55.5 -145.5q0 -87 55.5 -146t135.5 -59q81 0 136.5 59t55.5 146
q0 86 -55.5 145.5t-136.5 59.5zM986 356q0 154 100.5 258.5t248.5 104.5t248.5 -104.5t100.5 -258.5q0 -156 -100.5 -261t-248.5 -105q-149 0 -249 105t-100 261zM1773 356q0 154 100.5 258.5t248.5 104.5t248.5 -104.5t100.5 -258.5q0 -156 -100 -261t-249 -105
q-148 0 -248.5 105t-100.5 261zM1335 560q-80 0 -135.5 -59t-55.5 -145q0 -87 55.5 -146t135.5 -59q81 0 136.5 59t55.5 146q0 86 -55.5 145t-136.5 59zM2122 560q-80 0 -136 -59t-56 -145q0 -87 56 -146t136 -59q81 0 136 59t55 146q0 86 -55 145t-136 59z" />
    <glyph glyph-name="guilsinglleft" unicode="&#x2039;" horiz-adv-x="783" 
d="M80 588l367 395h241l-367 -395l367 -395h-241z" />
    <glyph glyph-name="guilsinglright" unicode="&#x203a;" horiz-adv-x="773" 
d="M700 588l-367 -395h-241l367 395l-367 395h241z" />
    <glyph glyph-name="fraction" unicode="&#x2044;" horiz-adv-x="738" 
d="M202 0h-177l514 1393h177z" />
    <glyph glyph-name="franc" unicode="&#x20a3;" horiz-adv-x="1068" 
d="M364 0h-177v210h-146v173h146v1010h821v-176h-644v-432h629v-177h-629v-225h296v-173h-296v-210z" />
    <glyph glyph-name="lira" unicode="&#x20a4;" horiz-adv-x="1086" 
d="M75 167q68 19 107 84.5t39 161.5h-151v167h151v208h-151v167h151v118q0 176 78 253.5t253 77.5h385v-174h-377q-85 0 -123.5 -39.5t-38.5 -127.5v-108h434v-167h-434v-208h434v-167l-434 2q0 -155 -92 -248h693v-167h-924v167z" />
    <glyph glyph-name="peseta" unicode="&#x20a7;" horiz-adv-x="2626" 
d="M573 505h-321v-505h-177v1393h484q214 0 344.5 -119t130.5 -322q0 -200 -128 -323.5t-333 -123.5zM559 1217h-307v-535h321q124 0 204 75.5t80 194.5t-82.5 192t-215.5 73zM1348 1191h133v-208h231v-167h-231v-475q0 -87 39 -127t122 -40h70v-174h-87q-169 0 -244 77.5
t-75 253.5v485h-154v167h154zM1822 313h167q4 -71 66 -120.5t147 -51.5q80 -2 130 32.5t50 93.5q0 66 -52.5 103.5t-173.5 70.5q-54 15 -91.5 28.5t-80 37t-68.5 51t-43.5 69.5t-17.5 94q0 124 97.5 199t246.5 75q142 0 235.5 -80.5t105.5 -213.5h-159q-8 62 -60 102.5
t-124 40.5q-70 2 -118.5 -33t-48.5 -87q0 -26 14 -48.5t27 -35t46 -26t43.5 -16.5t46.5 -13q7 -2 10 -3q137 -35 194 -65q147 -77 147 -248q0 -121 -103 -200t-258 -79q-146 0 -258.5 89.5t-116.5 233.5z" />
    <glyph glyph-name="Euro" unicode="&#x20ac;" horiz-adv-x="1463" 
d="M1185 911q-53 146 -152 226t-232 80q-130 0 -226 -78t-139 -217h495l-51 -139h-474q-5 -47 -5 -87q0 -26 4 -72h435l-37 -141h-372q43 -144 140.5 -225t231.5 -81t234 81t149 224h189q-52 -226 -204.5 -358t-364.5 -132t-360.5 132t-198.5 359h-157v141h138q-4 46 -4 72
q0 31 4 87h-141v139h162q52 223 199 351t358 128q210 0 360.5 -131t208.5 -359h-190z" />
    <glyph glyph-name="uni20BA" unicode="&#x20ba;" horiz-adv-x="1263" 
d="M1031 668h175q-42 -327 -247 -497.5t-561 -170.5h-118v554l-211 -58v156l211 59v146l-211 -59v157l211 58v380h175v-331l387 108v-156l-387 -108v-146l387 108v-157l-387 -108v-426q249 6 394 130.5t182 360.5z" />
    <glyph glyph-name="uni2113" unicode="&#x2113;" horiz-adv-x="812" 
d="M513 174h65v-174h-80q-175 0 -253 82.5t-78 268.5v185q-76 -6 -113 -4v140q41 0 113 10v360q0 161 79.5 260t208.5 99q135 0 214.5 -91.5t79.5 -247.5q0 -161 -113 -293.5t-292 -193.5v-210q0 -100 40 -145.5t129 -45.5zM344 1034v-298q106 51 167.5 132t61.5 177
q0 182 -118 182q-111 0 -111 -193z" />
    <glyph glyph-name="trademark" unicode="&#x2122;" horiz-adv-x="681" 
d="M198 1075h-49v268h-92v50h235v-50h-94v-268zM365 1075h-49v318h49l102 -164l106 164h48v-318h-48v228l-85 -132h-41l-82 132v-228z" />
    <glyph glyph-name="estimated" unicode="&#x212e;" horiz-adv-x="1143" 
d="M922 401l51 -37q-73 -93 -179 -146t-227 -53q-140 0 -259 69.5t-188 188.5t-69 259t69 259t188 188t259 69t259 -69t188 -188t69 -259q0 -22 -2 -32h-858v-263q64 -74 153 -116t191 -42q106 0 198.5 46t156.5 126zM223 976v-263h672v282q-137 139 -328 139
q-102 0 -191 -42t-153 -116z" />
    <glyph glyph-name="partialdiff" unicode="&#x2202;" horiz-adv-x="1102" 
d="M1034 477q0 -134 -64 -246t-176 -176.5t-247 -64.5t-246 64.5t-174 176.5t-63 246q0 133 63 243.5t174 175t246 64.5q5 0 15.5 -1t15.5 -1l-321 435h205l467 -613q105 -130 105 -303zM547 783q-130 0 -218 -89t-88 -217q0 -130 88 -220t218 -90q131 0 221.5 90.5
t90.5 219.5q0 128 -90.5 217t-221.5 89z" />
    <glyph glyph-name="product" unicode="&#x220f;" horiz-adv-x="1292" 
d="M121 -410v1803h1055v-1803h-175v1627h-703v-1627h-177z" />
    <glyph glyph-name="summation" unicode="&#x2211;" horiz-adv-x="1109" 
d="M98 1212v181h910v-181h-715l346 -720l-346 -721h715v-181h-910v181l348 721z" />
    <glyph glyph-name="minus" unicode="&#x2212;" horiz-adv-x="1015" 
d="M67 544v175h870v-175h-870z" />
    <glyph glyph-name="uni2215" unicode="&#x2215;" horiz-adv-x="1151" 
d="M223 0h-198l901 1393h198z" />
    <glyph glyph-name="uni2219" unicode="&#x2219;" horiz-adv-x="442" 
d="M69 791q0 66 41 107t108 41q66 0 106 -41t40 -107t-40 -106.5t-106 -40.5q-67 0 -108 40.5t-41 106.5z" />
    <glyph glyph-name="radical" unicode="&#x221a;" horiz-adv-x="1407" 
d="M606 0l-285 587h-251v178h361l265 -536l456 1164h188l-545 -1393h-189z" />
    <glyph glyph-name="infinity" unicode="&#x221e;" horiz-adv-x="1597" 
d="M80 708q0 154 105.5 263t255.5 109q108 0 192.5 -59t169.5 -171q85 112 169.5 171t192.5 59q148 0 253.5 -109t105.5 -263t-105.5 -264t-253.5 -110q-107 0 -191.5 59t-170.5 172q-86 -113 -170.5 -172t-191.5 -59q-150 0 -255.5 110t-105.5 264zM252 708
q0 -84 55 -143.5t134 -59.5q65 0 128 50t136 153q-73 102 -136.5 151.5t-127.5 49.5q-79 0 -134 -58.5t-55 -142.5zM1353 708q0 84 -54.5 142.5t-133.5 58.5q-66 0 -128 -49t-136 -152q72 -102 135.5 -152.5t128.5 -50.5q79 0 133.5 59.5t54.5 143.5z" />
    <glyph glyph-name="integral" unicode="&#x222b;" horiz-adv-x="671" 
d="M608 1230h-71q-84 0 -122 -39.5t-38 -127.5v-1153q0 -176 -75.5 -253.5t-244.5 -77.5h-88v174h72q84 0 122.5 39.5t38.5 127.5v1153q0 176 75 253.5t244 77.5h87v-174z" />
    <glyph glyph-name="approxequal" unicode="&#x2248;" horiz-adv-x="891" 
d="M167 698h-115q11 129 70.5 207t146.5 78q54 0 105.5 -22.5t85 -49t77.5 -49t86 -22.5q43 0 70 37t33 106h113q-4 -128 -63 -206.5t-153 -78.5q-48 0 -90.5 14.5t-73 35.5t-58.5 42t-60 35.5t-66 14.5q-39 0 -70 -40.5t-38 -101.5zM167 349h-115q11 130 70.5 207.5
t146.5 77.5q45 0 86 -14.5t73 -35.5t62 -42t64.5 -35.5t68.5 -14.5q43 0 70 36.5t33 105.5h113q-4 -128 -63 -206.5t-153 -78.5q-48 0 -90.5 15t-73 36t-58.5 42t-60 36t-66 15q-39 0 -70 -40.5t-38 -103.5z" />
    <glyph glyph-name="notequal" unicode="&#x2260;" horiz-adv-x="869" 
d="M74 778v174h378l61 165h177l-61 -165h164v-174h-229l-89 -239h318v-174h-382l-60 -165h-177l60 165h-160v174h224l89 239h-313z" />
    <glyph glyph-name="lessequal" unicode="&#x2264;" horiz-adv-x="902" 
d="M92 762v182l719 283v-182l-490 -191l490 -194v-180zM92 157v174h719v-174h-719z" />
    <glyph glyph-name="greaterequal" unicode="&#x2265;" horiz-adv-x="897" 
d="M92 480v180l490 194l-490 191v182l719 -283v-182zM811 157h-719v174h719v-174z" />
    <glyph glyph-name="lozenge" unicode="&#x25ca;" horiz-adv-x="1119" 
d="M25 492l435 901h190l436 -901l-436 -902h-190zM555 -215l343 707l-343 706l-340 -706z" />
    <glyph glyph-name="longs_t" unicode="&#xfb05;" horiz-adv-x="1025" 
d="M401 983h153l36 172h-175q-84 0 -122.5 -39t-38.5 -126v-990h-175v999q0 176 75 253.5t244 77.5h331v-347h233v-167h-233v-475q0 -87 39 -127t122 -40h72v-174h-89q-169 0 -244 77.5t-75 253.5v485h-153v167z" />
    <glyph glyph-name="NULL" horiz-adv-x="0" 
 />
    <glyph glyph-name="a.alt" horiz-adv-x="1037" 
d="M768 0v151q-32 -68 -120 -114.5t-184 -46.5q-174 0 -277 85.5t-103 225.5q0 143 97.5 212t303.5 69h283v14q0 113 -63 174.5t-179 61.5q-84 0 -149.5 -42.5t-76.5 -107.5h-185q11 135 127.5 224t280.5 89q196 0 308.5 -107t112.5 -292v-596h-176zM261 315
q0 -72 60.5 -114t166.5 -42q120 0 200 64.5t80 163.5v75h-280q-227 0 -227 -147z" />
    <glyph glyph-name="y.alt" horiz-adv-x="1012" 
d="M241 490q0 -148 71 -236.5t189 -88.5q108 0 179.5 92.5t71.5 234.5v491h175v-931q0 -226 -116 -364.5t-306 -138.5q-162 0 -276 98t-150 269h186q28 -89 93 -140t148 -51q110 0 178 90t68 237v132q-29 -86 -106 -140.5t-174 -54.5q-186 0 -296 136.5t-110 364.5v493h175
v-493z" />
    </font>
</defs>
</svg>
