<svg width="55" height="55" viewBox="0 0 55 55" fill="none" xmlns="http://www.w3.org/2000/svg">
<path class="js-svg" d="M55 0H0V55H55V0Z" fill="#f7df1c"/>
<path d="M36.8595 43.1667C37.9773 45 39.4305 46.3333 42.0574 46.3333C44.2372 46.3333 45.6344 45.2778 45.6344 43.7778C45.6344 42 44.1813 41.3333 41.8338 40.3333L40.5483 39.7778C36.7477 38.1667 34.2326 36.1667 34.2326 31.8889C34.2326 28 37.2508 25 41.9456 25C45.2991 25 47.7024 26.1667 49.435 29.1667L45.355 31.7778C44.4607 30.1667 43.5106 29.5556 42.0015 29.5556C40.4366 29.5556 39.4864 30.5 39.4864 31.7778C39.4864 33.3333 40.4366 34 42.7281 34.9444L44.0136 35.5C48.4849 37.3889 51 39.3333 51 43.7222C51 48.4444 47.3112 51 42.281 51C37.4184 51 34.2326 48.6667 32.7236 45.6667L36.8595 43.1667ZM18.3036 43.6111C19.142 45.0556 19.8686 46.2778 21.6571 46.2778C23.3897 46.2778 24.4517 45.6111 24.4517 43V25.2222H29.7054V43.1111C29.7054 48.5 26.5196 51 21.8807 51C17.6888 51 15.2296 48.8333 14 46.2222L18.3036 43.6111Z" fill="black"/>
</svg>
