<svg width="55" height="33" viewBox="0 0 55 33" fill="none" xmlns="http://www.w3.org/2000/svg">
<path d="M27.5 0C20.185 0 15.565 3.685 13.75 11C16.5 7.315 19.69 5.94 23.375 6.875C25.465 7.425 26.95 8.91 28.6 10.615C31.295 13.365 34.43 16.5 41.25 16.5C48.565 16.5 53.185 12.815 55 5.5C52.25 9.185 49.06 10.56 45.375 9.625C43.285 9.075 41.8 7.59 40.15 5.885C37.455 3.19 34.32 0 27.5 0ZM13.75 16.5C6.435 16.5 1.815 20.185 0 27.5C2.75 23.815 5.94 22.44 9.625 23.375C11.715 23.925 13.2 25.41 14.85 27.115C17.545 29.865 20.68 33 27.5 33C34.815 33 39.435 29.315 41.25 22C38.5 25.685 35.31 27.06 31.625 26.125C29.535 25.63 28.05 24.09 26.4 22.385C23.705 19.69 20.57 16.5 13.75 16.5Z" fill="#06B6D4"/>
</svg>
