<svg viewBox="0 0 90 90" xmlns="http://www.w3.org/2000/svg"><g fill="none" fill-rule="evenodd"><path fill="#6E83F0" fill-rule="nonzero" d="M0 0h90v90H0z"/><path d="M65.962 50.504a5.107 5.107 0 0 1-.833-.266 1.915 1.915 0 0 1-.592-.398c.161-1.41 0-2.632.135-4.015.537-5.37 3.953-3.669 7.018-4.546 1.91-.532 3.819-1.622 4.303-3.856a39.29 39.29 0 0 0-6.992-6.354c-8.31-5.85-19.174-8.189-29.043-6.567a14.85 14.85 0 0 0 6.527 5.982s-2.674 0-4.967-1.693c-.672.266-2.017.79-2.663 1.108 5.244 4.972 13.446 5.53 19.336 1.064-.027.053-.538.824-1.157 4.04-1.371 6.86-5.325 6.329-10.219 4.6-10.165-3.642-15.758-.265-20.841-7.178a4.63 4.63 0 0 0-2.393 4.041c0 1.728.968 3.19 2.366 3.988.763-1 1.106-1.286 2.437-1.286-2.06 1.155-2.303 2.164-3.19 4.956-1.076 3.376-.619 6.832-5.647 7.736-2.663.133-2.609 1.915-3.577 4.573-1.21 3.457-2.824 4.84-5.97 8.11 1.29 1.542 2.636 1.728 4.007 1.17 2.824-1.17 5.002-4.786 7.046-7.126 2.285-2.606 7.771-1.489 11.913-4.041 2.85-1.729 4.249-4.068 2.366-8.03a7.8 7.8 0 0 1 2.044 4.786c4.787-.611 11.187 5.158 17.023 6.115a10.29 10.29 0 0 1-1.425-2.366c-.673-1.595-.888-3.058-.753-4.334.537 3.164 3.764 7.232 8.955 7.604 1.317.106 2.77-.053 4.275-.505 1.802-.532 3.47-1.223 5.46-.85 1.479.265 2.85 1.01 3.71 2.26 1.291 1.86 4.115 2.259 5.379-.027-2.85-7.365-10.703-7.844-14.038-8.695Z" fill="#FFF"/></g></svg>