<svg width="55" height="55" viewBox="0 0 55 55" fill="none" xmlns="http://www.w3.org/2000/svg">
<path d="M55 0L49.9894 49.4943L27.4663 55L5.00533 49.502L0 0H55Z" fill="#264DE4"/>
<path d="M45.6997 46.3426L49.9816 4.04752H27.5V50.7916L45.6997 46.3426Z" fill="#2965F1"/>
<path d="M11.4746 22.4071L12.0918 28.4783H27.5V22.4071H11.4746Z" fill="#EBEBEB"/>
<path d="M27.5 10.1187H27.4762H10.2346L10.8605 16.19H27.5V10.1187Z" fill="#EBEBEB"/>
<path d="M27.5 44.4912V38.1746L27.4698 38.1817L19.8015 36.3559L19.3113 31.5138H12.3994L13.364 41.0465L27.4683 44.4989L27.5 44.4912Z" fill="#EBEBEB"/>
<path d="M35.9548 28.4782L35.1556 36.3521L27.4762 38.1797V44.4961L41.5917 41.0466L43.3133 24.0373L43.4813 22.407L44.7243 10.1187H27.4762V16.19H37.1785L36.5519 22.407H27.4762V28.4782H35.9548Z" fill="white"/>
</svg>
