<svg width="55" height="55" viewBox="0 0 55 55" fill="none" xmlns="http://www.w3.org/2000/svg">
<path d="M54.818 8.14053L28.9817 54.2821C28.4483 55.2348 27.0778 55.2404 26.5364 54.2924L0.187919 8.14482C-0.402042 7.11186 0.48247 5.86047 1.65466 6.06989L27.5187 10.6869C27.6837 10.7163 27.8526 10.716 28.0175 10.686L53.3405 6.07633C54.5089 5.86368 55.3975 7.10542 54.818 8.14053Z" fill="url(#paint0_linear_487_20)"/>
<path d="M39.8389 0.0135414L20.7195 3.75529C20.5667 3.78518 20.4282 3.86493 20.3258 3.982C20.2234 4.09907 20.1628 4.24682 20.1536 4.40202L18.9775 24.2407C18.9711 24.3495 18.9901 24.4583 19.0331 24.5585C19.0761 24.6587 19.1419 24.7475 19.2252 24.8178C19.3086 24.8882 19.4072 24.9382 19.5133 24.9638C19.6193 24.9895 19.7299 24.9901 19.8363 24.9655L25.1595 23.7386C25.6575 23.6238 26.1076 24.062 26.0051 24.5621L24.4236 32.2969C24.3173 32.8175 24.8065 33.2625 25.3154 33.108L28.6034 32.1104C29.113 31.956 29.6029 32.4023 29.495 32.9233L26.9818 45.0727C26.8245 45.8327 27.8366 46.247 28.2586 45.5956L28.5407 45.1604L44.1203 14.1072C44.3814 13.5873 43.9313 12.9944 43.3598 13.1047L37.8802 14.1609C37.3654 14.26 36.9274 13.7811 37.0726 13.2781L40.6489 0.896086C40.7943 0.391836 40.3543 -0.0873086 39.8389 0.0135414Z" fill="url(#paint1_linear_487_20)"/>
<defs>
<linearGradient id="paint0_linear_487_20" x1="-0.4554" y1="4.2086" x2="31.6998" y2="43.1261" gradientUnits="userSpaceOnUse">
<stop stop-color="#41D1FF"/>
<stop offset="1" stop-color="#BD34FE"/>
</linearGradient>
<linearGradient id="paint1_linear_487_20" x1="29.9158" y1="1.0295" x2="35.6339" y2="40.3039" gradientUnits="userSpaceOnUse">
<stop stop-color="#FFEA83"/>
<stop offset="0.083" stop-color="#FFDD35"/>
<stop offset="1" stop-color="#FFA800"/>
</linearGradient>
</defs>
</svg>
